<svg xmlns="http://www.w3.org/2000/svg" width="426.667" height="320" viewBox="0 0 400 300"><defs><clipPath id="a"><path d="M0 842h595V0H0z"/></clipPath></defs><text style="line-height:0%" x="441.007" y="787.25" font-weight="400" font-family="sans-serif" letter-spacing="0" word-spacing="0" transform="translate(0 -752.362)"><tspan x="447.159" y="787.25" style="line-height:1.25;text-align:end" font-size="17.5" text-anchor="end"></tspan><tspan x="447.159" y="809.125" style="line-height:1.25;text-align:end" font-size="17.5" text-anchor="end"> </tspan><tspan x="447.159" y="831" style="line-height:1.25;text-align:end" font-size="17.5" text-anchor="end"> </tspan><tspan x="447.159" y="852.875" style="line-height:1.25;text-align:end" font-size="17.5" text-anchor="end"> </tspan><tspan x="447.159" y="874.75" style="line-height:1.25;text-align:end" font-size="17.5" text-anchor="end"></tspan></text><text style="line-height:0%" x="11.928" y="1040.593" font-weight="400" font-family="sans-serif" letter-spacing="0" word-spacing="0" transform="translate(0 -752.362)"><tspan x="11.928" y="1040.593" style="line-height:1.25;-inkscape-font-specification:Arial" font-size="16.25" font-family="Arial">frisoer@armin-schmidt.net - www.armin-schmidt.net</tspan></text><text style="line-height:0%" x="16.044" y="842.181" font-weight="400" font-family="sans-serif" letter-spacing="0" word-spacing="0" transform="translate(0 -752.362)"><tspan x="16.044" y="842.181" style="line-height:1.25;-inkscape-font-specification:Arial" font-size="20" font-family="Arial">Tel.: 0821 58 943 40</tspan><tspan x="16.044" y="864.056" style="line-height:1.25;-inkscape-font-specification:Arial" font-size="20" font-family="Arial">Fax: 0821 58 943 41</tspan></text><text style="line-height:0%" x="16.958" y="783.234" font-weight="400" font-family="sans-serif" letter-spacing="0" word-spacing="0" transform="translate(0 -752.362)"><tspan x="16.958" y="783.234" style="line-height:1.25;-inkscape-font-specification:Arial" font-size="20" font-family="Arial">Schertlinstr. 21, Prinz-Karl-Palais</tspan><tspan x="16.958" y="805.109" style="line-height:1.25;-inkscape-font-specification:Arial" font-size="20" font-family="Arial">86159 Augsburg</tspan></text><g clip-path="url(#a)" transform="matrix(.92948 0 0 -.92948 -5.087 519.63)"><path d="M362.504 546.62c23.114 4.684 35.117 3.514 41.27-20.093 20.13-77.228-27.321-138.45-49.27-159.733-56.062-54.365-125.357-43.797-146.3-8.831-15.825 26.422-8.004 63.596 32.695 86.838 56.623 32.336 82.064-12.628 81.49-30.678-.573-18.048-19.268-26.518-27.782-29.55 21.172 31.494-24.12 71.979-53.776 54.975-36.285-25.692-6.68-122.672 65.35-97.798 48.888 20.37 75.399 71.77 79.73 132.287 1.33 18.595-1.911 53.849-16.895 68.504-3.276 3.204-5.951 3.833-6.512 4.08" fill="#b51d48"/><path d="M264.225 278.222h-1.876v7.012h3.835c.329-.023.824 0 1.072-.31.123-.183.184-.535.184-1.053v-.945h.414v5.09h-.414v-.824c0-.68-.04-1.093-.328-1.3-.226-.144-.432-.164-.928-.184h-3.835v6.287h4.186c.76 0 1.196.04 1.422-.33.164-.25.185-.534.206-1.114v-1.195h.412v3.03h-10.02v-.391h1.856v-13.773h-1.856v-.39h5.67z" fill="#231f20"/><path d="M277.766 285.398v6.514h.742c.907 0 1.774-.04 2.557-.558.515-.308 1.277-1.03 1.277-2.493 0-1.586-.825-2.824-2.35-3.277-.412-.123-.742-.186-1.566-.186zm1.855-7.177h-1.855v6.682h.722c.762 0 .969 0 1.73.123l3.073-5.358c.104-.166.207-.332.33-.498a5.712 5.712 0 0 1 1.258-1.297c.103-.06.803-.536 1.402-.764.288-.104.39-.104.535-.143l.268.286c-.123.127-.226.228-.31.375a12.95 12.95 0 0 0-.947 1.462l-3.752 6.392c.144.081.679.308 1.113.68.742.616 1.236 1.67 1.236 2.657 0 .764-.288 1.527-.742 2.104-1.092 1.361-2.843 1.423-3.36 1.464h-6.062v-.39h1.568V278.22h-1.774v-.389h5.567z" fill="#231f20" fill-rule="evenodd"/><path d="M297.137 278.222h-1.813v13.773h1.813v.392h-5.523v-.392h1.814v-13.773h-1.814v-.39h5.523zM303.547 281.79h-.473v-3.36c.186-.105.473-.289.99-.475 1.298-.494 2.637-.557 3.09-.557 1.569 0 3.383.516 4.456 1.773.865 1.012.968 2.208.968 2.682 0 .598-.124 1.668-1.177 2.74-1.03 1.053-2.452 1.486-2.865 1.629l-.968.392c-.886.329-1.65.661-2.06 1.568a2.49 2.49 0 0 0-.27 1.111c0 .908.455 1.794 1.155 2.351.33.268 1.093.721 2.226.743.99 0 2.309-.371 2.782-1.362.146-.308.209-.639.229-1.318v-1.176h.493v3.278c-.618.33-1.853 1.011-3.687 1.011-1.795 0-3.836-.681-4.641-2.454a3.853 3.853 0 0 1-.352-1.567c0-.617.208-2.103 1.67-3.113.497-.348.93-.514 1.487-.722l1.257-.452c.495-.207 2.784-.929 2.784-3.197 0-1.483-.866-2.719-2.27-3.236-.637-.247-1.236-.247-1.504-.247-.824 0-1.877.227-2.556.721-.681.537-.721 1.175-.743 1.506 0 .184 0 .371-.021.536z" fill="#231f20"/><path d="M331.332 285.338c.019-2.682-.826-4.477-1.424-5.342-1.318-1.96-3.154-2.101-4.019-2.101-1.258 0-2.001.307-2.475.578a6.007 6.007 0 0 0-1.504 1.399c-1.486 2.02-1.608 4.577-1.608 5.278 0 2.249.844 5.112 2.824 6.43.475.31 1.36.807 2.742.807 1.505 0 2.928-.62 3.856-1.815.637-.845 1.566-2.597 1.608-5.234m2.123.06c-.043 1.279-.453 5.01-4.227 6.7a8.402 8.402 0 0 1-3.464.722c-2.225 0-4.348-.804-5.751-2.558-1.156-1.401-1.794-3.401-1.794-5.195 0-2 .764-4.163 2.187-5.586 1.401-1.402 3.403-2.082 5.339-2.082 2.204 0 4.431.845 5.896 2.537 1.814 2.082 1.834 4.554 1.814 5.463m-8.494 9.212c0 .64-.494 1.073-1.113 1.073-.598 0-1.073-.451-1.073-1.05 0-.64.453-1.135 1.094-1.135.658 0 1.092.475 1.092 1.112m3.958 0c0 .559-.495 1.073-1.093 1.073-.165 0-.742-.103-.99-.638a1.19 1.19 0 0 1-.082-.454c-.02-.618.474-1.093 1.094-1.112.433 0 .824.225.988.637.103.227.103.395.083.494M342.537 285.398v6.514h.742c.908 0 1.774-.04 2.557-.558.515-.308 1.28-1.03 1.28-2.493 0-1.586-.827-2.824-2.35-3.277-.415-.123-.743-.186-1.569-.186zm1.856-7.177h-1.856v6.682h.722c.764 0 .968 0 1.732.123l3.071-5.358c.104-.166.205-.332.33-.498a5.778 5.778 0 0 1 1.257-1.297c.105-.06.806-.536 1.404-.764.287-.104.391-.104.535-.143l.268.286a1.723 1.723 0 0 0-.309.375c-.164.205-.577.802-.948 1.462l-3.752 6.392c.143.081.68.308 1.112.68.743.616 1.236 1.67 1.236 2.657 0 .764-.287 1.527-.74 2.104-1.094 1.361-2.846 1.423-3.36 1.464h-6.062v-.39h1.566V278.22h-1.773v-.389h5.567z" fill="#231f20" fill-rule="evenodd"/><path d="M230.148 319.129h-2.146v-4.336c0-4.426 2.892-6.265 6.483-6.265 5.914 0 6.309 4.425 6.309 7.359 0 4.206-1.446 5.695-4.644 8.982-4.644 4.73-5.256 6-5.256 9.025 0 3.02.919 4.64 3.724 4.64 3.634 0 3.634-2.887 3.634-4.772v-2.76h2.103v2.232c0 2.938 0 7.14-5.782 7.14-5.434 0-5.826-4.247-5.826-6.832 0-4.337 1.927-6.265 5.387-9.725 3.548-3.504 4.513-4.82 4.513-8.323 0-3.2-.92-5.04-3.986-5.04-.921 0-2.584.177-3.592 1.446-.921 1.184-.921 2.454-.921 4.778zM253.397 316.02c0-3.066.438-4.337 1.357-5.477.92-1.093 2.367-2.014 4.688-2.014 6.309 0 6.309 4.776 6.309 6.35v4.776h-2.191v-4.775c0-.92 0-4.337-3.767-4.337-4.292 0-4.292 3.68-4.292 7.623v15.069c0 3.113 1.18 5.039 4.249 5.039 1.225 0 2.408-.57 2.978-1.71.525-1.005.525-1.883.525-6.614h2.147v4.338c0 3.285-1.444 4.51-2.41 5.082-1.007.614-2.234.877-3.46.877-1.621 0-3.24-.351-4.513-1.754-1.62-1.577-1.62-3.328-1.62-5.696zM276.849 339.94v-30.93h2.147v15.289h7.973v-15.29h2.147v30.93h-2.147v-13.757h-7.973v13.757zM311.135 320.488c-.658-3.417-.788-4.383-1.27-8.193-.525 3.548-.613 4.162-1.71 9.857l-3.46 17.787h-3.154l-.263-30.93h2.103v19.19c0 3.328 0 6.832-.133 9.986l5.565-29.176h2.015l5.565 29.045c-.133-2.847-.133-3.154-.133-5.826l.088-23.219h2.015l-.306 30.93h-3.11zM332.418 309.01h2.234v30.93h-2.234z" fill="#231f20"/><path d="M359.01 320.225c0-5.915-1.271-7.314-2.453-8.192-1.533-1.095-2.848-1.095-5.651-1.095v27.029c2.979 0 6.133 0 7.404-3.68.525-1.623.7-3.943.7-7.01zm-10.25-11.215h4.073c4.95 0 6.923 2.89 7.624 4.993.393 1.14.657 2.675.657 6.398v6.877c0 8.894-1.446 12.706-9.725 12.706h-2.63z" fill="#231f20" fill-rule="evenodd"/><path d="M370.113 339.983v-1.972h5.39V309.01h2.145v29.002h5.52v1.972z" fill="#231f20"/><path d="M272.998 358.652h-4.051l1.793 10.297c.063.34.092.681.154.988.032.311.063.59.094.9.123-.806.247-1.765.309-2.074zm-3.063 13.884l-3.988-21.956h1.608l1.144 6.648h4.576l1.114-6.648h1.608l-3.958 21.956zM288.072 371.114c1.484 0 2.566-.403 2.566-2.907v-3.369c0-1.64-.959-2.32-2.659-2.32h-2.753v8.596zm-4.359-20.534h1.513v10.638h2.381l3.988-10.638h1.611l-4.023 10.762c3.063.588 3.063 2.968 3.063 3.865v3.401c0 3.556-2.659 3.804-4.329 3.804h-4.204z" fill="#231f20" fill-rule="evenodd"/><path d="M308.162 358.682c-.464-2.411-.557-3.092-.896-5.781-.372 2.504-.434 2.936-1.208 6.957l-2.443 12.554h-2.225l-.186-21.832h1.483v13.546c0 2.349 0 4.824-.092 7.05l3.928-20.596h1.422l3.928 20.502c-.093-2.01-.093-2.225-.093-4.113l.062-16.39h1.423l-.216 21.833h-2.198zM322.562 350.58h1.577v21.832h-1.577zM341.178 372.412l.124-15.926c0-2.226.093-4.11.155-5.256l-5.288 21.182h-2.226V350.58h1.42l-.06 15.525c0 2.194-.031 2.844-.125 5.35l5.167-20.875h2.316v21.832z" fill="#231f20"/><path d="M182.738 302.11h244.055" fill="none" stroke="#231f20" stroke-width=".756" stroke-miterlimit="3.864"/></g></svg>