<svg xmlns="http://www.w3.org/2000/svg" width="400" height="300" viewBox="0 0 400.00004 300.00002"><defs><clipPath id="a"><path fill="none" stroke="#000" stroke-width=".654" d="M-2634.905 586.838h203.65v64.387h-203.65z"/></clipPath></defs><path fill="#ffc000" d="M0 .256h70.942V45.02H0z"/><path d="M70.931 44.402l-.03-40.75L400 3.477V44.62l-185.638-.053c-7.432-.036-143.43-.165-143.43-.165zM30.67 37.485c-.478-.103-1.431-.436-2.118-.74-.687-.303-1.395-.495-1.575-.427-.326.125-.066-.73.784-2.58l.274-.595.372.612c.754 1.24 4.033 2.102 5.989 1.573 1.513-.41 2.203-1.837 1.158-2.396-.203-.109-1.571-.355-3.04-.546-3.471-.453-4.347-.836-5.057-2.21-.435-.841-.462-2.212-.063-3.167.997-2.385 4.813-3.202 8.766-1.878 1.066.357 2.095.65 2.286.65.46 0 .452.04-.324 1.6l-.67 1.347-.698-.698c-1.915-1.915-6.781-1.767-7.017.213-.093.78.7 1.088 3.642 1.41 2.964.324 4.326.946 4.965 2.268 1.034 2.134.134 4.217-2.258 5.23-.998.422-4.109.614-5.416.333zm-20.315-.394c.259-.206.761-1.008 1.116-1.782a1295.9 1295.9 0 0 1 2.506-5.397c1.024-2.194 1.861-4.147 1.861-4.342a.998.998 0 0 0-.26-.612c-.202-.202.263-.26 2.091-.26 2.33 0 2.347.004 1.962.43-.377.417-.315.58 2.26 5.9 1.458 3.01 2.89 5.691 3.183 5.96l.533.486h-2.41c-2.19 0-2.378-.03-2.069-.34.425-.424.44-.294-.207-1.71l-.548-1.198h-5.748l-.476.98c-.538 1.107-.594 1.63-.216 2.009.202.202-.22.258-1.895.255-2.08-.005-2.138-.018-1.683-.38zm9.097-4.868c-.565-1.34-1.736-3.97-1.8-4.042-.138-.154-.253.047-1.257 2.212l-.976 2.1h2.074c1.575 0 2.046-.064 1.959-.27zm25.089 4.946c.49-.358.671.257-2.007-6.84-1.18-3.128-2.004-5.007-2.302-5.247-.448-.36-.381-.375 1.798-.38 1.76-.003 2.205.054 2.003.256a.985.985 0 0 0-.26.595c-.004.597 2.462 7.164 2.625 6.996.237-.247 2.79-6.728 2.79-7.085 0-.172-.171-.41-.38-.532-.273-.16.31-.223 2.099-.228 2.199-.005 2.43.029 2.057.303-.414.306-.413.33.079 1.753.274.794.9 2.48 1.388 3.746l.89 2.304.362-.862c.2-.474.834-2.154 1.41-3.734 1.018-2.792 1.035-2.882.631-3.188-.373-.281-.178-.315 1.858-.316 2.19-.004 2.256.011 1.804.372-.305.243-1.157 2.176-2.433 5.522-2.377 6.23-2.369 6.201-1.852 6.58.343.25.104.29-1.734.29-2.059 0-2.12-.013-1.771-.4.34-.376.274-.627-1.164-4.373-.839-2.185-1.56-4.008-1.602-4.05-.068-.069-2.162 5.15-2.954 7.36-.266.742-.255.839.131 1.13.381.289.213.32-1.73.326-1.904.007-2.105-.028-1.736-.298z" fill="#006fc0"/><path transform="translate(912.889 -201.681) scale(.34648)" clip-path="url(#a)" d="M-2631.397 648.347c.326-.293 3.192-2.121 6.368-4.062l5.775-3.53h89.388v-6.866l-38.281-.16-38.282-.162 5.938-3.893 5.937-3.894 32.344-.013 32.344-.013v-5.625h-26.563c-15.77 0-26.562-.233-26.562-.575 0-.317 2.46-2.004 5.469-3.75l5.468-3.174h42.188v-5.605l-16.406-.166-16.407-.167 5.965-3.594 5.965-3.594h20.33l-.192-2.585-.193-2.585-5.156.048c-2.836.027-5.156-.085-5.156-.249 0-.667 9.778-6.504 10.896-6.504.664 0 5.445 2.635 10.625 5.855 5.179 3.22 17.713 10.989 27.854 17.262 20.821 12.882 34.299 21.222 49.503 30.632 5.742 3.554 10.296 6.696 10.12 6.982-.177.286-45.22.52-100.097.52-55.04 0-99.51-.24-99.182-.533z"/><text style="line-height:125%;text-align:center" x="-1112.218" y="1334.097" font-weight="400" font-size="40" font-family="Sans" letter-spacing="0" word-spacing="0" text-anchor="middle" transform="translate(1312.096 -1166.815)"><tspan x="-1112.218" y="1334.097" style="-inkscape-font-specification:'Times New Roman, Bold';text-align:center" font-weight="700" font-size="25" font-family="Times New Roman">Bobingerstr. 16</tspan> <tspan x="-1112.218" y="1362.222" style="-inkscape-font-specification:'Times New Roman, Bold';text-align:center" font-weight="700" font-size="25" font-family="Times New Roman">86399 Waldberg</tspan> <tspan x="-1112.218" y="1418.472" style="-inkscape-font-specification:'Times New Roman, Bold';text-align:center" font-weight="700" font-size="22.5" font-family="Times New Roman">Tel.: 08204/1392 - Fax.: 08204 298477</tspan> <tspan x="-1112.218" y="1446.597" style="-inkscape-font-specification:'Times New Roman, Bold';text-align:center" font-weight="700" font-size="22.5" font-family="Times New Roman">E-Mail: info@ablaug-strahlcenter.de</tspan></text><text style="line-height:125%;-inkscape-font-specification:'Copperplate Gothic Light, '" x="200.805" y="66.745" font-weight="400" font-size="13.75" font-family="Copperplate Gothic Light" letter-spacing="0" word-spacing="0" stroke="#000" stroke-width=".75"><tspan x="200.805" y="66.745" style="line-height:124.00000095%;text-align:center" font-size="18.747" text-anchor="middle">Strahlarbeiten Aller Art</tspan><tspan x="200.805" y="89.991" style="line-height:124.00000095%;text-align:center" font-size="18.747" text-anchor="middle">Trockeneisreinigung</tspan><tspan x="200.805" y="113.236" style="line-height:124.00000095%;text-align:center" font-size="18.747" text-anchor="middle">Kompletter Vor-Ort-Service</tspan></text><text style="line-height:125%;-inkscape-font-specification:'Copperplate Gothic Light, '" x="78.178" y="38.059" font-weight="400" font-size="13.75" font-family="Copperplate Gothic Light" letter-spacing="0" word-spacing="0" stroke-width=".65"><tspan x="78.178" y="38.059" font-size="16.533" fill="#fff" stroke="#fff">Ablaug- &amp; Strahlcenter Waldberg</tspan></text></svg>