<svg xmlns="http://www.w3.org/2000/svg" width="400" height="300" viewBox="0 0 400.00004 300.00002"><defs><clipPath id="a"><path fill="none" stroke="#000" stroke-width=".654" d="M-2634.905 586.838h203.65v64.387h-203.65z"/></clipPath></defs><path fill="#ffc000" d="M0 .256h70.942V45.02H0z"/><path d="M49.458 44.458l20.735-.056V33.684c0-7.001.075-10.718.216-10.718.141 0 .217-3.393.217-9.745V3.476H400V44.62l-185.638-.053c-102.102-.03-176.308-.079-164.904-.11zM111.77 37.8c0-1.102-.218-1.496-.54-.974-.077.123-1.158.216-2.504.216h-2.37v-3.248c0-2.021.083-3.248.217-3.248.12 0 .217-.098.217-.217 0-.125-.697-.216-1.658-.216-1.592 0-1.643.015-1.3.396.303.333.36.938.36 3.826 0 2.889-.057 3.494-.36 3.827-.345.382-.225.396 3.453.396 2.307 0 3.863.086 3.944.217.323.522.541.128.541-.975zm118.02 0c0-1.102-.218-1.496-.54-.974-.077.123-1.158.216-2.504.216h-2.369v-3.248c0-2.021.082-3.248.217-3.248a.217.217 0 0 0 .216-.217c0-.125-.697-.216-1.658-.216-1.592 0-1.643.015-1.299.396.302.333.359.938.359 3.826 0 2.889-.057 3.494-.359 3.827-.346.382-.226.396 3.452.396 2.307 0 3.863.086 3.944.217.323.522.542.128.542-.975zm20.573-.023c0-1.081-.041-1.194-.379-1.032-.208.1-1.621.214-3.14.252l-2.76.07v-2.19h1.719c.946 0 1.78.097 1.853.216.323.522.542.128.542-.974 0-1.103-.22-1.496-.542-.975-.073.12-.907.217-1.853.217h-1.72v-1.758l2.653.07c1.459.039 2.823.152 3.032.252.338.162.379.048.379-1.055 0-1.105-.041-1.218-.38-1.052-.208.102-2.157.214-4.33.249-2.329.037-3.952.148-3.952.27 0 .114.097.208.216.208.136 0 .217 1.407.217 3.79 0 2.382-.08 3.79-.217 3.79a.217.217 0 0 0-.216.216c0 .136 1.464.217 3.952.22 2.177 0 4.098.097 4.277.213.568.367.65.243.65-.998zm30.534 0c0-1.081-.042-1.194-.379-1.032-.208.1-1.621.214-3.14.252l-2.761.07v-2.19h1.72c.945 0 1.78.097 1.853.216.323.522.541.128.541-.974 0-1.103-.218-1.496-.541-.975-.074.12-.908.217-1.853.217h-1.72v-1.732h2.586c1.49 0 2.642.091 2.72.216.322.522.54.128.54-.974 0-1.103-.218-1.497-.54-.975-.082.131-1.663.217-4.02.217-3.553 0-4.353.118-3.668.541.13.08.216 1.55.216 3.681 0 2.132-.086 3.601-.216 3.682-.686.424.12.541 3.735.544 2.178 0 4.098.098 4.277.214.569.367.65.243.65-.998zm52.189.023c0-1.102-.22-1.496-.542-.974-.076.123-1.157.216-2.503.216h-2.369v-3.248c0-2.021.082-3.248.217-3.248a.217.217 0 0 0 .216-.217c0-.125-.697-.216-1.658-.216-1.592 0-1.643.015-1.299.396.302.333.358.938.358 3.826 0 2.889-.056 3.494-.358 3.827-.346.382-.226.396 3.452.396 2.307 0 3.863.086 3.944.217.323.522.542.128.542-.975zm31.183 0c0-1.102-.219-1.496-.541-.974-.078.125-1.266.216-2.828.216h-2.694v-2.165h1.611c.886 0 1.672.097 1.745.216.323.522.542.128.542-.974 0-1.102-.22-1.496-.542-.975-.073.12-.859.217-1.745.217h-1.611v-1.732h2.586c1.49 0 2.642.091 2.72.216.322.522.54.128.54-.974 0-1.103-.218-1.497-.54-.975-.082.132-1.7.217-4.128.217-2.518 0-3.993.08-3.993.216 0 .12.097.217.216.217.136 0 .217 1.407.217 3.79 0 2.382-.08 3.79-.217 3.79a.217.217 0 0 0-.216.216c0 .136 1.511.216 4.101.216 2.501 0 4.154.085 4.236.217.322.522.541.128.541-.975zm-233.536.658c1.597-.667 1.826-1.314 1.826-5.15 0-1.697.084-2.762.217-2.762a.217.217 0 0 0 .216-.217c0-.124-.664-.216-1.559-.216-1.212 0-1.501.057-1.299.26.326.325.36 5.43.04 6.027-.324.603-1.746.93-2.808.643-.475-.127-.962-.417-1.083-.643-.32-.598-.286-5.702.04-6.027.202-.203-.111-.26-1.408-.26-.967 0-1.667.09-1.667.216 0 .12.088.217.196.217.108 0 .23 1.406.27 3.124.084 3.494.262 3.985 1.715 4.725.956.488 4.195.526 5.304.063zm12.306-.397c1.21-.56 1.258-.61.92-.984-.472-.523-.471-2.147.003-2.67.345-.382.273-.396-1.936-.396-1.297 0-2.353-.095-2.429-.217-.313-.507-.541-.142-.541.866 0 1.009.228 1.374.541.867.074-.12.616-.217 1.204-.217 1.042 0 1.07.017 1.07.642 0 .737-.33.966-1.692 1.174-2.43.37-4.373-1.354-3.854-3.422.221-.881 1.187-1.835 2.11-2.083 1.091-.294 3.034.211 3.53.918.382.546.362.56.962-.631.523-1.037.581-1.439.19-1.308-.15.05-.78-.088-1.403-.306-2.668-.937-5.715-.25-6.912 1.56-1.17 1.767-.896 4.37.607 5.772 1.002.935 1.87 1.16 4.188 1.09 1.814-.055 2.373-.161 3.442-.655zm16.095.057l1.164-.658.667.475c.38.27 1.123.52 1.723.577l1.055.101v-1.218c0-1.13-.217-1.528-.544-.999-.177.288-1.405-.427-1.405-.818 0-.527 1.054-1.389 1.52-1.241.4.127.429.033.429-1.395 0-1.08-.08-1.53-.27-1.53-.518 0-1.67.857-2.268 1.683l-.603.832-.51-.616-.51-.616.565-.523c.45-.417.564-.724.564-1.515 0-.546-.152-1.225-.338-1.508-.448-.684-1.8-1.202-3.138-1.202-2.205 0-3.576 1.12-3.392 2.77.057.511.26 1.102.452 1.314.324.358.303.42-.312.874-.933.69-1.5 1.72-1.5 2.73 0 1.903 1.613 3.14 4.096 3.14 1.148 0 1.593-.115 2.555-.657zm-3.079-1.302c-.82-.25-1.19-.754-1.19-1.618 0-1.922 3.08-2.342 3.998-.545.68 1.33-1.083 2.689-2.808 2.163zm.61-4.968c-1.111-.458-1.07-1.746.068-2.18 1.064-.404 2.03.2 2.03 1.27 0 .77-1.19 1.285-2.098.91zm19.496 6.693c.458-.127 1.177-.547 1.598-.932.646-.593.782-.882.876-1.86.223-2.316-.94-3.272-4.498-3.7-2.318-.28-2.815-.469-2.815-1.073 0-1.605 4.902-1.467 5.822.164.267.473.471.287 1.205-1.093.67-1.26.668-1.236.065-1.199-.268.016-1.093-.18-1.834-.435-2.755-.953-5.927-.471-7.048 1.069-.597.821-.693 2.104-.224 3.005.575 1.108 1.491 1.524 4.102 1.867 1.266.167 2.44.417 2.608.556.449.372.262 1.051-.432 1.567-1.19.886-4.621.292-5.386-.933-.155-.248-.344-.45-.42-.45-.184 0-1.122 2.316-1.024 2.525.042.089.222.182.4.208.18.025.91.244 1.625.485 1.457.493 4.035.603 5.38.23zm62.4-.38c.715-.338 1.421-.574 1.57-.524.445.15.312-.238-.432-1.248-.465-.632-.724-.841-.767-.619-.08.416-1.417 1.168-2.403 1.353-2.45.458-4.555-1.822-3.58-3.878.428-.902.978-1.329 2.106-1.633 1.091-.296 2.976.23 3.58.996l.426.542.67-.912c.721-.98.83-1.315.398-1.215-.15.034-.893-.217-1.653-.557-1.26-.566-1.546-.612-3.3-.528-1.695.08-2.024.166-2.823.729-2.953 2.08-2.361 6.668 1.01 7.846.358.125 1.381.235 2.275.244 1.355.015 1.839-.084 2.923-.597zm145.925.08c1.713-.604 1.825-.682 1.478-1.029-.346-.346-.335-2.692.014-2.918.153-.098-.723-.226-2.003-.292-1.25-.064-2.444-.196-2.652-.294-.336-.156-.38-.046-.38.952 0 .996.045 1.11.38.96.208-.094.841-.211 1.407-.261 1.023-.09 1.029-.087 1.029.572 0 .735-.31.973-1.55 1.197-2.51.453-4.532-1.407-3.883-3.573.371-1.238 1.465-1.988 2.9-1.988 1.185 0 2.466.501 2.675 1.047.213.553.512.339.948-.679.496-1.156.527-1.426.155-1.36-.149.027-.8-.115-1.447-.315-1.473-.456-3.676-.468-4.732-.028-3.807 1.59-3.768 6.943.061 8.281 1.238.433 3.981.3 5.6-.271zm-301.358.013c-.365-.277-.363-.338.046-1.293l.43-1.001h4.568l.484 1.008c.357.742.413 1.032.214 1.1-.149.051-.27.182-.27.292 0 .109.877.198 1.948.198 1.792 0 2.432-.201 1.625-.511-.179-.069-1.307-2.15-2.509-4.625-1.774-3.656-2.14-4.571-1.947-4.88.219-.35.09-.378-1.716-.378-1.857 0-1.94.02-1.698.407.215.345-.074 1.094-1.888 4.898-1.178 2.47-2.266 4.538-2.418 4.596-.756.29-.083.492 1.619.486 1.632-.006 1.841-.047 1.512-.297zm1.357-4.01c0-.109.325-.877.722-1.706l.723-1.507.775 1.706.775 1.707h-1.497c-.824 0-1.498-.09-1.498-.2zm16.672 3.99c.918-.474 1.302-1.154 1.302-2.303 0-.864-.098-1.098-.654-1.566-.627-.527-.636-.56-.226-.78.525-.281.77-1.433.47-2.22-.41-1.077-1.14-1.252-5.21-1.252-3.374 0-4.155.121-3.475.541.13.08.216 1.55.216 3.681 0 2.132-.086 3.601-.216 3.682-.68.42.101.541 3.475.541 2.852 0 3.835-.074 4.318-.323zm-5.411-2.383v-1.19l1.678.003c2.06.003 2.761.305 2.761 1.188 0 .882-.701 1.183-2.761 1.187l-1.678.004V35.85zm0-3.465v-.758l1.57.004c2.077.004 2.544.143 2.544.755s-.467.751-2.544.755l-1.57.003v-.758zm19.273 5.847c-.215-.258-.215-.456 0-.974l.269-.65h1.907c1.889 0 1.91.006 2.22.63.28.559.276.668-.03.974-.315.316-.183.345 1.543.345 1.71 0 2.363-.204 1.595-.499-.161-.061-.562-.632-.892-1.268-.33-.636-1.176-2.245-1.882-3.575-.783-1.477-1.195-2.472-1.057-2.557.585-.362.076-.546-1.51-.546-1.678 0-1.725.013-1.464.432.236.378.046.882-1.513 4.006-.98 1.966-1.881 3.574-2 3.574a.218.218 0 0 0-.218.217c0 .125.695.216 1.65.216 1.443 0 1.617-.04 1.382-.325zm1.43-4.06c.314-.625.601-1.171.638-1.213.07-.077 1.18 2.026 1.18 2.234 0 .064-.538.116-1.195.116h-1.194l.57-1.137zm68.636 3.904c-.265-.38-.337-1.115-.337-3.465v-2.984h1.287c.707 0 1.346.098 1.42.217.074.12.274.217.446.217.234 0 .312-.299.312-1.191 0-.893-.078-1.191-.312-1.191-.172 0-.372.097-.446.216-.08.13-1.586.217-3.79.217-2.203 0-3.709-.086-3.79-.217-.322-.522-.54-.128-.54.975 0 1.102.218 1.496.54.974.074-.12.714-.217 1.421-.217h1.287v3.205c0 2.204-.081 3.287-.26 3.465-.202.202.113.26 1.42.26h1.68l-.338-.481zm6.755.18c-.294-.223-.379-.61-.379-1.726v-1.438l.92.005c.888.004.958.057 1.942 1.449.772 1.092.963 1.513.785 1.728-.19.23.119.283 1.632.283 1.1 0 1.867-.089 1.867-.217a.212.212 0 0 0-.206-.216c-.223 0-2.392-2.595-2.392-2.862 0-.089.244-.223.542-.298 1.597-.4 2.167-2.72.992-4.037l-.631-.707-4.025-.068c-2.737-.046-4.024.006-4.024.163 0 .126.097.23.216.23.136 0 .217 1.407.217 3.79 0 2.381-.08 3.789-.217 3.789a.217.217 0 0 0-.216.216c0 .127.699.214 1.678.21 1.442-.006 1.625-.047 1.3-.294zm-.379-5.676v-.996l1.942.076c2.075.081 2.76.396 2.476 1.137-.215.56-1.004.78-2.808.78h-1.61v-.997zm10.611 5.779c0-.11-.116-.238-.259-.285-.198-.066-.192-.25.026-.776l.286-.69h3.834l.36.694c.247.48.282.72.113.776-.135.045-.245.171-.245.28 0 .11.852.197 1.895.194 1.827-.004 1.878-.018 1.437-.379-.481-.393-3.982-6.777-3.982-7.261 0-.154.117-.398.26-.54.202-.203-.136-.26-1.52-.26-1.763 0-1.779.004-1.651.511.093.374-.346 1.459-1.622 4.007-.962 1.922-1.846 3.494-1.965 3.494a.217.217 0 0 0-.215.217c0 .125.686.216 1.624.216.893 0 1.624-.09 1.624-.198zm.867-3.166c0-.208 1.11-2.311 1.179-2.234.037.042.325.588.639 1.213l.57 1.137h-1.194c-.657 0-1.194-.052-1.194-.116zm10.437 3.104c-.154-.154-.26-.9-.26-1.84v-1.581h4.548v1.546c0 1.218-.08 1.607-.379 1.834-.326.247-.143.288 1.3.294.978.004 1.678-.083 1.678-.21a.217.217 0 0 0-.217-.216c-.136 0-.217-1.408-.217-3.79s.08-3.79.217-3.79c.12 0 .217-.097.217-.216 0-.126-.7-.214-1.679-.21-1.442.006-1.625.048-1.299.295.289.22.379.605.379 1.617v1.33h-4.548v-1.364c0-.773.113-1.477.26-1.625.202-.202-.11-.26-1.407-.26-.968 0-1.668.092-1.668.217 0 .12.098.217.217.217.136 0 .216 1.407.216 3.79 0 2.381-.08 3.789-.216 3.789a.217.217 0 0 0-.217.217c0 .125.7.216 1.668.216 1.297 0 1.61-.058 1.407-.26zm40.928 0c-.17-.17-.26-1.08-.26-2.649V33.26l2.364 2.356c1.406 1.402 2.317 2.474 2.25 2.649-.089.231.245.292 1.59.286 1.46-.006 1.647-.047 1.322-.294-.335-.254-.38-.715-.38-3.922 0-3.206.045-3.667.38-3.92.326-.249.16-.29-1.191-.296-.907-.004-1.57.085-1.57.21 0 .12.097.217.216.217.132 0 .217.955.217 2.432v2.433l-2.385-2.378c-1.312-1.307-2.286-2.41-2.166-2.45.121-.04.22-.163.22-.272 0-.11-.78-.198-1.733-.198-1.01 0-1.732.09-1.732.216 0 .12.097.217.217.217.136 0 .216 1.407.216 3.79 0 2.381-.08 3.789-.216 3.789a.217.217 0 0 0-.217.217c0 .124.664.216 1.56.216 1.212 0 1.5-.058 1.298-.26zm14.033.044a.217.217 0 0 0-.217-.217c-.134 0-.216-1.227-.216-3.248v-3.249h1.286c.708 0 1.347.098 1.42.217.323.522.542.128.542-.974 0-1.103-.219-1.497-.541-.975-.08.13-1.586.217-3.79.217-2.204 0-3.709-.086-3.79-.217-.322-.522-.54-.128-.54.975 0 1.102.218 1.496.54.974.074-.12.713-.217 1.42-.217h1.287v3.249c0 2.02-.081 3.248-.216 3.248a.217.217 0 0 0-.217.217c0 .123.65.216 1.516.216s1.516-.093 1.516-.216zm16.62-.085c-.294-.223-.379-.61-.379-1.726v-1.438l.92.005c.888.004.957.056 1.95 1.461.567.801.932 1.49.813 1.53-.12.04-.218.161-.218.27 0 .11.828.199 1.84.199 1.678 0 2.312-.206 1.542-.502-.165-.063-.763-.717-1.33-1.453-.812-1.056-.966-1.379-.729-1.53.166-.104.414-.191.553-.193.138-.004.503-.303.812-.67.812-.964.782-2.326-.071-3.282l-.631-.707-4.025-.068c-2.737-.046-4.024.006-4.024.163 0 .126.097.23.216.23.136 0 .217 1.407.217 3.79 0 2.381-.08 3.789-.217 3.789a.217.217 0 0 0-.216.216c0 .127.699.214 1.678.21 1.442-.006 1.625-.047 1.3-.294zm-.379-5.632v-.997h1.49c2 0 2.78.178 2.908.663.23.88-.34 1.173-2.431 1.254l-1.967.076v-.996zm18.19 5.74c0-.107-.139-.247-.309-.312-.245-.094-.056-.752.906-3.163.669-1.675 1.279-3.045 1.356-3.045.155 0 2.379 5.634 2.379 6.03 0 .137-.098.25-.217.25a.217.217 0 0 0-.216.217c0 .126.721.216 1.732.216 1.01 0 1.732-.09 1.732-.216a.217.217 0 0 0-.216-.217c-.12 0-.215-.122-.214-.27.007-.627 3.467-9.107 3.827-9.38.342-.26.129-.298-1.664-.298-1.807 0-2.009.037-1.658.303.38.289.35.431-.686 3.187-.84 2.234-1.123 2.787-1.254 2.452-1.967-5.049-2.008-5.186-1.657-5.576.323-.359.225-.379-1.804-.372-1.816.005-2.087.05-1.77.29.346.264.289.494-.795 3.188-.687 1.706-1.222 2.769-1.297 2.578-1.836-4.674-2.024-5.306-1.69-5.684.316-.358.221-.38-1.686-.38h-2.02l.45.488c.249.268.984 1.851 1.634 3.519 1.987 5.095 2.22 5.808 1.933 5.904-.143.048-.26.176-.26.286 0 .109.78.198 1.732.198.953 0 1.733-.087 1.733-.193zm13.82-.224c-.2-.32-.202-.546-.007-.974.245-.539.321-.558 2.181-.558h1.928l.269.65c.215.518.214.716 0 .974-.236.285-.033.325 1.635.325h1.905l-.443-.487c-.245-.268-.907-1.364-1.473-2.436a301.451 301.451 0 0 0-1.782-3.324c-.549-1.002-.688-1.439-.514-1.613.479-.479.206-.585-1.495-.585-1.613 0-1.717.027-1.492.388.2.319-.073 1.016-1.54 3.947-.98 1.957-1.941 3.68-2.135 3.828-.29.22-.035.27 1.435.275 1.712.007 1.777-.01 1.528-.41zm1.47-3.968c.314-.625.601-1.171.639-1.213.069-.077 1.18 2.026 1.18 2.234 0 .064-.538.116-1.196.116h-1.194l.57-1.137zm23.698 3.898c1.29-.65 1.94-1.904 1.94-3.736 0-1.831-.65-3.085-1.94-3.735-.88-.444-1.27-.487-4.385-.487-2.135 0-3.42.08-3.42.216 0 .12.098.217.217.217.137 0 .217 1.407.217 3.79 0 2.381-.08 3.789-.217 3.789a.217.217 0 0 0-.216.217c0 .135 1.284.216 3.419.216 3.115 0 3.505-.043 4.385-.487zm-5.205-3.767v-2.737l1.698.116c1.917.131 2.49.4 2.957 1.384.435.916.41 1.767-.08 2.68-.476.887-1.428 1.253-3.33 1.279l-1.245.016v-2.738zm16.625 3.82c1.3-.792 1.553-2.643.506-3.69-.543-.543-.583-.662-.303-.895.558-.463.746-1.26.484-2.054-.405-1.226-.971-1.372-5.317-1.372-3.7 0-3.821.013-3.475.396.302.333.358.938.358 3.826 0 2.889-.056 3.494-.358 3.827-.346.382-.224.396 3.519.395 3.493 0 3.947-.043 4.586-.433zm-5.581-2.273v-1.234l1.966.076c1.643.063 2.017.145 2.274.496.169.231.307.53.307.662 0 .133-.138.431-.307.663-.257.35-.63.432-2.274.496l-1.966.075V35.85zm0-3.465v-.758h1.638c1.723 0 2.476.235 2.476.771 0 .48-.928.745-2.613.745h-1.501v-.758zm21.005 5.956a.217.217 0 0 0-.216-.217c-.124 0-.217-.65-.217-1.516v-1.516h.847c.796 0 .909.086 1.859 1.418.822 1.152.963 1.477.75 1.732-.225.272.012.315 1.722.315h1.983l-.711-.72a16.617 16.617 0 0 1-1.412-1.71l-.701-.99.501-.125c.276-.07.762-.367 1.08-.662.482-.447.579-.722.579-1.644 0-2.353-.516-2.594-5.545-2.594-3.7 0-3.822.013-3.476.396.302.333.359.938.359 3.826 0 2.889-.057 3.494-.359 3.827-.344.38-.293.396 1.3.396.96 0 1.657-.09 1.657-.216zm-.433-5.739v-.975h1.61c2.049 0 2.721.241 2.721.975s-.672.974-2.72.974h-1.611v-.974zm-222.94 2.923c.074-.119.61-.216 1.192-.216.581 0 1.117.097 1.19.216.074.12.275.217.447.217.237 0 .312-.312.312-1.3 0-1.196-.211-1.617-.542-1.082-.073.119-.658.216-1.3.216-.64 0-1.225-.097-1.298-.216-.331-.535-.542-.114-.542 1.083 0 1.196.21 1.618.542 1.082zM30.67 37.485c-.478-.103-1.431-.436-2.118-.74-.687-.303-1.395-.495-1.575-.427-.326.125-.066-.73.784-2.58l.274-.595.372.612c.754 1.24 4.033 2.102 5.989 1.573 1.513-.41 2.203-1.837 1.158-2.396-.203-.109-1.571-.355-3.04-.546-3.471-.453-4.347-.836-5.057-2.21-.435-.841-.462-2.212-.063-3.167.997-2.385 4.813-3.202 8.766-1.878 1.066.357 2.095.65 2.286.65.46 0 .452.04-.324 1.6l-.67 1.347-.698-.698c-1.915-1.915-6.781-1.767-7.017.213-.093.78.7 1.088 3.642 1.41 2.964.324 4.326.946 4.965 2.268 1.034 2.134.134 4.217-2.258 5.23-.998.422-4.109.614-5.416.333zm-20.315-.394c.259-.206.761-1.008 1.116-1.782a1295.9 1295.9 0 0 1 2.506-5.397c1.024-2.194 1.861-4.147 1.861-4.342a.998.998 0 0 0-.26-.612c-.202-.202.263-.26 2.091-.26 2.33 0 2.347.004 1.962.43-.377.417-.315.58 2.26 5.9 1.458 3.01 2.89 5.691 3.183 5.96l.533.486h-2.41c-2.19 0-2.378-.03-2.069-.34.425-.424.44-.294-.207-1.71l-.548-1.198h-5.748l-.476.98c-.538 1.107-.594 1.63-.216 2.009.202.202-.22.258-1.895.255-2.08-.005-2.138-.018-1.683-.38zm9.097-4.868c-.565-1.34-1.736-3.97-1.8-4.042-.138-.154-.253.047-1.257 2.212l-.976 2.1h2.074c1.575 0 2.046-.064 1.959-.27zm25.089 4.946c.49-.358.671.257-2.007-6.84-1.18-3.128-2.004-5.007-2.302-5.247-.448-.36-.381-.375 1.798-.38 1.76-.003 2.205.054 2.003.256a.985.985 0 0 0-.26.595c-.004.597 2.462 7.164 2.625 6.996.237-.247 2.79-6.728 2.79-7.085 0-.172-.171-.41-.38-.532-.273-.16.31-.223 2.099-.228 2.199-.005 2.43.029 2.057.303-.414.306-.413.33.079 1.753.274.794.9 2.48 1.388 3.746l.89 2.304.362-.862c.2-.474.834-2.154 1.41-3.734 1.018-2.792 1.035-2.882.631-3.188-.373-.281-.178-.315 1.858-.316 2.19-.004 2.256.011 1.804.372-.305.243-1.157 2.176-2.433 5.522-2.377 6.23-2.369 6.201-1.852 6.58.343.25.104.29-1.734.29-2.059 0-2.12-.013-1.771-.4.34-.376.274-.627-1.164-4.373-.839-2.185-1.56-4.008-1.602-4.05-.068-.069-2.162 5.15-2.954 7.36-.266.742-.255.839.131 1.13.381.289.213.32-1.73.326-1.904.007-2.105-.028-1.736-.298zM1.23 22.781c.114-.102 1.107-.735 2.207-1.408L5.44 20.15h30.972v-2.378l-13.264-.056-13.264-.056 2.057-1.35 2.058-1.348 11.206-.005 11.207-.004v-1.949h-9.204c-5.464 0-9.203-.081-9.203-.2 0-.11.853-.694 1.895-1.299l1.894-1.1h14.617V8.464l-5.685-.058-5.684-.058 2.066-1.245 2.067-1.245h7.044l-.067-.896-.066-.896-1.787.017c-.982.01-1.786-.03-1.786-.086 0-.231 3.388-2.254 3.775-2.254.23 0 1.887.913 3.681 2.029 1.795 1.116 6.138 3.807 9.651 5.98l17.152 10.614c1.99 1.232 3.568 2.32 3.506 2.42-.06.098-15.668.18-34.681.18-19.07 0-34.479-.083-34.365-.185z" fill="#006fc0"/><path transform="translate(912.889 -201.681) scale(.34648)" clip-path="url(#a)" d="M-2492.21 710.911l59.844-.162v-30.935c0-20.206.217-30.934.625-30.934.407 0 .625-9.792.625-28.125V592.63h950.625v118.75l-535.781-.153c-294.68-.084-508.852-.226-475.938-.316zm179.844-19.218c0-3.182-.632-4.319-1.563-2.813-.219.355-3.34.625-7.224.625h-6.838v-9.375c0-5.833.236-9.375.625-9.375a.627.627 0 0 0 .625-.625c0-.362-2.012-.625-4.784-.625-4.596 0-4.744.045-3.75 1.143.87.962 1.034 2.708 1.034 11.045 0 8.336-.164 10.082-1.034 11.044-.999 1.103-.652 1.143 9.963 1.143 6.657 0 11.15.247 11.383.625.931 1.506 1.563.37 1.563-2.812zm340.625 0c0-3.182-.632-4.319-1.563-2.813-.219.355-3.34.625-7.224.625h-6.838v-9.375c0-5.833.236-9.375.625-9.375a.627.627 0 0 0 .625-.625c0-.362-2.012-.625-4.785-.625-4.595 0-4.743.045-3.75 1.143.871.962 1.035 2.708 1.035 11.045 0 8.336-.164 10.082-1.035 11.044-.998 1.103-.651 1.143 9.964 1.143 6.657 0 11.15.247 11.383.625.931 1.506 1.563.37 1.563-2.812zm59.375-.067c0-3.122-.12-3.447-1.094-2.979-.601.29-4.68.616-9.062.727l-7.97.2v-6.319h4.964c2.73 0 5.137.281 5.35.625.93 1.506 1.562.37 1.562-2.813 0-3.181-.632-4.318-1.563-2.812-.212.344-2.62.625-5.349.625h-4.963v-5.072l7.656.203c4.211.112 8.149.44 8.75.728.975.468 1.094.138 1.094-3.047 0-3.188-.117-3.513-1.094-3.035-.601.294-6.226.617-12.5.718-6.72.108-11.406.43-11.406.782 0 .329.281.598.625.598.393 0 .625 4.062.625 10.937 0 6.875-.232 10.938-.625 10.938a.627.627 0 0 0-.625.625c0 .393 4.225.628 11.406.634 6.284 0 11.827.282 12.344.616 1.641 1.06 1.875.702 1.875-2.88zm88.125 0c0-3.122-.12-3.447-1.094-2.979-.601.29-4.68.616-9.062.727l-7.97.2v-6.319h4.964c2.73 0 5.137.281 5.35.625.93 1.506 1.562.37 1.562-2.813 0-3.181-.632-4.318-1.563-2.812-.212.344-2.62.625-5.349.625h-4.963v-5h7.463c4.301 0 7.627.265 7.85.625.93 1.506 1.562.37 1.562-2.813 0-3.181-.632-4.318-1.563-2.812-.234.379-4.798.625-11.599.625-10.255 0-12.565.34-10.588 1.562.375.232.625 4.474.625 10.625 0 6.152-.25 10.393-.625 10.625-1.98 1.224.348 1.564 10.781 1.572 6.284 0 11.827.282 12.344.616 1.641 1.06 1.875.702 1.875-2.88zm150.625.067c0-3.182-.632-4.319-1.563-2.813-.219.355-3.34.625-7.224.625h-6.838v-9.375c0-5.833.236-9.375.625-9.375a.627.627 0 0 0 .625-.625c0-.362-2.012-.625-4.785-.625-4.595 0-4.743.045-3.75 1.143.871.962 1.035 2.708 1.035 11.045 0 8.336-.164 10.082-1.035 11.044-.998 1.103-.651 1.143 9.964 1.143 6.657 0 11.15.247 11.383.625.931 1.506 1.563.37 1.563-2.812zm90 0c0-3.182-.632-4.319-1.563-2.813-.224.363-3.652.625-8.162.625h-7.775v-6.25h4.65c2.558 0 4.825.281 5.037.625.931 1.506 1.563.37 1.563-2.812s-.632-4.319-1.563-2.813c-.212.344-2.479.625-5.037.625h-4.65v-5h7.463c4.301 0 7.627.265 7.85.625.93 1.506 1.562.37 1.562-2.812s-.632-4.319-1.563-2.813c-.235.38-4.902.625-11.912.625-7.267 0-11.525.231-11.525.625 0 .344.281.625.625.625.393 0 .625 4.063.625 10.938 0 6.875-.232 10.937-.625 10.937a.627.627 0 0 0-.625.625c0 .395 4.363.625 11.838.625 7.218 0 11.989.244 12.224.625.931 1.506 1.563.37 1.563-2.812zm-674.02 1.897c4.608-1.925 5.27-3.792 5.27-14.862 0-4.899.24-7.973.625-7.973a.627.627 0 0 0 .625-.625c0-.359-1.917-.625-4.5-.625-3.5 0-4.333.167-3.75.75.94.94 1.037 15.67.114 17.395-.933 1.743-5.037 2.684-8.104 1.858-1.369-.369-2.775-1.205-3.124-1.858-.923-1.724-.826-16.455.114-17.395.583-.583-.32-.75-4.063-.75-2.791 0-4.812.262-4.812.625 0 .344.255.625.566.625.312 0 .663 4.058.782 9.018.24 10.084.753 11.5 4.946 13.637 2.762 1.408 12.108 1.518 15.31.18zm35.517-1.146c3.491-1.614 3.63-1.762 2.656-2.839-1.366-1.509-1.362-6.195.01-7.707.996-1.1.788-1.143-5.588-1.143-3.74 0-6.79-.272-7.009-.625-.904-1.464-1.562-.41-1.562 2.5s.658 3.964 1.562 2.5c.213-.344 1.776-.625 3.475-.625 3.006 0 3.088.05 3.088 1.853 0 2.126-.954 2.787-4.883 3.387-7.013 1.072-12.622-3.908-11.124-9.875.638-2.543 3.425-5.295 6.089-6.012 3.15-.848 8.758.61 10.187 2.65 1.104 1.576 1.046 1.614 2.779-1.822 1.51-2.993 1.677-4.152.545-3.774-.43.144-2.25-.254-4.047-.885-7.7-2.704-16.494-.719-19.95 4.503-3.375 5.101-2.585 12.613 1.754 16.66 2.892 2.698 5.397 3.35 12.087 3.146 5.235-.159 6.848-.466 9.935-1.892zm46.45.164l3.361-1.897 1.926 1.372c1.094.779 3.241 1.497 4.97 1.663l3.046.293v-3.517c0-3.259-.626-4.408-1.569-2.882-.513.83-4.056-1.233-4.056-2.36 0-1.524 3.043-4.01 4.385-3.584 1.157.367 1.24.097 1.24-4.024 0-3.118-.23-4.416-.781-4.415-1.493 0-4.817 2.47-6.545 4.857l-1.738 2.4-1.472-1.778-1.472-1.777 1.629-1.51c1.299-1.203 1.629-2.09 1.629-4.374 0-1.575-.439-3.533-.975-4.351-1.294-1.975-5.194-3.469-9.058-3.469-6.364 0-10.322 3.231-9.79 7.994.165 1.475.753 3.182 1.306 3.793.935 1.034.872 1.21-.901 2.521-2.695 1.992-4.327 4.965-4.327 7.88 0 5.493 4.653 9.06 11.82 9.062 3.313 0 4.596-.33 7.372-1.897zm-8.884-3.757c-2.369-.722-3.438-2.174-3.438-4.669 0-5.546 8.893-6.76 11.54-1.574 1.961 3.841-3.125 7.76-8.102 6.243zm1.759-14.337c-3.206-1.323-3.09-5.04.197-6.29 3.072-1.168 5.856.574 5.856 3.663 0 2.222-3.43 3.71-6.053 2.627zm56.268 19.317c1.322-.367 3.397-1.578 4.612-2.692 1.865-1.71 2.259-2.543 2.53-5.365.642-6.685-2.711-9.444-12.982-10.681-6.69-.806-8.125-1.352-8.125-3.096 0-4.632 14.147-4.235 16.802.472.77 1.365 1.361.83 3.478-3.153 1.934-3.64 1.93-3.567.189-3.461-.774.047-3.156-.518-5.293-1.257-7.953-2.748-17.107-1.36-20.342 3.086-1.724 2.37-2 6.073-.648 8.675 1.662 3.195 4.305 4.398 11.84 5.388 3.655.48 7.042 1.202 7.527 1.604 1.295 1.075.755 3.033-1.246 4.522-3.437 2.557-13.338.842-15.545-2.691-.447-.716-.994-1.302-1.215-1.302-.528 0-3.237 6.686-2.953 7.29.12.256.64.525 1.156.599.515.074 2.625.704 4.687 1.401 4.207 1.422 11.646 1.739 15.528.66zm180.097-1.099c2.063-.975 4.102-1.654 4.532-1.51 1.285.431.898-.686-1.246-3.602-1.342-1.825-2.09-2.429-2.214-1.786-.231 1.198-4.092 3.37-6.938 3.903-7.07 1.323-13.146-5.259-10.33-11.193 1.234-2.602 2.821-3.833 6.076-4.713 3.15-.852 8.592.663 10.332 2.875l1.231 1.565 1.935-2.631c2.08-2.828 2.396-3.796 1.148-3.51-.432.1-2.579-.623-4.77-1.607-3.64-1.633-4.465-1.765-9.524-1.523-4.893.234-5.844.48-8.15 2.104-8.521 6.002-6.815 19.245 2.918 22.647 1.032.36 3.985.677 6.563.704 3.912.041 5.307-.244 8.437-1.723zm421.161.234c4.945-1.745 5.268-1.97 4.266-2.971-1-1-.966-7.77.042-8.422.44-.284-2.088-.653-5.78-.843-3.61-.185-7.056-.567-7.657-.848-.967-.452-1.094-.133-1.094 2.748 0 2.874.13 3.2 1.094 2.769.601-.27 2.43-.609 4.062-.753 2.953-.26 2.97-.25 2.97 1.652 0 2.12-.893 2.809-4.471 3.454-7.248 1.307-13.083-4.06-11.21-10.31 1.071-3.575 4.229-5.74 8.37-5.74 3.421 0 7.117 1.447 7.722 3.023.612 1.596 1.477.977 2.735-1.96 1.431-3.337 1.52-4.117.447-3.925-.43.077-2.309-.333-4.176-.91-4.252-1.315-10.61-1.352-13.657-.08-10.989 4.591-10.875 20.038.177 23.9 3.57 1.25 11.49.864 16.16-.784zm-869.766.035c-1.054-.8-1.047-.974.134-3.73l1.24-2.891h13.184l1.398 2.91c1.03 2.142 1.192 2.98.617 3.177-.43.147-.781.525-.781.84 0 .315 2.531.573 5.625.573 5.17 0 7.018-.582 4.688-1.476-.515-.198-3.773-6.204-7.24-13.348-5.12-10.553-6.175-13.194-5.62-14.083.631-1.01.258-1.093-4.953-1.093-5.36 0-5.6.058-4.902 1.175.622.995-.212 3.158-5.448 14.136-3.4 7.129-6.54 13.099-6.979 13.267-2.182.837-.24 1.42 4.673 1.402 4.71-.017 5.315-.136 4.363-.859zm3.918-11.57c0-.316.938-2.532 2.085-4.925l2.085-4.351 2.237 4.925 2.237 4.925h-4.322c-2.377 0-4.322-.259-4.322-.574zm48.118 11.515c2.648-1.37 3.757-3.332 3.757-6.65 0-2.493-.282-3.167-1.888-4.519-1.808-1.52-1.836-1.617-.652-2.25 1.516-.812 2.221-4.135 1.358-6.405-1.182-3.11-3.29-3.617-15.037-3.617-9.738 0-11.991.35-10.031 1.562.376.232.625 4.474.625 10.625 0 6.152-.25 10.393-.625 10.625-1.96 1.212.293 1.563 10.031 1.563 8.232 0 11.067-.213 12.462-.934zm-15.618-6.879v-3.437l4.844.01c5.945.01 7.968.882 7.968 3.428s-2.023 3.417-7.968 3.428l-4.844.01v-3.437zm0-10v-2.187l4.531.01c5.995.01 7.344.411 7.344 2.179 0 1.767-1.35 2.167-7.344 2.179l-4.531.01v-2.188zm55.625 16.876c-.62-.747-.62-1.318 0-2.813l.777-1.875h5.503c5.452 0 5.512.017 6.41 1.817.805 1.613.795 1.93-.088 2.813-.91.91-.53.995 4.452.995 4.937 0 6.82-.59 4.603-1.44-.463-.178-1.62-1.825-2.572-3.66-.952-1.836-3.396-6.478-5.432-10.317-2.261-4.264-3.449-7.136-3.052-7.38 1.69-1.046.22-1.578-4.356-1.578-4.846 0-4.98.04-4.226 1.247.68 1.09.131 2.546-4.368 11.563-2.83 5.673-5.428 10.315-5.774 10.315a.628.628 0 0 0-.627.625c0 .362 2.005.625 4.764.625 4.163 0 4.666-.119 3.986-.937zm4.127-11.72c.907-1.804 1.736-3.379 1.844-3.5.2-.223 3.404 5.846 3.404 6.448 0 .184-1.552.334-3.448.334h-3.448l1.648-3.282zm198.096 11.268c-.766-1.094-.973-3.218-.973-10v-8.611h3.713c2.042 0 3.887.281 4.1.625.212.343.791.625 1.286.625.675 0 .9-.861.9-3.438 0-2.576-.225-3.437-.9-3.437-.495 0-1.074.281-1.287.625-.232.376-4.577.625-10.937.625-6.36 0-10.705-.249-10.938-.625-.93-1.506-1.562-.37-1.562 2.812s.632 4.319 1.562 2.813c.213-.344 2.058-.625 4.1-.625h3.713v9.25c0 6.36-.234 9.484-.75 10-.583.583.327.75 4.098.75h4.848l-.973-1.39zm19.496.519c-.849-.644-1.094-1.761-1.094-4.98v-4.15l2.656.013c2.56.013 2.763.164 5.602 4.182 2.228 3.153 2.78 4.368 2.267 4.987-.55.662.343.817 4.71.817 3.177 0 5.39-.256 5.39-.625 0-.343-.269-.625-.597-.625-.643 0-6.903-7.49-6.903-8.26 0-.256.704-.643 1.564-.859 4.61-1.157 6.256-7.852 2.863-11.652l-1.822-2.041-11.615-.195c-7.9-.133-11.615.017-11.615.469 0 .365.281.663.625.663.393 0 .625 4.063.625 10.938 0 6.875-.232 10.937-.625 10.937a.627.627 0 0 0-.625.625c0 .365 2.018.617 4.844.605 4.162-.017 4.69-.136 3.75-.85zm-1.094-16.38v-2.875l5.603.219c5.99.233 7.968 1.141 7.147 3.28-.621 1.619-2.897 2.25-8.103 2.25h-4.647v-2.874zm30.625 16.677c0-.315-.337-.685-.749-.823-.572-.19-.554-.718.076-2.24l.825-1.99h11.066l1.036 2.004c.715 1.382.817 2.077.329 2.24-.39.13-.708.494-.708.809 0 .315 2.461.566 5.469.559 5.275-.013 5.422-.052 4.148-1.094-1.388-1.135-11.492-19.56-11.492-20.957 0-.446.338-1.148.75-1.56.583-.584-.392-.75-4.387-.75-5.088 0-5.133.014-4.766 1.477.27 1.077-.997 4.21-4.68 11.562-2.777 5.547-5.329 10.086-5.67 10.086a.625.625 0 0 0-.622.625c0 .36 1.98.625 4.688.625 2.578 0 4.687-.258 4.687-.573zm2.5-9.136c0-.602 3.204-6.67 3.404-6.447.108.12.937 1.695 1.844 3.5l1.648 3.28h-3.448c-1.897 0-3.448-.15-3.448-.333zm30.125 8.959c-.446-.447-.75-2.597-.75-5.313v-4.562h13.125v4.462c0 3.517-.232 4.638-1.094 5.293-.94.713-.412.833 3.75.85 2.826.012 4.844-.24 4.844-.605a.627.627 0 0 0-.625-.625c-.393 0-.625-4.063-.625-10.938 0-6.875.232-10.937.625-10.937a.627.627 0 0 0 .625-.625c0-.365-2.018-.617-4.844-.605-4.162.017-4.69.136-3.75.85.833.632 1.094 1.746 1.094 4.667v3.838h-13.125v-3.938c0-2.229.325-4.263.75-4.687.583-.584-.32-.75-4.063-.75-2.791 0-4.812.262-4.812.625 0 .343.281.625.625.625.393 0 .625 4.062.625 10.937 0 6.875-.232 10.938-.625 10.938a.627.627 0 0 0-.625.625c0 .362 2.02.625 4.812.625 3.743 0 4.646-.167 4.063-.75zm118.125 0c-.493-.493-.75-3.116-.75-7.646v-6.895l6.82 6.799c4.059 4.045 6.69 7.142 6.496 7.645-.257.669.707.843 4.586.827 4.218-.017 4.756-.137 3.817-.85-.966-.733-1.094-2.063-1.094-11.318 0-9.255.128-10.585 1.094-11.317.942-.715.464-.833-3.438-.85-2.617-.012-4.531.244-4.531.605 0 .343.281.625.625.625.38 0 .625 2.757.625 7.02v7.021l-6.883-6.862c-3.786-3.774-6.598-6.956-6.25-7.072.348-.116.633-.47.633-.784 0-.315-2.25-.573-5-.573-2.917 0-5 .26-5 .625 0 .343.281.625.625.625.393 0 .625 4.062.625 10.937 0 6.875-.232 10.938-.625 10.938a.627.627 0 0 0-.625.625c0 .359 1.917.625 4.5.625 3.5 0 4.333-.167 3.75-.75zm40.5.125a.627.627 0 0 0-.625-.625c-.389 0-.625-3.542-.625-9.375v-9.375h3.713c2.042 0 3.887.281 4.1.625.93 1.506 1.562.369 1.562-2.813 0-3.181-.632-4.318-1.563-2.812-.232.376-4.577.625-10.937.625-6.36 0-10.705-.249-10.938-.625-.93-1.506-1.562-.37-1.562 2.812s.632 4.319 1.562 2.813c.213-.344 2.058-.625 4.1-.625h3.713v9.375c0 5.833-.236 9.375-.625 9.375a.627.627 0 0 0-.625.625c0 .357 1.875.625 4.375.625s4.375-.268 4.375-.625zm47.969-.245c-.849-.644-1.094-1.761-1.094-4.98v-4.15l2.656.013c2.563.013 2.761.162 5.628 4.218 1.634 2.312 2.688 4.298 2.343 4.413-.345.115-.627.467-.627.782s2.39.573 5.312.573c4.84 0 6.67-.595 4.449-1.448-.476-.182-2.202-2.07-3.837-4.195-2.346-3.048-2.79-3.979-2.105-4.413.478-.302 1.195-.554 1.594-.56.4-.01 1.454-.874 2.344-1.932 2.343-2.784 2.258-6.715-.205-9.473l-1.822-2.041-11.615-.195c-7.9-.133-11.615.017-11.615.469 0 .365.281.663.625.663.393 0 .625 4.063.625 10.938 0 6.875-.232 10.937-.625 10.937a.627.627 0 0 0-.625.625c0 .365 2.018.617 4.844.605 4.162-.017 4.69-.136 3.75-.85zm-1.094-16.256v-2.874h4.297c5.776 0 8.028.513 8.394 1.913.664 2.538-.978 3.385-7.015 3.618l-5.676.218v-2.875zm52.5 16.568c0-.307-.402-.713-.893-.901-.707-.271-.163-2.168 2.616-9.13 1.929-4.832 3.689-8.786 3.91-8.786.45 0 6.867 16.262 6.867 17.401 0 .398-.281.724-.625.724a.627.627 0 0 0-.625.625c0 .364 2.083.625 5 .625s5-.26 5-.625a.627.627 0 0 0-.625-.625c-.344 0-.621-.352-.617-.782.02-1.806 10.005-26.28 11.044-27.068.99-.75.373-.86-4.802-.86-5.215 0-5.797.106-4.786.872 1.1.834 1.012 1.245-1.98 9.199-2.424 6.446-3.24 8.044-3.618 7.076-5.678-14.57-5.796-14.967-4.782-16.094.931-1.034.649-1.092-5.206-1.073-5.242.017-6.025.145-5.111.84 1.001.76.836 1.424-2.294 9.198-1.982 4.924-3.525 7.993-3.741 7.442-5.3-13.49-5.843-15.313-4.878-16.407.91-1.032.638-1.093-4.866-1.093h-5.831l1.301 1.406c.716.773 2.837 5.344 4.714 10.156 5.736 14.705 6.41 16.765 5.578 17.042-.412.137-.75.508-.75.823 0 .315 2.25.573 5 .573s5-.251 5-.558zm39.884-.646c-.579-.926-.583-1.575-.02-2.812.708-1.553.927-1.61 6.296-1.61h5.563l.777 1.876c.62 1.495.619 2.066 0 2.813-.681.82-.094.937 4.72.937h5.498l-1.28-1.407c-.705-.773-2.618-3.937-4.251-7.03a869.052 869.052 0 0 0-5.142-9.593c-1.585-2.891-1.987-4.153-1.484-4.656 1.381-1.381.594-1.69-4.316-1.69-4.655 0-4.956.079-4.306 1.12.576.922-.209 2.933-4.445 11.392-2.829 5.65-5.602 10.622-6.162 11.048-.838.638-.1.78 4.142.796 4.941.019 5.13-.032 4.41-1.184zm4.243-11.453c.907-1.804 1.736-3.379 1.844-3.5.2-.223 3.404 5.846 3.404 6.448 0 .184-1.552.334-3.448.334h-3.448l1.648-3.282zm68.397 11.25c3.72-1.876 5.6-5.495 5.6-10.78 0-5.286-1.88-8.906-5.6-10.782-2.541-1.281-3.666-1.406-12.657-1.406-6.161 0-9.867.234-9.867.625 0 .343.281.625.625.625.393 0 .625 4.062.625 10.937 0 6.875-.232 10.938-.625 10.938a.627.627 0 0 0-.625.625c0 .39 3.706.625 9.867.625 8.99 0 10.116-.125 12.657-1.407zm-15.024-10.87v-7.902l4.903.336c5.533.38 7.187 1.153 8.535 3.994 1.254 2.643 1.18 5.101-.23 7.733-1.375 2.564-4.123 3.62-9.614 3.693l-3.594.048v-7.902zm47.984 11.024c3.75-2.286 4.481-7.628 1.459-10.65-1.567-1.568-1.683-1.91-.872-2.583 1.609-1.335 2.151-3.638 1.396-5.928-1.169-3.54-2.804-3.961-15.345-3.961-10.68 0-11.03.04-10.032 1.143.871.962 1.035 2.708 1.035 11.044 0 8.337-.164 10.082-1.035 11.045-.998 1.103-.645 1.143 10.157 1.14 10.082 0 11.393-.126 13.237-1.25zm-16.11-6.56v-3.562l5.677.219c4.742.182 5.821.418 6.562 1.431.488.668.887 1.528.887 1.912 0 .384-.4 1.245-.887 1.912-.74 1.014-1.82 1.25-6.562 1.432l-5.676.218v-3.562zm0-10v-2.187h4.73c4.973 0 7.146.676 7.146 2.225 0 1.386-2.678 2.15-7.54 2.15h-4.335v-2.188zm60.626 17.188a.627.627 0 0 0-.625-.625c-.357 0-.625-1.875-.625-4.375v-4.375h2.445c2.297 0 2.622.247 5.365 4.091 2.373 3.326 2.778 4.262 2.166 5-.65.784.034.909 4.968.909h5.723l-2.053-2.079c-1.128-1.143-2.962-3.363-4.075-4.934l-2.023-2.856 1.447-.363c.796-.2 2.198-1.06 3.117-1.91 1.39-1.29 1.67-2.083 1.67-4.745 0-6.792-1.488-7.488-16.003-7.488-10.68 0-11.03.04-10.032 1.143.871.962 1.035 2.708 1.035 11.044 0 8.337-.164 10.082-1.035 11.045-.993 1.098-.845 1.143 3.75 1.143 2.773 0 4.785-.263 4.785-.625zm-1.25-16.563v-2.812h4.647c5.912 0 7.853.695 7.853 2.812 0 2.118-1.94 2.813-7.853 2.813h-4.647v-2.813zm-643.438 8.438c.213-.344 1.76-.625 3.438-.625 1.678 0 3.225.281 3.437.625.213.343.792.625 1.287.625.684 0 .9-.902.9-3.75 0-3.454-.607-4.67-1.562-3.125-.212.343-1.9.625-3.75.625s-3.537-.282-3.75-.625c-.954-1.545-1.562-.329-1.562 3.125 0 3.453.608 4.67 1.562 3.125zm-330.632 5.654c-1.379-.296-4.129-1.256-6.111-2.132-1.983-.877-4.028-1.432-4.545-1.234-.94.361-.191-2.106 2.262-7.445l.79-1.719 1.073 1.766c2.178 3.581 11.642 6.066 17.286 4.54 4.367-1.182 6.358-5.302 3.342-6.916-.586-.314-4.534-1.023-8.773-1.576-10.02-1.308-12.547-2.412-14.596-6.376-1.255-2.429-1.333-6.385-.18-9.143 2.875-6.882 13.89-9.241 25.297-5.42 3.078 1.032 6.047 1.876 6.598 1.876 1.331 0 1.307.119-.933 4.619l-1.934 3.887-2.015-2.016c-5.527-5.527-19.572-5.1-20.253.617-.268 2.254 2.022 3.14 10.512 4.07 8.556.935 12.484 2.73 14.331 6.545 2.982 6.16.386 12.172-6.519 15.095-2.88 1.219-11.858 1.771-15.632.962zm-58.632-1.137c.748-.594 2.198-2.908 3.222-5.142a3546.88 3546.88 0 0 1 7.233-15.575c2.955-6.332 5.372-11.971 5.372-12.532 0-.56-.338-1.356-.75-1.768-.583-.584.758-.75 6.034-.75 6.725 0 6.775.01 5.663 1.239-1.09 1.204-.909 1.677 6.524 17.031 4.205 8.686 8.338 16.425 9.184 17.198l1.54 1.407h-6.955c-6.322 0-6.865-.09-5.972-.982 1.225-1.226 1.27-.85-.599-4.937l-1.58-3.456h-16.59l-1.375 2.829c-1.552 3.195-1.714 4.705-.624 5.796.583.583-.632.747-5.469.736-6.001-.013-6.171-.052-4.858-1.094zm26.257-14.049c-1.63-3.868-5.01-11.46-5.196-11.666-.399-.444-.73.138-3.629 6.383l-2.814 6.065h5.984c4.546 0 5.905-.188 5.655-.782zm72.41 14.277c1.416-1.036 1.937.739-5.79-19.745-3.405-9.025-5.786-14.45-6.647-15.143-1.291-1.04-1.1-1.08 5.19-1.093 5.08-.011 6.365.152 5.782.736-.413.412-.752 1.186-.753 1.718-.01 1.722 7.108 20.678 7.577 20.19.686-.712 8.051-19.418 8.051-20.448 0-.494-.492-1.185-1.094-1.535-.79-.46.894-.643 6.057-.656 6.346-.017 7.014.082 5.938.874-1.197.881-1.193.952.227 5.059.792 2.29 2.596 7.156 4.008 10.812l2.567 6.648 1.045-2.488c.575-1.368 2.406-6.217 4.069-10.777 2.938-8.057 2.989-8.316 1.821-9.199-1.075-.813-.514-.91 5.362-.915 6.323-.01 6.513.033 5.208 1.074-.88.702-3.339 6.282-7.023 15.938-6.86 17.98-6.837 17.899-5.345 18.99.99.724.302.84-5.005.84-5.941 0-6.118-.04-5.11-1.153.983-1.087.79-1.812-3.36-12.623-2.421-6.308-4.503-11.57-4.625-11.692-.195-.196-6.239 14.866-8.525 21.245-.767 2.14-.735 2.42.38 3.262 1.1.832.615.923-4.996.94-5.492.019-6.073-.081-5.01-.86zm-124.996-41.528c.326-.293 3.192-2.121 6.368-4.062l5.775-3.53h89.388v-6.866l-38.281-.16-38.282-.162 5.938-3.893 5.937-3.894 32.344-.013 32.344-.013v-5.625h-26.563c-15.77 0-26.562-.233-26.562-.575 0-.317 2.46-2.004 5.469-3.75l5.468-3.174h42.188v-5.605l-16.406-.166-16.407-.167 5.965-3.594 5.965-3.594h20.33l-.192-2.585-.193-2.585-5.156.048c-2.836.027-5.156-.085-5.156-.249 0-.667 9.778-6.504 10.896-6.504.664 0 5.445 2.635 10.625 5.855 5.179 3.22 17.713 10.989 27.854 17.262 20.821 12.882 34.299 21.222 49.503 30.632 5.742 3.554 10.296 6.696 10.12 6.982-.177.286-45.22.52-100.097.52-55.04 0-99.51-.24-99.182-.533z"/><text style="line-height:125%;text-align:center" x="-1112.333" y="1232.693" font-weight="400" font-size="40" font-family="Sans" letter-spacing="0" word-spacing="0" text-anchor="middle" transform="translate(1312.096 -1166.815)"><tspan x="-1112.333" y="1232.693" style="-inkscape-font-specification:'Copperplate Gothic Bold, ';text-align:center" font-size="15" font-family="Copperplate Gothic Bold"><tspan font-size="18.75">S</tspan>TRAHLARBEITEN <tspan font-size="18.75">A</tspan>LLER <tspan font-size="18.75">A</tspan>RT</tspan><tspan x="-1112.333" y="1256.13" style="-inkscape-font-specification:'Copperplate Gothic Bold, ';text-align:center" font-size="15" font-family="Copperplate Gothic Bold"><tspan font-size="18.75">T</tspan>ROCKENEISREINIGUNG</tspan><tspan x="-1112.333" y="1279.568" style="-inkscape-font-specification:'Copperplate Gothic Bold, ';text-align:center" font-size="15" font-family="Copperplate Gothic Bold"><tspan font-size="18.75">K</tspan>OMPLETTER <tspan font-size="18.75">V</tspan>OR-<tspan font-size="18.75">O</tspan>RT-<tspan font-size="18.75">S</tspan>ERVICE</tspan></text><text style="line-height:125%;text-align:center" x="-1112.218" y="1334.097" font-weight="400" font-size="40" font-family="Sans" letter-spacing="0" word-spacing="0" text-anchor="middle" transform="translate(1312.096 -1166.815)"><tspan x="-1112.218" y="1334.097" style="-inkscape-font-specification:'Times New Roman, Bold';text-align:center" font-weight="700" font-size="25" font-family="Times New Roman">Bobingerstr. 16</tspan><tspan x="-1112.218" y="1362.222" style="-inkscape-font-specification:'Times New Roman, Bold';text-align:center" font-weight="700" font-size="25" font-family="Times New Roman">86399 Waldberg</tspan><tspan x="-1112.218" y="1418.472" style="-inkscape-font-specification:'Times New Roman, Bold';text-align:center" font-weight="700" font-size="22.5" font-family="Times New Roman">Tel.: 08204/1392 - Fax.: 08204 298477</tspan><tspan x="-1112.218" y="1446.597" style="-inkscape-font-specification:'Times New Roman, Bold';text-align:center" font-weight="700" font-size="22.5" font-family="Times New Roman">E-Mail: info@ablaug-strahlcenter.de</tspan></text></svg>