<svg xmlns="http://www.w3.org/2000/svg" xmlns:xlink="http://www.w3.org/1999/xlink" id="svg47" width="400" height="300" viewBox="0 0 400 300"><style id="style2">.st0{fill:#ffc000}.st1{fill:#006fc0}.st2{clip-path:url(#SVGID_2_)}.st3{font-family:&apos;TimesNewRomanPS-BoldMT&apos;}.st4{font-size:25px}.st5{font-family:&apos;MyriadPro-Regular&apos;}.st6{font-size:40px}.st7{font-size:22.5px}.st8{font-family:&apos;CopperplateGothic-Bold&apos;}.st9{font-size:18.746666px}.st10{enable-background:new}.st11{fill:#fff}</style><path id="path7" class="st0" d="M0 .256h70.942V45.02H0V.256z"/><path id="path9" class="st1" d="M70.931 44.402l-.03-40.75L400 3.477V44.62l-185.638-.053c-7.432-.036-143.43-.165-143.43-.165zM30.67 37.485c-.478-.103-1.431-.436-2.118-.74-.687-.303-1.395-.495-1.575-.427-.326.125-.066-.73.784-2.58l.274-.595.372.612c.754 1.24 4.033 2.102 5.989 1.573 1.513-.41 2.203-1.837 1.158-2.396-.203-.109-1.571-.355-3.04-.546-3.471-.453-4.347-.836-5.057-2.21-.435-.841-.462-2.212-.063-3.167.997-2.385 4.813-3.202 8.766-1.878 1.066.357 2.095.65 2.286.65.46 0 .452.04-.324 1.6l-.67 1.347-.698-.698c-1.915-1.915-6.781-1.767-7.017.213-.093.78.7 1.088 3.642 1.41 2.964.324 4.326.946 4.965 2.268 1.034 2.134.134 4.217-2.258 5.23-.998.422-4.109.614-5.416.333v.001zm-20.315-.394c.259-.206.761-1.008 1.116-1.782.355-.774 1.482-3.203 2.506-5.397s1.861-4.147 1.861-4.342a.998.998 0 0 0-.26-.612c-.202-.202.263-.26 2.091-.26 2.33 0 2.347.004 1.962.43-.377.417-.315.58 2.26 5.9 1.458 3.01 2.89 5.691 3.183 5.96l.533.486h-2.41c-2.19 0-2.378-.03-2.069-.34.425-.424.44-.294-.207-1.71l-.548-1.198h-5.748l-.476.98c-.538 1.107-.594 1.63-.216 2.009.202.202-.22.258-1.895.255-2.08-.005-2.138-.018-1.683-.38v.001zm9.097-4.868c-.565-1.34-1.736-3.97-1.8-4.042-.138-.154-.253.047-1.257 2.212l-.976 2.1h2.074c1.575 0 2.046-.064 1.959-.27zm25.089 4.946c.49-.358.671.257-2.007-6.84-1.18-3.128-2.004-5.007-2.302-5.247-.448-.36-.381-.375 1.798-.38 1.76-.003 2.205.054 2.003.256a.985.985 0 0 0-.26.595c-.004.597 2.462 7.164 2.625 6.996.237-.247 2.79-6.728 2.79-7.085 0-.172-.171-.41-.38-.532-.273-.16.31-.223 2.099-.228 2.199-.005 2.43.029 2.057.303-.414.306-.413.33.079 1.753.274.794.9 2.48 1.388 3.746l.89 2.304.362-.862c.2-.474.834-2.154 1.41-3.734 1.018-2.792 1.035-2.882.631-3.188-.373-.281-.178-.315 1.858-.316 2.19-.004 2.256.011 1.804.372-.305.243-1.157 2.176-2.433 5.522-2.377 6.23-2.369 6.201-1.852 6.58.343.25.104.29-1.734.29-2.059 0-2.12-.013-1.771-.4.34-.376.274-.627-1.164-4.373-.839-2.185-1.56-4.008-1.602-4.05-.068-.069-2.162 5.15-2.954 7.36-.266.742-.255.839.131 1.13.381.289.213.32-1.73.326-1.904.007-2.105-.028-1.736-.298z"/><g id="g14"><defs id="defs8"><path id="SVGID_1_" d="M-.053 1.647h70.561v22.309H-.053z"/></defs><clipPath id="SVGID_2_"><use xlink:href="#SVGID_1_" id="use10" overflow="visible"/></clipPath><path id="path11" class="st2" d="M1.163 22.958c.265-.239 3.902-2.444 4.207-2.63h30.97v-2.38c-16-.066-9.892-.04-26.527-.11l4.115-2.699 22.413-.009v-1.949c-.273 0-18.407.074-18.407-.199 0-.261 3.564-2.268 3.79-2.399H36.34V8.641l-11.37-.115 4.134-2.49h7.044c-.081-1.102-.05-.693-.133-1.792-.135.001-3.573.065-3.573-.07 0-.23 3.388-2.253 3.775-2.253.23 0 1.887.913 3.682 2.028 1.794 1.116 6.137 3.808 9.65 5.981l17.152 10.614c1.99 1.231 3.568 2.32 3.507 2.419-.062.099-15.668.18-34.682.18-19.07 0-34.478-.083-34.364-.185z" clip-path="url(#SVGID_2_)"/></g><text class="st3 st4" id="text16" x="118.269" y="167.636" font-size="25" font-family="TimesNewRomanPS-BoldMT"><tspan style="-inkscape-font-specification:'Times New Roman, '" id="tspan4578" font-weight="400" font-family="Times New Roman">Bobingerstr. 16</tspan></text><text class="st3 st4" id="text20" x="112.385" y="195.761" font-size="25" font-family="TimesNewRomanPS-BoldMT"><tspan style="-inkscape-font-specification:'Times New Roman, '" id="tspan4580" font-weight="400" font-family="Times New Roman">86399 Waldberg</tspan></text><text class="st3 st7" id="text24" x="18.857" y="252.011" font-size="22.5" font-family="TimesNewRomanPS-BoldMT"><tspan style="-inkscape-font-specification:'Times New Roman, '" id="tspan4574" font-weight="400" font-family="Times New Roman">Tel.: 08204/1392 - Fax.: 08204 298477</tspan></text><text class="st3 st7" id="text28" x="29.92" y="280.136" font-size="22.5" font-family="TimesNewRomanPS-BoldMT"><tspan style="-inkscape-font-specification:'Times New Roman, '" id="tspan4576" font-weight="400" font-family="Times New Roman">E-Mail: info@ablaug-strahlcenter.de</tspan></text><text class="st8 st9" id="text30" x="94.281" y="71.341" font-size="18.747" font-family="CopperplateGothic-Bold"><tspan style="-inkscape-font-specification:'Times New Roman, '" id="tspan4586" font-weight="400" font-size="21.333" font-family="Times New Roman">Strahlarbeiten Aller Art</tspan></text><text class="st8 st9" id="text32" x="107.068" y="94.587" font-size="18.747" font-family="CopperplateGothic-Bold"><tspan style="-inkscape-font-specification:'Times New Roman, '" id="tspan4584" font-weight="400" font-size="21.333" font-family="Times New Roman">Trockeneisreinigung</tspan></text><text class="st8 st9" id="text34" x="75.797" y="117.833" font-size="18.747" font-family="CopperplateGothic-Bold"><tspan style="-inkscape-font-specification:'Times New Roman, '" id="tspan4582" font-weight="400" font-size="21.333" font-family="Times New Roman">Kompletter Vor-Ort-Service</tspan></text><g class="st10" id="g92"><path class="st11" d="M86.95 35.34h-4.846l-.718 1.5c-.244.516-.227.816.374.97v.25h-3.528v-.25c.47-.095.619-.328.852-.829l3.922-8.195c.263-.55.307-.942-.266-1.14v-.25h3.781v.25c-.457.132-.604.407-.312.976l4.062 8.219c.256.518.448.867.977.969v.25h-3.926v-.25c.596-.1.608-.461.362-.97l-.734-1.5zm-.669-1.46l-1.73-3.799-1.757 3.799h3.487z" id="path36"/><path class="st11" d="M100.256 33.356c2.126.975 1.794 3.196.555 4.086-1.114.799-2.025.618-8.594.618v-.22c.334-.085.5-.23.5-.577v-7.157c0-.292-.095-.453-.5-.578v-.218c6.14 0 7.484-.194 8.484.578 1 .764 1.33 2.5-.445 3.468zm-5.445-.765c3.718 0 4.554.155 4.554-.852 0-1.01-.887-.843-4.554-.843v1.695zm0 3.883c3.332 0 4.835.278 4.835-1.149 0-1.425-1.493-1.148-4.835-1.148v2.297z" id="path38"/><path class="st11" d="M105.646 36.474h4.899c.33 0 .471-.123.586-.5h.21v2.586h-.21c-.106-.386-.267-.5-.586-.5h-7.492v-.22c.334-.085.5-.23.5-.577v-7.157c0-.292-.096-.453-.5-.578v-.218h3.093v.218c-.345.096-.5.235-.5.578v6.368z" id="path40"/><path class="st11" d="M118.87 35.872h-4.024l-.453.953c-.252.527-.262.895.336 1.016v.219h-3.215v-.22c.344-.054.503-.144.78-.702l3.196-6.47c.34-.692.172-.963-.258-1.14v-.218h3.399v.218c-.55.22-.507.64-.235 1.164l3.313 6.274c.274.512.41.78.906.875v.219h-3.574v-.22c.614-.102.61-.527.313-1.073l-.484-.895zm-.63-1.226l-1.433-2.815-1.364 2.815h2.797z" id="path42"/><path class="st11" d="M132.521 30.106v4.633c0 1.058-.208 1.833-.625 2.328-1.29 1.511-5.155 1.432-6.812.61-1.11-.556-1.414-1.537-1.414-2.938v-4.633c0-.292-.095-.453-.5-.578v-.218h3.094v.218c-.344.094-.5.23-.5.578 0 3.77-.072 4.727.129 5.336.509 1.545 4.091 1.564 4.59 0 .194-.61.124-1.565.124-5.336 0-.348-.15-.473-.5-.578v-.218h2.914v.218c-.345.096-.5.235-.5.578z" id="path44"/><path class="st11" d="M142.28 34.685h-1.993c-.319 0-.48.114-.586.5h-.21v-2.32h.21c.108.386.273.5.586.5h4.164v.226c-.356.1-.5.28-.5.648v1.844c0 .345.166.491.5.586v.18c-5.208 2.878-10.258 1.1-10.258-3.118 0-3.26 3.334-5.74 8.25-4.046.44.147.75.315 1.07.093l.188.102-1.043 2.203-.187-.094v-.047c0-.192-.193-.39-.577-.593-2.433-1.295-5.568-.39-5.568 2.39 0 3.239 4.083 3.292 5.953 2.282v-1.336z" id="path46"/><path class="st11" d="M148.693 32.34v2.696h-.25c-.11-.398-.273-.5-.57-.5h-1.922c-.34 0-.478.171-.562.5h-.25v-2.695h.25c.086.334.23.5.577.5h1.972c.355 0 .49-.149.565-.5h.19z" id="path48"/><path class="st11" d="M164.646 30.716v2.96h-.25c-.12-1.002-1.652.337-1.992 1.454.623.632 1.817 1.379 1.992.531h.25v2.461c-1-.215-2.066.234-3.617-1.422-2.858 2.788-7.867 1.582-7.867-1.68 0-1.338.792-2.395 2.375-3.171-3.292-2.877 1.58-6.173 4.953-3.922 1.151.767 1.815 2.645-.36 4.18.545.348.965.843 1.263 1.484.878-1.519 1.674-2.425 3.253-2.875zm-8.699 5.195c1.882 1.562 5.659-.606 3.239-2.508-2.276-1.853-5.225.86-3.239 2.508zm.93-4.81c1.485 1.233 3.858-.627 2.324-1.923-1.478-1.25-3.883.63-2.324 1.924z" id="path50"/><path class="st11" d="M179.951 28.299l-1.273 2.51-.219-.124a1.41 1.41 0 0 0 .008-.125c0-.177-.152-.368-.453-.57-2.138-1.49-5.758-1.205-5.758.38 0 1.952 5.861.028 7.371 3.076 1.793 3.62-3.49 6.422-8.848 3.785-.519-.24-.557-.256-.843-.03l-.227-.118 1.156-2.617.227.11v.1c0 1.695 6.586 2.778 6.586.215 0-2.168-7.578.38-7.578-4.282 0-2.484 3.058-4.806 8.695-2.428.302.12.487.18.555.18.109 0 .237-.06.382-.18l.22.118z" id="path52"/><path class="st11" d="M186.24 30.896v6.36c0 .297.105.465.5.585v.219h-3.094v-.22c.335-.085.5-.23.5-.577v-6.367h-2.578c-.315 0-.478.115-.586.5h-.21V28.81h.21c.09.35.237.5.58.5h7.256c.32 0 .48-.117.586-.5h.211v2.586h-.21c-.109-.385-.272-.5-.587-.5h-2.578z" id="path54"/><path class="st11" d="M193.107 34.466v2.79c0 .304.11.467.5.585v.219h-3.093v-.22c.334-.085.5-.23.5-.577v-7.157c0-.292-.096-.453-.5-.578v-.218c6.242 0 9.43-.648 9.43 2.539 0 1.553-.914 2.207-2.462 2.523l1.657 2.308c.367.517.734 1.053 1.336 1.16v.22h-3.68v-.22c.548-.145.48-.419.156-.872l-1.748-2.502h-2.096zm0-1.586c3.511 0 4.704.253 4.704-.992 0-1.247-1.07-.992-4.704-.992v1.984z" id="path56"/><path class="st11" d="M208.526 35.872h-4.024l-.453.953c-.251.527-.261.895.336 1.016v.219h-3.215v-.22c.345-.054.503-.144.781-.702l3.195-6.47c.34-.692.172-.963-.257-1.14v-.218h3.398v.218c-.55.22-.507.64-.234 1.164l3.312 6.274c.275.512.41.78.906.875v.219h-3.574v-.22c.614-.102.61-.527.313-1.073l-.484-.895zm-.63-1.226l-1.433-2.815-1.363 2.815h2.796z" id="path58"/><path class="st11" d="M220.482 34.247h-4.89v3.008c0 .343.153.48.5.586v.219h-3.094v-.22c.334-.085.5-.23.5-.577v-7.157c0-.292-.095-.453-.5-.578v-.218h3.094v.218c-.344.095-.5.234-.5.576v2.557h4.89v-2.557c0-.346-.152-.473-.5-.576v-.218h3.094v.218c-.385.107-.5.27-.5.578v7.15c0 .297.105.465.5.585v.219h-3.094v-.22c.335-.085.5-.231.5-.578v-3.015z" id="path60"/><path class="st11" d="M227.201 36.474h4.899c.33 0 .47-.123.586-.5h.21v2.586h-.21c-.107-.386-.268-.5-.586-.5h-7.493v-.22c.335-.085.5-.23.5-.577v-7.157c0-.292-.095-.453-.5-.578v-.218h3.094v.218c-.346.096-.5.235-.5.578v6.368z" id="path62"/><path class="st11" d="M242.35 34.919l1.32 1.93-.18.132c-.204-.145-.256-.235-.914.157-4.577 2.673-8.976.33-8.976-3.453 0-4.146 4.82-5.902 8.976-3.454.658.392.71.302.914.157l.18.14-1.32 1.914-.172-.124c.046-.591-.478-.828-1.032-1.08-2.56-1.175-5.414.018-5.414 2.447 0 2.45 2.924 3.705 5.61 2.351.573-.292.86-.547.86-.765 0-.011-.009-.084-.024-.22l.172-.132z" id="path64"/><path class="st11" d="M247.537 34.34v2.134h5.555c.349 0 .484-.156.578-.5h.219v2.586h-.22c-.085-.335-.23-.5-.577-.5h-8.149v-.22c.335-.085.5-.23.5-.577v-7.157c0-.292-.095-.453-.5-.578v-.218h7.907c.318 0 .48-.115.586-.5h.21v2.586h-.21c-.097-.354-.235-.5-.586-.5h-5.313v1.921h3.297c.343 0 .48-.153.586-.5h.21v2.524h-.21c-.108-.385-.271-.5-.586-.5h-3.297z" id="path66"/><path class="st11" d="M257.615 32.294v4.962c0 .34.162.489.5.585v.219h-2.906v-.22c.334-.085.5-.23.5-.577v-7.157c0-.292-.095-.453-.5-.578v-.218h3.36v.218c-.46.117-.424.41-.093.743l4.694 4.656v-4.82c0-.344-.154-.483-.5-.579v-.218h2.906v.218c-.385.107-.5.27-.5.578v7.15c0 .297.105.465.5.585v.219h-3.134v-.22c.668-.135.27-.51-.18-.968l-4.647-4.578z" id="path68"/><path class="st11" d="M271.936 30.896v6.36c0 .297.104.465.5.585v.219h-3.094v-.22c.334-.085.5-.23.5-.577v-6.367h-2.578c-.315 0-.478.115-.586.5h-.211V28.81h.21c.09.35.237.5.58.5h7.257c.32 0 .48-.117.586-.5h.21v2.586h-.21c-.108-.385-.271-.5-.586-.5h-2.578z" id="path70"/><path class="st11" d="M278.904 34.34v2.134h5.555c.35 0 .484-.156.578-.5h.219v2.586h-.219c-.086-.335-.231-.5-.578-.5h-8.148v-.22c.334-.085.5-.23.5-.577v-7.157c0-.292-.096-.453-.5-.578v-.218h7.906c.319 0 .48-.115.586-.5h.21v2.586h-.21c-.097-.354-.235-.5-.586-.5h-5.313v1.921h3.297c.343 0 .48-.153.586-.5h.211v2.524h-.21c-.109-.385-.272-.5-.587-.5h-3.297z" id="path72"/><path class="st11" d="M289.17 34.466v2.79c0 .304.11.467.5.585v.219h-3.094v-.22c.335-.085.5-.23.5-.577v-7.157c0-.292-.095-.453-.5-.578v-.218h5.735c1.476 0 3.695.035 3.695 2.539 0 1.553-.914 2.207-2.461 2.523l1.656 2.308c.367.517.735 1.053 1.336 1.16v.22h-3.68v-.22c.548-.145.48-.419.157-.872l-1.748-2.502h-2.096zm0-1.586c3.51 0 4.703.253 4.703-.992 0-1.247-1.07-.992-4.703-.992v1.984z" id="path74"/><path class="st11" d="M309.842 30.545l-2.438 6.163c-.274.605-.386.909.367 1.102v.25h-3.434v-.25c.725-.14.55-.582.305-1.227l-3.057-7.867c-.225-.58-.383-.958-.946-1.07v-.25h3.708v.25c-.576.128-.57.438-.368.976l2.109 5.644 2.284-5.675c.205-.51.276-.82-.375-.945v-.25h3.875v.25c-.641.17-.593.472-.398.976l2.176 5.644 2.103-5.55c.248-.626.28-.938-.399-1.07v-.25h3.667v.25c-.546.153-.65.362-.93 1.07l-3.057 7.867c-.266.687-.406 1.101.336 1.227v.25h-3.478v-.25c.756-.12.582-.589.304-1.227l-2.354-6.038z" id="path76"/><path class="st11" d="M325.089 35.872h-4.025l-.453.953c-.25.527-.26.895.336 1.016v.219h-3.215v-.22c.345-.054.504-.144.782-.702l3.195-6.47c.34-.692.171-.963-.258-1.14v-.218h3.399v.218c-.55.22-.508.64-.235 1.164l3.313 6.274c.274.512.41.78.906.875v.219h-3.574v-.22c.613-.102.61-.527.312-1.073l-.483-.895zm-.63-1.226l-1.434-2.815-1.363 2.815h2.797z" id="path78"/><path class="st11" d="M332.154 36.474h4.899c.33 0 .471-.123.586-.5h.21v2.586h-.21c-.107-.386-.268-.5-.586-.5h-7.492v-.22c.334-.085.5-.23.5-.577v-7.157c0-.292-.096-.453-.5-.578v-.218h3.093v.218c-.346.096-.5.235-.5.578v6.368z" id="path80"/><path class="st11" d="M339.248 37.263v-7.157c0-.292-.095-.453-.5-.578v-.218h5.133c3.33 0 4.789 1.597 4.789 4.375 0 2.757-1.434 4.375-4.79 4.375h-5.132v-.22c.334-.085.5-.23.5-.577zm2.094-.79c2.291 0 5.195.519 5.195-2.788 0-3.378-3.067-2.79-5.195-2.79v5.579z" id="path82"/><path class="st11" d="M358.045 33.356c.962.441 1.523.947 1.523 2.11 0 1.835-1.503 2.594-3.336 2.594h-6.226v-.22c.334-.085.5-.23.5-.577v-7.157c0-.292-.095-.453-.5-.578v-.218h6.125c3.333 0 3.574 2.273 2.879 3.273-.185.266-.507.523-.965.773zm-5.445-.765c3.718 0 4.554.155 4.554-.852 0-1.01-.887-.843-4.554-.843v1.695zm0 3.883c3.332 0 4.836.278 4.836-1.149 0-1.425-1.494-1.148-4.836-1.148v2.297z" id="path84"/><path class="st11" d="M363.436 34.34v2.134h5.554c.35 0 .484-.156.578-.5h.22v2.586h-.22c-.085-.335-.231-.5-.578-.5h-8.148v-.22c.334-.085.5-.23.5-.577v-7.157c0-.292-.095-.453-.5-.578v-.218h7.906c.319 0 .48-.115.586-.5h.21v2.586h-.21c-.097-.354-.235-.5-.586-.5h-5.312v1.921h3.296c.343 0 .48-.153.586-.5h.211v2.524h-.21c-.109-.385-.272-.5-.587-.5h-3.296z" id="path86"/><path class="st11" d="M373.701 34.466v2.79c0 .304.11.467.5.585v.219h-3.094v-.22c.335-.085.5-.23.5-.577v-7.157c0-.292-.095-.453-.5-.578v-.218h5.735c2.127 0 3.695.385 3.695 2.539 0 1.553-.914 2.207-2.46 2.523l1.655 2.308c.367.517.735 1.053 1.336 1.16v.22h-3.68v-.22c.548-.145.48-.419.157-.872l-1.748-2.502H373.7zm0-1.586c3.562 0 4.703.24 4.703-.992 0-1.247-1.069-.992-4.703-.992v1.984z" id="path88"/><path class="st11" d="M389.787 34.685h-1.992c-.319 0-.48.114-.586.5h-.211v-2.32h.211c.108.386.273.5.586.5h4.164v.226c-.357.1-.5.28-.5.648v1.844c0 .345.166.491.5.586v.18c-5.4 2.984-10.258.95-10.258-3.118 0-3.26 3.334-5.74 8.25-4.046.44.147.75.315 1.07.093l.188.102-1.043 2.203-.187-.094v-.047c0-.192-.193-.39-.579-.593-2.357-1.256-5.566-.453-5.566 2.39 0 3.239 4.083 3.292 5.953 2.282v-1.336z" id="path90"/></g></svg>