<svg xmlns="http://www.w3.org/2000/svg" id="svg8" width="400" height="300" viewBox="0 0 400 300"><style id="style2">.st0{fill:#c6c7c9}.st1{font-family:&apos;Tahoma-Bold&apos;}.st2{font-size:11.4727392px}.st3{fill:#00922f}.st4{font-size:20.8500957px}.st5{font-family:&apos;Tahoma&apos;}.st6{font-size:10.4297628px}</style><g id="layer1" transform="translate(-431.85 -132.745)"><path id="rect4551-9" class="st0" d="M431.849 392.963h400v39.782h-400z"/><text transform="translate(707.865 409.446)" class="st1 st2" id="text6"><tspan style="-inkscape-font-specification:'Tahoma Bold'" id="tspan4518" font-family="Tahoma" font-weight="700">Reinhartshoferstr. 2</tspan></text><text transform="translate(707.42 424.589)" class="st1 st2" id="text8"><tspan style="-inkscape-font-specification:'Tahoma Bold'" id="tspan4520" font-family="Tahoma" font-weight="700">86845 Großaitingen</tspan></text><text transform="translate(446.209 424.03)" class="st1 st2" id="text10"><tspan style="-inkscape-font-specification:'Tahoma Bold'" id="tspan4516" font-family="Tahoma" font-weight="700">08203 - 95 908 70</tspan></text><text transform="translate(451.937 409.214)" class="st1 st2" id="text12"><tspan style="-inkscape-font-specification:'Tahoma Bold'" id="tspan4514" font-family="Tahoma" font-weight="700">info@baeuml.de</tspan></text><path id="path4642" d="M565.1 362.964h-18.417l-.706-2.19c14.978-7.126 18.317-20.347 1.207-20.347l.26-2.6c17.603-.005 19.795 13.07 3.12 22.724l.037.093c1.852-.169 13.498-.26 14.5-.26l-.002 2.58z"/><path id="path4644" d="M578.429 351.38H567.79v-2.525c2.886.03 7.926.027 10.638 0v2.525z"/><path id="path4646" d="M601.04 363.428c-1.5-1.569-9.104-10.269-10.563-11.937l.02-.167c2.624-.69 5.55-2.788 5.55-6.2 0-4.74-5.472-4.53-8.818-4.53-.098 9.147-.043 18.547.019 22.408h-3.063c.115-6.813.135-15.223 0-24.859 3.875-.001 15.038-1.427 15.038 6.757 0 3.09-2.024 5.422-4.697 6.999v.093c3.961 4.626 7.46 8.031 8.836 9.523l-2.321 1.913z"/><path id="path4648" d="M628.98 362.018l-2.895 1.485c-.22-.608-2.838-6.665-4.029-9.357h-11.102c-.328.73-3.88 8.614-4.177 9.357l-2.487-1.337c.549-1.098 6.223-13.281 11.25-24.376h2.413a2144.049 2144.049 0 0 0 11.028 24.227zm-7.982-10.248a994.313 994.313 0 0 0-4.456-9.895h-.074c-1.502 3.239-2.703 6.012-4.492 9.895l.019.019h8.985l.018-.02z"/><path id="path4650" d="M648.604 360.42c-5.76 3.41-12.084 2.617-15.038 2.617l.038-4.27a601.391 601.391 0 0 0 .037-13.05c0-2.08-.025-4.605-.074-7.575 3.444 0 10.12-.572 15.464 2.821 7.13 4.541 7.341 14.898-.427 19.458zm2.599-9.727c0-5.088-3.65-10.118-14.573-10.118-.026 1.955-.044 3.577-.056 4.864v6.906c.013 1.993.025 4.759.038 8.298 10.688 0 14.591-4.958 14.592-9.95h-.001z"/><path id="path4652" d="M688.481 355.687c0 7.447-10.22 7.846-17.637 7.222.212-13.553 0-23.729 0-24.729 3.377-.245 8.778-.424 11.789.78 5.543 2.193 4.175 8.827-.372 10.396v.186c3.466.302 6.22 2.435 6.22 6.145zm-3.174.093c0-5.35-6.729-4.511-8.002-4.51l-.297-2.229c6.894-.19 7.505-6.059 3.992-7.815-2.238-1.068-5.948-.724-7.092-.723-.166 8.103-.018 19.03-.018 20.031 4.951.253 11.418.178 11.418-4.752l-.001-.002z"/><path id="path4654" d="M715.79 362.018l-2.896 1.485c-.224-.615-2.834-6.656-4.029-9.357h-11.102c-.329.731-3.879 8.612-4.177 9.357l-2.487-1.337c.541-1.083 6.203-13.238 11.25-24.376h2.413a2138.619 2138.619 0 0 0 11.028 24.227zm-7.983-10.248c-.878-1.985-2.137-4.802-4.455-9.895h-.074c-1.502 3.239-2.704 6.012-4.493 9.895l.019.019h8.985l.018-.02zm1.782-15.892h-3.546v-3.397h3.546v3.397zm-8.577 0h-3.546v-3.397h3.546v3.397z"/><path id="path4656" d="M740.63 338.143c0 .058-.057 6.351-.057 16.151 0 12.615-20.328 12.436-20.328 0 0-10.523-.057-16.135-.057-16.15h3.063c-.12 2.93-.056 14.964-.056 15.965 0 4.619 2.862 6.906 7.222 6.906 5.002 0 7.203-2.346 7.203-6.906 0-4.321.05-7.726-.019-12.903a616.57 616.57 0 0 1-.038-3.063h3.067z"/><path id="path4658" d="M779.115 362.63l-3.026.594-3.825-20.848h-.038c-.552 1.146-4.455 9.547-8.057 17.97h-2.562c-2.981-6.89-7.548-16.951-8.02-17.952h-.038c-.23 1-2.502 11.512-4.158 20.793l-2.859-.52c2.903-12.512 4.446-20.823 5.235-24.375l2.952-.427c2.874 6.616 5.288 12.01 8.373 18.769h.111c2.907-6.541 8.28-18.77 8.28-18.77l2.803.223c.136 1 2.717 14.388 4.827 24.543h.002z"/><path id="path4660" d="M800.353 362.964H785.13c.137-11.645.11-17.841 0-24.82h3.063c-.144 9.139-.037 21.277-.037 22.277 12.398-.001 12.197-.038 12.197-.038v2.581z"/><path id="path4512-5" class="st3" d="M722.384 166.69l-7.556 3.45c21.051 5.1 33.023 42.97-5.585 49.114l-44.194 6.022c-25.932-12.294-56.129-18.567-91.668-18.09a1.39 1.39 0 1 0 .037 2.782c33.386-.449 61.86 5.111 86.476 16.01l-29.003 3.953 51.085 41.887 4.435-4.764-39.258-32.195 24.155-3.309c20.176 10.784 38.114 25.054 54.039 42.02.038 7.519.019 15.388-.103 23.646h4.347c-.177-11.022-.092-20.245-.026-31.804h.737c3.53-.103 8.168-.187 10.698 2.95 1.39 1.915 1.345 4.743.343 7.01-1.373 2.426-4.35 4.331-7.141 5.27l-.026.237c4.38 5.007 9.952 11.41 14.993 16.943l3.293-2.714c-4.524-4.785-8.209-8.43-12.543-13.517v-.132c1.37-.808 2.82-2.038 4.348-3.69 2.539-2.82 3.08-7.725.79-11.277-1.803-2.492-5.092-3.958-8.353-4.4-3.74-.447-7.424-.189-11.462-.158.034 2.467.061 5 .082 7.567-14.708-15.293-31.118-28.357-49.384-38.585l34.78-4.763c41.602-7.075 34.73-49.278 11.663-59.462h.001z"/><path id="path4517-5" d="M609.618 240.474c-22.909 0-41.607 18.023-41.607 40.294 0 18.956 13.546 34.832 31.704 39.14h-82.493a1.187 1.187 0 1 0 0 2.374h305.196a1.187 1.187 0 1 0 0-2.373h-77.796c18.159-4.309 31.708-20.185 31.708-39.141 0-22.271-18.702-40.294-41.611-40.294-22.91 0-41.611 18.023-41.611 40.294 0 18.956 13.55 34.832 31.708 39.14H619.522c18.158-4.308 31.707-20.185 31.707-39.14 0-22.271-18.702-40.294-41.61-40.294zm0 4.784c20.41 0 36.827 15.914 36.827 35.51 0 19.596-16.417 35.513-36.827 35.513-20.41 0-36.824-15.917-36.824-35.513 0-19.596 16.414-35.51 36.824-35.51zm125.1 0c20.41 0 36.828 15.914 36.828 35.51 0 19.596-16.417 35.513-36.827 35.513-20.41 0-36.827-15.917-36.827-35.513 0-19.596 16.417-35.51 36.827-35.51z"/><circle id="path4519-1" class="st3" cx="609.989" cy="280.81" r="5.297"/><text transform="rotate(-29.616 687.517 -718.875)" class="st1 st4" id="text27"><tspan style="-inkscape-font-specification:'Tahoma Bold'" id="tspan4512" font-family="Tahoma" font-weight="700">www.baeuml.de</tspan></text><text transform="translate(580.754 416.43)" class="st5 st6" id="text29">Inh. Thomas Ludwig</text></g></svg>