<svg xmlns="http://www.w3.org/2000/svg" viewBox="0 0 105.83333 79.375002" height="300" width="400"><defs><filter id="a" color-interpolation-filters="sRGB"><feFlood flood-opacity=".498" flood-color="#000" result="flood"/><feComposite in="flood" in2="SourceGraphic" operator="in" result="composite1"/><feGaussianBlur in="composite1" stdDeviation=".4" result="blur"/><feOffset dx=".9" dy="1.4" result="offset"/><feComposite in="SourceGraphic" in2="offset" result="composite2"/></filter><filter id="b" color-interpolation-filters="sRGB"><feFlood flood-opacity=".498" flood-color="#000" result="flood"/><feComposite in="flood" in2="SourceGraphic" operator="in" result="composite1"/><feGaussianBlur in="composite1" stdDeviation=".5" result="blur"/><feOffset dx="1.1" dy="1.8" result="offset"/><feComposite in="SourceGraphic" in2="offset" result="composite2"/></filter></defs><path d="M46.143 162.074l4.71 13.497-10.306.134zm-3.758-16.103h7.984l22.042 55.52-10.607-.26-6.106-15.838H37.023l-5.48 15.815-11.125.923z" transform="matrix(.4299 0 0 .4299 4.392 -34.836)" fill-rule="evenodd" stroke="#000006" stroke-linecap="round" stroke-linejoin="round" paint-order="stroke fill markers" filter="url(#a)"/><path d="M182.577-12.64l146.59-59.19 20.64 49.854c-.107 14.98-13.906 13.379-18.928 8.458.791 11.758-10.301 16.029-18.422 7.439 1.672 10.181-11.152 15.702-18.423 7.438-.918 11.315-10.525 15.305-18.422 7.439 2.184 11.15-9.51 16.921-18.422 7.438.77 12.827-10.368 17.088-18.423 7.439 2.072 12.265-10.278 17.035-18.422 7.438 1.52 12.398-10.005 17.546-17.58 7.506z" transform="matrix(.4299 0 0 .4299 -52.303 33.137)" fill="#b91840" fill-rule="evenodd" filter="url(#b)"/><path d="M26.823 28.672c3.93 6.115 9.654.739 7.987-3.426 2.227 4.147 9.2 3.195 7.903-3.098 4.327 6.29 9.125.519 8.227-3.291 2.94 5.143 9.592 1.805 7.435-2.956 4.45 4.735 8.996.847 8.042-3.252 1.744 2.978 9.284 3.033 8.087-3.404 3.773 5.966 9.236 1.178 8.01-3.11 1.334 3.903 8.94 3.25 6.836-3.25" fill="none" stroke="#000" stroke-width=".43" stroke-linecap="round" stroke-linejoin="round"/><path d="M92.81 11.675c-1.47.582-4.33-.12-4.997-2.072 1.226 4.288-4.236 9.076-8.01 3.11 1.197 6.437-6.342 6.382-8.087 3.404.955 4.1-3.593 7.987-8.042 3.252 2.157 4.76-4.495 8.098-7.434 2.955.897 3.81-3.9 9.582-8.228 3.292 1.297 6.293-5.676 7.244-7.903 3.098 1.667 4.164-4.056 9.541-7.987 3.426.705 2.718-.312 4.123-2.13 4.918M31.212 40.13c3.932 6.115 9.655.738 7.988-3.426 2.227 4.146 9.2 3.195 7.903-3.098 4.327 6.29 9.125.518 8.227-3.292 2.94 5.143 9.591 1.805 7.434-2.955 4.45 4.735 8.997.847 8.042-3.252 1.745 2.978 9.285 3.033 8.088-3.404 3.773 5.966 9.236 1.178 8.01-3.11 1.334 3.903 8.992 3.273 6.889-3.227" fill="none" stroke="#000" stroke-width=".43" stroke-linecap="round" stroke-linejoin="round"/><path d="M97.565 22.788c-1.67.97-4.958.177-5.672-1.953 1.226 4.289-4.237 9.077-8.01 3.11 1.197 6.438-6.343 6.383-8.087 3.405.954 4.099-3.593 7.987-8.042 3.252 2.157 4.76-4.495 8.098-7.434 2.955.897 3.81-3.9 9.581-8.228 3.291 1.297 6.293-5.676 7.245-7.903 3.098 1.636 4.052-3.202 9.145-7.004 3.502.44 2.307-.234 4.135-2.69 5.197" fill="none" stroke="#000" stroke-width=".43" stroke-linecap="round" stroke-linejoin="round"/><path d="M38.604 42.106l-3.18-7.874 3.998-1.614q1.246-.503 2.07-.104.826.398 1.152 1.205.237.589.096 1.202-.138.606-.723 1.05 1.677-.248 2.269 1.217.354.877.091 1.788-.259.903-2.024 1.616zm.265-5.756l1.12-.452q.42-.17.507-.453.087-.283-.01-.526-.266-.657-1.074-.331l-1.078.435zm1.253 3.103l1.177-.475q.438-.177.554-.472.12-.303.01-.574-.11-.271-.402-.414-.29-.152-.82.062l-1.096.443zM50.14 28.29l2.106 5.215q.599 1.482-.02 2.49-.616 1-2.03 1.57-1.488.602-2.645.344-1.151-.26-1.72-1.667l-2.156-5.34 2.457-.993 2.043 5.059q.228.565.57.729.346.162.871-.05.438-.177.64-.474.207-.304.163-.562-.038-.26-.315-.946l-1.86-4.608zM58.476 30.587l2.263-.76q.429 1.51-.176 2.654-.6 1.14-1.932 1.679-1.603.647-3.018-.016-1.415-.663-2.17-2.532-.747-1.851-.272-3.365.476-1.513 2.149-2.189 1.563-.63 2.749-.103 1.191.525 1.878 1.911l-2.206 1.032q-.32-.79-.767-1.019-.442-.23-.852-.065-1.142.461-.215 2.757.52 1.286 1 1.628.486.34 1.023.124.957-.386.546-1.737zM67.028 21.472l3.179 7.873-2.417.976-1.237-3.063-1.845.745 1.236 3.063-2.417.976-3.179-7.873 2.417-.976 1.17 2.895 1.845-.745-1.17-2.895zM77.06 24.33l.78 1.933-5.52 2.229-3.18-7.873 2.418-.976 2.398 5.94zM84.592 21.35l.76 1.88-5.924 2.392-3.179-7.873 5.924-2.392.733 1.817-3.553 1.434.461 1.142 2.873-1.16.705 1.748-2.872 1.16.52 1.286zM94.052 19.717L91.37 20.8l-2.364-2.547-.761.307 1.215 3.01-2.416.977-3.18-7.874 4.113-1.66q1.361-.55 2.37-.212 1.012.33 1.433 1.373.275.68.21 1.317-.067.631-.749 1.37zm-6.487-2.841l1.032-.417q.456-.184.656-.486t.05-.672q-.304-.755-1.233-.38l-1.113.45z" style="line-height:125%;-inkscape-font-specification:'Franklin Gothic Heavy, '" font-weight="400" font-size="29.633" font-family="Franklin Gothic Heavy" letter-spacing="1.857" word-spacing="0"/><path d="M37.346 41.263l-3.179-7.873 3.997-1.614q1.246-.503 2.071-.105.825.398 1.15 1.205.238.589.097 1.203-.138.605-.723 1.05 1.678-.248 2.27 1.217.353.876.09 1.787-.259.903-2.024 1.616zm.266-5.756l1.118-.451q.422-.17.508-.454.087-.283-.01-.525-.266-.658-1.074-.332l-1.078.436zm1.252 3.103l1.177-.475q.438-.177.554-.472.12-.303.01-.574-.11-.27-.402-.414-.29-.152-.82.063l-1.096.442zM48.883 27.448l2.105 5.214q.599 1.482-.02 2.49-.616 1-2.03 1.57-1.487.602-2.645.345-1.15-.26-1.72-1.667l-2.156-5.342 2.457-.992 2.043 5.059q.228.565.57.73.346.16.871-.051.439-.177.641-.473.206-.305.162-.562-.038-.26-.315-.947l-1.86-4.608zM57.219 29.744l2.262-.76q.43 1.511-.176 2.654-.6 1.141-1.932 1.68-1.603.647-3.018-.016-1.415-.663-2.17-2.532-.747-1.852-.271-3.365.475-1.514 2.148-2.19 1.563-.63 2.749-.103 1.191.525 1.878 1.911l-2.206 1.032q-.319-.79-.767-1.018-.442-.231-.851-.066-1.142.461-.215 2.757.519 1.286 1 1.629.486.34 1.022.123.958-.386.547-1.736zM65.77 20.63l3.179 7.872-2.417.976-1.236-3.063-1.846.746 1.236 3.062-2.416.976-3.18-7.873 2.417-.976 1.17 2.896 1.845-.746-1.169-2.895zM75.802 23.488l.78 1.932-5.52 2.23-3.179-7.874L70.3 18.8l2.399 5.941zM83.335 20.507l.759 1.88-5.924 2.392-3.179-7.873 5.924-2.392.733 1.817-3.553 1.434.462 1.143 2.872-1.16.706 1.747-2.873 1.16.52 1.286zM92.794 18.874l-2.682 1.083-2.364-2.547-.761.307 1.216 3.011-2.417.976-3.18-7.873 4.113-1.66q1.362-.55 2.37-.213 1.012.33 1.433 1.373.275.681.21 1.318-.067.63-.748 1.369zm-6.487-2.841l1.032-.417q.456-.184.656-.486t.051-.671q-.305-.756-1.234-.38l-1.113.449z" style="line-height:125%;-inkscape-font-specification:'Franklin Gothic Heavy, '" font-weight="400" font-size="29.633" font-family="Franklin Gothic Heavy" letter-spacing="1.857" word-spacing="0" fill="#fff"/><path d="M49.353 2.824a5.443 5.443 0 1 1-.002 10.885 5.443 5.443 0 0 1 .002-10.885zm.207.41a.62.62 0 1 1 0 1.24.62.62 0 0 1 0-1.24zm-1.183 3.722l.783-1.377c.309-.543-.04-1.062-.336-.864-.079.053-.117.259-.185.409l-.633 1.405.061.071.79-1.608c.074-.193.214-.052.133.11l-.818 1.619zm-2.715 4.773l1.54-2.707c.085-.149.137-.183.087-.257-.017-.025-.153.168-.195.13-.017-.017.002-.1.019-.172.029-.127-.03-.19-.085-.037-.01.029-.023.064-.041.104zm4.004-6.921l.338-.123c.263-.096.102-.001.015.168-.216.427-.025.736.364 1.038L51.4 8.639c.204.55.45.522.219-.047l-.888-2.19c-.12-.293-.015-.472.12-.115.873 2.31 1.91 4.992 2.014 5.575-.254-.344-.508-.831-.763-1.463-.133-.33-.219-.695-.49-.947-.108-.101-.197-.067-.309-.126-.081-.044-.156-.137-.22-.31l-1.51-3.955c-.044-.107-.063-.208.093-.253zm.775.11l.675-.731c.357-.388.516-.363.749-.15.276.254.523.546.76.836 1.215 1.493 1.76 2.854 1.806 4.117.005.147.06.594-.082.69-.057.039-.135-.004-.225-.102-.323-.348-.597-.778-.876-1.175-.059-.083-.133-.228-.22-.283-.053-.033-.114-.035-.184-.006l-.601.416c-.248.172-.274.156-.4-.123-.098-.287-.292-.662-.322-.96a.257.257 0 0 1 .057-.189c.114-.147.257-.2.313-.405.078-.286-.073-.594-.364-.572-.107.008-.209.094-.311.08-.133-.018-.298-.236-.392-.326l-.602-.58c-.082-.082-.094-.168-.035-.26.065-.099.173-.19.254-.277zm-2.905.398c-.58.455-.254.7.074 1.161l1.675 2.363c.126.116.147.22.11.319-.04.105-.127.17-.165.278-.045.127.002.148.107.11.122-.045.175-.13.258-.227l.657-.76c.066-.076.142-.192.234-.234.163-.074.22.218.289.385.095.233.158.434.17.587.016.21-.098.286-.236.415-.36.336-.703.603-1.017.764-.14.072-.231.063-.37.103a.314.314 0 0 0-.195.16c-.099.182-.101.271-.253.444-.443.506-.866.972-1.147 1.237a.951.951 0 0 1-.581.292c-.487.08-.644-.126-.546-.555.068-.294.14-.39.357-.577.57-.489 1.198-1.122 1.884-1.3.06-.172.132-.329.245-.431.085-.167.08-.243-.017-.228-.094.015-.089.074-.161.112-.039.02-.082.018-.131-.005l-2.224-2.008c-.12-.109-.255-.267-.4-.34-.122-.063-.228-.034-.318.083-.11.142-.183.35-.27.51l-.95 1.736.725-4.155c.047-.44.065-.562.54-.688l1.02-.27.423-.112c.182-.048.533-.174.626-.07.118.131.208.353.13.474-.094.147-.4.314-.543.427zm3.021 5.145l.882.882.404.405c.203.203.28.273.323.564.011.076.016.141.013.195-.004.119-.059.216-.18.238-.07.012-.155-.008-.256-.06-.084-.044-.097-.056-.188-.06-.12-.005-.25-.062-.4-.214-.074-.111-1.176-1.476-1.25-1.582-.093-.13.027-.26.123-.342l.14-.119c.135-.062.264-.031.39.094" fill="#231f20" fill-rule="evenodd"/><path d="M49.353 2.824a5.443 5.443 0 1 1-.002 10.885 5.443 5.443 0 0 1 .002-10.885zm.207.41a.62.62 0 1 1 0 1.24.62.62 0 0 1 0-1.24zm-1.183 3.722l.783-1.377c.309-.543-.04-1.062-.336-.864-.079.053-.117.259-.185.409l-.633 1.405.061.071.79-1.608c.074-.193.214-.052.133.11l-.818 1.619zm-2.715 4.773l1.54-2.707c.085-.149.137-.183.087-.257-.017-.025-.153.168-.195.13-.017-.017.002-.1.019-.172.029-.127-.03-.19-.085-.037-.01.029-.023.064-.041.104zm4.004-6.921l.338-.123c.263-.096.102-.001.015.168-.216.427-.025.736.364 1.038L51.4 8.639c.204.55.45.522.219-.047l-.888-2.19c-.12-.293-.015-.472.12-.115.873 2.31 1.91 4.992 2.014 5.575-.254-.344-.508-.831-.763-1.463-.133-.33-.219-.695-.49-.947-.108-.101-.197-.067-.309-.126-.081-.044-.156-.137-.22-.31l-1.51-3.955c-.044-.107-.063-.208.093-.253zm.775.11l.675-.731c.357-.388.516-.363.749-.15.276.254.523.546.76.836 1.215 1.493 1.76 2.854 1.806 4.117.005.147.06.594-.082.69-.057.039-.135-.004-.225-.102-.323-.348-.597-.778-.876-1.175-.059-.083-.133-.228-.22-.283-.053-.033-.114-.035-.184-.006l-.601.416c-.248.172-.274.156-.4-.123-.098-.287-.292-.662-.322-.96a.257.257 0 0 1 .057-.189c.114-.147.257-.2.313-.405.078-.286-.073-.594-.364-.572-.107.008-.209.094-.311.08-.133-.018-.298-.236-.392-.326l-.602-.58c-.082-.082-.094-.168-.035-.26.065-.099.173-.19.254-.277zm-2.905.398c-.58.455-.254.7.074 1.161l1.675 2.363c.126.116.147.22.11.319-.04.105-.127.17-.165.278-.045.127.002.148.107.11.122-.045.175-.13.258-.227l.657-.76c.066-.076.142-.192.234-.234.163-.074.22.218.289.385.095.233.158.434.17.587.016.21-.098.286-.236.415-.36.336-.703.603-1.017.764-.14.072-.231.063-.37.103a.314.314 0 0 0-.195.16c-.099.182-.101.271-.253.444-.443.506-.866.972-1.147 1.237a.951.951 0 0 1-.581.292c-.487.08-.644-.126-.546-.555.068-.294.14-.39.357-.577.57-.489 1.198-1.122 1.884-1.3.06-.172.132-.329.245-.431.085-.167.08-.243-.017-.228-.094.015-.089.074-.161.112-.039.02-.082.018-.131-.005l-2.224-2.008c-.12-.109-.255-.267-.4-.34-.122-.063-.228-.034-.318.083-.11.142-.183.35-.27.51l-.95 1.736.725-4.155c.047-.44.065-.562.54-.688l1.02-.27.423-.112c.182-.048.533-.174.626-.07.118.131.208.353.13.474-.094.147-.4.314-.543.427zm3.021 5.145l.882.882.404.405c.203.203.28.273.323.564.011.076.016.141.013.195-.004.119-.059.216-.18.238-.07.012-.155-.008-.256-.06-.084-.044-.097-.056-.188-.06-.12-.005-.25-.062-.4-.214-.074-.111-1.176-1.476-1.25-1.582-.093-.13.027-.26.123-.342l.14-.119c.135-.062.264-.031.39.094z" fill="none" stroke="#231f20" stroke-width=".005" stroke-miterlimit="22.926"/><text style="line-height:125%" x="1.135" y="225.358" font-weight="400" font-size="1.564" font-family="sans-serif" letter-spacing="0" word-spacing="0" fill="#840001" stroke-width=".114" transform="translate(0 -217.625)"><tspan x="1.135" y="225.358" style="line-height:121.00000381%;-inkscape-font-specification:'Arial Bold'" font-weight="700" font-size="5.915" font-family="Arial">Das gesamte</tspan><tspan x="1.135" y="232.514" style="line-height:121.00000381%;-inkscape-font-specification:'Arial Bold'" font-weight="700" font-size="5.915" font-family="Arial">Dach aus</tspan><tspan x="1.135" y="239.671" style="line-height:121.00000381%;-inkscape-font-specification:'Arial Bold'" font-weight="700" font-size="5.915" font-family="Arial">einer Hand</tspan></text><text y="261.36" x="102.409" style="line-height:125%" font-weight="400" font-size="1.564" font-family="sans-serif" letter-spacing="0" word-spacing="0" fill="#840001" stroke-width=".114" transform="translate(0 -217.625)"><tspan style="line-height:96.59999609%;-inkscape-font-specification:'Arial Bold';text-align:end" y="261.36" x="102.409" font-weight="700" font-size="4.398" font-family="Arial" text-anchor="end">Spenglerarbeiten</tspan><tspan style="line-height:96.59999609%;-inkscape-font-specification:'Arial Bold';text-align:end" y="265.608" x="102.409" font-weight="700" font-size="4.398" font-family="Arial" text-anchor="end">Zimmererarbeiten</tspan><tspan style="line-height:96.59999609%;-inkscape-font-specification:'Arial Bold';text-align:end" y="269.857" x="102.409" font-weight="700" font-size="4.398" font-family="Arial" text-anchor="end">Dachdeckerarbeiten</tspan></text><text style="line-height:125%" x="85.469" y="294.402" font-weight="400" font-size="1.564" font-family="sans-serif" letter-spacing="0" word-spacing="0" fill="#840001" stroke-width=".114" transform="translate(0 -217.625)"><tspan x="85.469" y="294.402" style="line-height:96.59999609%;-inkscape-font-specification:'Arial Bold';text-align:end" font-weight="700" font-size="5.308" font-family="Arial" text-anchor="end">www.buchler-dachbau.de</tspan></text><text style="line-height:125%;-inkscape-font-specification:Arial" x="8.788" y="277.855" font-weight="400" font-size="1.564" font-family="Arial" letter-spacing="0" word-spacing="0" stroke-width=".114" transform="translate(0 -217.625)"><tspan x="8.788" y="277.855" style="-inkscape-font-specification:'Arial Bold'" font-weight="700" font-size="4.853">DACHDECKERMEISTERBETRIEB GMBH</tspan></text><text style="line-height:125%;-inkscape-font-specification:Arial" x="53.683" y="283.88" font-weight="400" font-size="1.564" font-family="Arial" letter-spacing="0" word-spacing="0" stroke-width=".114" transform="translate(0 -217.625)"><tspan x="53.683" y="283.88" style="line-height:120.00000477%;-inkscape-font-specification:'Arial Bold';text-align:center" font-weight="700" font-size="3.488" text-anchor="middle">Dinkelstr. 5 - 86845 Großaitingen</tspan><tspan x="53.683" y="288.066" style="line-height:120.00000477%;-inkscape-font-specification:'Arial Bold';text-align:center" font-weight="700" font-size="3.488" text-anchor="middle">Telefon 08203/1314 - Fax 08203/6236</tspan></text><path d="M98.241 62.29v.512" class="st0" fill="none" stroke="#000" stroke-width=".10143441" stroke-linecap="round" stroke-miterlimit="2.613"/><path d="M90.26 74.904l.468-.134-.143.359-.237.068a.897.897 0 0 1-.543.922c-.744.3-1.478-.43-1.187-1.159.288-.723 1.305-.733 1.642-.056zm-.32.091c-.262-.384-.855-.347-1.026.083-.278.696.802 1.13 1.081.43a.534.534 0 0 0 .04-.22l-.48.137.143-.36zM89.068 73.947l.121-.304 1.03.41c.123.05.218.082.315.012a.295.295 0 0 0 .103-.27c-.022-.115-.096-.156-.27-.225l-.99-.396.12-.303c.995.396 1.164.454 1.27.537.403.314.129.998-.325 1.023-.182.01-.39-.091-1.374-.484zM89.804 72.103l.122-.307 1.834.022-.126.315-.377-.007-.258.649.276.26-.126.315zm.483.012l.462.43.168-.423zM90.237 71.017l.12-.302 1.302.519.176-.441.288.115-.297.743zM90.589 70.135l.12-.3 1.59.634-.12.3zM90.754 69.72l.35-.878.299.119-.116.29 1.292.515-.123.306-1.291-.515-.113.282zM91.353 68.219l.123-.307 1.833.022-.125.315-.377-.006-.259.648.276.26-.126.315zm.484.012l.46.43.17-.423zm-.951-.097c.082-.206.392-.081.31.124-.082.204-.391.08-.31-.124zm.19-.479c.083-.205.393-.082.311.124-.081.204-.392.08-.31-.124zM91.724 67.29l.35-.879.298.12-.115.29 1.291.514-.122.307-1.292-.515-.112.282zM92.542 65.239l.122-.307 1.834.023-.126.314-.377-.006-.258.648.275.26-.125.315zm.483.012l.462.43.168-.423zM93.036 64l.118-.296 1.255.075-.96-.815.117-.292 1.696.366-.116.292-1.072-.23.869.739-.107.267-1.137-.067.935.575-.118.295z" class="st1" fill="#050000"/><path d="M92.337 76.079l-1.59-.634c.103-.256.173-.45.255-.557.221-.297.647-.237.745.126.356-.332.803-.06.834.296.013.164-.061.31-.244.769zm-1.18-.822l.335.134c.03-.077.073-.167.045-.248-.033-.094-.155-.147-.243-.1-.076.038-.105.134-.137.214zm.605.242l.407.162c.036-.09.108-.253.084-.347-.03-.12-.188-.178-.305-.11-.097.058-.15.204-.186.295zM91.425 73.745l.123-.307 1.833.023-.125.314-.377-.006-.259.648.276.26-.125.315zm.484.013l.461.43.169-.423zM91.854 72.67l.121-.303 1.029.41c.129.052.312.117.4-.106.098-.243-.111-.322-.25-.378l-.992-.395.121-.304.948.378c.212.085.511.192.519.562a.682.682 0 0 1-.25.517c-.223.163-.416.11-.698-.002zM92.616 70.76l.346-.868.297.118-.227.568.288.114.226-.567.29.116-.226.567.419.167.226-.567.297.118-.346.868zM94.38 70.063c.09-.227.427-.087.338.134-.089.224-.428.09-.338-.134zM93.04 69.698l.124-.31 1.289.05-.968-.856.124-.311 1.361 1.207-.116.292zM94.834 68.924c.09-.226.427-.087.338.135-.089.224-.427.089-.338-.135z"/><text y="203.39" x="-251.865" class="st2 st3" transform="rotate(-67.816 36.596 -45.922) scale(.23001)" font-size="4.627" font-family="Century Gothic" stroke-width=".265">FREIWILLIGE SELBSTKONTROLLE</text><path d="M98.5 62.283h5.921L98.65 76.604H87.237l5.79-14.321h4.953" class="st4" fill="none" stroke="#000" stroke-width=".10143441" stroke-linecap="round" stroke-linejoin="round"/><path d="M98.248 62.98a.95.95 0 0 0-.947.948c0 .406.26.753.62.887a6.224 6.224 0 0 0-3.405 1.322.153.153 0 0 0-.048.176l3.649 9.25c.05.127.231.127.282 0l3.69-9.249c.025-.056.012-.126-.05-.179a5.672 5.672 0 0 0-3.437-1.329.95.95 0 0 0 .594-.878.95.95 0 0 0-.948-.947z"/><path d="M98.248 63.285a.64.64 0 0 1 .644.643.641.641 0 0 1-.644.643.641.641 0 0 1-.643-.643.64.64 0 0 1 .643-.643zM98.367 65.104a5.408 5.408 0 0 1 3.133 1h-6.413a5.867 5.867 0 0 1 3.28-1zM94.833 66.41h6.891l-3.465 8.684z" class="st5" fill="#fff200"/></svg>