<svg width="4e2" height="3e2" version="1.1" viewBox="0 0 105.83333 79.375" xmlns="http://www.w3.org/2000/svg" xmlns:xlink="http://www.w3.org/1999/xlink">
 <defs>
  <linearGradient id="linearGradient4734-6" x1="-8.2e2" x2="-8.2e2" y1="70" y2="-89" gradientTransform="matrix(.1 0 0 .38 1e3 1.7e2)" gradientUnits="userSpaceOnUse">
   <stop stop-color="#d8a72e" offset="0"/>
   <stop stop-color="#d9bf68" offset="1"/>
  </linearGradient>
 </defs>
 <g transform="translate(-8.9e2 -1.3e2)">
  <rect x="8.9e2" y="1.3e2" width="1.1e2" height="62" fill="url(#linearGradient4734-6)" fill-rule="evenodd" style="paint-order:stroke fill markers"/>
  <g fill="#e59c01" fill-rule="evenodd" stroke="#000" stroke-linecap="round" stroke-linejoin="round" stroke-width=".064">
   <path d="m9.3e2 1.6e2c0.87-1.7 1.9-3.4 4.1-5l-5.6-15 7.8 14c0.99-0.43 2-0.76 3.3-0.85l1.1-14 1.3 14c0.84 0.088 1.7 0.24 2.5 0.48l4.5-10-3.1 11c0.57 0.24 1.2 0.55 1.8 1.1l9.8-10-8.2 11c0.46 0.43 0.88 0.91 1.3 1.5l21-10-19 12c0.27 0.6 0.54 1.2 0.71 1.9l18-4.3-17 6.5c0.062 0.91-0.011 1.8-0.13 2.7-0.79 1-1.7 1.9-2.8 2.3 4.8-11-10-21-18-9.1z"/>
   <path d="m9.4e2 1.6e2 12-0.23c0.85-8e-3 2.1 0.35 2.9 0.92-4.4-5.3-11-4.6-14-0.69z"/>
   <path d="m9.5e2 1.6e2c0.58 2 0.76 4-0.031 5.8-1e-3 -1.2-0.38-2.1-1.1-2.8 0.67-0.98 0.99-2 1.1-3z"/>
  </g>
  <g fill-rule="evenodd">
   <path d="m9.6e2 1.6e2c-3.6 11-9.6 12-19 9.7-9.4-2.1-12-1.7-16 1.4 4.5-5.7 11-6.5 18-5.2 7.5 1.3 13 0.079 16-5.9z" fill="#44475a" stroke="#000" stroke-width=".064"/>
   <path d="m9.3e2 1.6e2h5.7v2.9h-5.7zm-1.7-2.3 17-0.19c1.1 0.63 1.1 1.5 0.022 2.3l-7.1 0.15v2.9l7.1-0.077c0.95 0.34 1.1 1.7 0 2.3l-17 0.1c-0.79-2.4-0.96-4.9-0.19-7.4z" fill="#e59c01" stroke="#000" stroke-linecap="round" stroke-linejoin="round" stroke-width=".064"/>
   <rect x="8.9e2" y="1.9e2" width="1.1e2" height="17" fill="#2b3550" style="paint-order:stroke fill markers"/>
  </g>
  <g fill="#e2c27b" font-family="Tahoma" font-size="3.5px" stroke-width=".026px">
   <text x="916.55811" y="199.69316" lengthAdjust="spacingAndGlyphs" textLength="60" xml:space="preserve">Dinkelstraße 5 • 86845 • Großaitingen </text>
   <text x="907.53931" y="204.71127" lengthAdjust="spacingAndGlyphs" textLength="79" xml:space="preserve">Telefon +49 8203 1314 • Mobil +49 172 2894042 </text>
   <text x="901.73169" y="209.0528" lengthAdjust="spacingAndGlyphs" textLength="90" xml:space="preserve">E-Mail buchler89@gmx.de • service@buchler-dachbau.de </text>
  </g>
  <text x="899.75305" y="185.49274" font-family="Georgia" font-size="9px" stroke-width=".026px" lengthAdjust="spacingAndGlyphs" textLength="92" xml:space="preserve">ANDREAS  BUCHLER</text>
  <text x="915.09088" y="191.44164" fill="#2b3550" font-family="Georgia" font-size="6px" stroke-width=".026px" lengthAdjust="spacingAndGlyphs" textLength="61" xml:space="preserve">ENERGIEBERATUNG</text>
  <path d="m9e2 1.9e2h14" fill="none" stroke="#000" stroke-linecap="square" stroke-width=".3"/>
  <path d="m9.8e2 1.9e2h14" fill="none" stroke="#000" stroke-linecap="square" stroke-width=".3"/>
 </g>
</svg>
