<svg width="400" height="300" viewBox="0 0 105.83333 79.375002" xmlns="http://www.w3.org/2000/svg"><defs><filter id="a" color-interpolation-filters="sRGB"><feFlood flood-color="#000" flood-opacity=".498" result="flood"/><feComposite in="flood" in2="SourceGraphic" operator="in" result="composite1"/><feGaussianBlur in="composite1" result="blur" stdDeviation=".4"/><feOffset dx=".9" dy="1.4" result="offset"/><feComposite in="SourceGraphic" in2="offset" result="composite2"/></filter><filter id="b" color-interpolation-filters="sRGB"><feFlood flood-color="#000" flood-opacity=".498" result="flood"/><feComposite in="flood" in2="SourceGraphic" operator="in" result="composite1"/><feGaussianBlur in="composite1" result="blur" stdDeviation=".5"/><feOffset dx="1.1" dy="1.8" result="offset"/><feComposite in="SourceGraphic" in2="offset" result="composite2"/></filter></defs><path d="M46.143 162.07l4.71 13.497-10.306.134zm-3.759-16.103h7.985l22.042 55.52-10.607-.26-6.106-15.838H37.023l-5.48 15.815-11.124.923z" fill-rule="evenodd" filter="url(#a)" stroke="#000006" stroke-linecap="round" stroke-linejoin="round" paint-order="stroke fill markers" transform="translate(4.39 -34.833) scale(.4299)"/><path d="M182.58-12.641l146.59-59.19 20.64 49.855c-.106 14.981-13.906 13.379-18.928 8.458.792 11.758-10.301 16.029-18.422 7.438 1.672 10.182-11.152 15.702-18.422 7.439-.918 11.315-10.525 15.304-18.422 7.438 2.184 11.15-9.51 16.922-18.422 7.439.77 12.827-10.367 17.088-18.422 7.438 2.072 12.265-10.278 17.035-18.422 7.439 1.52 12.397-10.005 17.546-17.58 7.506z" fill="#b91840" fill-rule="evenodd" filter="url(#b)" transform="translate(-52.305 33.142) scale(.4299)"/><g fill="none" stroke="#000" stroke-linecap="round" stroke-linejoin="round"><path d="M26.823 28.678c3.931 6.115 9.654.738 7.987-3.427 2.227 4.147 9.2 3.195 7.903-3.098 4.328 6.29 9.125.519 8.228-3.291 2.94 5.143 9.59 1.805 7.434-2.955 4.45 4.735 8.997.847 8.042-3.253 1.745 2.979 9.285 3.034 8.088-3.404 3.773 5.967 9.236 1.178 8.01-3.11 1.334 3.903 8.94 3.25 6.836-3.25" stroke-width=".4299"/><path d="M92.812 11.68c-1.47.582-4.33-.12-4.997-2.072 1.226 4.288-4.236 9.076-8.01 3.11 1.197 6.437-6.343 6.382-8.088 3.404.955 4.1-3.592 7.987-8.042 3.252 2.157 4.76-4.495 8.099-7.434 2.956.897 3.81-3.9 9.58-8.228 3.29 1.297 6.294-5.676 7.245-7.903 3.099 1.668 4.165-4.056 9.541-7.987 3.426.705 2.718-.312 4.123-2.129 4.919M31.212 40.136c3.931 6.114 9.655.738 7.987-3.427 2.227 4.147 9.2 3.195 7.903-3.098 4.328 6.29 9.126.519 8.228-3.291 2.94 5.143 9.59 1.805 7.434-2.956 4.45 4.735 8.997.847 8.042-3.252 1.745 2.978 9.285 3.033 8.088-3.404 3.773 5.966 9.236 1.178 8.01-3.11 1.335 3.903 8.993 3.273 6.89-3.227" stroke-width=".4299"/><path d="M97.567 22.793c-1.67.97-4.957.177-5.672-1.952 1.226 4.288-4.236 9.076-8.01 3.11 1.197 6.437-6.343 6.382-8.088 3.404.955 4.1-3.592 7.987-8.042 3.252 2.157 4.76-4.494 8.099-7.434 2.955.898 3.81-3.9 9.582-8.228 3.292 1.297 6.293-5.676 7.244-7.903 3.098 1.637 4.052-3.202 9.145-7.004 3.502.44 2.306-.234 4.134-2.69 5.196" stroke-width=".4299"/></g><g stroke-width=".413"><path d="M38.605 42.112l-3.18-7.873 3.998-1.614q1.246-.503 2.07-.105.825.398 1.152 1.206.237.588.096 1.202-.138.606-.723 1.05 1.677-.248 2.269 1.217.354.877.091 1.788-.26.903-2.024 1.616zm.265-5.755l1.12-.452q.42-.17.507-.453t-.01-.526q-.266-.657-1.074-.331l-1.078.435zm1.253 3.103l1.177-.475q.438-.177.554-.472.12-.303.01-.574-.11-.271-.402-.415-.29-.151-.82.063l-1.096.443zM50.142 28.293l2.105 5.214q.599 1.482-.02 2.49-.616 1-2.03 1.57-1.487.602-2.645.345-1.15-.26-1.72-1.667l-2.156-5.342 2.457-.992 2.043 5.059q.228.565.57.729.346.162.871-.05.439-.177.641-.474.206-.304.162-.561-.038-.26-.315-.947l-1.86-4.608zM58.48 30.592l2.262-.76q.429 1.511-.176 2.654-.6 1.141-1.932 1.68-1.603.647-3.018-.016-1.415-.663-2.17-2.532-.747-1.852-.272-3.365.476-1.514 2.148-2.19 1.564-.63 2.75-.103 1.19.525 1.878 1.911l-2.206 1.032q-.32-.79-.767-1.019-.442-.23-.852-.065-1.142.461-.215 2.757.52 1.286 1 1.629.486.34 1.023.124.957-.387.546-1.737zM67.028 21.474l3.18 7.874-2.418.976-1.236-3.063-1.846.745 1.237 3.063-2.417.976-3.18-7.874 2.418-.975 1.169 2.895 1.845-.745-1.169-2.896zM77.062 24.336l.78 1.932-5.52 2.229-3.179-7.874 2.417-.975 2.399 5.94zM84.593 21.355l.76 1.88-5.925 2.392-3.179-7.873 5.924-2.392.734 1.817-3.553 1.435.46 1.142 2.873-1.16.706 1.747-2.873 1.16.52 1.287zM94.055 19.723l-2.682 1.083-2.364-2.548-.761.308 1.215 3.01-2.416.976-3.18-7.873 4.113-1.66q1.361-.55 2.37-.213 1.012.33 1.433 1.374.275.68.21 1.317-.067.63-.749 1.369zm-6.488-2.841l1.033-.417q.456-.184.656-.486t.05-.672q-.305-.755-1.233-.38l-1.113.45z"/><g fill="#fff"><path d="M37.346 41.267l-3.18-7.873 3.998-1.614q1.246-.503 2.07-.105.826.398 1.152 1.205.237.589.096 1.203-.138.605-.723 1.05 1.677-.248 2.269 1.217.354.876.091 1.787-.26.903-2.024 1.616zm.265-5.756l1.12-.451q.42-.17.507-.454t-.01-.525q-.266-.658-1.074-.332l-1.078.436zm1.253 3.104l1.177-.476q.438-.177.554-.471.12-.303.01-.575t-.402-.414q-.29-.152-.82.063l-1.096.442zM48.884 27.451l2.106 5.214q.598 1.483-.021 2.491-.616 1-2.029 1.57-1.488.601-2.645.344-1.152-.26-1.72-1.667l-2.157-5.341 2.458-.992 2.042 5.058q.228.566.57.73.347.161.872-.05.438-.177.64-.474.206-.304.163-.562-.038-.26-.315-.946l-1.861-4.608zM57.22 29.747l2.263-.76q.428 1.51-.177 2.654-.599 1.14-1.931 1.679-1.604.647-3.019-.016t-2.17-2.532q-.747-1.851-.271-3.365.475-1.513 2.148-2.189 1.563-.63 2.749-.103 1.191.525 1.879 1.911l-2.207 1.032q-.319-.79-.767-1.019-.442-.23-.851-.065-1.142.461-.215 2.757.52 1.286 1 1.628.486.34 1.022.124.958-.386.547-1.737zM65.77 20.633l3.18 7.873-2.417.976-1.237-3.062-1.846.745 1.237 3.063-2.417.975-3.179-7.873 2.417-.976 1.169 2.896 1.846-.746-1.17-2.895zM75.804 23.494l.78 1.933-5.52 2.228-3.179-7.873 2.417-.976 2.399 5.941zM83.335 20.514l.76 1.88-5.924 2.392-3.18-7.873 5.924-2.392.734 1.817-3.553 1.434.461 1.142 2.872-1.16.706 1.748-2.872 1.16.52 1.286zM92.795 18.877l-2.682 1.083-2.363-2.547-.762.307 1.216 3.011-2.417.976-3.179-7.873 4.113-1.66q1.361-.55 2.37-.213 1.011.33 1.433 1.373.275.681.21 1.318-.068.63-.749 1.369zm-6.487-2.84l1.033-.418q.455-.184.655-.486t.051-.67q-.305-.757-1.233-.382l-1.114.45z"/></g></g><path d="M49.353 2.83a5.443 5.443 0 1 1-.001 10.886 5.443 5.443 0 0 1 .001-10.885zm.207.41a.62.62 0 1 1 0 1.24.62.62 0 0 1 0-1.24zm-1.183 3.724l.783-1.378c.31-.543-.04-1.061-.335-.864-.08.053-.118.259-.186.409l-.633 1.406.062.07.79-1.608c.074-.193.214-.052.133.11l-.819 1.619zm-2.714 4.772l1.54-2.707c.084-.149.137-.183.086-.257-.016-.025-.152.168-.195.13-.017-.016.002-.1.019-.172.03-.127-.03-.19-.085-.037-.01.03-.023.064-.04.104zm4.004-6.921l.337-.123c.263-.095.102 0 .016.169-.217.426-.026.735.363 1.037L51.4 8.646c.204.55.45.522.22-.047l-.889-2.19c-.119-.292-.014-.472.12-.114.873 2.31 1.91 4.992 2.015 5.574-.255-.344-.51-.831-.763-1.462-.134-.332-.22-.696-.49-.948-.11-.101-.198-.066-.31-.126-.081-.044-.156-.137-.22-.31L49.574 5.07c-.045-.108-.064-.208.093-.254zm.774.11l.675-.73c.358-.388.516-.364.75-.15.276.253.522.545.759.835 1.216 1.493 1.76 2.854 1.807 4.117.005.147.06.594-.083.69-.057.04-.134-.004-.225-.101-.322-.349-.597-.778-.876-1.176-.058-.083-.133-.228-.22-.283-.052-.033-.113-.034-.183-.006l-.602.417c-.248.172-.274.156-.4-.123-.097-.288-.292-.663-.321-.961a.257.257 0 0 1 .056-.188c.115-.147.258-.2.314-.406.077-.286-.074-.594-.365-.572-.107.009-.208.094-.31.08-.134-.018-.3-.236-.392-.325l-.603-.58c-.082-.082-.093-.169-.034-.26.064-.1.173-.19.253-.277zm-2.905.398c-.58.455-.253.7.074 1.161l1.676 2.364c.125.115.146.22.11.318-.04.105-.127.17-.165.278-.045.127.002.149.106.11.122-.045.175-.13.259-.227l.656-.759c.066-.076.142-.193.234-.235.164-.074.22.218.29.386.095.232.157.433.17.586.016.21-.099.286-.237.415-.36.336-.703.603-1.017.764-.14.072-.23.063-.37.104a.314.314 0 0 0-.195.158c-.098.183-.1.273-.252.445-.444.507-.867.973-1.148 1.237a.951.951 0 0 1-.58.292c-.488.081-.644-.126-.546-.555.067-.293.139-.39.357-.577.57-.489 1.198-1.122 1.883-1.3.06-.172.133-.329.245-.431.086-.167.08-.243-.017-.228-.094.015-.089.074-.16.112-.04.02-.083.019-.132-.005l-2.224-2.008c-.12-.108-.254-.267-.399-.34-.123-.063-.229-.034-.319.083-.109.142-.183.35-.27.51l-.95 1.736.725-4.155c.047-.44.065-.562.54-.688l1.02-.27.424-.112c.182-.048.533-.173.625-.07.119.131.209.353.131.474-.095.147-.4.314-.544.427zm3.022 5.146l.882.882.404.404c.202.203.279.274.322.564.012.077.016.141.014.195-.005.12-.059.217-.181.238-.07.013-.154-.008-.256-.06-.084-.044-.096-.056-.188-.06-.12-.004-.25-.062-.4-.214-.073-.111-1.175-1.476-1.25-1.581-.092-.131.028-.262.124-.343l.14-.118c.134-.063.264-.032.389.093" fill="#231f20" fill-rule="evenodd"/><path d="M49.353 2.83a5.443 5.443 0 1 1-.001 10.886 5.443 5.443 0 0 1 .001-10.885zm.207.41a.62.62 0 1 1 0 1.24.62.62 0 0 1 0-1.24zm-1.183 3.724l.783-1.378c.31-.543-.04-1.061-.335-.864-.08.053-.118.259-.186.409l-.633 1.406.062.07.79-1.608c.074-.193.214-.052.133.11l-.819 1.619zm-2.714 4.772l1.54-2.707c.084-.149.137-.183.086-.257-.016-.025-.152.168-.195.13-.017-.016.002-.1.019-.172.03-.127-.03-.19-.085-.037-.01.03-.023.064-.04.104zm4.004-6.921l.337-.123c.263-.095.102 0 .016.169-.217.426-.026.735.363 1.037L51.4 8.646c.204.55.45.522.22-.047l-.889-2.19c-.119-.292-.014-.472.12-.114.873 2.31 1.91 4.992 2.015 5.574-.255-.344-.51-.831-.763-1.462-.134-.332-.22-.696-.49-.948-.11-.101-.198-.066-.31-.126-.081-.044-.156-.137-.22-.31L49.574 5.07c-.045-.108-.064-.208.093-.254zm.774.11l.675-.73c.358-.388.516-.364.75-.15.276.253.522.545.759.835 1.216 1.493 1.76 2.854 1.807 4.117.005.147.06.594-.083.69-.057.04-.134-.004-.225-.101-.322-.349-.597-.778-.876-1.176-.058-.083-.133-.228-.22-.283-.052-.033-.113-.034-.183-.006l-.602.417c-.248.172-.274.156-.4-.123-.097-.288-.292-.663-.321-.961a.257.257 0 0 1 .056-.188c.115-.147.258-.2.314-.406.077-.286-.074-.594-.365-.572-.107.009-.208.094-.31.08-.134-.018-.3-.236-.392-.325l-.603-.58c-.082-.082-.093-.169-.034-.26.064-.1.173-.19.253-.277zm-2.905.398c-.58.455-.253.7.074 1.161l1.676 2.364c.125.115.146.22.11.318-.04.105-.127.17-.165.278-.045.127.002.149.106.11.122-.045.175-.13.259-.227l.656-.759c.066-.076.142-.193.234-.235.164-.074.22.218.29.386.095.232.157.433.17.586.016.21-.099.286-.237.415-.36.336-.703.603-1.017.764-.14.072-.23.063-.37.104a.314.314 0 0 0-.195.158c-.098.183-.1.273-.252.445-.444.507-.867.973-1.148 1.237a.951.951 0 0 1-.58.292c-.488.081-.644-.126-.546-.555.067-.293.139-.39.357-.577.57-.489 1.198-1.122 1.883-1.3.06-.172.133-.329.245-.431.086-.167.08-.243-.017-.228-.094.015-.089.074-.16.112-.04.02-.083.019-.132-.005l-2.224-2.008c-.12-.108-.254-.267-.399-.34-.123-.063-.229-.034-.319.083-.109.142-.183.35-.27.51l-.95 1.736.725-4.155c.047-.44.065-.562.54-.688l1.02-.27.424-.112c.182-.048.533-.173.625-.07.119.131.209.353.131.474-.095.147-.4.314-.544.427zm3.022 5.146l.882.882.404.404c.202.203.279.274.322.564.012.077.016.141.014.195-.005.12-.059.217-.181.238-.07.013-.154-.008-.256-.06-.084-.044-.096-.056-.188-.06-.12-.004-.25-.062-.4-.214-.073-.111-1.175-1.476-1.25-1.581-.092-.131.028-.262.124-.343l.14-.118c.134-.063.264-.032.389.093z" fill="none" stroke="#231f20" stroke-miterlimit="22.926" stroke-width=".0052704"/><g><path d="M87.497 76.735l5.712-14.127h4.885m.512 0h5.842l-5.693 14.127H87.497" fill="none" stroke="#000" stroke-miterlimit="2.613" stroke-width=".08179479"/><path d="M98.353 62.613v.506" fill="none" stroke="#000" stroke-linecap="round" stroke-miterlimit="2.613" stroke-width=".08210818"/><path d="M98.38 69.987l-3.635-3.604a5.576 5.576 0 0 1 3.636-1.356c1.343 0 2.664.503 3.635 1.356z" fill="#fff200" fill-rule="evenodd"/><path d="M98.38 69.987l-3.635-3.604a5.576 5.576 0 0 1 3.636-1.356c1.343 0 2.664.503 3.635 1.356z" fill="none" stroke="#000" stroke-miterlimit="2.613" stroke-width=".40521326999999996"/><path d="M98.343 63.468a.783.783 0 0 1 0 1.564.784.784 0 0 1-.782-.783c0-.43.352-.781.782-.781" fill="#fff200" fill-rule="evenodd"/><path d="M98.343 63.468a.783.783 0 0 1 0 1.564.784.784 0 0 1-.782-.783c0-.43.352-.781.782-.781z" fill="none" stroke="#000" stroke-linecap="square" stroke-miterlimit="2.613" stroke-width=".37387427"/><path d="M101.997 66.58l-3.64 9.124-3.6-9.124z" fill="#fff200" fill-rule="evenodd"/><path d="M101.997 66.58l-3.64 9.124-3.6-9.124z" fill="none" stroke="#000" stroke-miterlimit="2.613" stroke-width=".41492836"/><path d="M97.97 75.277h.776l-.395 1.018z" fill-rule="evenodd"/><g font-family="'Century Gothic'" font-size="7.5" font-weight="bold" letter-spacing="-.233" stroke-width=".75" word-spacing="0"><text x="144.904" y="210.566" fill="#050000" style="line-height:125%" transform="rotate(-68.253 75.638 38.361) scale(.31339)"><tspan x="144.904" y="210.566">QUÄLITÄT AM</tspan></text><text x="148.513" y="194.923" style="line-height:125%" transform="rotate(-68.253 75.638 38.361) scale(.31339)"><tspan x="148.513" y="217.222">BAU E<tspan letter-spacing="-1.748">.V.</tspan></tspan></text></g><text transform="rotate(-67.816 76.214 38.289) scale(.31339)" x="142.583" y="200.408" font-family="sans-serif" font-size="10.312" letter-spacing="0" stroke-width=".75" word-spacing="0" style="line-height:125%"><tspan x="142.583" y="200.408" font-family="'Century Gothic'" font-size="3.35">FREIWILLIGE SELBSTKONTROLLE</tspan></text></g><g fill="#840001" letter-spacing="0" stroke-width=".265" word-spacing="0"><text x="-527.556" y="111.487" font-family="Arial" font-size="13.758" font-weight="bold" style="line-height:125%" transform="translate(227.93 -40.19) scale(.4299)"><tspan x="-527.556" y="111.487" style="line-height:121.00000381%">Das gesamte</tspan><tspan x="-527.556" y="128.135" style="line-height:121.00000381%">Dach aus</tspan><tspan x="-527.556" y="144.782" style="line-height:121.00000381%">einer Hand</tspan></text><text x="-291.978" y="195.233" font-family="Arial" font-size="10.231" font-weight="bold" text-anchor="end" style="line-height:125%" transform="translate(227.93 -40.19) scale(.4299)"><tspan x="-291.978" y="195.233" style="line-height:96.59999609%">Spenglerarbeiten</tspan><tspan x="-291.978" y="205.116" style="line-height:96.59999609%">Zimmererarbeiten</tspan><tspan x="-291.978" y="214.999" style="line-height:96.59999609%">Dachdeckerarbeiten</tspan></text><text x="-331.384" y="272.094" font-family="sans-serif" font-size="3.638" style="line-height:125%" transform="translate(227.93 -40.19) scale(.4299)"><tspan x="-331.384" y="272.094" font-family="Arial" font-size="12.347" font-weight="bold" text-anchor="end" style="line-height:96.59999609%">www.buchler-dachbau.de</tspan></text></g><text x="-509.755" y="233.603" font-family="Arial" font-size="3.638" letter-spacing="0" stroke-width=".265" word-spacing="0" style="line-height:125%" transform="translate(227.93 -40.19) scale(.4299)"><tspan x="-509.755" y="233.603" font-size="11.289" font-weight="bold">DACHDECKERMEISTERBETRIEB GMBH</tspan></text><text x="-405.323" y="247.618" font-family="Arial" font-size="8.114" font-weight="bold" letter-spacing="0" stroke-width=".265" text-anchor="middle" word-spacing="0" style="line-height:125%" transform="translate(227.93 -40.19) scale(.4299)"><tspan x="-405.323" y="247.618" style="line-height:120.00000477%">Dinkelstr. 5 - 86845 Großaitingen</tspan><tspan x="-405.323" y="257.355" style="line-height:120.00000477%">Telefon 08203/1314 - Fax 08203/6236</tspan></text></svg>