<svg xmlns="http://www.w3.org/2000/svg" xmlns:xlink="http://www.w3.org/1999/xlink" width="400" height="300" viewBox="0 0 400.00128 299.99997"><defs><linearGradient id="a"><stop offset="0" stop-color="#d8a72e"/><stop offset="1" stop-color="#d9bf68"/></linearGradient><linearGradient xlink:href="#a" id="b" x1="-816.311" y1="70.416" x2="-815.29" y2="-89.09" gradientUnits="userSpaceOnUse" gradientTransform="matrix(.09972 0 0 .37557 1027.342 167.006)"/></defs><path transform="matrix(3.77955 0 0 3.77954 -3376.716 -499.916)" d="M893.417 132.269H999.25v62.177H893.417z" fill="url(#b)" fill-rule="evenodd" paint-order="stroke fill markers"/><path d="M40.04 27.174c.869-1.683 1.88-3.356 4.105-4.957L38.544 6.963l7.813 14.047c.986-.431 2.044-.756 3.259-.854l1.136-14.228 1.31 14.163c.84.088 1.672.242 2.498.477l4.5-10.376-3.055 10.947a8.459 8.459 0 0 1 1.848 1.056l9.76-10.004-8.236 11.243c.46.433.884.915 1.255 1.466L81.33 14.596 61.86 27.051c.267.598.542 1.185.709 1.925l17.545-4.274-17.218 6.524c.061.912-.01 1.825-.125 2.738-.786 1.045-1.69 1.858-2.784 2.3 4.799-10.796-10.1-20.663-17.734-9.074z" fill="#e59c01" fill-rule="evenodd" stroke="#000" stroke-width=".064" stroke-linecap="round" stroke-linejoin="round" transform="matrix(3.77955 0 0 3.77954 0 0)"/><path d="M44.067 25.591l11.6-.232c.855-.008 2.126.345 2.864.918-4.363-5.312-10.999-4.558-14.464-.686zm15.973 3.687c.577 2.003.764 3.96-.03 5.796-.001-1.176-.382-2.077-1.072-2.753.674-.98.991-2 1.103-3.043z" fill="#e59c01" fill-rule="evenodd" stroke="#000" stroke-width=".064" stroke-linecap="round" stroke-linejoin="round" transform="matrix(3.77955 0 0 3.77954 0 0)"/><path d="M64.541 31.902c-3.621 11.38-9.564 11.803-18.98 9.718-9.418-2.085-12.363-1.721-15.617 1.448 4.53-5.698 10.912-6.507 18.38-5.22 7.469 1.287 13.096.08 16.217-5.946z" fill="#44475a" fill-rule="evenodd" stroke="#000" stroke-width=".064" transform="matrix(3.77955 0 0 3.77954 0 0)"/><path d="M41.104 30.967h5.717v2.865h-5.706zm-1.659-2.278l16.886-.189c1.066.628 1.144 1.538.022 2.257l-7.11.155v2.876l7.088-.077c.952.343 1.112 1.653 0 2.256l-16.698.1c-.793-2.404-.957-4.856-.188-7.378z" fill="#e59c01" fill-rule="evenodd" stroke="#000" stroke-width=".064" stroke-linecap="round" stroke-linejoin="round" transform="matrix(3.77955 0 0 3.77954 0 0)"/><path d="M0 235h400.001v65H0z" fill="#2b3550" fill-rule="evenodd" paint-order="stroke fill markers"/><text transform="matrix(3.77955 0 0 3.77954 -3376.716 -499.916)" font-size="3.517" font-weight="400" textLength="60" lengthAdjust="spacingAndGlyphs" y="199.693" x="916.558" style="-inkscape-font-specification:Tahoma" font-family="Tahoma" fill="#e2c27b" stroke-width=".026">Dinkelstraße 5 • 86845 • Großaitingen</text><text transform="matrix(3.77955 0 0 3.77954 -3376.716 -499.916)" font-size="3.517" font-weight="400" textLength="79" lengthAdjust="spacingAndGlyphs" y="204.711" x="907.539" style="-inkscape-font-specification:Tahoma" font-family="Tahoma" fill="#e2c27b" stroke-width=".026">Telefon +49 8203 1314 • Mobil +49 172 2894042</text><text transform="matrix(3.77955 0 0 3.77954 -3376.716 -499.916)" font-size="3.517" font-weight="400" textLength="90" lengthAdjust="spacingAndGlyphs" y="209.053" x="901.732" style="-inkscape-font-specification:Tahoma" font-family="Tahoma" fill="#e2c27b" stroke-width=".026">E-Mail buchler89@gmx.de • service@buchler-dachbau.de</text><text transform="matrix(3.77955 0 0 3.77954 -3376.716 -499.916)" font-size="9.003" font-weight="400" lengthAdjust="spacingAndGlyphs" textLength="92" y="185.493" x="899.753" style="-inkscape-font-specification:Georgia" font-family="Georgia" stroke-width=".026">ANDREAS BUCHLER</text><text transform="matrix(3.77955 0 0 3.77954 -3376.716 -499.916)" font-size="5.979" font-weight="400" lengthAdjust="spacingAndGlyphs" textLength="61" y="191.442" x="915.091" style="-inkscape-font-specification:Georgia" font-family="Georgia" fill="#2b3550" stroke-width=".026">ENERGIEBERATUNG</text><path d="M6.896 57.336h13.942m62.964-.226h13.942" fill="none" stroke="#000" stroke-width=".299" stroke-linecap="square" transform="matrix(3.77955 0 0 3.77954 0 0)"/></svg>