<svg id="svg4682" xmlns="http://www.w3.org/2000/svg" width="400" height="300" viewBox="0 0 400 300"><style>.st0{fill:#d6012d}.st1{font-family:&apos;ArialMT&apos;}.st2{font-size:20.13738px}.st3{font-family:&apos;Arial-ItalicMT&apos;}.st4{font-size:16.84217px}.st5{font-size:15.62173px}.st6{font-size:26.84984px}</style><g id="layer1" transform="translate(0 -217.625)"><g id="text21"><path id="path4539" d="M129.029 244.498l-5.315 18.143c5.748-.075 11.806.274 15.484-7.441h1.382l-5.492 18.957h-1.417c1.767-9.19-3.772-8.705-10.666-8.859-6.053 20.987-8.26 23.139.709 23.245l-.39 1.311h-23.99l.39-1.31c2.315 0 4.005-.426 5.068-1.276 2.126-1.75 2.363-3.933 11.445-35.08 1.72-5.93 2.99-8.768-4.075-9.072l.354-1.31h39.262l-3.225 12.685h-1.31c-.573-10.67-6.173-9.993-18.214-9.993z"/><path id="path4541" d="M168.645 266.397l-4.253 14.564c-1.672 5.596-1.558 7.454 4.749 7.582l-.496 1.312h-23.14l.426-1.312c4.997 0 6.422-1.738 8.044-7.37 10.76-37.147 12.654-37.453 4.464-38.057l.355-1.31c20.39 0 27.569-.76 31.926 2.976 4.467 3.829 5.047 11.033-.567 16.548-1.7 1.653-4.713 3.083-9.036 4.287 6.39 21.527 5.855 22.721 11.658 22.926v1.312h-14.953l-6.803-23.458c-1.226.074-1.177.104-2.374 0zm.496-2.126c2.641.15 6.953.402 10.595-3.473 4.488-4.775 5.466-16.229-3.119-16.229-.472 0-1.027.011-1.665.034l-5.811 19.668z"/><path id="path4543" d="M225.694 274.37h-14.882c-5.144 6.368-12.967 13.732-4.288 14.173v1.312h-14.351l.354-1.312c4.648-.774 3.765-.817 43.16-47.836h1.594c-1.833 45.225-2.235 44.849-.744 46.56.661.733 1.748 1.158 3.26 1.276l-.354 1.312h-20.8l.39-1.312c2.055-.189 3.236-.354 3.543-.496 3.01-1.504 2.774-7.062 3.118-13.677zm0-2.906l.921-15.662-13.358 15.662h12.437z"/><path id="path4545_2_" d="M250.817 281.35l10.17-34.903c-2.454-2.73-3.6-3.283-6.98-3.33l.389-1.312h16.229l15.024 32.033c7.157-24.581 10.658-30.182 2.339-30.722l.39-1.31h15.236l-.354 1.31c-1.937.119-3.543.662-4.819 1.63-2.532 1.959-2.328 2.926-14.918 45.64h-1.346L262.9 249.424c-9.978 34.184-11.206 35.471-8.54 37.986"/><path id="path4547" d="M341.707 289.855h-20.8l.39-1.312c1.37-.118 2.385-.507 3.047-1.169 2.148-2.224.936-4.238-5.21-23.954-6.127 21.213-8.96 25.025-.53 25.123l-.39 1.312h-23.352l.39-1.312c5.759-.146 6.566-2.036 8.327-8.256 8.344-28.876 9.461-32.292 9.461-34.088 0-2.502-2.937-3-5.35-3.083l.39-1.31h22.606l-.39 1.31c-6.564 0-6.545 4.012-11.161 20.269 16.862-15.477 17.15-15.34 17.15-17.398 0-1.866-1.568-2.628-3.402-2.87l.39-1.312h18.107l-.39 1.311c-7.285.618-11.371 5.35-22.82 15.627 8.548 26.71 8.643 29.494 13.926 29.8l-.39 1.312z"/><path id="path4549" d="M373.101 244.463l-5.35 18.639c8.144 0 12.581-.426 16.052-7.725h1.31l-5.385 18.71h-1.24c1.515-8.925-4.19-8.363-11.587-8.363-4.885 17.097-5.21 17.883-5.21 19.276 0 3.201 10.308 2.41 16.478-.531 3.567-1.725 6.768-4.323 9.602-7.796h1.453l-4.996 13.182h-41.104l.425-1.311c5.192 0 6.648-1.704 8.292-7.37 10.838-37.105 12.818-37.448 4.465-38.057l.39-1.312H395l-3.083 12.013h-1.275c-.4-9.973-8.2-9.355-17.54-9.355z"/></g><g id="text21-9"><path id="path4552" class="st0" d="M208.02 306.594l-3.23 11.25c4.87 0 7.583-.232 9.689-4.663h.791l-3.25 11.293h-.75c.908-5.34-2.53-5.048-6.993-5.048-3.195 11.184-3.674 11.79-2.674 12.427 1.012.632 9.132 1.704 15.271-5.818h.877l-3.015 7.957h-24.81l.256-.792c3.133 0 4.013-1.028 5.005-4.448 6.515-22.306 7.79-22.6 2.695-22.971l.235-.792h23.12l-1.86 7.25h-.77c-.24-6.014-4.838-5.645-10.587-5.645z"/><path id="path4554" class="st0" d="M242.476 333.992h-23.163l.235-.792c2.918 0 3.78-.923 4.79-4.406 6.21-21.464 7.837-22.778 2.674-23.013l.235-.791h13.924l-.235.79c-4.439.095-3.817 1.083-9.689 21.432-1.017 3.514-1.774 5.133 1.09 5.133 4.586 0 9.327-2.076 12.449-6.48h.898l-3.208 8.127z"/><path id="path4556" class="st0" d="M264.056 306.594l-3.23 11.25c4.87 0 7.583-.232 9.69-4.663h.79l-3.25 11.293h-.749c.872-5.137-2.067-5.048-6.994-5.048-3.187 11.157-3.673 11.79-2.673 12.427 1.011.632 9.13 1.704 15.27-5.818h.878l-3.016 7.957h-24.81l.257-.792c3.133 0 4.012-1.028 5.004-4.448 6.534-22.367 7.753-22.602 2.695-22.971l.236-.792h23.12l-1.86 7.25h-.77c-.241-6.014-4.839-5.645-10.588-5.645z"/><path id="path4558" class="st0" d="M303.624 333.992h-12.555l.235-.792c4.193-.361 2.244-3.78-1.304-15.164-3.753 12.988-5.418 15.105-.321 15.164l-.235.792h-14.095l.235-.792c3.476-.088 3.964-1.23 5.026-4.983 6.162-21.321 6.368-20.79 5.027-21.837-.442-.357-1.29-.556-2.546-.6l.236-.79h13.645l-.235.79c-4.158 0-4.102 2.954-6.737 12.235 9.482-8.704 11.564-9.93 9.88-11.614-.299-.314-.826-.52-1.582-.62l.235-.792h10.93l-.236.792c-4.363.37-6.874 3.238-13.773 9.432 5.247 16.397 5.232 17.803 8.405 17.987l-.235.792z"/><path id="path4560" class="st0" d="M313.034 304.99h23.335l-2.203 7.806h-.77c.255-3.702-1.016-5.69-5.668-5.946-7.56 25.559-9.034 26.237-3.636 26.35l-.192.791h-14.395l.257-.79c4.737 0 3.81-.33 11.507-26.35-4.69.15-7.358 2.006-9.689 5.945h-.834l2.288-7.807z"/><path id="path4562" class="st0" d="M345.373 319.833c-3.37 11.541-4.926 13.26.3 13.367l-.3.792h-13.966l.256-.792c3.016 0 3.877-1.05 4.855-4.449 6.45-22.266 7.719-22.6 2.695-22.97l.214-.791c12.314 0 16.641-.458 19.27 1.796 2.697 2.311 3.047 6.66-.341 9.988-1.027.998-2.845 1.861-5.454 2.588 3.965 13.36 3.577 13.716 7.036 13.838v.792h-9.026l-4.106-14.16c-.74.046-.71.064-1.433 0zm.3-1.284c9.838.562 10.803-11.891 4.512-11.891-.285 0-.62.007-1.005.022l-3.508 11.87z"/><path id="path4564" class="st0" d="M374.375 334.676c-13.898 0-12.618-19.512.043-27.462 13.28-8.362 25.135 2.76 15.656 17.773-4.84 7.635-9.824 9.689-15.699 9.689zm3.101-25.965c-3.867 4.319-6.266 14.347-6.266 18.971 0 7.329 8.618 8.482 13.367-5.368 6.051-17.53-2.4-18.852-7.1-13.603z"/></g><circle id="path846" class="st0" cx="251.158" cy="283.028" r="9.006"/><text transform="translate(17.441 372.723)" class="st0 st1 st2">Solarstromanlagen</text><text transform="translate(17.441 402.203)" class="st0 st1 st2">Solaranlagen</text><text transform="translate(17.441 431.684)" class="st0 st1 st2">Wärmepumpen</text><text transform="translate(208.65 370.719)" class="st3 st4">Planung und Ausführung</text><text transform="translate(208.65 390.76)" class="st3 st4">der Elektroarbeiten von</text><text transform="translate(208.65 410.803)" class="st3 st4">Kleinanlage bis zur</text><text transform="translate(208.65 430.844)" class="st3 st4">Industrieanlage</text><text transform="translate(11.826 475.48)" class="st1 st5">M</text><text transform="translate(24.84 475.48)" class="st1 st5">ü</text><text transform="translate(33.527 475.48)" class="st1 st5">h</text><text transform="translate(42.215 475.48)" class="st1 st5">l</text><text transform="translate(45.686 475.48)" class="st1 st5">s</text><text transform="translate(53.498 475.48)" class="st1 st5">t</text><text transform="translate(57.838 475.48)" class="st1 st5">e</text><text transform="translate(66.525 475.48)" class="st1 st5">i</text><text transform="translate(69.996 475.48)" class="st1 st5">g</text><text transform="translate(78.684 475.48)" class="st1 st5">w</text><text transform="translate(89.967 475.48)" class="st1 st5">e</text><text transform="translate(98.654 475.48)" class="st1 st5">g</text><text transform="translate(107.342 475.48)" class="st1 st5"></text><text transform="translate(111.682 475.48)" class="st1 st5">1</text><text transform="translate(120.371 475.48)" class="st1 st5"></text><text transform="translate(124.71 480.363)" class="st1 st6">•</text><text transform="translate(134.111 475.48)" class="st1 st5"></text><text transform="translate(138.451 475.48)" class="st1 st5">S</text><text transform="translate(148.871 475.48)" class="st1 st5">c</text><text transform="translate(156.682 475.48)" class="st1 st5">h</text><text transform="translate(165.37 475.48)" class="st1 st5">w</text><text transform="translate(176.65 475.48)" class="st1 st5">a</text><text transform="translate(185.338 475.48)" class="st1 st5">b</text><text transform="translate(194.027 475.48)" class="st1 st5">m</text><text transform="translate(207.04 475.48)" class="st1 st5">ü</text><text transform="translate(215.729 475.48)" class="st1 st5">n</text><text transform="translate(224.416 475.48)" class="st1 st5">c</text><text transform="translate(232.227 475.48)" class="st1 st5">h</text><text transform="translate(240.914 475.48)" class="st1 st5">e</text><text transform="translate(249.604 475.48)" class="st1 st5">n</text><text transform="translate(258.291 475.48)" class="st1 st5"></text><text transform="translate(262.63 480.363)" class="st1 st6">•</text><text transform="translate(272.031 475.48)" class="st1 st5"></text><text transform="translate(276.09 475.48)" class="st1 st5">T</text><text transform="translate(283.9 475.48)" class="st1 st5">e</text><text transform="translate(292.588 475.48)" class="st1 st5">l</text><text transform="translate(296.059 475.48)" class="st1 st5">.</text><text transform="translate(300.398 475.48)" class="st1 st5"></text><text transform="translate(304.74 475.48)" class="st1 st5">0</text><text transform="translate(313.428 475.48)" class="st1 st5">8</text><text transform="translate(322.115 475.48)" class="st1 st5">2</text><text transform="translate(330.803 475.48)" class="st1 st5">3</text><text transform="translate(339.492 475.48)" class="st1 st5">2</text><text transform="translate(348.18 475.48)" class="st1 st5">/</text><text transform="translate(352.52 475.48)" class="st1 st5">1</text><text transform="translate(361.207 475.48)" class="st1 st5">2</text><text transform="translate(369.896 475.48)" class="st1 st5">6</text><text transform="translate(378.584 475.48)" class="st1 st5">7</text><text transform="translate(6.846 494.338)" class="st1 st5">D</text><text transform="translate(18.127 494.338)" class="st1 st5">i</text><text transform="translate(21.598 494.338)" class="st1 st5">n</text><text transform="translate(30.285 494.338)" class="st1 st5">k</text><text transform="translate(38.096 494.338)" class="st1 st5">e</text><text transform="translate(46.783 494.338)" class="st1 st5">l</text><text transform="translate(50.254 494.338)" class="st1 st5">s</text><text transform="translate(58.066 494.338)" class="st1 st5">t</text><text transform="translate(62.406 494.338)" class="st1 st5">r</text><text transform="translate(67.607 494.338)" class="st1 st5">a</text><text transform="translate(76.297 494.338)" class="st1 st5">ß</text><text transform="translate(85.838 494.338)" class="st1 st5">e</text><text transform="translate(94.527 494.338)" class="st1 st5"></text><text transform="translate(98.867 494.338)" class="st1 st5">1</text><text transform="translate(107.555 494.338)" class="st1 st5">5</text><text transform="translate(116.242 494.338)" class="st1 st5"></text><text transform="translate(120.584 499.219)" class="st1 st6">•</text><text transform="translate(129.982 494.338)" class="st1 st5"></text><text transform="translate(134.324 494.338)" class="st1 st5">G</text><text transform="translate(146.475 494.338)" class="st1 st5">r</text><text transform="translate(151.676 494.338)" class="st1 st5">o</text><text transform="translate(160.365 494.338)" class="st1 st5">ß</text><text transform="translate(169.906 494.338)" class="st1 st5">a</text><text transform="translate(178.596 494.338)" class="st1 st5">i</text><text transform="translate(182.066 494.338)" class="st1 st5">t</text><text transform="translate(186.406 494.338)" class="st1 st5">i</text><text transform="translate(189.877 494.338)" class="st1 st5">n</text><text transform="translate(198.564 494.338)" class="st1 st5">g</text><text transform="translate(207.252 494.338)" class="st1 st5">e</text><text transform="translate(215.941 494.338)" class="st1 st5">n</text><text transform="translate(224.629 494.338)" class="st1 st5"></text><text transform="translate(228.969 499.219)" class="st1 st6">•</text><text transform="translate(238.37 494.338)" class="st1 st5"></text><text transform="translate(242.709 494.338)" class="st1 st5"></text><text transform="translate(247.049 494.338)" class="st1 st5"></text><text transform="translate(251.39 494.338)" class="st1 st5"></text><text transform="translate(255.73 494.338)" class="st1 st5"></text><text transform="translate(260.07 494.338)" class="st1 st5"></text><text transform="translate(264.41 494.338)" class="st1 st5"></text><text transform="translate(268.75 494.338)" class="st1 st5"></text><text transform="translate(273.092 494.338)" class="st1 st5">F</text><text transform="translate(282.633 494.338)" class="st1 st5">a</text><text transform="translate(291.322 494.338)" class="st1 st5">x</text><text transform="translate(299.133 494.338)" class="st1 st5"></text><text transform="translate(303.473 494.338)" class="st1 st5">0</text><text transform="translate(312.16 494.338)" class="st1 st5">8</text><text transform="translate(320.848 494.338)" class="st1 st5">2</text><text transform="translate(329.537 494.338)" class="st1 st5">3</text><text transform="translate(338.225 494.338)" class="st1 st5">2</text><text transform="translate(346.912 494.338)" class="st1 st5">/</text><text transform="translate(351.252 494.338)" class="st1 st5">7</text><text transform="translate(359.941 494.338)" class="st1 st5">8</text><text transform="translate(368.629 494.338)" class="st1 st5">1</text><text transform="translate(377.316 494.338)" class="st1 st5">9</text><text transform="translate(386.006 494.338)" class="st1 st5">6</text><path id="rect896" class="st0" d="M5 362.488h5.835v5.835H5z"/><path id="rect898" class="st0" d="M5 391.779h5.835v5.835H5z"/><path id="rect900" class="st0" d="M5 421.438h5.835v5.835H5z"/></g></svg>