<svg xmlns="http://www.w3.org/2000/svg" width="400" height="300" viewBox="0 0 300 224.99998"><defs><clipPath id="a"><path d="M36 126h199v222H36zm0 0"/></clipPath><clipPath id="b"><path d="M787 156h20.328v162H787zm0 0"/></clipPath><clipPath id="c"><path d="M778 394h28v43.3h-28zm0 0"/></clipPath><clipPath id="d"><path d="M536 52.3h32V107h-32zm0 0"/></clipPath><clipPath id="e"><path d="M692 52.3h29V106h-29zm0 0"/></clipPath></defs><path d="M67.706 76.714c-1.359 17.577-16.698 28.201-31.24 28.201-17.654 0-31.718-14.3-31.718-30.598 0-15.339 12.704-30.6 31.64-30.6 15.659 0 25.644 10.786 27.962 16.778H57.48C54.124 54.663 46.293 49.07 36.466 49.07c-14.939 0-25.804 12.144-25.804 25.326 0 13.18 10.865 25.166 26.046 25.166 12.542 0 21.81-9.267 23.886-17.496H27.599v-5.353zm0 0" fill="#6e6b6e"/><g clip-path="url(#a)" transform="matrix(.37922 0 0 .37922 -9.902 -15.708)"><path d="M204.652 243.719c-3.582 46.351-44.03 74.367-82.379 74.367-46.554 0-83.64-37.707-83.64-80.688 0-40.449 33.5-80.691 83.433-80.691 41.293 0 67.625 28.441 73.739 44.242h-18.121c-8.848-15.379-29.496-30.125-55.41-30.125-39.395 0-68.047 32.024-68.047 66.785 0 34.758 28.652 66.364 68.683 66.364 33.074 0 57.516-24.438 62.988-46.137H98.891v-14.117zm0 0" fill="none" stroke="#6e6b6e" stroke-width="5.267"/></g><path d="M114.857 67.35c3.401 4.068 5.42 9.247 5.42 14.637 0 11.904-9.825 22.928-22.929 22.928-12.784 0-22.77-10.785-22.77-22.608 0-11.064 7.216-19.312 15.998-22.163l-4.26 8.21c-3.587 3.09-6.145 7.786-6.145 13.872 0 10.147 8.229 17.657 17.257 17.657 8.47 0 17.258-6.71 17.258-18.136 0-3.491-.898-6.49-2.357-8.972zm0 0" fill="#6e6b6e" stroke="#6e6b6e" stroke-width="1.99735174"/><path d="M151.438 64.09c-10.065 0-17.495 8.39-17.495 17.977 0 10.227 8.067 17.816 17.495 17.816 10.706 0 17.896-7.99 17.896-17.736 0-11.105-8.31-18.057-17.896-18.057m-22.77-3.914h5.595v7.67h.158c5.034-7.191 12.305-8.79 17.017-8.79 14.302 0 23.488 11.187 23.488 22.85 0 12.544-9.746 23.009-23.488 23.009-4.553 0-12.142-1.597-17.017-8.707h-.158v23.01h-5.595zm0 0" fill="#6e6b6e"/><path d="M151.438 64.09c-10.065 0-17.495 8.39-17.495 17.977 0 10.227 8.067 17.816 17.495 17.816 10.706 0 17.896-7.99 17.896-17.736 0-11.105-8.31-18.057-17.896-18.057zm-22.77-3.914h5.595v7.67h.158c5.034-7.191 12.305-8.79 17.017-8.79 14.302 0 23.488 11.187 23.488 22.85 0 12.544-9.746 23.009-23.488 23.009-4.553 0-12.142-1.597-17.017-8.707h-.158v23.01h-5.595zm0 0" fill="none" stroke="#6e6b6e" stroke-width="1.99735174"/><path d="M205.927 64.09c-10.064 0-17.497 8.39-17.497 17.977 0 10.227 8.068 17.816 17.497 17.816 10.704 0 17.897-7.99 17.897-17.736 0-11.105-8.311-18.057-17.897-18.057m-22.77-3.914h5.594v7.67h.159c5.032-7.191 12.303-8.79 17.017-8.79 14.302 0 23.488 11.187 23.488 22.85 0 12.544-9.746 23.009-23.488 23.009-4.555 0-12.144-1.597-17.017-8.707h-.159v23.01h-5.593zm0 0" fill="#6e6b6e"/><path d="M205.927 64.09c-10.064 0-17.497 8.39-17.497 17.977 0 10.227 8.068 17.816 17.497 17.816 10.704 0 17.897-7.99 17.897-17.736 0-11.105-8.311-18.057-17.897-18.057zm-22.77-3.914h5.594v7.67h.159c5.032-7.191 12.303-8.79 17.017-8.79 14.302 0 23.488 11.187 23.488 22.85 0 12.544-9.746 23.009-23.488 23.009-4.555 0-12.144-1.597-17.017-8.707h-.159v23.01h-5.593zm0 0" fill="none" stroke="#6e6b6e" stroke-width="1.99735174"/><path d="M275.436 79.03c-1.758-10.305-10.145-14.94-17.097-14.94-6.87 0-15.42 4.635-17.018 14.94zm-34.115 5.034c.4 8.55 8.39 15.819 16.94 15.819 7.99-.159 13.661-4.874 15.66-10.307h5.91c-3.037 8.71-11.425 15.339-21.492 15.339-12.224 0-22.768-9.906-22.768-22.848 0-12.384 9.984-22.77 22.69-23.01 9.586.08 16.377 5.753 19.493 11.185 2.956 4.713 3.594 9.588 3.354 13.822zm0 0" fill="#6e6b6e" stroke="#6e6b6e" stroke-width="1.99735174"/><path d="M289.657 44.757h5.595v59.121h-5.595zm0 0" fill="#6e6b6e"/><g clip-path="url(#b)" transform="matrix(.37922 0 0 .37922 -9.902 -15.708)"><path d="M789.941 159.45h14.754v155.902h-14.754zm0 0" fill="none" stroke="#6e6b6e" stroke-width="5.267"/></g><path d="M106.475 36.001h6.242L92.325 75.783h-6.574zm0 0M115.712 35.918h10.903l-18.892 39.948h-12.15zm0 0" fill="#0f4f8c"/><path d="M142.32 149.825v-13.321h-.063l-5.307 13.321h-1.387l-5.328-13.321h-.043v13.321h-2.3v-15.773h3.621l4.733 12.086 4.752-12.086h3.625v15.773zm0 0M154.927 149.825v-15.773h8.506v2.11h-6.204v4.648h6.204v2.11h-6.204v4.796h6.204v2.11zm0 0M175.147 149.825v-13.663h-3.028v-2.11h8.356v2.11h-3.026v13.663zm0 0M196.8 143.068l-2.004-6.032h-.044l-2.025 6.032zm2.534 6.757l-1.748-4.646h-5.67l-1.747 4.646h-2.43l5.99-15.773h2.067l5.99 15.773zm0 0M211.069 149.825v-15.773h2.303v13.664h5.478v2.11zm0 0M227.88 149.825v-15.773h2.302v13.664h5.476v2.11zm0 0M246.907 147.716h2.494c2.324 0 2.855-1.663 2.855-2.474 0-.576-.235-1.13-.554-1.557-.703-.936-1.77-.958-2.577-.958h-2.218zm0-7.1h1.876c2.152 0 2.536-1.299 2.536-2.216 0-2.238-2.154-2.238-2.665-2.238h-1.747zm-2.301-6.564h4.09c4.457 0 4.925 3.26 4.925 4.37 0 1.747-.874 2.514-1.407 2.984.66.382 2.344 1.385 2.344 3.836 0 1.62-.894 4.583-5.243 4.583h-4.71zm0 0M271.84 143.068l-2.003-6.032h-.042l-2.025 6.032zm2.537 6.757l-1.747-4.646h-5.67l-1.746 4.646h-2.431l5.989-15.773h2.068l5.988 15.773zm0 0" fill="#6e6b6e"/><g clip-path="url(#c)" transform="matrix(.37922 0 0 .37922 -9.902 -15.708)"><path d="M805.902 423.078c0 4.723-1.578 8.156-4.215 10.684-2.59 2.133-5.902 3.539-9.726 3.539-3.824 0-7.133-1.406-9.719-3.54-2.644-2.527-4.219-5.96-4.219-10.683v-28.156h6.07v27.988c0 7.7 5.626 8.828 7.868 8.828 2.25 0 7.871-1.129 7.871-8.828v-27.988h6.07zm0 0" fill="#6e6b6e"/></g><path d="M4.957 5.52h9.18v1.61H6.809v6.684h6.952v1.61H6.809v7.22h7.65v1.612H4.956zm0 0M20.071 22.646h1.53c5.314 0 8.777-2.148 8.777-7.893 0-5.716-3.41-7.62-7.596-7.62h-2.71zM18.218 5.52h4.644c6.71 0 9.368 3.865 9.368 9.342 0 6.79-4.536 9.394-10.737 9.394h-3.275zm0 0M36.124 5.52h1.852v17.124h7.516v1.612h-9.368zm0 0M48.204 5.52h9.18v1.61h-7.327v6.684h6.95v1.61h-6.95v7.22h7.65v1.612h-9.503zm0 0M63.533 13.814h1.958c2.175 0 4.672-.832 4.672-3.435 0-3.06-2.174-3.247-4.725-3.247h-1.905zM61.68 5.52h4.83c3.33 0 5.504 1.424 5.504 4.86 0 2.415-1.852 4.025-4.161 4.32v.053c1.503.189 1.825.994 2.416 2.255l3.194 7.248h-2.04l-2.711-6.334c-1.074-2.416-1.878-2.498-3.651-2.498h-1.53v8.832h-1.85zm0 0M84.096 21.867c1.101.697 2.39 1.1 4.135 1.1 2.308 0 4.213-1.18 4.213-3.838 0-3.676-8.59-4.134-8.59-9.046 0-3.006 2.632-4.884 5.934-4.884.912 0 2.389.133 3.676.618l-.295 1.69c-.832-.456-2.147-.698-3.41-.698-1.931 0-4.05.806-4.05 3.22 0 3.759 8.588 3.785 8.588 9.262 0 3.784-3.249 5.286-6.148 5.286-1.825 0-3.247-.376-4.24-.804zm0 0M101.518 7.13h-5.53V5.52H108.9v1.61h-5.53v17.126h-1.85zm0 0M116.26 7.292l-4.08 10.334h8.133zm-.912-1.772h2.093l7.434 18.736h-1.931l-2.013-5.02h-9.45l-2.011 5.02h-1.8zm0 0M127.59 5.52h1.85v8.294h9.475V5.52h1.855v18.736h-1.855v-8.832h-9.474v8.832h-1.852zm0 0M145.279 5.52h1.853v17.124h7.515v1.612h-9.368zm0 0M175.319 21.034c0 1.047 0 2.121.106 3.222h-1.637v-2.443h-.053c-.563 1.234-1.585 2.764-4.43 2.764-3.38 0-4.671-2.254-4.671-5.26v-8.75h1.692v8.32c0 2.577.912 4.242 3.248 4.242 3.086 0 4.053-2.711 4.053-4.994v-7.568h1.692zm0 0M179.561 13.788c0-1.048 0-2.12-.107-3.22h1.637v2.442h.054c.564-1.236 1.583-2.766 4.429-2.766 3.382 0 4.67 2.255 4.67 5.262v8.75h-1.691v-8.32c0-2.578-.911-4.243-3.247-4.243-3.087 0-4.055 2.712-4.055 4.994v7.569h-1.69zm0 0" fill="#0f4f8c"/><g clip-path="url(#d)" transform="matrix(.37922 0 0 .37922 -9.902 -15.708)"><path d="M552.426 102.414c7.93 0 10.687-8.496 10.687-15.078 0-6.582-2.758-15.078-10.687-15.078-8.496 0-10.688 8.07-10.688 15.078 0 7.008 2.192 15.078 10.688 15.078m15.148 2.973h-4.46v-5.735h-.141c-2.403 4.602-6.086 6.582-11.254 6.582-9.91 0-14.864-8.21-14.864-18.898 0-10.969 4.25-18.898 14.864-18.898 7.078 0 10.62 5.167 11.254 6.937h.14V52.301h4.461zm0 0" fill="#0f4f8c"/></g><path d="M233.41 24.256v-9.1c0-1.933-.725-3.461-2.9-3.461-1.85 0-3.677 1.583-3.677 4.992v7.569h-1.689v-9.1c0-1.933-.726-3.461-2.9-3.461-1.852 0-3.678 1.583-3.678 4.992v7.569h-1.69V13.788c0-1.048 0-2.12-.107-3.22h1.637v2.307l.053.027c.538-.94 1.342-2.658 4.268-2.658 1.208 0 3.193.511 3.624 2.9h.054c.617-1.611 2.228-2.9 4.374-2.9 2.764 0 4.322 1.933 4.322 4.59v9.422zm0 0M247.586 16.445c0-2.39-.966-4.752-3.489-4.752-2.496 0-4.026 2.498-4.026 4.752zm.832 7.381c-1.18.483-2.71.751-3.971.751-4.536 0-6.229-3.06-6.229-7.166 0-4.188 2.31-7.167 5.771-7.167 3.865 0 5.45 3.114 5.45 6.79v.86h-9.368c0 2.899 1.557 5.235 4.508 5.235 1.237 0 3.034-.51 3.84-1.02zm0 0" fill="#0f4f8c"/><g clip-path="url(#e)" transform="matrix(.37922 0 0 .37922 -9.902 -15.708)"><path d="M692.387 52.3h4.457v23.075h.14c1.914-3.965 5.946-6.938 11.254-6.938 9.7 0 12.317 6.442 12.317 15.36v21.59h-4.457v-21.52c0-6.226-1.207-11.605-8.567-11.605-7.93 0-10.687 7.5-10.687 13.8v19.325h-4.457zm0 0" fill="#0f4f8c"/></g><path d="M267.588 13.626c0-1.502 0-2.066-.107-3.059h1.69v2.63h.054c.616-1.53 1.772-2.953 3.517-2.953.402 0 .885.08 1.18.162v1.771c-.35-.108-.804-.161-1.235-.161-2.684 0-3.409 3.006-3.409 5.476v6.764h-1.69zm0 0M278.593 22.001h2.174v2.255h-2.174zm0 0M286.057 22.001h2.175v2.255h-2.175zm0 0M293.518 22.001h2.175v2.255h-2.175zm0 0" fill="#0f4f8c"/><text style="line-height:0%" x="3.999" y="204.861" font-weight="400" font-size="10.969" font-family="sans-serif" letter-spacing="0" word-spacing="0" fill="#6e6b6e" stroke-width=".914"><tspan x="3.999" y="204.861" style="line-height:1.25" font-size="12.797">Ährenstrasse 18</tspan><tspan x="3.999" y="220.857" style="line-height:1.25" font-size="12.797">86845 Grossaitingen</tspan></text><text style="line-height:0%" x="148.937" y="193.813" font-weight="400" font-size="10.969" font-family="sans-serif" letter-spacing="0" word-spacing="0" fill="#6e6b6e" stroke-width=".914"><tspan x="148.937" y="193.813" style="line-height:1.25">Tel.: +49 8203.95990-0</tspan><tspan x="148.937" y="207.524" style="line-height:1.25">Fax: +49 8203.95990-16</tspan><tspan x="148.937" y="221.234" style="line-height:1.25">E-mail: info@a-goeppel.de</tspan></text></svg>