<svg xmlns="http://www.w3.org/2000/svg" xmlns:xlink="http://www.w3.org/1999/xlink" width="400" height="300" viewBox="0 0 400 300"><g transform="matrix(5.40387 0 0 5.40535 -88.42 -1193.805)" stroke-width=".747"><g transform="translate(-11.226 131.309)" stroke-width=".198"><text style="line-height:125%;-inkscape-font-specification:Arial" x="-.1" font-weight="400" font-size="3.638" font-family="Arial" letter-spacing="0" word-spacing="0" fill="#289c28"><textPath xlink:href="#a"><tspan style="-inkscape-font-specification:'Times New Roman, '" font-size="3.175" font-family="Times New Roman">aus eigener Schlachtung und Herstellung</tspan></textPath></text><path d="M39.556 117.662c17.458 6.536 33.257 6.657 50.046 0" id="a" fill="none" fill-rule="evenodd"/></g><ellipse cx="53.247" cy="238.555" rx="35.955" ry="16.962" fill="none" stroke="#000" stroke-width=".189" stroke-linecap="round" stroke-linejoin="round"/><text style="line-height:125%;-inkscape-font-specification:Arial" x="36.541" y="237.805" font-weight="400" font-size="3.638" font-family="Arial" letter-spacing="0" word-spacing="0" fill="#259a25" stroke-width=".198"><tspan x="36.541" y="237.805" style="-inkscape-font-specification:'Times New Roman, Bold'" font-weight="700" font-size="3.881" font-family="Times New Roman" letter-spacing=".108">Feinkost - Metzgerei</tspan></text><path d="M28.122 249.198c17.458 6.535 33.257 6.656 50.046 0" fill="none"/><path style="line-height:125%;-inkscape-font-specification:'Times New Roman, Bold'" d="M28.035 233.48v2.387q0 .591.063.719.068.125.255.178.194.044.518-.061l.256-.084v.21l-4.03 1.318v-.21l.255-.084q.336-.11.54-.296.148-.128.228-.347.062-.157.062-.737v-5.07q0-.592-.062-.719-.063-.127-.256-.172-.188-.053-.512.053l-.256.084v-.21l4.03-1.318v.21l-.255.084q-.336.11-.54.296-.148.128-.233.35-.063.156-.063.736v2.183l2.723-.89v-2.183q0-.591-.062-.718-.063-.128-.256-.173-.194-.05-.518.056l-.25.081v-.21l4.025-1.315v.21l-.25.082q-.341.111-.54.296-.148.128-.233.349-.063.157-.063.737v5.07q0 .591.063.719.062.127.256.177.193.045.517-.06l.25-.082v.21l-4.025 1.315v-.21l.25-.082q.342-.111.54-.296.148-.128.234-.349.062-.157.062-.736v-2.388zM38.398 226.624q1.842-.558 2.99.28 1.154.836 1.154 2.553 0 1.466-.859 2.809-1.136 1.78-3.211 2.33-2.08.553-3.218-.555-.898-.876-.898-2.405 0-1.717 1.166-3.169 1.17-1.459 2.876-1.843zm.068.345q-1.057.281-1.609 1.507-.449 1.006-.449 2.666 0 1.973.694 2.732.483.531 1.353.3.585-.155.977-.543.5-.497.78-1.367.278-.875.278-2.16 0-1.529-.284-2.21-.285-.686-.728-.88-.438-.197-1.012-.045zm1.052-2.809q.318-.084.534.08.222.163.222.476 0 .312-.222.593-.222.28-.534.364-.313.083-.535-.08-.221-.163-.221-.476 0-.312.221-.593.222-.28.535-.364zm-2.126.565q.318-.085.534.08.222.163.222.475 0 .313-.222.593-.222.281-.534.364-.313.083-.535-.08-.221-.163-.221-.475 0-.313.221-.593.222-.281.535-.364zM46.043 229.624v2.16q0 .625.074.784.08.153.273.234.193.082.722.04v.21l-3.945.31v-.21q.534-.042.722-.153.193-.118.267-.283.08-.165.08-.79v-5.003q0-.625-.08-.778-.074-.16-.267-.24-.193-.082-.722-.04v-.211l3.581-.28q1.399-.11 2.047.032.648.143 1.057.634.41.485.41 1.184 0 .853-.615 1.458-.392.383-1.097.614l1.853 2.464q.364.478.518.59.233.159.54.152v.21l-2.428.19-2.484-3.318zm0-3.78v3.376l.324-.025q.79-.062 1.183-.235.392-.179.614-.571.227-.399.227-1.007 0-.881-.415-1.27-.41-.388-1.324-.316zM62.494 225.34v.211q-.216.01-.364.106-.148.097-.261.303-.034.067-.358.868l-2.416 6.272-.222-.008-1.91-5.038-2.103 4.89-.21-.008-2.536-6.385q-.386-.964-.54-1.169-.153-.204-.517-.252v-.21l3.342.123v.21q-.403-.004-.54.105-.13.104-.13.269 0 .216.278.925l1.512 3.796 1.211-2.877-.318-.83q-.262-.68-.404-.908-.142-.232-.33-.336-.181-.103-.54-.116v-.21l3.735.137v.21q-.392-.009-.563.042-.119.035-.187.13-.068.088-.068.207 0 .13.255.811l1.404 3.701 1.257-3.256q.199-.505.244-.69.046-.187.046-.346 0-.233-.16-.37-.159-.142-.608-.17v-.21zM67.089 233.574v.21l-4.03-.583v-.21l.255.036q.336.049.54-.04.148-.059.228-.24.062-.128.062-.708v-5.07q0-.592-.062-.748-.063-.157-.256-.293-.188-.141-.512-.188l-.256-.037v-.21l4.03.583v.21l-.255-.037q-.336-.048-.54.041-.148.059-.233.24-.063.127-.063.707v5.07q0 .591.063.748.068.158.255.299.194.136.518.183zM74.488 227.44v2.671l-.208-.054q-.234-1.108-.875-1.832-.64-.725-1.45-.937-.679-.177-1.244.09-.566.267-.827.869-.336.77-.336 1.822 0 1.034.245 1.951.246.912.769 1.486.522.569 1.355.787.683.178 1.248.008.571-.17 1.2-.783v.665q-.608.517-1.27.65-.655.13-1.536-.1-1.158-.303-2.06-1.033-.896-.73-1.386-1.784-.486-1.054-.486-2.1 0-1.103.539-1.95.544-.847 1.462-1.153.923-.304 1.958-.033.763.2 1.611.774.491.333.624.368.171.044.294-.054.128-.103.165-.383zM80.003 232.232l2.712 4.284q.574.904.989 1.296.301.281.636.391v.21l-4.013-1.317v-.21q.381.091.489.041.114-.048.114-.173 0-.239-.523-1.07l-1.768-2.802-.284.145v2.103q0 .603.068.773.068.17.261.342.194.165.62.305v.21l-3.888-1.276v-.21l.256.084q.335.11.54.058.147-.031.227-.198.063-.116.063-.696v-5.07q0-.592-.063-.76-.062-.168-.256-.34-.187-.175-.511-.281l-.256-.084v-.21l3.837 1.259v.21q-.392-.129-.597-.082-.148.031-.233.19-.068.12-.068.706v2.399l2.859-1.375q.597-.288.597-.578 0-.216-.245-.42-.125-.105-.62-.284v-.21l3.008.987v.21q-.404-.104-.637-.061-.227.039-1.057.437z" font-weight="700" font-size="11.642" font-family="Times New Roman" letter-spacing="0" word-spacing="0" fill="#fa0100"/><text style="line-height:125%;-inkscape-font-specification:Arial" x="40.956" y="240.974" font-weight="400" font-size="3.638" font-family="Arial" letter-spacing="0" word-spacing="0" fill="#fa0100" stroke-width=".198"><tspan x="40.956" y="240.974" style="-inkscape-font-specification:'Times New Roman, Italic'" font-style="italic" font-size="3.104" font-family="Times New Roman">Imbiß &amp; Partyservice</tspan></text><text y="243.835" x="37.254" style="line-height:125%;-inkscape-font-specification:Arial" font-weight="400" font-size="3.638" font-family="Arial" letter-spacing="0" word-spacing="0" fill="#fa0100" stroke-width=".198"><tspan style="-inkscape-font-specification:'Times New Roman, Italic'" y="243.835" x="37.254" font-style="italic" font-size="3.104" font-family="Times New Roman">Individuelle Geschenkideen</tspan></text><text style="line-height:125%;-inkscape-font-specification:Arial" x="36.207" y="246.385" font-weight="400" font-size="3.638" font-family="Arial" letter-spacing="0" word-spacing="0" fill="#fa0100" stroke-width=".198"><tspan x="36.207" y="246.385" style="-inkscape-font-specification:'Times New Roman, Italic'" font-style="italic" font-size="3.104" font-family="Times New Roman">Hausmacher Wurstkonserven</tspan></text></g><text style="line-height:125%;-inkscape-font-specification:Arial" x="10.588" y="439.537" transform="matrix(.99989 0 0 1.00011 0 -217.625)" font-weight="400" font-size="25.253" font-family="Arial" letter-spacing="0" word-spacing="0" stroke-width="1.068"><tspan x="10.588" y="439.537" style="-inkscape-font-specification:'Times New Roman, '" font-family="Times New Roman">Feinkost-Metzgerei Herbert Hörwick</tspan><tspan x="10.588" y="471.102" style="-inkscape-font-specification:'Times New Roman, '" font-family="Times New Roman">Kapellenweg 8 ■ 86866 Mickhausen</tspan><tspan x="10.588" y="502.668" style="-inkscape-font-specification:'Times New Roman, '" font-family="Times New Roman">Telefon: (08204) 10 05</tspan></text></svg>