<svg xmlns="http://www.w3.org/2000/svg" id="Ebene_1" viewBox="0 0 400 300" width="400" height="300"><style id="style2">.st0{fill:#fefefe}.st1{fill:#d3b2af}.st2{fill:#bf918f}.st3{fill:#ac6e70}.st4{fill:#be8d8b}.st5{fill:#8d3047}.st6{fill:#ac6f71}.st7{fill:#a3596b}.st8{fill:#9e515e}.st9{fill:#9d4d5f}.st10{fill:#f2e8eb}.st11{fill:#9a475c}.st12{fill:#90364b}.st13{fill:#9b4e5a}.st14{fill:#a25868}.st15{fill:#963f54}.st16{fill:#a76072}.st17{fill:#a86370}.st18{fill:#a05663}.st19{fill:#a86173}.st20{fill:#8e3249}.st21{fill:#eee0e3}.st22{fill:#8e3248}.st23{fill:#923a4f}.st24{fill:#9b495d}.st25{fill:#a45a6c}.st26{fill:#943d52}.st27{fill:#ac6976}.st28{fill:#ad6a79}.st29{fill:#92394f}.st30{fill:#8f354a}.st31{fill:#aa6674}.st32{fill:#9a485c}.st33{fill:#933c51}.st34{fill:#8f344a}.st35{fill:#9d4d61}.st36{fill:#f6f0f1}.st37{fill:#b67c82}.st38{fill:#f8f3f4}.st39{fill:#f7f1f3}.st40{fill:#b67b87}.st41{fill:#9e535e}.st42{fill:#f2e9eb}</style><g id="g4721" transform="matrix(1.15499 0 0 1.15499 -121.224 -333.782)"><path id="path6" d="M174.108 356.555c.09-1.485.151-3.001.242-4.486-1.182-3.153-1.212-6.305.273-9.397.97-1.394 2.334-2.152 4.001-2.304 8.397 1.85 17.005 2.759 25.371 4.85 1.85.88 3.79 1.455 5.911 1.273 1.698-.06 3.425-.515 5.123-.03 2.85 1.667 5.305 3.698 6.244 7.063.152 2.607-.667 5.335.243 7.85 2.94 8.306.273 16.005-2.213 23.735-.697 1.455-1.637 2.758-2.668 4.001-.727.91-1.121 1.97-1.212 3.152a4.254 4.254 0 0 1-1.273 2.304 3.07 3.07 0 0 1-1.698.485c-2.576-1.182-5.365 1.425-7.911-.485l-2.94-.182c-1.85-1.243-4.092-1.606-6.032-2.698-2.82 2.183-5.608.485-8.366-.151-2.91-2.183-6.881-1.85-9.7-4.183-2.759-2.183.454-6.578-3.153-8.427-1.485-1.637-1.303-3.486-.758-5.395-.12-2.577.637-5.184-.545-7.7.424-1 .849-2 1.303-3-.848-2.062.546-4.214-.242-6.275z" class="st1" fill="#d3b2af" stroke-width=".303"/><path id="path8" d="M119.455 394.536c-2.364-1.789-4.395-3.79-4.425-7.063.03-2.455.788-5.062-1.03-7.244-3.002-3.79-3.669-8.185-3.184-12.853-1.333-2.485-.97-4.547 1.455-6.123l-.212-.03c3.88-2.88 8.67-2.789 13.034-4.032 2.577-.606 5.153-.606 7.76-.242 3.395 1 6.7-2.516 10.124-.212 1 1.091 1.425 2.455 1.94 3.82 4.183 8.274 5.396 17.338 7.215 26.28.06 2-.637 3.637-2.274 4.85l-.606.06-.606-.03c-2.547 2.243-6.275.91-8.912 2.85l-.637.06h-.636c-6.366 1.06-12.7 4.516-19.006-.091z" class="st2" fill="#bf918f" stroke-width=".303"/><path id="path10" d="M217.575 385.988c1.728-8.73 5.668-17.278 1.637-26.463-.91-2.091-.212-4.759 1.334-6.85.424-2.455 2.425-3.79 3.88-5.517 2.637-2.758 5.365-5.092 9.427-5.79 4.152-.697 5.547-4.819 7.941-7.638.607-.394 1.243-.455 1.88-.152l-.121.546c1.424 2.667 1.94 5.699 3.304 8.396-.122 2.88-2.607 5.73-.182 8.67 2.152 2 1.455 4 .06 6.032-3.395 2.576-.273 5.517-.424 8.275-.06 2.516-.88 4.94-1.122 7.426.243.334.243.637.03.97.637 2.031-.363 3.94-.515 5.911-1 2.577-3.334 4.032-5.001 6.063-2.82-.152-4.486 1.91-6.457 3.395-2.243.454-4.577-.334-6.76.545-1 .152-1.97.303-2.97.455-1.606-.03-3.213-.06-4.668-.97-1.03-.819-1.758-1.819-1.273-3.304z" class="st3" fill="#ac6e70" stroke-width=".303"/><path id="path12" d="M242.219 333.82c-.97 5.305-3.547 9.458-9.397 9.458-4.122.03-4.88 4.365-8.184 5.123-3.668 2.728-6.638.303-9.7-1.364-1.546.364-3.062.727-4.607 1.121-1.698-1.727-3.82-1.212-5.85-1.09-8.458-2.608-17.794-1.395-25.826-5.912-.91-.97-.88-1.94 0-2.91 3.728-4.425 9.578-3.122 14.155-5.213 1.304-3.668 4.91-2.092 7.305-3.244 3.638-1.121 6.912-4.728 11.186-1.697 3.273-1.88 6.79-.06 10.124-.637 2.728.364 4.97 2.456 7.911 2.122 1.395 0 2.759.03 4.153.03 2.486 1.91 6.184.213 8.396 2.88.243-.242.485-.242.758-.03.152.545-.03 1-.424 1.364z" class="st4" fill="#be8d8b" stroke-width=".303"/><path id="path14" d="M151.222 387.322c-1.758-6.518-3.758-13.004-5.123-19.612-.575-2.698-1.667-4.729-3.516-6.548 1.667-1.485 1.152-3.364.91-5.213 2.546-5.366 8.457-6.942 12.185-10.973 3.274-.091 4.517 1.849 5.123 4.789 1.121 5.396 2.03 10.882 3.82 16.065 3.727 10.822.15 18.582-9.064 24.401-1.698-.545-3.183-1.454-4.335-2.91z" class="st5" fill="#8d3047" stroke-width=".303"/><path id="path16" d="M155.678 344.976c.273 4.092-3.486 4.759-5.76 6.608-2.03 1.667-4.485 2.788-5.82 5.244-.333.576-.818.667-1.363.303-3.334-1.789-5.365 3.97-8.79 1.546-2.85-1.516-5.76-1.395-8.67-.182-4.183 1.94-8.578 2.91-13.216 2.698 2.82-6.7 9.7-8.76 14.792-12.853 3.82-.848 7.79-.485 11.58-1.667 3.789-1.394 6.577-5.76 11.488-3.94 1.667.94 3.577.848 5.365 1.242.394.243.546.546.394 1z" class="st6" fill="#ac6f71" stroke-width=".303"/><path id="path18" d="M119.455 394.536c6.305 3 12.64-.758 18.945.06-6.487 4.396-14.913 4.396-18.945-.06z" class="st7" fill="#a3596b" stroke-width=".303"/><path id="path20" d="M246.493 342.611c-5.002-1.424-2-5.607-2.91-8.457 2.789 1.546 4.334 3.79 4.122 7.063-.212.667-.606 1.122-1.212 1.394z" class="st8" fill="#9e515e" stroke-width=".303"/><path id="path22" d="M177.503 387.352c3.486.818 7.547.273 9.7 4.183-3.214-1.455-8.397 1.697-9.7-4.183z" class="st9" fill="#9d4d5f" stroke-width=".303"/><path id="path24" d="M151.222 387.322c2.759-.97 4.244-.03 4.335 2.94-1.516 2.152-3.395 2.728-5.76 1.424.486-1.455.97-2.91 1.425-4.364z" class="st10" fill="#f2e8eb" stroke-width=".303"/><path id="path26" d="M175.684 342.702c-1.85 2.91-.91 6.245-1.334 9.367-2.97-4.79-3.304-9.367 1.061-13.58 1.485 1.303.243 2.789.273 4.213z" class="st11" fill="#9a475c" stroke-width=".303"/><path id="path28" d="M245.16 365.71c1.454-2.638-4.487-6.7 1.606-8.428-1.183 3.82 1.788 7.7-.152 11.519-1.152-.697-.485-2.273-1.455-3.092z" class="st12" fill="#90364b" stroke-width=".303"/><path id="path30" d="M138.4 346.703c-3.546 2.638-7.578 1.94-11.579 1.668 3.516-3.092 7.608-2.062 11.58-1.668z" class="st13" fill="#9b4e5a" stroke-width=".303"/><path id="path32" d="M219.333 388.807c1.576 0 3.244-.212 4.153 1.546-1 2.152-1.455 4.789-4.426 5.304a3.545 3.545 0 0 1-1.03-1.364c-.243-.848-.303-1.697-.273-2.576.03-.576.152-1.152.333-1.728.304-.546.698-.94 1.243-1.182z" class="st14" fill="#a25868" stroke-width=".303"/><path id="path34" d="M223.425 328.213c-4.031-.03-8.032-.09-12.064-.121 3.638-4.577 8.033-.849 12.064-1.03.425.242.546.515.425.757-.152.273-.303.394-.425.394z" class="st15" fill="#963f54" stroke-width=".303"/><path id="path36" d="M243.643 380.138c-.272-2.274.637-4.214 1.607-6.154.97 2.85 3.031 5.76-.273 8.488-1.182-.364-1.849-1-1.334-2.334z" class="st16" fill="#a76072" stroke-width=".303"/><path id="path38" d="M114 380.198c4.455 1.819 2.818 4.517 1.03 7.245-1.758-2.183-.728-4.82-1.03-7.245z" class="st17" fill="#a86370" stroke-width=".303"/><path id="path40" d="M139.704 394.536c2.303-3.062 5.607-2.97 8.911-2.85-1.788 4.638-5.85 2.183-8.911 2.85z" class="st18" fill="#a05663" stroke-width=".303"/><path id="path42" d="M243.643 380.138c.455.788.91 1.546 1.334 2.334-1.788 1.667-3.092 3.94-5.76 4.516 0-.303-.03-.576-.03-.879.304-2.88 2.85-4.062 4.456-5.971z" class="st19" fill="#a86173" stroke-width=".303"/><path id="path44" d="M241.946 332.487c-2.698-1.273-6.366.303-8.396-2.88 3 .334 6.85-1.788 8.396 2.88z" class="st20" fill="#8e3249" stroke-width=".303"/><path id="path46" d="M175.684 342.702c-2.061-1.273-.424-2.788-.273-4.213 1.091-.273 2.092-1.667 3.274-.243v2.91l-3.001 1.546z" class="st21" fill="#eee0e3" stroke-width=".303"/><path id="path48" d="M246.493 342.611c.394-.454.788-.909 1.182-1.394 1.243 3.486-2.304 6.517-.97 10.003-3.092-2.789-1.243-5.699-.212-8.609z" class="st22" fill="#8e3248" stroke-width=".303"/><path id="path50" d="M204.541 394.536c2.91.333 5.941-2.455 8.79.273.273.303.364.606.243.879-.121.272-.212.424-.303.424-2.85-.758-6.244 1.455-8.73-1.576z" class="st23" fill="#923a4f" stroke-width=".303"/><path id="path52" d="M223.425 328.213a7.307 7.307 0 0 1 0-1.152c1.728 1.455 4.638.122 5.972 2.516-2.365 1.122-4.638 1.91-5.972-1.364z" class="st24" fill="#9b495d" stroke-width=".303"/><path id="path54" d="M112.271 361.223c-.91 1.94-1.849 3.88-1.455 6.123-1.758-2.577-5.547-5.608 1.455-6.123z" class="st25" fill="#a45a6c" stroke-width=".303"/><path id="path56" d="M239.218 386.11c-.03.302-.03.575.03.878-1.91.97-3.82 1.97-5.698 2.94-.485-.272-.637-.515-.485-.757.151-.243.333-.364.485-.364 1.303-2.122 2.243-5.002 5.668-2.698z" class="st26" fill="#943d52" stroke-width=".303"/><path id="path58" d="M174.108 356.555c2.788 2 1.06 4.183.242 6.335-2.03-2.061-2-4.183-.242-6.335z" class="st27" fill="#ac6976" stroke-width=".303"/><path id="path60" d="M174.29 372.863c0 2.03.03 4.031.03 6.062-4.94-1.06-2.607-3.668-1.303-6.062.454-.637.848-.607 1.273 0z" class="st28" fill="#ad6a79" stroke-width=".303"/><path id="path62" d="M200.176 329.82c-2.03 2.03-5.456.848-7.305 3.243.333-5.82 4.395-3.213 7.305-3.243z" class="st29" fill="#92394f" stroke-width=".303"/><path id="path64" d="M245.16 365.71c1.15.696 1.333 1.878 1.454 3.09.273 1.638-.394 2.971-1.394 4.214-1.486-2.425.515-4.88-.06-7.305z" class="st30" fill="#8f354a" stroke-width=".303"/><path id="path66" d="M195.569 391.686c2.485-.151 4.94-.242 6.032 2.698-2.486.182-4.82.03-6.032-2.698z" class="st31" fill="#aa6674" stroke-width=".303"/><path id="path68" d="M155.254 344.036c-2.213 1.334-3.91.576-5.366-1.243 1.91-.121 4.032-1.152 5.366 1.243z" class="st32" fill="#9a485c" stroke-width=".303"/><path id="path70" d="M174.29 372.863l-.637.03-.636-.03c0-2.334 0-4.668.03-7.002 2.637 1.94.879 4.668 1.243 7.002z" class="st33" fill="#933c51" stroke-width=".303"/><path id="path72" d="M233.55 388.807c-.03.364-.03.758-.03 1.121-2.365.88-4.7.607-7.033-.03 2.091-1.97 4.668-.879 7.063-1.091z" class="st34" fill="#8f344a" stroke-width=".303"/><path id="path74" d="M213.301 396.142c0-.424.03-.879.06-1.303l.031-.637c1.88-.757 3.759-1.424 5.608.091 0 .455.03.91.06 1.364-1.879.364-3.728 1.637-5.759.485z" class="st35" fill="#9d4d61" stroke-width=".303"/><path id="path76" d="M242.219 333.82c.151-.454.303-.908.485-1.363.333.394.667.758 1 1.152-.515.06-1 .151-1.485.212z" class="st0" fill="#fefefe" stroke-width=".303"/><path id="path78" d="M214.968 347.067c3.244.455 6.457.91 9.7 1.364-.06 2.698-2.576 3.001-4.122 4.274-2.183-1.576-4.456-3.061-5.578-5.638z" class="st36" fill="#f6f0f1" stroke-width=".303"/><path id="path80" d="M204.51 347.067c2.395-2.03 4.608-3.061 5.85 1.091-2.03 0-4.182.819-5.85-1.09z" class="st37" fill="#b67c82" stroke-width=".303"/><path id="path82" d="M219 394.293l-5.608-.09c.485-.789 1-1.607 1.485-2.395 1.395-1.243 2.728-1.395 4.002.182.03.757.09 1.515.12 2.303z" class="st38" fill="#f8f3f4" stroke-width=".303"/><path id="path84" d="M219.333 388.807c-.151.424-.242.849-.333 1.273-1.698.636-3.79 2.455-4.062-1.303l2.607-2.79c.606.94 1.212 1.88 1.788 2.82z" class="st39" fill="#f7f1f3" stroke-width=".303"/><path id="path86" d="M214.968 388.777c.85 2 2.516 1.424 4.062 1.303-.06.636-.09 1.273-.151 1.91l-4.002-.182c-1.606-1.061-1.697-2.062.091-3.031z" class="st40" fill="#b67b87" stroke-width=".303"/><path id="path88" d="M125.305 358.495c2.94-2.789 5.82-1.88 8.67.182-2.91-.06-5.79-.122-8.67-.182z" class="st41" fill="#9e535e" stroke-width=".303"/><path id="path90" d="M142.765 357.13c.455-.09.91-.211 1.364-.302 2.304 2.425.88 3.546-1.515 4.334.03-1.333.09-2.697.151-4.031z" class="st42" fill="#f2e9eb" stroke-width=".303"/></g><path id="path4731" style="line-height:25px;-inkscape-font-specification:'Times New Roman, ';font-variant-ligatures:normal;font-variant-caps:normal;font-variant-numeric:normal;text-align:start" d="M196.946 81.072h32.793V60.876q0-5.414-.677-7.132-.52-1.3-2.186-2.238-2.238-1.249-4.737-1.249h-2.498v-1.926h30.19v1.926h-2.499q-2.498 0-4.737 1.197-1.665.833-2.29 2.55-.572 1.666-.572 6.872v45.545q0 5.361.676 7.079.52 1.301 2.134 2.238 2.29 1.25 4.79 1.25h2.498v1.925h-30.19v-1.926h2.498q4.32 0 6.298-2.55 1.302-1.666 1.302-8.016V84.923h-32.793v21.498q0 5.361.677 7.079.52 1.301 2.186 2.238 2.238 1.25 4.737 1.25h2.55v1.925h-30.242v-1.926h2.499q4.372 0 6.35-2.55 1.25-1.666 1.25-8.016V60.876q0-5.414-.677-7.132-.52-1.3-2.135-2.238-2.29-1.249-4.788-1.249h-2.499v-1.926h30.242v1.926h-2.55q-2.499 0-4.737 1.197-1.614.833-2.238 2.55-.625 1.666-.625 6.872z" font-weight="400" font-size="88" font-family="Times New Roman" letter-spacing="0" word-spacing="0" fill="#3d4f51" stroke-width="1.211"/><path id="path4733" style="line-height:25px;-inkscape-font-specification:'Times New Roman, ';font-variant-ligatures:normal;font-variant-caps:normal;font-variant-numeric:normal;text-align:start" d="M324.108 118.913h-18.842l-23.892-33q-2.655.103-4.32.103h-1.458q-.78-.052-1.613-.104v20.509q0 6.662 1.457 8.276 1.978 2.29 5.934 2.29h2.759v1.926H253.89v-1.926h2.654q4.477 0 6.403-2.915 1.093-1.613 1.093-7.651V60.824q0-6.663-1.458-8.277-2.03-2.29-6.038-2.29h-2.654v-1.926h25.713q11.243 0 16.553 1.666 5.36 1.613 9.057 6.038 3.747 4.372 3.747 10.462 0 6.507-4.268 11.295-4.216 4.79-13.117 6.767l14.575 20.248q4.996 6.975 8.588 9.265 3.592 2.29 9.37 2.915zm-50.125-36.28q.989 0 1.717.052h1.198q10.098 0 15.199-4.372 5.153-4.372 5.153-11.14 0-6.61-4.164-10.722-4.113-4.164-10.931-4.164-3.02 0-8.172.99z" font-weight="400" font-size="88" font-family="Times New Roman" letter-spacing="0" word-spacing="0" fill="#3d4f51" stroke-width="1.211"/><path id="path4735" style="line-height:25px;-inkscape-font-specification:'Times New Roman, ';font-variant-ligatures:normal;font-variant-caps:normal;font-variant-numeric:normal;text-align:start" d="M388.704 46.718l1.822 22.278h-1.822q-2.758-8.329-7.13-12.545-6.299-6.09-16.189-6.09-13.481 0-20.508 10.67-5.882 9.006-5.882 21.446 0 10.098 3.904 18.426 3.904 8.329 10.202 12.232 6.35 3.852 13.013 3.852 3.904 0 7.548-.989 3.643-.989 7.026-2.915V92.68q0-5.31-.832-6.923-.781-1.665-2.499-2.498-1.665-.885-5.934-.885v-1.978h27.327v1.978h-1.3q-4.06 0-5.57 2.707-1.041 1.925-1.041 7.6v21.6q-5.986 3.228-11.816 4.737-5.83 1.51-12.961 1.51-20.456 0-31.075-13.117-7.964-9.838-7.964-22.695 0-9.317 4.477-17.853 5.309-10.15 14.574-15.616 7.756-4.528 18.322-4.528 3.852 0 6.975.624 3.175.625 8.953 2.759 2.915 1.093 3.904 1.093.989 0 1.666-.885.728-.937.885-3.591z" font-weight="400" font-size="88" font-family="Times New Roman" letter-spacing="0" word-spacing="0" fill="#6f8083" stroke-width="1.211"/><g transform="matrix(1.21138 0 0 1.21138 -206.12 -174.576)" style="-inkscape-font-specification:Arial" id="text4729-4" font-weight="400" font-family="Arial"><path d="M185.746 257.974v-1.008l3.639-.006v3.188q-.838.668-1.729 1.008-.89.334-1.828.334-1.265 0-2.303-.54-1.03-.544-1.558-1.57-.527-1.025-.527-2.29 0-1.255.521-2.339.527-1.09 1.512-1.617.984-.527 2.267-.527.932 0 1.682.304.756.3 1.184.838.427.54.65 1.407l-1.025.28q-.194-.655-.48-1.03-.288-.375-.821-.598-.533-.229-1.184-.229-.78 0-1.348.24-.568.235-.92.622-.345.386-.538.85-.329.796-.329 1.728 0 1.148.393 1.922.398.773 1.154 1.148.756.375 1.606.375.738 0 1.441-.281.703-.287 1.067-.61v-1.6z" style="-inkscape-font-specification:Arial" id="path4585"/><path d="M194.674 261.343l3.299-8.59h1.224l3.516 8.59h-1.295l-1.002-2.601h-3.592l-.943 2.601zm2.478-3.527h2.913l-.897-2.379q-.41-1.084-.61-1.781-.163.826-.462 1.64z" style="-inkscape-font-specification:Arial" id="path4587"/><path d="M208.213 261.343v-8.59h3.809q1.148 0 1.746.235.597.228.955.814.357.586.357 1.295 0 .914-.592 1.541-.591.627-1.828.797.451.217.686.428.498.457.943 1.142l1.494 2.338h-1.43l-1.136-1.787q-.498-.773-.82-1.183-.323-.41-.58-.575-.252-.164-.516-.228-.194-.041-.633-.041h-1.318v3.814zm1.137-4.799h2.443q.78 0 1.219-.158.44-.164.668-.515.228-.358.228-.774 0-.61-.445-1.002-.44-.392-1.395-.392h-2.718z" style="-inkscape-font-specification:Arial" id="path4589"/><path d="M224.06 261.343v-7.576h-2.83v-1.014h6.81v1.014h-2.843v7.576z" style="-inkscape-font-specification:Arial" id="path4591"/><path d="M234.29 261.343v-8.59h6.21v1.014h-5.074v2.63h4.752v1.009h-4.752v2.924h5.273v1.013z" style="-inkscape-font-specification:Arial" id="path4593"/><path d="M247.488 261.343v-8.59h1.166l4.512 6.745v-6.745h1.09v8.59h-1.166l-4.512-6.75v6.75z" style="-inkscape-font-specification:Arial" id="path4595"/><path d="M260.846 258.765v-1.06h3.24v1.06z" style="-inkscape-font-specification:Arial" id="path4597"/><path d="M280.527 252.753h1.137v4.963q0 1.295-.293 2.057t-1.06 1.242q-.762.475-2.004.475-1.207 0-1.975-.416-.767-.416-1.096-1.202-.328-.79-.328-2.156v-4.963h1.137v4.957q0 1.12.205 1.653.211.527.715.814.51.287 1.242.287 1.254 0 1.787-.568.533-.568.533-2.186z" style="-inkscape-font-specification:Arial" id="path4599"/><path d="M288.77 261.343v-8.59h1.166l4.511 6.745v-6.745h1.09v8.59h-1.166l-4.512-6.75v6.75z" style="-inkscape-font-specification:Arial" id="path4601"/><path d="M302.672 261.343v-8.59h2.959q1.002 0 1.53.123.737.17 1.259.616.68.574 1.014 1.47.34.891.34 2.04 0 .978-.229 1.734t-.586 1.254q-.357.492-.785.779-.422.281-1.026.428-.597.146-1.376.146zm1.137-1.013h1.834q.85 0 1.33-.159.486-.158.773-.445.404-.404.627-1.084.229-.686.229-1.658 0-1.348-.446-2.069-.44-.726-1.072-.972-.457-.176-1.47-.176h-1.805z" style="-inkscape-font-specification:Arial" id="path4603"/><path d="M320.79 261.343v-8.59h1.136v7.577h4.23v1.013z" style="-inkscape-font-specification:Arial" id="path4605"/><path d="M330.69 261.343l3.298-8.59h1.225l3.516 8.59h-1.295l-1.002-2.601h-3.592l-.943 2.601zm2.478-3.527h2.912l-.896-2.379q-.41-1.084-.61-1.781-.164.826-.463 1.64z" style="-inkscape-font-specification:Arial" id="path4607"/><path d="M344.2 261.343v-8.59h1.165l4.512 6.745v-6.745h1.09v8.59H349.8l-4.512-6.75v6.75z" style="-inkscape-font-specification:Arial" id="path4609"/><path d="M358.102 261.343v-8.59h2.959q1.002 0 1.529.123.738.17 1.26.616.68.574 1.013 1.47.34.891.34 2.04 0 .978-.228 1.734-.229.756-.586 1.254-.358.492-.785.779-.422.281-1.026.428-.597.146-1.377.146zm1.136-1.013h1.834q.85 0 1.33-.159.487-.158.774-.445.404-.404.627-1.084.228-.686.228-1.658 0-1.348-.445-2.069-.44-.726-1.072-.972-.457-.176-1.471-.176h-1.805z" style="-inkscape-font-specification:Arial" id="path4611"/><path d="M371.606 258.583l1.072-.093q.076.644.351 1.06.282.41.868.668.585.252 1.318.252.65 0 1.148-.193.498-.194.739-.527.246-.34.246-.739 0-.404-.235-.703-.234-.305-.773-.51-.346-.134-1.53-.416-1.183-.287-1.658-.539-.615-.322-.92-.797-.298-.48-.298-1.072 0-.65.369-1.213.369-.568 1.078-.861.709-.293 1.576-.293.955 0 1.682.31.732.305 1.125.903.392.597.422 1.353l-1.09.082q-.088-.814-.598-1.23-.504-.416-1.494-.416-1.031 0-1.506.38-.469.376-.469.909 0 .463.334.762.328.298 1.711.615 1.389.31 1.905.545.75.345 1.107.879.357.527.357 1.218 0 .686-.392 1.295-.393.604-1.131.944-.732.334-1.652.334-1.166 0-1.957-.34-.786-.34-1.237-1.02-.445-.685-.468-1.547z" style="-inkscape-font-specification:Arial" id="path4613"/><path d="M391.356 258.331l1.136.288q-.357 1.4-1.289 2.138-.926.733-2.267.733-1.39 0-2.262-.563-.867-.568-1.324-1.64-.452-1.073-.452-2.303 0-1.342.51-2.338.516-1.002 1.46-1.518.948-.521 2.085-.521 1.29 0 2.168.656.88.656 1.225 1.846l-1.12.264q-.298-.938-.867-1.366-.568-.427-1.43-.427-.99 0-1.657.474-.663.475-.932 1.277-.27.797-.27 1.647 0 1.096.317 1.916.322.814.996 1.219.674.404 1.459.404.955 0 1.617-.55.662-.552.897-1.636z" style="-inkscape-font-specification:Arial" id="path4615"/><path d="M399.152 261.343v-8.59h1.137v3.528h4.465v-3.528h1.137v8.59h-1.137v-4.049h-4.465v4.05z" style="-inkscape-font-specification:Arial" id="path4617"/><path d="M411.408 261.343l3.3-8.59h1.224l3.515 8.59h-1.295l-1.002-2.601h-3.591l-.944 2.601zm2.479-3.527h2.912l-.897-2.379q-.41-1.084-.609-1.781-.164.826-.463 1.64z" style="-inkscape-font-specification:Arial" id="path4619"/><path d="M424.988 261.343v-8.59h5.795v1.014h-4.658v2.66h4.031v1.014h-4.03v3.902z" style="-inkscape-font-specification:Arial" id="path4621"/><path d="M439.46 261.343v-7.576h-2.831v-1.014h6.809v1.014h-2.842v7.576z" style="-inkscape-font-specification:Arial" id="path4623"/><path d="M449.277 258.583l1.073-.093q.076.644.351 1.06.281.41.867.668.586.252 1.319.252.65 0 1.148-.193.498-.194.738-.527.247-.34.247-.739 0-.404-.235-.703-.234-.305-.773-.51-.346-.134-1.53-.416-1.183-.287-1.658-.539-.615-.322-.92-.797-.298-.48-.298-1.072 0-.65.369-1.213.369-.568 1.078-.861.709-.293 1.576-.293.955 0 1.682.31.732.305 1.125.903.392.597.421 1.353l-1.09.082q-.087-.814-.597-1.23-.504-.416-1.494-.416-1.031 0-1.506.38-.469.376-.469.909 0 .463.334.762.328.298 1.711.615 1.389.31 1.904.545.75.345 1.108.879.357.527.357 1.218 0 .686-.392 1.295-.393.604-1.131.944-.733.334-1.652.334-1.167 0-1.958-.34-.785-.34-1.236-1.02-.445-.685-.469-1.547z" style="-inkscape-font-specification:Arial" id="path4625"/><path d="M462.852 261.343v-8.59h3.222q.985 0 1.576.264.598.258.932.803.34.539.34 1.13 0 .551-.299 1.038-.299.486-.902.785.78.228 1.195.78.422.55.422 1.3 0 .603-.258 1.125-.252.516-.627.797t-.943.428q-.563.14-1.383.14zm1.136-4.98h1.858q.756 0 1.084-.1.433-.129.65-.428.223-.298.223-.75 0-.427-.205-.75-.205-.328-.586-.445-.381-.123-1.307-.123h-1.717zm0 3.967h2.139q.55 0 .773-.041.393-.07.657-.235.263-.164.433-.474.17-.317.17-.727 0-.48-.246-.832-.246-.357-.685-.498-.434-.147-1.254-.147h-1.987z" style="-inkscape-font-specification:Arial" id="path4627"/><path d="M474.533 261.343l3.3-8.59h1.224l3.515 8.59h-1.295l-1.002-2.601h-3.591l-.944 2.601zm2.479-3.527h2.912l-.897-2.379q-.41-1.084-.609-1.781-.164.826-.463 1.64z" style="-inkscape-font-specification:Arial" id="path4629"/><path d="M493.691 252.753h1.137v4.963q0 1.295-.293 2.057t-1.06 1.242q-.762.475-2.004.475-1.207 0-1.975-.416-.767-.416-1.096-1.202-.328-.79-.328-2.156v-4.963h1.137v4.957q0 1.12.205 1.653.211.527.715.814.51.287 1.242.287 1.254 0 1.787-.568.533-.568.533-2.186z" style="-inkscape-font-specification:Arial" id="path4631"/></g><text style="-inkscape-font-specification:Arial" x="42.596" y="243.761" id="text4811" textLength="315" font-weight="400" font-size="18.667" font-family="Arial">86459 Gessertshausen - OT Deubach</text><text style="-inkscape-font-specification:Arial" x="43.621" y="192.61" id="text4819" textLength="312" font-weight="400" font-size="18.667" font-family="Arial">Harald Reitschuster &amp; Rainer Haering</text><text style="-inkscape-font-specification:Arial" x="104.192" y="217.258" id="text4823" textLength="191" font-weight="400" font-size="18.667" font-family="Arial">Peter Rosegger-Str. 10</text><text style="-inkscape-font-specification:Arial" x="115.143" y="266.441" id="text4831" textLength="171" font-weight="400" font-size="18.667" font-family="Arial">www.hrg-galabau.de</text></svg>