<svg xmlns="http://www.w3.org/2000/svg" id="Ebene_1" viewBox="0 0 400 300" width="400" height="300"><style id="style2">.st0{fill:#fefefe}.st1{fill:#d3b2af}.st2{fill:#bf918f}.st3{fill:#ac6e70}.st4{fill:#be8d8b}.st5{fill:#8d3047}.st6{fill:#ac6f71}.st7{fill:#a3596b}.st8{fill:#9e515e}.st9{fill:#9d4d5f}.st10{fill:#f2e8eb}.st11{fill:#9a475c}.st12{fill:#90364b}.st13{fill:#9b4e5a}.st14{fill:#a25868}.st15{fill:#963f54}.st16{fill:#a76072}.st17{fill:#a86370}.st18{fill:#a05663}.st19{fill:#a86173}.st20{fill:#8e3249}.st21{fill:#eee0e3}.st22{fill:#8e3248}.st23{fill:#923a4f}.st24{fill:#9b495d}.st25{fill:#a45a6c}.st26{fill:#943d52}.st27{fill:#ac6976}.st28{fill:#ad6a79}.st29{fill:#92394f}.st30{fill:#8f354a}.st31{fill:#aa6674}.st32{fill:#9a485c}.st33{fill:#933c51}.st34{fill:#8f344a}.st35{fill:#9d4d61}.st36{fill:#f6f0f1}.st37{fill:#b67c82}.st38{fill:#f8f3f4}.st39{fill:#f7f1f3}.st40{fill:#b67b87}.st41{fill:#9e535e}.st42{fill:#f2e9eb}</style><g id="g4807" transform="matrix(1.21138 0 0 1.21138 -201.01 -326.24)"><g transform="matrix(.95344 0 0 .95344 65.864 -6.226)" id="g4721"><path class="st1" d="M174.108 356.555c.09-1.485.151-3.001.242-4.486-1.182-3.153-1.212-6.305.273-9.397.97-1.394 2.334-2.152 4.001-2.304 8.397 1.85 17.005 2.759 25.371 4.85 1.85.88 3.79 1.455 5.911 1.273 1.698-.06 3.425-.515 5.123-.03 2.85 1.667 5.305 3.698 6.244 7.063.152 2.607-.667 5.335.243 7.85 2.94 8.306.273 16.005-2.213 23.735-.697 1.455-1.637 2.758-2.668 4.001-.727.91-1.121 1.97-1.212 3.152a4.254 4.254 0 0 1-1.273 2.304 3.07 3.07 0 0 1-1.698.485c-2.576-1.182-5.365 1.425-7.911-.485l-2.94-.182c-1.85-1.243-4.092-1.606-6.032-2.698-2.82 2.183-5.608.485-8.366-.151-2.91-2.183-6.881-1.85-9.7-4.183-2.759-2.183.454-6.578-3.153-8.427-1.485-1.637-1.303-3.486-.758-5.395-.12-2.577.637-5.184-.545-7.7.424-1 .849-2 1.303-3-.848-2.062.546-4.214-.242-6.275z" id="path6" fill="#d3b2af" stroke-width=".303"/><path class="st2" d="M119.455 394.536c-2.364-1.789-4.395-3.79-4.425-7.063.03-2.455.788-5.062-1.03-7.244-3.002-3.79-3.669-8.185-3.184-12.853-1.333-2.485-.97-4.547 1.455-6.123l-.212-.03c3.88-2.88 8.67-2.789 13.034-4.032 2.577-.606 5.153-.606 7.76-.242 3.395 1 6.7-2.516 10.124-.212 1 1.091 1.425 2.455 1.94 3.82 4.183 8.274 5.396 17.338 7.215 26.28.06 2-.637 3.637-2.274 4.85l-.606.06-.606-.03c-2.547 2.243-6.275.91-8.912 2.85l-.637.06h-.636c-6.366 1.06-12.7 4.516-19.006-.091z" id="path8" fill="#bf918f" stroke-width=".303"/><path class="st3" d="M217.575 385.988c1.728-8.73 5.668-17.278 1.637-26.463-.91-2.091-.212-4.759 1.334-6.85.424-2.455 2.425-3.79 3.88-5.517 2.637-2.758 5.365-5.092 9.427-5.79 4.152-.697 5.547-4.819 7.941-7.638.607-.394 1.243-.455 1.88-.152l-.121.546c1.424 2.667 1.94 5.699 3.304 8.396-.122 2.88-2.607 5.73-.182 8.67 2.152 2 1.455 4 .06 6.032-3.395 2.576-.273 5.517-.424 8.275-.06 2.516-.88 4.94-1.122 7.426.243.334.243.637.03.97.637 2.031-.363 3.94-.515 5.911-1 2.577-3.334 4.032-5.001 6.063-2.82-.152-4.486 1.91-6.457 3.395-2.243.454-4.577-.334-6.76.545-1 .152-1.97.303-2.97.455-1.606-.03-3.213-.06-4.668-.97-1.03-.819-1.758-1.819-1.273-3.304z" id="path10" fill="#ac6e70" stroke-width=".303"/><path class="st4" d="M242.219 333.82c-.97 5.305-3.547 9.458-9.397 9.458-4.122.03-4.88 4.365-8.184 5.123-3.668 2.728-6.638.303-9.7-1.364-1.546.364-3.062.727-4.607 1.121-1.698-1.727-3.82-1.212-5.85-1.09-8.458-2.608-17.794-1.395-25.826-5.912-.91-.97-.88-1.94 0-2.91 3.728-4.425 9.578-3.122 14.155-5.213 1.304-3.668 4.91-2.092 7.305-3.244 3.638-1.121 6.912-4.728 11.186-1.697 3.273-1.88 6.79-.06 10.124-.637 2.728.364 4.97 2.456 7.911 2.122 1.395 0 2.759.03 4.153.03 2.486 1.91 6.184.213 8.396 2.88.243-.242.485-.242.758-.03.152.545-.03 1-.424 1.364z" id="path12" fill="#be8d8b" stroke-width=".303"/><path class="st5" d="M151.222 387.322c-1.758-6.518-3.758-13.004-5.123-19.612-.575-2.698-1.667-4.729-3.516-6.548 1.667-1.485 1.152-3.364.91-5.213 2.546-5.366 8.457-6.942 12.185-10.973 3.274-.091 4.517 1.849 5.123 4.789 1.121 5.396 2.03 10.882 3.82 16.065 3.727 10.822.15 18.582-9.064 24.401-1.698-.545-3.183-1.454-4.335-2.91z" id="path14" fill="#8d3047" stroke-width=".303"/><path class="st6" d="M155.678 344.976c.273 4.092-3.486 4.759-5.76 6.608-2.03 1.667-4.485 2.788-5.82 5.244-.333.576-.818.667-1.363.303-3.334-1.789-5.365 3.97-8.79 1.546-2.85-1.516-5.76-1.395-8.67-.182-4.183 1.94-8.578 2.91-13.216 2.698 2.82-6.7 9.7-8.76 14.792-12.853 3.82-.848 7.79-.485 11.58-1.667 3.789-1.394 6.577-5.76 11.488-3.94 1.667.94 3.577.848 5.365 1.242.394.243.546.546.394 1z" id="path16" fill="#ac6f71" stroke-width=".303"/><path class="st7" d="M119.455 394.536c6.305 3 12.64-.758 18.945.06-6.487 4.396-14.913 4.396-18.945-.06z" id="path18" fill="#a3596b" stroke-width=".303"/><path class="st8" d="M246.493 342.611c-5.002-1.424-2-5.607-2.91-8.457 2.789 1.546 4.334 3.79 4.122 7.063-.212.667-.606 1.122-1.212 1.394z" id="path20" fill="#9e515e" stroke-width=".303"/><path class="st9" d="M177.503 387.352c3.486.818 7.547.273 9.7 4.183-3.214-1.455-8.397 1.697-9.7-4.183z" id="path22" fill="#9d4d5f" stroke-width=".303"/><path class="st10" d="M151.222 387.322c2.759-.97 4.244-.03 4.335 2.94-1.516 2.152-3.395 2.728-5.76 1.424.486-1.455.97-2.91 1.425-4.364z" id="path24" fill="#f2e8eb" stroke-width=".303"/><path class="st11" d="M175.684 342.702c-1.85 2.91-.91 6.245-1.334 9.367-2.97-4.79-3.304-9.367 1.061-13.58 1.485 1.303.243 2.789.273 4.213z" id="path26" fill="#9a475c" stroke-width=".303"/><path class="st12" d="M245.16 365.71c1.454-2.638-4.487-6.7 1.606-8.428-1.183 3.82 1.788 7.7-.152 11.519-1.152-.697-.485-2.273-1.455-3.092z" id="path28" fill="#90364b" stroke-width=".303"/><path class="st13" d="M138.4 346.703c-3.546 2.638-7.578 1.94-11.579 1.668 3.516-3.092 7.608-2.062 11.58-1.668z" id="path30" fill="#9b4e5a" stroke-width=".303"/><path class="st14" d="M219.333 388.807c1.576 0 3.244-.212 4.153 1.546-1 2.152-1.455 4.789-4.426 5.304a3.545 3.545 0 0 1-1.03-1.364c-.243-.848-.303-1.697-.273-2.576.03-.576.152-1.152.333-1.728.304-.546.698-.94 1.243-1.182z" id="path32" fill="#a25868" stroke-width=".303"/><path class="st15" d="M223.425 328.213c-4.031-.03-8.032-.09-12.064-.121 3.638-4.577 8.033-.849 12.064-1.03.425.242.546.515.425.757-.152.273-.303.394-.425.394z" id="path34" fill="#963f54" stroke-width=".303"/><path class="st16" d="M243.643 380.138c-.272-2.274.637-4.214 1.607-6.154.97 2.85 3.031 5.76-.273 8.488-1.182-.364-1.849-1-1.334-2.334z" id="path36" fill="#a76072" stroke-width=".303"/><path class="st17" d="M114 380.198c4.455 1.819 2.818 4.517 1.03 7.245-1.758-2.183-.728-4.82-1.03-7.245z" id="path38" fill="#a86370" stroke-width=".303"/><path class="st18" d="M139.704 394.536c2.303-3.062 5.607-2.97 8.911-2.85-1.788 4.638-5.85 2.183-8.911 2.85z" id="path40" fill="#a05663" stroke-width=".303"/><path class="st19" d="M243.643 380.138c.455.788.91 1.546 1.334 2.334-1.788 1.667-3.092 3.94-5.76 4.516 0-.303-.03-.576-.03-.879.304-2.88 2.85-4.062 4.456-5.971z" id="path42" fill="#a86173" stroke-width=".303"/><path class="st20" d="M241.946 332.487c-2.698-1.273-6.366.303-8.396-2.88 3 .334 6.85-1.788 8.396 2.88z" id="path44" fill="#8e3249" stroke-width=".303"/><path class="st21" d="M175.684 342.702c-2.061-1.273-.424-2.788-.273-4.213 1.091-.273 2.092-1.667 3.274-.243v2.91l-3.001 1.546z" id="path46" fill="#eee0e3" stroke-width=".303"/><path class="st22" d="M246.493 342.611c.394-.454.788-.909 1.182-1.394 1.243 3.486-2.304 6.517-.97 10.003-3.092-2.789-1.243-5.699-.212-8.609z" id="path48" fill="#8e3248" stroke-width=".303"/><path class="st23" d="M204.541 394.536c2.91.333 5.941-2.455 8.79.273.273.303.364.606.243.879-.121.272-.212.424-.303.424-2.85-.758-6.244 1.455-8.73-1.576z" id="path50" fill="#923a4f" stroke-width=".303"/><path class="st24" d="M223.425 328.213a7.307 7.307 0 0 1 0-1.152c1.728 1.455 4.638.122 5.972 2.516-2.365 1.122-4.638 1.91-5.972-1.364z" id="path52" fill="#9b495d" stroke-width=".303"/><path class="st25" d="M112.271 361.223c-.91 1.94-1.849 3.88-1.455 6.123-1.758-2.577-5.547-5.608 1.455-6.123z" id="path54" fill="#a45a6c" stroke-width=".303"/><path class="st26" d="M239.218 386.11c-.03.302-.03.575.03.878-1.91.97-3.82 1.97-5.698 2.94-.485-.272-.637-.515-.485-.757.151-.243.333-.364.485-.364 1.303-2.122 2.243-5.002 5.668-2.698z" id="path56" fill="#943d52" stroke-width=".303"/><path class="st27" d="M174.108 356.555c2.788 2 1.06 4.183.242 6.335-2.03-2.061-2-4.183-.242-6.335z" id="path58" fill="#ac6976" stroke-width=".303"/><path class="st28" d="M174.29 372.863c0 2.03.03 4.031.03 6.062-4.94-1.06-2.607-3.668-1.303-6.062.454-.637.848-.607 1.273 0z" id="path60" fill="#ad6a79" stroke-width=".303"/><path class="st29" d="M200.176 329.82c-2.03 2.03-5.456.848-7.305 3.243.333-5.82 4.395-3.213 7.305-3.243z" id="path62" fill="#92394f" stroke-width=".303"/><path class="st30" d="M245.16 365.71c1.15.696 1.333 1.878 1.454 3.09.273 1.638-.394 2.971-1.394 4.214-1.486-2.425.515-4.88-.06-7.305z" id="path64" fill="#8f354a" stroke-width=".303"/><path class="st31" d="M195.569 391.686c2.485-.151 4.94-.242 6.032 2.698-2.486.182-4.82.03-6.032-2.698z" id="path66" fill="#aa6674" stroke-width=".303"/><path class="st32" d="M155.254 344.036c-2.213 1.334-3.91.576-5.366-1.243 1.91-.121 4.032-1.152 5.366 1.243z" id="path68" fill="#9a485c" stroke-width=".303"/><path class="st33" d="M174.29 372.863l-.637.03-.636-.03c0-2.334 0-4.668.03-7.002 2.637 1.94.879 4.668 1.243 7.002z" id="path70" fill="#933c51" stroke-width=".303"/><path class="st34" d="M233.55 388.807c-.03.364-.03.758-.03 1.121-2.365.88-4.7.607-7.033-.03 2.091-1.97 4.668-.879 7.063-1.091z" id="path72" fill="#8f344a" stroke-width=".303"/><path class="st35" d="M213.301 396.142c0-.424.03-.879.06-1.303l.031-.637c1.88-.757 3.759-1.424 5.608.091 0 .455.03.91.06 1.364-1.879.364-3.728 1.637-5.759.485z" id="path74" fill="#9d4d61" stroke-width=".303"/><path class="st0" d="M242.219 333.82c.151-.454.303-.908.485-1.363.333.394.667.758 1 1.152-.515.06-1 .151-1.485.212z" id="path76" fill="#fefefe" stroke-width=".303"/><path class="st36" d="M214.968 347.067c3.244.455 6.457.91 9.7 1.364-.06 2.698-2.576 3.001-4.122 4.274-2.183-1.576-4.456-3.061-5.578-5.638z" id="path78" fill="#f6f0f1" stroke-width=".303"/><path class="st37" d="M204.51 347.067c2.395-2.03 4.608-3.061 5.85 1.091-2.03 0-4.182.819-5.85-1.09z" id="path80" fill="#b67c82" stroke-width=".303"/><path class="st38" d="M219 394.293l-5.608-.09c.485-.789 1-1.607 1.485-2.395 1.395-1.243 2.728-1.395 4.002.182.03.757.09 1.515.12 2.303z" id="path82" fill="#f8f3f4" stroke-width=".303"/><path class="st39" d="M219.333 388.807c-.151.424-.242.849-.333 1.273-1.698.636-3.79 2.455-4.062-1.303l2.607-2.79c.606.94 1.212 1.88 1.788 2.82z" id="path84" fill="#f7f1f3" stroke-width=".303"/><path class="st40" d="M214.968 388.777c.85 2 2.516 1.424 4.062 1.303-.06.636-.09 1.273-.151 1.91l-4.002-.182c-1.606-1.061-1.697-2.062.091-3.031z" id="path86" fill="#b67b87" stroke-width=".303"/><path class="st41" d="M125.305 358.495c2.94-2.789 5.82-1.88 8.67.182-2.91-.06-5.79-.122-8.67-.182z" id="path88" fill="#9e535e" stroke-width=".303"/><path class="st42" d="M142.765 357.13c.455-.09.91-.211 1.364-.302 2.304 2.425.88 3.546-1.515 4.334.03-1.333.09-2.697.151-4.031z" id="path90" fill="#f2e9eb" stroke-width=".303"/></g><path d="M328.514 336.236h27.07v-16.672q0-4.468-.559-5.886-.43-1.075-1.804-1.848-1.848-1.031-3.91-1.031h-2.063v-1.59h24.922v1.59h-2.063q-2.062 0-3.91.988-1.375.688-1.89 2.106-.473 1.375-.473 5.671v37.598q0 4.426.558 5.844.43 1.074 1.762 1.847 1.89 1.032 3.953 1.032h2.063v1.59h-24.922v-1.59h2.062q3.567 0 5.2-2.106 1.074-1.375 1.074-6.617v-17.746h-27.07v17.746q0 4.426.558 5.844.43 1.074 1.805 1.847 1.848 1.032 3.91 1.032h2.105v1.59h-24.964v-1.59h2.062q3.61 0 5.242-2.106 1.032-1.375 1.032-6.617v-37.598q0-4.468-.559-5.886-.43-1.075-1.762-1.848-1.89-1.031-3.953-1.031h-2.062v-1.59h24.964v1.59h-2.105q-2.062 0-3.91.988-1.332.688-1.848 2.106-.515 1.375-.515 5.671z" style="line-height:25px;-inkscape-font-specification:'Times New Roman, ';font-variant-ligatures:normal;font-variant-caps:normal;font-variant-numeric:normal;text-align:start" id="path4731" font-weight="400" font-size="88" font-family="Times New Roman" letter-spacing="0" word-spacing="0" fill="#3d4f51"/><path d="M433.486 367.475h-15.554l-19.723-27.243q-2.192.086-3.567.086h-1.203q-.644-.043-1.332-.086v16.93q0 5.5 1.203 6.832 1.633 1.89 4.899 1.89h2.277v1.59h-24.965v-1.59h2.192q3.695 0 5.285-2.406.902-1.332.902-6.316v-37.64q0-5.5-1.203-6.833-1.676-1.89-4.984-1.89h-2.192v-1.59h21.227q9.281 0 13.664 1.375 4.426 1.332 7.477 4.984 3.093 3.61 3.093 8.637 0 5.371-3.523 9.324-3.48 3.953-10.828 5.586l12.031 16.715q4.125 5.758 7.09 7.648 2.965 1.891 7.734 2.407zm-41.379-29.95q.817 0 1.418.043h.989q8.336 0 12.546-3.609 4.254-3.61 4.254-9.195 0-5.457-3.437-8.852-3.395-3.437-9.024-3.437-2.492 0-6.746.816z" style="line-height:25px;-inkscape-font-specification:'Times New Roman, ';font-variant-ligatures:normal;font-variant-caps:normal;font-variant-numeric:normal;text-align:start" id="path4733" font-weight="400" font-size="88" font-family="Times New Roman" letter-spacing="0" word-spacing="0" fill="#3d4f51"/><path d="M486.81 307.877l1.504 18.39h-1.504q-2.277-6.874-5.886-10.355-5.2-5.027-13.364-5.027-11.128 0-16.93 8.808-4.855 7.434-4.855 17.703 0 8.336 3.223 15.211t8.422 10.098q5.242 3.18 10.742 3.18 3.223 0 6.23-.817 3.008-.816 5.801-2.406v-16.844q0-4.382-.687-5.715-.645-1.375-2.063-2.062-1.375-.73-4.898-.73v-1.633h22.558v1.633h-1.074q-3.351 0-4.597 2.234-.86 1.59-.86 6.273v17.832q-4.941 2.664-9.754 3.91-4.812 1.247-10.699 1.247-16.887 0-25.652-10.829-6.575-8.12-6.575-18.734 0-7.691 3.696-14.738 4.383-8.38 12.031-12.89 6.402-3.74 15.125-3.74 3.18 0 5.758.517 2.621.515 7.39 2.277 2.407.902 3.223.902.817 0 1.375-.73.602-.774.73-2.965z" style="line-height:25px;-inkscape-font-specification:'Times New Roman, ';font-variant-ligatures:normal;font-variant-caps:normal;font-variant-numeric:normal;text-align:start" id="path4735" font-weight="400" font-size="88" font-family="Times New Roman" letter-spacing="0" word-spacing="0" fill="#6f8083"/><text transform="translate(-4.219 125.199)" textLength="315" id="text4729-4" y="261.343" x="180.801" style="-inkscape-font-specification:Arial" font-weight="400" font-family="Arial">G A R T E N -  U N D  L A N D S C H A F T S B A U</text></g><text style="-inkscape-font-specification:Arial" x="42.596" y="243.761" id="text4811" textLength="315" font-weight="400" font-size="18.667" font-family="Arial">86459 Gessertshausen - OT Deubach</text><text style="-inkscape-font-specification:Arial" x="43.621" y="192.61" id="text4819" textLength="312" font-weight="400" font-size="18.667" font-family="Arial">Harald Reitschuster &amp; Rainer Haering</text><text style="-inkscape-font-specification:Arial" x="104.192" y="217.258" id="text4823" textLength="191" font-weight="400" font-size="18.667" font-family="Arial">Peter Rosegger-Str. 10</text><text style="-inkscape-font-specification:Arial" x="115.143" y="266.441" id="text4831" textLength="171" font-weight="400" font-size="18.667" font-family="Arial">www.hrg-galabau.de</text></svg>