<svg xmlns="http://www.w3.org/2000/svg" id="svg8" width="400" height="300" viewBox="0 0 400 300"><style id="style2">.st0{fill:#cf0}.st1{fill:#cc0001}.st2{fill:#66fdcd}.st3{fill:#ffcc01}.st4{fill:#ffbe00}.st5{fill:#4fffd1}.st6{fill:#bceb00}.st7{fill:none;stroke:#525252;stroke-width:.78739;stroke-linecap:round;stroke-linejoin:round}.st8{fill:#fe3c00}.st9{fill:#84a400}.st10{fill:#00cb97}.st11{fill:#fe6400}.st12{font-family:&apos;Arial-BoldMT&apos;}.st13{font-size:17.33299px}.st14{fill:#fff3f3}.st15{fill:#f60}.st16{fill:#f6eded}.st17{fill:#ffcb00}.st18{fill:#fcfcfc}.st19{fill:#fff}.st20{fill:#ec1b24}</style><g id="layer1" transform="translate(0 -217.625)"><path id="path4702" class="st0" d="M0 517.625h400V360.468C258.865 338.928 76.834 343.843.006 372.772z" fill="#cf0"/><path id="path4704" class="st1" d="M0 217.57l400 .11v137.765C292.194 337.948 83.831 336.9.006 367.08z" fill="#cc0001"/><path id="path4702-3" class="st2" d="M.006 372.772c76.828-28.929 258.857-33.843 399.992-12.304v-5.025C292.173 337.943 83.831 336.897.006 367.076z" fill="#66fdcd"/><path id="path4496-9" class="st3" d="M66.883 269.177a56.045 56.045 0 0 0-26.965 6.986c19.867 25.13 12.539 61.1 1.652 98.483 9.748-22.758 27.782-28.625 72.493-19.295a56.034 56.034 0 0 0 3.264-5.85c-44.527 3.357-83.242-43.936-31.584-76.996a56.032 56.032 0 0 0-18.86-3.328z" fill="#ffcc01"/><path id="circle4767-6" class="st4" d="M41.503 375.164a56.03 56.03 0 0 1-1.553-99.014c20.004 25.241 12.525 61.431 1.553 99.014z" fill="#ffbe00"/><path id="circle4770-2" class="st5" d="M85.743 272.505c31.304 11.23 45.967 47.115 31.573 77.032-44.565 3.398-83.346-43.958-31.573-77.032z" fill="#4fffd1"/><path id="circle4773-9" class="st6" d="M114.05 355.399c-15.54 24.339-47.036 32.88-72.746 19.73 9.706-23.15 27.7-29.138 72.746-19.73z" fill="#bceb00"/><ellipse id="path4496-5" class="st7" cx="66.823" cy="325.245" rx="56.033" ry="56.031" fill="none" stroke="#525252" stroke-width=".787" stroke-linecap="round" stroke-linejoin="round"/><path id="circle4767-6-2" class="st8" d="M40.114 276.416c-17.239 9.435-28.939 27.74-28.939 48.769 0 21.598 12.346 40.309 30.355 49.501.19-.65.37-1.295.557-1.945-17.178-8.917-28.914-26.854-28.914-47.556 0-20.394 11.384-38.114 28.145-47.162-.39-.54-.79-1.077-1.204-1.607z" fill="#fe3c00"/><path id="circle4773-9-6" class="st9" d="M111.476 354.88c-9.595 14.42-25.99 23.92-44.62 23.92-8.83 0-17.428-2.28-24.769-6.059-.28.601-.365 1.279-.557 1.945a55.286 55.286 0 0 0 25.325 6.116c19.604 0 36.83-10.174 46.72-25.516-.723-.15-1.39-.265-2.099-.407z" fill="#84a400"/><path id="circle4770-2-6" class="st10" d="M85.222 272.766c-.716.464-1.376.94-2.057 1.41 31.303 10.03 46.504 45.93 31.364 75.46.761-.023 1.52-.048 2.286-.094 14.6-29.954-.386-65.798-31.593-76.776z" fill="#00cb97"/><path id="path4496-9-9" class="st11" d="M66.772 269.617a55.375 55.375 0 0 0-26.696 6.82c.413.53.812 1.068 1.202 1.608 7.583-4.1 16.265-6.428 25.494-6.428 5.72 0 11.225.902 16.393 2.558.681-.47 1.34-.944 2.057-1.41a55.483 55.483 0 0 0-18.45-3.148zm50.043 79.925c-.765.047-1.525.071-2.286.094a53.599 53.599 0 0 1-3.06 5.243c.71.141 1.379.257 2.103.407a55.549 55.549 0 0 0 3.243-5.743z" fill="#fe6400"/><text transform="scale(1.00002 .99998)" class="st12 st13" id="text17" x="16.162" y="428.073" font-size="17.333" font-family="Arial-BoldMT"><tspan style="-inkscape-font-specification:'Arial Bold'" id="tspan4585" font-weight="700" font-family="Arial">Bahnhofsplatz 8 ■ 86459 Gessertshausen</tspan></text><text transform="scale(1.00002 .99998)" class="st12 st13" id="text19" x="17.784" y="483.289" font-size="17.333" font-family="Arial-BoldMT"><tspan style="-inkscape-font-specification:'Arial Bold'" id="tspan4589" font-weight="700" font-family="Arial">Mo-Fr 9-12 &amp; 13-18 Uhr ■ Sa 9-12 Uhr</tspan></text><text transform="scale(1.00002 .99998)" class="st12 st13" id="text21" x="16.162" y="456.073" font-size="17.333" font-family="Arial-BoldMT"><tspan style="-inkscape-font-specification:'Arial Bold'" id="tspan4587" font-weight="700" font-family="Arial">Tel.: 08238 958540 ■ www.spieltgut.de</tspan></text><path d="M116.328 331.313c-.001.058-.002.118-.012.18.006-.06.01-.12.012-.18z" class="st14" id="path4768" fill="#fff3f3"/><path d="M116.254 331.823l-.006.03-.008.019.013-.05z" class="st14" id="path4766" fill="#fff3f3"/><path d="M115.958 332.509l-.008.015-.01.01.018-.025z" class="st14" id="path4762" fill="#fff3f3"/><path d="M147.131 315.315c-3.138 2.89-1.01 8.072 3.467 8.072 4.313 0 6.66-5.103 3.437-8.072-1.927-1.81-4.944-1.806-6.904 0z" class="st15" id="path4844" fill="#f60" stroke="#fffefe"/><path d="M145.287 330.582c0 6.409-.728 5.914-.46 17.235 0 0 .107 3.248.107 4.994 0 4.294 5.083 5.472 7.56 3.105 1.833-1.805 1.157-3.762 1.157-8.137-.267-11.27.463-10.761.463-17.197 0-5.723-8.827-5.727-8.827 0z" class="st15" id="path4840" fill="#f60" stroke="#fffefe"/><path d="M176.184 334.791c-3.298 1.95-4.125 2.213-9.11 4.383 1.695-3.943 4.174-5.944 9.11-4.383zm-3.157-8.428c-17.674 0-23.03 31.186.733 31.186 2.93 0 5.718-.565 8.338-1.695v-.002c2.576-1.119 4.937-2.877 4.937-5.698 0-2.96-2.521-4.916-7.441-1.992v.002c-1.566.932-3.496 1.412-5.834 1.412-3.885 0-5.057-1.227-6.057-2.058 11.328-5.044 17.948-7.095 17.948-12.666 0-3.06-1.573-5.457-4.475-6.89h-.002c-2.203-1.08-4.921-1.599-8.146-1.599z" class="st15" id="path4724" fill="#f60" stroke="#fffefe"/><path d="M195.863 311.033c-2.66 0-4.494 1.814-4.494 4.192 0 40.794-.49 39.298 1.258 41.014 1.765 1.732 5.053 1.665 6.504-.346 1.466-2.033 1.064-1.51 1.064-40.668 0-2.521-1.892-4.192-4.332-4.192z" class="st15" id="path4836" fill="#f60" stroke="#fffefe"/><path d="M208.424 326.473c-1.193 0-2.282.402-3.156 1.177-1.742 1.54-1.476 3.539-.95 6.948.835 5.376 3.104 23.927 8.403 23.771 1.631-.06 2.974-.825 3.84-2.138 1.516-1.322 1.143-2.015 5.342-12.162.485 3.03.962 5.956 1.357 7.31v.004c2.87 9.675 8.249 7.543 10.033 5.072l.002-.006c1.263-1.776 2.185-3.52 2.754-5.238v-.002c1.926-5.854 3.84-12.363 5.746-19.527l.002-.002c1.353-5.177-7.171-7.36-8.457-2.301a3934.254 3934.254 0 0 1-3.504 13.7c-1.923-10.805-2.063-16.497-6.894-16.497-4.625 0-4.67 4.112-8.574 15.256-1.59-10.29-.732-15.366-5.944-15.366z" class="st15" id="path4832" fill="#f60" stroke="#fffefe"/><path d="M259.97 334.254c.309 0 .67.168.956.28-.457 2.767-.78 4.175.365 13.519-2.632 2.029-6.881 2.935-8.72.35-3.452-4.933.278-14.15 7.4-14.15zm-.353-7.863c-9.32 0-17.082 7.37-17.082 16.646 0 10.138 5.003 14.758 13.766 14.758 2.34 0 5.401-1.34 7.512-2.332 1.038 1.012 2.702 2.635 4.097 2.635 2.636 0 5.062-2.401 3.993-5.108a46.685 46.685 0 0 0-.81-1.875h.003c-1.156-2.572-1.225-2.777-1.225-2.777v-.002c-.9-2.823-.94-10.605-.15-13.789l-.139.268c1.45-1.714 1.352-4.694-3.72-6.893v.002c-2.322-1.01-4.397-1.533-6.245-1.533z" class="st15" id="path4730" fill="#f60" stroke="#fffefe"/><path d="M292.813 326.115c-3.75 0-7.18 1.197-10.301 3.33-1.48-4.44-8.14-3.582-8.14 1.41 0 23.621-.702 24.099.925 25.946 1.513 1.782 4.624 1.73 6.256.097 1.67-1.597 1.266-2.054 1.236-16.632 1.566-3.093 4.025-4.92 7.475-5.662.122 2.508-.2 6.138 4.18 6.138 4.315 0 4.468-3.836 4.468-6.683 0-4.527-1.59-7.944-6.1-7.944z" class="st15" id="path4824" fill="#f60" stroke="#fffefe"/><path d="M318.317 334.791c-3.313 1.958-4.132 2.215-9.108 4.38 1.672-3.889 4.092-5.965 9.108-4.38zm-3.157-8.428c-4.72 0-8.582 1.889-11.373 5.573h-.002c-2.503 3.315-3.748 7.383-3.748 12.115 0 12.914 14.743 15.88 24.194 11.803l.002-.002c8.396-3.645 5.328-12.346-2.504-7.69v.002c-2.886 1.719-7.2 1.76-9.838.744-.809-.311-1.421-.862-2.055-1.388l8.094-3.606h.002c.852-.38 5.567-2.524 6.226-3.184 5.719-3.98 4.157-10.298-.847-12.767h-.002c-2.203-1.08-4.924-1.6-8.149-1.6z" class="st15" id="path4734" fill="#f60" stroke="#fffefe"/><path d="M336.748 325.076c-1.208 0-2.304.403-3.164 1.184-2.355 2.134-.524 3.225-1.492 15.137-.81 9.949-.057 8.897-.057 11.988 0 4.061 4.974 5.578 7.56 3.049 2.514-2.352.435-5 1.097-9.998 0-.001 0-.003.002-.004.122-.967.196-1.728.236-2.342 1.296-4.283 4.402-9.89 8.025-9.89.884 0 .21 5.262.21 8.728 0 3.168.336 5.219 1.173 11.422v-.014c.527 4.587 5.424 4.66 7.522 2.707 1.625-1.513 1.598-3.5.69-8.62l.001.007c-1.175-6.93.293-13.192-1.898-18.065v-.002c-2.262-4.998-9.05-7-15.586-1.197-.37-2.476-1.559-4.09-4.319-4.09z" class="st15" id="path4828" fill="#f60" stroke="#fffefe"/><path d="M266.623 306.191l-.086.086-.04-.04.126-.046z" class="st16" id="path5370" fill="#f6eded"/><path d="M286.815 301.094c.236 0 .47-.043.691-.125z" class="st16" id="path5411" fill="#f6eded"/><path d="M215.39 281.463c-2.115 0-3.634 1.614-3.634 3.545 0 30.507-2.34 31.64-.015 33.92 2.204 2.164 6.218.75 6.218-2.52 0-3.393.392-6.632.516-9.948 8.682-1.636 12.1-2.327 16.426-2.579-.034 1.146-.083 2.148.103 6.705l.002.004c.106 2.218.158 3.88.158 4.974 0 4.462 7.472 4.769 7.472-.045 0-5.93-.858-5.375-.274-16.369.372-6.998.102-5.594.34-8.386l-.001.01c.25-2.48 0-2.689.574-4.798 0 0 .109-.374.109-.83 0-3.047-4.552-5.938-7.06-.39v.001c-1.543 3.454-.97 4.04-1.394 12-5.302.255-9.79 1.267-16.395 2.513.335-13.816 1.182-15.071-.562-16.782-.687-.674-1.586-1.025-2.583-1.025z" class="st17" id="path5341" fill="#ffcb00" stroke="#fffefe"/><path d="M249.299 292.608c-2.002 0-3.254 1.055-3.603 3.036-1.627 9.123.203 16.018.203 17.176 1.024 6.483 8.507 7.584 14.76 5.415 2.103 3.129 6.631 1.435 6.631-1.848 0-.355-.032-.837-.093-1.47l.002.014c-.48-6.758.194-16.14.317-18.634.218-4.105-6.74-5.248-7.354-.351-.64 5.06-.376 9.764-.367 15.506-1.964.444-4.766 1.017-6.63.275-.708-2.774-1.11-8.168-.487-12.387l-.002.006c.397-2.5.781-4.386-.768-5.756-.715-.647-1.617-.982-2.609-.982z" class="st17" id="path5345" fill="#ffcb00" stroke="#fffefe"/><path d="M278.967 285.05c-2.038 0-3.726 1.477-3.726 3.521 0 .851.096 2.155.175 4.084-2.943-.255-4.53-.582-5.894.827-1.626 1.681-1.65 5.628 2.307 6.074l.004.002c1.686.175 2.847.266 3.79.323.687 15.455.253 11.531.253 16.253 0 1.158.773 2.316 1.195 2.477 1.499 1.282 6.58 2.691 6.324-6.214-.056-2.046.043-2.178-.415-12.655 3.145-.38 4.79.549 6.462-1.091.688-.675 1.052-1.574 1.052-2.568 0-2.704-2.18-3.306-2.18-3.306-1.352-.485-3.956-.401-5.472-.221.087-3.528-.25-7.507-3.875-7.507z" class="st17" id="path5349" fill="#ffcb00" stroke="#fffefe"/><path d="M295.547 292.015c-2.028 0-3.726 1.422-3.726 3.498 0 1.25.16 3.29.16 4.065 0 3.837-.635 8.3-.635 12.196 0 1.13.27 2.884.27 3.859 0 4.765 7.383 4.705 7.383 0 0-1.107-.295-2.644-.295-3.86 0-6.261 3.812-12.144 7.026-12.144.383 0 .427.96.427 1.342 0 6.735-1.038 2.374.73 15.467v-.011c.257 2.238 1.537 3.167 3.645 3.253a.49.49 0 0 0 .176-.03c5.348-.214 3.026-6.906 3.026-8.156-1.02-6.022.3-10.877-1.584-15.068-1.883-4.16-7.538-5.851-13.002-.995-.313-2.093-1.314-3.416-3.601-3.416z" class="st17" id="path5353" fill="#ffcb00" stroke="#fffefe"/><path d="M330.209 300.238c-2.797 1.62-2.864 1.574-7.375 3.537 1.85-4.3 4.133-4.53 7.375-3.537zm-2.41-7.151c-14.752 0-19.206 26.022.613 26.022 4.81 0 8.594-1.877 9.985-3.437 2.426-2.72.842-7.94-5.117-4.398-1.306.778-2.917 1.18-4.868 1.18-3.1 0-4.053-.886-5.053-1.715l6.749-3.005h.002c.71-.317 4.642-2.105 5.193-2.655 4.811-3.35 3.435-8.612-.707-10.656l-.002-.002c-1.837-.9-4.105-1.335-6.795-1.335z" class="st17" id="path5322" fill="#ffcb00" stroke="#fffefe"/><path d="M357.422 292.88c-3.169 0-6.069 1.01-8.699 2.837-.341-1-.705-2.425-3.21-2.425-2.233 0-3.476 1.593-3.476 3.546 0 19.868-.585 20.102.773 21.646 1.263 1.49 3.857 1.442 5.217.082 1.391-1.331 1.054-1.722 1.03-13.873 1.305-2.581 3.357-4.108 6.238-4.728l.08 1.6c0 4.315 4.63 4.07 6.076 2.467 1.11-1.23 1.055-2.957 1.055-4.523 0-3.748-1.306-6.628-5.084-6.628z" class="st17" id="path5365" fill="#ffcb00" stroke="#fffefe"/><g transform="matrix(.99658 0 0 1.00343 -633.037 -26.178)" id="text4500-1-4-9-0"><path d="M683.937 350.504c18.103 8.06 38.346-1.519 38.346 13.37 0 8.716-33.245 18.882-39.178 6.105l-.004-.006c-3.46-7.57-11.78-6.906-15.238-3.09-5.72 6.185-.18 17.11 4.854 19.627 12.915 9.989 37.548 7.134 51.558.817h.002c11.084-5.014 16.967-12.764 16.967-22.739 0-16.254-11.706-25.547-28.398-26.486-10.679-.589-20.813-.2-20.813-4.78 0-4.802 10.772-9.446 18.764-9.51 7.706.004 16.736 5.394 22.178-.716 1.246-1.246 2.324-3.522 2.324-5.957 0-7.009-17.874-10.91-24.508-10.91-25.691-1.428-53.306 31.05-26.854 44.275z" class="st15" id="path4801" fill="#f60" stroke="#fffefe"/></g><path d="M155.057 304.895h.002c-.005.013-.005.013-.002 0z" class="st19" id="path5567" fill="#fff"/><path d="M168.385 299.316c.006.05.009.076 0 0z" class="st19" id="path5650" fill="#fff"/><path d="M168.383 299.459v.016c-.01.02 0 .006 0-.016z" class="st19" id="path5648" fill="#fff"/><path d="M125.072 299.854c-.75.094-1.317.746-1.222 1.496.146 1.155 1.7 1.576 2.472.644v-.002c.797-.947-.039-2.291-1.25-2.138z" class="st20" id="path5492" fill="#ec1b24" stroke="#fff" stroke-width=".5"/><path d="M124.418 303.793c-.614.758.321 6.183.443 7.15.147 1.16 1.59 1.389 2.23.604.554-.555.036-1.547.036-2.322-.467-3.111-.25-3.009-.48-4.838-.053-.42-.322-.762-.463-.817-.513-.388-1.337-.32-1.766.223z" class="st20" id="path5488" fill="#ec1b24" stroke="#fff" stroke-width=".5"/><path d="M133.084 305.393c.182 1.51.29 2.378.336 2.666-.225.295-.643.673-.762.746h-.002c-1.047.644-2.695.021-2.87-1.367-.191-1.509.253-2.511 1.761-2.702.662 0 1.046-.03 1.537.657zm.656-7.383c-1.386.175-1.101 1.456-.834 4.6-2.167-.873-6.003.754-5.447 5.152.44 3.476 4.269 4.682 6.856 2.707 1.01.98 2.227-.084 1.883-1.164h-.002c-.818-2.52-.866-8.23-1.122-10.254-.08-.637-.6-1.134-1.334-1.041z" class="st20" id="path5437" fill="#ec1b24" stroke="#fff" stroke-width=".5"/><path d="M139.862 303.78c.343-.044.574.027.832.072-.322.244-.639.487-1.112.779h.004l-1.15.682c.26-.814.426-1.407 1.426-1.534zm-.282-2.23c-2.688.34-3.95 2.824-3.613 5.495.453 3.588 4.647 3.958 7.201 2.451 2.227-1.32 1.046-3.641-.974-2.066-.8.624-2.29.92-3.356.24 3.016-1.827 4.779-2.629 4.582-4.186-.223-1.763-2.062-2.158-3.84-1.933z" class="st20" id="path5439" fill="#ec1b24" stroke="#fff" stroke-width=".5"/><path d="M147.883 302.766c.345-.044.576.027.834.072-.887.676-.961.69-2.26 1.46.26-.812.426-1.406 1.426-1.532zm-.281-2.229c-1.324.167-2.34.834-2.992 1.965v.002c-1.032 1.797-1.094 4.972 1.095 6.229 2.549 1.463 6.909-.103 6.666-2.022-.104-.824-.89-1.282-2.156-.295-.78.609-2.274.93-3.355.24 3.092-1.873 4.777-2.637 4.582-4.185-.109-.858-.634-1.475-1.499-1.774h-.002c-.655-.224-1.435-.274-2.34-.16z" class="st20" id="path5441" fill="#ec1b24" stroke="#fff" stroke-width=".5"/><path d="M155.979 299.473c-1.196.15-1.077 1.375-.922 2.375-.424.073-1.509.192-1.854.373h-.002c-.675.357-.749 1.505.256 1.842h.002c.626.206 1.218.073 1.879-.041.004.03.155 1.13.162 1.16l.014-.004c.235 1.462 2.494 1.076 2.317-.326a80.46 80.46 0 0 1-.077-.672c0-.043-.058-.462-.064-.504.317-.043 1.483-.16 1.547-.166 1.21-.114 1.404-1.633.46-2.047-.673-.294-1.51-.039-2.22.051v-.002l-.085.008-.051-.357.002.002c-.09-.677.099-1.114-.504-1.498a1.258 1.258 0 0 0-.86-.194z" class="st20" id="path5520" fill="#ec1b24" stroke="#fff" stroke-width=".5"/><path d="M165.283 298.133c-1.305.165-2.27.39-2.912.697-2.114 1.01-1.888 3.356-.06 4.33l.002.002c.353.185 1.063.43 2.172.764 1.696.508 1.133 1.017-.262 1.193-.503.064-1.513-.26-2.092-.187-1.389.175-1.411 1.92.475 2.369 1.381.328 3.246.04 4.392-.799v-.002c.797-.588 1.16-1.393 1.041-2.33-.202-1.603-2.098-2.173-3.644-2.664v-.002c-.264-.083-1.232-.396-1.041-.596.29-.31 1.673-.48 2.111-.467.218.395.365.543.99.506.378.159.99-.313.819-1.67-.14-1.104-.948-1.276-1.99-1.144z" class="st20" id="path5524" fill="#ec1b24" stroke="#fff" stroke-width=".5"/><path d="M172.086 299.98c1.144-.144 2.535 4.566-1.228 3.948a55.462 55.462 0 0 0-.455-2.906c.268-.302.54-.55.812-.715h.002c.291-.183.579-.29.87-.326zm-3.424-2.525c-.428.054-.769.319-.965.733v.002c-.24.52-.146 1.379-.146 1.115-.019.065-.016.084-.016.084.001.041.018.08.014.068.569 1.973 1.332 8.936 1.49 10.192.205 1.617 2.68 1.305 2.475-.313l-.363-2.925c1 .053.518-.016 1.2-.016v-.002c.03-.003.042 0 .083-.023 6.04-.865 3.109-11.893-2.525-8.053-.207-.7-.689-.932-1.246-.862z" class="st20" id="path5447" fill="#ec1b24" stroke="#fff" stroke-width=".5"/><path d="M175.455 294.828c.148 1.168 1.703 1.575 2.473.645a1.276 1.276 0 0 0-.238-1.883c-.979-.71-2.382.077-2.235 1.238z" class="st20" id="path5540" fill="#ec1b24" stroke="#fff" stroke-width=".5"/><path d="M176.863 296.816c-.43.055-.781.32-.84.458-.42.519-.2.796-.107 2.613.068 1.303.147 1.83.344 3.14.158 1 .091 2.636 1.596 2.446 1.535-.194 1.033-1.77.875-2.77l.002.002c-.464-3.08-.388-5.442-.944-5.654a1.245 1.245 0 0 0-.925-.234z" class="st20" id="path5536" fill="#ec1b24" stroke="#fff" stroke-width=".5"/><path d="M182.988 298.33c.344-.043.575.028.833.072-.617.47-.613.483-2.258 1.461.26-.813.425-1.406 1.425-1.533zm-.28-2.228c-4.898.618-5.417 9.566 1.31 8.716 4.932-.623 3.881-4.847 1.302-2.837-.78.61-2.276.928-3.355.24 3.092-1.874 4.778-2.638 4.582-4.186-.108-.857-.634-1.475-1.498-1.773h-.002c-.656-.225-1.436-.275-2.34-.16z" class="st20" id="path5451" fill="#ec1b24" stroke="#fff" stroke-width=".5"/><path d="M187.867 291.084c-1.772.224-1.094 1.472.23 11.947.092.722.683 1.162 1.393 1.073 1.638-.207 1.095-1.284-.26-11.998a1.138 1.138 0 0 0-.456-.803v-.002a1.242 1.242 0 0 0-.907-.217z" class="st20" id="path5552" fill="#ec1b24" stroke="#fff" stroke-width=".5"/><path d="M129.037 335.268c3.221 0 3.12 4.548 3.12 7.797 0 5.905-3.553 7.196-9.19 5.521-.01-3.479-.105-6.95-.299-10.414 1.82-1.583 3.949-2.904 6.37-2.904zm-10.902-10.383c-1.765 0-3.427 1.286-3.713 2.144-1.279 2.053-1.082 4.782-1.082 4.03 0 0 .709 1.737.709 36.806 0 5.767 8.826 5.753 8.826 0l.025-10.433c11.833 2.145 18.08-5.086 18.08-14.367 0-16.491-10.556-18.755-18.726-14.66-.38-2.31-2.175-3.52-4.12-3.52z" class="st15" id="path4720" fill="#f60" stroke="#fffefe"/><path d="M206.053 296.831c-.832-.009-.529.68-1.203 4.322-.242 1.308-.544 1.865.029 2.295-.263.118-.384.37-.428.61-.298 1.344 1.131 1.564 1.332.504.07-.37.005-.772-.305-1.034.508-.24.973-3.998 1.05-4.554h.001c.12-.879.413-2.133-.476-2.143zm-7.84 4.37c-.64.007-.826 1.16-.937 1.798-.181.128-.345.22-.385.233v.004c-.384.21-.52.745-.04 1.066.077.038.112 0 .192.014-.078.892-.196 2.267.61 2.725.491.279 1.188.111 1.58-.942.532.543 1.57.483 2.363-.923.198.692 1.11.687 1.262-.301.752 1.596 2.17.268 1.234-.371l.022.014c-.469-.367-.244-1.617.006-2.114.31-.934-.552-1.593-1.29-.412-.774-.65-1.012.465-1.146 1.465-.287-.09-.543.016-.69.41.108-.362.233-.728.114-1.045-.277-.736-1.31-.763-1.978.768v.002a3.559 3.559 0 0 0-.227.693c-.496.108-.472.551-.621 1.055-.03-.401-.101-.5.121-1.682.15-.116.298-.23.385-.293v-.002c.193-.141.363-.228.303-.205.913-.312.49-1.434-.309-1.179 0-.004.003-.01.004-.013 0-.562-.257-.772-.572-.766zm-2.324 2.693c-.459.017-1.045.372-1.393 1.474v.004a.462.462 0 0 0-.234.038c.006-.208.105 0 .008-.258l-.158-.174c-.59-.374-.83.013-1.163.545-.75-.605-1.157.587-1.273 1.687-.29-.078-.528.029-.672.415.182-.613.322-1.219-.303-1.467-.788-.313-1.341.62-1.644 1.412-.22-.484-.566-.597-.998-.494.142-.953-.026-.128.267-1.543l.002-.004c.063-.347.21-.737.087-1.063h.002c-.164-.436-.848-.647-1.127-.123-.073.137-.106.31-.106.31-.308 1.65-.71 4.182-.71 5.911-.069 1.12.96 1.23 1.142.518.118-.001.233.065.344.023.55-.207.867-.77 1.084-1.535.455.883 1.706.922 2.587-.685.059 1.035 1.132.909 1.237.052 0-.606.227-1.014.449-1.54.385.095.724-.08 1.014-.352.19 1.401 1.414 1.526 1.882.582.081.065.01.054.112.13 1.349.54 1.696-1.058.547-1.15 0 0-.147-.18 0-1.488.03-.263-.073-.341-.168-.451-.012-.542-.384-.791-.814-.774zm-12.649 2.937c-.64.008-.825 1.161-.937 1.801-.173.122-.106.082-.38.228-.35.348-.267.348-.314.772-.017.154.147.22.27.303.177.044.049-.016.192.012-.072.812-.188 1.67.26 2.369-.166-.11-.179-.1-.4-.135.014.002.004.01-.038-.037-.286-.307-.065-.926-.065-1.37 0-.84-.745-1.139-1.111-.452-.052-.043-.082-.114-.137-.133h-.002c-.633-.222-.963.541-1.115 1.195a.55.55 0 0 0-.346.004c-.105.04-.096.129-.148.2-.02-.02-.038-.056-.057-.07-.047-1.551-1.67-1.331-2.275.603v-.006c-.33 1.009-.502 2.477.572 2.613-.697.872-1.345 1.595-.951 2.642v.002c.35.934 1.61.907 2.12-.504v-.002c.252-.695.305-1.595.355-2.324.298-.398.554-.824.757-1.285.318.755 1.23.922 1.696-.059.722.621 1.71.075 1.379-.627.529.426 1.38.309 1.806-1.16v-.002c.085-.285.254-.882.149-1.162-.2-.53-.975-.456-1.079.22-.04.224-.086.344-.13.497-.03-.4-.103-.486.12-1.676.534-.415.686-.5.686-.5.23-.078.342-.181.418-.295l.002-.006c.265-.397-.049-1.093-.728-.875.074-.483-.234-.788-.568-.782zm-7.558 7.63c-.005-.001-.09.017-.176.017-.717.266-.691 1.493-.166 1.771 1.089.576 1.413-1.783.342-1.789zm-2.114.745c-.569.212-.643.947-.472 1.4.355.945 1.69.27 1.219-.982-.169-.448-.393-.418-.747-.418zm-1.761.711c-.004 0-.09.018-.178.018-.706.27-.7 1.487-.164 1.771 1.074.569 1.44-1.775.342-1.789z" class="st19" id="path5038" fill="#fff"/><path d="M171.707 316.374c.322-.12.418.388.36.699-.12.627-.736.394-.562-.356.035-.19.103-.305.202-.343z" id="path4995-9" stroke-width=".2"/><path d="M174.004 316.344c-.108.571-.744.435-.56-.355.118-.652.691-.339.56.355z" id="path4997-9" stroke-width=".2"/><path d="M175.714 315.947c-.46.172-.46-.907-.131-1.03.397-.199.536.877.131 1.03z" id="path4999-7" stroke-width=".2"/><path d="M178.022 313.647c-.571 1.325-1.327.918-1.22-.321.173-2.256 1.845-3.23 1.75-1.535.095.043.149.08.16.111-.095.915-.197.333-.276 1.878.379-.563.62-1.163.722-1.8.047-.239.213-.228.259-.108.217.578-.673 2.113-1.069 2.613-.04.68-.103 1.655-.333 2.295-.592 1.633-1.918.743-1.333-.589.247-.562.884-1.296 1.281-1.764.038-.485.043-.314.06-.78zm-.022-.91l-.091-.073a.156.156 0 0 1 0-.054c.077-.262.114-.16.212-.603.215-.97-.686-.411-.853 1.197-.124 1.188.51.892.732-.468zm-.107 2.326c-1.858 1.76-.307 3.66 0 0z" id="path5001-6" stroke-width=".2"/><path d="M181.873 312.615c1.004.155-.273 1.206-.795-.182-.489 1.7-1.344 1.198-1.342.013-.013-1.867 1.067-2.33.754-1.404-.617 1.735-.11 2.72.297 1.16.125-.497.135-1.431.175-1.552.135-.394.484-.35.478.163-.021.657-.279 1.164.17 1.645.084.09.171.142.263.158z" id="path5003-5" stroke-width=".2"/><path d="M182.113 309.256c.316-.172.198-.098.544-.344.034-.225.298-1.544.51-1.624.462-.173.177.667.057 1.144.298-.212.522-.346.671-.402.298-.112.413.148.322.285 0 0-.398.215-1.15.806-.131.641-.404 2.994.206 2.764.438-.164.547-1.477.695-1.532.576-.217-.164 2.546-1.087 2.022-.677-.384-.454-2.076-.374-2.84-.416.356-.744-.095-.394-.28z" id="path5005-5" stroke-width=".2"/><path d="M187.53 308.062c.774-1.285 1.635-.429 1.173 1.354-.206.778-.705 1.708-1.403 1.328-.016.274-.017.52-.276.403-.192-.087-.166-.292-.152-.52.326-7.225 1.354-6.649 1.166-5.62-.232 1.25-.394 1.74-.507 3.055zm.147 2.263c.262-.099.456-.435.582-1.01.419-1.994-.797-1.718-.943.932a.372.372 0 0 0 .361.078z" id="path5007-7" stroke-width=".2"/><path d="M189.746 308.97c.33.876 1.183-.022 1.581-1.108.118-.35.43-.356.296.135-.232.856-1.119 2.132-1.907 1.775-1.427-.647.555-4.29 1.038-3.008.178.474-.13 1.557-1.008 2.206zm-.03-.394c1.134-.947.693-2.24.185-.925a2.78 2.78 0 0 0-.186.925z" id="path5009-4" stroke-width=".2"/><path d="M192.766 306.221c-.12.358-.22.606-.229.983.117-.273.87-1.822 1.145-1.926.034-.013.149.03.18.05l.072.08c.023.062-.005.158-.084.288-.183.316-.437.922-.096.794.372-.14.676-.984.822-.597.063.168-.356.956-.87 1.15-.387.145-.57-.1-.496-.465-.513.81-.636 1.477-.727 2.356-.047.38-.339.407-.41.218-.079-.21-.058-.705-.05-.931.037-2.812.994-2.735.743-2z" id="path5011-3" stroke-width=".2"/><path d="M196.968 307.055c.194.02.323.327.035.435-.531.2-.76-.259-.918-.765-.291 1.825-1.434 1.354-1.38-.176.08-2.305 1.65-2.711 1.629-1.691.094.07.154.141.152.263-.086.762-.283 1.878.482 1.934zm-.875-2.043c-.737-.657-1.29 1.843-.757 2.25.054.03.105.033.153.008.54-.204.322-1.835.604-2.258z" id="path5013-6" stroke-width=".2"/><path d="M197.085 303.624c.316-.171.198-.097.544-.343.034-.225.298-1.544.51-1.624.462-.173.177.666.057 1.143.298-.211.522-.345.671-.402.298-.112.413.149.322.286 0 0-.45.255-1.15.806-.131.641-.404 2.994.206 2.764.438-.164.547-1.477.695-1.532.23-.087.215.17.174.404-.306 1.903-1.272 2.015-1.567 1.23-.282-.748-.157-1.604-.068-2.452-.416.356-.744-.096-.394-.28z" id="path5015-0" stroke-width=".2"/><path d="M199.736 305.212c.33.877 1.184-.022 1.582-1.107.16-.48.582-.365.112.61-.33.703-1.036 1.61-1.723 1.3-.944-.429-.358-2.858.568-3.206.85-.32.641 1.617-.539 2.403zm-.03-.394c1.134-.947.694-2.24.186-.925-.115.3-.177.608-.186.925z" id="path5017-6" stroke-width=".2"/><path d="M202.42 302.28c.458-.172.192.615.111 1.09.135-.241.746-1.466 1.004-1.563.17-.064.362.078.216.518-.288.799-.544 2.025.125 2.549.33.225-.033.6-.403.29-.52-.45-.524-1.377-.392-2.064-.314.441-.459.708-.623 1.837-.073.539-.53.445-.512.032-.032-.301.183-2.58.474-2.689z" id="path5019-7" stroke-width=".2"/><path d="M206.186 298.663c-.218 1.588-.711 5.667-1.201 4.362-.077-.205.08-.81.125-1.03.497-2.684.282-1.658.655-4.167.014-.212-.006-.468.191-.542.492-.185.298.858.23 1.377zm-1.142 5.173c.32-.12.418.385.359.698-.12.627-.735.395-.561-.355.034-.191.102-.306.202-.343z" id="path5021-7" stroke-width=".2"/></g></svg>