<svg xmlns="http://www.w3.org/2000/svg" width="400" height="300" viewBox="0 0 105.83333 79.375002"><text style="line-height:6.61458302px;font-variant-ligatures:normal;font-variant-caps:normal;font-variant-numeric:normal;text-align:start" x="3.498" y="274.924" textLength="99" transform="translate(-.154 -217.625)" font-weight="400" font-size="6.914" font-family="Times New Roman" letter-spacing="0" word-spacing="0" stroke-width=".265">WERBE- &amp; TEXTILSIEBDRUCK</text><text style="line-height:6.61458349px;font-variant-ligatures:normal;font-variant-caps:normal;font-variant-numeric:normal;text-align:start" x="16.926" y="284.053" textLength="72" transform="translate(.064 -217.625)" font-weight="400" font-size="6.914" font-family="Times New Roman" letter-spacing="0" word-spacing="0" stroke-width=".265">www.siebdruck-ketzler.de</text><text style="line-height:6.61458349px;font-variant-ligatures:normal;font-variant-caps:normal;font-variant-numeric:normal;text-align:start" x="25.159" y="293.34" textLength="55" transform="translate(.063 -217.625)" font-weight="400" font-size="6.914" font-family="Times New Roman" letter-spacing="0" word-spacing="0" stroke-width=".265">86343 Königsbrunn</text><path d="M1.579 48.733c-.201-.375.098-.664.935-.903l.578-.165V37.427l-.7-.258c-.742-.275-1.04-.601-.84-.923.09-.148.997-.186 3.635-.153 3.51.043 3.515.043 3.566.404.042.296-.083.42-.686.678l-.737.316.045 2.127.044 2.127.722.042c.396.023.798-.013.892-.08.158-.113 2.908-3.724 3.17-4.164.076-.127-.074-.275-.43-.424-.638-.266-.787-.454-.65-.812.087-.226.42-.253 2.605-.215l2.506.044v.384c0 .305-.133.43-.641.606-.441.152-1.154.731-2.284 1.856-.904.9-1.643 1.728-1.643 1.842 0 .113.999 1.701 2.22 3.529 1.786 2.676 2.325 3.37 2.764 3.563.678.298.838.902.275 1.04-.204.05-1.741.071-3.416.046l-3.045-.045v-.399c0-.279.136-.463.453-.615.27-.13.418-.305.369-.434-.19-.494-2.556-4.094-2.77-4.214-.128-.071-.447-.098-.709-.06l-.477.07.045 2.171.044 2.17.55.186c.627.21.91.56.763.943-.089.231-.504.262-3.546.262-3.217 0-3.455-.02-3.607-.304zm16.988 0c-.201-.375.097-.664.935-.903l.578-.165V37.42l-.641-.207c-.771-.249-1.119-.63-.86-.944.143-.17 1.373-.213 6.159-.213 3.29 0 6.018.061 6.065.136.046.075.133 1.121.194 2.324.105 2.097.097 2.187-.202 2.187-.215 0-.668-.517-1.463-1.672-1.296-1.883-1.125-1.796-3.723-1.89l-1.202-.043-.044 2.363-.045 2.364.365-.002c.2 0 .646-.048.989-.105.576-.095.653-.172 1.024-1.031.42-.973.729-1.234 1.097-.929.318.264.318 4.831 0 5.095-.358.297-.69.045-1.055-.803-.377-.876-.743-1.103-1.78-1.103h-.631v4.968h.696c.384 0 1.358-.047 2.167-.104l1.47-.105 1.239-1.972c1-1.592 1.311-1.973 1.614-1.979.373-.008.374 0 .265 1.395-.198 2.504-.37 3.61-.588 3.747-.117.074-2.968.136-6.337.137-5.848.002-6.131-.01-6.286-.301zm17.408.2c-.208-.208-.108-.686.174-.838.156-.083.553-.202.882-.264l.598-.112V36.981l-.601.107c-.33.059-.71.14-.842.181-.132.041-.751.993-1.376 2.115-.839 1.507-1.216 2.04-1.442 2.04-.291 0-.304-.126-.255-2.48.03-1.42.123-2.57.22-2.685.248-.3 12.674-.295 12.922.004.101.122.192 1.227.22 2.68.064 3.299-.059 3.335-1.66.485-.647-1.151-1.285-2.125-1.417-2.163a11.33 11.33 0 0 0-.844-.178l-.603-.106.043 5.333.042 5.334.4.12c.22.065.604.164.852.218.377.084.442.171.4.535l-.05.435-3.776.043c-2.077.024-3.826-.006-3.887-.066zm11.756-.206c-.237-.441-.024-.9 1.252-2.705 2.935-4.152 5.978-8.56 6.065-8.786.086-.224-.1-.24-1.65-.143-.96.06-1.855.143-1.987.183-.132.041-.68.77-1.216 1.622-1.615 2.563-1.94 2.49-1.676-.377.097-1.047.215-2.03.263-2.185.08-.26.484-.28 5.505-.28 5.924 0 5.951.004 5.62.876-.09.238-.53.95-.976 1.582-3.598 5.095-6.284 9.006-6.35 9.243-.057.212.184.228 1.887.126 1.074-.064 1.997-.16 2.05-.214.054-.054.646-.976 1.316-2.05.868-1.39 1.317-1.965 1.564-2.002.29-.043.347.028.347.438 0 1.169-.373 4.6-.52 4.782-.123.153-1.47.2-5.745.2-5.356 0-5.59-.013-5.75-.31zm13.666.048c-.155-.403.148-.739.842-.933l.63-.177.043-5.157.042-5.157-.624-.168c-.709-.19-1.062-.529-.926-.885.08-.206.636-.242 3.767-.242 3.245 0 3.686.03 3.774.26.147.384-.145.643-.952.846-.394.1-.717.234-.717.298-.005.622-.01 9.968-.005 10.197.006.283.105.295 1.567.187.859-.063 1.651-.189 1.76-.28.11-.09.724-.995 1.364-2.01 1.166-1.849 1.448-2.147 1.747-1.849.193.194-.294 4.827-.54 5.132-.124.153-1.506.2-5.917.2-5.18 0-5.764-.026-5.855-.262zm13.597.12c-.41-.26-.122-.724.618-.997l.72-.266.042-5.144.042-5.144-.718-.181c-.701-.177-1.04-.573-.81-.945.065-.105 2.236-.162 6.095-.162 5.547 0 6.006.02 6.14.28.079.155.193 1.206.254 2.336l.11 2.056-.37-.052c-.262-.038-.682-.515-1.455-1.655-1.221-1.803-1.104-1.74-3.52-1.897l-1.403-.09v2.395c0 2.698-.097 2.528 1.31 2.296.533-.089.624-.183.989-1.024.44-1.013.588-1.17.972-1.023.218.084.255.463.255 2.628 0 2.189-.036 2.544-.261 2.63-.366.14-.66-.154-1.04-1.034-.341-.794-.639-.955-1.764-.955h-.461v4.968h.616c.34 0 1.287-.047 2.106-.105l1.488-.106 1.2-1.858c1.347-2.085 1.607-2.368 1.895-2.059.225.243-.168 4.714-.445 5.047-.13.158-1.538.203-6.279.2-3.36 0-6.207-.063-6.326-.139zm14.576-.078c-.307-.37-.02-.731.762-.959l.744-.217.042-5.084.042-5.084-.797-.337c-.8-.338-1.106-.688-.836-.957.081-.082 2.26-.121 5.013-.09 4.594.05 4.92.074 5.76.411 1.573.63 2.395 1.723 2.395 3.183 0 1.165-.574 2.004-1.788 2.61-.543.272-1.117.494-1.274.494-.157 0-.33.072-.384.16-.054.088.031.162.19.164.49.006 1.583.576 2.031 1.06.234.251.693 1.134 1.02 1.96.458 1.157.688 1.542 1 1.674.728.308.975.598.796.932-.145.27-.374.3-2.363.3-1.698 0-2.28-.055-2.545-.24-.237-.166-.555-.894-1.023-2.345-.83-2.566-1.088-2.917-2.167-2.933l-.785-.011V47.647l.55.184c.626.211.91.561.762.944-.088.231-.503.262-3.531.262-2.714 0-3.47-.046-3.614-.22zm8.49-7.14c.433-.433.468-.557.468-1.659 0-1.403-.204-2.09-.689-2.324-.491-.237-1.5-.36-2.052-.249l-.464.093v4.608h1.134c1.04 0 1.173-.04 1.602-.469z"/><g transform="translate(-1.166 -217.625)"><circle r="13.764" cy="236.055" cx="54.083" fill="#fa5915"/><path d="M48.853 235.862l6.332-8.22c.661-.75 1.354-.752 1.878-.49.562.278.939.534 1.145.678.537.274.292.684-.189 1.134l-5.163 4.936c-.44.41-.436.901.06 1.49l6.048 8.693c.364.692.363 1.208-.472 1.323h-4.158c-.85.019-1.164-.421-1.6-1.028l-4.03-6.22c-.495-.837-.422-1.548.15-2.296z" fill="#fff" stroke="#fff" stroke-width=".1"/></g></svg>