<svg xmlns="http://www.w3.org/2000/svg" id="svg2737" width="400" height="300" viewBox="0 0 400 300"><style id="style2">.st0{fill:#18408c}.st1{fill:#fff;stroke:#fff;stroke-width:.05722}.st2{fill:none}.st3{fill:#2e3091}.st4{stroke:#000;stroke-width:.39619}</style><g id="layer1" transform="translate(0 -217.625)"><path id="path1014" class="st0" d="M9.611 439.364c-.04-.043-.083-56.696.435-59.54 1.947-10.689 10.965-20.312 23.046-22.289 12.732-2.082 26.373 5.884 30.58 19.06 1.569 4.912 1.177 2.1 1.23 62.783-.028 0-55.27.004-55.29-.015zm29.17-30.685c21.823-1.574 30.314-28.997 13.302-42.491-17.634-13.989-42.592 1.97-38.154 23.546C16.364 401.577 27.44 409.5 38.78 408.68zM23.9 395.902c-.5-.128-1.157-.438-1.36-.641-.142-.142-.15-.443-.15-5.977 0-5.266-.257-7.974 1.423-10.022.821-1.002.59-10.046 15.99-8.681 10.51.929 9.83 7.19 10.994 8.756 1.641 2.21 1.346 3.62 1.35 15.86-1.433.908-2.772 1.164-4.456.03l-.081-3.427c-1 .046-11.244 1.122-19.658.078-.516-.064-.966-.089-1-.054-.082.081-.105 3.287-.107 3.402-1.067.72-2.134.882-2.946.674zm15.67-4.96c2.678-.085 3.884-.167 6.07-.416 1.819-.207 4.21-.606 4.324-.72.132-.132-.144-.386-.523-.482 0 0-12.762 1.204-22.682.066-1.497-.171-1.842-.144-2.123.166-.905 1 11.007 1.515 14.935 1.387zm3.895-4.071c-.142-.142-12.251-.142-12.393 0-.145.145-.12.454.045.55.166.096 12.105.171 12.317-.04.129-.084.188-.353.03-.51zm-14.243.11c.65-.273.842-1.813-.16-2.256-.406-.18-.99-.27-2.683-.411-1.348-.113-1.349-.113-1.624.427-1.032 2.022 3.391 2.689 4.467 2.239zm18.79-.089c1.063-.29 1.785-.819 1.892-1.385.063-.34-.126-.922-.372-1.145-.193-.174-3.5.016-4.234.465-.763.467-.625 1.924.063 2.173.378.136 2 .07 2.651-.107zm-4.607-1.348c.191-.103.207-.427.03-.605-.212-.212-12.111-.143-12.303-.043-.18.096-.216.479-.06.634.13.13 12.09.143 12.333.015zm-17.237-6.696c11.797-1.504 23.6.113 23.6.113.15-.15-.823-3.04-2.603-4.777-2.617-2.553-5.468-2.158-9.202-2.186-5.679-.044-10.48-.726-12.953 6.013-.468 1.277-.404 1.035 1.158.837z" fill="#18408c"/><path id="circle1929" class="st2" d="M21.62 399.862c8.253 8.818 22.092 9.275 30.91 1.021 8.818-8.254 9.275-22.093 1.022-30.91-8.254-8.818-22.093-9.276-30.911-1.022-8.818 8.254-9.275 22.093-1.021 30.91z" fill="none"/><path id="path117" class="st0" d="M24.557 400.299l.334-.389 1.405 1.206-1.058 1.228c-1.875-.07-2.895-1.549-2.605-2.758.307-1.274 2.03-2.799 3.703-1.358.824.71.867 1.427.51 2.15l-.49-.233c.591-1.306-.922-2.347-1.99-1.812-2.033 1.03-1.26 3.448.633 3.42l.531-.616z" fill="#18408c"/><path id="path119" class="st0" d="M26.152 403.63l2.008-3.88 2.805 1.452-.236.458-2.293-1.186-.615 1.188 2.147 1.111-.236.456-2.146-1.111-.684 1.32 2.383 1.233-.237.458z" fill="#18408c"/><path id="path121" class="st0" d="M31.169 405.892l-.175-4.517.579.13c.021 2.912.036 3.232.006 3.853.474-.97.2-.432 1.826-3.442l.68.153c.113 2.037.198 2.878.12 3.878.22-.494 1.439-2.934 1.704-3.469l.567.127-2.126 4.001-.544-.122c-.006-.138-.191-3.842-.19-3.98-.198.415-1.632 3.071-1.871 3.518z" fill="#18408c"/><path id="path123" class="st0" d="M36.784 406.827l-.149-4.367 3.157-.108.018.516-2.58.087.046 1.338 2.416-.082.017.512-2.416.082.051 1.487 2.68-.092.018.516z" fill="#18408c"/><path id="path125" class="st0" d="M41.526 406.5l-1.117-4.224c1.862-.492 3.309-1.151 3.682.26.184.697-.22 1.187-.886 1.464.69.132 1.497 1.013 2.044 1.516l-.703.186c-1.84-1.7-1.57-1.592-2.957-1.225l.496 1.875zm-.065-2.507c.573-.152 1.864-.355 2.042-.895.101-.316-.013-.682-.338-.845-.397-.202-1.614.22-2.073.342z" fill="#18408c"/><path id="path127" class="st0" d="M46.36 405.02l-2.036-3.867c1.092-.575 2.593-1.701 3.252-.45.173.327.163.73-.108 1.105 1.04-.21 1.643.858 1.278 1.628-.292.615-1.191.954-2.386 1.583zm-.67-2.512c.737-.388 1.8-.748 1.415-1.479-.403-.764-1.243-.103-2.03.311zm.941 1.785c.848-.446 1.963-.826 1.528-1.653-.43-.814-1.414-.105-2.228.324z" fill="#18408c"/><path id="path129" class="st0" d="M50.51 402.629l-2.821-3.337 2.412-2.04.333.394-1.97 1.667.863 1.022 1.846-1.561.33.391-1.845 1.561.96 1.135 2.049-1.732.333.394z" fill="#18408c"/><path id="path88" class="st0" d="M20.074 382.692l-4.266-.941.124-.565 2.116.467-1.648-2.586.169-.765 1.334 2.171 2.95-1.308-.165.745-2.494 1.043.527.848 1.478.327z" fill="#18408c"/><path id="path90" class="st0" d="M20.993 378.864l-3.93-1.91.847-1.742c.949-1.954 2.797-.823 2.283.749.546-.433 1.26-.417 2.483-.56l-.318.654c-2.557.293-2.244.179-2.858 1.441l1.746.848zm-1.943-1.587c.262-.538.947-1.645.654-2.13-.297-.486-.958-.551-1.35.255l-.604 1.244z" fill="#18408c"/><path id="path92" class="st0" d="M22.634 375.484l-2.314-4.068.395-.482 4.513 1.389-.418.51-1.347-.446-1.158 1.412.718 1.21zm-.588-2.112l.94-1.146c-.49-.165-1.65-.545-2.122-.75.405.494.83 1.288 1.182 1.896z" fill="#18408c"/><path id="path94" class="st0" d="M25.51 372.146l-2.713-3.424 2.31-1.831.32.404-1.857 1.472.84 1.06 1.608-1.274.32.405-1.607 1.273 1.233 1.556z" fill="#18408c"/><path id="path96" class="st0" d="M29.312 369.519l-1.73-3.443-1.287.646-.232-.46 3.095-1.556.231.46-1.291.65 1.73 3.443z" fill="#18408c"/><path id="path98" class="st0" d="M31.581 368.487l-1.164-4.211 2.841-.786.138.497-2.284.632.36 1.304 1.977-.547.137.497-1.976.547.529 1.913z" fill="#18408c"/><path id="path100" class="st0" d="M34.19 367.71l1.398-4.467.621-.04 2.063 4.247-.658.042-.592-1.288-1.824.116-.394 1.351zm1.145-1.87l1.478-.095c-.212-.47-.727-1.58-.899-2.063-.084.633-.25 1.071-.58 2.157z" fill="#18408c"/><path id="path102" class="st0" d="M38.587 367.506l.734-4.308.57.097-.301 1.77 2.239.38.3-1.768.57.097-.733 4.307-.57-.097.346-2.03-2.239-.382-.346 2.03z" fill="#18408c"/><path id="path104" class="st0" d="M42.74 368.308l1.752-4.002 1.774.777c1.992.872.93 2.762-.657 2.312.454.528.466 1.241.657 2.458l-.666-.292c-.358-2.31-.197-2.205-1.553-2.798l-.778 1.777zm1.508-2.004l1.138.499c1.331.583 1.88-.755.709-1.268l-1.267-.555z" fill="#18408c"/><path id="path106" class="st0" d="M46.275 369.908l.32-.43c.487-.13 3.64-.982 4.137-1.063l-1.959-1.452.307-.414 2.514 1.864-.307.414c-.61.158-3.556.925-4.171 1.063l2.24 1.661-.306.414z" fill="#18408c"/><path id="path108" class="st0" d="M49.38 372.293l3.288-2.878 2.08 2.377-.387.34-1.7-1.942-1.007.882 1.592 1.818-.386.338-1.592-1.819-1.119.98 1.767 2.018-.388.34z" fill="#18408c"/><path id="path110" class="st0" d="M57.094 375.761l.27.512c-2.115 1.117-3.707 2.496-4.727.566-.976-1.847.572-2.257 3.122-3.605l.27.511c-2.623 1.386-3.571 1.637-2.954 2.805.648 1.227 1.271.663 4.019-.789z" fill="#18408c"/><path id="path112" class="st0" d="M55.943 380.649l.5-.118.428 1.8-1.578.373c-2.333-1.832-.867-4.893 1.803-4.306 1.608.358 2.264 2.813.653 3.659l-.26-.475c1.369-.78.617-3.083-1.44-2.597-1.906.45-1.602 2.397-.602 3.101l.792-.187z" fill="#18408c"/><text style="-inkscape-font-specification:Arial" x="41.243" y="467.358" id="text4732" textLength="318" transform="translate(-.357)" font-weight="400" font-size="21.333" font-family="Arial" fill="#00000f">Hauptstr. 49a, 86866 Mickhausen</text><text style="-inkscape-font-specification:Arial" x="121.034" y="442.1" id="text4732-3" textLength="158" transform="translate(-.274)" font-weight="400" font-size="21.333" font-family="Arial" fill="#00000f">Inh. Markus Wall</text><text style="-inkscape-font-specification:'Arial Bold'" x="10.012" y="344.054" id="text4780" textLength="385" transform="translate(-2.583)" font-weight="700" font-size="16" font-family="Arial">Reparaturen aller Fabrikate - Unfallinstandsetzung</text><text style="-inkscape-font-specification:'Arial Bold'" x="124.661" y="369.132" id="text4780-0" textLength="156" transform="translate(-2.02)" font-weight="700" font-size="16" font-family="Arial">Autoglas - TÜV + AU</text><text style="-inkscape-font-specification:'Arial Bold'" x="80.442" y="391.866" id="text4780-0-6" textLength="243" transform="translate(-2.551)" font-weight="700" font-size="16" font-family="Arial">Gebrauchtwagen An- u. Verkauf</text><text style="line-height:125%;-inkscape-font-specification:sans-serif" x="21.651" y="274.488" id="text4828-9" font-weight="400" font-size="13.75" font-family="sans-serif" letter-spacing="0" word-spacing="0" fill="#2e3091"><tspan id="tspan4826-0" x="21.651" y="274.488" style="-inkscape-font-specification:'Arial Bold Italic'" font-style="italic" font-weight="700" font-size="32" font-family="Arial"><tspan id="tspan4830-7" font-size="42.667">K</tspan></tspan></text><text style="line-height:125%;-inkscape-font-specification:sans-serif" x="52.722" y="274.488" id="text4828-8" font-weight="400" font-size="13.75" font-family="sans-serif" letter-spacing="0" word-spacing="0" fill="#2e3091"><tspan id="tspan4826-9" x="52.722" y="274.488" style="-inkscape-font-specification:'Arial Bold Italic'" font-style="italic" font-weight="700" font-size="32" font-family="Arial">FZ -</tspan></text><text style="line-height:125%;-inkscape-font-specification:sans-serif" x="118.508" y="273.967" id="text4828-0" font-weight="400" font-size="13.75" font-family="sans-serif" letter-spacing="0" word-spacing="0" fill="#2e3091"><tspan id="tspan4826-1" x="118.508" y="273.967" style="-inkscape-font-specification:'Arial Bold Italic'" font-style="italic" font-weight="700" font-size="32" font-family="Arial"><tspan id="tspan4834-8" font-size="42.667">S</tspan></tspan></text><text style="line-height:125%;-inkscape-font-specification:sans-serif" x="145.651" y="274.082" id="text4828-00" font-weight="400" font-size="13.75" font-family="sans-serif" letter-spacing="0" word-spacing="0" fill="#2e3091"><tspan id="tspan4826-7" x="145.651" y="274.082" style="-inkscape-font-specification:'Arial Bold Italic'" font-style="italic" font-weight="700" font-size="32" font-family="Arial">ERVICE</tspan></text><text style="line-height:125%;-inkscape-font-specification:sans-serif" x="277.579" y="274.488" id="text4828-84" font-weight="400" font-size="13.75" font-family="sans-serif" letter-spacing="0" word-spacing="0" fill="#2e3091"><tspan id="tspan4826-3" x="277.579" y="274.488" style="-inkscape-font-specification:'Arial Bold Italic'" font-style="italic" font-weight="700" font-size="32" font-family="Arial"><tspan id="tspan4836-9" font-size="42.667">W</tspan></tspan></text><text style="line-height:125%;-inkscape-font-specification:sans-serif" x="315.365" y="274.488" id="text4828-2" font-weight="400" font-size="13.75" font-family="sans-serif" letter-spacing="0" word-spacing="0" fill="#2e3091"><tspan id="tspan4826-5" x="315.365" y="274.488" style="-inkscape-font-specification:'Arial Bold Italic'" font-style="italic" font-weight="700" font-size="32" font-family="Arial">ALL</tspan></text><g id="g4743" transform="translate(27.094)" font-weight="400" font-size="13.75" font-family="Arial" letter-spacing="0" word-spacing="0"><text id="text4840" y="311.172" x="100.68" style="line-height:125%;-inkscape-font-specification:Arial"><tspan style="-inkscape-font-specification:'Arial Bold'" y="311.172" x="100.68" id="tspan4838" font-weight="700" font-size="21.333">EISTERBETRIEB</tspan></text><text id="text4840-0" y="311.443" x="73.18" style="line-height:125%;-inkscape-font-specification:Arial"><tspan style="-inkscape-font-specification:'Arial Bold'" y="311.443" x="73.18" id="tspan4838-4" font-weight="700" font-size="21.333"><tspan id="tspan4842-4" font-size="32">M</tspan></tspan></text></g><text id="text4770" y="528.564" x="7.076" style="-inkscape-font-specification:Arial" textLength="388" transform="translate(-.836 -32)" font-weight="400" font-size="21.333" font-family="Arial" fill="#00000f">Tel. 08204 298769 Mobil 0160 97030317</text><text style="-inkscape-font-specification:'Arial Bold'" x="15.58" y="414.812" id="text4781" textLength="43.4" transform="translate(-.045 7.321)" font-weight="700" font-size="6.333" font-family="Arial" fill="#fff">Meisterbetrieb</text><text style="-inkscape-font-specification:'Arial Bold'" x="15.338" y="435.435" id="text4781-9" textLength="43.4" transform="translate(.372 -7.366)" font-weight="700" font-size="6.333" font-family="Arial" fill="#fff">der Kfz-Innung</text></g></svg>