<svg id="svg2737" xmlns="http://www.w3.org/2000/svg" width="400" height="300" viewBox="0 0 400 300"><style>.st0{fill:#18408c}.st1{fill:#fff;stroke:#fff;stroke-width:.05722}.st2{fill:none}.st3{fill:#2e3091}.st4{stroke:#000;stroke-width:.39619}</style><g id="layer1" transform="translate(0 -217.625)"><path id="path1014" class="st0" d="M9.611 439.364c-.04-.043-.083-56.696.435-59.54 1.947-10.689 10.965-20.312 23.046-22.289 12.732-2.082 26.373 5.884 30.58 19.06 1.569 4.912 1.177 2.1 1.23 62.783-.028 0-55.27.004-55.29-.015v.001zm29.17-30.685c21.823-1.574 30.314-28.997 13.302-42.491-17.634-13.989-42.592 1.97-38.154 23.546C16.364 401.577 27.44 409.5 38.78 408.68zM23.9 395.902c-.5-.128-1.157-.438-1.36-.641-.142-.142-.15-.443-.15-5.977 0-5.266-.257-7.974 1.423-10.022.821-1.002.59-10.046 15.99-8.681 10.51.929 9.83 7.19 10.994 8.756 1.641 2.21 1.346 3.62 1.35 15.86-1.433.908-2.772 1.164-4.456.03l-.081-3.427c-1 .046-11.244 1.122-19.658.078-.516-.064-.966-.089-1-.054-.082.081-.105 3.287-.107 3.402-1.067.72-2.134.882-2.946.674v.002zm15.67-4.96c2.678-.085 3.884-.167 6.07-.416 1.819-.207 4.21-.606 4.324-.72.132-.132-.144-.386-.523-.482 0 0-12.762 1.204-22.682.066-1.497-.171-1.842-.144-2.123.165-.905 1 11.007 1.516 14.935 1.388zm3.895-4.071c-.142-.142-12.251-.142-12.393 0-.145.145-.12.454.045.55.166.096 12.105.171 12.317-.04.129-.084.188-.353.03-.51zm-14.243.11c.65-.273.842-1.813-.16-2.256-.406-.18-.99-.27-2.683-.411-1.348-.113-1.349-.113-1.624.427-1.032 2.022 3.391 2.689 4.467 2.239zm18.79-.089c1.063-.29 1.785-.819 1.892-1.385.063-.34-.126-.922-.372-1.145-.193-.174-3.5.016-4.234.465-.763.467-.625 1.924.063 2.173.378.136 2 .07 2.651-.107zm-4.607-1.348c.191-.103.207-.427.03-.605-.213-.212-12.111-.143-12.303-.043-.18.096-.216.479-.06.634.13.13 12.09.143 12.333.015v-.001zm-17.237-6.696c11.797-1.504 23.6.113 23.6.113.15-.15-.823-3.04-2.603-4.777-2.617-2.553-5.468-2.158-9.202-2.186-5.679-.044-10.48-.726-12.953 6.013-.468 1.277-.404 1.035 1.158.837z"/><g id="text1020"><path id="path5022" class="st1" d="M16.013 422.11v-4.37h1.32l.793 2.98.784-2.98h1.323v4.37h-.82v-3.44l-.866 3.44h-.85l-.864-3.44v3.44h-.82z"/><path id="path5024" class="st1" d="M23.054 421.102l.834.14c-.209.596-.661.939-1.377.939-2.126 0-1.998-3.308-.083-3.308 1.09 0 1.525.802 1.505 1.895h-2.098c.021.894 1.002 1.09 1.219.334zm.048-.847c-.025-1.018-1.26-.975-1.252 0h1.252z"/><path id="path5026" class="st1" d="M24.73 418.515v-.775h.837v.775h-.837zm0 3.594v-3.165h.837v3.165h-.837z"/><path id="path5028" class="st1" d="M26.239 421.206l.84-.128c.244 1.113 2.058.148.936-.113-.795-.176-1.66-.313-1.66-1.12 0-1.246 2.382-1.356 2.733-.135l-.79.146c-.195-.713-1.572-.335-1.082.033.394.29 1.16.145 1.717.608.335.285.406.934-.101 1.37-.648.559-2.308.446-2.593-.66z"/><path id="path5030" class="st1" d="M31.494 418.944v.668h-.572c0 1.512-.262 2.097.569 1.794l.072.65a1.664 1.664 0 0 1-.662.125c-1.03 0-.82-.774-.82-2.57h-.384v-.667h.384v-.629l.84-.489v1.118h.573z"/><path id="path5032" class="st1" d="M34.025 421.102l.835.14c-.21.596-.662.939-1.377.939-2.16 0-1.99-3.308-.084-3.308 1.09 0 1.526.802 1.506 1.895h-2.099c.022.897 1.01 1.063 1.22.334zm.048-.847c-.025-1.007-1.26-.98-1.252 0h1.252z"/><path id="path5034" class="st1" d="M36.503 422.11h-.838v-3.166h.778v.45c.299-.477.675-.72 1.273-.363l-.26.73c-1.108-.718-.953 1.12-.953 2.348z"/><path id="path5036" class="st1" d="M38.149 422.11v-4.37h.837v1.574c.764-.87 2.254-.468 2.254 1.18 0 1.754-1.594 2.15-2.313 1.15v.465h-.778zm1.565-.59c.928 0 .94-2.007-.033-2.007-.972 0-.964 2.006.033 2.006z"/><path id="path5038" class="st1" d="M43.86 421.102l.835.14c-.21.596-.662.939-1.377.939-2.162 0-1.976-3.308-.084-3.308 1.09 0 1.526.802 1.506 1.895H42.64c.022.894 1.002 1.09 1.22.334zm.048-.847c-.025-1.018-1.26-.975-1.252 0h1.252z"/><path id="path5040" class="st1" d="M46.988 418.944v.668h-.573c0 1.512-.261 2.097.57 1.794l.071.65a1.664 1.664 0 0 1-.661.125c-1 0-.82-.746-.82-2.57h-.385v-.667h.385v-.629l.84-.489v1.118h.573z"/><path id="path5042" class="st1" d="M48.488 422.11h-.838v-3.166h.778v.45c.299-.477.674-.72 1.273-.363l-.26.73c-1.11-.72-.953 1.052-.953 2.348z"/><path id="path5044" class="st1" d="M50.17 418.515v-.775h.837v.775h-.837zm0 3.594v-3.165h.837v3.165h-.837z"/><path id="path5046" class="st1" d="M53.807 421.102l.834.14c-.209.596-.662.939-1.377.939-2.126 0-1.998-3.308-.083-3.308 1.09 0 1.525.802 1.505 1.895h-2.098c.02.875 1.003 1.083 1.219.334zm.047-.847c-.025-1.025-1.26-.978-1.252 0h1.252z"/><path id="path5048" class="st1" d="M55.447 422.11v-4.37h.837v1.574c.764-.87 2.253-.468 2.253 1.18 0 1.754-1.593 2.15-2.312 1.15v.465h-.778zm1.564-.59c.93 0 .921-2.007-.032-2.007-.962 0-.966 2.006.032 2.006z"/><path id="path5050" class="st1" d="M18.922 428.018h-.778v-.465c-.714 1-2.313.594-2.313-1.13 0-1.677 1.49-2.07 2.254-1.2v-1.574h.837v4.369zm-2.235-1.651c0 .807.327 1.06.706 1.06.95 0 .978-2.005-.006-2.005-.367 0-.7.277-.7.945z"/><path id="path5052" class="st1" d="M21.584 427.01l.834.14c-.429 1.224-2.04 1.16-2.599.4-.443-.612-.43-1.75.099-2.322.82-.893 2.582-.577 2.545 1.449h-2.098c.021.912 1.013 1.048 1.219.333zm.047-.846c-.025-1.034-1.26-.965-1.251 0h1.251z"/><path id="path5054" class="st1" d="M23.95 428.018h-.837v-3.165h.777v.45c.307-.49.67-.723 1.273-.364l-.26.73c-1.108-.718-.953 1.033-.953 2.349z"/><path id="path5056" class="st1" d="M27.231 428.018v-4.37h.883v1.94l1.782-1.94h1.186l-1.645 1.702 1.735 2.668H30.03l-1.201-2.05-.715.73v1.32h-.883z"/><path id="path5058" class="st1" d="M31.258 424.853h.465c0-1.032.365-1.582 1.675-1.172l-.113.584c-.726-.173-.725.023-.725.588h.626v.658h-.626v2.507h-.837v-2.507h-.465v-.658z"/><path id="path5060" class="st1" d="M33.326 428.018v-.653c.224-.256 1.384-1.601 1.619-1.836-.273.017-1.21.017-1.502.018v-.694h2.616v.593c-1.395 1.608-1.05 1.22-1.636 1.857.498-.03 1.138-.021 1.729-.021v.736h-2.826z"/><path id="path5062" class="st1" d="M36.62 426.852v-.837h1.645v.837H36.62z"/><path id="path5064" class="st1" d="M38.72 428.018v-4.37h.883v4.37h-.882z"/><path id="path5066" class="st1" d="M43.314 428.018h-.838c0-1.438.25-2.596-.518-2.596-.94 0-.692 1.274-.692 2.596h-.837v-3.165h.778v.465c.663-.86 2.107-.79 2.107.733v1.967z"/><path id="path5068" class="st1" d="M47.045 428.018h-.837c0-1.438.249-2.596-.519-2.596-.94 0-.691 1.274-.691 2.596h-.838v-3.165h.778v.465c.642-.832 2.107-.84 2.107.733v1.967z"/><path id="path5070" class="st1" d="M49.98 428.018v-.474c-.595.873-2.1.785-2.1-.689v-2.002h.837c0 1.544-.255 2.598.525 2.598.917 0 .68-1.147.68-2.598h.837v3.165h-.778z"/><path id="path5072" class="st1" d="M54.508 428.018h-.837c0-1.392.25-2.596-.519-2.596-.932 0-.691 1.197-.691 2.596h-.838v-3.165h.778v.465c.276-.358.624-.537 1.043-.537 1.414 0 1.064 1.418 1.064 3.237z"/><path id="path5074" class="st1" d="M55.283 428.226l.957.117c.036.256.205.319.485.319.782 0 .698-.376.698-1.157-.729.995-2.25.522-2.25-1.088 0-1.72 1.591-2.083 2.304-1.12v-.444h.783c0 3.287.379 4.45-1.502 4.45-.832 0-1.517-.236-1.475-1.077zm.748-1.856c0 1.357 1.407 1.263 1.407.02 0-1.284-1.407-1.325-1.407-.02z"/></g><path id="circle1929" class="st2" d="M21.62 399.862c8.253 8.818 22.092 9.275 30.91 1.021s9.275-22.093 1.022-30.91c-8.254-8.818-22.093-9.276-30.911-1.022-8.818 8.254-9.275 22.093-1.021 30.91z"/><path id="path117" class="st0" d="M24.557 400.299l.334-.389 1.405 1.206-1.058 1.228c-1.875-.07-2.895-1.549-2.605-2.758.307-1.274 2.03-2.799 3.703-1.358.824.71.867 1.427.51 2.15l-.49-.233c.591-1.306-.922-2.347-1.99-1.812-2.033 1.03-1.26 3.448.633 3.42l.531-.616-.973-.838z"/><path id="path119" class="st0" d="M26.152 403.63l2.008-3.88 2.805 1.452-.236.458-2.293-1.186-.615 1.188 2.147 1.111-.236.456-2.146-1.111-.684 1.32 2.383 1.233-.237.458-2.896-1.498z"/><path id="path121" class="st0" d="M31.169 405.892l-.175-4.517.579.13c.021 2.912.036 3.232.006 3.853.474-.97.2-.432 1.826-3.442l.68.153c.113 2.037.198 2.878.12 3.878.22-.494 1.439-2.934 1.704-3.469l.567.127-2.126 4.001-.544-.122c-.006-.138-.191-3.842-.19-3.98-.198.415-1.632 3.071-1.871 3.518l-.576-.13z"/><path id="path123" class="st0" d="M36.784 406.827l-.149-4.367 3.157-.108.018.516-2.58.087.046 1.338 2.416-.082.017.512-2.416.082.051 1.487 2.68-.092.018.516-3.258.11z"/><path id="path125" class="st0" d="M41.526 406.5l-1.117-4.224c1.862-.492 3.309-1.151 3.682.26.184.697-.22 1.187-.886 1.464.69.132 1.497 1.013 2.044 1.516l-.703.186c-1.84-1.7-1.57-1.592-2.957-1.225l.496 1.875-.559.148zm-.065-2.507c.573-.152 1.864-.355 2.042-.895.101-.316-.013-.682-.338-.845-.397-.202-1.614.22-2.073.342l.37 1.398z"/><path id="path127" class="st0" d="M46.36 405.02l-2.036-3.867c1.092-.575 2.593-1.701 3.252-.45.173.327.163.73-.108 1.105 1.04-.21 1.643.858 1.278 1.628-.292.615-1.191.954-2.386 1.583zm-.67-2.512c.737-.388 1.8-.748 1.415-1.479-.403-.764-1.243-.103-2.03.311l.616 1.168zm.941 1.785c.848-.446 1.963-.826 1.528-1.653-.43-.814-1.414-.105-2.228.324l.7 1.33z"/><path id="path129" class="st0" d="M50.51 402.629l-2.821-3.337 2.412-2.04.333.394-1.97 1.667.863 1.022 1.846-1.561.33.391-1.845 1.561.96 1.135 2.049-1.732.333.394-2.49 2.106z"/><path id="path88" class="st0" d="M20.074 382.692l-4.266-.941.124-.565 2.116.467-1.648-2.586.169-.765 1.334 2.171 2.95-1.308-.165.745-2.494 1.043.527.848 1.478.327-.125.564z"/><path id="path90" class="st0" d="M20.993 378.864l-3.93-1.91.847-1.742c.949-1.954 2.797-.823 2.283.749.546-.433 1.26-.417 2.483-.56l-.318.654c-2.557.293-2.244.179-2.858 1.441l1.746.848-.253.52zm-1.943-1.587c.262-.538.947-1.645.654-2.13-.297-.486-.958-.551-1.35.255l-.604 1.244 1.3.631z"/><path id="path92" class="st0" d="M22.634 375.484l-2.314-4.068.395-.482 4.513 1.389-.418.51-1.347-.446-1.158 1.412.718 1.21-.389.475zm-.588-2.112l.94-1.146c-.49-.165-1.65-.545-2.122-.75.405.494.83 1.288 1.182 1.896z"/><path id="path94" class="st0" d="M25.51 372.146l-2.713-3.424 2.31-1.831.32.404-1.857 1.472.84 1.06 1.608-1.274.32.405-1.607 1.273 1.233 1.556-.453.359z"/><path id="path96" class="st0" d="M29.312 369.519l-1.73-3.443-1.287.646-.232-.46 3.095-1.556.231.46-1.291.65 1.73 3.443-.516.26z"/><path id="path98" class="st0" d="M31.581 368.487l-1.164-4.211 2.841-.786.138.497-2.284.632.36 1.304 1.977-.547.137.497-1.976.547.529 1.913-.558.154z"/><path id="path100" class="st0" d="M34.19 367.71l1.398-4.467.621-.04 2.063 4.247-.658.042-.592-1.288-1.824.116-.394 1.351-.613.04zm1.145-1.87l1.478-.095c-.212-.47-.727-1.58-.899-2.063-.084.633-.25 1.071-.58 2.157z"/><path id="path102" class="st0" d="M38.587 367.506l.734-4.308.57.097-.301 1.77 2.239.38.3-1.768.57.097-.733 4.307-.57-.097.346-2.03-2.239-.382-.346 2.03-.57-.096z"/><path id="path104" class="st0" d="M42.74 368.308l1.752-4.002 1.774.777c1.992.872.93 2.762-.657 2.312.454.528.466 1.241.657 2.458l-.666-.292c-.358-2.31-.197-2.205-1.553-2.798l-.778 1.777-.53-.232zm1.508-2.004l1.138.499c1.331.583 1.88-.755.709-1.268l-1.267-.555-.58 1.324z"/><path id="path106" class="st0" d="M46.275 369.908l.32-.43c.487-.13 3.64-.982 4.137-1.063l-1.959-1.452.307-.414 2.514 1.864-.307.414c-.61.158-3.556.925-4.171 1.063l2.24 1.661-.306.414-2.775-2.057z"/><path id="path108" class="st0" d="M49.38 372.293l3.288-2.878 2.08 2.377-.387.34-1.7-1.942-1.007.881 1.592 1.82-.386.337-1.592-1.819-1.119.98 1.767 2.018-.388.34-2.148-2.454z"/><path id="path110" class="st0" d="M57.094 375.761l.27.512c-2.115 1.117-3.707 2.496-4.727.566-.976-1.847.572-2.257 3.122-3.605l.27.511c-2.623 1.386-3.571 1.637-2.954 2.805.648 1.227 1.271.663 4.019-.789z"/><path id="path112" class="st0" d="M55.943 380.649l.5-.118.428 1.8-1.578.373c-2.333-1.832-.867-4.893 1.803-4.306 1.608.358 2.264 2.813.653 3.659l-.26-.475c1.369-.78.617-3.083-1.44-2.597-1.906.45-1.602 2.397-.602 3.101l.792-.187-.296-1.25z"/><g id="text1975"><path id="path4991" class="st3" d="M22.759 280.29l6.375-30.542h6.291l-2.708 12.979 14.125-12.98h8.417l-13.709 11.98 10.063 18.563h-7.104l-7.542-14.542-5.938 5.187-1.958 9.355h-6.312z"/><path id="path4993" class="st3" d="M53.154 280.29l4.797-22.907h16.032l-.813 3.828H61.857l-1.156 5.5h11.094l-.797 3.829H59.904l-2.03 9.75h-4.72z"/><path id="path4995" class="st3" d="M72.264 280.29l.75-3.61L86.2 261.211H75.53l.797-3.828h16.516l-.688 3.594-13.328 15.563c1.417-.032 2.235-.047 2.453-.047 1 0 2.38-.01 4.141-.032h5.406l-.797 3.829H72.264z"/><path id="path4997" class="st3" d="M102.759 266.394h11.604l-1.209 5.77H101.55l1.209-5.77z"/><path id="path4999" class="st3" d="M116.863 270.394l5.979-.313c.153 3.497.945 5.48 6.062 5.48 6.258 0 6.882-4.252 4.709-6.063-.528-.458-1.98-1.202-4.354-2.23-2.362-1.027-4.09-1.881-5.188-2.562-6.175-3.958-4.674-15.479 7.375-15.479 7.515 0 11.196 3.967 11.563 9.23l-6.021.27c-.336-3.207-2.389-4.52-5.584-4.52-5.594 0-5.567 3.927-3.812 5.395 2.01 1.723 8.937 3.824 11.23 6.083 4.673 4.538 1.978 15.125-9.96 15.125-7.217 0-12.197-3.143-12-10.416z"/><path id="path5001" class="st3" d="M143.967 280.29l4.781-22.907h16.985l-.797 3.828H152.67l-1.094 5.204h11.86l-.797 3.828h-11.86l-1.437 6.218h13.328l-.812 3.829h-17.891z"/><path id="path5003" class="st3" d="M170.154 280.29h-4.718l4.796-22.907c11.679 0 14.68-.599 16.61 2.516 1.612 2.557 1.966 9.62-6.14 10.656 2.035 1.826 4.038 6.746 5.218 9.735h-5.062c-.407-1.292-1.204-3.308-2.391-6.047-1.68-3.847-2.767-3.438-6.328-3.438l-1.985 9.485zm2.704-12.922c5.157 0 7.955.231 9.484-1.875.469-.646.703-1.323.703-2.032 0-2.722-2.58-2.25-8.906-2.25l-1.281 6.157z"/><path id="path5005" class="st3" d="M199.92 280.29h-5.031l-4.11-22.907h4.704l2.906 17.328 9.484-17.328h4.672L199.92 280.29z"/><path id="path5007" class="st3" d="M209.639 280.29l4.797-22.907h4.703l-4.781 22.907h-4.72z"/><path id="path5009" class="st3" d="M235.31 272.04l4.75.718c-3.444 9.561-13.544 9.372-17.265 5.407-3.896-4.18-3.23-15.264 3.625-19.454 5.502-3.362 13.922-2.096 14.844 5.704l-4.516.437c-.91-4.851-5.551-4.284-7.953-2.61-4.385 3.086-5.79 14.5.89 14.5 2.264 0 4.57-1.427 5.626-4.702z"/><path id="path5011" class="st3" d="M241.842 280.29l4.781-22.907h16.985l-.797 3.828h-12.266l-1.094 5.204h11.86l-.797 3.828h-11.86l-1.437 6.218h13.328l-.812 3.829h-17.891z"/><path id="path5013" class="st3" d="M301.571 280.29h-6.354l-.688-22.334-11.125 22.334h-6.479l-1.146-30.542h6.146l.271 21.375 10.48-21.375h6.812l.708 21.146 10.063-21.146h6.083l-14.77 30.542z"/><path id="path5015" class="st3" d="M327.342 275.227h-9.078l-2.75 5.063h-4.844l12.953-22.907h5.235l3.718 22.907h-4.468l-.766-5.063zm-.578-3.812l-1.328-9.22-5.532 9.22h6.86z"/><path id="path5017" class="st3" d="M335.592 280.29l4.797-22.907h4.703l-3.984 19.078h11.656l-.797 3.829h-16.375z"/><path id="path5019" class="st3" d="M355.154 280.29l4.797-22.907h4.703l-3.984 19.078h11.656l-.797 3.829h-16.375z"/></g><g id="text1991"><path id="path4962" d="M93.623 315.86v-22.688h6.856l4.116 15.477 4.07-15.477h6.872v22.688h-4.256v-17.859l-4.504 17.86h-4.41L97.879 298v17.86h-4.256z"/><path id="path4964" d="M119.541 315.86v-17.016h12.617v2.879h-9.18v3.772h8.542v2.867h-8.543v4.632h9.506v2.866h-12.942z"/><path id="path4966" d="M135.315 315.86v-17.016h3.436v17.016h-3.436z"/><path id="path4968" d="M141.142 310.324l3.343-.325c.201 1.122.607 1.946 1.219 2.472 1.712 1.456 5.838.928 5.838-1.555 0-3.353-9.785-1.224-9.785-7.614 0-6.277 12.486-6.72 12.733.406l-3.435.15c-.757-4.5-8.171-2-5.502.244 2.035 1.708 9.425.775 9.425 6.802 0 6.08-8.842 6.287-11.77 3.772-1.153-.998-1.841-2.449-2.066-4.352z"/><path id="path4970" d="M161.722 315.86v-14.137h-5.05v-2.879h13.523v2.879h-5.038v14.137h-3.435z"/><path id="path4972" d="M172.377 315.86v-17.016h12.617v2.879h-9.181v3.772h8.542v2.867h-8.542v4.632h9.506v2.866h-12.942z"/><path id="path4974" d="M188.267 315.86v-17.016c9.159 0 11.586-.416 13.174 2.09 1.341 2.116 1.332 6.68-3.75 7.417 2.178 1.27 2.658 2.371 5.874 7.51h-4.109c-4.95-7.38-4.283-7.104-7.753-7.104v7.103h-3.436zm3.436-9.82c4.536 0 6.94.402 6.94-2.204 0-2.708-3.007-2.113-6.94-2.113v4.318z"/><path id="path4976" d="M205.445 298.844c7.08 0 8.543-.049 9.808.175 4.186.681 4.895 6.135 1.22 7.8 4.992 1.452 3.893 8.376-1.092 8.925-1.527.165-8.32.116-9.936.116v-17.016zm3.436 2.833v3.934c1.265 0 4.072.023 4.747-.058 2.612-.309 2.455-3.54.163-3.818-.682-.078-3.878-.058-4.91-.058zm0 6.767v4.55c2.146 0 4.823.044 5.537-.105 2.2-.4 2.364-3.484.278-4.202-.96-.336-4.124-.244-5.815-.243z"/><path id="path4978" d="M222.612 315.86v-17.016h12.617v2.879h-9.181v3.772h8.543v2.867h-8.543v4.632h9.506v2.866h-12.942z"/><path id="path4980" d="M242.321 315.86v-14.137h-5.049v-2.879h13.522v2.879h-5.037v14.137h-3.436z"/><path id="path4982" d="M252.988 315.86v-17.016c9.274 0 11.599-.396 13.174 2.09 1.336 2.108 1.358 6.676-3.749 7.417 2.174 1.268 2.652 2.362 5.873 7.51h-4.109c-4.934-7.355-4.29-7.104-7.753-7.104v7.103h-3.436zm3.436-9.82c1.505 0 4.795.075 5.63-.208 1.83-.622 1.866-3.666-.442-4.05-.59-.083-4.575-.059-5.188-.059v4.318z"/><path id="path4984" d="M270.05 315.86v-17.016h3.436v17.016h-3.436z"/><path id="path4986" d="M276.748 315.86v-17.016h12.617v2.879h-9.182v3.772h8.543v2.867h-8.543v4.632h9.507v2.866h-12.942z"/><path id="path4988" d="M292.638 298.844c7.08 0 8.542-.049 9.808.175 4.186.681 4.898 6.134 1.219 7.8 5.011 1.458 3.86 8.38-1.091 8.925-1.528.166-8.32.116-9.936.116v-17.016zm3.436 2.833v3.934c1.264 0 4.072.023 4.747-.058 2.611-.309 2.454-3.54.162-3.818-.681-.078-3.877-.058-4.91-.058zm0 6.767v4.55c2.145 0 4.823.044 5.536-.105 2.294-.417 2.276-3.514.279-4.202-.96-.336-4.126-.244-5.815-.243z"/></g><g id="text1997"><path id="path4638" class="st4" d="M9.883 348.367v-14.18c5.755 0 9.508-.797 9.508 3.966 0 2.087-.996 3.588-3.066 3.956 1.485 1.066 1.834 2.006 4.004 6.258h-2.795c-3.275-5.936-2.814-5.92-5.31-5.92v5.92h-2.34zm2.34-8.183c3.21 0 4.75.325 4.75-1.838 0-1.942-1.532-1.76-2.911-1.76h-1.838v3.598z"/><path id="path4640" class="st4" d="M26.323 345.098l2.215.454c-.297 1.032-.758 1.8-1.383 2.302-1.772 1.407-6.365 1.352-6.365-4.565 0-7.264 8.126-7.624 7.864.725h-5.581c.046 2.884 2.666 3.48 3.25 1.084zm.126-2.747c-.081-3.333-3.364-3.113-3.337 0h3.337z"/><path id="path4642" class="st4" d="M30.276 338.095h2.08v1.509c.529-1.011 1.476-1.741 2.62-1.741 4.776 0 4.673 10.736-.01 10.736-1.11 0-1.79-.61-2.456-1.5v5.176h-2.234v-14.18zm2.205 4.962c0 4.413 3.743 4.674 3.743.145 0-4.336-3.743-4.196-3.743-.145z"/><path id="path4644" class="st4" d="M41.802 341.229l-2.022-.445c.476-2.017 1.486-2.921 3.647-2.921 5.957 0 2.223 5.943 4.024 10.504h-2.206l-.29-1.122c-2.741 3.252-6.723.128-5.088-3.192.924-1.875 3.188-1.513 4.914-2.39 0-1-.037-1.72-1.48-1.72-.912 0-1.253.423-1.5 1.286zm2.979 2.205c-.65.266-2.23.543-2.68 1.006-.97 1 .24 3.037 1.858 1.925.934-.662.822-1.563.822-2.931z"/><path id="path4646" class="st4" d="M51.18 348.367h-2.234v-10.272h2.07v1.46c.355-.683.67-1.135.948-1.354.712-.566 1.699-.37 2.438.174l-.697 2.37c-1.007-.813-2.076-.568-2.37 1.141-.191 1.114-.154 3.428-.154 6.48z"/><path id="path4648" class="st4" d="M56.865 341.229l-2.022-.445c.486-2.058 1.528-2.921 3.647-2.921 5.957 0 2.223 5.943 4.023 10.504h-2.205l-.29-1.122c-2.741 3.252-6.723.128-5.088-3.192.924-1.875 3.188-1.513 4.914-2.39 0-1-.038-1.72-1.48-1.72-.912 0-1.253.423-1.5 1.286zm2.979 2.205c-.65.266-2.23.543-2.68 1.006-.69.71-.244 2.244.92 2.244 1.928 0 1.76-2.21 1.76-3.25z"/><path id="path4650" class="st4" d="M67.956 338.095v2.166h-1.519c0 5.797-.396 6.68 1.509 5.823l.193 2.109c-.886.465-2.33.622-3.114 0-.91-.722-.822-2.141-.822-3.453v-4.479h-1.026v-2.166h1.026v-2.041l2.234-1.587v3.628h1.519z"/><path id="path4652" class="st4" d="M74.907 348.367v-1.538c-.648 1.16-1.732 1.77-2.796 1.77-3.51 0-2.795-4.178-2.795-10.504h2.234c0 5.927-.497 8.434 1.393 8.434.374 0 .72-.129 1.035-.387 1-.837.774-1.997.774-8.047h2.225v10.272h-2.07z"/><path id="path4654" class="st4" d="M81.306 348.367h-2.234v-10.272h2.07v1.46c.355-.683.67-1.135.948-1.354.712-.566 1.699-.37 2.437.174l-.696 2.37c-1.007-.813-2.076-.568-2.37 1.141-.191 1.114-.155 3.428-.155 6.48z"/><path id="path4656" class="st4" d="M92.426 345.552c-.296 1.032-.757 1.8-1.383 2.302-1.771 1.407-6.364 1.352-6.364-4.565 0-7.288 8.125-7.61 7.863.725h-5.58c.045 2.883 2.666 3.481 3.25 1.084l2.214.454zm-2.089-3.201c-.08-3.34-3.363-3.104-3.337 0h3.337z"/><path id="path4658" class="st4" d="M101.892 348.367h-2.234c0-3.974.07-6.53-.126-7.342-.383-1.59-2.426-1.37-2.901.281-.283.98-.184 3.844-.184 7.06h-2.235v-10.271h2.07v1.509c1.692-2.672 4.699-2 5.35.077.337 1.026.26 1.937.26 8.686z"/><path id="path4660" class="st4" d="M108.047 340.784c.476-2.017 1.486-2.921 3.646-2.921 5.964 0 2.217 5.925 4.024 10.504h-2.205l-.29-1.122c-2.738 3.248-6.727.135-5.088-3.192.924-1.875 3.188-1.513 4.914-2.39 0-1-.052-1.72-1.48-1.72-.913 0-1.253.423-1.5 1.286l-2.021-.445zm5 2.65c-1.37.56-2.998.464-2.998 1.857 0 1.79 2.23 1.796 2.815.3.212-.514.184-1.602.184-2.157z"/><path id="path4662" class="st4" d="M117.31 348.367v-14.18h2.234v14.18h-2.234z"/><path id="path4664" class="st4" d="M121.688 348.367v-14.18h2.234v14.18h-2.234z"/><path id="path4666" class="st4" d="M133.166 345.552c-.297 1.032-.758 1.8-1.383 2.302-1.772 1.407-6.365 1.352-6.365-4.565 0-7.225 8.134-7.653 7.864.725H127.7c.046 2.883 2.667 3.481 3.25 1.084l2.216.454zm-2.09-3.201c-.08-3.331-3.363-3.114-3.337 0h3.337z"/><path id="path4668" class="st4" d="M137.109 348.367h-2.235v-10.272h2.07v1.46c.355-.683.67-1.135.948-1.354.712-.566 1.699-.37 2.438.174l-.697 2.37c-.99-.799-2.068-.614-2.37 1.141-.191 1.114-.154 3.428-.154 6.48z"/><path id="path4670" class="st4" d="M145.536 348.367v-14.18h7.97v2.399h-5.629v3.356h4.865v2.399h-4.865v6.026h-2.34z"/><path id="path4672" class="st4" d="M156.966 341.229l-2.022-.445c.486-2.058 1.528-2.921 3.647-2.921 5.961 0 2.214 5.92 4.023 10.504h-2.205l-.29-1.122c-2.038 2.417-5.407 1.46-5.407-1.673 0-3.47 3.29-2.92 5.233-3.908 0-.568-.042-.938-.126-1.112-.302-.706-1.733-.782-2.302-.339-.226.18-.41.52-.551 1.016zm2.979 2.205c-1.399.572-2.999.466-2.999 1.857 0 1.171 1.086 1.824 2.177 1.074.932-.66.822-1.557.822-2.931z"/><path id="path4674" class="st4" d="M164.1 348.367v-14.18h2.235v5.107c1.98-2.763 5.997-1.588 5.997 3.879 0 5.733-4.324 6.855-6.161 3.685v1.509h-2.07zm2.216-5.359c0 1.583.372 3.444 1.944 3.444 1.413 0 1.78-1.794 1.78-3.202 0-4.566-3.724-4.255-3.724-.242z"/><path id="path4676" class="st4" d="M176.14 348.367h-2.235v-10.272h2.07v1.46c.46-.886.93-1.692 1.925-1.692.51 0 .996.17 1.46.512l-.696 2.37c-.99-.799-2.068-.614-2.37 1.141-.191 1.114-.155 3.428-.155 6.48z"/><path id="path4678" class="st4" d="M180.16 336.702v-2.515h2.234v2.515h-2.234zm0 11.665v-10.272h2.234v10.272h-2.234z"/><path id="path4680" class="st4" d="M184.46 348.367v-14.18h2.235v7.525l2.602-3.617h2.747l-2.883 3.753 3.086 6.519h-2.399l-2.128-4.614-1.025 1.325v3.289h-2.234z"/><path id="path4682" class="st4" d="M195.107 341.229l-2.022-.445c.245-1.039.648-1.783 1.21-2.235 1.144-.923 3.594-.822 4.594-.29 2.74 1.46.352 6.27 1.866 10.108h-2.205l-.29-1.122c-.691.82-1.554 1.354-2.612 1.354-3.172 0-3.594-4.236-1.576-5.581.983-.656 2.915-.796 4.014-1.354 0-1-.052-1.722-1.48-1.722-.913 0-1.253.424-1.5 1.287zm2.979 2.205c-.65.266-2.23.543-2.68 1.006-.97 1 .244 3.034 1.858 1.925.953-.676.822-1.642.822-2.931z"/><path id="path4684" class="st4" d="M206.198 338.095v2.166h-1.52c0 5.603-.442 6.702 1.51 5.823l.193 2.109c-.516.27-1.1.406-1.75.406-2.676 0-2.186-2.5-2.186-8.338h-1.026v-2.166h1.026v-2.041l2.234-1.587v3.628h1.519z"/><path id="path4686" class="st4" d="M214.716 345.552c-.545 1.893-1.705 3.047-3.666 3.047-5.729 0-5.215-10.736-.223-10.736 3.121 0 4.105 3.043 4.004 6.151h-5.58c.045 2.898 2.67 3.461 3.25 1.084l2.215.454zm-2.09-3.201c-.08-3.283-3.363-3.158-3.337 0h3.337z"/><path id="path4688" class="st4" d="M219.7 344.246v-2.03h9.034v2.03H219.7z"/><path id="path4690" class="st4" d="M234.173 334.187h2.34c0 6.048-.053 9.14.087 10.011.43 2.606 3.76 2.488 4.305.6.298-1 .193-4.324.193-10.611h2.35c0 7.7.08 9.97-.309 11.578-.888 3.753-7.138 3.85-8.512.358-.572-1.497-.454-4.193-.454-11.936z"/><path id="path4692" class="st4" d="M253.417 348.367h-2.234c0-6.362.349-8.425-1.373-8.425-2.29 0-1.838 3.092-1.838 8.425h-2.235v-10.272h2.07v1.509c1.692-2.672 4.699-2 5.35.077.337 1.024.26 1.926.26 8.686z"/><path id="path4694" class="st4" d="M254.575 338.095h1.238c0-1.645-.23-4.15 2.592-4.15.632 0 1.251.116 1.857.348l-.29 1.896c-2.115-.604-1.935.463-1.935 1.906h1.664v2.137h-1.664v8.135h-2.224v-8.135h-1.238v-2.137z"/><path id="path4696" class="st4" d="M260.462 340.784c.476-2.017 1.486-2.921 3.646-2.921 5.989 0 2.173 5.814 4.024 10.504h-2.205l-.29-1.122c-.691.82-1.554 1.354-2.612 1.354-3.153 0-3.612-4.224-1.577-5.581.984-.656 2.916-.796 4.015-1.354 0-1-.038-1.722-1.48-1.722-.913 0-1.253.424-1.5 1.287l-2.021-.445zm5 2.65c-1.4.573-2.998.476-2.998 1.857 0 1.17 1.084 1.824 2.176 1.074.934-.662.822-1.563.823-2.931z"/><path id="path4698" class="st4" d="M269.725 348.367v-14.18h2.234v14.18h-2.234z"/><path id="path4700" class="st4" d="M274.103 348.367v-14.18h2.234v14.18h-2.234z"/><path id="path4702" class="st4" d="M278.481 336.702v-2.515h2.234v2.515h-2.234zm0 11.665v-10.272h2.234v10.272h-2.234z"/><path id="path4704" class="st4" d="M290.52 348.367h-2.234c0-6.297.356-8.425-1.374-8.425-2.286 0-1.838 3.08-1.838 8.425h-2.234v-10.272h2.07v1.509c1.692-2.672 4.698-2 5.349.077.338 1.026.26 1.937.26 8.686z"/><path id="path4706" class="st4" d="M291.87 345.436l2.235-.416c.41 2.286 3.395 1.933 3.395.503 0-.564-.345-.722-.9-.87-1.83-.484-2.995-.945-3.491-1.383-1.584-1.402-1.46-5.407 2.621-5.407 2.081 0 3.238.721 3.724 2.718l-2.099.474c-.53-2.343-4.319-.895-2.786.174 1.27.924 5.175.535 5.175 3.946 0 4.291-6.897 4.854-7.873.261z"/><path id="path4708" class="st4" d="M305.409 338.095v2.166h-1.519c0 5.477-.5 6.727 1.509 5.823l.193 2.109c-.515.27-1.099.406-1.75.406-2.63 0-2.186-2.33-2.186-8.338h-1.026v-2.166h1.026v-2.041l2.234-1.587v3.628h1.519z"/><path id="path4710" class="st4" d="M306.47 340.784c.475-2.017 1.485-2.921 3.646-2.921 5.922 0 2.251 6.014 4.024 10.504h-2.206l-.29-1.122c-.69.82-1.553 1.354-2.611 1.354-3.173 0-3.594-4.236-1.577-5.581.984-.656 2.915-.796 4.014-1.354 0-1-.037-1.722-1.48-1.722-.912 0-1.253.424-1.5 1.287l-2.02-.445zm5 2.65c-1.399.572-2.999.475-2.999 1.857 0 1.186 1.097 1.816 2.177 1.074.934-.662.822-1.563.822-2.931z"/><path id="path4712" class="st4" d="M323.393 348.367h-2.235c0-6.36.349-8.425-1.373-8.425-2.287 0-1.838 3.08-1.838 8.425h-2.234v-10.272h2.07v1.509c1.692-2.672 4.698-2 5.349.077.338 1.026.26 1.937.26 8.686z"/><path id="path4714" class="st4" d="M333.255 348.367h-2.08v-1.509c-1.87 3.178-6.151 2.04-6.151-3.685 0-5.494 4.025-6.632 5.997-3.879v-5.107h2.234v14.18zm-5.948-5.359c0 .929.077 1.622.232 2.08.755 2.114 3.492 1.98 3.492-1.819 0-4.582-3.724-4.311-3.724-.26z"/><path id="path4716" class="st4" d="M334.538 345.436l2.235-.416c.41 2.286 3.395 1.933 3.395.503 0-.564-.346-.722-.9-.87-1.831-.484-2.995-.945-3.492-1.383-1.585-1.404-1.458-5.407 2.622-5.407 2.08 0 3.238.721 3.724 2.718l-2.1.474c-.53-2.344-4.316-.894-2.785.174 1.37.996 5.175.501 5.175 3.946 0 4.289-6.897 4.856-7.874.261z"/><path id="path4718" class="st4" d="M351.326 345.552c-.296 1.032-.757 1.8-1.383 2.302-1.77 1.406-6.364 1.353-6.364-4.565 0-1.715.403-3.089 1.209-4.12 1.839-2.343 6.878-2.093 6.654 4.845h-5.581c.046 2.898 2.671 3.461 3.25 1.084l2.215.454zm-2.089-3.201c-.08-3.289-3.364-3.155-3.337 0h3.337z"/><path id="path4720" class="st4" d="M356.981 338.095v2.166h-1.518c0 5.603-.444 6.702 1.509 5.823l.193 2.109c-.516.27-1.1.406-1.75.406-2.667 0-2.187-2.476-2.187-8.338h-1.025v-2.166h1.025v-2.041l2.235-1.587v3.628h1.518z"/><path id="path4722" class="st4" d="M357.5 348.367v-2.118c2.666-3.725 3.749-5.272 4.304-5.959-.727.055-1.845.044-3.994.058v-2.253h6.964v1.924c-3.784 5.318-2.9 4.1-4.353 6.026 1.202-.087.643-.067 4.604-.067v2.389H357.5z"/><path id="path4724" class="st4" d="M371.909 348.367v-1.538c-.648 1.16-1.732 1.77-2.796 1.77-3.523 0-2.795-4.22-2.795-10.504h2.234c0 6.683-.34 8.434 1.393 8.434.735 0 1.453-.548 1.654-1.393.229-.913.155-4.102.155-7.041h2.225v10.272h-2.07z"/><path id="path4726" class="st4" d="M383.832 348.367h-2.235c0-5.548.522-8.425-1.373-8.425-2.286 0-1.838 3.08-1.838 8.425h-2.234v-10.272h2.07v1.509c1.681-2.656 4.696-2.007 5.348.077.338 1.026.262 1.937.262 8.686z"/><path id="path4728" class="st4" d="M385.753 349.044l2.553.377c.074.708.399 1.035 1.287 1.035 2.199 0 1.857-1.477 1.857-3.753-.585.968-1.384 1.664-2.524 1.664-4.6 0-4.735-10.504.096-10.504.523 0 .997.138 1.422.415.432.278.816.697 1.151 1.258v-1.441h2.09c0 10.573.415 12.7-1.664 13.928-1.071.653-6.269 1.562-6.268-2.979zm3.792-2.873c2.6 0 2.649-6.229.048-6.229-2.496 0-2.512 6.23-.048 6.23z"/><path id="path4730" class="st4" d="M133.894 371.742h-2.553l-1.016-3.22h-4.643l-.957 3.22h-2.496l4.527-14.18h2.486l4.652 14.18zm-4.323-5.61l-1.596-5.262-1.577 5.262h3.173z"/><path id="path4732" class="st4" d="M140.507 371.742v-1.538c-.647 1.16-1.732 1.77-2.796 1.77-3.51 0-2.795-4.181-2.795-10.504h2.234c0 5.872-.51 8.434 1.393 8.434 2.236 0 1.81-2.769 1.81-8.434h2.224v10.272h-2.07z"/><path id="path4734" class="st4" d="M148.619 361.47v2.166H147.1c0 5.603-.443 6.702 1.509 5.823l.193 2.109c-.515.27-1.099.406-1.75.406-2.673 0-2.186-2.491-2.186-8.338h-1.026v-2.166h1.026v-2.041l2.234-1.586v3.627h1.519z"/><path id="path4736" class="st4" d="M153.858 361.238c5.853 0 5.724 10.736.01 10.736-5.875 0-5.8-10.736-.01-10.736zm.02 8.521c2.739 0 2.76-6.306-.03-6.306-2.747 0-2.787 6.306.03 6.306z"/><path id="path4738" class="st4" d="M159.62 372.42l2.553.376c.073.708.398 1.035 1.286 1.035 2.147 0 1.857-1.328 1.857-3.753-1.382 2.286-3.64 2.044-4.884.397-1.987-2.614-1.455-9.237 2.456-9.237 1.153 0 1.98.68 2.573 1.673v-1.441h2.09c0 10.529.413 12.701-1.664 13.928-1.016.619-6.268 1.614-6.268-2.979zm1.992-6.027c0 4.411 3.743 4.037 3.743.068 0-4.183-3.743-4.263-3.743-.068z"/><path id="path4740" class="st4" d="M169.627 371.742v-14.18h2.234v14.18h-2.234z"/><path id="path4742" class="st4" d="M175.669 364.604l-2.022-.445c.486-2.058 1.528-2.921 3.647-2.921 5.938 0 2.224 5.945 4.023 10.504h-2.205l-.29-1.122c-1.508 1.79-3.562 1.646-4.624.532-1.097-1.165-1.147-3.704.436-4.759.983-.656 2.914-.796 4.014-1.354 0-.568-.042-.938-.126-1.112-.303-.706-1.733-.782-2.302-.339-.226.18-.41.52-.551 1.016zm2.979 2.205c-1.372.561-2.999.464-2.999 1.857 0 1.838 2.249 1.747 2.815.3.212-.513.184-1.601.184-2.157z"/><path id="path4744" class="st4" d="M182.126 368.811l2.235-.416c.193 1.077.793 1.616 1.799 1.616.535 0 .935-.103 1.2-.31.492-.384.487-1.04.222-1.335-.95-1-5.146-.39-5.146-3.975 0-3.777 4.675-3.552 6.065-2.505.574.425.977 1.115 1.209 2.07l-2.1.474c-.53-2.344-4.316-.893-2.785.174 1.27.924 5.175.535 5.175 3.946 0 4.311-6.906 4.815-7.874.261z"/><path id="path4746" class="st4" d="M194.994 367.622v-2.032h9.034v2.032h-9.034z"/><path id="path4748" class="st4" d="M212.107 371.742v-11.781h-3.453v-2.399h9.237v2.399h-3.443v11.781h-2.34z"/><path id="path4750" class="st4" d="M219.261 357.562h2.341c0 9.378-.63 11.975 2.37 11.975 2.761 0 2.215-1.978 2.215-11.975h2.35c0 9.962.899 14.422-4.497 14.422-5.96 0-4.779-5.14-4.779-14.422zm2.003-1.5v-2.33h1.915v2.33h-1.915zm3.414 0v-2.33h1.915v2.33h-1.915z"/><path id="path4752" class="st4" d="M233.825 371.742l-4.15-14.18h2.544l2.94 10.495 2.844-10.495h2.496l-4.16 14.18h-2.514z"/><path id="path4754" class="st4" d="M248.452 369.701v-3.685h-3.047v-2.544h3.047v-3.685h2.032v3.685h3.056v2.544h-3.056v3.685h-2.032z"/><path id="path4756" class="st4" d="M269.55 371.742h-2.553l-1.015-3.22h-4.643l-.958 3.22h-2.495l4.527-14.18h2.485l4.653 14.18zm-4.323-5.61l-1.596-5.262-1.576 5.262h3.172z"/><path id="path4758" class="st4" d="M270.64 357.562h2.341c0 9.184-.642 11.975 2.37 11.975 2.764 0 2.215-1.986 2.215-11.975h2.35c0 9.837.943 14.422-4.497 14.422-5.816 0-4.779-4.65-4.779-14.422z"/><path id="path4760" class="st4" d="M87.686 389.904v-2.39h5.06v5.65c-3.004 3.534-10.873 3.462-10.873-5.156 0-9.03 9.622-9.419 10.717-3.144l-2.32.532c-.806-3.367-5.979-3.39-5.979 2.467 0 5.795 3.97 5.883 6.084 3.84v-1.8h-2.689z"/><path id="path4762" class="st4" d="M101.863 392.302c-1.145 3.985-5.14 3.53-6.548 1.8-1.588-1.921-1.647-6.064.01-8.183 1.836-2.34 6.878-2.096 6.654 4.845h-5.581c.046 2.923 2.683 3.413 3.25 1.084l2.215.454zm-2.09-3.201c-.079-3.29-3.363-3.153-3.336 0h3.337z"/><path id="path4764" class="st4" d="M103.562 395.117v-14.18h2.234v5.107c1.917-2.675 5.997-1.72 5.997 3.879 0 5.759-4.344 6.82-6.161 3.685v1.51h-2.07zm4.16-1.915c2.406 0 2.454-6.51-.088-6.51-2.589 0-2.48 6.51.087 6.51z"/><path id="path4766" class="st4" d="M115.6 395.117h-2.234v-10.272h2.07v1.46c.355-.683.67-1.134.948-1.354.712-.566 1.7-.37 2.438.174l-.697 2.37c-.367-.296-.715-.445-1.044-.445-1.747 0-1.48 2.87-1.48 8.067z"/><path id="path4768" class="st4" d="M121.285 387.979l-2.022-.445c.245-1.038.648-1.783 1.21-2.234 1.144-.924 3.594-.823 4.594-.29 2.64 1.405.456 6.535 1.866 10.107h-2.205l-.29-1.122c-2.036 2.416-5.407 1.46-5.407-1.673 0-3.452 3.344-2.949 5.233-3.908 0-1-.052-1.722-1.48-1.722-.913 0-1.253.425-1.5 1.287zm2.979 2.205c-1.4.573-2.999.475-2.999 1.857 0 1.175 1.089 1.822 2.177 1.074.927-.657.822-1.551.822-2.93z"/><path id="path4770" class="st4" d="M134.059 395.117v-1.538c-1.308 2.343-4.348 2.351-5.272.097-.412-1.036-.319-1.942-.319-8.831h2.234c0 6.027-.249 7.445.552 8.135.46.396 1.236.435 1.876-.088 1-.836.774-1.996.774-8.047h2.225v10.272h-2.07z"/><path id="path4772" class="st4" d="M145.662 387.882l-2.195.484c-.309-2.06-2.114-1.93-2.844-.92-.72.997-.645 3.966 0 4.934.667 1 2.54 1.437 2.96-1.2l2.195.455c-.845 4.636-5.453 4.508-6.954 2.147-1.502-2.362-1.213-6.148.126-7.786 1.598-1.953 5.7-2.355 6.712 1.886z"/><path id="path4774" class="st4" d="M149.45 380.937v5.214c.628-.914 1.465-1.538 2.573-1.538 3.536 0 2.863 4.02 2.863 10.504h-2.224c0-7.09.306-8.425-1.393-8.425-2.252 0-1.819 2.863-1.819 8.425h-2.234v-14.18h2.234z"/><path id="path4776" class="st4" d="M160.87 384.845v2.167h-1.518c0 5.594-.45 6.704 1.509 5.822l.193 2.11c-1 .524-3.327.91-3.801-1.171-.209-.864-.136-3.7-.136-6.761h-1.025v-2.167h1.025v-2.041l2.235-1.586v3.627h1.518z"/><path id="path4778" class="st4" d="M163.865 395.117l-2.67-10.272h2.167l1.577 6.732 1.45-6.732h2.148l1.403 6.732 1.615-6.732h2.196l-2.709 10.272h-2.137l-1.451-6.606-1.432 6.606h-2.157z"/><path id="path4780" class="st4" d="M176.456 387.979l-2.022-.445c.476-2.016 1.486-2.921 3.647-2.921 5.996 0 2.166 5.8 4.023 10.504H179.9l-.29-1.122c-.691.82-1.554 1.354-2.612 1.354-3.177 0-3.588-4.24-1.576-5.58.983-.657 2.915-.797 4.014-1.355 0-.697.019-1.252-.571-1.547-.422-.23-1.374-.28-1.857.096-.226.18-.41.52-.551 1.016zm2.979 2.205c-.65.266-2.231.544-2.68 1.006-.97 1 .238 3.039 1.858 1.925.926-.657.822-1.551.822-2.93z"/><path id="path4782" class="st4" d="M183.484 395.794l2.554.377c.073.708.398 1.035 1.286 1.035 2.192 0 1.857-1.45 1.857-3.753-1.941 3.211-5.987 1.689-5.987-3.53 0-5.597 4.283-6.73 6.132-3.637v-1.441h2.09c0 10.716.954 14.441-4.005 14.441-3.002 0-3.927-1.361-3.927-3.492zm1.993-6.026c0 3.47 2.136 3.777 3.172 2.39.968-1.296.863-5.466-1.325-5.466-1.434 0-1.847 1.638-1.847 3.076z"/><path id="path4784" class="st4" d="M200.591 392.302c-1.277 4.443-7.747 4.449-7.747-2.263 0-7.279 8.133-7.624 7.863.725h-5.581c.046 2.884 2.666 3.482 3.25 1.084l2.215.454zm-2.089-3.201c-.08-3.326-3.363-3.119-3.337 0h3.337z"/><path id="path4786" class="st4" d="M210.057 395.117h-2.234c0-6.253.374-8.425-1.374-8.425-2.296 0-1.837 3.078-1.837 8.425h-2.235v-10.272h2.07v1.509c1.37-2.163 3.42-1.997 4.42-1.229 1.49 1.106 1.19 2.64 1.19 9.992z"/><path id="path4788" class="st4" d="M226.503 395.117h-2.553l-1.016-3.22h-4.643l-.957 3.22h-2.496l4.527-14.18h2.486l4.652 14.18zm-4.323-5.61l-1.596-5.262-1.577 5.262h3.173z"/><path id="path4790" class="st4" d="M235.263 395.117h-2.234c0-6.32.35-8.425-1.374-8.425-2.289 0-1.837 3.092-1.837 8.425h-2.235v-10.272h2.07v1.509c1.657-2.617 5.61-2.757 5.61 2.38v6.383z"/><path id="path4792" class="st4" d="M236.74 391.335v-2.718h4.381v2.718h-4.381z"/><path id="path4794" class="st4" d="M252.576 395.117v-1.538c-1.31 2.349-4.35 2.345-5.271.097-.412-1.036-.32-1.942-.32-8.831h2.235c0 6.747-.325 8.434 1.393 8.434 2.31 0 1.809-3.169 1.809-8.434h2.224v10.272h-2.07z"/><path id="path4796" class="st4" d="M256.838 395.117V392.4h2.235v2.718h-2.235z"/><path id="path4798" class="st4" d="M268.574 395.117l-4.15-14.18h2.544l2.94 10.495 2.845-10.495h2.495l-4.16 14.18h-2.514z"/><path id="path4800" class="st4" d="M282.509 392.302c-1.292 4.493-7.748 4.413-7.748-2.263 0-7.252 8.134-7.636 7.863.725h-5.58c.045 2.884 2.666 3.482 3.25 1.084l2.215.454zm-2.09-3.201c-.08-3.334-3.363-3.113-3.337 0h3.337z"/><path id="path4802" class="st4" d="M286.471 395.117h-2.234v-10.272h2.07v1.46c.354-.683.67-1.134.947-1.354.712-.566 1.7-.37 2.438.174l-.697 2.37c-.995-.804-2.072-.589-2.37 1.142-.192 1.118-.154 3.465-.154 6.48z"/><path id="path4804" class="st4" d="M290.414 395.117v-14.18h2.234v7.525l2.602-3.617h2.747l-2.882 3.753 3.085 6.52h-2.398l-2.128-4.615-1.026 1.326v3.288h-2.234z"/><path id="path4806" class="st4" d="M301.06 387.979l-2.022-.445c.476-2.016 1.487-2.921 3.647-2.921 5.883 0 2.271 6.065 4.024 10.504h-2.206l-.29-1.122c-2.036 2.416-5.407 1.461-5.407-1.673 0-3.453 3.356-2.954 5.233-3.908 0-1-.047-1.722-1.48-1.722-.912 0-1.253.425-1.5 1.287zm2.98 2.205c-1.402.573-3 .476-3 1.857 0 1.186 1.097 1.816 2.177 1.074.927-.657.822-1.551.822-2.93z"/><path id="path4808" class="st4" d="M313.834 395.117v-1.538c-1.311 2.35-4.35 2.345-5.272.097-.413-1.039-.319-1.956-.319-8.831h2.235c0 5.875-.51 8.434 1.392 8.434 2.316 0 1.81-3.183 1.81-8.434h2.224v10.272h-2.07z"/><path id="path4810" class="st4" d="M317.12 384.845h1.237c0-.79-.042-2.075.261-2.805.669-1.552 2.653-1.584 4.189-.996l-.29 1.895c-2.114-.603-1.935.466-1.935 1.906h1.664v2.138h-1.664v8.134h-2.225v-8.134h-1.238v-2.138z"/></g><g id="text2014"><path id="path4813" class="st4" d="M123.878 436.535V421.41h2.002v15.125h-2.002z"/><path id="path4815" class="st4" d="M129.16 436.535v-10.957h1.672v1.558c1.793-2.682 6.45-2.411 7.13.856.168.843.103 3.02.103 8.543h-1.858c0-7.084.627-9.595-2.28-9.595-3.595 0-2.91 3.568-2.91 9.595h-1.856z"/><path id="path4817" class="st4" d="M140.923 436.535V421.41h1.857v5.427c2.056-2.383 5.765-1.718 6.675.299.506 1.092.392 2.03.392 9.399h-1.857v-6.944c0-3.725-4.059-3.066-4.9-1.073-.423 1-.31 1.983-.31 8.017h-1.857z"/><path id="path4819" class="st4" d="M153.21 436.535v-2.115h2.116v2.115h-2.115z"/><path id="path4821" class="st4" d="M164.58 436.535V421.41h3.013c3.593 10.747 3.941 11.766 4.302 12.948.38-1.212.731-2.21 4.427-12.948h2.692v15.125h-1.929v-12.66l-4.395 12.66h-1.806l-4.374-12.876v12.876h-1.93z"/><path id="path4823" class="st4" d="M189.177 435.183c-1.225 1.042-2.422 1.6-4.034 1.6-4.69 0-4.956-5.208-1.083-6.284 1.182-.312 3.39-.368 4.962-.918.029-1.046.164-2.714-2.63-2.714-1.76 0-2.468.561-2.859 2.085l-1.815-.248c.912-4.297 6.135-3.453 7.222-3.044 3.323 1.251 1.292 4.803 2.074 9.565.082.453.24.89.474 1.31h-1.94a3.937 3.937 0 0 1-.371-1.352zm-.155-4.147c-1.269.518-4.121.842-4.653 1.073-1.143.496-1.316 1.939-.433 2.724 1.04.908 5.086.972 5.086-3.116v-.681z"/><path id="path4825" class="st4" d="M193.768 436.535v-10.957h1.672v1.66c.95-1.73 2.16-2.619 4.281-1.31l-.64 1.724c-.784-.464-1.718-.596-2.455-.031-1.269.945-1 3.28-1 8.914h-1.858z"/><path id="path4827" class="st4" d="M200.856 436.535V421.41h1.857v8.625l4.396-4.457h2.404l-4.19 4.065 4.613 6.892h-2.29l-3.622-5.603-1.31 1.26v4.343h-1.858z"/><path id="path4829" class="st4" d="M218.592 436.535v-1.61c-1.419 2.06-3.726 2.174-5.293 1.486-2.416-1.074-1.93-2.896-1.93-10.833h1.858c0 7.072-.6 9.605 2.26 9.605 3.567 0 2.909-3.487 2.909-9.605h1.857v10.957h-1.661z"/><path id="path4831" class="st4" d="M222.43 433.264l1.837-.289c.451 3.223 5.354 2.805 5.354.537 0-1.647-2.671-1.287-5.282-2.507-2.321-1.13-2.201-4.565.825-5.448 1.409-.424 5.375-.659 5.953 2.848l-1.816.247c-.382-2.613-4.766-2.14-4.766-.381 0 1.963 5.084 1.34 6.551 3.456.848 1.222.59 3.611-1.66 4.612-1.603.696-6.237 1.202-6.996-3.075z"/><path id="path4833" class="st4" d="M242.477 436.535l-4.014-15.125h2.053c2.605 11.222 2.63 11.23 2.94 13.01.76-3.187.224-1.172 3.56-13.01h2.415c2.38 8.41 2.907 9.983 3.343 13.01.314-1.56.377-1.75 3.126-13.01h2.012l-4.148 15.125h-1.93c-.127-.462-3.56-12.831-3.662-13.3-.305 1.339-.105.558-3.652 13.3h-2.043z"/><path id="path4835" class="st4" d="M265.939 435.183c-1.226 1.042-2.423 1.6-4.035 1.6-4.637 0-4.989-5.199-1.083-6.284 1.183-.312 3.39-.368 4.963-.918.02-.733.04-1.593-.516-2.084-.976-.863-3.215-.785-4.055-.165-.412.302-.719.842-.918 1.62l-1.816-.248c.944-4.446 8.342-4.41 9.09-.95.368 1.88-.404 6.834.68 8.78h-1.939a3.938 3.938 0 0 1-.371-1.35zm-.155-4.147c-1.27.518-4.122.842-4.653 1.073-1.532.665-1.426 3.219 1.217 3.219 2.75 0 3.436-1.722 3.436-4.292z"/><path id="path4837" class="st4" d="M270.51 436.535V421.41h1.856v15.125h-1.857z"/><path id="path4839" class="st4" d="M275.214 436.535V421.41h1.857v15.125h-1.857z"/><path id="path4841" class="st4" d="M44.444 461.046V445.92h2.002v6.211h7.862v-6.21h2.001v15.125h-2.001v-7.13h-7.862v7.13h-2.002z"/><path id="path4843" class="st4" d="M66.565 459.694c-3.13 2.66-7.78 1.918-7.78-1.537 0-3.908 4.98-3.14 7.625-4.065.046-1.695-.327-2.714-2.63-2.714-1.761 0-2.468.561-2.859 2.084l-1.815-.247c.42-1.977 1.614-3.374 4.942-3.374 7.295 0 2.5 7.027 4.828 11.205h-1.94a3.938 3.938 0 0 1-.371-1.352zm-.155-4.147c-2.342.956-4.62.487-5.385 1.681-1.147 1.743 1.303 3.566 3.858 2.146 1.61-.914 1.527-2.29 1.527-3.827z"/><path id="path4845" class="st4" d="M78.358 461.046v-1.61c-1.932 2.805-5.49 1.976-6.541.557-.857-1.208-.681-2.058-.681-9.904h1.857c0 7.11-.596 9.605 2.26 9.605 3.664 0 2.909-3.905 2.909-9.605h1.857v10.957h-1.661z"/><path id="path4847" class="st4" d="M82.939 465.245v-15.156h1.692v1.423c.895-1.25 1.936-1.671 3.178-1.671 6.352 0 6.134 11.452-.135 11.452a3.615 3.615 0 0 1-2.878-1.382v5.334h-1.857zm1.681-9.616c0 4.397 3.39 5.063 5.046 3.095 1.527-1.812 1.316-7.428-2.033-7.428-1.445 0-3.013 1.335-3.013 4.333z"/><path id="path4849" class="st4" d="M98.755 459.385l.269 1.64c-4.872 1.026-3.983-1.72-3.983-9.492h-1.362v-1.444h1.362v-2.714l1.847-1.114v3.828h1.867v1.444h-1.867c0 7.51-.688 8.216 1.867 7.852z"/><path id="path4851" class="st4" d="M99.818 457.775l1.836-.289c.458 3.262 5.355 2.739 5.355.537 0-2.09-5.044-1.253-6.48-3.55-2.766-4.611 7.081-6.979 7.976-1.557l-1.816.247c-.453-3.095-6.09-1.706-4.54.268.413.543 1.334.692 2.353.97 1.971.527 3.279.837 3.972 1.837.56.807.664 2.185-.103 3.343-1.49 2.263-7.704 2.976-8.553-1.806z"/><path id="path4853" class="st4" d="M115.18 459.385l.269 1.64c-4.872 1.026-3.983-1.72-3.983-9.492h-1.362v-1.444h1.362v-2.714l1.847-1.114v3.828h1.868v1.444h-1.868c0 7.51-.687 8.216 1.868 7.852z"/><path id="path4855" class="st4" d="M116.966 461.046v-10.957h1.67v1.66c.97-1.765 2.185-2.604 4.283-1.31l-.64 1.723c-1.654-.977-3.456-.366-3.456 3.147v5.737h-1.857z"/><path id="path4857" class="st4" d="M123.414 461.046v-2.115h2.115v2.115h-2.115z"/><path id="path4859" class="st4" d="M140.046 461.046v-3.622h-6.562v-1.702l6.902-9.802h1.517v9.802h2.043v1.702h-2.043v3.622h-1.857zm0-5.324v-6.82l-4.736 6.82h4.736z"/><path id="path4861" class="st4" d="M146.133 457.548l1.785-.165c.71 3.941 6.307 3.32 6.025-3.456-2.18 3.473-8.089 2.353-8.089-2.961 0-4.652 4.487-6.246 7.45-4.313 3.438 2.225 2.608 9.113 1.867 11.143-1.777 4.837-8.41 4.698-9.038-.248zm7.604-6.675c0-4.8-5.974-4.485-5.974.155 0 4.194 5.974 4.562 5.974-.155z"/><path id="path4863" class="st4" d="M157.503 458.157c0-3.917 4.901-3.113 7.624-4.065.02-.733.04-1.593-.516-2.084-.976-.863-3.215-.785-4.054-.165-.413.302-.72.842-.919 1.62l-1.816-.248c.359-1.688 1.16-2.52 2.456-2.982 1.517-.554 5.972-1.03 6.634 2.033.393 2.006-.42 6.805.681 8.78h-1.94a3.937 3.937 0 0 1-.371-1.352c-2.488 2.489-7.78 2.169-7.78-1.537zm7.624-2.61c-2.575 1.05-5.643.354-5.643 2.558 0 2.392 4.243 2.268 5.344-.02.338-.711.3-1.748.3-2.538z"/><path id="path4865" class="st4" d="M170.379 461.046v-2.115h2.115c0 2.275.348 4.202-1.723 5.107l-.516-.795c.924-.405 1.143-1.192 1.176-2.197h-1.052z"/><path id="path4867" class="st4" d="M183.956 452.843c-3.762-1.377-2.739-6.984 2.074-6.984 4.71 0 5.989 5.547 2.167 6.984 4.527 1.476 3.576 8.46-2.136 8.46-5.774 0-6.678-7.265-2.105-8.46zm2.116-.712c3.318 0 3.182-4.745-.021-4.745-3.253 0-3.318 4.745.02 4.745zm-3.085 4.55c0 3.075 3.564 3.948 5.292 2.24 1.818-1.797.725-5.273-2.26-5.273-1.753 0-3.032 1.279-3.032 3.033z"/><path id="path4869" class="st4" d="M202.497 449.624l-1.847.145c-.842-3.72-5.96-3.607-6.025 3.477.9-1.37 2.267-2.012 3.673-2.012 6.004 0 5.966 10.07-.269 10.07-6.862 0-5.853-10.981-3.631-13.712 2.231-2.736 7.524-2.433 8.099 2.032zm-7.583 6.521c0 1.928 1.222 3.632 3.084 3.632 3.745 0 3.972-6.903-.072-6.903-1.586 0-3.012 1.214-3.012 3.271z"/><path id="path4871" class="st4" d="M207.48 452.843c-3.81-1.394-2.697-6.984 2.074-6.984 4.698 0 6.005 5.54 2.167 6.984 4.575 1.492 3.525 8.46-2.136 8.46-5.796 0-6.653-7.272-2.105-8.46zm-.371-3.146c0 1.435 1.005 2.435 2.486 2.435 3.318 0 3.162-4.746-.02-4.746-1.472 0-2.466 1.08-2.466 2.31zm2.497 10.08c4.142 0 4.048-6.129-.062-6.129-4.046 0-4.047 6.129.062 6.129z"/><path id="path4873" class="st4" d="M226.02 449.624l-1.846.145c-.843-3.72-5.961-3.607-6.026 3.477.9-1.37 2.267-2.012 3.673-2.012 6.052 0 5.94 10.07-.268 10.07-6.863 0-5.853-10.981-3.632-13.712 2.232-2.737 7.525-2.432 8.1 2.032zm-4.498 10.153c3.744 0 3.972-6.903-.072-6.903-4.224 0-3.805 6.903.072 6.903z"/><path id="path4875" class="st4" d="M237.782 449.624l-1.846.145c-.847-3.74-5.962-3.595-6.026 3.477.9-1.37 2.267-2.012 3.673-2.012 6.005 0 5.967 10.07-.268 10.07-6.863 0-5.853-10.981-3.632-13.712 2.23-2.734 7.524-2.436 8.1 2.032zm-7.583 6.521c0 1.968 1.251 3.632 3.085 3.632 3.722 0 3.979-6.903-.072-6.903-1.587 0-3.013 1.214-3.013 3.271z"/><path id="path4877" class="st4" d="M246.46 461.046V445.92h3.012c3.525 10.543 3.93 11.733 4.302 12.949.38-1.212.731-2.21 4.427-12.949h2.692v15.126h-1.929v-12.66l-4.395 12.66h-1.806l-4.374-12.876v12.876h-1.93z"/><path id="path4879" class="st4" d="M263.916 448.056v-2.136h1.858v2.136h-1.858zm0 12.99v-10.957h1.858v10.957h-1.858z"/><path id="path4881" class="st4" d="M275.76 457.032l1.827.238c-.9 5.683-9.544 5.677-9.544-1.662 0-7.306 8.401-7.325 9.369-2.3l-1.806.278c-.652-2.792-3.492-2.689-4.777-1.207-1.205 1.375-1.157 5.054-.031 6.387 1.34 1.585 4.5 1.549 4.963-1.734z"/><path id="path4883" class="st4" d="M279.186 461.046V445.92h1.857v8.626l4.395-4.457h2.404l-4.188 4.065 4.611 6.892h-2.29l-3.621-5.603-1.31 1.26v4.343h-1.858z"/><path id="path4885" class="st4" d="M289.74 461.046V445.92h1.858v5.427c2.05-2.375 5.767-1.715 6.675.3.506 1.092.392 2.03.392 9.399h-1.857c0-6.014.338-7.987-.608-8.966-1.068-1.14-3.586-.723-4.292.95-.423 1-.31 1.982-.31 8.016h-1.857z"/><path id="path4887" class="st4" d="M308.653 459.694c-4.432 3.767-9.276.394-7.419-3.002 1.343-2.424 4.45-1.617 7.264-2.6.046-1.695-.327-2.714-2.631-2.714-1.76 0-2.467.561-2.858 2.084l-1.816-.247c.359-1.688 1.16-2.52 2.456-2.982 1.701-.622 4.922-.616 6.056.774 1.416 1.7-.04 7.707 1.259 10.039h-1.94a3.938 3.938 0 0 1-.371-1.352zm-.155-4.147c-2.342.956-4.62.487-5.386 1.681-1.147 1.743 1.304 3.566 3.859 2.146 1.612-.915 1.527-2.294 1.527-3.827z"/><path id="path4889" class="st4" d="M320.445 461.046v-1.61c-1.93 2.802-6.459 2.38-7.108-.825-.178-.856-.114-2.473-.114-8.522h1.857c0 7.709-.225 8.386.857 9.192.812.591 2.063.514 2.971-.01 1.68-.993 1.341-2.542 1.341-9.182h1.858v10.957h-1.662z"/><path id="path4891" class="st4" d="M324.284 457.775l1.836-.289c.39 2.784 3.736 2.598 4.736 1.765.77-.655.86-1.698.072-2.219-1.635-1.06-6.335-.634-6.335-4.034 0-4.043 7.648-4.506 8.378-.082l-1.816.247c-.45-3.08-6.142-1.77-4.54.268 1.075 1.418 6.769.681 6.769 4.396 0 3.76-5.601 4.217-7.677 2.58-.742-.592-1.217-1.47-1.423-2.632z"/><path id="path4893" class="st4" d="M343.092 457.517l1.92.237c-1.388 5.14-10.04 5.044-10.04-2.094 0-7.808 10.354-8.028 10.09.382h-8.17c.251 4.41 4.937 4.987 6.2 1.475zm-6.097-3.002h6.118c-.399-4.453-5.86-4-6.118 0z"/><path id="path4895" class="st4" d="M347.353 461.046v-10.957h1.672v1.558c1.813-2.712 6.456-2.382 7.129.856.169.843.103 3.017.103 8.543H354.4c0-5.98.122-7.487-.217-8.357-.539-1.412-2.74-1.682-4.116-.485-.571.502-.857 1.454-.857 2.858v5.984h-1.857z"/><path id="path4897" class="st4" d="M11.109 485.557v-13.34H6.126v-1.786h11.988v1.785H13.11v13.34H11.11z"/><path id="path4899" class="st4" d="M25.172 482.028l1.919.237c-.59 2.185-2.21 3.54-4.819 3.54-7.257 0-6.82-11.453-.103-11.453 2.885 0 5.105 1.983 4.973 6.2h-8.171c.251 4.401 4.937 4.988 6.2 1.476zm-6.098-3.002h6.118c-.395-4.418-5.858-4.02-6.118 0z"/><path id="path4901" class="st4" d="M29.391 485.557V470.43h1.857v15.126h-1.857z"/><path id="path4903" class="st4" d="M34.664 485.557v-2.115h2.115v2.115h-2.115z"/><path id="path4905" class="st4" d="M50.274 470.37c6.096 0 5.185 9.63 4.385 12.03-1.427 4.253-5.956 4.188-7.82 1.846-2.143-2.703-2.916-13.877 3.435-13.877zm0 13.918c4.222 0 3.196-9.683 2.146-11.154-1.196-1.693-3.211-1.56-4.21-.144-1.187 1.711-2.14 11.298 2.064 11.298z"/><path id="path4907" class="st4" d="M59.962 477.354c-3.704-1.356-2.782-6.985 2.074-6.985 4.695 0 6 5.544 2.166 6.985 4.517 1.472 3.592 8.46-2.135 8.46-5.822 0-6.621-7.28-2.105-8.46zm2.115-.712c3.292 0 3.203-4.746-.02-4.746-3.3 0-3.283 4.746.02 4.746zm.01 7.646c4.133 0 4.053-6.129-.062-6.129-4.087 0-4.022 6.129.062 6.129z"/><path id="path4909" class="st4" d="M78.626 483.772v1.785h-9.998c-.134-4.363 8.069-7.147 8.069-11.03 0-3.37-5.779-3.797-5.809.413l-1.909-.196c.572-6.226 9.626-5.52 9.626-.176 0 3.991-5.797 6.59-7.397 9.204h7.418z"/><path id="path4911" class="st4" d="M85.56 470.37c1.664 0 2.885.718 3.652 1.908 1.785 2.739 2.001 10.261-.908 12.65-1.533 1.255-4.57 1.34-6.18-.682-1.985-2.504-3.116-13.877 3.435-13.877zm0 13.918c2.746 0 3.022-3.546 3.022-6.19 0-2.709-.277-6.191-3.043-6.191-.853 0-1.534.36-2.043 1.083-1.188 1.711-2.14 11.298 2.063 11.298z"/><path id="path4913" class="st4" d="M98.343 485.557v-3.622H91.78v-1.702l6.902-9.802h1.517v9.802h2.043v1.702H100.2v3.622h-1.857zm0-5.324v-6.82l-4.736 6.82h4.736z"/><path id="path4915" class="st4" d="M119.772 483.772v1.785h-9.998c-.134-4.364 8.069-7.147 8.069-11.03 0-3.378-5.779-3.796-5.81.413l-1.908-.196c.748-8.15 14.503-3.802 8.017 3.456-1.935 2.191-4.75 3.877-5.788 5.572h7.418z"/><path id="path4917" class="st4" d="M122.052 482.059l1.785-.165c.71 3.937 6.309 3.36 6.025-3.456a4.288 4.288 0 0 1-3.61 1.99c-5.996 0-6.05-10.059.278-10.059.983 0 1.881.265 2.693.795 2.147 1.39 2.496 3.953 2.496 6.52 0 2.652-.347 5.68-2.507 7.233-2.146 1.556-6.616 1.418-7.16-2.858zm7.604-6.675c0-1.97-1.177-3.477-2.9-3.477-3.868 0-4.301 6.881-.05 6.881 1.862 0 2.95-1.434 2.95-3.404z"/><path id="path4919" class="st4" d="M136.393 477.354c-3.797-1.39-2.706-6.985 2.074-6.985 4.706 0 5.99 5.547 2.167 6.985 4.516 1.472 3.592 8.46-2.136 8.46-5.78 0-6.66-7.27-2.105-8.46zm-.371-3.147c0 3.273 4.931 3.197 4.931.104 0-3.222-4.931-3.16-4.931-.104zm-.599 6.985c0 4.111 6.16 4.125 6.16.062 0-4.078-6.16-4.158-6.16-.062z"/><path id="path4921" class="st4" d="M145.42 472.412v-1.785h9.792v1.445c-2.145 2.282-5.36 7.527-5.767 13.485h-1.909c.07-4.038 2.199-9.622 5.293-13.145h-7.408z"/><path id="path4923" class="st4" d="M166.695 474.135l-1.846.145c-.808-3.569-5.96-3.82-6.026 3.477 3.168-4.826 10.498-.363 7.522 5.54-.82 1.64-2.313 2.518-4.117 2.518-6.894 0-5.844-10.993-3.632-13.712 2.22-2.723 7.523-2.444 8.1 2.032zm-4.498 10.153c3.728 0 3.974-6.903-.072-6.903-4.257 0-3.787 6.902.072 6.903z"/><path id="path4925" class="st4" d="M169.1 482.059l1.784-.165c.71 3.938 6.31 3.359 6.026-3.456a4.288 4.288 0 0 1-3.611 1.99c-5.949 0-6.105-10.059.278-10.059 7 0 6.106 12.086 2.683 14.548-2.156 1.563-6.618 1.408-7.16-2.858zm7.603-6.675c0-1.97-1.177-3.477-2.899-3.477-3.868 0-4.296 6.881-.051 6.881 1.862 0 2.95-1.434 2.95-3.404z"/><path id="path4927" class="st4" d="M192.995 485.557V470.43h3.012c3.534 10.572 3.932 11.736 4.303 12.949.378-1.212.73-2.21 4.426-12.949h2.693v15.126h-1.93v-12.66l-4.395 12.66h-1.806l-4.374-12.877v12.877h-1.93z"/><path id="path4929" class="st4" d="M214.888 474.352c6.967 0 6.93 11.452 0 11.452-6.926 0-7.033-11.452 0-11.452zm-3.23 5.726c0 5.651 6.45 5.69 6.45-.062 0-5.485-6.45-5.645-6.45.062z"/><path id="path4931" class="st4" d="M223.916 485.557h-1.723V470.43h1.857v5.396c1.922-2.41 6.108-1.953 7.315 1.857 2.16 6.82-4.74 10.476-7.45 6.5v1.373zm2.889-1.28c4.01 0 4.037-8.398.082-8.398-3.942 0-4.213 8.398-.082 8.398z"/><path id="path4933" class="st4" d="M233.975 472.567v-2.136h1.857v2.136h-1.857zm0 12.99V474.6h1.857v10.957h-1.857z"/><path id="path4935" class="st4" d="M238.628 485.557V470.43h1.858v15.126h-1.858z"/><path id="path4937" class="st4" d="M248.719 478.097c0-9.474 6.663-8.8 8.584-5.819 1.79 2.748 1.996 10.265-.908 12.65-1.589 1.3-7.676 2.66-7.676-6.83zm4.932 6.19c4.222 0 3.196-9.682 2.146-11.153-1.196-1.693-3.212-1.56-4.21-.144-1.187 1.711-2.14 11.298 2.064 11.298z"/><path id="path4939" class="st4" d="M267.476 485.557h-1.857v-11.834c-.928.884-2.624 1.836-3.715 2.238v-1.795c2.335-1.097 3.822-2.678 4.375-3.797h1.197v15.188z"/><path id="path4941" class="st4" d="M281.879 474.135l-1.847.145c-.835-3.688-5.96-3.692-6.025 3.477 3.173-4.834 10.482-.332 7.521 5.54-.82 1.64-2.313 2.518-4.116 2.518-6.894 0-5.844-10.993-3.632-13.712 2.22-2.723 7.523-2.446 8.099 2.032zm-4.498 10.153c3.725 0 3.98-6.903-.073-6.903-4.155 0-3.875 6.902.073 6.903z"/><path id="path4943" class="st4" d="M284.004 478.097c0-9.747 6.801-8.586 8.584-5.819 1.878 2.881 1.919 10.33-.907 12.65-1.59 1.3-7.677 2.66-7.677-6.83zm4.932 6.19c.853 0 1.568-.412 2.146-1.238 1.027-1.449 2.119-11.142-2.167-11.142-.852 0-1.533.36-2.042 1.083-1.108 1.596-2.24 11.298 2.063 11.298z"/><path id="path4945" class="st4" d="M301.905 482.059l1.785-.165c.722 4.002 6.305 3.233 6.025-3.456-2.18 3.472-8.088 2.352-8.088-2.962 0-5.936 7.264-6.83 9.306-2.042.82 1.879 1.479 9.077-1.868 11.483-2.146 1.556-6.616 1.418-7.16-2.858zm7.604-6.675c0-3.346-3.19-4.52-5.056-2.466-1.154 1.272-1.293 3.672-.051 4.973 1.652 1.69 5.107 1.097 5.107-2.507z"/><path id="path4947" class="st4" d="M313.512 472.412v-1.785h9.791v1.445c-2.148 2.286-5.36 7.533-5.767 13.485h-1.909c.069-3.968 2.186-9.607 5.293-13.145h-7.408z"/><path id="path4949" class="st4" d="M325.15 478.097c0-9.796 6.819-8.559 8.584-5.819 1.958 3.004 2.482 13.537-3.652 13.537-3.97 0-4.932-3.788-4.932-7.718zm4.932 6.19c2.747 0 3.023-3.545 3.023-6.19 0-2.708-.277-6.19-3.044-6.19-.853 0-1.534.36-2.043 1.083-1.187 1.711-2.143 11.298 2.064 11.298z"/><path id="path4951" class="st4" d="M338.78 481.316c.952 4.7 6.076 3.265 6.076-.186 0-1.827-1.442-3.478-4.271-2.734l.206-1.63c2.974.33 4.367-2.575 2.693-4.199-1.123-1.09-4.028-1.184-4.519 2.053l-1.857-.33c.743-4.077 4.616-4.524 6.83-3.384 2.625 1.325 3.08 5.07.062 6.459 3.347.772 3.642 4.925 1.383 7.088-2.626 2.494-8.012 1.673-8.46-2.89l1.857-.247z"/><path id="path4953" class="st4" d="M353.606 470.37c6.486 0 5.816 12.036 2.744 14.557-1.533 1.256-4.57 1.342-6.18-.68-2.142-2.704-2.916-13.878 3.436-13.878zm-3.023 7.727c0 2.742.28 6.19 3.023 6.19 4.222 0 3.196-9.682 2.146-11.153-1.196-1.693-3.212-1.56-4.21-.144-.64.922-.96 2.624-.96 5.107z"/><path id="path4955" class="st4" d="M360.446 481.564l1.857-.248c.761 3.757 3.86 3.388 5.17 2.064 1.95-1.951.758-6.068-3.364-4.984l.206-1.63c4.268.474 4.418-4.87.908-4.87-1.365 0-2.446.82-2.734 2.724l-1.857-.33c1.062-5.828 8.976-4.63 8.976.01 0 1.246-.65 2.405-2.084 3.065 3.348.772 3.64 4.926 1.382 7.088-2.625 2.494-8.011 1.673-8.46-2.89z"/><path id="path4957" class="st4" d="M379.193 485.557h-1.857v-11.834c-.928.884-2.624 1.836-3.715 2.238v-1.795c2.335-1.097 3.821-2.678 4.375-3.797h1.197v15.188z"/><path id="path4959" class="st4" d="M384.083 472.412v-1.785h9.791v1.445c-2.144 2.282-5.359 7.527-5.767 13.485h-1.909c.07-4.022 2.19-9.61 5.293-13.145h-7.408z"/></g></g></svg>