<svg width="400" height="300" viewBox="0 0 105.83333 79.375002" xmlns="http://www.w3.org/2000/svg"><path d="M2.788 59.627c-.002-.002.002-3.423.008-7.603.013-8.123.006-7.595.107-8.15.4-2.198 1.918-4.18 3.998-5.222a7.215 7.215 0 0 1 2.1-.676c.283-.046.433-.057.937-.066.63-.012.872.003 1.357.082 2.651.435 4.974 2.449 5.797 5.027.077.242.178.641.217.855.101.56.094.02.101 8.154l.007 7.602h-7.313c-4.022 0-7.314-.002-7.316-.004zm7.718-8.119c1.03-.074 1.97-.364 2.8-.863a6.348 6.348 0 0 0 3.063-4.718c.04-.342.046-1.008.01-1.35a6.367 6.367 0 0 0-1.345-3.304 8.07 8.07 0 0 0-1.009-1.008 6.322 6.322 0 0 0-3.323-1.346c-.355-.033-1.196-.015-1.505.034a6.406 6.406 0 0 0-2.4.88 6.664 6.664 0 0 0-1.962 1.91 6.284 6.284 0 0 0-.905 4.753c.46 2.236 2.142 4.078 4.341 4.754.45.138.894.217 1.5.266.19.016.447.013.735-.008zm-3.937-3.38c-.132-.034-.306-.116-.36-.17-.038-.038-.04-.117-.04-1.582 0-.93.01-1.614.023-1.724.046-.38.17-.703.354-.927.069-.085.1-.144.11-.216a2.86 2.86 0 0 1 .205-.645c.114-.243.22-.399.41-.598.405-.424.98-.675 1.85-.807.3-.045 1.285-.064 1.655-.031.987.087 1.64.33 2.117.79.332.318.533.694.65 1.213.03.14.058.2.142.313.18.244.282.508.335.876.013.09.022.793.022 1.736v1.585l-.1.063a.938.938 0 0 1-1.006-.007l-.072-.048-.011-.454-.011-.453-.065.003c-.036.002-.206.018-.379.037-.739.08-.96.089-2.292.089-1.364 0-1.725-.017-2.465-.108a1.068 1.068 0 0 0-.265-.015c-.009.01-.019.216-.022.459l-.006.442-.072.048a.979.979 0 0 1-.708.13zm4.146-1.313a16.513 16.513 0 0 0 1.606-.11c.481-.055 1.114-.16 1.144-.19.035-.035-.038-.103-.138-.128-.062-.016-.156-.013-.329.008-.883.108-1.91.149-3.314.132-1.076-.013-1.668-.043-2.359-.122-.396-.046-.487-.039-.561.043-.06.066-.021.087.242.132.74.128 1.57.21 2.375.234.286.01.558.017.606.019.047.002.375-.006.728-.018zm1.022-.942c.04-.04.044-.1.008-.135-.037-.038-3.241-.038-3.279 0-.038.038-.031.12.012.145.025.015.59.023 1.632.023 1.42 0 1.597-.003 1.627-.033zm-3.76-.106c.093-.04.139-.137.139-.298 0-.15-.058-.244-.181-.299-.108-.047-.262-.071-.71-.109-.357-.03-.357-.03-.43.113-.136.267.093.503.575.593.212.039.513.039.607 0zm4.971-.023c.282-.077.473-.217.5-.367a.402.402 0 0 0-.097-.303c-.04-.035-.064-.035-.46 0-.453.039-.553.057-.66.123-.095.058-.135.143-.135.282 0 .153.054.258.151.293.1.036.53.019.701-.028zm-1.219-.357c.051-.027.055-.113.008-.16-.03-.03-.207-.034-1.623-.034-1.055 0-1.604.008-1.632.022-.047.026-.057.127-.016.168.035.035 3.2.038 3.263.004zm-4.56-1.772c1.755-.224 3.971-.228 5.79-.01.243.029.447.047.454.04.017-.017-.114-.393-.203-.58a2.378 2.378 0 0 0-.486-.684 1.903 1.903 0 0 0-.985-.521c-.206-.045-.276-.048-1.45-.057-1.615-.013-1.858.01-2.28.212-.533.254-.893.688-1.146 1.379-.068.185-.082.263-.046.263.012 0 .17-.019.352-.042z" fill="#18408c"/><text x="-29.508" y="274.084" style="font-feature-settings:normal;font-variant-alternates:normal;font-variant-caps:normal;font-variant-ligatures:normal;font-variant-numeric:normal;font-variant-position:normal;line-height:125.99999905%;shape-padding:0;text-decoration-color:#000;text-decoration-line:none;text-decoration-style:solid;text-indent:0;text-orientation:mixed;text-transform:none" font-family="Arial" font-size=".297" letter-spacing="0" stroke-width=".015" white-space="normal" word-spacing="0" transform="translate(33.876 -219.023)"><tspan x="-29.508" y="274.084" style="line-height:96.80000544%" fill="#fff" font-size="1.615" font-weight="700" letter-spacing=".029" stroke="#fff">Meisterbetrieb</tspan><tspan x="-29.508" y="275.648" style="line-height:96.80000544%" fill="#fff" font-size="1.615" font-weight="700" stroke="#fff">der Kfz-Innung</tspan></text><path d="M5.966 49.174a5.786 5.786 0 0 1 8.178.27 5.786 5.786 0 0 1 .27-8.179 5.786 5.786 0 0 1-8.178-.27 5.786 5.786 0 0 1-.27 8.179z" fill="none"/><g style="font-feature-settings:normal;font-variant-alternates:normal;font-variant-caps:normal;font-variant-ligatures:normal;font-variant-numeric:normal;font-variant-position:normal;shape-padding:0;text-decoration-color:#000;text-decoration-line:none;text-decoration-style:solid;text-indent:0;text-orientation:mixed;text-transform:none" fill="#18408c" white-space="normal"><path d="M6.742 49.29l.089-.103.371.319-.28.325q-.144-.006-.264-.05-.12-.043-.216-.126-.13-.11-.188-.257-.057-.146-.02-.297t.147-.28q.11-.128.258-.193.15-.064.296-.032.147.033.278.146.095.081.145.178.05.097.047.19-.004.092-.057.2l-.13-.061q.038-.084.042-.147.004-.064-.031-.133-.035-.07-.1-.128-.08-.068-.16-.093-.078-.026-.148-.018-.069.01-.13.04-.103.052-.185.147-.1.117-.128.23-.028.114.017.219.044.104.13.179.076.065.172.098.097.032.162.031l.14-.163zM7.165 50.171l.531-1.027.743.384-.063.122-.606-.314-.163.314.568.294-.062.12-.569-.293-.18.35.63.325-.063.121zM8.493 50.77l-.046-1.196.153.035.006.778q.001.122-.005.241l.098-.197.386-.714.18.04.033.608q.013.226-.002.42.046-.103.111-.234l.34-.685.15.034-.562 1.058-.144-.032-.045-.913q-.006-.114-.006-.14-.035.074-.063.125l-.432.806zM9.979 51.017l-.04-1.156.836-.028.005.136-.683.024.012.353.64-.021.004.135-.64.022.014.393.71-.024.004.136zM11.233 50.93l-.296-1.117.496-.131q.149-.04.235-.03.085.01.152.073.067.064.091.156.032.12-.024.221-.055.102-.21.167.066.012.104.032.08.042.162.116l.275.253-.186.049-.21-.193q-.091-.084-.147-.126-.056-.043-.096-.055-.038-.013-.074-.012-.027.001-.084.016l-.172.046.131.496zm-.018-.663l.318-.084q.102-.027.153-.063.052-.036.07-.09.017-.054.003-.108-.021-.08-.093-.115-.07-.036-.195-.004l-.353.094zM12.51 50.538l-.538-1.022.384-.203q.117-.061.204-.067.087-.007.161.037.074.043.112.113.034.066.029.143-.005.076-.058.15.107-.022.191.018.085.039.132.128.038.072.04.15.002.077-.025.134-.027.057-.086.11-.058.053-.155.104zm-.176-.664l.22-.116q.09-.048.124-.08.043-.043.05-.092.008-.05-.02-.103-.027-.051-.072-.077-.045-.026-.097-.016-.053.01-.164.067l-.204.108zm.248.472l.255-.134q.066-.034.09-.053.042-.033.063-.07.021-.035.022-.083 0-.048-.025-.097-.03-.057-.082-.084-.052-.027-.113-.016-.06.01-.158.061l-.237.125zM13.61 49.906l-.746-.883.638-.54.088.105-.521.44.229.271.488-.413.088.104-.489.413.254.3.542-.458.088.104z"/></g><g style="font-feature-settings:normal;font-variant-alternates:normal;font-variant-caps:normal;font-variant-ligatures:normal;font-variant-numeric:normal;font-variant-position:normal;shape-padding:0;text-decoration-color:#000;text-decoration-line:none;text-decoration-style:solid;text-indent:0;text-orientation:mixed;text-transform:none" fill="#18408c" white-space="normal"><path d="M5.556 44.628l-1.129-.249.033-.15.56.124-.436-.684.044-.202.353.574.78-.346-.043.197-.66.276.14.225.39.086zM5.799 43.615l-1.04-.505.224-.46q.068-.14.131-.198.063-.06.155-.068.092-.009.178.033.11.054.152.162t-.012.268q.053-.042.093-.058.084-.033.193-.047l.371-.043-.084.173-.283.033q-.123.014-.192.03-.068.014-.103.036-.035.02-.058.049-.017.02-.042.074l-.078.16.462.224zm-.514-.42l.144-.295q.045-.094.052-.157.006-.063-.023-.111-.03-.049-.08-.073-.074-.036-.148-.005-.073.03-.13.145l-.159.33z"/><path d="M6.233 42.721l-.612-1.076.105-.128 1.193.368-.11.135-.356-.118-.307.373.19.32zm-.155-.559l.248-.303-.324-.11q-.148-.05-.237-.088.072.087.131.188zM6.993 41.838l-.718-.906.611-.485.085.107-.491.39.222.28.425-.337.085.107-.425.337.326.412zM8 41.143l-.459-.911-.34.17-.061-.121.818-.412.062.122-.342.172.458.911zM8.601 40.87l-.308-1.114.752-.208.037.131-.605.167.096.345.523-.144.036.131-.523.145.14.506zM9.291 40.664l.37-1.182.164-.01.546 1.123-.174.012-.157-.341-.482.03-.105.358zm.303-.495l.391-.025-.14-.311q-.065-.143-.098-.234-.015.112-.048.224zM10.454 40.61l.194-1.14.151.026-.08.468.593.101.08-.468.15.026-.194 1.14-.15-.026.09-.537-.592-.101-.091.537zM11.552 40.823l.464-1.06.47.206q.141.062.202.123.061.06.074.152.012.092-.026.18-.05.112-.156.157-.107.046-.269 0 .044.05.062.09.037.083.055.191l.057.37-.176-.078-.043-.282q-.02-.122-.038-.19t-.04-.102q-.022-.034-.051-.056-.022-.015-.076-.04l-.163-.07-.206.47zm.4-.53l.3.131q.097.042.16.047.062.003.11-.028.047-.032.07-.083.032-.075-.001-.148-.033-.072-.151-.123l-.335-.147zM12.489 41.246l.084-.114.917-.242q.098-.026.178-.04l-.518-.383.081-.11.665.493-.08.11-1 .258-.105.023.593.44-.08.11zM13.31 41.877l.87-.761.55.628-.102.09-.45-.513-.266.233.421.481-.102.09-.421-.482-.296.26.467.533-.103.09zM15.35 42.795l.071.135-.59.312q-.154.081-.264.094-.109.013-.214-.048-.104-.06-.182-.208-.076-.144-.075-.261.001-.118.074-.206.073-.09.236-.175l.59-.312.072.135-.59.312q-.133.07-.184.128-.05.058-.052.136-.002.08.044.166.08.15.18.177.101.028.294-.074zM15.045 44.088l.132-.031.114.476-.418.099q-.113-.09-.185-.196-.072-.106-.1-.229-.04-.166-.001-.318.04-.152.157-.253.118-.1.284-.14.164-.038.322-.004.16.036.259.148t.139.28q.029.123.012.23-.016.109-.073.182-.057.072-.164.128l-.069-.125q.08-.046.12-.095.04-.05.053-.126.014-.077-.006-.162-.024-.102-.073-.17-.049-.066-.11-.1-.062-.034-.128-.045-.115-.018-.237.01-.15.036-.24.112-.088.076-.114.186-.026.11 0 .222.023.097.082.18.06.083.113.121l.21-.05z"/></g><text x="5.82" y="235.158" style="font-feature-settings:normal;font-variant-alternates:normal;font-variant-caps:normal;font-variant-ligatures:normal;font-variant-numeric:normal;font-variant-position:normal;line-height:125%;shape-padding:0;text-decoration-color:#000;text-decoration-line:none;text-decoration-style:solid;text-indent:0;text-orientation:mixed;text-transform:none" fill="#2e3091" font-family="Arial" font-size="3.603" letter-spacing="0" stroke-width=".262" white-space="normal" word-spacing="0" transform="translate(0 -217.62)"><tspan x="5.82" y="235.158" font-size="8.467" font-style="italic" font-weight="700"><tspan font-size="11.289">K</tspan>FZ <tspan font-size="11.289">-</tspan><tspan font-size="11.289">S</tspan>ERVICE <tspan font-size="11.289">W</tspan>ALL</tspan></text><text x="24.423" y="244.569" style="font-feature-settings:normal;font-variant-alternates:normal;font-variant-caps:normal;font-variant-ligatures:normal;font-variant-numeric:normal;font-variant-position:normal;line-height:125%;shape-padding:0;text-decoration-color:#000;text-decoration-line:none;text-decoration-style:solid;text-indent:0;text-orientation:mixed;text-transform:none" font-family="Arial" font-size="3.603" letter-spacing="0" stroke-width=".262" white-space="normal" word-spacing="0" transform="translate(0 -217.62)"><tspan x="24.423" y="244.569" font-size="8.386" font-weight="700">M<tspan font-size="6.29">EISTERBETRIEB</tspan></tspan></text><text x="53.616" y="253.17" style="font-feature-settings:normal;font-variant-alternates:normal;font-variant-caps:normal;font-variant-ligatures:normal;font-variant-numeric:normal;font-variant-position:normal;line-height:117.99999475%;shape-padding:0;text-decoration-color:#000;text-decoration-line:none;text-decoration-style:solid;text-indent:0;text-orientation:mixed;text-transform:none" font-family="Arial" font-size="3.603" letter-spacing="-.039" stroke-width=".105" stroke="#000" white-space="normal" word-spacing="0" transform="translate(0 -217.62)"><tspan x="53.596" y="253.17" style="line-height:117.99999475%;text-align:center" font-size="5.241" font-stretch="condensed" font-weight="700" text-anchor="middle">Reparaturen aller Fabrikate – Unfallinstandsetzung</tspan><tspan x="53.596" y="259.355" style="line-height:117.99999475%;text-align:center" font-size="5.241" font-stretch="condensed" font-weight="700" text-anchor="middle">Autoglas – TÜV + AU</tspan><tspan x="53.596" y="265.539" style="line-height:117.99999475%;text-align:center" font-size="5.241" font-stretch="condensed" font-weight="700" text-anchor="middle">Gebrauchtwagen An- u. Verkauf</tspan></text><text x="53.225" y="276.498" style="font-feature-settings:normal;font-variant-alternates:normal;font-variant-caps:normal;font-variant-ligatures:normal;font-variant-numeric:normal;font-variant-position:normal;line-height:125%;shape-padding:0;text-decoration-color:#000;text-decoration-line:none;text-decoration-style:solid;text-indent:0;text-orientation:mixed;text-transform:none" font-family="Arial" font-size="3.603" letter-spacing="0" stroke-width=".105" stroke="#000" white-space="normal" word-spacing="0" transform="translate(0 -217.62)"><tspan x="53.225" y="276.498" style="line-height:115.99999666%;text-align:center" font-size="5.591" text-anchor="middle">Inh. Markus Wall</tspan><tspan x="53.225" y="282.983" style="line-height:115.99999666%;text-align:center" font-size="5.591" text-anchor="middle">Hauptstr. 49a, 86866 Mickhausen</tspan><tspan x="53.225" y="289.468" style="line-height:115.99999666%;text-align:center" font-size="5.591" text-anchor="middle">Tel. 08204 298769 Mobil 0160 97030317</tspan></text></svg>