<svg xmlns="http://www.w3.org/2000/svg" width="400" height="300" viewBox="0 0 400 300"><g transform="matrix(0 1.33333 1.33333 0 -12.164 -41.249)"><circle transform="matrix(0 1 1 0 0 0)" r="10.54" cy="145.878" cx="282.41" fill="#8dc63f" fill-rule="evenodd"/><path d="M151.665 277.076s-8.717 5.292-11.802 7.924c-.266.466-.41 1.207-.099 1.644.53.742 2.084 1.433 1.262.642 0 0-.254-.497-.29-.924-.035-.427-.208-.68.117-1.148.324-.469.952-1.11 1.77-1.236.237-.036.673-.089.818.102.21.275.123.429-.027.74-.146.303-.188.35-.466.557-.306.207-.27 1.617.062 1.27 2.699-2.244 10.61-10.626 8.655-9.571z" fill="#fff" fill-rule="evenodd"/><path d="M141.927 285.353c-.342 1.634.241 3.006 1.442 2.66 2.818-.81 3.599-4.606 6.609-2.671" fill="none" stroke="#edbf57" stroke-width=".6" stroke-linecap="round" stroke-linejoin="round"/><circle transform="matrix(0 1 1 0 0 0)" r="10.54" cy="145.878" cx="231.211" fill="#8dc63f" fill-rule="evenodd"/><g fill-rule="evenodd"><g transform="matrix(0 1 1 0 -1.242 2.988)"><circle cx="230.775" cy="149.533" r="4.313" fill="#ec7045"/><circle r="3.713" cy="149.533" cx="230.775" fill="#fabd5d"/><circle cx="230.775" cy="149.533" r="3.112" fill="#fff"/></g><g transform="matrix(0 1 1 0 .188 .14)" fill="#ec7045"><circle r=".563" cy="146.615" cx="234.014"/><circle cx="235.08" cy="148.349" r=".563"/><circle r=".563" cy="149.673" cx="233.369"/><circle cx="232.279" cy="147.869" r=".563"/></g></g><g transform="translate(-4.945 1.875)" fill-rule="evenodd"><g transform="matrix(0 .61957 .61957 0 55.317 82.37)" stroke-width="1.614"><circle r="4.313" cy="149.533" cx="230.775" fill="#ec7045"/><circle cx="230.775" cy="149.533" r="3.713" fill="#fabd5d"/><circle r="3.112" cy="149.533" cx="230.775" fill="#fff"/></g><circle r=".45" cy="147.946" cx="224.468" transform="matrix(0 1 1 0 0 0)" fill="#ec7045"/><circle transform="matrix(0 1 1 0 0 0)" cx="226.155" cy="147.969" r=".45" fill="#ec7045"/></g><circle cx="256.91" cy="145.878" r="10.54" transform="matrix(0 1 1 0 0 0)" fill="#8dc63f" fill-rule="evenodd"/><path d="M140.892 250.442c-.066-.294.254-.075.754.398-.594-.812-.679-1.156.368-.38 2.416 1.788 5.939 6.543 5.936 6.351l-.774.92c.004-.023-1.692-1.276-1.746-1.6 0-.002.006-.006.006-.008-.4-.433-2.786-2.403-4.214-4.966-.195-.35-.3-.582-.33-.715z" fill="#fff" fill-rule="evenodd"/><circle transform="matrix(0 1 1 0 0 0)" r=".278" cy="146.464" cx="256.223" fill="none" stroke="#979797" stroke-width=".037" stroke-linecap="round" stroke-linejoin="round"/><path d="M148.067 256.817l-.539.68s.544.29.703.539c.208.323.014.828.258 1.125.849 1.031 2.066 2.223 2.836 2.695.367.225.94-.177 1.172-.539.249-.388.176-.957 0-1.383-.35-.847-1.162-1.468-1.945-1.945-.308-.188-.671-.341-1.032-.328-.294.01-.526.34-.82.328a.532.532 0 0 1-.375-.188c-.214-.263-.258-.984-.258-.984zm-.787 1.076c0 .099-.061 1.176.15 1.707.134.34.675.496.679.861.005.485-.788.684-.878 1.16a1.61 1.61 0 0 0 .364 1.31c.378.42 1.012.68 1.575.63.422-.04.894-.297 1.077-.68.12-.251.033-.584-.1-.829-.411-.762-1.386-1.05-1.988-1.674-.24-.247-.503-.495-.638-.812-.222-.518-.24-1.673-.24-1.673z" fill="none" stroke="#fabd5d" stroke-width=".563" stroke-linecap="round" stroke-linejoin="round"/><path d="M141.6 250.807l4.241 4.798-.432.468.573-.444z" fill="#8d8d8d" fill-rule="evenodd"/></g><g style="line-height:125%;-inkscape-font-specification:Arial"><path d="M30.908 164.498l-4.368-8.632c-1.074-2.08-2.322-3.328-4.437-3.813l8.424-11.267c.173-.243.139-.45-.208-.45h-.797c-.52 0-.66.069-.902.38l-8.181 11.06c-.243-.035-.555-.035-.867-.035h-4.298v-10.955c0-.347-.104-.45-.416-.45h-.728c-.347 0-.451.103-.451.45v23.712c0 .347.104.45.45.45h.729c.312 0 .416-.103.416-.45v-11.301h4.402c2.912 0 4.23 1.005 5.374 3.293l4.056 8.077c.173.312.312.382.866.382h.694c.346 0 .38-.208.242-.45zm4.944-7.869v-15.843c0-.347-.104-.45-.416-.45h-.728c-.347 0-.45.103-.45.45v15.843c0 5.373 3.015 8.84 9.151 8.84 6.102 0 9.118-3.467 9.118-8.84v-15.843c0-.347-.104-.45-.416-.45h-.763c-.312 0-.416.103-.416.45v15.843c0 4.472-2.461 7.35-7.523 7.35-5.096 0-7.557-2.878-7.557-7.35zm39.925-16.294h-.693c-.347 0-.45.104-.45.416v15.635c0 2.392.242 4.715.242 6.24h-.07c-.832-1.179-1.906-3.12-3.189-4.957l-11.96-17.09a.545.545 0 0 0-.485-.244h-.694c-.346 0-.45.104-.45.451v23.712c0 .347.104.45.45.45h.694c.312 0 .416-.103.416-.45v-16.155c0-2.184-.208-4.402-.208-5.72h.07c.727 1.006 1.663 2.878 2.807 4.507l12.307 17.541c.138.243.242.278.485.278h.728c.312 0 .416-.104.416-.45v-23.713c0-.347-.104-.45-.416-.45zm5.183 6.414c0 5.373 4.714 6.101 9.048 6.621 3.778.45 7.384.97 7.384 5.061 0 3.675-2.566 5.478-7.558 5.478-3.882 0-6.344-1.63-7.834-5.13-.174-.348-.278-.382-.59-.278l-.658.242c-.347.14-.382.278-.243.624 1.664 4.126 4.472 6.067 9.325 6.067 6.032 0 9.152-2.565 9.152-7.072 0-5.339-4.402-6.067-8.632-6.552-3.917-.416-7.765-1.075-7.765-5.165 0-3.328 2.6-5.27 7.072-5.27 3.883 0 6.067 1.456 7.627 4.542.173.312.277.312.554.208l.694-.312c.277-.104.381-.278.208-.59-1.803-3.674-4.438-5.373-9.083-5.373-5.477 0-8.701 2.67-8.701 6.899zm36.86-6.414h-16.64c-.346 0-.45.104-.45.451v.624c0 .312.104.416.45.416h7.523v22.672c0 .347.104.45.45.45h.729c.312 0 .416-.103.416-.45v-22.672h7.522c.347 0 .45-.104.45-.416v-.624c0-.347-.103-.45-.45-.45zm29.926 0h-.762c-.382 0-.52.07-.59.382l-4.992 18.754a163.585 163.585 0 0 0-.624 3.19h-.104c-.173-.798-.45-2.15-.728-3.19l-5.165-18.2c-.07-.346-.243-.416-.59-.416h-.693c-.312 0-.52.07-.59.416l-5.164 18.131c-.278 1.04-.555 2.392-.763 3.259h-.07c-.207-.832-.45-2.288-.693-3.294l-4.957-18.65c-.07-.312-.208-.382-.59-.382h-.866c-.312 0-.347.14-.277.416l6.448 23.816c.069.312.242.382.589.382h.659c.346 0 .52-.07.589-.416l5.165-18.235c.312-1.005.555-2.115.763-3.155h.104c.208 1.04.45 2.15.728 3.155l5.165 18.27c.07.311.243.38.59.38h.693c.312 0 .485-.069.59-.415l6.413-23.782c.104-.277.034-.416-.278-.416zm18.517 0H152.12c-.347 0-.45.104-.45.451v23.712c0 .347.103.45.45.45h14.63c.311 0 .45-.103.45-.45v-.624c0-.312-.139-.416-.45-.416h-13.486v-10.227h11.51c.311 0 .415-.104.415-.45v-.624c0-.312-.104-.416-.416-.416h-11.509v-9.915h13c.347 0 .45-.104.45-.416v-.624c0-.347-.103-.45-.45-.45zm15.577 0h-9.95c-.347 0-.45.104-.45.451v23.712c0 .347.103.45.45.45h.728c.312 0 .416-.103.416-.45v-10.365h5.72c2.912 0 4.23 1.005 5.373 3.293l3.606 7.141c.138.312.312.382.866.382h.659c.347 0 .416-.208.243-.45l-3.883-7.697c-.763-1.421-1.525-2.288-2.843-2.843 3.744-.312 6.102-2.704 6.102-6.69 0-4.403-2.67-6.934-7.038-6.934zm5.373 6.934c0 3.466-2.08 5.373-5.547 5.373h-8.632v-10.816h8.632c3.536 0 5.547 1.976 5.547 5.443zm23.664 17.229l-4.368-8.632c-1.075-2.08-2.323-3.328-4.437-3.813l8.424-11.267c.173-.243.138-.45-.208-.45h-.798c-.52 0-.658.069-.901.38l-8.181 11.06c-.243-.035-.555-.035-.867-.035h-4.299v-10.955c0-.347-.104-.45-.416-.45h-.728c-.346 0-.45.103-.45.45v23.712c0 .347.104.45.45.45h.728c.312 0 .416-.103.416-.45v-11.301h4.403c2.912 0 4.23 1.005 5.373 3.293l4.056 8.077c.174.312.312.382.867.382h.693c.347 0 .382-.208.243-.45zm25.003-24.163h-.762c-.312 0-.416.104-.416.416v16.675c0 4.056-2.288 6.517-6.587 6.517-3.952 0-5.824-2.114-6.517-5.858-.104-.312-.277-.382-.555-.278l-.693.243c-.312.104-.381.277-.277.59.832 4.263 3.293 6.829 8.042 6.829 5.304 0 8.182-3.12 8.182-8.043v-16.675c0-.312-.104-.416-.416-.416zm27.367 0h-.659c-.346 0-.45.104-.624.416l-9.221 16.363-9.29-16.397c-.174-.278-.278-.382-.66-.382h-.554c-.347 0-.45.104-.45.451v23.712c0 .347.103.45.45.45h.624c.347 0 .45-.103.45-.45v-15.912a84.5 84.5 0 0 0-.207-5.79h.069a62.403 62.403 0 0 0 2.496 4.82l6.275 11.093c.138.312.277.346.589.346h.45c.278 0 .417-.069.555-.346l6.17-10.955a73.611 73.611 0 0 0 2.6-4.957h.07a68.612 68.612 0 0 0-.242 5.79v15.911c0 .347.104.45.416.45h.693c.312 0 .416-.103.416-.45v-23.712c0-.347-.104-.45-.416-.45z" style="-inkscape-font-specification:Panton" font-weight="400" font-size="26" font-family="Panton" letter-spacing="0" word-spacing="0" stroke-width=".75"/></g><path fill="#8dc63f" fill-rule="evenodd" stroke="#8dc63f" stroke-linecap="round" stroke-linejoin="round" d="M12.25 12.213h374.06v113.844H12.25z"/><text style="line-height:125%;-inkscape-font-specification:Arial" x="44.733" y="43.367" transform="translate(-35.373 -20.396) scale(1.33333)" font-weight="400" font-size="10.313" font-family="Arial" letter-spacing="0" word-spacing="0" stroke-width=".75"><tspan x="44.733" y="43.367" style="line-height:125.99999905%;-inkscape-font-specification:'Times New Roman, '" font-size="15" font-family="Times New Roman">Stoffe und Nähzubehör</tspan><tspan x="44.733" y="62.267" style="line-height:125.99999905%;-inkscape-font-specification:'Times New Roman, '" font-size="15" font-family="Times New Roman">Nähkurse für Kinder und Erwachsene</tspan><tspan x="44.733" y="81.167" style="line-height:125.99999905%;-inkscape-font-specification:'Times New Roman, '" font-size="15" font-family="Times New Roman">Maßanfertigung</tspan><tspan x="44.733" y="100.067" style="line-height:125.99999905%;-inkscape-font-specification:'Times New Roman, '" font-size="15" font-family="Times New Roman">Änderungsschneiderei</tspan></text><text style="line-height:125%;-inkscape-font-specification:Georgia" x="36.248" y="157.04" transform="translate(-35.373 -20.396) scale(1.33333)" font-weight="400" font-size="10.313" font-family="Georgia" letter-spacing="0" word-spacing="0" stroke-width=".75"><tspan x="36.248" y="157.04" style="-inkscape-font-specification:'Times New Roman, '" font-size="12.5" font-family="Times New Roman">Angelina Jost und Helene Müller GbR</tspan></text><text style="line-height:125%;-inkscape-font-specification:Georgia" x="35.563" y="176.56" transform="translate(-35.373 -20.396) scale(1.33333)" font-weight="400" font-size="10.313" font-family="Georgia" letter-spacing="0" word-spacing="0" stroke-width=".75"><tspan x="35.563" y="176.56" font-size="9">Ferdinand-Wagner-Str. 16 </tspan><tspan x="35.563" y="189.815" font-size="9">Tel.: 08232 - 80879257 </tspan><tspan x="35.563" y="203.069" font-size="9">E-Mail: info@kunstwerk-jm.de</tspan></text><text transform="translate(-35.373 -20.396) scale(1.33333)" y="176.56" x="184.055" style="line-height:125%;-inkscape-font-specification:Georgia" font-weight="400" font-size="10.313" font-family="Georgia" letter-spacing="0" word-spacing="0" stroke-width=".75"><tspan y="176.56" x="184.055" font-size="9">86830 Schwabmünchen </tspan><tspan y="189.815" x="184.055" font-size="9">Fax: 08232 - 8087927 </tspan><tspan y="203.069" x="184.055" font-size="9">Internet: www.kunstwerk-jm.de</tspan></text><text style="line-height:125%;-inkscape-font-specification:Georgia" x="35.548" y="204.933" transform="translate(-35.373 -20.396) scale(1.33333)" font-weight="400" font-size="10.313" font-family="Georgia" letter-spacing="0" word-spacing="0" stroke-width=".75"><tspan x="35.548" y="218.187" font-size="9">Öffnungszeiten:</tspan></text><text transform="translate(-35.373 -20.396) scale(1.33333)" y="218.433" x="101.923" style="line-height:125%;-inkscape-font-specification:Georgia" font-weight="400" font-size="10.313" font-family="Georgia" letter-spacing="0" word-spacing="0" stroke-width=".75"><tspan y="218.433" x="101.923" font-size="9">Mo &amp; Di: 9.00 - 12.30, 14:00 - 18:00 | Mi: 9:00 - 12:30 </tspan><tspan y="231.687" x="101.923" font-size="9">Do &amp; Fr: 9:00 - 12:30, 14:00 - 18:00 | Sa: 9:00 - 12:30</tspan></text></svg>