<svg id="svg669" xmlns="http://www.w3.org/2000/svg" width="400" height="300" viewBox="0 0 400 300"><style>.st0{fill:#ccebff}.st1{fill:#3d7eda}.st2{fill:#3c7dd9}.st3{fill:#3c7cd9}.st4{fill:#1464d4}.st5{font-family:&apos;TrebuchetMS&apos;}.st6{font-size:12px}.st7{font-family:&apos;Arial-BoldMT&apos;}.st8{font-size:22.666666px}.st9{font-family:&apos;Verdana&apos;}.st10{font-size:21.333334px}.st11{font-size:16px}</style><g id="g667" transform="matrix(.33033 0 0 .33033 309.765 13.26)"><g id="use9"><path id="p" d="M32 32h8v8h-8z"/></g><g id="use11"><path id="p_1_" d="M32 40h8v8h-8z"/></g><g id="use13"><path id="p_2_" d="M32 48h8v8h-8z"/></g><g id="use15"><path id="p_3_" d="M32 56h8v8h-8z"/></g><g id="use17"><path id="p_4_" d="M32 64h8v8h-8z"/></g><g id="use19"><path id="p_5_" d="M32 72h8v8h-8z"/></g><g id="use21"><path id="p_6_" d="M32 80h8v8h-8z"/></g><g id="use23"><path id="p_7_" d="M32 96h8v8h-8z"/></g><g id="use25"><path id="p_8_" d="M32 104h8v8h-8z"/></g><g id="use27"><path id="p_9_" d="M32 136h8v8h-8z"/></g><g id="use29"><path id="p_10_" d="M32 152h8v8h-8z"/></g><g id="use31"><path id="p_11_" d="M32 176h8v8h-8z"/></g><g id="use33"><path id="p_12_" d="M32 184h8v8h-8z"/></g><g id="use35"><path id="p_13_" d="M32 192h8v8h-8z"/></g><g id="use37"><path id="p_14_" d="M32 200h8v8h-8z"/></g><g id="use39"><path id="p_15_" d="M32 208h8v8h-8z"/></g><g id="use41"><path id="p_16_" d="M32 216h8v8h-8z"/></g><g id="use43"><path id="p_17_" d="M32 224h8v8h-8z"/></g><g id="use45"><path id="p_18_" d="M40 32h8v8h-8z"/></g><g id="use47"><path id="p_19_" d="M40 80h8v8h-8z"/></g><g id="use49"><path id="p_20_" d="M40 96h8v8h-8z"/></g><g id="use51"><path id="p_21_" d="M40 104h8v8h-8z"/></g><g id="use53"><path id="p_22_" d="M40 120h8v8h-8z"/></g><g id="use55"><path id="p_23_" d="M40 136h8v8h-8z"/></g><g id="use57"><path id="p_24_" d="M40 152h8v8h-8z"/></g><g id="use59"><path id="p_25_" d="M40 176h8v8h-8z"/></g><g id="use61"><path id="p_26_" d="M40 224h8v8h-8z"/></g><g id="use63"><path id="p_27_" d="M48 32h8v8h-8z"/></g><g id="use65"><path id="p_28_" d="M48 48h8v8h-8z"/></g><g id="use67"><path id="p_29_" d="M48 56h8v8h-8z"/></g><g id="use69"><path id="p_30_" d="M48 64h8v8h-8z"/></g><g id="use71"><path id="p_31_" d="M48 80h8v8h-8z"/></g><g id="use73"><path id="p_32_" d="M48 96h8v8h-8z"/></g><g id="use75"><path id="p_33_" d="M48 104h8v8h-8z"/></g><g id="use77"><path id="p_34_" d="M48 120h8v8h-8z"/></g><g id="use79"><path id="p_35_" d="M48 128h8v8h-8z"/></g><g id="use81"><path id="p_36_" d="M48 136h8v8h-8z"/></g><g id="use83"><path id="p_37_" d="M48 144h8v8h-8z"/></g><g id="use85"><path id="p_38_" d="M48 152h8v8h-8z"/></g><g id="use87"><path id="p_39_" d="M48 160h8v8h-8z"/></g><g id="use89"><path id="p_40_" d="M48 176h8v8h-8z"/></g><g id="use91"><path id="p_41_" d="M48 192h8v8h-8z"/></g><g id="use93"><path id="p_42_" d="M48 200h8v8h-8z"/></g><g id="use95"><path id="p_43_" d="M48 208h8v8h-8z"/></g><g id="use97"><path id="p_44_" d="M48 224h8v8h-8z"/></g><g id="use99"><path id="p_45_" d="M56 32h8v8h-8z"/></g><g id="use101"><path id="p_46_" d="M56 48h8v8h-8z"/></g><g id="use103"><path id="p_47_" d="M56 56h8v8h-8z"/></g><g id="use105"><path id="p_48_" d="M56 64h8v8h-8z"/></g><g id="use107"><path id="p_49_" d="M56 80h8v8h-8z"/></g><g id="use109"><path id="p_50_" d="M56 104h8v8h-8z"/></g><g id="use111"><path id="p_51_" d="M56 112h8v8h-8z"/></g><g id="use113"><path id="p_52_" d="M56 128h8v8h-8z"/></g><g id="use115"><path id="p_53_" d="M56 136h8v8h-8z"/></g><g id="use117"><path id="p_54_" d="M56 144h8v8h-8z"/></g><g id="use119"><path id="p_55_" d="M56 152h8v8h-8z"/></g><g id="use121"><path id="p_56_" d="M56 160h8v8h-8z"/></g><g id="use123"><path id="p_57_" d="M56 176h8v8h-8z"/></g><g id="use125"><path id="p_58_" d="M56 192h8v8h-8z"/></g><g id="use127"><path id="p_59_" d="M56 200h8v8h-8z"/></g><g id="use129"><path id="p_60_" d="M56 208h8v8h-8z"/></g><g id="use131"><path id="p_61_" d="M56 224h8v8h-8z"/></g><g id="use133"><path id="p_62_" d="M64 32h8v8h-8z"/></g><g id="use135"><path id="p_63_" d="M64 48h8v8h-8z"/></g><g id="use137"><path id="p_64_" d="M64 56h8v8h-8z"/></g><g id="use139"><path id="p_65_" d="M64 64h8v8h-8z"/></g><g id="use141"><path id="p_66_" d="M64 80h8v8h-8z"/></g><g id="use143"><path id="p_67_" d="M64 104h8v8h-8z"/></g><g id="use145"><path id="p_68_" d="M64 128h8v8h-8z"/></g><g id="use147"><path id="p_69_" d="M64 136h8v8h-8z"/></g><g id="use149"><path id="p_70_" d="M64 144h8v8h-8z"/></g><g id="use151"><path id="p_71_" d="M64 152h8v8h-8z"/></g><g id="use153"><path id="p_72_" d="M64 160h8v8h-8z"/></g><g id="use155"><path id="p_73_" d="M64 176h8v8h-8z"/></g><g id="use157"><path id="p_74_" d="M64 192h8v8h-8z"/></g><g id="use159"><path id="p_75_" d="M64 200h8v8h-8z"/></g><g id="use161"><path id="p_76_" d="M64 208h8v8h-8z"/></g><g id="use163"><path id="p_77_" d="M64 224h8v8h-8z"/></g><g id="use165"><path id="p_78_" d="M72 32h8v8h-8z"/></g><g id="use167"><path id="p_79_" d="M72 80h8v8h-8z"/></g><g id="use169"><path id="p_80_" d="M72 96h8v8h-8z"/></g><g id="use171"><path id="p_81_" d="M72 120h8v8h-8z"/></g><g id="use173"><path id="p_82_" d="M72 128h8v8h-8z"/></g><g id="use175"><path id="p_83_" d="M72 136h8v8h-8z"/></g><g id="use177"><path id="p_84_" d="M72 160h8v8h-8z"/></g><g id="use179"><path id="p_85_" d="M72 176h8v8h-8z"/></g><g id="use181"><path id="p_86_" d="M72 224h8v8h-8z"/></g><g id="use183"><path id="p_87_" d="M80 32h8v8h-8z"/></g><g id="use185"><path id="p_88_" d="M80 40h8v8h-8z"/></g><g id="use187"><path id="p_89_" d="M80 48h8v8h-8z"/></g><g id="use189"><path id="p_90_" d="M80 56h8v8h-8z"/></g><g id="use191"><path id="p_91_" d="M80 64h8v8h-8z"/></g><g id="use193"><path id="p_92_" d="M80 72h8v8h-8z"/></g><g id="use195"><path id="p_93_" d="M80 80h8v8h-8z"/></g><g id="use197"><path id="p_94_" d="M80 96h8v8h-8z"/></g><g id="use199"><path id="p_95_" d="M80 112h8v8h-8z"/></g><g id="use201"><path id="p_96_" d="M80 128h8v8h-8z"/></g><g id="use203"><path id="p_97_" d="M80 144h8v8h-8z"/></g><g id="use205"><path id="p_98_" d="M80 160h8v8h-8z"/></g><g id="use207"><path id="p_99_" d="M80 176h8v8h-8z"/></g><g id="use209"><path id="p_100_" d="M80 184h8v8h-8z"/></g><g id="use211"><path id="p_101_" d="M80 192h8v8h-8z"/></g><g id="use213"><path id="p_102_" d="M80 200h8v8h-8z"/></g><g id="use215"><path id="p_103_" d="M80 208h8v8h-8z"/></g><g id="use217"><path id="p_104_" d="M80 216h8v8h-8z"/></g><g id="use219"><path id="p_105_" d="M80 224h8v8h-8z"/></g><g id="use221"><path id="p_106_" d="M88 112h8v8h-8z"/></g><g id="use223"><path id="p_107_" d="M88 128h8v8h-8z"/></g><g id="use225"><path id="p_108_" d="M88 144h8v8h-8z"/></g><g id="use227"><path id="p_109_" d="M88 152h8v8h-8z"/></g><g id="use229"><path id="p_110_" d="M96 32h8v8h-8z"/></g><g id="use231"><path id="p_111_" d="M96 40h8v8h-8z"/></g><g id="use233"><path id="p_112_" d="M96 64h8v8h-8z"/></g><g id="use235"><path id="p_113_" d="M96 72h8v8h-8z"/></g><g id="use237"><path id="p_114_" d="M96 80h8v8h-8z"/></g><g id="use239"><path id="p_115_" d="M96 88h8v8h-8z"/></g><g id="use241"><path id="p_116_" d="M96 96h8v8h-8z"/></g><g id="use243"><path id="p_117_" d="M96 104h8v8h-8z"/></g><g id="use245"><path id="p_118_" d="M96 120h8v8h-8z"/></g><g id="use247"><path id="p_119_" d="M96 128h8v8h-8z"/></g><g id="use249"><path id="p_120_" d="M96 144h8v8h-8z"/></g><g id="use251"><path id="p_121_" d="M96 160h8v8h-8z"/></g><g id="use253"><path id="p_122_" d="M96 168h8v8h-8z"/></g><g id="use255"><path id="p_123_" d="M96 184h8v8h-8z"/></g><g id="use257"><path id="p_124_" d="M96 208h8v8h-8z"/></g><g id="use259"><path id="p_125_" d="M96 216h8v8h-8z"/></g><g id="use261"><path id="p_126_" d="M96 224h8v8h-8z"/></g><g id="use263"><path id="p_127_" d="M104 40h8v8h-8z"/></g><g id="use265"><path id="p_128_" d="M104 64h8v8h-8z"/></g><g id="use267"><path id="p_129_" d="M104 96h8v8h-8z"/></g><g id="use269"><path id="p_130_" d="M104 104h8v8h-8z"/></g><g id="use271"><path id="p_131_" d="M104 120h8v8h-8z"/></g><g id="use273"><path id="p_132_" d="M104 128h8v8h-8z"/></g><g id="use275"><path id="p_133_" d="M104 144h8v8h-8z"/></g><g id="use277"><path id="p_134_" d="M104 152h8v8h-8z"/></g><g id="use279"><path id="p_135_" d="M104 176h8v8h-8z"/></g><g id="use281"><path id="p_136_" d="M104 192h8v8h-8z"/></g><g id="use283"><path id="p_137_" d="M112 40h8v8h-8z"/></g><g id="use285"><path id="p_138_" d="M112 48h8v8h-8z"/></g><g id="use287"><path id="p_139_" d="M112 56h8v8h-8z"/></g><g id="use289"><path id="p_140_" d="M112 64h8v8h-8z"/></g><g id="use291"><path id="p_141_" d="M112 80h8v8h-8z"/></g><g id="use293"><path id="p_142_" d="M112 88h8v8h-8z"/></g><g id="use295"><path id="p_143_" d="M112 96h8v8h-8z"/></g><g id="use297"><path id="p_144_" d="M112 104h8v8h-8z"/></g><g id="use299"><path id="p_145_" d="M112 152h8v8h-8z"/></g><g id="use301"><path id="p_146_" d="M112 160h8v8h-8z"/></g><g id="use303"><path id="p_147_" d="M112 168h8v8h-8z"/></g><g id="use305"><path id="p_148_" d="M112 176h8v8h-8z"/></g><g id="use307"><path id="p_149_" d="M112 208h8v8h-8z"/></g><g id="use309"><path id="p_150_" d="M112 224h8v8h-8z"/></g><g id="use311"><path id="p_151_" d="M120 32h8v8h-8z"/></g><g id="use313"><path id="p_152_" d="M120 48h8v8h-8z"/></g><g id="use315"><path id="p_153_" d="M120 64h8v8h-8z"/></g><g id="use317"><path id="p_154_" d="M120 72h8v8h-8z"/></g><g id="use319"><path id="p_155_" d="M120 88h8v8h-8z"/></g><g id="use321"><path id="p_156_" d="M120 112h8v8h-8z"/></g><g id="use323"><path id="p_157_" d="M120 128h8v8h-8z"/></g><g id="use325"><path id="p_158_" d="M120 152h8v8h-8z"/></g><g id="use327"><path id="p_159_" d="M120 176h8v8h-8z"/></g><g id="use329"><path id="p_160_" d="M120 192h8v8h-8z"/></g><g id="use331"><path id="p_161_" d="M120 216h8v8h-8z"/></g><g id="use333"><path id="p_162_" d="M128 32h8v8h-8z"/></g><g id="use335"><path id="p_163_" d="M128 40h8v8h-8z"/></g><g id="use337"><path id="p_164_" d="M128 48h8v8h-8z"/></g><g id="use339"><path id="p_165_" d="M128 80h8v8h-8z"/></g><g id="use341"><path id="p_166_" d="M128 88h8v8h-8z"/></g><g id="use343"><path id="p_167_" d="M128 128h8v8h-8z"/></g><g id="use345"><path id="p_168_" d="M128 136h8v8h-8z"/></g><g id="use347"><path id="p_169_" d="M128 144h8v8h-8z"/></g><g id="use349"><path id="p_170_" d="M128 152h8v8h-8z"/></g><g id="use351"><path id="p_171_" d="M128 192h8v8h-8z"/></g><g id="use353"><path id="p_172_" d="M128 200h8v8h-8z"/></g><g id="use355"><path id="p_173_" d="M128 208h8v8h-8z"/></g><g id="use357"><path id="p_174_" d="M128 216h8v8h-8z"/></g><g id="use359"><path id="p_175_" d="M128 224h8v8h-8z"/></g><g id="use361"><path id="p_176_" d="M136 32h8v8h-8z"/></g><g id="use363"><path id="p_177_" d="M136 48h8v8h-8z"/></g><g id="use365"><path id="p_178_" d="M136 56h8v8h-8z"/></g><g id="use367"><path id="p_179_" d="M136 64h8v8h-8z"/></g><g id="use369"><path id="p_180_" d="M136 72h8v8h-8z"/></g><g id="use371"><path id="p_181_" d="M136 104h8v8h-8z"/></g><g id="use373"><path id="p_182_" d="M136 136h8v8h-8z"/></g><g id="use375"><path id="p_183_" d="M136 176h8v8h-8z"/></g><g id="use377"><path id="p_184_" d="M136 208h8v8h-8z"/></g><g id="use379"><path id="p_185_" d="M136 224h8v8h-8z"/></g><g id="use381"><path id="p_186_" d="M144 40h8v8h-8z"/></g><g id="use383"><path id="p_187_" d="M144 48h8v8h-8z"/></g><g id="use385"><path id="p_188_" d="M144 56h8v8h-8z"/></g><g id="use387"><path id="p_189_" d="M144 80h8v8h-8z"/></g><g id="use389"><path id="p_190_" d="M144 120h8v8h-8z"/></g><g id="use391"><path id="p_191_" d="M144 128h8v8h-8z"/></g><g id="use393"><path id="p_192_" d="M144 216h8v8h-8z"/></g><g id="use395"><path id="p_193_" d="M144 224h8v8h-8z"/></g><g id="use397"><path id="p_194_" d="M152 56h8v8h-8z"/></g><g id="use399"><path id="p_195_" d="M152 96h8v8h-8z"/></g><g id="use401"><path id="p_196_" d="M152 104h8v8h-8z"/></g><g id="use403"><path id="p_197_" d="M152 112h8v8h-8z"/></g><g id="use405"><path id="p_198_" d="M152 136h8v8h-8z"/></g><g id="use407"><path id="p_199_" d="M152 144h8v8h-8z"/></g><g id="use409"><path id="p_200_" d="M152 160h8v8h-8z"/></g><g id="use411"><path id="p_201_" d="M152 184h8v8h-8z"/></g><g id="use413"><path id="p_202_" d="M152 192h8v8h-8z"/></g><g id="use415"><path id="p_203_" d="M152 200h8v8h-8z"/></g><g id="use417"><path id="p_204_" d="M152 208h8v8h-8z"/></g><g id="use419"><path id="p_205_" d="M160 40h8v8h-8z"/></g><g id="use421"><path id="p_206_" d="M160 48h8v8h-8z"/></g><g id="use423"><path id="p_207_" d="M160 72h8v8h-8z"/></g><g id="use425"><path id="p_208_" d="M160 80h8v8h-8z"/></g><g id="use427"><path id="p_209_" d="M160 88h8v8h-8z"/></g><g id="use429"><path id="p_210_" d="M160 96h8v8h-8z"/></g><g id="use431"><path id="p_211_" d="M160 104h8v8h-8z"/></g><g id="use433"><path id="p_212_" d="M160 112h8v8h-8z"/></g><g id="use435"><path id="p_213_" d="M160 120h8v8h-8z"/></g><g id="use437"><path id="p_214_" d="M160 128h8v8h-8z"/></g><g id="use439"><path id="p_215_" d="M160 136h8v8h-8z"/></g><g id="use441"><path id="p_216_" d="M160 152h8v8h-8z"/></g><g id="use443"><path id="p_217_" d="M160 160h8v8h-8z"/></g><g id="use445"><path id="p_218_" d="M160 168h8v8h-8z"/></g><g id="use447"><path id="p_219_" d="M160 176h8v8h-8z"/></g><g id="use449"><path id="p_220_" d="M160 184h8v8h-8z"/></g><g id="use451"><path id="p_221_" d="M160 192h8v8h-8z"/></g><g id="use453"><path id="p_222_" d="M160 200h8v8h-8z"/></g><g id="use455"><path id="p_223_" d="M160 216h8v8h-8z"/></g><g id="use457"><path id="p_224_" d="M160 224h8v8h-8z"/></g><g id="use459"><path id="p_225_" d="M168 96h8v8h-8z"/></g><g id="use461"><path id="p_226_" d="M168 104h8v8h-8z"/></g><g id="use463"><path id="p_227_" d="M168 120h8v8h-8z"/></g><g id="use465"><path id="p_228_" d="M168 128h8v8h-8z"/></g><g id="use467"><path id="p_229_" d="M168 160h8v8h-8z"/></g><g id="use469"><path id="p_230_" d="M168 192h8v8h-8z"/></g><g id="use471"><path id="p_231_" d="M168 200h8v8h-8z"/></g><g id="use473"><path id="p_232_" d="M168 208h8v8h-8z"/></g><g id="use475"><path id="p_233_" d="M168 216h8v8h-8z"/></g><g id="use477"><path id="p_234_" d="M168 224h8v8h-8z"/></g><g id="use479"><path id="p_235_" d="M176 32h8v8h-8z"/></g><g id="use481"><path id="p_236_" d="M176 40h8v8h-8z"/></g><g id="use483"><path id="p_237_" d="M176 48h8v8h-8z"/></g><g id="use485"><path id="p_238_" d="M176 56h8v8h-8z"/></g><g id="use487"><path id="p_239_" d="M176 64h8v8h-8z"/></g><g id="use489"><path id="p_240_" d="M176 72h8v8h-8z"/></g><g id="use491"><path id="p_241_" d="M176 80h8v8h-8z"/></g><g id="use493"><path id="p_242_" d="M176 96h8v8h-8z"/></g><g id="use495"><path id="p_243_" d="M176 104h8v8h-8z"/></g><g id="use497"><path id="p_244_" d="M176 112h8v8h-8z"/></g><g id="use499"><path id="p_245_" d="M176 120h8v8h-8z"/></g><g id="use501"><path id="p_246_" d="M176 128h8v8h-8z"/></g><g id="use503"><path id="p_247_" d="M176 136h8v8h-8z"/></g><g id="use505"><path id="p_248_" d="M176 152h8v8h-8z"/></g><g id="use507"><path id="p_249_" d="M176 160h8v8h-8z"/></g><g id="use509"><path id="p_250_" d="M176 176h8v8h-8z"/></g><g id="use511"><path id="p_251_" d="M176 192h8v8h-8z"/></g><g id="use513"><path id="p_252_" d="M176 216h8v8h-8z"/></g><g id="use515"><path id="p_253_" d="M176 224h8v8h-8z"/></g><g id="use517"><path id="p_254_" d="M184 32h8v8h-8z"/></g><g id="use519"><path id="p_255_" d="M184 80h8v8h-8z"/></g><g id="use521"><path id="p_256_" d="M184 96h8v8h-8z"/></g><g id="use523"><path id="p_257_" d="M184 104h8v8h-8z"/></g><g id="use525"><path id="p_258_" d="M184 120h8v8h-8z"/></g><g id="use527"><path id="p_259_" d="M184 136h8v8h-8z"/></g><g id="use529"><path id="p_260_" d="M184 152h8v8h-8z"/></g><g id="use531"><path id="p_261_" d="M184 160h8v8h-8z"/></g><g id="use533"><path id="p_262_" d="M184 192h8v8h-8z"/></g><g id="use535"><path id="p_263_" d="M184 200h8v8h-8z"/></g><g id="use537"><path id="p_264_" d="M184 216h8v8h-8z"/></g><g id="use539"><path id="p_265_" d="M192 32h8v8h-8z"/></g><g id="use541"><path id="p_266_" d="M192 48h8v8h-8z"/></g><g id="use543"><path id="p_267_" d="M192 56h8v8h-8z"/></g><g id="use545"><path id="p_268_" d="M192 64h8v8h-8z"/></g><g id="use547"><path id="p_269_" d="M192 80h8v8h-8z"/></g><g id="use549"><path id="p_270_" d="M192 96h8v8h-8z"/></g><g id="use551"><path id="p_271_" d="M192 160h8v8h-8z"/></g><g id="use553"><path id="p_272_" d="M192 168h8v8h-8z"/></g><g id="use555"><path id="p_273_" d="M192 176h8v8h-8z"/></g><g id="use557"><path id="p_274_" d="M192 184h8v8h-8z"/></g><g id="use559"><path id="p_275_" d="M192 192h8v8h-8z"/></g><g id="use561"><path id="p_276_" d="M192 200h8v8h-8z"/></g><g id="use563"><path id="p_277_" d="M192 208h8v8h-8z"/></g><g id="use565"><path id="p_278_" d="M192 216h8v8h-8z"/></g><g id="use567"><path id="p_279_" d="M200 32h8v8h-8z"/></g><g id="use569"><path id="p_280_" d="M200 48h8v8h-8z"/></g><g id="use571"><path id="p_281_" d="M200 56h8v8h-8z"/></g><g id="use573"><path id="p_282_" d="M200 64h8v8h-8z"/></g><g id="use575"><path id="p_283_" d="M200 80h8v8h-8z"/></g><g id="use577"><path id="p_284_" d="M200 104h8v8h-8z"/></g><g id="use579"><path id="p_285_" d="M200 112h8v8h-8z"/></g><g id="use581"><path id="p_286_" d="M200 120h8v8h-8z"/></g><g id="use583"><path id="p_287_" d="M200 144h8v8h-8z"/></g><g id="use585"><path id="p_288_" d="M200 176h8v8h-8z"/></g><g id="use587"><path id="p_289_" d="M200 192h8v8h-8z"/></g><g id="use589"><path id="p_290_" d="M200 200h8v8h-8z"/></g><g id="use591"><path id="p_291_" d="M200 224h8v8h-8z"/></g><g id="use593"><path id="p_292_" d="M208 32h8v8h-8z"/></g><g id="use595"><path id="p_293_" d="M208 48h8v8h-8z"/></g><g id="use597"><path id="p_294_" d="M208 56h8v8h-8z"/></g><g id="use599"><path id="p_295_" d="M208 64h8v8h-8z"/></g><g id="use601"><path id="p_296_" d="M208 80h8v8h-8z"/></g><g id="use603"><path id="p_297_" d="M208 112h8v8h-8z"/></g><g id="use605"><path id="p_298_" d="M208 144h8v8h-8z"/></g><g id="use607"><path id="p_299_" d="M208 168h8v8h-8z"/></g><g id="use609"><path id="p_300_" d="M208 200h8v8h-8z"/></g><g id="use611"><path id="p_301_" d="M216 32h8v8h-8z"/></g><g id="use613"><path id="p_302_" d="M216 80h8v8h-8z"/></g><g id="use615"><path id="p_303_" d="M216 96h8v8h-8z"/></g><g id="use617"><path id="p_304_" d="M216 104h8v8h-8z"/></g><g id="use619"><path id="p_305_" d="M216 136h8v8h-8z"/></g><g id="use621"><path id="p_306_" d="M216 160h8v8h-8z"/></g><g id="use623"><path id="p_307_" d="M216 184h8v8h-8z"/></g><g id="use625"><path id="p_308_" d="M216 200h8v8h-8z"/></g><g id="use627"><path id="p_309_" d="M216 208h8v8h-8z"/></g><g id="use629"><path id="p_310_" d="M224 32h8v8h-8z"/></g><g id="use631"><path id="p_311_" d="M224 40h8v8h-8z"/></g><g id="use633"><path id="p_312_" d="M224 48h8v8h-8z"/></g><g id="use635"><path id="p_313_" d="M224 56h8v8h-8z"/></g><g id="use637"><path id="p_314_" d="M224 64h8v8h-8z"/></g><g id="use639"><path id="p_315_" d="M224 72h8v8h-8z"/></g><g id="use641"><path id="p_316_" d="M224 80h8v8h-8z"/></g><g id="use643"><path id="p_317_" d="M224 96h8v8h-8z"/></g><g id="use645"><path id="p_318_" d="M224 104h8v8h-8z"/></g><g id="use647"><path id="p_319_" d="M224 112h8v8h-8z"/></g><g id="use649"><path id="p_320_" d="M224 128h8v8h-8z"/></g><g id="use651"><path id="p_321_" d="M224 136h8v8h-8z"/></g><g id="use653"><path id="p_322_" d="M224 144h8v8h-8z"/></g><g id="use655"><path id="p_323_" d="M224 168h8v8h-8z"/></g><g id="use657"><path id="p_324_" d="M224 176h8v8h-8z"/></g><g id="use659"><path id="p_325_" d="M224 184h8v8h-8z"/></g><g id="use661"><path id="p_326_" d="M224 192h8v8h-8z"/></g><g id="use663"><path id="p_327_" d="M224 208h8v8h-8z"/></g><g id="use665"><path id="p_328_" d="M224 224h8v8h-8z"/></g></g><path id="path355" class="st0" d="M199.933 278.578H12.593V158.776H387.34v119.802H199.933z"/><g id="use357-3" transform="matrix(.68148 0 0 .68148 13.07 108.209)"><path id="path1554" d="M26.594 0h-1.907l-.343-3.64h-.078C19.706 3.24 1.458 1.762 1.484-10c0-5.522 4.379-10.407 13.141-10.407 5.036 0 10.494 1.782 11.625 6.626h-2.656c-.277-2.131-3.603-5-8.969-5-6.907 0-10.48 3.934-10.484 8.781 0 11.752 20.303 11.475 20.126 1.453H14.78v-1.61h11.813L26.594 0z"/></g><g id="use359-3" transform="matrix(.68148 0 0 .68148 32.572 108.209)"><path id="path1550" d="M2.344-14.453h2.265v2.437h.11c3.084-4.19 11.018-3.484 12.359-.031 2.516-3.95 13.063-4.425 13.063 2.25V0h-2.453c0-10.734 1.168-13.391-4.751-13.391-6.723 0-5.468 5.338-5.468 13.391h-2.453v-9.797c0-2.521-1.667-3.594-4.219-3.594-7.426 0-6 5.948-6 13.391H2.344v-14.453z"/></g><g id="use361-4" transform="matrix(.68148 0 0 .68148 54.343 108.209)"><path id="path1562" d="M18.453-7.219c-.02-7.813-11.36-7.941-13.297-2.234C1.904.348 18.453 2.246 18.453-7.219zM2.343-19.984h2.454v8.28h.078c2.438-4.843 16.031-4.787 16.031 4.485C20.939 1.983 7.46 2.135 4.687-2.75H4.61V0H2.344l-.001-19.984z"/></g><g id="use363-9" transform="matrix(.68148 0 0 .68148 69.49 108.209)"><path id="path1566" d="M2.813-19.984h2.64v8.672H22v-8.672h2.64V0H22v-9.688H5.453V0h-2.64v-19.984z"/></g><g id="use365-1" transform="matrix(.68148 0 0 .68148 95.22 108.209)"><path id="path1586" d="M9.672-9.969c-13.327 5.135-.05 13.24 6.937 6.048L9.672-9.969zm8.469 7.36C9.148 5.453-6.282-4.021 5.968-10.077c.8-.395 1.593-.738 2.375-1.031-1.467-1.335-4.705-3.833-2.953-6.485 4.163-6.27 20.174.507 6.39 6.844l6.078 5.266c.523-.743.829-1.443.829-3.36h2.453c0 1.468-.524 3.307-1.641 4.782L24.188 0h-3.094l-2.953-2.609zM8.468-17.844c-2.592 1.555-.233 4.078 2.016 5.938 8.854-3.878 2.048-8.425-2.016-5.938z"/></g><g id="use367-9" transform="matrix(.68148 0 0 .68148 118.547 108.209)"><path id="path1578" d="M23.172-13.938c-.774-2.493-3.145-3.965-5.641-4.515-15.723-3.652-18.808 17.25-2.905 17.25 4.712 0 8.349-2.543 8.938-6.406h2.64C25.398-2.105 20.316.422 14.626.422c-19.91 0-16.099-24.869 3.874-20.406 3.337.724 6.763 2.683 7.313 6.047l-2.641-.001z"/></g><g id="use369-7" transform="matrix(.68148 0 0 .68148 137.125 108.209)"><path id="path1570" d="M10.844-14.875c12.71 0 12.77 15.297 0 15.297-12.75 0-12.69-15.297 0-15.297zm0 1.484c-9.327 0-9.482 12.329 0 12.329 9.438 0 9.376-12.329 0-12.329z"/></g><g id="use371-3" transform="matrix(.68148 0 0 .68148 151.744 108.209)"><path id="path1574" d="M3.781 0v-2.969h3.281V0H3.781z"/></g><g id="use373-8" transform="matrix(.68148 0 0 .68148 159.001 108.209)"><path id="path1582" d="M2.813-19.984h2.64v10.75l16.188-10.75h3.593l-12.437 8.25L25.812 0h-3.421L10.797-10.422 5.453-6.859V0h-2.64v-19.984z"/></g><g id="use375-9" transform="matrix(.68148 0 0 .68148 176.049 108.209)"><path id="path1558" d="M26.594 0h-1.907l-.343-3.64h-.078C19.742 3.186 1.457 1.784 1.484-10c0-13.02 22.505-13.464 24.766-3.781h-2.656c-.87-6.7-19.443-7.863-19.453 3.781 0 11.708 20.303 11.444 20.126 1.453H14.78v-1.61h11.813L26.594 0z"/></g><path id="path867" class="st1" d="M12.593 24.525v66.649h49.61v-9.977H25.224V24.522l-12.63.003z"/><path id="path869" class="st2" d="M70.113 24.535v55.872l22.892-21.104 23.814 31.828h15.866l-31.064-39.966 29.05-26.63h-15.744L82.71 54.874V24.522l-12.598.013z"/><path id="path871" class="st3" d="M194.419 34.617V24.523h-52.03v66.632h52.748v-10.21h-40V61.647h36.174v-9.593H155.2V34.647l39.218-.03z"/><path id="path873" class="st4" d="M215.8 171.05l2.993 2.993-2.746 2.746-2.747-2.746 2.5-2.994zm0 15.247l2.993 2.994-2.746 2.749-2.747-2.747 2.5-2.996zm0 15.288l2.993 2.994-2.746 2.746-2.747-2.746 2.5-2.994zm0 15.171l2.993 2.994-2.746 2.746-2.747-2.746 2.5-2.994zm0 15.302l2.993 2.994-2.746 2.746-2.747-2.746 2.5-2.994z"/><text transform="translate(17.945 173.316)" class="st5 st6">Am Bühl 1</text><text transform="translate(17.945 188.673)" class="st5 st6">86845 Großaitingen</text><text transform="translate(17.945 204.03)" class="st5 st6">Telefon +49(8203)90099</text><text transform="translate(17.876 240.508)" class="st5 st6">Beraten und Planen</text><text transform="translate(17.876 255.865)" class="st5 st6">Projektieren und Software</text><text transform="translate(17.876 271.222)" class="st5 st6">Service und Wartung</text><text transform="translate(212.064 266.902)" class="st3 st7 st8">LKElektro.de</text><text transform="translate(222.808 177.803)" class="st5 st6">Elektrokonstruktionen</text><text transform="translate(222.808 193.16)" class="st5 st6">Maschinensicherheit</text><text transform="translate(222.808 208.517)" class="st5 st6">Prozessautomatisierung</text><text transform="translate(222.808 223.874)" class="st5 st6">Steuerungstechnik</text><text transform="translate(222.808 239.23)" class="st5 st6">Antriebstechnik</text><text transform="translate(11.746 149.17)" class="st9 st10">electrical engineering consultants</text><text transform="translate(318.945 103.41)" class="st9 st11">scan me</text></svg>