<svg xmlns="http://www.w3.org/2000/svg" xmlns:xlink="http://www.w3.org/1999/xlink" width="400" height="300" viewBox="0 0 400 300"><defs><path id="a" d="M0 0h8v8H0z"/></defs><g transform="translate(309.765 13.26) scale(.33033)"><use x="32" y="32" xlink:href="#a" width="100%" height="100%"/><use x="32" y="40" xlink:href="#a" width="100%" height="100%"/><use x="32" y="48" xlink:href="#a" width="100%" height="100%"/><use x="32" y="56" xlink:href="#a" width="100%" height="100%"/><use x="32" y="64" xlink:href="#a" width="100%" height="100%"/><use x="32" y="72" xlink:href="#a" width="100%" height="100%"/><use x="32" y="80" xlink:href="#a" width="100%" height="100%"/><use x="32" y="96" xlink:href="#a" width="100%" height="100%"/><use x="32" y="104" xlink:href="#a" width="100%" height="100%"/><use x="32" y="136" xlink:href="#a" width="100%" height="100%"/><use x="32" y="152" xlink:href="#a" width="100%" height="100%"/><use x="32" y="176" xlink:href="#a" width="100%" height="100%"/><use x="32" y="184" xlink:href="#a" width="100%" height="100%"/><use x="32" y="192" xlink:href="#a" width="100%" height="100%"/><use x="32" y="200" xlink:href="#a" width="100%" height="100%"/><use x="32" y="208" xlink:href="#a" width="100%" height="100%"/><use x="32" y="216" xlink:href="#a" width="100%" height="100%"/><use x="32" y="224" xlink:href="#a" width="100%" height="100%"/><use x="40" y="32" xlink:href="#a" width="100%" height="100%"/><use x="40" y="80" xlink:href="#a" width="100%" height="100%"/><use x="40" y="96" xlink:href="#a" width="100%" height="100%"/><use x="40" y="104" xlink:href="#a" width="100%" height="100%"/><use x="40" y="120" xlink:href="#a" width="100%" height="100%"/><use x="40" y="136" xlink:href="#a" width="100%" height="100%"/><use x="40" y="152" xlink:href="#a" width="100%" height="100%"/><use x="40" y="176" xlink:href="#a" width="100%" height="100%"/><use x="40" y="224" xlink:href="#a" width="100%" height="100%"/><use x="48" y="32" xlink:href="#a" width="100%" height="100%"/><use x="48" y="48" xlink:href="#a" width="100%" height="100%"/><use x="48" y="56" xlink:href="#a" width="100%" height="100%"/><use x="48" y="64" xlink:href="#a" width="100%" height="100%"/><use x="48" y="80" xlink:href="#a" width="100%" height="100%"/><use x="48" y="96" xlink:href="#a" width="100%" height="100%"/><use x="48" y="104" xlink:href="#a" width="100%" height="100%"/><use x="48" y="120" xlink:href="#a" width="100%" height="100%"/><use x="48" y="128" xlink:href="#a" width="100%" height="100%"/><use x="48" y="136" xlink:href="#a" width="100%" height="100%"/><use x="48" y="144" xlink:href="#a" width="100%" height="100%"/><use x="48" y="152" xlink:href="#a" width="100%" height="100%"/><use x="48" y="160" xlink:href="#a" width="100%" height="100%"/><use x="48" y="176" xlink:href="#a" width="100%" height="100%"/><use x="48" y="192" xlink:href="#a" width="100%" height="100%"/><use x="48" y="200" xlink:href="#a" width="100%" height="100%"/><use x="48" y="208" xlink:href="#a" width="100%" height="100%"/><use x="48" y="224" xlink:href="#a" width="100%" height="100%"/><use x="56" y="32" xlink:href="#a" width="100%" height="100%"/><use x="56" y="48" xlink:href="#a" width="100%" height="100%"/><use x="56" y="56" xlink:href="#a" width="100%" height="100%"/><use x="56" y="64" xlink:href="#a" width="100%" height="100%"/><use x="56" y="80" xlink:href="#a" width="100%" height="100%"/><use x="56" y="104" xlink:href="#a" width="100%" height="100%"/><use x="56" y="112" xlink:href="#a" width="100%" height="100%"/><use x="56" y="128" xlink:href="#a" width="100%" height="100%"/><use x="56" y="136" xlink:href="#a" width="100%" height="100%"/><use x="56" y="144" xlink:href="#a" width="100%" height="100%"/><use x="56" y="152" xlink:href="#a" width="100%" height="100%"/><use x="56" y="160" xlink:href="#a" width="100%" height="100%"/><use x="56" y="176" xlink:href="#a" width="100%" height="100%"/><use x="56" y="192" xlink:href="#a" width="100%" height="100%"/><use x="56" y="200" xlink:href="#a" width="100%" height="100%"/><use x="56" y="208" xlink:href="#a" width="100%" height="100%"/><use x="56" y="224" xlink:href="#a" width="100%" height="100%"/><use x="64" y="32" xlink:href="#a" width="100%" height="100%"/><use x="64" y="48" xlink:href="#a" width="100%" height="100%"/><use x="64" y="56" xlink:href="#a" width="100%" height="100%"/><use x="64" y="64" xlink:href="#a" width="100%" height="100%"/><use x="64" y="80" xlink:href="#a" width="100%" height="100%"/><use x="64" y="104" xlink:href="#a" width="100%" height="100%"/><use x="64" y="128" xlink:href="#a" width="100%" height="100%"/><use x="64" y="136" xlink:href="#a" width="100%" height="100%"/><use x="64" y="144" xlink:href="#a" width="100%" height="100%"/><use x="64" y="152" xlink:href="#a" width="100%" height="100%"/><use x="64" y="160" xlink:href="#a" width="100%" height="100%"/><use x="64" y="176" xlink:href="#a" width="100%" height="100%"/><use x="64" y="192" xlink:href="#a" width="100%" height="100%"/><use x="64" y="200" xlink:href="#a" width="100%" height="100%"/><use x="64" y="208" xlink:href="#a" width="100%" height="100%"/><use x="64" y="224" xlink:href="#a" width="100%" height="100%"/><use x="72" y="32" xlink:href="#a" width="100%" height="100%"/><use x="72" y="80" xlink:href="#a" width="100%" height="100%"/><use x="72" y="96" xlink:href="#a" width="100%" height="100%"/><use x="72" y="120" xlink:href="#a" width="100%" height="100%"/><use x="72" y="128" xlink:href="#a" width="100%" height="100%"/><use x="72" y="136" xlink:href="#a" width="100%" height="100%"/><use x="72" y="160" xlink:href="#a" width="100%" height="100%"/><use x="72" y="176" xlink:href="#a" width="100%" height="100%"/><use x="72" y="224" xlink:href="#a" width="100%" height="100%"/><use x="80" y="32" xlink:href="#a" width="100%" height="100%"/><use x="80" y="40" xlink:href="#a" width="100%" height="100%"/><use x="80" y="48" xlink:href="#a" width="100%" height="100%"/><use x="80" y="56" xlink:href="#a" width="100%" height="100%"/><use x="80" y="64" xlink:href="#a" width="100%" height="100%"/><use x="80" y="72" xlink:href="#a" width="100%" height="100%"/><use x="80" y="80" xlink:href="#a" width="100%" height="100%"/><use x="80" y="96" xlink:href="#a" width="100%" height="100%"/><use x="80" y="112" xlink:href="#a" width="100%" height="100%"/><use x="80" y="128" xlink:href="#a" width="100%" height="100%"/><use x="80" y="144" xlink:href="#a" width="100%" height="100%"/><use x="80" y="160" xlink:href="#a" width="100%" height="100%"/><use x="80" y="176" xlink:href="#a" width="100%" height="100%"/><use x="80" y="184" xlink:href="#a" width="100%" height="100%"/><use x="80" y="192" xlink:href="#a" width="100%" height="100%"/><use x="80" y="200" xlink:href="#a" width="100%" height="100%"/><use x="80" y="208" xlink:href="#a" width="100%" height="100%"/><use x="80" y="216" xlink:href="#a" width="100%" height="100%"/><use x="80" y="224" xlink:href="#a" width="100%" height="100%"/><use x="88" y="112" xlink:href="#a" width="100%" height="100%"/><use x="88" y="128" xlink:href="#a" width="100%" height="100%"/><use x="88" y="144" xlink:href="#a" width="100%" height="100%"/><use x="88" y="152" xlink:href="#a" width="100%" height="100%"/><use x="96" y="32" xlink:href="#a" width="100%" height="100%"/><use x="96" y="40" xlink:href="#a" width="100%" height="100%"/><use x="96" y="64" xlink:href="#a" width="100%" height="100%"/><use x="96" y="72" xlink:href="#a" width="100%" height="100%"/><use x="96" y="80" xlink:href="#a" width="100%" height="100%"/><use x="96" y="88" xlink:href="#a" width="100%" height="100%"/><use x="96" y="96" xlink:href="#a" width="100%" height="100%"/><use x="96" y="104" xlink:href="#a" width="100%" height="100%"/><use x="96" y="120" xlink:href="#a" width="100%" height="100%"/><use x="96" y="128" xlink:href="#a" width="100%" height="100%"/><use x="96" y="144" xlink:href="#a" width="100%" height="100%"/><use x="96" y="160" xlink:href="#a" width="100%" height="100%"/><use x="96" y="168" xlink:href="#a" width="100%" height="100%"/><use x="96" y="184" xlink:href="#a" width="100%" height="100%"/><use x="96" y="208" xlink:href="#a" width="100%" height="100%"/><use x="96" y="216" xlink:href="#a" width="100%" height="100%"/><use x="96" y="224" xlink:href="#a" width="100%" height="100%"/><use x="104" y="40" xlink:href="#a" width="100%" height="100%"/><use x="104" y="64" xlink:href="#a" width="100%" height="100%"/><use x="104" y="96" xlink:href="#a" width="100%" height="100%"/><use x="104" y="104" xlink:href="#a" width="100%" height="100%"/><use x="104" y="120" xlink:href="#a" width="100%" height="100%"/><use x="104" y="128" xlink:href="#a" width="100%" height="100%"/><use x="104" y="144" xlink:href="#a" width="100%" height="100%"/><use x="104" y="152" xlink:href="#a" width="100%" height="100%"/><use x="104" y="176" xlink:href="#a" width="100%" height="100%"/><use x="104" y="192" xlink:href="#a" width="100%" height="100%"/><use x="112" y="40" xlink:href="#a" width="100%" height="100%"/><use x="112" y="48" xlink:href="#a" width="100%" height="100%"/><use x="112" y="56" xlink:href="#a" width="100%" height="100%"/><use x="112" y="64" xlink:href="#a" width="100%" height="100%"/><use x="112" y="80" xlink:href="#a" width="100%" height="100%"/><use x="112" y="88" xlink:href="#a" width="100%" height="100%"/><use x="112" y="96" xlink:href="#a" width="100%" height="100%"/><use x="112" y="104" xlink:href="#a" width="100%" height="100%"/><use x="112" y="152" xlink:href="#a" width="100%" height="100%"/><use x="112" y="160" xlink:href="#a" width="100%" height="100%"/><use x="112" y="168" xlink:href="#a" width="100%" height="100%"/><use x="112" y="176" xlink:href="#a" width="100%" height="100%"/><use x="112" y="208" xlink:href="#a" width="100%" height="100%"/><use x="112" y="224" xlink:href="#a" width="100%" height="100%"/><use x="120" y="32" xlink:href="#a" width="100%" height="100%"/><use x="120" y="48" xlink:href="#a" width="100%" height="100%"/><use x="120" y="64" xlink:href="#a" width="100%" height="100%"/><use x="120" y="72" xlink:href="#a" width="100%" height="100%"/><use x="120" y="88" xlink:href="#a" width="100%" height="100%"/><use x="120" y="112" xlink:href="#a" width="100%" height="100%"/><use x="120" y="128" xlink:href="#a" width="100%" height="100%"/><use x="120" y="152" xlink:href="#a" width="100%" height="100%"/><use x="120" y="176" xlink:href="#a" width="100%" height="100%"/><use x="120" y="192" xlink:href="#a" width="100%" height="100%"/><use x="120" y="216" xlink:href="#a" width="100%" height="100%"/><use x="128" y="32" xlink:href="#a" width="100%" height="100%"/><use x="128" y="40" xlink:href="#a" width="100%" height="100%"/><use x="128" y="48" xlink:href="#a" width="100%" height="100%"/><use x="128" y="80" xlink:href="#a" width="100%" height="100%"/><use x="128" y="88" xlink:href="#a" width="100%" height="100%"/><use x="128" y="128" xlink:href="#a" width="100%" height="100%"/><use x="128" y="136" xlink:href="#a" width="100%" height="100%"/><use x="128" y="144" xlink:href="#a" width="100%" height="100%"/><use x="128" y="152" xlink:href="#a" width="100%" height="100%"/><use x="128" y="192" xlink:href="#a" width="100%" height="100%"/><use x="128" y="200" xlink:href="#a" width="100%" height="100%"/><use x="128" y="208" xlink:href="#a" width="100%" height="100%"/><use x="128" y="216" xlink:href="#a" width="100%" height="100%"/><use x="128" y="224" xlink:href="#a" width="100%" height="100%"/><use x="136" y="32" xlink:href="#a" width="100%" height="100%"/><use x="136" y="48" xlink:href="#a" width="100%" height="100%"/><use x="136" y="56" xlink:href="#a" width="100%" height="100%"/><use x="136" y="64" xlink:href="#a" width="100%" height="100%"/><use x="136" y="72" xlink:href="#a" width="100%" height="100%"/><use x="136" y="104" xlink:href="#a" width="100%" height="100%"/><use x="136" y="136" xlink:href="#a" width="100%" height="100%"/><use x="136" y="176" xlink:href="#a" width="100%" height="100%"/><use x="136" y="208" xlink:href="#a" width="100%" height="100%"/><use x="136" y="224" xlink:href="#a" width="100%" height="100%"/><use x="144" y="40" xlink:href="#a" width="100%" height="100%"/><use x="144" y="48" xlink:href="#a" width="100%" height="100%"/><use x="144" y="56" xlink:href="#a" width="100%" height="100%"/><use x="144" y="80" xlink:href="#a" width="100%" height="100%"/><use x="144" y="120" xlink:href="#a" width="100%" height="100%"/><use x="144" y="128" xlink:href="#a" width="100%" height="100%"/><use x="144" y="216" xlink:href="#a" width="100%" height="100%"/><use x="144" y="224" xlink:href="#a" width="100%" height="100%"/><use x="152" y="56" xlink:href="#a" width="100%" height="100%"/><use x="152" y="96" xlink:href="#a" width="100%" height="100%"/><use x="152" y="104" xlink:href="#a" width="100%" height="100%"/><use x="152" y="112" xlink:href="#a" width="100%" height="100%"/><use x="152" y="136" xlink:href="#a" width="100%" height="100%"/><use x="152" y="144" xlink:href="#a" width="100%" height="100%"/><use x="152" y="160" xlink:href="#a" width="100%" height="100%"/><use x="152" y="184" xlink:href="#a" width="100%" height="100%"/><use x="152" y="192" xlink:href="#a" width="100%" height="100%"/><use x="152" y="200" xlink:href="#a" width="100%" height="100%"/><use x="152" y="208" xlink:href="#a" width="100%" height="100%"/><use x="160" y="40" xlink:href="#a" width="100%" height="100%"/><use x="160" y="48" xlink:href="#a" width="100%" height="100%"/><use x="160" y="72" xlink:href="#a" width="100%" height="100%"/><use x="160" y="80" xlink:href="#a" width="100%" height="100%"/><use x="160" y="88" xlink:href="#a" width="100%" height="100%"/><use x="160" y="96" xlink:href="#a" width="100%" height="100%"/><use x="160" y="104" xlink:href="#a" width="100%" height="100%"/><use x="160" y="112" xlink:href="#a" width="100%" height="100%"/><use x="160" y="120" xlink:href="#a" width="100%" height="100%"/><use x="160" y="128" xlink:href="#a" width="100%" height="100%"/><use x="160" y="136" xlink:href="#a" width="100%" height="100%"/><use x="160" y="152" xlink:href="#a" width="100%" height="100%"/><use x="160" y="160" xlink:href="#a" width="100%" height="100%"/><use x="160" y="168" xlink:href="#a" width="100%" height="100%"/><use x="160" y="176" xlink:href="#a" width="100%" height="100%"/><use x="160" y="184" xlink:href="#a" width="100%" height="100%"/><use x="160" y="192" xlink:href="#a" width="100%" height="100%"/><use x="160" y="200" xlink:href="#a" width="100%" height="100%"/><use x="160" y="216" xlink:href="#a" width="100%" height="100%"/><use x="160" y="224" xlink:href="#a" width="100%" height="100%"/><use x="168" y="96" xlink:href="#a" width="100%" height="100%"/><use x="168" y="104" xlink:href="#a" width="100%" height="100%"/><use x="168" y="120" xlink:href="#a" width="100%" height="100%"/><use x="168" y="128" xlink:href="#a" width="100%" height="100%"/><use x="168" y="160" xlink:href="#a" width="100%" height="100%"/><use x="168" y="192" xlink:href="#a" width="100%" height="100%"/><use x="168" y="200" xlink:href="#a" width="100%" height="100%"/><use x="168" y="208" xlink:href="#a" width="100%" height="100%"/><use x="168" y="216" xlink:href="#a" width="100%" height="100%"/><use x="168" y="224" xlink:href="#a" width="100%" height="100%"/><use x="176" y="32" xlink:href="#a" width="100%" height="100%"/><use x="176" y="40" xlink:href="#a" width="100%" height="100%"/><use x="176" y="48" xlink:href="#a" width="100%" height="100%"/><use x="176" y="56" xlink:href="#a" width="100%" height="100%"/><use x="176" y="64" xlink:href="#a" width="100%" height="100%"/><use x="176" y="72" xlink:href="#a" width="100%" height="100%"/><use x="176" y="80" xlink:href="#a" width="100%" height="100%"/><use x="176" y="96" xlink:href="#a" width="100%" height="100%"/><use x="176" y="104" xlink:href="#a" width="100%" height="100%"/><use x="176" y="112" xlink:href="#a" width="100%" height="100%"/><use x="176" y="120" xlink:href="#a" width="100%" height="100%"/><use x="176" y="128" xlink:href="#a" width="100%" height="100%"/><use x="176" y="136" xlink:href="#a" width="100%" height="100%"/><use x="176" y="152" xlink:href="#a" width="100%" height="100%"/><use x="176" y="160" xlink:href="#a" width="100%" height="100%"/><use x="176" y="176" xlink:href="#a" width="100%" height="100%"/><use x="176" y="192" xlink:href="#a" width="100%" height="100%"/><use x="176" y="216" xlink:href="#a" width="100%" height="100%"/><use x="176" y="224" xlink:href="#a" width="100%" height="100%"/><use x="184" y="32" xlink:href="#a" width="100%" height="100%"/><use x="184" y="80" xlink:href="#a" width="100%" height="100%"/><use x="184" y="96" xlink:href="#a" width="100%" height="100%"/><use x="184" y="104" xlink:href="#a" width="100%" height="100%"/><use x="184" y="120" xlink:href="#a" width="100%" height="100%"/><use x="184" y="136" xlink:href="#a" width="100%" height="100%"/><use x="184" y="152" xlink:href="#a" width="100%" height="100%"/><use x="184" y="160" xlink:href="#a" width="100%" height="100%"/><use x="184" y="192" xlink:href="#a" width="100%" height="100%"/><use x="184" y="200" xlink:href="#a" width="100%" height="100%"/><use x="184" y="216" xlink:href="#a" width="100%" height="100%"/><use x="192" y="32" xlink:href="#a" width="100%" height="100%"/><use x="192" y="48" xlink:href="#a" width="100%" height="100%"/><use x="192" y="56" xlink:href="#a" width="100%" height="100%"/><use x="192" y="64" xlink:href="#a" width="100%" height="100%"/><use x="192" y="80" xlink:href="#a" width="100%" height="100%"/><use x="192" y="96" xlink:href="#a" width="100%" height="100%"/><use x="192" y="160" xlink:href="#a" width="100%" height="100%"/><use x="192" y="168" xlink:href="#a" width="100%" height="100%"/><use x="192" y="176" xlink:href="#a" width="100%" height="100%"/><use x="192" y="184" xlink:href="#a" width="100%" height="100%"/><use x="192" y="192" xlink:href="#a" width="100%" height="100%"/><use x="192" y="200" xlink:href="#a" width="100%" height="100%"/><use x="192" y="208" xlink:href="#a" width="100%" height="100%"/><use x="192" y="216" xlink:href="#a" width="100%" height="100%"/><use x="200" y="32" xlink:href="#a" width="100%" height="100%"/><use x="200" y="48" xlink:href="#a" width="100%" height="100%"/><use x="200" y="56" xlink:href="#a" width="100%" height="100%"/><use x="200" y="64" xlink:href="#a" width="100%" height="100%"/><use x="200" y="80" xlink:href="#a" width="100%" height="100%"/><use x="200" y="104" xlink:href="#a" width="100%" height="100%"/><use x="200" y="112" xlink:href="#a" width="100%" height="100%"/><use x="200" y="120" xlink:href="#a" width="100%" height="100%"/><use x="200" y="144" xlink:href="#a" width="100%" height="100%"/><use x="200" y="176" xlink:href="#a" width="100%" height="100%"/><use x="200" y="192" xlink:href="#a" width="100%" height="100%"/><use x="200" y="200" xlink:href="#a" width="100%" height="100%"/><use x="200" y="224" xlink:href="#a" width="100%" height="100%"/><use x="208" y="32" xlink:href="#a" width="100%" height="100%"/><use x="208" y="48" xlink:href="#a" width="100%" height="100%"/><use x="208" y="56" xlink:href="#a" width="100%" height="100%"/><use x="208" y="64" xlink:href="#a" width="100%" height="100%"/><use x="208" y="80" xlink:href="#a" width="100%" height="100%"/><use x="208" y="112" xlink:href="#a" width="100%" height="100%"/><use x="208" y="144" xlink:href="#a" width="100%" height="100%"/><use x="208" y="168" xlink:href="#a" width="100%" height="100%"/><use x="208" y="200" xlink:href="#a" width="100%" height="100%"/><use x="216" y="32" xlink:href="#a" width="100%" height="100%"/><use x="216" y="80" xlink:href="#a" width="100%" height="100%"/><use x="216" y="96" xlink:href="#a" width="100%" height="100%"/><use x="216" y="104" xlink:href="#a" width="100%" height="100%"/><use x="216" y="136" xlink:href="#a" width="100%" height="100%"/><use x="216" y="160" xlink:href="#a" width="100%" height="100%"/><use x="216" y="184" xlink:href="#a" width="100%" height="100%"/><use x="216" y="200" xlink:href="#a" width="100%" height="100%"/><use x="216" y="208" xlink:href="#a" width="100%" height="100%"/><use x="224" y="32" xlink:href="#a" width="100%" height="100%"/><use x="224" y="40" xlink:href="#a" width="100%" height="100%"/><use x="224" y="48" xlink:href="#a" width="100%" height="100%"/><use x="224" y="56" xlink:href="#a" width="100%" height="100%"/><use x="224" y="64" xlink:href="#a" width="100%" height="100%"/><use x="224" y="72" xlink:href="#a" width="100%" height="100%"/><use x="224" y="80" xlink:href="#a" width="100%" height="100%"/><use x="224" y="96" xlink:href="#a" width="100%" height="100%"/><use x="224" y="104" xlink:href="#a" width="100%" height="100%"/><use x="224" y="112" xlink:href="#a" width="100%" height="100%"/><use x="224" y="128" xlink:href="#a" width="100%" height="100%"/><use x="224" y="136" xlink:href="#a" width="100%" height="100%"/><use x="224" y="144" xlink:href="#a" width="100%" height="100%"/><use x="224" y="168" xlink:href="#a" width="100%" height="100%"/><use x="224" y="176" xlink:href="#a" width="100%" height="100%"/><use x="224" y="184" xlink:href="#a" width="100%" height="100%"/><use x="224" y="192" xlink:href="#a" width="100%" height="100%"/><use x="224" y="208" xlink:href="#a" width="100%" height="100%"/><use x="224" y="224" xlink:href="#a" width="100%" height="100%"/></g><path d="M199.933 278.578H12.593V158.776H387.34v119.802zm0 0" fill="#ccebff" fill-rule="evenodd"/><path d="M31.194 108.209h-1.3l-.233-2.48h-.054a4.995 4.995 0 0 1-1.192 1.255 6.503 6.503 0 0 1-1.555.852 8.847 8.847 0 0 1-1.821.49c-.647.112-1.315.17-2.002.17-1.49 0-2.8-.191-3.93-.575-1.122-.388-2.054-.91-2.8-1.565a6.531 6.531 0 0 1-1.671-2.279 6.7 6.7 0 0 1-.554-2.683c0-.929.184-1.82.554-2.673a6.466 6.466 0 0 1 1.672-2.268c.745-.66 1.676-1.181 2.8-1.565 1.13-.388 2.439-.586 3.93-.586.992 0 1.93.096 2.81.288.886.186 1.683.468 2.386.852.702.383 1.288.86 1.756 1.426a4.733 4.733 0 0 1 .97 1.95h-1.81c-.051-.389-.232-.784-.544-1.183-.314-.404-.732-.77-1.256-1.096-.52-.333-1.145-.602-1.874-.81-.724-.213-1.54-.319-2.439-.319-1.256 0-2.34.17-3.248.511-.902.34-1.64.796-2.214 1.363a5.472 5.472 0 0 0-1.278 1.927 6.126 6.126 0 0 0-.404 2.183c0 .753.133 1.488.404 2.204a5.456 5.456 0 0 0 1.278 1.917c.575.561 1.313 1.017 2.215 1.363.908.34 1.991.511 3.248.511 1.043 0 1.975-.123 2.8-.373.823-.247 1.518-.59 2.087-1.033a4.34 4.34 0 0 0 1.278-1.586 4.54 4.54 0 0 0 .405-2.013h-6.465v-1.097h8.05zm2.976-9.849h1.543v1.66h.075c.439-.596 1.022-1.067 1.746-1.416.729-.354 1.645-.532 2.747-.532.9 0 1.717.16 2.449.479.737.32 1.23.804 1.48 1.448.41-.644 1.014-1.128 1.81-1.448a6.773 6.773 0 0 1 2.556-.48c3.024 0 4.536 1.156 4.536 3.461v6.677h-1.671v-6.623c0-.815-.243-1.438-.725-1.864-.477-.426-1.315-.639-2.513-.639-.732 0-1.336.102-1.81.299-.477.2-.857.465-1.14.798a2.887 2.887 0 0 0-.606 1.129 5.111 5.111 0 0 0-.17 1.33v5.57h-1.672v-6.677c0-.332-.051-.649-.15-.947a1.836 1.836 0 0 0-.478-.777c-.221-.227-.52-.405-.895-.533-.37-.128-.82-.192-1.352-.192-.725 0-1.348.094-1.864.278-.511.186-.932.441-1.256.766a3.128 3.128 0 0 0-.735 1.16 4.222 4.222 0 0 0-.234 1.428v5.494h-1.672zm32.748 4.93a4.736 4.736 0 0 0-.255-1.523 3.704 3.704 0 0 0-.799-1.342c-.362-.397-.828-.719-1.395-.97-.57-.246-1.251-.372-2.044-.372-.89 0-1.637.126-2.247.373-.612.25-1.108.572-1.49.969a3.504 3.504 0 0 0-.831 1.342 4.818 4.818 0 0 0 0 3.034c.17.506.447.956.83 1.352.384.392.88.711 1.491.96.61.25 1.358.371 2.247.371.793 0 1.474-.122 2.044-.372.567-.248 1.033-.567 1.395-.959a3.77 3.77 0 0 0 .799-1.352c.17-.502.255-1.006.255-1.512zm-10.978-8.7h1.672v5.643h.053a2.753 2.753 0 0 1 .757-.926 4.46 4.46 0 0 1 1.128-.67 6.547 6.547 0 0 1 1.363-.417 7.645 7.645 0 0 1 1.512-.148c1.044 0 1.949.143 2.715.426.772.276 1.416.657 1.927 1.14.517.476.9 1.03 1.15 1.66a5.35 5.35 0 0 1 .373 1.991 5.4 5.4 0 0 1-.373 1.992 4.45 4.45 0 0 1-1.15 1.661c-.51.476-1.155.857-1.927 1.139-.766.277-1.671.415-2.715.415-1.115 0-2.114-.191-2.992-.575-.881-.383-1.512-.91-1.896-1.586h-.052v1.874H55.94zm15.467 0h1.8v5.91h11.276v-5.91h1.799v13.619h-1.8v-6.602H73.207v6.602h-1.799zm30.403 6.825a20.46 20.46 0 0 0-1.384.596 6.856 6.856 0 0 0-1.256.746 3.775 3.775 0 0 0-.895.927 1.916 1.916 0 0 0-.34 1.107c0 .413.111.783.34 1.107.226.32.533.602.916.842a4.584 4.584 0 0 0 1.32.553 6.111 6.111 0 0 0 1.534.192c.958 0 1.813-.187 2.566-.565a7.041 7.041 0 0 0 1.927-1.383zm5.772 5.016a8.1 8.1 0 0 1-2.481 1.501c-.953.375-1.989.564-3.11.564a9.607 9.607 0 0 1-2.267-.255c-.702-.162-1.31-.405-1.821-.725a3.826 3.826 0 0 1-1.215-1.202c-.293-.481-.436-1.027-.436-1.64 0-.482.14-.926.426-1.33.282-.405.652-.77 1.107-1.097a10.04 10.04 0 0 1 1.501-.905c.546-.27 1.086-.503 1.619-.703-.264-.24-.532-.485-.81-.735a6.578 6.578 0 0 1-.745-.777 4.997 4.997 0 0 1-.565-.842 2.019 2.019 0 0 1-.223-.936 2 2 0 0 1 .33-1.13c.227-.34.527-.63.905-.872a4.632 4.632 0 0 1 1.331-.554 6.39 6.39 0 0 1 1.64-.202 6.351 6.351 0 0 1 1.629.202 4.49 4.49 0 0 1 1.331.554 2.903 2.903 0 0 1 .905.873 2.024 2.024 0 0 1 .33 1.129c0 .42-.106.804-.319 1.15-.213.34-.495.654-.841.936a7.067 7.067 0 0 1-1.182.767c-.442.235-.9.464-1.374.682l4.142 3.588c.235-.333.386-.666.458-1.001.07-.341.107-.77.107-1.288h1.672c0 .378-.08.87-.235 1.48-.149.604-.444 1.198-.884 1.778l3.196 2.768h-2.109zm-4.813-10.84c-.69 0-1.284.154-1.779.458-.497.298-.745.731-.745 1.3 0 .241.07.486.213.734a4.293 4.293 0 0 0 .532.734c.213.235.44.464.682.682.248.22.48.42.692.596.34-.15.681-.311 1.022-.49a5.874 5.874 0 0 0 .948-.596 3.245 3.245 0 0 0 .692-.746 1.676 1.676 0 0 0 .266-.916c0-.567-.25-1-.745-1.298-.498-.304-1.091-.458-1.778-.458zm31.569 3.119a3.864 3.864 0 0 0-.788-1.405 4.659 4.659 0 0 0-1.33-1.033 6.717 6.717 0 0 0-1.726-.638 8.62 8.62 0 0 0-1.98-.224c-1.257 0-2.34.17-3.248.511-.903.34-1.64.796-2.215 1.363a5.472 5.472 0 0 0-1.278 1.927 6.126 6.126 0 0 0-.404 2.183c0 .753.133 1.488.404 2.204a5.456 5.456 0 0 0 1.278 1.917c.576.561 1.313 1.017 2.215 1.363.908.34 1.992.511 3.248.511.866 0 1.656-.112 2.374-.34.717-.235 1.331-.546 1.842-.938a5.031 5.031 0 0 0 1.257-1.384c.32-.525.525-1.092.618-1.704h1.8a5.743 5.743 0 0 1-.82 2.268 6.02 6.02 0 0 1-1.651 1.725c-.676.477-1.47.841-2.385 1.097-.91.255-1.922.383-3.035.383-1.49 0-2.8-.191-3.93-.575-1.122-.388-2.054-.91-2.8-1.565a6.524 6.524 0 0 1-1.672-2.279 6.7 6.7 0 0 1-.554-2.683c0-.929.184-1.82.554-2.673a6.466 6.466 0 0 1 1.672-2.268c.745-.66 1.676-1.181 2.8-1.565 1.13-.388 2.44-.586 3.93-.586.899 0 1.78.096 2.64.288.858.186 1.64.466 2.343.841a6.09 6.09 0 0 1 1.757 1.384 3.864 3.864 0 0 1 .884 1.896zm10.177-.638c1.044 0 1.965.143 2.768.426.81.276 1.486.654 2.035 1.128a4.618 4.618 0 0 1 1.256 1.662c.282.634.426 1.299.426 2.001a4.88 4.88 0 0 1-.426 2.013 4.746 4.746 0 0 1-1.256 1.65c-.549.469-1.225.847-2.035 1.13-.804.276-1.724.414-2.768.414-1.043 0-1.97-.138-2.779-.415-.81-.282-1.488-.66-2.034-1.129a4.746 4.746 0 0 1-1.246-1.65 4.833 4.833 0 0 1-.426-2.013c0-.702.141-1.368.426-2.001a4.618 4.618 0 0 1 1.246-1.662c.546-.473 1.225-.852 2.034-1.128.81-.282 1.735-.426 2.78-.426zm0 1.011c-.796 0-1.496.126-2.097.373-.605.243-1.105.561-1.502.958a3.946 3.946 0 0 0-.905 1.343 3.944 3.944 0 0 0-.309 1.533c0 .519.102 1.03.309 1.533a4.014 4.014 0 0 0 .905 1.352c.397.391.897.708 1.502.948.6.242 1.301.362 2.097.362.793 0 1.493-.12 2.098-.362.602-.24 1.102-.557 1.501-.948a4.094 4.094 0 0 0 .905-1.352 4.042 4.042 0 0 0 .309-1.534 3.99 3.99 0 0 0-.309-1.533 4.023 4.023 0 0 0-.905-1.342c-.4-.397-.9-.715-1.501-.958-.605-.247-1.305-.373-2.098-.373zm9.806 9.126v-2.023h2.236v2.023zm6.597-13.619h1.8v7.326l11.031-7.326h2.449l-8.476 5.622 8.87 7.997h-2.332l-7.9-7.103-3.642 2.429v4.674h-1.8zm33.254 13.619h-1.3l-.234-2.48h-.053a4.995 4.995 0 0 1-1.192 1.255 6.503 6.503 0 0 1-1.555.852 8.847 8.847 0 0 1-1.821.49c-.647.112-1.316.17-2.002.17-1.49 0-2.8-.191-3.93-.575-1.122-.388-2.054-.91-2.8-1.565a6.531 6.531 0 0 1-1.671-2.279 6.7 6.7 0 0 1-.554-2.683c0-.929.184-1.82.554-2.673a6.466 6.466 0 0 1 1.672-2.268c.745-.66 1.676-1.181 2.8-1.565 1.129-.388 2.439-.586 3.93-.586.992 0 1.93.096 2.81.288.886.186 1.683.468 2.385.852.703.383 1.288.86 1.757 1.426a4.733 4.733 0 0 1 .97 1.95h-1.81c-.051-.389-.232-.784-.544-1.183-.314-.404-.732-.77-1.256-1.096-.52-.333-1.145-.602-1.875-.81-.723-.213-1.538-.319-2.438-.319-1.257 0-2.34.17-3.248.511-.902.34-1.64.796-2.215 1.363a5.472 5.472 0 0 0-1.277 1.927 6.126 6.126 0 0 0-.404 2.183c0 .753.132 1.488.404 2.204a5.456 5.456 0 0 0 1.278 1.917c.575.561 1.313 1.017 2.215 1.363.908.34 1.991.511 3.248.511 1.043 0 1.975-.123 2.8-.373.823-.247 1.518-.59 2.087-1.033a4.34 4.34 0 0 0 1.278-1.586 4.54 4.54 0 0 0 .405-2.013h-6.465v-1.097h8.05zm0 0"/><path d="M12.593 24.525v66.649h49.61v-9.977H25.224V24.522z" fill="#3d7eda" fill-rule="evenodd"/><path d="M70.113 24.535v55.872l22.892-21.104 23.814 31.828h15.866l-31.064-39.966 29.05-26.63h-15.744L82.71 54.874V24.522z" fill="#3c7dd9" fill-rule="evenodd"/><path d="M194.419 34.617V24.523h-52.03v66.632h52.748v-10.21h-40V61.647h36.174v-9.593H155.2V34.647z" fill="#3c7cd9" fill-rule="evenodd"/><path d="M215.8 171.05l2.993 2.993-2.746 2.746-2.747-2.746zm0 15.247l2.993 2.994-2.746 2.749-2.747-2.747zm0 15.288l2.993 2.994-2.746 2.746-2.747-2.746zm0 15.171l2.993 2.994-2.746 2.746-2.747-2.746zm0 15.302l2.993 2.994-2.746 2.746-2.747-2.746z" fill="#1464d4" fill-rule="evenodd"/><text style="line-height:14.33333302px;-inkscape-font-specification:Arial" x="17.945" y="173.316" font-weight="400" font-size="16" font-family="Arial" letter-spacing="0" word-spacing="0"><tspan x="17.945" y="173.316" style="line-height:14.33333302px;-inkscape-font-specification:'Trebuchet MS'" font-size="12" font-family="Trebuchet MS">Am Bühl 1</tspan><tspan x="17.945" y="188.673" style="line-height:14.33333302px;-inkscape-font-specification:'Trebuchet MS'" font-size="12" font-family="Trebuchet MS">86845 Großaitingen</tspan><tspan x="17.945" y="204.03" style="line-height:14.33333302px;-inkscape-font-specification:'Trebuchet MS'" font-size="12" font-family="Trebuchet MS">Telefon +49(8203)90099</tspan></text><text style="line-height:14.33333302px;-inkscape-font-specification:Arial" x="17.876" y="240.508" font-weight="400" font-size="16" font-family="Arial" letter-spacing="0" word-spacing="0"><tspan x="17.876" y="240.508" style="line-height:14.33333302px;-inkscape-font-specification:'Trebuchet MS'" font-size="12" font-family="Trebuchet MS">Beraten und Planen</tspan><tspan x="17.876" y="255.865" style="line-height:14.33333302px;-inkscape-font-specification:'Trebuchet MS'" font-size="12" font-family="Trebuchet MS">Projektieren und Software</tspan><tspan x="17.876" y="271.222" style="line-height:14.33333302px;-inkscape-font-specification:'Trebuchet MS'" font-size="12" font-family="Trebuchet MS">Service und Wartung</tspan></text><text style="line-height:25px;-inkscape-font-specification:Arial" x="212.064" y="266.902" font-weight="400" font-size="16" font-family="Arial" letter-spacing="0" word-spacing="0" fill="#3c7cd9"><tspan x="212.064" y="266.902" style="-inkscape-font-specification:'Arial Bold'" font-weight="700" font-size="22.667">LKElektro.de</tspan></text><text style="line-height:14.33333302px;-inkscape-font-specification:Arial" x="222.808" y="177.803" font-weight="400" font-size="16" font-family="Arial" letter-spacing="0" word-spacing="0"><tspan x="222.808" y="177.803" style="line-height:14.33333302px;-inkscape-font-specification:'Trebuchet MS'" font-size="12" font-family="Trebuchet MS">Elektrokonstruktionen</tspan><tspan x="222.808" y="193.16" style="line-height:14.33333302px;-inkscape-font-specification:'Trebuchet MS'" font-size="12" font-family="Trebuchet MS">Maschinensicherheit</tspan><tspan x="222.808" y="208.517" style="line-height:14.33333302px;-inkscape-font-specification:'Trebuchet MS'" font-size="12" font-family="Trebuchet MS">Prozessautomatisierung</tspan><tspan x="222.808" y="223.874" style="line-height:14.33333302px;-inkscape-font-specification:'Trebuchet MS'" font-size="12" font-family="Trebuchet MS">Steuerungstechnik</tspan><tspan x="222.808" y="239.231" style="line-height:14.33333302px;-inkscape-font-specification:'Trebuchet MS'" font-size="12" font-family="Trebuchet MS">Antriebstechnik</tspan></text><text style="line-height:25px;-inkscape-font-specification:Arial" x="11.746" y="149.169" font-weight="400" font-size="16" font-family="Arial" letter-spacing="0" word-spacing="0"><tspan x="11.746" y="149.169" style="line-height:26.33333397px;-inkscape-font-specification:Verdana" dx="0" font-size="21.333" font-family="Verdana" letter-spacing=".44">electrical engineering consultants</tspan></text><text style="line-height:25px;-inkscape-font-specification:Arial" x="318.945" y="103.41" font-weight="400" font-size="16" font-family="Arial" letter-spacing="0" word-spacing="0"><tspan x="318.945" y="103.41" style="line-height:26.33333397px;-inkscape-font-specification:Verdana" font-family="Verdana">scan me</tspan></text></svg>