<svg width="400" height="300" viewBox="0 0 400 300" xmlns="http://www.w3.org/2000/svg" xmlns:xlink="http://www.w3.org/1999/xlink"><defs><path id="a" d="M0 0h8v8H0z"/></defs><g transform="translate(309.76 13.261) scale(.33033)"><use x="32" y="32" width="100%" height="100%" xlink:href="#a"/><use x="32" y="40" width="100%" height="100%" xlink:href="#a"/><use x="32" y="48" width="100%" height="100%" xlink:href="#a"/><use x="32" y="56" width="100%" height="100%" xlink:href="#a"/><use x="32" y="64" width="100%" height="100%" xlink:href="#a"/><use x="32" y="72" width="100%" height="100%" xlink:href="#a"/><use x="32" y="80" width="100%" height="100%" xlink:href="#a"/><use x="32" y="96" width="100%" height="100%" xlink:href="#a"/><use x="32" y="104" width="100%" height="100%" xlink:href="#a"/><use x="32" y="136" width="100%" height="100%" xlink:href="#a"/><use x="32" y="152" width="100%" height="100%" xlink:href="#a"/><use x="32" y="176" width="100%" height="100%" xlink:href="#a"/><use x="32" y="184" width="100%" height="100%" xlink:href="#a"/><use x="32" y="192" width="100%" height="100%" xlink:href="#a"/><use x="32" y="200" width="100%" height="100%" xlink:href="#a"/><use x="32" y="208" width="100%" height="100%" xlink:href="#a"/><use x="32" y="216" width="100%" height="100%" xlink:href="#a"/><use x="32" y="224" width="100%" height="100%" xlink:href="#a"/><use x="40" y="32" width="100%" height="100%" xlink:href="#a"/><use x="40" y="80" width="100%" height="100%" xlink:href="#a"/><use x="40" y="96" width="100%" height="100%" xlink:href="#a"/><use x="40" y="104" width="100%" height="100%" xlink:href="#a"/><use x="40" y="120" width="100%" height="100%" xlink:href="#a"/><use x="40" y="136" width="100%" height="100%" xlink:href="#a"/><use x="40" y="152" width="100%" height="100%" xlink:href="#a"/><use x="40" y="176" width="100%" height="100%" xlink:href="#a"/><use x="40" y="224" width="100%" height="100%" xlink:href="#a"/><use x="48" y="32" width="100%" height="100%" xlink:href="#a"/><use x="48" y="48" width="100%" height="100%" xlink:href="#a"/><use x="48" y="56" width="100%" height="100%" xlink:href="#a"/><use x="48" y="64" width="100%" height="100%" xlink:href="#a"/><use x="48" y="80" width="100%" height="100%" xlink:href="#a"/><use x="48" y="96" width="100%" height="100%" xlink:href="#a"/><use x="48" y="104" width="100%" height="100%" xlink:href="#a"/><use x="48" y="120" width="100%" height="100%" xlink:href="#a"/><use x="48" y="128" width="100%" height="100%" xlink:href="#a"/><use x="48" y="136" width="100%" height="100%" xlink:href="#a"/><use x="48" y="144" width="100%" height="100%" xlink:href="#a"/><use x="48" y="152" width="100%" height="100%" xlink:href="#a"/><use x="48" y="160" width="100%" height="100%" xlink:href="#a"/><use x="48" y="176" width="100%" height="100%" xlink:href="#a"/><use x="48" y="192" width="100%" height="100%" xlink:href="#a"/><use x="48" y="200" width="100%" height="100%" xlink:href="#a"/><use x="48" y="208" width="100%" height="100%" xlink:href="#a"/><use x="48" y="224" width="100%" height="100%" xlink:href="#a"/><use x="56" y="32" width="100%" height="100%" xlink:href="#a"/><use x="56" y="48" width="100%" height="100%" xlink:href="#a"/><use x="56" y="56" width="100%" height="100%" xlink:href="#a"/><use x="56" y="64" width="100%" height="100%" xlink:href="#a"/><use x="56" y="80" width="100%" height="100%" xlink:href="#a"/><use x="56" y="104" width="100%" height="100%" xlink:href="#a"/><use x="56" y="112" width="100%" height="100%" xlink:href="#a"/><use x="56" y="128" width="100%" height="100%" xlink:href="#a"/><use x="56" y="136" width="100%" height="100%" xlink:href="#a"/><use x="56" y="144" width="100%" height="100%" xlink:href="#a"/><use x="56" y="152" width="100%" height="100%" xlink:href="#a"/><use x="56" y="160" width="100%" height="100%" xlink:href="#a"/><use x="56" y="176" width="100%" height="100%" xlink:href="#a"/><use x="56" y="192" width="100%" height="100%" xlink:href="#a"/><use x="56" y="200" width="100%" height="100%" xlink:href="#a"/><use x="56" y="208" width="100%" height="100%" xlink:href="#a"/><use x="56" y="224" width="100%" height="100%" xlink:href="#a"/><use x="64" y="32" width="100%" height="100%" xlink:href="#a"/><use x="64" y="48" width="100%" height="100%" xlink:href="#a"/><use x="64" y="56" width="100%" height="100%" xlink:href="#a"/><use x="64" y="64" width="100%" height="100%" xlink:href="#a"/><use x="64" y="80" width="100%" height="100%" xlink:href="#a"/><use x="64" y="104" width="100%" height="100%" xlink:href="#a"/><use x="64" y="128" width="100%" height="100%" xlink:href="#a"/><use x="64" y="136" width="100%" height="100%" xlink:href="#a"/><use x="64" y="144" width="100%" height="100%" xlink:href="#a"/><use x="64" y="152" width="100%" height="100%" xlink:href="#a"/><use x="64" y="160" width="100%" height="100%" xlink:href="#a"/><use x="64" y="176" width="100%" height="100%" xlink:href="#a"/><use x="64" y="192" width="100%" height="100%" xlink:href="#a"/><use x="64" y="200" width="100%" height="100%" xlink:href="#a"/><use x="64" y="208" width="100%" height="100%" xlink:href="#a"/><use x="64" y="224" width="100%" height="100%" xlink:href="#a"/><use x="72" y="32" width="100%" height="100%" xlink:href="#a"/><use x="72" y="80" width="100%" height="100%" xlink:href="#a"/><use x="72" y="96" width="100%" height="100%" xlink:href="#a"/><use x="72" y="120" width="100%" height="100%" xlink:href="#a"/><use x="72" y="128" width="100%" height="100%" xlink:href="#a"/><use x="72" y="136" width="100%" height="100%" xlink:href="#a"/><use x="72" y="160" width="100%" height="100%" xlink:href="#a"/><use x="72" y="176" width="100%" height="100%" xlink:href="#a"/><use x="72" y="224" width="100%" height="100%" xlink:href="#a"/><use x="80" y="32" width="100%" height="100%" xlink:href="#a"/><use x="80" y="40" width="100%" height="100%" xlink:href="#a"/><use x="80" y="48" width="100%" height="100%" xlink:href="#a"/><use x="80" y="56" width="100%" height="100%" xlink:href="#a"/><use x="80" y="64" width="100%" height="100%" xlink:href="#a"/><use x="80" y="72" width="100%" height="100%" xlink:href="#a"/><use x="80" y="80" width="100%" height="100%" xlink:href="#a"/><use x="80" y="96" width="100%" height="100%" xlink:href="#a"/><use x="80" y="112" width="100%" height="100%" xlink:href="#a"/><use x="80" y="128" width="100%" height="100%" xlink:href="#a"/><use x="80" y="144" width="100%" height="100%" xlink:href="#a"/><use x="80" y="160" width="100%" height="100%" xlink:href="#a"/><use x="80" y="176" width="100%" height="100%" xlink:href="#a"/><use x="80" y="184" width="100%" height="100%" xlink:href="#a"/><use x="80" y="192" width="100%" height="100%" xlink:href="#a"/><use x="80" y="200" width="100%" height="100%" xlink:href="#a"/><use x="80" y="208" width="100%" height="100%" xlink:href="#a"/><use x="80" y="216" width="100%" height="100%" xlink:href="#a"/><use x="80" y="224" width="100%" height="100%" xlink:href="#a"/><use x="88" y="112" width="100%" height="100%" xlink:href="#a"/><use x="88" y="128" width="100%" height="100%" xlink:href="#a"/><use x="88" y="144" width="100%" height="100%" xlink:href="#a"/><use x="88" y="152" width="100%" height="100%" xlink:href="#a"/><use x="96" y="32" width="100%" height="100%" xlink:href="#a"/><use x="96" y="40" width="100%" height="100%" xlink:href="#a"/><use x="96" y="64" width="100%" height="100%" xlink:href="#a"/><use x="96" y="72" width="100%" height="100%" xlink:href="#a"/><use x="96" y="80" width="100%" height="100%" xlink:href="#a"/><use x="96" y="88" width="100%" height="100%" xlink:href="#a"/><use x="96" y="96" width="100%" height="100%" xlink:href="#a"/><use x="96" y="104" width="100%" height="100%" xlink:href="#a"/><use x="96" y="120" width="100%" height="100%" xlink:href="#a"/><use x="96" y="128" width="100%" height="100%" xlink:href="#a"/><use x="96" y="144" width="100%" height="100%" xlink:href="#a"/><use x="96" y="160" width="100%" height="100%" xlink:href="#a"/><use x="96" y="168" width="100%" height="100%" xlink:href="#a"/><use x="96" y="184" width="100%" height="100%" xlink:href="#a"/><use x="96" y="208" width="100%" height="100%" xlink:href="#a"/><use x="96" y="216" width="100%" height="100%" xlink:href="#a"/><use x="96" y="224" width="100%" height="100%" xlink:href="#a"/><use x="104" y="40" width="100%" height="100%" xlink:href="#a"/><use x="104" y="64" width="100%" height="100%" xlink:href="#a"/><use x="104" y="96" width="100%" height="100%" xlink:href="#a"/><use x="104" y="104" width="100%" height="100%" xlink:href="#a"/><use x="104" y="120" width="100%" height="100%" xlink:href="#a"/><use x="104" y="128" width="100%" height="100%" xlink:href="#a"/><use x="104" y="144" width="100%" height="100%" xlink:href="#a"/><use x="104" y="152" width="100%" height="100%" xlink:href="#a"/><use x="104" y="176" width="100%" height="100%" xlink:href="#a"/><use x="104" y="192" width="100%" height="100%" xlink:href="#a"/><use x="112" y="40" width="100%" height="100%" xlink:href="#a"/><use x="112" y="48" width="100%" height="100%" xlink:href="#a"/><use x="112" y="56" width="100%" height="100%" xlink:href="#a"/><use x="112" y="64" width="100%" height="100%" xlink:href="#a"/><use x="112" y="80" width="100%" height="100%" xlink:href="#a"/><use x="112" y="88" width="100%" height="100%" xlink:href="#a"/><use x="112" y="96" width="100%" height="100%" xlink:href="#a"/><use x="112" y="104" width="100%" height="100%" xlink:href="#a"/><use x="112" y="152" width="100%" height="100%" xlink:href="#a"/><use x="112" y="160" width="100%" height="100%" xlink:href="#a"/><use x="112" y="168" width="100%" height="100%" xlink:href="#a"/><use x="112" y="176" width="100%" height="100%" xlink:href="#a"/><use x="112" y="208" width="100%" height="100%" xlink:href="#a"/><use x="112" y="224" width="100%" height="100%" xlink:href="#a"/><use x="120" y="32" width="100%" height="100%" xlink:href="#a"/><use x="120" y="48" width="100%" height="100%" xlink:href="#a"/><use x="120" y="64" width="100%" height="100%" xlink:href="#a"/><use x="120" y="72" width="100%" height="100%" xlink:href="#a"/><use x="120" y="88" width="100%" height="100%" xlink:href="#a"/><use x="120" y="112" width="100%" height="100%" xlink:href="#a"/><use x="120" y="128" width="100%" height="100%" xlink:href="#a"/><use x="120" y="152" width="100%" height="100%" xlink:href="#a"/><use x="120" y="176" width="100%" height="100%" xlink:href="#a"/><use x="120" y="192" width="100%" height="100%" xlink:href="#a"/><use x="120" y="216" width="100%" height="100%" xlink:href="#a"/><use x="128" y="32" width="100%" height="100%" xlink:href="#a"/><use x="128" y="40" width="100%" height="100%" xlink:href="#a"/><use x="128" y="48" width="100%" height="100%" xlink:href="#a"/><use x="128" y="80" width="100%" height="100%" xlink:href="#a"/><use x="128" y="88" width="100%" height="100%" xlink:href="#a"/><use x="128" y="128" width="100%" height="100%" xlink:href="#a"/><use x="128" y="136" width="100%" height="100%" xlink:href="#a"/><use x="128" y="144" width="100%" height="100%" xlink:href="#a"/><use x="128" y="152" width="100%" height="100%" xlink:href="#a"/><use x="128" y="192" width="100%" height="100%" xlink:href="#a"/><use x="128" y="200" width="100%" height="100%" xlink:href="#a"/><use x="128" y="208" width="100%" height="100%" xlink:href="#a"/><use x="128" y="216" width="100%" height="100%" xlink:href="#a"/><use x="128" y="224" width="100%" height="100%" xlink:href="#a"/><use x="136" y="32" width="100%" height="100%" xlink:href="#a"/><use x="136" y="48" width="100%" height="100%" xlink:href="#a"/><use x="136" y="56" width="100%" height="100%" xlink:href="#a"/><use x="136" y="64" width="100%" height="100%" xlink:href="#a"/><use x="136" y="72" width="100%" height="100%" xlink:href="#a"/><use x="136" y="104" width="100%" height="100%" xlink:href="#a"/><use x="136" y="136" width="100%" height="100%" xlink:href="#a"/><use x="136" y="176" width="100%" height="100%" xlink:href="#a"/><use x="136" y="208" width="100%" height="100%" xlink:href="#a"/><use x="136" y="224" width="100%" height="100%" xlink:href="#a"/><use x="144" y="40" width="100%" height="100%" xlink:href="#a"/><use x="144" y="48" width="100%" height="100%" xlink:href="#a"/><use x="144" y="56" width="100%" height="100%" xlink:href="#a"/><use x="144" y="80" width="100%" height="100%" xlink:href="#a"/><use x="144" y="120" width="100%" height="100%" xlink:href="#a"/><use x="144" y="128" width="100%" height="100%" xlink:href="#a"/><use x="144" y="216" width="100%" height="100%" xlink:href="#a"/><use x="144" y="224" width="100%" height="100%" xlink:href="#a"/><use x="152" y="56" width="100%" height="100%" xlink:href="#a"/><use x="152" y="96" width="100%" height="100%" xlink:href="#a"/><use x="152" y="104" width="100%" height="100%" xlink:href="#a"/><use x="152" y="112" width="100%" height="100%" xlink:href="#a"/><use x="152" y="136" width="100%" height="100%" xlink:href="#a"/><use x="152" y="144" width="100%" height="100%" xlink:href="#a"/><use x="152" y="160" width="100%" height="100%" xlink:href="#a"/><use x="152" y="184" width="100%" height="100%" xlink:href="#a"/><use x="152" y="192" width="100%" height="100%" xlink:href="#a"/><use x="152" y="200" width="100%" height="100%" xlink:href="#a"/><use x="152" y="208" width="100%" height="100%" xlink:href="#a"/><use x="160" y="40" width="100%" height="100%" xlink:href="#a"/><use x="160" y="48" width="100%" height="100%" xlink:href="#a"/><use x="160" y="72" width="100%" height="100%" xlink:href="#a"/><use x="160" y="80" width="100%" height="100%" xlink:href="#a"/><use x="160" y="88" width="100%" height="100%" xlink:href="#a"/><use x="160" y="96" width="100%" height="100%" xlink:href="#a"/><use x="160" y="104" width="100%" height="100%" xlink:href="#a"/><use x="160" y="112" width="100%" height="100%" xlink:href="#a"/><use x="160" y="120" width="100%" height="100%" xlink:href="#a"/><use x="160" y="128" width="100%" height="100%" xlink:href="#a"/><use x="160" y="136" width="100%" height="100%" xlink:href="#a"/><use x="160" y="152" width="100%" height="100%" xlink:href="#a"/><use x="160" y="160" width="100%" height="100%" xlink:href="#a"/><use x="160" y="168" width="100%" height="100%" xlink:href="#a"/><use x="160" y="176" width="100%" height="100%" xlink:href="#a"/><use x="160" y="184" width="100%" height="100%" xlink:href="#a"/><use x="160" y="192" width="100%" height="100%" xlink:href="#a"/><use x="160" y="200" width="100%" height="100%" xlink:href="#a"/><use x="160" y="216" width="100%" height="100%" xlink:href="#a"/><use x="160" y="224" width="100%" height="100%" xlink:href="#a"/><use x="168" y="96" width="100%" height="100%" xlink:href="#a"/><use x="168" y="104" width="100%" height="100%" xlink:href="#a"/><use x="168" y="120" width="100%" height="100%" xlink:href="#a"/><use x="168" y="128" width="100%" height="100%" xlink:href="#a"/><use x="168" y="160" width="100%" height="100%" xlink:href="#a"/><use x="168" y="192" width="100%" height="100%" xlink:href="#a"/><use x="168" y="200" width="100%" height="100%" xlink:href="#a"/><use x="168" y="208" width="100%" height="100%" xlink:href="#a"/><use x="168" y="216" width="100%" height="100%" xlink:href="#a"/><use x="168" y="224" width="100%" height="100%" xlink:href="#a"/><use x="176" y="32" width="100%" height="100%" xlink:href="#a"/><use x="176" y="40" width="100%" height="100%" xlink:href="#a"/><use x="176" y="48" width="100%" height="100%" xlink:href="#a"/><use x="176" y="56" width="100%" height="100%" xlink:href="#a"/><use x="176" y="64" width="100%" height="100%" xlink:href="#a"/><use x="176" y="72" width="100%" height="100%" xlink:href="#a"/><use x="176" y="80" width="100%" height="100%" xlink:href="#a"/><use x="176" y="96" width="100%" height="100%" xlink:href="#a"/><use x="176" y="104" width="100%" height="100%" xlink:href="#a"/><use x="176" y="112" width="100%" height="100%" xlink:href="#a"/><use x="176" y="120" width="100%" height="100%" xlink:href="#a"/><use x="176" y="128" width="100%" height="100%" xlink:href="#a"/><use x="176" y="136" width="100%" height="100%" xlink:href="#a"/><use x="176" y="152" width="100%" height="100%" xlink:href="#a"/><use x="176" y="160" width="100%" height="100%" xlink:href="#a"/><use x="176" y="176" width="100%" height="100%" xlink:href="#a"/><use x="176" y="192" width="100%" height="100%" xlink:href="#a"/><use x="176" y="216" width="100%" height="100%" xlink:href="#a"/><use x="176" y="224" width="100%" height="100%" xlink:href="#a"/><use x="184" y="32" width="100%" height="100%" xlink:href="#a"/><use x="184" y="80" width="100%" height="100%" xlink:href="#a"/><use x="184" y="96" width="100%" height="100%" xlink:href="#a"/><use x="184" y="104" width="100%" height="100%" xlink:href="#a"/><use x="184" y="120" width="100%" height="100%" xlink:href="#a"/><use x="184" y="136" width="100%" height="100%" xlink:href="#a"/><use x="184" y="152" width="100%" height="100%" xlink:href="#a"/><use x="184" y="160" width="100%" height="100%" xlink:href="#a"/><use x="184" y="192" width="100%" height="100%" xlink:href="#a"/><use x="184" y="200" width="100%" height="100%" xlink:href="#a"/><use x="184" y="216" width="100%" height="100%" xlink:href="#a"/><use x="192" y="32" width="100%" height="100%" xlink:href="#a"/><use x="192" y="48" width="100%" height="100%" xlink:href="#a"/><use x="192" y="56" width="100%" height="100%" xlink:href="#a"/><use x="192" y="64" width="100%" height="100%" xlink:href="#a"/><use x="192" y="80" width="100%" height="100%" xlink:href="#a"/><use x="192" y="96" width="100%" height="100%" xlink:href="#a"/><use x="192" y="160" width="100%" height="100%" xlink:href="#a"/><use x="192" y="168" width="100%" height="100%" xlink:href="#a"/><use x="192" y="176" width="100%" height="100%" xlink:href="#a"/><use x="192" y="184" width="100%" height="100%" xlink:href="#a"/><use x="192" y="192" width="100%" height="100%" xlink:href="#a"/><use x="192" y="200" width="100%" height="100%" xlink:href="#a"/><use x="192" y="208" width="100%" height="100%" xlink:href="#a"/><use x="192" y="216" width="100%" height="100%" xlink:href="#a"/><use x="200" y="32" width="100%" height="100%" xlink:href="#a"/><use x="200" y="48" width="100%" height="100%" xlink:href="#a"/><use x="200" y="56" width="100%" height="100%" xlink:href="#a"/><use x="200" y="64" width="100%" height="100%" xlink:href="#a"/><use x="200" y="80" width="100%" height="100%" xlink:href="#a"/><use x="200" y="104" width="100%" height="100%" xlink:href="#a"/><use x="200" y="112" width="100%" height="100%" xlink:href="#a"/><use x="200" y="120" width="100%" height="100%" xlink:href="#a"/><use x="200" y="144" width="100%" height="100%" xlink:href="#a"/><use x="200" y="176" width="100%" height="100%" xlink:href="#a"/><use x="200" y="192" width="100%" height="100%" xlink:href="#a"/><use x="200" y="200" width="100%" height="100%" xlink:href="#a"/><use x="200" y="224" width="100%" height="100%" xlink:href="#a"/><use x="208" y="32" width="100%" height="100%" xlink:href="#a"/><use x="208" y="48" width="100%" height="100%" xlink:href="#a"/><use x="208" y="56" width="100%" height="100%" xlink:href="#a"/><use x="208" y="64" width="100%" height="100%" xlink:href="#a"/><use x="208" y="80" width="100%" height="100%" xlink:href="#a"/><use x="208" y="112" width="100%" height="100%" xlink:href="#a"/><use x="208" y="144" width="100%" height="100%" xlink:href="#a"/><use x="208" y="168" width="100%" height="100%" xlink:href="#a"/><use x="208" y="200" width="100%" height="100%" xlink:href="#a"/><use x="216" y="32" width="100%" height="100%" xlink:href="#a"/><use x="216" y="80" width="100%" height="100%" xlink:href="#a"/><use x="216" y="96" width="100%" height="100%" xlink:href="#a"/><use x="216" y="104" width="100%" height="100%" xlink:href="#a"/><use x="216" y="136" width="100%" height="100%" xlink:href="#a"/><use x="216" y="160" width="100%" height="100%" xlink:href="#a"/><use x="216" y="184" width="100%" height="100%" xlink:href="#a"/><use x="216" y="200" width="100%" height="100%" xlink:href="#a"/><use x="216" y="208" width="100%" height="100%" xlink:href="#a"/><use x="224" y="32" width="100%" height="100%" xlink:href="#a"/><use x="224" y="40" width="100%" height="100%" xlink:href="#a"/><use x="224" y="48" width="100%" height="100%" xlink:href="#a"/><use x="224" y="56" width="100%" height="100%" xlink:href="#a"/><use x="224" y="64" width="100%" height="100%" xlink:href="#a"/><use x="224" y="72" width="100%" height="100%" xlink:href="#a"/><use x="224" y="80" width="100%" height="100%" xlink:href="#a"/><use x="224" y="96" width="100%" height="100%" xlink:href="#a"/><use x="224" y="104" width="100%" height="100%" xlink:href="#a"/><use x="224" y="112" width="100%" height="100%" xlink:href="#a"/><use x="224" y="128" width="100%" height="100%" xlink:href="#a"/><use x="224" y="136" width="100%" height="100%" xlink:href="#a"/><use x="224" y="144" width="100%" height="100%" xlink:href="#a"/><use x="224" y="168" width="100%" height="100%" xlink:href="#a"/><use x="224" y="176" width="100%" height="100%" xlink:href="#a"/><use x="224" y="184" width="100%" height="100%" xlink:href="#a"/><use x="224" y="192" width="100%" height="100%" xlink:href="#a"/><use x="224" y="208" width="100%" height="100%" xlink:href="#a"/><use x="224" y="224" width="100%" height="100%" xlink:href="#a"/></g><path d="M199.93 278.58H12.59v-119.8h374.75v119.8z" fill="#ccebff" fill-rule="evenodd"/><path d="M31.194 108.21h-1.3l-.233-2.48h-.053a4.995 4.995 0 0 1-1.193 1.255 6.503 6.503 0 0 1-1.555.852 8.847 8.847 0 0 1-1.82.49c-.648.112-1.316.17-2.002.17-1.491 0-2.801-.19-3.93-.575-1.123-.388-2.054-.91-2.8-1.565a6.531 6.531 0 0 1-1.672-2.279 6.7 6.7 0 0 1-.554-2.683c0-.929.184-1.82.554-2.673a6.466 6.466 0 0 1 1.672-2.268c.746-.66 1.676-1.181 2.8-1.565 1.13-.388 2.44-.586 3.93-.586.993 0 1.93.096 2.81.288.887.186 1.683.468 2.386.852.703.383 1.288.86 1.757 1.426a4.733 4.733 0 0 1 .969 1.95h-1.81c-.05-.389-.232-.783-.543-1.183-.314-.404-.732-.77-1.257-1.096-.52-.333-1.145-.602-1.874-.81-.724-.213-1.539-.319-2.438-.319-1.257 0-2.34.17-3.248.511-.903.341-1.64.796-2.215 1.363a5.472 5.472 0 0 0-1.278 1.927 6.127 6.127 0 0 0-.404 2.183c0 .753.133 1.489.404 2.204a5.456 5.456 0 0 0 1.279 1.917c.575.562 1.312 1.017 2.214 1.363.908.34 1.992.511 3.248.511 1.044 0 1.975-.122 2.801-.373.822-.247 1.517-.59 2.087-1.033a4.34 4.34 0 0 0 1.278-1.586c.282-.61.417-1.28.404-2.013h-6.465v-1.097h8.05zM34.17 98.36h1.543v1.661h.075c.439-.596 1.022-1.067 1.746-1.416.729-.354 1.645-.532 2.748-.532.9 0 1.716.16 2.448.48.738.319 1.23.803 1.48 1.447.41-.644 1.014-1.128 1.81-1.448a6.773 6.773 0 0 1 2.556-.479c3.024 0 4.536 1.155 4.536 3.46v6.677h-1.671v-6.623c0-.815-.243-1.438-.725-1.863-.477-.426-1.315-.64-2.513-.64-.732 0-1.336.102-1.81.299-.476.2-.857.465-1.14.798a2.887 2.887 0 0 0-.606 1.129 5.111 5.111 0 0 0-.17 1.33v5.57h-1.672v-6.676c0-.333-.051-.65-.15-.948a1.836 1.836 0 0 0-.478-.777c-.221-.227-.52-.405-.895-.533-.37-.128-.82-.192-1.352-.192-.724 0-1.347.094-1.864.278-.511.186-.931.441-1.256.766a3.128 3.128 0 0 0-.735 1.16 4.222 4.222 0 0 0-.234 1.428v5.494H34.17zM66.918 103.29a4.736 4.736 0 0 0-.255-1.522 3.704 3.704 0 0 0-.799-1.342c-.362-.396-.828-.719-1.395-.969-.57-.247-1.251-.373-2.044-.373-.889 0-1.637.126-2.246.373-.613.25-1.109.573-1.492.97a3.504 3.504 0 0 0-.83 1.341 4.818 4.818 0 0 0 0 3.035c.17.505.447.955.83 1.352.384.392.88.71 1.492.958.609.25 1.357.373 2.246.373.793 0 1.474-.123 2.044-.373.567-.248 1.033-.566 1.395-.958a3.77 3.77 0 0 0 .799-1.352c.17-.503.255-1.007.255-1.513zM55.94 94.591h1.672v5.643h.053a2.753 2.753 0 0 1 .757-.925 4.46 4.46 0 0 1 1.128-.672 6.547 6.547 0 0 1 1.363-.415 7.645 7.645 0 0 1 1.512-.149c1.044 0 1.949.143 2.715.426.772.277 1.416.658 1.928 1.14.516.476.9 1.03 1.15 1.66a5.35 5.35 0 0 1 .372 1.991 5.4 5.4 0 0 1-.373 1.992 4.45 4.45 0 0 1-1.15 1.661c-.51.476-1.155.857-1.927 1.139-.766.277-1.671.416-2.715.416-1.115 0-2.114-.192-2.992-.576-.881-.383-1.512-.91-1.896-1.586h-.052v1.874H55.94zM71.407 94.591h1.8v5.91h11.276v-5.91h1.799v13.619h-1.8v-6.602H73.207v6.602h-1.799zM101.81 101.416c-.463.179-.924.379-1.384.597a6.856 6.856 0 0 0-1.256.745 3.775 3.775 0 0 0-.895.927 1.916 1.916 0 0 0-.341 1.107c0 .413.112.783.34 1.107.227.32.534.602.917.842a4.584 4.584 0 0 0 1.32.553 6.112 6.112 0 0 0 1.534.192c.958 0 1.812-.186 2.565-.565a7.041 7.041 0 0 0 1.928-1.383zm5.772 5.016a8.1 8.1 0 0 1-2.482 1.501c-.952.375-1.988.565-3.11.565a9.607 9.607 0 0 1-2.266-.256c-.702-.162-1.31-.405-1.821-.724a3.826 3.826 0 0 1-1.215-1.203c-.293-.481-.437-1.027-.437-1.64 0-.482.142-.926.426-1.33.282-.405.653-.77 1.108-1.097.452-.333.952-.634 1.501-.905.545-.27 1.086-.503 1.619-.703l-.81-.735a6.578 6.578 0 0 1-.745-.777 4.997 4.997 0 0 1-.565-.842 2.019 2.019 0 0 1-.223-.936 2 2 0 0 1 .33-1.13c.226-.34.527-.63.905-.872a4.632 4.632 0 0 1 1.331-.554 6.39 6.39 0 0 1 1.64-.202 6.351 6.351 0 0 1 1.628.202 4.49 4.49 0 0 1 1.332.554 2.903 2.903 0 0 1 .905.873 2.024 2.024 0 0 1 .33 1.129c0 .42-.106.804-.319 1.15-.213.34-.495.654-.842.937-.34.276-.734.532-1.181.766-.443.235-.9.464-1.374.682l4.142 3.588c.234-.333.386-.665.458-1.001.07-.341.107-.769.107-1.288h1.671c0 .378-.08.87-.234 1.48-.15.604-.444 1.198-.884 1.779l3.196 2.767h-2.109zm-4.814-10.84c-.69 0-1.283.154-1.778.458-.498.298-.745.732-.745 1.3 0 .241.07.486.213.734a4.293 4.293 0 0 0 .532.735c.213.234.44.463.681.681.248.22.48.42.693.596.34-.149.681-.311 1.022-.49a5.874 5.874 0 0 0 .948-.596 3.245 3.245 0 0 0 .692-.746 1.676 1.676 0 0 0 .266-.915c0-.567-.25-1-.746-1.3-.497-.303-1.09-.457-1.778-.457zM134.341 98.712a3.864 3.864 0 0 0-.788-1.406 4.659 4.659 0 0 0-1.33-1.033 6.717 6.717 0 0 0-1.726-.638 8.62 8.62 0 0 0-1.98-.224c-1.257 0-2.34.17-3.248.511-.903.341-1.64.796-2.215 1.363a5.472 5.472 0 0 0-1.278 1.927 6.127 6.127 0 0 0-.404 2.183c0 .753.133 1.489.404 2.204a5.456 5.456 0 0 0 1.279 1.917c.575.562 1.312 1.017 2.214 1.363.908.34 1.992.511 3.248.511.866 0 1.656-.112 2.375-.34.716-.235 1.33-.546 1.842-.938a5.031 5.031 0 0 0 1.256-1.384c.32-.524.525-1.091.618-1.703h1.8a5.743 5.743 0 0 1-.82 2.268 6.02 6.02 0 0 1-1.65 1.724c-.677.477-1.47.841-2.386 1.098-.91.254-1.922.383-3.035.383-1.49 0-2.8-.192-3.93-.576-1.122-.388-2.054-.91-2.8-1.565a6.525 6.525 0 0 1-1.672-2.279 6.7 6.7 0 0 1-.554-2.683c0-.929.184-1.82.554-2.673a6.466 6.466 0 0 1 1.672-2.268c.746-.66 1.676-1.181 2.8-1.565 1.13-.388 2.44-.586 3.93-.586.9 0 1.78.096 2.64.288.858.186 1.64.466 2.343.841a6.09 6.09 0 0 1 1.757 1.384 3.864 3.864 0 0 1 .884 1.896zM144.52 98.073c1.043 0 1.965.143 2.768.426.81.277 1.486.654 2.034 1.128a4.618 4.618 0 0 1 1.256 1.662c.282.634.426 1.299.426 2.001 0 .711-.143 1.382-.426 2.013a4.746 4.746 0 0 1-1.256 1.65c-.548.47-1.224.847-2.034 1.13-.804.276-1.725.415-2.768.415s-1.97-.139-2.78-.416c-.809-.282-1.487-.66-2.033-1.129a4.747 4.747 0 0 1-1.246-1.65 4.833 4.833 0 0 1-.426-2.013c0-.702.141-1.368.426-2.001a4.618 4.618 0 0 1 1.246-1.662c.546-.473 1.224-.851 2.034-1.128.809-.282 1.735-.426 2.779-.426zm0 1.011c-.796 0-1.497.126-2.098.373-.604.243-1.104.562-1.502.958a3.946 3.946 0 0 0-.905 1.343 3.944 3.944 0 0 0-.308 1.533c0 .519.101 1.03.308 1.533a4.014 4.014 0 0 0 .906 1.352c.397.392.897.709 1.501.948.601.242 1.302.362 2.098.362.793 0 1.493-.12 2.098-.362.601-.24 1.102-.556 1.5-.948a4.094 4.094 0 0 0 .906-1.352 4.042 4.042 0 0 0 .309-1.534c0-.524-.104-1.035-.31-1.533a4.023 4.023 0 0 0-.904-1.342c-.4-.396-.9-.715-1.501-.958-.605-.247-1.305-.373-2.098-.373zM154.317 108.21v-2.023h2.236v2.023zM160.917 94.591h1.8v7.326l11.03-7.326h2.45l-8.476 5.623 8.87 7.996h-2.332l-7.901-7.102-3.642 2.428v4.674h-1.799zM194.173 108.21h-1.3l-.233-2.48h-.053a4.995 4.995 0 0 1-1.193 1.255 6.503 6.503 0 0 1-1.555.852 8.847 8.847 0 0 1-1.82.49c-.648.112-1.316.17-2.002.17-1.491 0-2.801-.19-3.93-.575-1.123-.388-2.054-.91-2.8-1.565a6.531 6.531 0 0 1-1.672-2.279 6.7 6.7 0 0 1-.554-2.683c0-.929.184-1.82.554-2.673a6.466 6.466 0 0 1 1.672-2.268c.746-.66 1.676-1.181 2.8-1.565 1.13-.388 2.44-.586 3.93-.586.993 0 1.93.096 2.81.288.887.186 1.683.468 2.386.852.703.383 1.288.86 1.757 1.426a4.733 4.733 0 0 1 .969 1.95h-1.81c-.05-.389-.232-.783-.543-1.183-.314-.404-.732-.77-1.257-1.096-.52-.333-1.145-.602-1.874-.81-.724-.213-1.539-.319-2.438-.319-1.257 0-2.34.17-3.248.511-.903.341-1.64.796-2.215 1.363a5.472 5.472 0 0 0-1.278 1.927 6.127 6.127 0 0 0-.404 2.183c0 .753.133 1.489.404 2.204a5.456 5.456 0 0 0 1.279 1.917c.575.562 1.312 1.017 2.214 1.363.908.34 1.992.511 3.248.511 1.044 0 1.975-.122 2.801-.373.822-.247 1.517-.59 2.087-1.033a4.34 4.34 0 0 0 1.278-1.586c.282-.61.417-1.28.404-2.013h-6.465v-1.097h8.05z"/><g fill-rule="evenodd"><g stroke-width="1.333"><path d="M12.593 24.525v66.649h49.609v-9.977H25.223V24.522z" fill="#3d7eda"/><path d="M70.113 24.535v55.872l22.892-21.104 23.813 31.828h15.867l-31.064-39.967 29.049-26.629h-15.744L82.71 54.874V24.522z" fill="#3c7dd9"/><path d="M194.42 34.617V24.524h-52.031v66.632h52.749V80.945h-40V61.648h36.173v-9.593H155.2V34.648z" fill="#3c7cd9"/></g><path d="M215.8 171.05l2.994 2.994-2.746 2.746-2.747-2.746zm0 15.248l2.994 2.994-2.746 2.749-2.747-2.748zm0 15.288l2.994 2.994-2.746 2.746-2.747-2.746zm0 15.171l2.994 2.994-2.746 2.746-2.747-2.746zm0 15.302l2.994 2.994-2.746 2.746-2.747-2.746z" fill="#1464d4"/></g><g letter-spacing="0" word-spacing="0"><text x="17.945" y="173.316" font-family="'Trebuchet MS'" font-size="12" style="line-height:14.33333302px"><tspan x="17.945" y="173.316" style="line-height:14.33333302px">Am Bühl 1</tspan><tspan x="17.945" y="188.673" style="line-height:14.33333302px">86845 Großaitingen</tspan><tspan x="17.945" y="204.03" style="line-height:14.33333302px">Telefon +49(8203)90099</tspan></text><text x="17.876" y="240.508" font-family="'Trebuchet MS'" font-size="12" style="line-height:14.33333302px"><tspan x="17.876" y="240.508" style="line-height:14.33333302px">Beraten und Planen</tspan><tspan x="17.876" y="255.865" style="line-height:14.33333302px">Projektieren und Software</tspan><tspan x="17.876" y="271.222" style="line-height:14.33333302px">Service und Wartung</tspan></text><text x="212.064" y="266.902" fill="#3c7cd9" font-family="Arial" font-size="16" style="line-height:25px"><tspan x="212.064" y="266.902" font-size="22.667" font-weight="bold">LKElektro.de</tspan></text></g><g letter-spacing="0" word-spacing="0"><text x="222.808" y="177.803" font-family="'Trebuchet MS'" font-size="12" style="line-height:14.33333302px"><tspan x="222.808" y="177.803" style="line-height:14.33333302px">Elektrokonstruktionen</tspan><tspan x="222.808" y="193.16" style="line-height:14.33333302px">Maschinensicherheit</tspan><tspan x="222.808" y="208.517" style="line-height:14.33333302px">Prozessautomatisierung</tspan><tspan x="222.808" y="223.874" style="line-height:14.33333302px">Steuerungstechnik</tspan><tspan x="222.808" y="239.231" style="line-height:14.33333302px">Antriebstechnik</tspan></text><text x="11.746" y="149.169" font-family="Arial" font-size="16" style="line-height:25px"><tspan x="11.746" y="149.169" dx="0" font-family="Verdana" font-size="21.333" letter-spacing=".44" style="line-height:26.33333397px">electrical engineering consultants</tspan></text><text x="318.945" y="103.41" font-family="Arial" font-size="16" style="line-height:25px"><tspan x="318.945" y="103.41" font-family="Verdana" style="line-height:26.33333397px">scan me</tspan></text></g></svg>