<svg xmlns="http://www.w3.org/2000/svg" id="svg2" width="400" height="300" viewBox="0 0 400 300"><defs id="defs64"><linearGradient gradientTransform="matrix(1.17316 0 0 -1.17316 4.925 1181.202)" y2="203.502" x2="253.515" y1="203.502" x1="4.298" gradientUnits="userSpaceOnUse" id="rect4513_1_"><stop id="stop45" offset="0" stop-color="#015aa4"/><stop id="stop47" offset="1" stop-color="#00336b"/></linearGradient></defs><style id="style2">.st0{font-family:&apos;Arial-BoldMT&apos;}.st1{font-size:8.7831px}.st2{fill:#fff}.st3{fill:#f36f21}.st4{fill:#174593}.st5{font-family:&apos;Tahoma-Bold&apos;}.st6{font-size:20.9703px}.st7{font-size:12.1628px}.st8{stroke:#000;stroke-width:.498}.st9{fill:url(#rect4513_1_)}.st10{font-family:&apos;Tahoma&apos;}.st11{font-size:13.3163px}.st12{fill:none;stroke:#fff;stroke-width:.375}.st13{fill:#ea6a0a}.st14{font-size:12.183px}</style><g id="layer1" transform="translate(0 -771.112)"><text class="st0 st1" id="text5" x="14.716" y="989.389" font-size="8.557" font-family="Arial-BoldMT" stroke-width=".974"><tspan id="tspan4549" font-size="10.393">Wir sind in der Region für sie da:</tspan></text><text class="st0 st1" id="text7" x="29.567" y="1007.596" font-size="8.557" font-family="Arial-BoldMT" stroke-width=".974"><tspan id="tspan4551" font-size="10.393">Persönliches Engagement, das Sie in den Mittelpunkt stellt</tspan></text><text class="st0 st1" id="text9" x="29.567" y="1025.828" font-size="8.557" font-family="Arial-BoldMT" stroke-width=".974"><tspan id="tspan4553" font-size="10.393">Einzigartige Kundennähe durch regionale Verbundenheit</tspan></text><text class="st0 st1" id="text11" x="29.563" y="1044.086" font-size="8.557" font-family="Arial-BoldMT" stroke-width=".974"><tspan id="tspan4555" font-size="10.393">Bankgeschäfte, Immobilien und Versicherungen aus einer Hand</tspan></text><g id="g918" transform="matrix(.57464 0 0 .57464 69.708 839.293)"><path id="path4145" class="st2" d="M158.1 113.5V11.9H8.1v101.6z" fill="#fff"/><path id="path4147" class="st3" d="M158.1 113.5V95.7h-57.2c-1.5 8.2-2.9 15.1-3.4 17.8z" fill="#f36f21"/><path id="path4149" class="st3" d="M8.1 95.7v17.8h60.1l-4-17.8z" fill="#f36f21"/><path id="path4151" class="st4" d="M37.7 53.4L33.3 35h37.3l12.1 52.9h.5L90.8 54c3.9-15.4 5.3-19 26.9-19h15.6s-3.2 14.2-7.1 29.6c-1.5 5.9-14.5 5.2-13.8-.3.1-.6.7-4.7 1.2-7.6.7-4.2-4.2-4.8-5.1-.6-.6 3-3.5 17.8-6.1 31.8h55.7v-76H8.1v75.9h54.4l-7.7-34.4z" fill="#174593"/><text transform="translate(166.147 41.848) scale(1.6955)" class="st4 st5 st6" id="text17" font-size="20.97" font-family="Tahoma-Bold" fill="#174593">Raiffeisenbank</text><text transform="translate(166.147 86.648) scale(1.6955)" class="st4 st5 st6" id="text19" font-size="20.97" font-family="Tahoma-Bold" fill="#174593">Stauden eG</text><text transform="translate(166.822 113.452) scale(1.6955)" class="st3 st5 st7" id="text21" font-size="12.163" font-family="Tahoma-Bold" fill="#f36f21">www.rb-stauden.de</text></g><g id="text4507" transform="matrix(.9743 0 0 .9743 5.097 17.139)"><path id="path4553" class="st8" d="M100.5 806.1c.5-.6 2-2.5 2.7-2.5 2.4 0-1.4 2.8-5 11-1.4 3.1-2.1 5.5-2.1 7.1 0 .7.1 1.2-.5 1.2-3.1 0 1.9-9.9 3.3-12.7-5.4 6.6-10.4 15.4-12.7 12.2-2.9-4.2 8.9-20.9 10.3-19 .7.7 0 1-3.1 4.6-5.8 6.9-8 16.4-4 12.1 1.4-1.5 11-13.9 11.1-14z" stroke="#000" stroke-width=".498"/><path id="path4555" class="st8" d="M104.6 813.5c.5 0 .7.5.5 1 0 0-.9 1.4-1.4 2.1 1.6-1.3 5-4.7 5-2.7 0 1-4.7 5.1-2.8 8.3.7 1-.7 1.6-1.4.4-1-1.8-.1-4.3 1.1-6.2-1.6 1.1-2.2 1.9-3.7 4.5-.8 1.5-1.9.6-1.5-.4.3-.8 3.3-7 4.2-7z" stroke="#000" stroke-width=".498"/><path id="path4557" class="st8" d="M115.1 815.3c.7-.2 1.3-.2 1.8-.7 1.3-1.1-.4-2.1-2.3-.5-3.2 2.6 2.8 4.7-.1 7.4-2.2 2.1-5.9-.5-4.2-3.6.6-1 1.3-.8 1.3-.4-.4 1-.8 2.1 0 3 1 1.1 2.8.2 2.1-1.4-.4-1-3.2-3.5-.1-5.9 1.7-1.3 5.1-1.8 5.1.1 0 2.5-4.2 4-4.2 2.6.1-.3.3-.5.6-.6z" stroke="#000" stroke-width=".498"/><path id="path4559" class="st8" d="M120.5 818.9c0 2.1 2.6 2 5.6-1.4.8-1 2.1-.5-.3 1.8-2.1 2.1-4.8 3.2-6.2 1.8-2.2-2.2 2.2-8.3 4.9-8.3 2.5 0 .6 4.8-4 6.1zm.4-1.1c.9-.3 1.6-.8 2.3-1.4 2.8-2.8-.5-3.2-2.3 1.4z" stroke="#000" stroke-width=".498"/><path id="path4561" class="st8" d="M133.3 814.4c-.7.9-1.2 1.5-1.7 2.5.6-.6 4.3-4.2 5.2-4.2.1 0 .4.2.4.3l.1.3c0 .2-.2.4-.5.7-.9.7-2.2 2.1-1.1 2.1s2.9-2 2.9-.8c0 .3-.4.7-1.2 1.4-2.3 1.7-4.4.9-3.3-.9-2.7 2-3.8 4.3-4.5 5.8-.5 1-1.4.8-1.4.2 0-1.1 1.9-5.4 3-7 .7-1.1 1.3-1.7 1.8-1.7.7.1 1 .4.3 1.3z" stroke="#000" stroke-width=".498"/><path id="path4563" class="st8" d="M159.3 813.4l.3-.7c-2.3.5-3.6.9-6.2 1.9-1.1 2.3-2.5 5.3-2.9 7.8-.2 1.4-1.5.8-1.5-.2 0-1.3 1.9-5.7 2.4-7-.9.4-1.7.8-1.7-.2 0-.9 1.1-1.1 2.6-1.7 3.6-6.1 6-11.2 6-11.2.4-.5 1.3-.5 1.3.4 0 1.9-4.5 8.6-5.1 10.1 1-.3 3.3-1 6.1-1.7l.3-.5c1.3-2.5 3.4-5.6 4.3-7.2.4-.8.9-.8 1.2-.4 1 1.1-1.8 3.6-3.9 7.7.7 0 1.8-.1 1.8.5 0 .5-.4 1-1 1-.5 0-.3 0-1.6.1-3.1 5.5-3.7 8.3-4 9.7-.4 1.7-1.7.7-1.7-.3.1-1.3 2.6-6.6 3.3-8.1z" stroke="#000" stroke-width=".498"/><path id="path4565" class="st8" d="M165 818.9c0 2.1 2.6 2 5.6-1.4.3-.3.5-.5.7-.5 2 0-4.5 6.7-7.2 4.1-2.3-2.3 2.3-8.3 4.9-8.3 2.5 0 .5 4.8-4 6.1zm.3-1.1c2.8-1 4-3.5 3.1-3.5-1 0-2.5 2-3.1 3.5z" stroke="#000" stroke-width=".498"/><path id="path4567" class="st8" d="M177.8 814.4c-.7.9-1.2 1.5-1.7 2.5.6-.6 4.8-4.7 5.4-4 .1.1.2.1.2.2l.1.3c0 .5-2 1.8-2 2.5 0 .9 1.8-.2 2.5-.7.4-.3.8-.3.8.2 0 .3-.4.7-1.2 1.4-2.3 1.7-4.4.9-3.3-.9-1.7 1.3-3.1 2.9-4.1 5-.3.6-.6 1.5-1.2 1.5-1 0-.4-1.4.3-3.2 3.1-7.9 5.5-6.4 4.2-4.8z" stroke="#000" stroke-width=".498"/><path id="path4569" class="st8" d="M188 814.2c-1.8.2-3.6.5-3.6-.7 0-.4.3-.6.6-.6 3.6.6 5.4-1.1 5.4.5 0 .3-.3.7-.8 1.1-2.4 1.7-4.2 3.5-5.4 5.5 4.5-1.6 4.5 1.1 3.3 1.1-3.2-.7-3.5.7-4.6.7-2.9 0 2.8-5.8 5.1-7.6z" stroke="#000" stroke-width=".498"/><path id="path4571" class="st8" d="M205 815.3c.9-.2 2.2-.5 2.2-1.4 0-1.6-4.6.2-3.6 2.7.5 1 1.5 1.9 1.5 3.2 0 3.1-5.4 3.5-5.4-.2 0-.6.1-1.2.4-1.7.6-1 1.3-.8 1.3-.4-.3.8-.5.9-.5 1.8 0 2.5 4.4 2.1 2-1.1-3.7-5.4 5.7-7.7 5.7-4.8 0 2.5-4.2 4-4.2 2.6 0-.4.2-.6.6-.7z" stroke="#000" stroke-width=".498"/><path id="path4573" class="st8" d="M214.5 812.7c2.4 0 .4 4.2-.8 4.2-.3 0-.4-.2-.4-.5 0-.2 0-.3.4-.7 1-1 1.1-2.3-.4-1.1-1.8 1.4-4.4 6-2.1 6 1.3 0 3.2-2 4-3.1.3-.4.5-.5.7-.5 1.7 0-2.5 5-4.9 5-5.1 0 .2-9.3 3.5-9.3z" stroke="#000" stroke-width=".498"/><path id="path4575" class="st8" d="M221.8 815.7c3.8-4 5.9-3.1 4.3-.9-3.7 4.9-2.7 6.9.7 2.1.6-1 1.9-.9-.1 1.9-2.8 4.2-5.4 3-4-.4.4-1 1.3-2.4 1.8-3.4-2.1 1.1-4.2 4-5 6.5-.3 1-1.7.8-1-1.1 2.1-5.7 9-19.7 9-15.3 0 .5-1.1 2-1.4 2.5-1.1 2-3.4 5.9-4.3 8.1z" stroke="#000" stroke-width=".498"/><path id="path4577" class="st8" d="M231.5 816.8c-.5 1.3-1.3 3.2-.5 3.2.9 0 2-1.9 2.5-2.7.2-.3.4-.5.6-.5.7 0 .3.8 0 1.4-.7 1.3-2.3 3.5-3.8 3.5-4.3 0 7.2-21.2 10.1-18.1 1.4 1.6-2.6 7.8-8.9 13.2zm1.1-2.3c3.7-3.1 7.7-9.6 6.3-9.6-1.6.1-5.3 7.3-6.3 9.6z" stroke="#000" stroke-width=".498"/><path id="path4579" class="st8" d="M243 820.9c.4.2.7.3.7.8 0 1-1.4.8-2 .1-.6-.8-.5-1.5-.4-2.5-3.2 5.6-6.5 1.1-2.1-4.6 2.8-3.6 5.6-2.6 4.8-.4.4.6.2.9-.2 1.5-.7 1.2-2.2 4.5-.8 5.1zm.1-6.4c-1.4-2.7-5.4 4-4.5 5.5 1 1.2 2.8-2.6 3.3-3.7.3-.6.7-1.4 1.2-1.8zm.2-7.2c1 0 .7 1.2 0 2-1.3 1.6-2.7.4-1-1.4.4-.4.7-.6 1-.6zm3.1 0c1.5 0 0 2.7-1.2 2.7-1.5.1 0-2.7 1.2-2.7z" stroke="#000" stroke-width=".498"/><path id="path4581" class="st8" d="M249.6 819.6c-3 3.1-4.6 1.1-3.1-2.2 2.8-6.1 8.5-7.1 6.5-2.4.2.2.3.4.3.5-.5 1-1.2 1.5-2.7 4.9 1.6-1.2 2.9-2.6 3.9-4.3.6-1 1.9-.2-1 2.9-1.2 1.3-2.5 2.3-3.9 3.2-.8 1.8-2 4.5-3.3 6-2.2 2.6-4.4 1.8-4.4-.1 0-2.8 2.6-4.2 6.7-6.5.7-1.3.5-.6 1-2zm.9-2.5l-.2-.3c0-.1.1-.3.2-.3.9-.8 2.2-2.8 1.1-2.8-.6 0-1.9 1.3-2.3 1.8-3.5 4.4-1.6 6.4 1.2 1.6zm-2.7 6.3c-2.4 1-5.3 3.9-4.3 4.9 1.1 1.3 3.5-3.3 4.3-4.9z" stroke="#000" stroke-width=".498"/><path id="path4583" class="st8" d="M259.4 811.7c1.1-.1.6-.1 1.9-.4.3-.6 2.4-4 3.1-4 .4 0 .6.2.6.6 0 .5-1.3 2.2-1.6 2.6 1.7-.4 3.1-.8 3.1.2 0 .6-.4.6-1 .7-.5 0-2.7.7-3.2.9-4.8 7.7-2.9 10.8.6 4.8.4-.7 1-.5 1-.1 0 .5-1.1 2-1.4 2.4-3.1 4.1-5.7 2-4.3-2.2.4-1.2 1.4-3.3 2-4.4-1 .4-1.9-.3-1.2-1 .1 0 .2-.1.4-.1z" stroke="#000" stroke-width=".498"/><path id="path4585" class="st8" d="M278.1 815.7c.9-.9 3.8-3.6 4.6-2.6.5.5 0 1.1-.4 1.7-3.7 4.9-2.7 6.9.7 2.1.6-1 1.9-.9-.1 1.9-2.2 3.2-4.4 3.3-4.4 1.3 0-1.6 1.2-3.4 2.2-5.1-2.1 1.1-4.2 4-5 6.5-.3 1-1.7.8-1-1.1 1.8-4.9 3.9-8.9 6.3-13.2.8-1.3 1.8-3.6 2.5-2.6.4.5 0 1.1-.3 1.6-1.4 2.3-4.2 7.2-5.1 9.5z" stroke="#000" stroke-width=".498"/><path id="path4587" class="st8" d="M285.2 822.1c-2.3 0 3-9.2 4-9.2 1.4 0-.2 1.6-1.7 4.6-1.9 3.9-1.3 4.6-2.3 4.6zm6.8-14.5c.4 0 .7.2.7.7 0 1.4-2.4 3.1-2.4 1.4-.1-.8.9-2.1 1.7-2.1z" stroke="#000" stroke-width=".498"/><path id="path4589" class="st8" d="M292 818.9c0 2.2 2.6 2 5.6-1.4.8-1 2.1-.4-.3 1.8-2.1 2.1-4.8 3.2-6.2 1.8-2.2-2.2 2.2-8.3 4.9-8.3 2.5 0 .6 4.8-4 6.1zm.4-1.1c4.1-1.4 4.3-5.5 1.5-2.4-.7.7-1.2 1.5-1.5 2.4z" stroke="#000" stroke-width=".498"/><path id="path4591" class="st8" d="M304.8 814.4c-.7.9-1.2 1.5-1.7 2.5.6-.6 4.3-4.2 5.2-4.2.1 0 .4.2.4.3l.1.3c0 .2-.2.4-.5.7-.9.7-2.2 2.1-1.1 2.1s2.9-2 2.9-.8c0 .3-.4.7-1.2 1.4-2.3 1.7-4.4.9-3.3-.9-2.7 2.1-3.8 4.5-4.5 5.8-.5 1-1.4.8-1.4.2 0-1.1 1.9-5.4 3-7 1.9-2.6 3.2-1.7 2.1-.4z" stroke="#000" stroke-width=".498"/></g><path class="st9" id="rect4513" fill="url(#rect4513_1_)" stroke-width="1.035" d="M10 926.614h274.734v31.573H10z"/><text id="text51" class="st2 st10 st11" x="24.183" y="946.83" font-size="12.974" font-family="Tahoma" fill="#fff" stroke="#fff" stroke-width=".292">Jeder Mensch hat etwas, das ihn antreibt.</text><g id="g4551" transform="matrix(1.03517 0 0 1.03517 3.158 19.685)"><path id="rect4546" class="st13" fill="#ea6a0a" d="M215.2 910.9h158.5v19.3H215.2z"/><text transform="translate(228.702 924.438) scale(.9412)" class="st2 st10 st14" id="text57" font-size="12.183" font-family="Tahoma" fill="#fff" stroke="#fff" stroke-width=".3">Wir machen den Weg frei.</text></g></g></svg>