<svg xmlns="http://www.w3.org/2000/svg" width="400" height="300" viewBox="0 0 400 300"><defs><clipPath id="a"><path d="M0 .001h256.535v244.63H0z"/></clipPath></defs><g clip-path="url(#a)" transform="matrix(1.55924 0 0 -1.55924 0 294.9)"><path d="M99.32 81.436c8.268-32.504 15.635-70.86 15.635-70.86l48.071 12.401L127 161.84l-47.874-12.348s-2.52-20.36-16.097-44.715c-24.903 14.428-34.786 31.593-34.786 31.593l-48.089-12.406 36.03-138.863 47.888 12.35s-12.439 37.05-20.786 69.535c13.093-16.402 37.61-31.113 37.61-31.113s14.04 24.654 18.423 45.563M281.993 53.661c-15.482 35.528-34.103 55.343-36.255 58.83 5.88 6.191 9.718 13.55 11.234 22.022.94 5.75.668 11.74-.782 17.361-3.843 14.892-17.277 31.858-42.523 30.641-6.592-.282-12.368-1.51-21.352-3.828l-56.442-14.558-2.825-.728 35.828-138.916 46.805 12.072s-12.948 50.197-14.26 55.298c0 0 16.17-17.92 32.516-50.59z" fill="#ecebf7"/><path d="M206.658 126.621c-1.763-1.254-6.118-2.378-6.118-2.378s-.188-9.744-3.01-17.312l-8.67 33.621c3.434.886 4.336 1.117 4.336 1.117 3.682.951 8.711 2.248 11.865 1.01 2.086-.652 4.413-2.48 5.283-5.839 1.02-3.958-.382-7.87-3.686-10.219" fill="#fff"/></g><g fill="#2744a0" fill-rule="evenodd"><path d="M236.207 87.147h53.092v22.47h-53.092zM291.299 87.147h53.092v22.47h-53.092zM236.207 135.147h53.092v22.47h-53.092zM291.299 135.147h53.092v22.47h-53.092zM263.59 111.19h53.093v22.47H263.59zM208.499 111.19h53.092v22.47h-53.092zM318.683 111.19h53.092v22.47h-53.092z"/></g><path d="M0 300h400v-71.804H0zM400 78.26H0V0h400z" fill="#2744a0"/><path d="M134.805 35.64h1.974c2.5 0 3.413-1.439 3.413-4.21 0-2.806-1.063-4.213-3.87-4.213h-1.517zm0-12.29h1.706c1.782 0 3.148-1.214 3.148-3.492 0-2.54-.987-3.867-3.072-3.867h-1.782zm-4.704-11.228h6.978c5.048 0 7.286 2.578 7.286 7.243 0 2.356-.986 4.82-3.264 5.729 2.39 1.065 3.796 2.962 3.796 6.49 0 4.512-2.012 7.926-7.363 7.926H130.1zM153.319 29.343h3.793l-1.861-11.76h-.074zM151.8 39.511h-4.551l5.045-27.39h5.843l5.046 27.39h-4.555l-.833-6.07h-5.16zM165.91 12.122h4.707v20.674c0 2.008.797 2.998 2.503 2.998s2.504-.99 2.504-2.998V12.122h4.706v20.483c0 4.708-2.732 7.287-7.21 7.287-4.477 0-7.21-2.58-7.21-7.287zM184.88 12.122h4.703v20.674c0 2.008.799 2.998 2.506 2.998 1.707 0 2.504-.99 2.504-2.998V12.122h4.703v20.483c0 4.708-2.732 7.287-7.207 7.287-4.477 0-7.208-2.58-7.208-7.287zM203.85 39.511v-27.39h4.365l5.724 15.67h.078V12.12h4.248v27.39h-4.095l-5.992-17.11h-.08v17.11zM225.551 16.22H221v-4.098h13.807v4.097h-4.549v23.292h-4.707zM237.579 39.511v-27.39h12.59v4.098h-7.89v7.056h6.073v4.1h-6.072v8.039h8.418v4.097zM259.126 24.411h1.664c2.546 0 3.493-.946 3.493-4.21 0-3.263-.947-4.21-3.493-4.21h-1.664zm0 15.1h-4.708v-27.39h6.6c5.276 0 7.972 2.236 7.972 8.08 0 4.402-1.709 6.184-3.3 6.906l3.98 12.404h-4.777l-3.343-11.342c-.602.075-1.59.114-2.424.114zM273.386 39.511v-27.39h4.368l5.725 15.67h.078V12.12h4.245v27.39h-4.095l-5.997-17.11h-.073v17.11zM292.356 39.511v-27.39h12.594v4.098h-7.893v7.056h6.075v4.1h-6.075v8.039h8.42v4.097zM309.199 39.511v-27.39h4.707v11.154h5.007V12.122h4.7v27.39h-4.7V27.373h-5.007v12.137zM347.024 12.122v27.39h-4.1V18.116h-.074l-4.249 21.394h-2.273l-4.254-21.394h-.073V39.51H327.9v-27.39h6.186l3.341 16.01h.07l3.345-16.01zM351.346 39.511v-27.39h12.592v4.098h-7.882v7.056h6.064v4.1h-6.064v8.039h8.417v4.097zM368.193 39.511v-27.39h4.36l5.73 15.67h.071V12.12h4.257v27.39h-4.1l-5.998-17.11h-.075v17.11z" fill="#f14d3e"/><path d="M143.672 46.662v19.412h-2.902V50.912h-.053l-3.012 15.162h-1.611l-3.013-15.162h-.054v15.162h-2.902V46.662h4.38l2.365 11.346h.055l2.367-11.346zM151.415 58.733c-2.74 1.56-3.414 2.556-3.414 3.817 0 .942.487 1.317 1.4 1.317.835 0 1.504-.619 2.014-1.342zm-6.21-2.877c.161-2.931 2.018-4.517 4.84-4.517 2.798 0 4.382 1.29 4.382 3.926v9.275c0 .458.108 1.047.189 1.534h-2.877c-.027-.406-.136-.783-.162-1.13-1.13.912-2.07 1.396-3.52 1.396-2.044 0-3.068-1.395-3.068-3.252 0-3.175 2.099-4.92 6.426-6.558v-.863c0-1.21-.482-1.853-1.478-1.853-1.37 0-1.669.809-1.719 2.042zM156.415 66.074V51.61h2.875v1.692h.053c.728-1.236 1.991-1.963 3.416-1.963h.62v3.147c-.54-.138-1.052-.297-1.934-.297-1.023 0-2.018.644-2.018 1.937v9.948zM170.503 56.555v-.375c0-1.669-.59-2.367-1.667-2.367-1.074 0-1.666.698-1.666 2.367v5.32c0 1.668.592 2.367 1.666 2.367 1.076 0 1.667-.699 1.667-2.367v-.914h3.013v.377c0 3.173-1.238 5.378-4.68 5.378-3.44 0-4.674-2.205-4.674-5.378v-4.247c0-3.173 1.233-5.378 4.674-5.378 3.389 0 4.625 2.125 4.68 5.217zM184.24 51.61v14.463h-2.85V64.62c-1.262 1.077-1.908 1.721-3.657 1.721-1.583 0-2.526-1.155-2.526-3.035V51.61h3.01v11.21c0 .727.431 1.047 1.075 1.047.647 0 1.237-.402 1.938-.912V51.61zM191.58 55.614c-.215-1.157-.751-1.801-1.721-1.801-.78 0-1.318.405-1.318 1.152 0 2.262 5.645 3.176 5.645 7.478 0 2.582-1.771 3.898-4.218 3.898-2.638 0-4.141-1.508-4.596-4.034l2.632-.726c.187 1.213.619 2.286 1.992 2.286.78 0 1.344-.454 1.344-1.262 0-2.5-5.647-3.441-5.647-7.395 0-2.284 1.773-3.872 4.032-3.872 2.365 0 3.951 1.588 4.406 3.848zM203.913 55.37h1.193c1.798 0 2.472-.67 2.472-2.982 0-2.31-.674-2.983-2.472-2.983h-1.193zm0 10.703h-3.332v-19.41h4.683c3.733 0 5.644 1.585 5.644 5.725 0 3.117-1.207 4.384-2.337 4.894l2.819 8.791h-3.388l-2.361-8.038c-.43.054-1.132.083-1.728.083zM212.846 51.61h3.012v14.463h-3.012zm0-4.948h3.012v2.743h-3.012zM223.923 56.933v-.753c0-1.668-.594-2.367-1.671-2.367-1.068 0-1.66.699-1.66 2.367v.753zm3.01 2.473h-6.342V61.5c0 1.668.593 2.367 1.66 2.367 1.078 0 1.672-.699 1.672-2.367v-.32h3.01c-.053 3.064-1.321 5.162-4.681 5.162-3.438 0-4.672-2.205-4.672-5.378v-4.248c0-3.173 1.234-5.377 4.672-5.377 3.441 0 4.68 2.204 4.68 5.377zM234.646 54.567c-.59-.43-1.129-.753-1.72-.753-.806 0-1.447.43-1.447 2.339v5.377c0 1.907.641 2.338 1.447 2.338.591 0 1.13-.322 1.72-.753zm.162 11.507v-1.506h-.054c-.995 1.261-1.722 1.773-3.226 1.773-1.88 0-3.063-1.396-3.063-4.034V55.37c0-2.63 1.182-4.032 3.063-4.032 1.316 0 1.938.538 3.118 1.506v-6.184h3.014v19.413zM245.698 56.933v-.753c0-1.668-.594-2.367-1.669-2.367-1.074 0-1.666.699-1.666 2.367v.753zm3.006 2.473h-6.341V61.5c0 1.668.592 2.367 1.666 2.367 1.075 0 1.669-.699 1.669-2.367v-.32h3.006c-.05 3.064-1.313 5.162-4.675 5.162-3.44 0-4.677-2.205-4.677-5.378v-4.248c0-3.173 1.236-5.377 4.677-5.377 3.442 0 4.675 2.204 4.675 5.377zM250.422 46.662h3.014v19.412h-3.014zM260.804 55.614c-.218-1.157-.75-1.801-1.724-1.801-.775 0-1.316.405-1.316 1.152 0 2.262 5.646 3.176 5.646 7.478 0 2.582-1.774 3.898-4.218 3.898-2.636 0-4.138-1.508-4.603-4.034l2.637-.726c.19 1.213.62 2.286 1.994 2.286.772 0 1.34-.454 1.34-1.262 0-2.5-5.645-3.441-5.645-7.395 0-2.284 1.776-3.872 4.036-3.872 2.36 0 3.95 1.588 4.404 3.848zM264.73 66.074V46.66h3.008v6.29c1.107-.965 1.75-1.612 3.493-1.612 1.593 0 2.532 1.157 2.532 3.039v11.696h-3.011V54.86c0-.725-.434-1.047-1.076-1.047-.647 0-1.238.403-1.938.916v11.344zM281.796 56.933v-.753c0-1.668-.59-2.367-1.665-2.367-1.076 0-1.67.699-1.67 2.367v.753zm3.014 2.473h-6.349V61.5c0 1.668.594 2.367 1.67 2.367 1.074 0 1.665-.699 1.665-2.367v-.32h3.014c-.051 3.064-1.322 5.162-4.679 5.162-3.443 0-4.678-2.205-4.678-5.378v-4.248c0-3.173 1.235-5.377 4.678-5.377 3.444 0 4.68 2.204 4.68 5.377zM286.537 51.61h3.005v14.463h-3.005zm0-4.948h3.005v2.743h-3.005zM297.418 66.074V54.86c0-.725-.459-1.047-1.047-1.047-.647 0-1.24.403-1.936.916v11.344h-3.016V51.61h2.85v1.45c1.267-1.074 1.915-1.721 3.34-1.721 1.504 0 1.987.538 2.63 1.721 1.454-1.4 2.263-1.721 3.364-1.721 1.88 0 2.82 1.157 2.82 3.039v11.696h-3.01V54.86c0-.725-.482-1.047-1.076-1.047-.644 0-1.235.403-1.904.916v11.344zM314.489 56.933v-.753c0-1.668-.593-2.367-1.664-2.367-1.076 0-1.67.699-1.67 2.367v.753zm3.009 2.473h-6.343V61.5c0 1.668.594 2.367 1.67 2.367 1.071 0 1.664-.699 1.664-2.367v-.32h3.009c-.054 3.064-1.314 5.162-4.673 5.162-3.444 0-4.678-2.205-4.678-5.378v-4.248c0-3.173 1.234-5.377 4.678-5.377 3.44 0 4.673 2.204 4.673 5.377zM319.197 66.074V51.61h2.875v1.692h.048c.729-1.236 1.993-1.963 3.414-1.963h.623v3.147c-.54-.138-1.047-.297-1.94-.297-1.018 0-2.012.644-2.012 1.937v9.948zM336.773 56.233h5.46v9.84h-1.615L340 64.622c-.993 1.182-1.799 1.72-3.357 1.72-2.636 0-4.465-1.881-4.465-4.971V51.367c0-2.743 1.615-4.974 4.896-4.974 3.327 0 4.999 2.418 4.999 5.323v1.237h-3.173c0-2.904-.591-3.658-1.91-3.658-.808 0-1.48.486-1.48 2.125v9.976c0 1.235.404 2.041 1.564 2.041 1.344 0 1.826-.753 1.826-2.688v-1.882h-2.126zM350.4 66.074V54.86c0-.725-.455-1.047-1.046-1.047-.644 0-1.238.403-1.937.916v11.344h-3.01V51.61h2.846v1.45c1.266-1.074 1.912-1.721 3.337-1.721 1.508 0 1.991.538 2.637 1.721 1.453-1.4 2.254-1.721 3.357-1.721 1.887 0 2.825 1.157 2.825 3.039v11.696h-3.012V54.86c0-.725-.484-1.047-1.075-1.047-.642 0-1.238.403-1.905.916v11.344zM364.305 63.115c.59.432 1.13.752 1.719.752.807 0 1.454-.43 1.454-2.338v-5.377c0-1.907-.647-2.34-1.454-2.34-.59 0-1.13.323-1.719.755zm-3.012 2.958V46.662h3.012v6.182c1.185-.968 1.801-1.506 3.116-1.506 1.878 0 3.068 1.402 3.068 4.032v6.937c0 2.637-1.19 4.034-3.068 4.034-1.508 0-2.23-.511-3.225-1.773h-.053v1.505zM372.34 66.074V46.66h3.333v7.906h3.553V46.66h3.33v19.413h-3.33v-8.606h-3.553v8.606zM56.982 38.726c-.043 12.678-.964 27.408-.964 27.408l18.762.003-.078-54.22H56.02s-2.847 7.209-10.111 14.843c-7.753-7.628-9.749-14.842-9.749-14.842H17.391l.076 54.22 18.692-.004s-1.055-14.73-1.047-27.408c3.244 7.24 10.829 14.935 10.829 14.935s7.465-7.695 11.04-14.935M113.498 41.182c2.732-1.709 4.837-4.038 6.189-7a16.084 16.084 0 0 0 1.353-6.426c0-5.81-3.318-13.285-12.669-15.226-2.44-.518-4.668-.613-8.178-.613H77.06v54.22h18.27V44.552s4.227 8.083 7.122 21.583h18.76c-2.316-14.463-7.259-23.476-7.714-24.954" fill="#fff"/><path d="M100.532 32.323c-.768.293-2.466.293-2.466.293s-.992 3.545-2.737 6.055V25.545h1.695c1.434 0 3.398 0 4.436.752.703.433 1.383 1.32 1.383 2.638 0 1.54-.884 2.84-2.31 3.388" fill="#f14d3e"/><path d="M258.738 97.18c.285.481.522.845.706 1.068.156.202.271.329.37.37.082.054.107.086.138.125.077.336.11.479.103.437l.577 2.48c.164.707.242 1.611.257 2.726a13.514 13.514 0 0 1-.393 3.036c-.248.998-.642 1.86-1.158 2.576-.512.711-1.152 1.168-1.926 1.346a1.11 1.11 0 0 1-.715-.057 3.687 3.687 0 0 1-.813-.466c-.307-.193-.54-.357-.77-.48a.76.76 0 0 0-.543-.073c-.408.424-.982.977-1.723 1.654-.7.688-1.163 1.04-1.398 1.09a3.35 3.35 0 0 1-.811-.38c-.307-.214-.543-.556-.647-1.016l-2.032-8.75c.363-.504.675-.856.931-1.074.187-.152.335-.276.437-.404.098.346.466 1.447 1.094 3.298.57 1.716.906 2.777.99 3.152l.382 1.627c.063.268.127.453.186.527.064.092.276.244.611.449.345-.892.69-1.566 1.024-2.013.376-.463.676-.774.964-.95.273-.154.766-.396 1.483-.716.416.67.943 1.32 1.592 1.932.268-.171.535-.54.756-1.097.237-.56.357-1.291.42-2.18.039-.845-.06-1.832-.32-2.98-.075-.29-.173-.532-.321-.714-.147-.253-.392-.527-.663-.858a8.193 8.193 0 0 1-.577-.701c-.118-.194-.195-.351-.226-.495-.103-.44-.05-.866.142-1.284.206-.424.543-.766 1.035-1.012z" fill="#fff"/><path d="M258.738 97.18c.285.481.522.845.706 1.068.156.202.271.329.37.37.082.054.107.086.138.125.077.336.11.479.103.437l.577 2.48c.164.707.242 1.611.257 2.726a13.514 13.514 0 0 1-.393 3.036c-.248.998-.642 1.86-1.158 2.576-.512.711-1.152 1.168-1.926 1.346a1.11 1.11 0 0 1-.715-.057 3.687 3.687 0 0 1-.813-.466c-.307-.193-.54-.357-.77-.48a.76.76 0 0 0-.543-.073c-.408.424-.982.977-1.723 1.654-.7.688-1.163 1.04-1.398 1.09a3.35 3.35 0 0 1-.811-.38c-.307-.214-.543-.556-.647-1.016l-2.032-8.75c.363-.504.675-.856.931-1.074.187-.152.335-.276.437-.404.098.346.466 1.447 1.094 3.298.57 1.716.906 2.777.99 3.152l.382 1.627c.063.268.127.453.186.527.064.092.276.244.611.449.345-.892.69-1.566 1.024-2.013.376-.463.676-.774.964-.95.273-.154.766-.396 1.483-.716.416.67.943 1.32 1.592 1.932.268-.171.535-.54.756-1.097.237-.56.357-1.291.42-2.18.039-.845-.06-1.832-.32-2.98-.075-.29-.173-.532-.321-.714-.147-.253-.392-.527-.663-.858a8.193 8.193 0 0 1-.577-.701c-.118-.194-.195-.351-.226-.495-.103-.44-.05-.866.142-1.284.206-.424.543-.766 1.035-1.012z" fill="none" stroke="#f14d3e" stroke-width=".49866541999999997"/><path d="M264.183 98.53c.234.317.414.628.545.905.114.215.225.498.315.803.155.67.276 1.08.298 1.185l1.333 5.748c.106.46.113.853.038 1.202-.07.365-.176.656-.342.89-.184.239-.374.374-.564.418-.101.022-.289-.11-.53-.405-.245-.294-.521-.738-.794-1.332-.29-.59-.52-1.305-.712-2.116l-.702-3.025c-.025-.123-.326-.756-.881-1.902-.535-1.17-.817-1.739-.814-1.721-.036-.144.125-.401.465-.744a8.722 8.722 0 0 1 1.401-1.138c.403.48.716.89.944 1.231" fill="#fff"/><path d="M264.183 98.53c.234.317.414.628.545.905.114.215.225.498.315.803.155.67.276 1.08.298 1.185l1.333 5.748c.106.46.113.853.038 1.202-.07.365-.176.656-.342.89-.184.239-.374.374-.564.418-.101.022-.289-.11-.53-.405-.245-.294-.521-.738-.794-1.332-.29-.59-.52-1.305-.712-2.116l-.702-3.025c-.025-.123-.326-.756-.881-1.902-.535-1.17-.817-1.739-.814-1.721-.036-.144.125-.401.465-.744a8.722 8.722 0 0 1 1.401-1.138c.403.48.716.89.944 1.231z" fill="none" stroke="#f14d3e" stroke-width=".49866541999999997"/><path d="M270.447 96.943c-.407.227-.857.658-1.367 1.305.157.008.379.2.658.55.305.37.583 1.115.854 2.263.363-.505.62-.916.725-1.245.184-.414.318-.8.392-1.146.076-.414.157-.826.21-1.238.075-.542.15-.888.184-1.049a8.603 8.603 0 0 0-1.656.56m3.225-2.964c.32.076.533.335.636.751.086.374.056.93-.1 1.669-.156.74-.35 1.51-.588 2.29-.241.758-.483 1.514-.715 2.208-.253.719-.364 1.093-.348 1.152.062.256.26.471.61.652.346.162 1.132.508 2.35 1.037a51.536 51.536 0 0 1 3.243 1.486c-.147.605-.334 1.02-.602 1.282-.272.258-.682.466-1.263.601a2.25 2.25 0 0 1-1.178-.034 14.407 14.407 0 0 1-1.364-.694c-.611-.363-1.105-.597-1.512-.726-.454-.156-.942-.197-1.499-.134.247 1.082.236 1.879-.033 2.312-.272.438-.686.731-1.25.864-.483-.462-.777-.875-.86-1.25-.052-.21-.044-.473.011-.797.075-.326.108-.55.142-.713.003-.176-.042-.45-.12-.806-.122-.52-.287-.942-.524-1.305a6.833 6.833 0 0 0-.88-.96 6.166 6.166 0 0 1-.844-.879c-.205-.304-.356-.686-.457-1.124-.218-.938-.016-1.883.581-2.88.608-.977 1.424-1.824 2.395-2.554.953-.726 1.839-1.175 2.646-1.363.69-.159 1.189-.185 1.522-.085" fill="#fff"/><path d="M270.447 96.943c-.407.227-.857.658-1.367 1.305.157.008.379.2.658.55.305.37.583 1.115.854 2.263.363-.505.62-.916.725-1.245.184-.414.318-.8.392-1.146.076-.414.157-.826.21-1.238.075-.542.15-.888.184-1.049a8.603 8.603 0 0 0-1.656.56zm3.225-2.964c.32.076.533.335.636.751.086.374.056.93-.1 1.669-.156.74-.35 1.51-.588 2.29-.241.758-.483 1.514-.715 2.208-.253.719-.364 1.093-.348 1.152.062.256.26.471.61.652.346.162 1.132.508 2.35 1.037a51.536 51.536 0 0 1 3.243 1.486c-.147.605-.334 1.02-.602 1.282-.272.258-.682.466-1.263.601a2.25 2.25 0 0 1-1.178-.034 14.407 14.407 0 0 1-1.364-.694c-.611-.363-1.105-.597-1.512-.726-.454-.156-.942-.197-1.499-.134.247 1.082.236 1.879-.033 2.312-.272.438-.686.731-1.25.864-.483-.462-.777-.875-.86-1.25-.052-.21-.044-.473.011-.797.075-.326.108-.55.142-.713.003-.176-.042-.45-.12-.806-.122-.52-.287-.942-.524-1.305a6.833 6.833 0 0 0-.88-.96 6.166 6.166 0 0 1-.844-.879c-.205-.304-.356-.686-.457-1.124-.218-.938-.016-1.883.581-2.88.608-.977 1.424-1.824 2.395-2.554.953-.726 1.839-1.175 2.646-1.363.69-.159 1.189-.185 1.522-.085z" fill="none" stroke="#f14d3e" stroke-width=".49866541999999997"/><path d="M248.92 125.183l.506 2.188c.354 1.503.574 2.637.663 3.405.129.94.135 1.706.034 2.32-.122.621-.357 1.119-.731 1.488l-.566.13-1.645-7.104a1.631 1.631 0 0 1 .118-1.104c.16-.346.426-.717.81-1.132zm3.008-4.933c.392.37.662.856.796 1.442.082.353.039 1.217-.122 2.614-.132 1.394-.195 2.175-.146 2.365.104.48.332.89.667 1.208.321.318.803.711 1.434 1.156.65.444 1.14.834 1.479 1.172.346.339.575.746.687 1.246.125.543.048 1.265-.266 2.17a7.786 7.786 0 0 1-1.318 2.46c-.594.753-1.233 1.208-1.921 1.365a6.906 6.906 0 0 1-.74-.088 11.78 11.78 0 0 1-1.315-.353 4.927 4.927 0 0 1-1.385-.778c.036-.472.189-.965.424-1.458.239-.496.5-.776.75-.834.212-.048.445.027.73.204.28.173.57.287.875.367.302.064.755.043 1.383-.1.915-.214 1.288-.697 1.121-1.425-.055-.228-.321-.521-.77-.834a1.177 1.177 0 0 1-.075-.047c-.003-.022-.022-.016-.036-.058a.828.828 0 0 0-.075-.048s-.023-.016-.053-.03c-.026-.017-.075-.028-.103-.064-.082-.073-.151-.1-.207-.15l-.13-.084a1.747 1.747 0 0 1-.268-.2c-.101-.06-.18-.113-.255-.158-.08-.052-.18-.114-.287-.197-.524-.36-.998-.8-1.45-1.33-.45-.514-.738-1.105-.905-1.791a39.77 39.77 0 0 0 .38-2.283c.125-.951.132-1.678.026-2.138l-.32-1.373c-.8.425-1.608.923-2.407 1.457-.791.559-1.435 1.103-1.937 1.683-.53.558-.717 1.063-.62 1.484.05.228.22.456.464.679.309.26.54.422.667.503.042.169-.014.402-.185.707-.187.347-.38.634-.61.885-.221.271-.387.42-.465.44-.275.064-.548.014-.846-.136a2.277 2.277 0 0 1-.8-.603c-.214-.26-.363-.529-.427-.8-.14-.602.014-1.346.49-2.244.473-.901 1.113-1.818 1.948-2.761.82-.916 1.666-1.725 2.54-2.39.838-.654 1.577-1.069 2.225-1.217.521-.121.962-.005 1.358.365" fill="#fff"/><path d="M248.92 125.183l.506 2.188c.354 1.503.574 2.637.663 3.405.129.94.135 1.706.034 2.32-.122.621-.357 1.119-.731 1.488l-.566.13-1.645-7.104a1.631 1.631 0 0 1 .118-1.104c.16-.346.426-.717.81-1.132zm3.008-4.933c.392.37.662.856.796 1.442.082.353.039 1.217-.122 2.614-.132 1.394-.195 2.175-.146 2.365.104.48.332.89.667 1.208.321.318.803.711 1.434 1.156.65.444 1.14.834 1.479 1.172.346.339.575.746.687 1.246.125.543.048 1.265-.266 2.17a7.786 7.786 0 0 1-1.318 2.46c-.594.753-1.233 1.208-1.921 1.365a6.906 6.906 0 0 1-.74-.088 11.78 11.78 0 0 1-1.315-.353 4.927 4.927 0 0 1-1.385-.778c.036-.472.189-.965.424-1.458.239-.496.5-.776.75-.834.212-.048.445.027.73.204.28.173.57.287.875.367.302.064.755.043 1.383-.1.915-.214 1.288-.697 1.121-1.425-.055-.228-.321-.521-.77-.834a1.177 1.177 0 0 1-.075-.047c-.003-.022-.022-.016-.036-.058a.828.828 0 0 0-.075-.048s-.023-.016-.053-.03c-.026-.017-.075-.028-.103-.064-.082-.073-.151-.1-.207-.15l-.13-.084a1.747 1.747 0 0 1-.268-.2c-.101-.06-.18-.113-.255-.158-.08-.052-.18-.114-.287-.197-.524-.36-.998-.8-1.45-1.33-.45-.514-.738-1.105-.905-1.791a39.77 39.77 0 0 0 .38-2.283c.125-.951.132-1.678.026-2.138l-.32-1.373c-.8.425-1.608.923-2.407 1.457-.791.559-1.435 1.103-1.937 1.683-.53.558-.717 1.063-.62 1.484.05.228.22.456.464.679.309.26.54.422.667.503.042.169-.014.402-.185.707-.187.347-.38.634-.61.885-.221.271-.387.42-.465.44-.275.064-.548.014-.846-.136a2.277 2.277 0 0 1-.8-.603c-.214-.26-.363-.529-.427-.8-.14-.602.014-1.346.49-2.244.473-.901 1.113-1.818 1.948-2.761.82-.916 1.666-1.725 2.54-2.39.838-.654 1.577-1.069 2.225-1.217.521-.121.962-.005 1.358.365z" fill="none" stroke="#f14d3e" stroke-width=".49866541999999997"/><path d="M260.522 126.05c.43.271.683.499.728.686.05.23.074.422.064.577-.005.246-.009.617-.022 1.127.008.04.018.06.018.06-.016.048-.01.07-.01.07.006.021-.006.068-.01.132 0 .09 0 .2.009.326-.014.137-.014.223-.023.293l1.65-.382-.192-.814c-.3-.257-.498-.455-.554-.594-.095-.136-.178-.377-.309-.764-.146-.36-.305-.655-.524-.909zm1.898-3.84a53.692 53.692 0 0 1 2.144 4.239c.64 1.434 1.11 2.509 1.41 3.228.453.732.773 1.273.986 1.617.1.152.19.33.293.505.064.071.094.13.138.21l.023.016.01.018a.833.833 0 0 0 .006.044c.607 1 .915 1.569.936 1.65.051.23.026.497-.108.772a9.827 9.827 0 0 1-.617 1.13c-1.201-.444-2.227-1.938-3.057-4.473l-1.08.255c-1.198.713-1.943 1.284-2.272 1.666-.346.41-.499.776-.476 1.077.004.306-.051.54-.188.702-.155.168-.67.42-1.561.756 0 0-.007-.128.008-.351-.014-.062-.017-.259-.017-.544-.003-.112.002-.178-.007-.218a.317.317 0 0 0-.01-.13c-.006-.789-.026-1.62-.037-2.54a84.293 84.293 0 0 1 .063-5.108c.043-1.615.212-3.08.486-4.44.237-1.239.627-1.925 1.128-2.04.396-.094 1.007.556 1.799 1.958" fill="#fff"/><path d="M260.522 126.05c.43.271.683.499.728.686.05.23.074.422.064.577-.005.246-.009.617-.022 1.127.008.04.018.06.018.06-.016.048-.01.07-.01.07.006.021-.006.068-.01.132 0 .09 0 .2.009.326-.014.137-.014.223-.023.293l1.65-.382-.192-.814c-.3-.257-.498-.455-.554-.594-.095-.136-.178-.377-.309-.764-.146-.36-.305-.655-.524-.909zm1.898-3.84a53.692 53.692 0 0 1 2.144 4.239c.64 1.434 1.11 2.509 1.41 3.228.453.732.773 1.273.986 1.617.1.152.19.33.293.505.064.071.094.13.138.21l.023.016.01.018a.833.833 0 0 0 .006.044c.607 1 .915 1.569.936 1.65.051.23.026.497-.108.772a9.827 9.827 0 0 1-.617 1.13c-1.201-.444-2.227-1.938-3.057-4.473l-1.08.255c-1.198.713-1.943 1.284-2.272 1.666-.346.41-.499.776-.476 1.077.004.306-.051.54-.188.702-.155.168-.67.42-1.561.756 0 0-.007-.128.008-.351-.014-.062-.017-.259-.017-.544-.003-.112.002-.178-.007-.218a.317.317 0 0 0-.01-.13c-.006-.789-.026-1.62-.037-2.54a84.293 84.293 0 0 1 .063-5.108c.043-1.615.212-3.08.486-4.44.237-1.239.627-1.925 1.128-2.04.396-.094 1.007.556 1.799 1.958z" fill="none" stroke="#f14d3e" stroke-width=".49866541999999997"/><path d="M277.124 121.23l.823 3.562c.122.52.149 1.196.067 1.982a9.683 9.683 0 0 1-.639 2.457c-.337.822-.851 1.556-1.484 2.208-.66.656-1.463 1.087-2.44 1.317-.688.16-1.37.072-2.065-.294a5.025 5.025 0 0 1-1.805-1.425c-.517-.624-.828-1.21-.961-1.776l-.505-2.185c-.257-1.105-.356-1.985-.264-2.641.08-.697.396-1.321.936-1.843l1.37-.32 1.017 4.378c.262 1.123.507 1.968.695 2.519.194.547.504.935.894 1.196.39.261.93.311 1.617.152.334-.078.672-.396.984-.954a8.472 8.472 0 0 0 .814-1.9c.205-.707.304-1.256.315-1.678l-.955-4.104c-.59-.365-.985-.649-1.164-.849-.15-.184-.262-.358-.304-.545.113-.178.315-.426.63-.783.293-.354.712-.713 1.242-1.077.523.623.923 1.496 1.182 2.603" fill="#fff"/><path d="M277.124 121.23l.823 3.562c.122.52.149 1.196.067 1.982a9.683 9.683 0 0 1-.639 2.457c-.337.822-.851 1.556-1.484 2.208-.66.656-1.463 1.087-2.44 1.317-.688.16-1.37.072-2.065-.294a5.025 5.025 0 0 1-1.805-1.425c-.517-.624-.828-1.21-.961-1.776l-.505-2.185c-.257-1.105-.356-1.985-.264-2.641.08-.697.396-1.321.936-1.843l1.37-.32 1.017 4.378c.262 1.123.507 1.968.695 2.519.194.547.504.935.894 1.196.39.261.93.311 1.617.152.334-.078.672-.396.984-.954a8.472 8.472 0 0 0 .814-1.9c.205-.707.304-1.256.315-1.678l-.955-4.104c-.59-.365-.985-.649-1.164-.849-.15-.184-.262-.358-.304-.545.113-.178.315-.426.63-.783.293-.354.712-.713 1.242-1.077.523.623.923 1.496 1.182 2.603z" fill="none" stroke="#f14d3e" stroke-width=".49866541999999997"/><path d="M286.376 114.47l.128.542c-.153.474-.312.84-.493 1.1-.18.263-.344.41-.499.51-.24.1-.42.166-.605.21l-.837.193c-1.336.31-2.222 2.252-2.673 5.798l.128.547c.415-.098.76-.223 1.015-.348.608-.316 1.125-.567 1.51-.789.669-.352 1.124-.569 1.37-.623l1.103-.26c-.035.977-.29 1.692-.73 2.166-.438.454-1.074.846-1.877 1.164-.786.294-1.34.575-1.658.804-.3.222-.38.635-.238 1.24.123.542.338.909.637 1.146.312.21.679.282 1.096.185.582-.137 1.36-.294 2.32-.516.401-.073.722-.106.967-.093.223.036.443.118.674.259-.353.545-.611.955-.817 1.22-.197.269-.452.501-.736.699-.246.172-.588.313-1.067.424l-1.911.448c-1.65.379-2.716-.535-3.226-2.723-.161-.689-.242-1.328-.27-1.911a8.387 8.387 0 0 1 .089-1.427c.07-.437.082-.77.037-.956l-.692-2.998c-.044-.169.076-.504.346-1.05.3-.528.688-1.122 1.215-1.771a10.69 10.69 0 0 1 1.982-1.782 7.44 7.44 0 0 1 2.608-1.154z" fill="#fff"/><path d="M286.376 114.47l.128.542c-.153.474-.312.84-.493 1.1-.18.263-.344.41-.499.51-.24.1-.42.166-.605.21l-.837.193c-1.336.31-2.222 2.252-2.673 5.798l.128.547c.415-.098.76-.223 1.015-.348.608-.316 1.125-.567 1.51-.789.669-.352 1.124-.569 1.37-.623l1.103-.26c-.035.977-.29 1.692-.73 2.166-.438.454-1.074.846-1.877 1.164-.786.294-1.34.575-1.658.804-.3.222-.38.635-.238 1.24.123.542.338.909.637 1.146.312.21.679.282 1.096.185.582-.137 1.36-.294 2.32-.516.401-.073.722-.106.967-.093.223.036.443.118.674.259-.353.545-.611.955-.817 1.22-.197.269-.452.501-.736.699-.246.172-.588.313-1.067.424l-1.911.448c-1.65.379-2.716-.535-3.226-2.723-.161-.689-.242-1.328-.27-1.911a8.387 8.387 0 0 1 .089-1.427c.07-.437.082-.77.037-.956l-.692-2.998c-.044-.169.076-.504.346-1.05.3-.528.688-1.122 1.215-1.771a10.69 10.69 0 0 1 1.982-1.782 7.44 7.44 0 0 1 2.608-1.154z" fill="none" stroke="#f14d3e" stroke-width=".49866541999999997"/><path d="M300.616 120.668c.262 1.13.438 2.075.524 2.824.084.748.03 1.442-.227 2.049-.236.603-.733 1.007-1.486 1.18-.496.117-1.017.062-1.577-.183a6.29 6.29 0 0 1-1.503-.9 37.55 37.55 0 0 1-1.816-1.493c-.72-.624-1.304-1.076-1.772-1.364-.25.695-.413 1.347-.458 1.992-.047.629-.162 1.093-.306 1.343-.15.279-.608.67-1.347 1.194l-.374-1.648c.056-1.243.05-2.228-.02-3.003-.061-.823-.111-1.422-.133-1.792-.012-.436.086-.764.312-1.013.134-.187.677-.685 1.582-1.51.811.448 1.463.91 1.964 1.363a28.964 28.964 0 0 1 1.682 1.744c.616.665 1.154 1.202 1.662 1.589.46.377 1.054.653 1.742.887l-1.84-7.937c-.08-.33-.044-.647.095-.9.159-.257.376-.483.624-.647.17-.106.536-.325 1.09-.605z" fill="#fff"/><path d="M300.616 120.668c.262 1.13.438 2.075.524 2.824.084.748.03 1.442-.227 2.049-.236.603-.733 1.007-1.486 1.18-.496.117-1.017.062-1.577-.183a6.29 6.29 0 0 1-1.503-.9 37.55 37.55 0 0 1-1.816-1.493c-.72-.624-1.304-1.076-1.772-1.364-.25.695-.413 1.347-.458 1.992-.047.629-.162 1.093-.306 1.343-.15.279-.608.67-1.347 1.194l-.374-1.648c.056-1.243.05-2.228-.02-3.003-.061-.823-.111-1.422-.133-1.792-.012-.436.086-.764.312-1.013.134-.187.677-.685 1.582-1.51.811.448 1.463.91 1.964 1.363a28.964 28.964 0 0 1 1.682 1.744c.616.665 1.154 1.202 1.662 1.589.46.377 1.054.653 1.742.887l-1.84-7.937c-.08-.33-.044-.647.095-.9.159-.257.376-.483.624-.647.17-.106.536-.325 1.09-.605z" fill="none" stroke="#f14d3e" stroke-width=".49866541999999997"/><path d="M312.775 109.768c.438.075.812.273 1.14.55.332.296.538.643.638 1.057.11.48.059.908-.144 1.284-.195.375-.533.807-.996 1.284l-.827.195c-.168-.71-.322-1.199-.456-1.476-.166-.334-.347-.534-.591-.654-.223-.098-.506-.098-.884-.012-.287.066-.548.194-.724.385a.7.7 0 0 0-.18.7c.093.418.403.811.964 1.139.59.37 1.44.83 2.548 1.34 1.117.556 2.004 1.052 2.682 1.529.632.449 1.009.953 1.138 1.495.172.75 0 1.517-.508 2.247-.515.734-1.205 1.353-2.046 1.88-.845.524-1.618.88-2.306 1.042-.728.167-1.484.034-2.226-.407a7.815 7.815 0 0 1-1.926-1.595c-.558-.596-.845-.985-.887-1.155-.025-.105.114-.354.397-.755.286-.39.496-.702.64-.934l.835-.195c.359.51.774.984 1.25 1.422.503.454 1.067.81 1.694 1.056.63.25 1.276.297 1.965.137l.836-.19-.386-1.65c-.363-.33-.95-.677-1.74-1.087-.874-.435-1.674-.862-2.45-1.258-.824-.44-1.526-.895-2.07-1.363-.543-.444-.884-.956-1.01-1.522.042-.274.188-.701.41-1.255.24-.563.69-1.172 1.35-1.85.655-.657 1.536-1.127 2.66-1.39a2.97 2.97 0 0 1 1.21.007" fill="#fff"/><path d="M312.775 109.768c.438.075.812.273 1.14.55.332.296.538.643.638 1.057.11.48.059.908-.144 1.284-.195.375-.533.807-.996 1.284l-.827.195c-.168-.71-.322-1.199-.456-1.476-.166-.334-.347-.534-.591-.654-.223-.098-.506-.098-.884-.012-.287.066-.548.194-.724.385a.7.7 0 0 0-.18.7c.093.418.403.811.964 1.139.59.37 1.44.83 2.548 1.34 1.117.556 2.004 1.052 2.682 1.529.632.449 1.009.953 1.138 1.495.172.75 0 1.517-.508 2.247-.515.734-1.205 1.353-2.046 1.88-.845.524-1.618.88-2.306 1.042-.728.167-1.484.034-2.226-.407a7.815 7.815 0 0 1-1.926-1.595c-.558-.596-.845-.985-.887-1.155-.025-.105.114-.354.397-.755.286-.39.496-.702.64-.934l.835-.195c.359.51.774.984 1.25 1.422.503.454 1.067.81 1.694 1.056.63.25 1.276.297 1.965.137l.836-.19-.386-1.65c-.363-.33-.95-.677-1.74-1.087-.874-.435-1.674-.862-2.45-1.258-.824-.44-1.526-.895-2.07-1.363-.543-.444-.884-.956-1.01-1.522.042-.274.188-.701.41-1.255.24-.563.69-1.172 1.35-1.85.655-.657 1.536-1.127 2.66-1.39a2.97 2.97 0 0 1 1.21.007z" fill="none" stroke="#f14d3e" stroke-width=".49866541999999997"/><path d="M319.492 110.536c.232.32.414.627.547.904.112.217.226.5.318.806.151.668.271 1.078.295 1.18l1.333 5.753c.107.46.11.851.037 1.199-.067.366-.174.655-.343.893-.184.237-.37.371-.56.41-.104.03-.29-.104-.534-.397a6.284 6.284 0 0 1-.79-1.33c-.29-.594-.523-1.307-.715-2.121l-.698-3.02c-.03-.125-.331-.76-.88-1.906-.536-1.169-.825-1.741-.82-1.718-.034-.15.128-.407.466-.748a9.18 9.18 0 0 1 1.402-1.137c.398.479.713.89.942 1.232" fill="#fff"/><path d="M319.492 110.536c.232.32.414.627.547.904.112.217.226.5.318.806.151.668.271 1.078.295 1.18l1.333 5.753c.107.46.11.851.037 1.199-.067.366-.174.655-.343.893-.184.237-.37.371-.56.41-.104.03-.29-.104-.534-.397a6.284 6.284 0 0 1-.79-1.33c-.29-.594-.523-1.307-.715-2.121l-.698-3.02c-.03-.125-.331-.76-.88-1.906-.536-1.169-.825-1.741-.82-1.718-.034-.15.128-.407.466-.748a9.18 9.18 0 0 1 1.402-1.137c.398.479.713.89.942 1.232z" fill="none" stroke="#f14d3e" stroke-width=".49866541999999997"/><path d="M329.398 104.48l.131.541c-.16.476-.313.842-.497 1.102-.18.26-.339.409-.498.51-.238.1-.419.166-.606.21l-.834.194c-1.329.307-2.222 2.249-2.671 5.802l.126.541c.416-.096.76-.218 1.015-.348.613-.316 1.126-.562 1.513-.787.662-.352 1.114-.57 1.367-.625l1.105-.257c-.037.974-.29 1.693-.73 2.167-.439.452-1.078.843-1.884 1.16-.783.293-1.337.575-1.658.806-.296.221-.376.635-.235 1.24.123.54.344.909.639 1.146.315.212.681.28 1.096.184.583-.133 1.358-.293 2.317-.516.402-.07.724-.102.968-.09.227.033.445.115.674.258-.357.547-.613.957-.81 1.222a3.5 3.5 0 0 1-.74.699c-.245.167-.585.309-1.065.423l-1.918.446c-1.646.382-2.713-.535-3.223-2.724a10.191 10.191 0 0 1-.27-1.912 7.997 7.997 0 0 1 .094-1.425c.069-.437.08-.77.036-.953l-.697-3c-.04-.17.08-.502.354-1.052.292-.529.68-1.125 1.208-1.772a10.293 10.293 0 0 1 1.985-1.777 7.219 7.219 0 0 1 2.603-1.154z" fill="#fff"/><path d="M329.398 104.48l.131.541c-.16.476-.313.842-.497 1.102-.18.26-.339.409-.498.51-.238.1-.419.166-.606.21l-.834.194c-1.329.307-2.222 2.249-2.671 5.802l.126.541c.416-.096.76-.218 1.015-.348.613-.316 1.126-.562 1.513-.787.662-.352 1.114-.57 1.367-.625l1.105-.257c-.037.974-.29 1.693-.73 2.167-.439.452-1.078.843-1.884 1.16-.783.293-1.337.575-1.658.806-.296.221-.376.635-.235 1.24.123.54.344.909.639 1.146.315.212.681.28 1.096.184.583-.133 1.358-.293 2.317-.516.402-.07.724-.102.968-.09.227.033.445.115.674.258-.357.547-.613.957-.81 1.222a3.5 3.5 0 0 1-.74.699c-.245.167-.585.309-1.065.423l-1.918.446c-1.646.382-2.713-.535-3.223-2.724a10.191 10.191 0 0 1-.27-1.912 7.997 7.997 0 0 1 .094-1.425c.069-.437.08-.77.036-.953l-.697-3c-.04-.17.08-.502.354-1.052.292-.529.68-1.125 1.208-1.772a10.293 10.293 0 0 1 1.985-1.777 7.219 7.219 0 0 1 2.603-1.154z" fill="none" stroke="#f14d3e" stroke-width=".49866541999999997"/><path d="M295.777 142.288c.437.273.686.5.73.684.058.234.083.426.076.579-.014.245-.014.62-.028 1.129.01.039.014.062.014.062-.009.045-.005.066-.005.066.005.018-.01.068-.017.137-.006.086.005.196.012.327-.017.134-.017.222-.024.284l1.652-.379-.192-.81c-.301-.26-.502-.454-.555-.596-.095-.134-.178-.378-.31-.76-.15-.366-.305-.658-.518-.916zm1.9-3.844a51.557 51.557 0 0 1 2.146 4.246 124.24 124.24 0 0 1 1.408 3.232c.457.727.782 1.265.989 1.611.103.15.195.33.292.502.062.074.1.134.145.212l.021.012.007.025.012.038c.599 1.004.908 1.568.928 1.65.05.232.026.5-.105.773-.128.294-.332.67-.62 1.13-1.198-.444-2.228-1.94-3.055-4.473l-1.09.255c-1.191.715-1.938 1.284-2.267 1.666-.344.41-.494.778-.472 1.077.002.307-.05.54-.187.705-.156.167-.674.416-1.56.753 0 0-.012-.128.006-.352-.018-.058-.018-.256-.018-.543-.002-.11 0-.178-.006-.218.006-.072-.003-.11-.007-.133-.01-.784-.023-1.62-.044-2.537a84.737 84.737 0 0 1 .07-5.108c.041-1.614.206-3.076.486-4.434.238-1.246.626-1.926 1.125-2.043.401-.092 1.01.557 1.795 1.954" fill="#fff"/><path d="M295.777 142.288c.437.273.686.5.73.684.058.234.083.426.076.579-.014.245-.014.62-.028 1.129.01.039.014.062.014.062-.009.045-.005.066-.005.066.005.018-.01.068-.017.137-.006.086.005.196.012.327-.017.134-.017.222-.024.284l1.652-.379-.192-.81c-.301-.26-.502-.454-.555-.596-.095-.134-.178-.378-.31-.76-.15-.366-.305-.658-.518-.916zm1.9-3.844a51.557 51.557 0 0 1 2.146 4.246 124.24 124.24 0 0 1 1.408 3.232c.457.727.782 1.265.989 1.611.103.15.195.33.292.502.062.074.1.134.145.212l.021.012.007.025.012.038c.599 1.004.908 1.568.928 1.65.05.232.026.5-.105.773-.128.294-.332.67-.62 1.13-1.198-.444-2.228-1.94-3.055-4.473l-1.09.255c-1.191.715-1.938 1.284-2.267 1.666-.344.41-.494.778-.472 1.077.002.307-.05.54-.187.705-.156.167-.674.416-1.56.753 0 0-.012-.128.006-.352-.018-.058-.018-.256-.018-.543-.002-.11 0-.178-.006-.218.006-.072-.003-.11-.007-.133-.01-.784-.023-1.62-.044-2.537a84.737 84.737 0 0 1 .07-5.108c.041-1.614.206-3.076.486-4.434.238-1.246.626-1.926 1.125-2.043.401-.092 1.01.557 1.795 1.954z" fill="none" stroke="#f14d3e" stroke-width=".49866541999999997"/><path d="M312.38 137.467l.832 3.563c.112.52.139 1.197.06 1.986a9.436 9.436 0 0 1-.634 2.45 7 7 0 0 1-1.488 2.212c-.658.658-1.459 1.086-2.44 1.313-.687.161-1.364.075-2.066-.29a5.03 5.03 0 0 1-1.804-1.425c-.514-.623-.828-1.213-.959-1.774l-.51-2.188c-.255-1.104-.346-1.98-.258-2.641.074-.7.396-1.318.932-1.842l1.374-.318 1.016 4.377c.262 1.127.5 1.968.697 2.515.192.547.502.94.89 1.2.395.261.927.31 1.614.15.334-.073.683-.397.99-.952a8.39 8.39 0 0 0 .813-1.903c.207-.707.3-1.255.315-1.673l-.959-4.104c-.59-.37-.982-.653-1.162-.85-.148-.186-.255-.356-.305-.547.117-.177.32-.424.633-.78.293-.356.714-.716 1.244-1.08.518.627.92 1.5 1.176 2.601" fill="#fff"/><path d="M312.38 137.467l.832 3.563c.112.52.139 1.197.06 1.986a9.436 9.436 0 0 1-.634 2.45 7 7 0 0 1-1.488 2.212c-.658.658-1.459 1.086-2.44 1.313-.687.161-1.364.075-2.066-.29a5.03 5.03 0 0 1-1.804-1.425c-.514-.623-.828-1.213-.959-1.774l-.51-2.188c-.255-1.104-.346-1.98-.258-2.641.074-.7.396-1.318.932-1.842l1.374-.318 1.016 4.377c.262 1.127.5 1.968.697 2.515.192.547.502.94.89 1.2.395.261.927.31 1.614.15.334-.073.683-.397.99-.952a8.39 8.39 0 0 0 .813-1.903c.207-.707.3-1.255.315-1.673l-.959-4.104c-.59-.37-.982-.653-1.162-.85-.148-.186-.255-.356-.305-.547.117-.177.32-.424.633-.78.293-.356.714-.716 1.244-1.08.518.627.92 1.5 1.176 2.601z" fill="none" stroke="#f14d3e" stroke-width=".49866541999999997"/><path d="M320.937 132.891c.245.119.413.365.499.742.089.375.022.655-.217.863-.198.179-.655.393-1.346.639-.675.221-1.214.433-1.646.647-.441.192-.872.512-1.262.91l.824 3.56c.963-.223 1.48-.341 1.593-.347.293-.044.504-.07.641-.063.444.033.942.069 1.453.127-.4.904-.784 1.5-1.14 1.799-.329.28-.651.483-.999.585-.324.121-.511.273-.52.514-.024.273.063.844.264 1.695.29 1.276.086 2.004-.642 2.169l-.833.196-1.274-5.48a1.054 1.054 0 0 0-.3-.544 6.817 6.817 0 0 0-.729-.403 3.306 3.306 0 0 1-.81-.558c-.199-.195-.33-.474-.417-.847-.143-.623-.015-1.292.391-2.003.404-.708.984-1.344 1.697-1.95.69-.625 1.431-1.123 2.17-1.558.694-.403 1.27-.67 1.77-.786.309-.074.58-.046.833.093" fill="#fff"/><path d="M320.937 132.891c.245.119.413.365.499.742.089.375.022.655-.217.863-.198.179-.655.393-1.346.639-.675.221-1.214.433-1.646.647-.441.192-.872.512-1.262.91l.824 3.56c.963-.223 1.48-.341 1.593-.347.293-.044.504-.07.641-.063.444.033.942.069 1.453.127-.4.904-.784 1.5-1.14 1.799-.329.28-.651.483-.999.585-.324.121-.511.273-.52.514-.024.273.063.844.264 1.695.29 1.276.086 2.004-.642 2.169l-.833.196-1.274-5.48a1.054 1.054 0 0 0-.3-.544 6.817 6.817 0 0 0-.729-.403 3.306 3.306 0 0 1-.81-.558c-.199-.195-.33-.474-.417-.847-.143-.623-.015-1.292.391-2.003.404-.708.984-1.344 1.697-1.95.69-.625 1.431-1.123 2.17-1.558.694-.403 1.27-.67 1.77-.786.309-.074.58-.046.833.093z" fill="none" stroke="#f14d3e" stroke-width=".49866541999999997"/><path d="M332.625 142.015l.32 1.374c.078.335.059.646-.064.937a2.004 2.004 0 0 1-.557.745c-.285.198-.493.312-.646.347l-.539.124-.382-1.648c.204-.527.335-.822.402-.928.11-.174.318-.425.635-.757zm-3.78-13.815c-.032-.148.161.668.602 2.473.401 1.532.599 2.302.599 2.302.142.424.253.907.366 1.405.136.584.206 1.074.21 1.465l-1.374.32a13.668 13.668 0 0 0-.453-1.473 16.024 16.024 0 0 0-.687-1.557c-.278-.617-.498-1.091-.66-1.493-.17-.463-.32-.914-.41-1.31-.078-.332-.095-.591-.026-.783.064-.192.229-.405.516-.694.326-.296.486-.461.486-.461z" fill="#fff"/><path d="M332.625 142.015l.32 1.374c.078.335.059.646-.064.937a2.004 2.004 0 0 1-.557.745c-.285.198-.493.312-.646.347l-.539.124-.382-1.648c.204-.527.335-.822.402-.928.11-.174.318-.425.635-.757zm-3.78-13.815c-.032-.148.161.668.602 2.473.401 1.532.599 2.302.599 2.302.142.424.253.907.366 1.405.136.584.206 1.074.21 1.465l-1.374.32a13.668 13.668 0 0 0-.453-1.473 16.024 16.024 0 0 0-.687-1.557c-.278-.617-.498-1.091-.66-1.493-.17-.463-.32-.914-.41-1.31-.078-.332-.095-.591-.026-.783.064-.192.229-.405.516-.694.326-.296.486-.461.486-.461z" fill="none" stroke="#f14d3e" stroke-width=".49866541999999997"/><path d="M321.285 224.83l24.3-60.107h20.787m2.178 0h24.853L369.18 224.83h-47.896" fill="none" stroke="#2744a0" stroke-width=".34799913" stroke-miterlimit="2.613"/><path d="M367.466 164.751v2.153" fill="none" stroke="#2744a0" stroke-width=".34933246" stroke-linecap="round" stroke-miterlimit="2.613"/><path d="M367.58 196.118l-15.466-15.333c4.13-3.627 9.754-5.768 15.467-5.768 5.714 0 11.337 2.141 15.467 5.768z" fill="#fff200" fill-rule="evenodd"/><path d="M367.58 196.118l-15.466-15.333c4.13-3.627 9.754-5.768 15.467-5.768 5.714 0 11.337 2.141 15.467 5.768z" fill="none" stroke="#2744a0" stroke-width="1.7239956899999997" stroke-miterlimit="2.613"/><path d="M367.427 168.384a3.332 3.332 0 0 1 3.33 3.323 3.334 3.334 0 0 1-3.33 3.332 3.337 3.337 0 0 1-3.328-3.332 3.335 3.335 0 0 1 3.328-3.323" fill="#fff200" fill-rule="evenodd"/><path d="M367.427 168.384a3.332 3.332 0 0 1 3.33 3.323 3.334 3.334 0 0 1-3.33 3.332 3.337 3.337 0 0 1-3.328-3.332 3.335 3.335 0 0 1 3.328-3.323z" fill="none" stroke="#2744a0" stroke-width="1.59066269" stroke-linecap="square" stroke-miterlimit="2.613"/><path d="M382.967 181.625l-15.49 38.82-15.31-38.82z" fill="#fff200" fill-rule="evenodd"/><path d="M382.967 181.625l-15.49 38.82-15.31-38.82z" fill="none" stroke="#2744a0" stroke-width="1.76532892" stroke-miterlimit="2.613"/><path d="M365.835 218.627h3.303l-1.684 4.33z" fill="#2744a0" fill-rule="evenodd"/><text style="line-height:125%" x="5.738" y="-39.187" transform="matrix(1.33333 0 0 1.33333 0 300)" font-weight="400" font-size="10.313" font-family="sans-serif" letter-spacing="0" word-spacing="0" stroke-width=".75"><tspan x="5.738" y="-39.187" style="line-height:119.40000057%;-inkscape-font-specification:'Arial Condensed'" font-stretch="condensed" font-size="14" font-family="Arial" fill="#fff">www.riedelsheimer.de</tspan><tspan x="5.738" y="-22.471" style="line-height:119.40000057%;-inkscape-font-specification:'Arial Condensed'" font-stretch="condensed" font-size="14" font-family="Arial" fill="#fff">info@riedelsheimer.de</tspan><tspan x="5.738" y="-5.755" style="line-height:119.40000057%;-inkscape-font-specification:'Arial Condensed'" font-stretch="condensed" font-size="14" font-family="Arial" fill="#fff">Am Rapsfeld 2</tspan></text><text style="line-height:125%" x="161.518" y="-39.079" transform="matrix(1.33333 0 0 1.33333 0 300)" font-weight="400" font-size="10.313" font-family="sans-serif" letter-spacing="0" word-spacing="0" stroke-width=".75"><tspan x="161.518" y="-39.079" style="line-height:119.40000057%;-inkscape-font-specification:'Arial Condensed'" font-stretch="condensed" font-size="14" font-family="Arial" fill="#fff">Tel. (0 82 03) 96 31 33-0</tspan><tspan x="161.518" y="-22.363" style="line-height:119.40000057%;-inkscape-font-specification:'Arial Condensed'" font-stretch="condensed" font-size="14" font-family="Arial" fill="#fff">Fax (0 82 03) 96 31 33-99</tspan><tspan x="161.518" y="-5.647" style="line-height:119.40000057%;-inkscape-font-specification:'Arial Condensed'" font-stretch="condensed" font-size="14" font-family="Arial" fill="#fff">86845 Großaitingen</tspan></text><g font-weight="400" font-size="10.313" font-family="sans-serif" letter-spacing="0" word-spacing="0" fill="#2744a0" stroke-width=".75"><text y="210.566" x="144.904" style="line-height:125%" transform="matrix(.49401 -1.23844 1.23844 .49401 0 300)"><tspan style="-inkscape-font-specification:'Century Gothic Bold'" y="210.566" x="144.904" font-weight="700" font-size="7.5" font-family="Century Gothic" letter-spacing="-.233">QUÄLITÄT AM</tspan></text><text style="line-height:125%" x="148.513" y="194.923" transform="matrix(.49401 -1.23844 1.23844 .49401 0 300)"><tspan x="148.513" y="217.222" style="-inkscape-font-specification:'Century Gothic Bold'" font-weight="700" font-size="7.5" font-family="Century Gothic" letter-spacing="-.233">BAU E<tspan letter-spacing="-1.747">.V.</tspan></tspan></text></g><text style="line-height:125%" x="23.813" y="-150.563" transform="matrix(1.33333 0 0 1.33333 0 300)" font-weight="400" font-size="10.313" font-family="sans-serif" letter-spacing="0" word-spacing="0" fill="#f14d3e" stroke-width=".75"><tspan x="23.813" y="-150.563" style="line-height:159.60000753%;-inkscape-font-specification:'Arial Bold Condensed'" font-weight="700" font-stretch="condensed" font-size="14" font-family="Arial">Rohbauarbeiten</tspan><tspan x="23.813" y="-128.219" style="line-height:159.60000753%;-inkscape-font-specification:'Arial Bold Condensed'" font-weight="700" font-stretch="condensed" font-size="14" font-family="Arial">Umbauarbeiten</tspan><tspan x="23.813" y="-105.874" style="line-height:159.60000753%;-inkscape-font-specification:'Arial Bold Condensed'" font-weight="700" font-stretch="condensed" font-size="14" font-family="Arial">Sanierungen</tspan><tspan x="23.813" y="-83.53" style="line-height:159.60000753%;-inkscape-font-specification:'Arial Bold Condensed'" font-weight="700" font-stretch="condensed" font-size="14" font-family="Arial">schlüsselfertiges Bauen</tspan><tspan x="23.813" y="-61.186" style="line-height:159.60000753%;-inkscape-font-specification:'Arial Bold Condensed'" font-weight="700" font-stretch="condensed" font-size="14" font-family="Arial">Autokran-Dienste</tspan></text><path d="M20.368 89.423a2.57 2.57 0 0 1 2.584 2.57 2.583 2.583 0 0 1-2.584 2.584 2.571 2.571 0 0 1-2.57-2.584 2.558 2.558 0 0 1 2.57-2.57M20.368 119.61a2.57 2.57 0 0 1 2.584 2.57 2.583 2.583 0 0 1-2.584 2.584 2.571 2.571 0 0 1-2.57-2.584 2.558 2.558 0 0 1 2.57-2.57M20.368 149.798a2.57 2.57 0 0 1 2.584 2.57 2.583 2.583 0 0 1-2.584 2.584 2.571 2.571 0 0 1-2.57-2.584 2.558 2.558 0 0 1 2.57-2.57M20.368 179.986a2.57 2.57 0 0 1 2.584 2.57 2.583 2.583 0 0 1-2.584 2.583 2.571 2.571 0 0 1-2.57-2.584 2.558 2.558 0 0 1 2.57-2.57M20.368 210.173a2.57 2.57 0 0 1 2.584 2.57 2.583 2.583 0 0 1-2.584 2.584 2.571 2.571 0 0 1-2.57-2.584 2.558 2.558 0 0 1 2.57-2.57" fill="#f14d3e"/><text style="line-height:125%" x="142.583" y="200.408" transform="matrix(.50345 -1.23463 1.23463 .50345 0 300)" font-weight="400" font-size="10.313" font-family="sans-serif" letter-spacing="0" word-spacing="0" fill="#2744a0" stroke-width=".75"><tspan x="142.583" y="200.408" style="-inkscape-font-specification:'Century Gothic'" font-size="3.35" font-family="Century Gothic">FREIWILLIGE SELBSTKONTROLLE</tspan></text></svg>