<svg xmlns="http://www.w3.org/2000/svg" xmlns:xlink="http://www.w3.org/1999/xlink" id="svg2" width="400" height="300" viewBox="0 0 400 300"><style id="style2">.st0,.st1{clip-path:url(#SVGID_2_);fill:#ecebf7}.st1{fill:#fff}.st2{fill:#2744a0}.st3{fill:#f14d3e}.st4{fill:#fff}.st5{font-family:&apos;ArialNarrow&apos;}.st6{font-size:18.666666px}.st7{font-family:&apos;ArialNarrow-Bold&apos;}.st8{fill:none;stroke:#2744a0;stroke-width:.3211332;stroke-linecap:round;stroke-miterlimit:2.6129999}.st9{font-family:&apos;Century Gothic&apos;}.st10{font-size:4.4952044px}.st11{fill:none;stroke:#2744a0;stroke-width:.3211332;stroke-linecap:round;stroke-linejoin:round}.st12{fill:#fff200}.st13{fill:#fff;stroke:#f14d3e;stroke-width:.6}</style><g id="g14"><defs id="defs6"><path id="SVGID_1_" d="M0-86.539h400v381.437H0z"/></defs><clipPath id="SVGID_2_"><use xlink:href="#SVGID_1_" id="use8" overflow="visible"/></clipPath><path id="path24" class="st0" d="M154.863 167.92c12.893 50.682 24.38 110.49 24.38 110.49l74.954-19.338-56.173-216.52-74.647 19.252s-3.93 31.748-25.1 69.724c-38.829-22.499-54.239-49.263-54.239-49.263l-74.982 19.344 56.178 216.52 74.67-19.256s-19.395-57.768-32.41-108.422c20.415 25.575 58.643 48.513 58.643 48.513s21.892-38.442 28.726-71.044" clip-path="url(#SVGID_2_)"/><path id="path28" class="st0" d="M439.695 211.229c-24.14-55.397-53.174-86.293-56.53-91.729 9.168-9.655 15.153-21.128 17.517-34.339a66.287 66.287 0 0 0-1.22-27.07c-5.992-23.22-26.939-49.674-66.303-47.777-10.279.44-19.285 2.356-33.293 5.97l-88.007 22.698-4.405 1.136L263.32 256.72l72.98-18.823s-20.189-78.27-22.235-86.223c0 0 25.213 27.942 50.7 78.882l74.931-19.328z" clip-path="url(#SVGID_2_)"/><path id="path32" class="st1" d="M322.23 97.467c-2.749 1.955-9.54 3.707-9.54 3.707s-.293 15.194-4.694 26.994c-4.296-16.67-11.94-46.302-13.519-52.423 5.356-1.382 6.763-1.742 6.763-1.742 5.74-1.483 13.582-3.505 18.5-1.575 3.252 1.017 6.88 3.867 8.237 9.105 1.59 6.171-.595 12.27-5.747 15.934" clip-path="url(#SVGID_2_)"/></g><path id="rect5582" class="st2" d="M236.207 87.148h53.092v22.47h-53.092z"/><path id="rect5584" class="st2" d="M291.299 87.148h53.092v22.47h-53.092z"/><path id="rect5586" class="st2" d="M236.207 135.148h53.092v22.47h-53.092z"/><path id="rect5588" class="st2" d="M291.299 135.148h53.092v22.47h-53.092z"/><path id="rect5592" class="st2" d="M263.59 111.189h53.092v22.47H263.59z"/><path id="rect5594" class="st2" d="M208.498 111.189h53.092v22.47h-53.092z"/><path id="rect5590-6" class="st2" d="M318.682 111.189h53.092v22.47h-53.092z"/><path id="path34" class="st2" d="M0 300h400v-71.804H0V300z"/><path id="path184" class="st2" d="M400 78.26H0V0h400v78.26z"/><path id="path188" class="st3" d="M134.805 35.64h1.974c2.5 0 3.413-1.439 3.413-4.21 0-2.806-1.063-4.213-3.87-4.213h-1.517v8.423zm0-12.29h1.706c1.782 0 3.148-1.214 3.148-3.492 0-2.54-.987-3.867-3.072-3.867h-1.782v7.36zm-4.704-11.228h6.978c5.048 0 7.286 2.578 7.286 7.243 0 2.356-.986 4.82-3.264 5.729 2.39 1.065 3.796 2.962 3.796 6.49 0 4.512-2.012 7.926-7.363 7.926H130.1V12.122z"/><path id="path192" class="st3" d="M153.319 29.343h3.793l-1.861-11.76h-.074l-1.858 11.76zM151.8 39.511h-4.551l5.045-27.39h5.843l5.046 27.39h-4.555l-.833-6.07h-5.16l-.835 6.07z"/><path id="path196" class="st3" d="M165.91 12.122h4.707v20.674c0 2.008.797 2.998 2.503 2.998s2.504-.99 2.504-2.998V12.122h4.706v20.483c0 4.708-2.732 7.287-7.21 7.287-4.477 0-7.21-2.58-7.21-7.287V12.122z"/><path id="path200" class="st3" d="M184.88 12.122h4.703v20.674c0 2.008.799 2.998 2.506 2.998 1.707 0 2.504-.99 2.504-2.998V12.122h4.703v20.483c0 4.708-2.732 7.287-7.207 7.287-4.477 0-7.208-2.58-7.208-7.287V12.122z"/><path id="path204" class="st3" d="M203.85 39.511v-27.39h4.365l5.724 15.67h.078V12.12h4.248v27.39h-4.095l-5.992-17.11h-.08v17.11h-4.249z"/><path id="path208" class="st3" d="M225.551 16.22H221v-4.098h13.807v4.097h-4.549v23.292h-4.707V16.22z"/><path id="path212" class="st3" d="M237.579 39.511v-27.39h12.59v4.098h-7.89v7.056h6.073v4.1h-6.072v8.039h8.418v4.097h-13.12z"/><path id="path216" class="st3" d="M259.126 24.411h1.664c2.546 0 3.493-.946 3.493-4.21 0-3.263-.947-4.21-3.493-4.21h-1.664v8.42zm0 15.1h-4.708v-27.39h6.6c5.276 0 7.972 2.236 7.972 8.08 0 4.402-1.709 6.184-3.3 6.906l3.98 12.404h-4.778L261.55 28.17c-.601.075-1.59.114-2.423.114v11.228z"/><path id="path220" class="st3" d="M273.386 39.511v-27.39h4.368l5.725 15.67h.078V12.12h4.245v27.39h-4.095l-5.997-17.11h-.073v17.11h-4.25z"/><path id="path224" class="st3" d="M292.356 39.511v-27.39h12.594v4.098h-7.893v7.056h6.075v4.1h-6.075v8.039h8.42v4.097h-13.12z"/><path id="path228" class="st3" d="M309.199 39.511v-27.39h4.707v11.154h5.007V12.122h4.7v27.39h-4.7V27.373h-5.007v12.137H309.2z"/><path id="path232" class="st3" d="M347.024 12.122v27.39h-4.1V18.116h-.074l-4.249 21.394h-2.273l-4.254-21.394h-.073V39.51h-4.1v-27.39h6.185l3.341 16.01h.07l3.345-16.01h6.182z"/><path id="path236" class="st3" d="M351.346 39.511v-27.39h12.592v4.098h-7.882v7.056h6.064v4.1h-6.064v8.039h8.417v4.097h-13.127z"/><path id="path240" class="st3" d="M368.193 39.511v-27.39h4.36l5.73 15.67h.071V12.12h4.257v27.39h-4.1l-5.998-17.11h-.075v17.11h-4.245z"/><path id="path244" class="st4" d="M143.672 46.662v19.412h-2.902V50.912h-.053l-3.013 15.162h-1.61l-3.013-15.162h-.054v15.162h-2.902V46.662h4.38l2.365 11.346h.055l2.367-11.346h4.38z"/><path id="path248" class="st4" d="M151.415 58.733c-2.74 1.56-3.414 2.556-3.414 3.817 0 .942.487 1.318 1.4 1.318.835 0 1.504-.62 2.014-1.343v-3.792zm-6.21-2.877c.161-2.931 2.018-4.517 4.84-4.517 2.798 0 4.382 1.29 4.382 3.926v9.275c0 .458.108 1.047.189 1.534h-2.877c-.027-.406-.136-.783-.162-1.129-1.13.91-2.07 1.395-3.52 1.395-2.044 0-3.068-1.395-3.068-3.252 0-3.175 2.099-4.92 6.426-6.558v-.863c0-1.21-.482-1.853-1.479-1.853-1.369 0-1.668.809-1.718 2.042h-3.014z"/><path id="path252" class="st4" d="M156.415 66.074V51.61h2.875v1.692h.053c.728-1.236 1.991-1.963 3.416-1.963h.62v3.147c-.54-.138-1.052-.297-1.934-.297-1.023 0-2.018.644-2.018 1.937v9.948h-3.012z"/><path id="path256" class="st4" d="M170.503 56.555v-.375c0-1.669-.59-2.367-1.667-2.367-1.074 0-1.666.698-1.666 2.367v5.32c0 1.668.592 2.367 1.666 2.367 1.076 0 1.667-.699 1.667-2.367v-.914h3.013v.377c0 3.173-1.238 5.378-4.68 5.378-3.44 0-4.674-2.205-4.674-5.378v-4.247c0-3.173 1.233-5.378 4.674-5.378 3.389 0 4.625 2.125 4.68 5.217h-3.013z"/><path id="path260" class="st4" d="M184.24 51.61v14.463h-2.85V64.62c-1.262 1.077-1.908 1.721-3.657 1.721-1.583 0-2.526-1.155-2.526-3.035V51.61h3.01v11.21c0 .727.431 1.047 1.075 1.047.647 0 1.236-.402 1.938-.912V51.61h3.01z"/><path id="path264" class="st4" d="M191.58 55.614c-.215-1.157-.751-1.801-1.721-1.801-.78 0-1.318.405-1.318 1.152 0 2.262 5.645 3.176 5.645 7.478 0 2.582-1.771 3.898-4.218 3.898-2.638 0-4.141-1.508-4.597-4.034l2.632-.726c.188 1.213.62 2.286 1.993 2.286.78 0 1.344-.454 1.344-1.262 0-2.5-5.647-3.441-5.647-7.395 0-2.285 1.773-3.872 4.032-3.872 2.365 0 3.951 1.587 4.406 3.848l-2.55.428z"/><path id="path268" class="st4" d="M203.913 55.37h1.193c1.798 0 2.472-.67 2.472-2.982 0-2.31-.674-2.983-2.472-2.983h-1.193v5.966zm0 10.703h-3.332v-19.41h4.683c3.733 0 5.644 1.585 5.644 5.725 0 3.117-1.207 4.384-2.337 4.894l2.819 8.791h-3.388l-2.361-8.038c-.43.054-1.132.083-1.728.083v7.955z"/><path id="path270" class="st4" d="M212.846 51.61h3.012v14.463h-3.012V51.609zm0-4.948h3.012v2.743h-3.012v-2.743z"/><path id="path274" class="st4" d="M223.923 56.933v-.753c0-1.668-.594-2.367-1.671-2.367-1.068 0-1.66.699-1.66 2.367v.753h3.331zm3.01 2.473h-6.342V61.5c0 1.669.593 2.367 1.66 2.367 1.078 0 1.672-.698 1.672-2.367v-.32h3.01c-.053 3.064-1.321 5.162-4.681 5.162-3.438 0-4.672-2.205-4.672-5.378v-4.248c0-3.173 1.234-5.377 4.672-5.377 3.441 0 4.68 2.204 4.68 5.377v2.69z"/><path id="path278" class="st4" d="M234.646 54.567c-.59-.43-1.129-.753-1.72-.753-.806 0-1.447.43-1.447 2.339v5.377c0 1.907.641 2.338 1.447 2.338.591 0 1.13-.322 1.72-.753v-8.548zm.162 11.507v-1.506h-.054c-.995 1.261-1.722 1.773-3.226 1.773-1.88 0-3.063-1.396-3.063-4.034V55.37c0-2.63 1.182-4.032 3.063-4.032 1.316 0 1.938.538 3.118 1.506v-6.184h3.014v19.413h-2.852z"/><path id="path282" class="st4" d="M245.698 56.933v-.753c0-1.668-.594-2.367-1.669-2.367-1.074 0-1.666.699-1.666 2.367v.753h3.335zm3.006 2.473h-6.341V61.5c0 1.669.592 2.367 1.666 2.367 1.075 0 1.669-.698 1.669-2.367v-.32h3.006c-.05 3.064-1.313 5.162-4.675 5.162-3.44 0-4.677-2.205-4.677-5.378v-4.248c0-3.173 1.236-5.377 4.677-5.377 3.442 0 4.675 2.204 4.675 5.377v2.69z"/><path id="path284" class="st4" d="M250.422 46.662h3.014v19.412h-3.014V46.662z"/><path id="path288" class="st4" d="M260.804 55.614c-.218-1.157-.75-1.801-1.724-1.801-.775 0-1.316.405-1.316 1.152 0 2.262 5.646 3.176 5.646 7.478 0 2.582-1.774 3.898-4.218 3.898-2.636 0-4.138-1.508-4.603-4.034l2.637-.726c.19 1.213.62 2.286 1.994 2.286.772 0 1.34-.454 1.34-1.262 0-2.5-5.645-3.441-5.645-7.395 0-2.285 1.776-3.872 4.036-3.872 2.36 0 3.95 1.587 4.404 3.848l-2.55.428z"/><path id="path292" class="st4" d="M264.73 66.074V46.66h3.008v6.29c1.107-.965 1.75-1.612 3.492-1.612 1.594 0 2.533 1.157 2.533 3.039v11.696h-3.011V54.86c0-.725-.434-1.047-1.076-1.047-.647 0-1.238.403-1.938.916v11.344h-3.008z"/><path id="path296" class="st4" d="M281.796 56.933v-.753c0-1.668-.59-2.367-1.665-2.367-1.076 0-1.67.699-1.67 2.367v.753h3.335zm3.014 2.473h-6.349V61.5c0 1.669.594 2.367 1.67 2.367 1.074 0 1.665-.698 1.665-2.367v-.32h3.014c-.051 3.064-1.322 5.162-4.679 5.162-3.443 0-4.678-2.205-4.678-5.378v-4.248c0-3.173 1.235-5.377 4.678-5.377 3.444 0 4.68 2.204 4.68 5.377v2.69z"/><path id="path298" class="st4" d="M286.537 51.61h3.005v14.463h-3.005V51.609zm0-4.948h3.005v2.743h-3.005v-2.743z"/><path id="path302" class="st4" d="M297.418 66.074V54.86c0-.725-.459-1.047-1.047-1.047-.647 0-1.24.403-1.936.916v11.344h-3.016V51.61h2.85v1.45c1.267-1.074 1.915-1.721 3.34-1.721 1.504 0 1.987.538 2.63 1.721 1.454-1.4 2.263-1.721 3.364-1.721 1.88 0 2.82 1.157 2.82 3.039v11.696h-3.01V54.86c0-.725-.482-1.047-1.076-1.047-.644 0-1.235.403-1.904.916v11.344h-3.015z"/><path id="path306" class="st4" d="M314.489 56.933v-.753c0-1.668-.593-2.367-1.664-2.367-1.076 0-1.67.699-1.67 2.367v.753h3.334zm3.009 2.473h-6.343V61.5c0 1.669.594 2.367 1.67 2.367 1.071 0 1.664-.698 1.664-2.367v-.32h3.009c-.054 3.064-1.314 5.162-4.673 5.162-3.444 0-4.678-2.205-4.678-5.378v-4.248c0-3.173 1.234-5.377 4.678-5.377 3.44 0 4.673 2.204 4.673 5.377v2.69z"/><path id="path310" class="st4" d="M319.197 66.074V51.61h2.875v1.692h.048c.729-1.236 1.993-1.963 3.414-1.963h.623v3.147c-.54-.138-1.047-.297-1.94-.297-1.018 0-2.012.644-2.012 1.937v9.948h-3.008z"/><path id="path314" class="st4" d="M336.773 56.233h5.46v9.84h-1.615L340 64.622c-.993 1.182-1.799 1.72-3.357 1.72-2.636 0-4.465-1.88-4.465-4.971V51.367c0-2.743 1.615-4.974 4.896-4.974 3.327 0 4.999 2.418 4.999 5.323v1.237h-3.173c0-2.903-.591-3.658-1.91-3.658-.808 0-1.48.486-1.48 2.125v9.976c0 1.235.404 2.041 1.564 2.041 1.344 0 1.826-.753 1.826-2.688v-1.882h-2.126v-2.634z"/><path id="path318" class="st4" d="M350.4 66.074V54.86c0-.725-.455-1.047-1.046-1.047-.644 0-1.238.403-1.937.916v11.344h-3.01V51.61h2.846v1.45c1.266-1.074 1.912-1.721 3.337-1.721 1.508 0 1.991.538 2.637 1.721 1.453-1.4 2.254-1.721 3.357-1.721 1.886 0 2.825 1.157 2.825 3.039v11.696h-3.012V54.86c0-.725-.484-1.047-1.075-1.047-.642 0-1.238.403-1.905.916v11.344H350.4z"/><path id="path322" class="st4" d="M364.305 63.115c.59.432 1.13.752 1.718.752.808 0 1.455-.43 1.455-2.338v-5.377c0-1.907-.647-2.34-1.455-2.34-.589 0-1.128.324-1.718.755v8.548zm-3.012 2.958v-19.41h3.012v6.181c1.185-.968 1.801-1.506 3.116-1.506 1.878 0 3.068 1.402 3.068 4.032v6.938c0 2.636-1.19 4.033-3.068 4.033-1.508 0-2.23-.511-3.225-1.773h-.053v1.505h-2.85z"/><path id="path326" class="st4" d="M372.34 66.074V46.66h3.333v7.906h3.553V46.66h3.33v19.413h-3.33v-8.606h-3.553v8.606h-3.333z"/><path id="path330" class="st4" d="M56.982 38.726c-.043 12.678-.964 27.408-.964 27.408l18.762.003-.078-54.22H56.02s-2.847 7.209-10.111 14.843c-7.753-7.628-9.749-14.842-9.749-14.842H17.391l.076 54.22 18.692-.004s-1.055-14.73-1.047-27.408c3.244 7.24 10.829 14.935 10.829 14.935s7.465-7.695 11.04-14.935"/><path id="path334" class="st4" d="M113.498 41.182c2.732-1.709 4.837-4.038 6.189-7a16.084 16.084 0 0 0 1.353-6.426c0-5.81-3.318-13.285-12.669-15.226-2.44-.518-4.668-.613-8.178-.613H77.06v54.22h18.27V44.552s4.227 8.083 7.122 21.583h18.76c-2.316-14.463-7.259-23.476-7.714-24.954"/><path id="path338" class="st3" d="M100.532 32.323c-.768.293-2.466.293-2.466.293s-.992 3.545-2.737 6.055V25.545h1.695c1.434 0 3.398 0 4.436.752.703.433 1.383 1.32 1.383 2.638 0 1.54-.884 2.84-2.31 3.388"/><text transform="translate(7.65 247.751)" class="st4 st5 st6" id="text65"><tspan style="-inkscape-font-specification:'Arial Condensed'" id="tspan4621" font-family="Arial" font-weight="400" font-stretch="condensed">www.riedelsheimer.de</tspan></text><text transform="translate(7.65 270.04)" class="st4 st5 st6" id="text67"><tspan style="-inkscape-font-specification:'Arial Condensed'" id="tspan4623" font-family="Arial" font-weight="400" font-stretch="condensed">info@riedelsheimer.de</tspan></text><text transform="translate(7.65 292.327)" class="st4 st5 st6" id="text69"><tspan style="-inkscape-font-specification:'Arial Condensed'" id="tspan4625" font-family="Arial" font-weight="400" font-stretch="condensed">Am Rapsfeld 2</tspan></text><text transform="translate(215.358 247.895)" class="st4 st5 st6" id="text71"><tspan style="-inkscape-font-specification:'Arial Condensed'" id="tspan4627" font-family="Arial" font-weight="400" font-stretch="condensed">Tel. (0 82 03) 96 31 33-0</tspan></text><text transform="translate(215.358 270.183)" class="st4 st5 st6" id="text73"><tspan style="-inkscape-font-specification:'Arial Condensed'" id="tspan4629" font-family="Arial" font-weight="400" font-stretch="condensed">Fax (0 82 03) 96 31 33-99</tspan></text><text transform="translate(215.358 292.47)" class="st4 st5 st6" id="text75"><tspan style="-inkscape-font-specification:'Arial Condensed'" id="tspan4631" font-family="Arial" font-weight="400" font-stretch="condensed">86845 Großaitingen</tspan></text><text transform="translate(31.75 99.25)" class="st3 st7 st6" id="text77"><tspan style="-inkscape-font-specification:'Arial Bold Condensed'" id="tspan4611" font-family="Arial" font-weight="700" font-stretch="condensed">Rohbauarbeiten</tspan></text><text transform="translate(31.75 129.042)" class="st3 st7 st6" id="text79"><tspan style="-inkscape-font-specification:'Arial Bold Condensed'" id="tspan4613" font-family="Arial" font-weight="700" font-stretch="condensed">Umbauarbeiten</tspan></text><text transform="translate(31.75 158.834)" class="st3 st7 st6" id="text81"><tspan style="-inkscape-font-specification:'Arial Bold Condensed'" id="tspan4615" font-family="Arial" font-weight="700" font-stretch="condensed">Sanierungen</tspan></text><text transform="translate(31.75 188.626)" class="st3 st7 st6" id="text83"><tspan style="-inkscape-font-specification:'Arial Bold Condensed'" id="tspan4617" font-family="Arial" font-weight="700" font-stretch="condensed">schlüsselfertiges Bauen</tspan></text><text transform="translate(31.75 218.418)" class="st3 st7 st6" id="text85"><tspan style="-inkscape-font-specification:'Arial Bold Condensed'" id="tspan4619" font-family="Arial" font-weight="700" font-stretch="condensed">Autokran-Dienste</tspan></text><path id="path7288" class="st3" d="M20.368 89.423a2.57 2.57 0 0 1 2.584 2.57 2.583 2.583 0 0 1-2.584 2.584 2.571 2.571 0 0 1-2.57-2.584 2.558 2.558 0 0 1 2.57-2.57"/><path id="path7305" class="st3" d="M20.368 119.61a2.57 2.57 0 0 1 2.584 2.57 2.583 2.583 0 0 1-2.584 2.584 2.571 2.571 0 0 1-2.57-2.584 2.558 2.558 0 0 1 2.57-2.57"/><path id="path7288-4" class="st3" d="M20.368 149.798a2.57 2.57 0 0 1 2.584 2.57 2.583 2.583 0 0 1-2.584 2.584 2.571 2.571 0 0 1-2.57-2.584 2.558 2.558 0 0 1 2.57-2.57"/><path id="path7288-8" class="st3" d="M20.368 179.986a2.57 2.57 0 0 1 2.584 2.57 2.583 2.583 0 0 1-2.584 2.583 2.571 2.571 0 0 1-2.57-2.584 2.558 2.558 0 0 1 2.57-2.57"/><path id="path7288-86" class="st3" d="M20.368 210.173a2.57 2.57 0 0 1 2.584 2.57 2.583 2.583 0 0 1-2.584 2.584 2.571 2.571 0 0 1-2.57-2.584 2.558 2.558 0 0 1 2.57-2.57"/><path id="path1342-1" class="st8" d="M367.221 164.543v2.167"/><path id="path21" class="st2" d="M333.51 217.824l1.977-.566-.605 1.515-.999.29c.174 1.427-.59 3.202-2.293 3.894-3.141 1.267-6.244-1.816-5.016-4.895 1.219-3.055 5.513-3.098 6.936-.238zm-1.35.387c-1.105-1.622-3.61-1.468-4.335.35-1.173 2.94 3.388 4.77 4.568 1.811.121-.304.176-.614.164-.929l-2.026.584.608-1.525 1.02-.291z"/><path id="path23" class="st2" d="M328.477 213.782l.512-1.283 4.345 1.734c.524.209.926.343 1.336.046.306-.233.51-.727.432-1.135-.09-.488-.404-.664-1.137-.956l-4.186-1.67.512-1.282c4.201 1.676 4.914 1.921 5.363 2.271 1.7 1.326.541 4.215-1.374 4.32-.77.04-1.645-.387-5.803-2.045z"/><path id="path25" class="st2" d="M331.584 205.993l.517-1.296 7.745.095-.53 1.328-1.592-.027-1.093 2.738 1.165 1.1-.53 1.328-5.682-5.266zm2.043.053l1.948 1.814.712-1.785-2.66-.03z"/><path id="path27" class="st2" d="M333.413 201.408l.51-1.278 5.495 2.192.743-1.862 1.219.486-1.253 3.14-6.714-2.678z"/><path id="path29" class="st2" d="M334.9 197.681l.506-1.269 6.714 2.679-.506 1.268-6.714-2.678z"/><path id="path31" class="st2" d="M335.598 195.93l1.48-3.71 1.26.503-.488 1.223 5.454 2.175-.517 1.297-5.454-2.176-.475 1.191-1.26-.502z"/><path id="path33" class="st2" d="M338.128 189.589l.517-1.297 7.745.095-.53 1.328-1.593-.026-1.092 2.738 1.165 1.1-.53 1.328-5.682-5.266zm2.042.053l1.948 1.814.712-1.785-2.66-.03zm-4.015-.412c.348-.872 1.655-.343 1.31.523-.345.864-1.653.337-1.31-.523zm.806-2.022c.346-.866 1.658-.35 1.31.523-.343.86-1.654.341-1.31-.523z"/><path id="path35" class="st2" d="M339.693 185.666l1.48-3.711 1.26.502-.488 1.224 5.454 2.175-.517 1.297-5.454-2.176-.475 1.191-1.26-.502z"/><path id="path37" class="st2" d="M343.149 177.003l.517-1.297 7.744.095-.53 1.328-1.592-.026-1.092 2.738 1.164 1.1-.53 1.328-5.681-5.266zm2.042.052l1.948 1.814.712-1.784-2.66-.03z"/><path id="path39" class="st2" d="M345.236 171.77l.499-1.251 5.302.316-4.055-3.443.492-1.232 7.165 1.546-.491 1.233-4.528-.97 3.67 3.12-.45 1.127-4.802-.281 3.947 2.426-.497 1.246-6.252-3.837z"/><path id="path42" class="st2" d="M342.284 222.786l-6.714-2.678c.431-1.08.73-1.898 1.075-2.35.933-1.256 2.733-1.004 3.148.532 1.5-1.404 3.388-.253 3.521 1.251.056.692-.257 1.309-1.03 3.245zm-4.985-3.47l1.415.564c.129-.324.31-.704.19-1.046-.137-.398-.653-.622-1.027-.425-.32.165-.444.57-.578.907zm2.556 1.02l1.72.686c.151-.378.456-1.07.353-1.468-.125-.502-.794-.75-1.287-.46-.41.242-.634.86-.786 1.242z"/><path id="path44" class="st2" d="M338.433 212.93l.517-1.296 7.745.095-.53 1.328-1.592-.027-1.093 2.739 1.165 1.1-.53 1.328-5.682-5.267zm2.043.053l1.948 1.814.712-1.784-2.66-.03z"/><path id="path46" class="st2" d="M340.244 208.391l.512-1.282 4.345 1.733c.543.217 1.316.494 1.691-.447.41-1.03-.47-1.362-1.06-1.598l-4.186-1.67.511-1.282 4.003 1.597c.896.357 2.158.81 2.192 2.371.008.706-.363 1.668-1.058 2.187-.942.688-1.757.463-2.947-.012l-4.003-1.597z"/><path id="path48" class="st2" d="M343.463 200.321l1.462-3.665 1.25.5-.955 2.395 1.214.485.956-2.396 1.228.49-.956 2.396 1.766.704.956-2.396 1.255.5-1.462 3.666-6.714-2.679z"/><path id="path50" class="st2" d="M350.913 197.376c.38-.956 1.802-.366 1.428.57-.377.945-1.808.38-1.428-.57z"/><path id="path52" class="st2" d="M345.252 195.838l.524-1.315 5.443.214-4.087-3.614.525-1.315 5.749 5.098-.492 1.232-7.662-.3z"/><path id="path54-8" class="st2" d="M352.831 192.567c.381-.956 1.802-.366 1.429.57-.378.947-1.806.375-1.429-.57z"/><text id="text23" transform="rotate(-67.815 326.727 -124.52)" class="st2 st9 st10">FREIWILLIGE SELBSTKONTROLLE</text><path id="path4508" class="st11" d="M368.312 164.515h25.011l-24.376 60.492h-48.202l24.456-60.492h20.919"/><path id="path4588" class="st2" d="M367.252 167.464a4.01 4.01 0 0 0-4.001 4.001 4.01 4.01 0 0 0 2.619 3.749c-5.027.351-10.06 2.195-14.383 5.583a.645.645 0 0 0-.202.741l15.41 39.067c.213.54.979.539 1.193.002l15.587-39.063c.103-.236.05-.535-.21-.756-4.112-3.494-9.239-5.385-14.521-5.615a4.01 4.01 0 0 0 2.509-3.708 4.01 4.01 0 0 0-4.001-4.001z"/><path id="path4586" class="st12" d="M367.252 168.748c1.508 0 2.717 1.209 2.717 2.717s-1.21 2.717-2.717 2.717-2.717-1.209-2.717-2.717 1.209-2.717 2.717-2.717z"/><path id="path4584" class="st12" d="M367.752 176.433c4.738.02 9.365 1.458 13.231 4.227H353.9c4.268-2.847 9.105-4.248 13.852-4.227z"/><path id="path1422-5-8" class="st12" d="M352.827 181.945h29.105l-14.637 36.682-14.468-36.682z"/><path id="path4779" class="st13" d="M246.572 116.945c-.06-2.401.524-5.044.489-7.813 0-.726-.172-1.36.52-1.546 1.84-.494 1.237 2.516 1.103 3.516-2.107 15.795 3.838 5.59 4.403-1.53.131-.724 1.537-.61 1.445.462-.493 7.354 2.725 10.312 3.735 2.14.697-5.148-.917-8.53.576-8.931 1-.269 1.244 1.215 1.309 4.98.172 8.076-4.007 15.44-6.973 7.005-2.937 8.539-6.469 7.53-6.608 1.717z"/><path id="path4781" class="st13" d="M264.591 102.54c1.995.46.074 2.953.835 12.186.028.339.045.683.051 1.034.018 1.03-1.622 1.586-1.707.354-.5-13.71-.23-13.292.821-13.574z"/><path id="path4783" class="st13" d="M268.517 102.648c-.442-1.65-.191-1.634 4.994-2.737 3.24-.689 6.462 1.606.665 7.013-.156.148-.261.259-.318.33 1.384.266 2.811.565 5.377 3.578.741.836-.218 2.16-1.027 1.625-1.315-.87-3.1-4.986-6.887-3.229-.474-.037-.653-.36-.77-.794.056 4.172.014 5.96.014 5.96-.254 1-1.506 1.068-1.56-.43-.268-1 .339-8.236-.488-11.316zm2.147.226c-.064 2.171-.076 3.458-.117 5.297.233-.563 1.374-1.273 1.872-1.673 6.782-5.598 1.47-5.872-1.755-3.624z"/><path id="path4785" class="st13" d="M251.17 135.38c.756 2.822-5.049 7.372-6.728 5.807-.434.553-1.37.912-1.553.227-.172-.642-.065-.488.055-3.487.052-1.4.22-5.722-.25-7.049l.004-.161-.006.011c.017-1.936.48-.847 2.535-2.228 5.894-4.03 8.173.219 3.412 4.03a34.15 34.15 0 0 1-2.116 1.54c1.72-.192 4.203-.341 4.646 1.31zm-6.58.274c-.06 1.615-.028 2.235 0 4.36 1-.157 1.743-.223 3.516-1.632 4.998-4.103-2.516-2.711-3.516-2.728zm.039-1.577c1.365-.88 2.771-2.106 3.99-3.175l-.01.003c1.317-1.248 1.137-3.128-1.527-1.79-3.172 1.534-1.978 1.947-2.4 2.947.012.167-.048 1.824-.053 2.015z"/><path id="path4787" class="st13" d="M261.166 130.782c-1.003.513-1.871.756-3.958 1.958-.317.183-1.058.533-1.412.436a1.102 1.102 0 0 0-.372-.051c-1.021 3.344.697 5.258-.758 5.648-4.037 1.083 1.45-19.075 6.593-14.433 2.006 1.812 1.816 8.764 1.444 10.87l.007-.01c0 .794-.01 1.417-.79 1.627-1.642.44-.649-1.718-.754-6.045zm-1.755-5.097c-1.779.477-3.271 4.298-3.391 5.298 1.154-.31 1.92-.438 5.053-1.988.036-1-.463-3.632-1.662-3.31z"/><path id="path4789" class="st13" d="M266.418 130.977c-.08-1.663.038-2.434.192-4.383.197-2.24-.8-4.7.919-4.314 2.664.544-2.393 12.933 3.181 10.452 2.55-1.123 4.68-6.157 3.514-12.475-.308-1.623 2.488-2.334 1.949 4.592-.714 10.203-9.392 13.268-9.756 6.128z"/><path id="path4791" class="st13" d="M279.158 131.4c-.267-.994-.005-12.598 1.063-12.884.756-.203.85.08 1.05.464 1-.341 6.819-4.062 6.366-1.84-.114.66-2.256 1.38-2.856 1.7l.01-.003a96.177 96.177 0 0 0-2.795 1.684c-1.001.741-1.158 1.922-1.167 4.41-.014.446.137.322.582.06 1.732-1.052 5.081-3.537 5.318-2.654.269 1-1.18 1.605-4.905 4.299-.363.271-.634.401-1.09.65-.104.726-.188 3.175.536 2.98 1.99-.533 3.21-2.147 4.21-2.875 1.434-1.073 3.185-.06-1.847 3.383-1.293.879-4.016 2.336-4.475.625z"/><path id="path4793" class="st13" d="M290.416 116.242c.553-.665 1.697-.183 2.226.45 1.294 1.555 6.426 10.523 6.303 7.35.004-1 .365-1.84.28-7.257-.046-4.155-1.105-5.455.57-5.154 2.06 1.657 1.52 17.142-1.43 15.105-6.202-4.212-6.619-13.247-6.815-5.286-.04 4.134.148 9.577-1.641 7.461-.344-.469-.09-11.988.507-12.669z"/><path id="path4795" class="st13" d="M312.617 120.94c1 .077 4.414.958 6.126-2.635 2.853-5.747-2.503-1.988-4.543-2.405-6.2-1.266 5.024-12.931 6.284-8.235.451 1.683-1.246.054-3.244 1.522-1.492 1.08-2.953 3.33-3.077 4.043-.213 1.485 1.312.896 2.312.597 3.962-1.303 5.283.727 4.312 3.656-3.15 9.146-10.159 3.97-8.17 3.457z"/><path id="path4797" class="st13" d="M324.088 106.924c.11-.513.492-.811.957-.936 1.974.454.084 3.074.835 12.186.082 1 .163 2.02-1.032 2.098-.306.037-.6-.367-.625-.71-.223-6.126-.132-12.582-.135-12.638z"/><path id="path4799" class="st13" d="M329.371 117.926c-.234-.872.064-3.795.097-5.688.063-3.647-.146-7.79 1.545-7.219.321.09.3.156.47.487 1-.341 6.82-4.062 6.367-1.84-.113.66-2.256 1.381-2.856 1.7l.01-.002c-.006.002-1.24.726-1.248.731-2.034 1.25-2.699 1.086-2.714 5.362-.012.421.071.361.582.06 1.732-1.052 5.082-3.537 5.319-2.653.28 1.046-1.47 1.719-3.664 3.37-1.662 1.23-1.318 1.024-2.331 1.579-.105.726-.188 3.174.535 2.98 1.99-.534 3.211-2.148 4.211-2.876 1.428-1.069 3.19-.063-1.848 3.384-1.357.922-4.022 2.312-4.475.625z"/><path id="path4801" class="st13" d="M298.982 144.72c.304-2.676.288-1.151.207-4.472-.002.001-4.96 2.379-5.02 2.395-.278.075-.417-.06-.722-.052-.711 2.33-.195 3.694-.118 4.694.036.558-.556 1.186-1.083.923-2.606-1.504 1.224-16.074 6.06-14.904 3.13.73 2.781 9.33 2.42 11.373l.007-.011c-.003 2.241-1.94 2.245-1.75.054zm-1.548-9.569c-1.76.473-3.268 4.274-3.391 5.299 1.174-.315 1.916-.436 5.053-1.989.037-1-.463-3.631-1.662-3.31z"/><path id="path4803" class="st13" d="M304.44 140.444c-.129-2.72.422-4.938.186-6.486-.125-.818-.36-1.97.442-2.185 3.695-.992-2.158 13.017 3.665 10.425 2.58-1.135 4.67-6.212 3.514-12.474-.31-1.634 2.485-2.305 1.949 4.591-.71 10.156-9.387 13.33-9.756 6.129z"/><path id="path4805" class="st13" d="M318.95 130.897c-.243.722-.236 3.507-.222 4.269 3.248-2.171 5.931-2.671 5.259-.94a.527.527 0 0 1-.195.26c-1.784.31-3.719 1.745-5.064 2.86.008.25.203 4.185.064 4.39-.154.267-.703.4-.965.098-.684-.836-.428-2.724-.677-3.65-.618-.514-.883-.982-.059-1.909 0 0 .151-6.878.52-7.52.206-.354.914-.41 1.081-.195l.131.173c1.113-.453 6.983-4.186 6.21-1.76-.205.57-1.284.926-1.853 1.185-.95.512-3.62 1.85-4.23 2.74z"/><path id="path4807" class="st13" d="M328.566 133.564c.053.823-1.43 1.322-1.742.156-.287-1.07.373-8.64 1.718-9.001 1.67-.448-.291 4.593.024 8.845zm.67 3.237c.453 1.688-2.07 2.803-2.526 1.102-.437-1.629 2.035-2.93 2.526-1.102z"/></svg>