<svg viewBox="0 0 400 300" xmlns="http://www.w3.org/2000/svg"><style>.st0{fill:#ecebf7}.st1{fill:#fff}.st2{fill:#2744a0}.st3{fill:#f14d3e}.st4{fill:#fff}.st5{font-family:&apos;Arial&apos;}.st6{font-size:18.666666px}.st7{font-family:&apos;Arial&apos;;font-weight:700}.st8{fill:none;stroke:#2744a0;stroke-width:.3211332;stroke-linecap:round;stroke-miterlimit:2.6129999}.st9{font-family:&apos;CenturyGothic&apos;}.st10{font-size:4.4952044px}.st11{fill:none;stroke:#2744a0;stroke-width:.3211332;stroke-linecap:round;stroke-linejoin:round}.st12{fill:#fff200}.st13{fill:#fff;stroke:#f14d3e;stroke-width:.6}</style><path d="M119.9 78.26c-3.392 12.878-9.825 32.097-21.627 53.268-38.83-22.498-54.24-49.264-54.24-49.264L-.002 93.623v127.26l1.897 7.31h75.988c-3.595-12.368-7.188-25.268-10.393-37.743 11.796 14.778 29.507 28.644 42.387 37.744h21.973c6.973-13.72 18.403-38.298 23.01-60.271l-.003-.004h.002v.004c5.123 20.137 9.985 41.577 14.031 60.27h77.292l-38.898-149.94zm97.395 0l38.67 149.94h77.834c-3.6-13.96-17.917-69.464-19.732-76.523 0 0 24.43 27.091 49.504 76.523h10.342l26.086-6.729v-79.95c-8.858-12.238-15.349-19.616-16.83-22.016 8.393-8.84 14.108-19.204 16.83-31.03v-10.21h-73.311c.529.967.971 2.053 1.287 3.273 1.59 6.17-.596 12.268-5.746 15.932l-.002.002c-2.75 1.955-9.537 3.707-9.537 3.707s-.294 15.193-4.695 26.994c-4.09-15.87-10.834-42.013-12.871-49.908z" fill="#ecebf7" fill-rule="evenodd"/><path class="st2" d="M236.21 87.148h53.092v22.47H236.21zM291.3 87.148h53.092v22.47H291.3zM236.21 135.15h53.092v22.47H236.21zM291.3 135.15h53.092v22.47H291.3zM263.59 111.19h53.092v22.47H263.59zM208.5 111.19h53.092v22.47H208.5zM318.68 111.19h53.092v22.47H318.68zM0 300h400v-71.804H0V300zM400 78.26H0V0h400v78.26z"/><path class="st3" d="M134.81 35.64h1.974c2.5 0 3.413-1.44 3.413-4.21 0-2.807-1.063-4.213-3.87-4.213h-1.517v8.423zm0-12.29h1.706c1.782 0 3.148-1.215 3.148-3.493 0-2.54-.987-3.867-3.072-3.867h-1.782v7.36zm-4.704-11.228h6.977c5.05 0 7.287 2.577 7.287 7.243 0 2.356-.986 4.82-3.264 5.728 2.39 1.065 3.795 2.963 3.795 6.49 0 4.513-2.011 7.927-7.362 7.927h-7.433V12.122zM153.32 29.343h3.794l-1.862-11.76h-.073l-1.859 11.76zm-1.519 10.168h-4.551l5.046-27.39h5.842l5.046 27.39h-4.555l-.832-6.07h-5.16l-.836 6.07zM165.91 12.122h4.707v20.674c0 2.008.797 2.998 2.503 2.998s2.504-.99 2.504-2.998V12.122h4.706v20.484c0 4.707-2.732 7.286-7.21 7.286-4.477 0-7.21-2.579-7.21-7.286V12.122zM184.88 12.122h4.703v20.674c0 2.008.798 2.998 2.505 2.998 1.708 0 2.505-.99 2.505-2.998V12.122h4.702v20.484c0 4.707-2.732 7.286-7.207 7.286-4.476 0-7.208-2.579-7.208-7.286V12.122zM203.85 39.511v-27.39h4.366l5.724 15.669h.078V12.121h4.247v27.39h-4.094l-5.992-17.11h-.08v17.11h-4.249zM225.55 16.219h-4.551v-4.098h13.807v4.098h-4.549v23.292h-4.707V16.219zM237.58 39.511v-27.39h12.591v4.098h-7.89v7.055h6.072v4.1h-6.072v8.039h8.419v4.098h-13.12zM259.13 24.411h1.664c2.546 0 3.492-.946 3.492-4.21 0-3.263-.946-4.21-3.492-4.21h-1.664v8.42zm0 15.1h-4.709v-27.39h6.6c5.277 0 7.973 2.236 7.973 8.08 0 4.402-1.71 6.184-3.301 6.906l3.98 12.404h-4.777l-3.343-11.342c-.602.075-1.59.114-2.423.114V39.51zM273.39 39.511v-27.39h4.367l5.726 15.669h.078V12.121h4.244v27.39h-4.094l-5.997-17.11h-.074v17.11h-4.25zM292.36 39.511v-27.39h12.594v4.098h-7.893v7.055h6.075v4.1h-6.075v8.039h8.42v4.098H292.36zM309.2 39.511v-27.39h4.707v11.153h5.007V12.121h4.7v27.39h-4.7V27.374h-5.007v12.137H309.2zM347.02 12.122v27.39h-4.1V18.118h-.074l-4.249 21.394h-2.273l-4.254-21.394h-.073v21.394h-4.101v-27.39h6.185l3.342 16.01h.07l3.345-16.01h6.182zM351.35 39.511v-27.39h12.592v4.098h-7.882v7.055h6.064v4.1h-6.064v8.039h8.417v4.098H351.35zM368.19 39.511v-27.39h4.36l5.73 15.669h.072V12.121h4.256v27.39h-4.1l-5.997-17.11h-.075v17.11h-4.246z"/><path class="st4" d="M143.67 46.662v19.413h-2.902V50.913h-.053l-3.012 15.162h-1.611l-3.012-15.162h-.055v15.162h-2.902V46.662h4.38l2.366 11.347h.054l2.367-11.347h4.38zM151.41 58.733c-2.74 1.56-3.413 2.556-3.413 3.817 0 .942.486 1.318 1.398 1.318.836 0 1.505-.62 2.015-1.343v-3.792zm-6.21-2.877c.162-2.931 2.019-4.517 4.841-4.517 2.797 0 4.381 1.29 4.381 3.926v9.275c0 .458.108 1.047.19 1.534h-2.878c-.026-.405-.135-.783-.162-1.129-1.129.91-2.069 1.396-3.519 1.396-2.044 0-3.069-1.396-3.069-3.253 0-3.175 2.1-4.92 6.426-6.558v-.862c0-1.21-.482-1.854-1.478-1.854-1.37 0-1.669.809-1.719 2.042H145.2zM156.41 66.074V51.61h2.875v1.692h.053c.728-1.237 1.991-1.963 3.417-1.963h.619v3.146c-.54-.137-1.051-.296-1.934-.296-1.023 0-2.017.644-2.017 1.937v9.948h-3.013zM170.5 56.555v-.376c0-1.668-.591-2.367-1.667-2.367-1.074 0-1.667.699-1.667 2.367v5.32c0 1.669.593 2.367 1.667 2.367 1.076 0 1.667-.698 1.667-2.367v-.913h3.013v.377c0 3.173-1.239 5.378-4.68 5.378s-4.674-2.205-4.674-5.378v-4.247c0-3.174 1.233-5.378 4.674-5.378 3.388 0 4.625 2.125 4.68 5.217H170.5zM184.24 51.61v14.464h-2.85v-1.453c-1.262 1.077-1.907 1.721-3.657 1.721-1.582 0-2.526-1.155-2.526-3.036V51.61h3.011v11.21c0 .728.43 1.047 1.075 1.047.647 0 1.236-.402 1.938-.912V51.61h3.01zM191.58 55.614c-.215-1.157-.752-1.8-1.721-1.8-.78 0-1.318.404-1.318 1.151 0 2.263 5.645 3.177 5.645 7.478 0 2.583-1.772 3.899-4.218 3.899-2.638 0-4.142-1.508-4.597-4.034l2.632-.727c.187 1.213.62 2.286 1.993 2.286.78 0 1.344-.454 1.344-1.261 0-2.501-5.648-3.442-5.648-7.396 0-2.284 1.773-3.871 4.033-3.871 2.365 0 3.95 1.587 4.406 3.848l-2.551.427zM203.91 55.371h1.193c1.798 0 2.471-.67 2.471-2.983 0-2.309-.673-2.983-2.471-2.983h-1.193v5.966zm0 10.703h-3.332V46.663h4.682c3.733 0 5.645 1.586 5.645 5.726 0 3.116-1.207 4.384-2.338 4.894l2.82 8.79h-3.389l-2.36-8.037c-.43.053-1.132.083-1.728.083v7.955zM212.85 51.609h3.013v14.464h-3.013V51.609zm0-4.947h3.013v2.742h-3.013v-2.743zM223.92 56.933v-.753c0-1.669-.594-2.367-1.671-2.367-1.069 0-1.661.699-1.661 2.367v.753h3.332zm3.01 2.473h-6.342V61.5c0 1.668.592 2.367 1.66 2.367 1.078 0 1.672-.699 1.672-2.367v-.32h3.01c-.054 3.064-1.321 5.162-4.682 5.162-3.438 0-4.671-2.205-4.671-5.378v-4.248c0-3.173 1.233-5.377 4.671-5.377 3.442 0 4.681 2.204 4.681 5.377v2.69zM234.65 54.567c-.591-.43-1.129-.753-1.72-.753-.806 0-1.447.43-1.447 2.339v5.377c0 1.907.641 2.338 1.447 2.338.591 0 1.13-.321 1.72-.753v-8.548zm.162 11.507v-1.506h-.054c-.995 1.261-1.722 1.773-3.226 1.773-1.88 0-3.063-1.396-3.063-4.034V55.37c0-2.63 1.182-4.032 3.063-4.032 1.316 0 1.938.538 3.118 1.506v-6.183h3.014v19.413h-2.852zM245.7 56.933v-.753c0-1.669-.594-2.367-1.668-2.367-1.075 0-1.667.699-1.667 2.367v.753h3.335zm3.006 2.473h-6.341V61.5c0 1.668.592 2.367 1.667 2.367 1.074 0 1.668-.699 1.668-2.367v-.32h3.006c-.05 3.064-1.313 5.162-4.674 5.162-3.442 0-4.678-2.205-4.678-5.378v-4.248c0-3.173 1.236-5.377 4.678-5.377s4.674 2.204 4.674 5.377v2.69zM250.42 46.662h3.014v19.413h-3.014V46.662zM260.8 55.614c-.218-1.157-.75-1.8-1.724-1.8-.775 0-1.316.404-1.316 1.151 0 2.263 5.646 3.177 5.646 7.478 0 2.583-1.775 3.899-4.218 3.899-2.637 0-4.138-1.508-4.603-4.034l2.637-.727c.19 1.213.62 2.286 1.994 2.286.772 0 1.34-.454 1.34-1.261 0-2.501-5.645-3.442-5.645-7.396 0-2.284 1.776-3.871 4.035-3.871 2.36 0 3.951 1.587 4.405 3.848l-2.551.427zM264.73 66.074V46.661h3.008v6.29c1.107-.965 1.75-1.612 3.492-1.612 1.594 0 2.533 1.157 2.533 3.039v11.696h-3.011V54.86c0-.725-.434-1.048-1.076-1.048-.647 0-1.238.404-1.938.917v11.343h-3.008zM281.8 56.933v-.753c0-1.669-.591-2.367-1.665-2.367-1.076 0-1.67.699-1.67 2.367v.753h3.335zm3.014 2.473h-6.35V61.5c0 1.668.595 2.367 1.67 2.367s1.666-.699 1.666-2.367v-.32h3.014c-.051 3.064-1.322 5.162-4.68 5.162-3.442 0-4.677-2.205-4.677-5.378v-4.248c0-3.173 1.235-5.377 4.678-5.377 3.444 0 4.68 2.204 4.68 5.377v2.69zM286.54 51.609h3.005v14.464h-3.005V51.609zm0-4.947h3.005v2.742h-3.005v-2.743zM297.42 66.074V54.861c0-.725-.458-1.048-1.046-1.048-.647 0-1.24.404-1.937.917v11.343h-3.015V51.609h2.85v1.45c1.266-1.074 1.915-1.721 3.34-1.721 1.503 0 1.986.538 2.63 1.721 1.453-1.4 2.263-1.721 3.364-1.721 1.878 0 2.819 1.157 2.819 3.039v11.696h-3.01V54.86c0-.725-.481-1.048-1.076-1.048-.644 0-1.234.404-1.903.917v11.343h-3.016zM314.49 56.933v-.753c0-1.669-.593-2.367-1.664-2.367-1.076 0-1.67.699-1.67 2.367v.753h3.334zm3.01 2.473h-6.344V61.5c0 1.668.594 2.367 1.67 2.367 1.071 0 1.664-.699 1.664-2.367v-.32h3.01c-.055 3.064-1.315 5.162-4.674 5.162-3.444 0-4.677-2.205-4.677-5.378v-4.248c0-3.173 1.233-5.377 4.677-5.377 3.44 0 4.673 2.204 4.673 5.377v2.69zM319.2 66.074V51.61h2.875v1.692h.049c.728-1.237 1.992-1.963 3.413-1.963h.623v3.146c-.539-.137-1.047-.296-1.94-.296-1.017 0-2.012.644-2.012 1.937v9.948H319.2zM336.77 56.233h5.459v9.84h-1.614l-.619-1.453c-.993 1.182-1.8 1.72-3.357 1.72-2.637 0-4.466-1.88-4.466-4.97V51.365c0-2.743 1.616-4.974 4.896-4.974 3.328 0 5 2.418 5 5.323v1.237h-3.174c0-2.903-.59-3.658-1.91-3.658-.808 0-1.48.486-1.48 2.125v9.976c0 1.235.404 2.041 1.564 2.041 1.344 0 1.826-.753 1.826-2.688v-1.882h-2.125v-2.633zM350.4 66.074V54.861c0-.725-.455-1.048-1.046-1.048-.644 0-1.238.404-1.937.917v11.343h-3.01V51.609h2.846v1.45c1.267-1.074 1.912-1.721 3.337-1.721 1.508 0 1.991.538 2.637 1.721 1.453-1.4 2.255-1.721 3.357-1.721 1.887 0 2.825 1.157 2.825 3.039v11.696h-3.012V54.86c0-.725-.484-1.048-1.074-1.048-.643 0-1.238.404-1.906.917v11.343H350.4zM364.31 63.115c.59.432 1.129.752 1.718.752.808 0 1.455-.43 1.455-2.338v-5.378c0-1.906-.647-2.338-1.455-2.338-.59 0-1.129.322-1.718.754v8.548zm-3.013 2.958V46.662h3.013v6.182c1.185-.968 1.8-1.506 3.115-1.506 1.88 0 3.069 1.402 3.069 4.032v6.937c0 2.637-1.19 4.034-3.069 4.034-1.507 0-2.23-.511-3.224-1.773h-.053v1.505h-2.85zM372.34 66.074V46.661h3.332v7.905h3.554v-7.905h3.33v19.413h-3.33v-8.605h-3.554v8.605h-3.332zM56.982 38.726c-.042 12.678-.964 27.408-.964 27.408l18.762.003-.078-54.22H56.02s-2.847 7.208-10.112 14.842c-7.752-7.628-9.748-14.842-9.748-14.842H17.39l.076 54.22 18.692-.003s-1.055-14.73-1.047-27.408C38.355 45.966 45.94 53.66 45.94 53.66s7.465-7.695 11.04-14.934M113.5 41.182c2.732-1.709 4.837-4.038 6.189-7a16.084 16.084 0 0 0 1.353-6.427c0-5.81-3.318-13.285-12.669-15.226-2.44-.517-4.668-.612-8.178-.612H77.062v54.22h18.27V44.554s4.227 8.083 7.122 21.583h18.76c-2.316-14.464-7.259-23.476-7.714-24.954"/><path class="st3" d="M100.53 32.323c-.769.293-2.467.293-2.467.293s-.991 3.544-2.736 6.055V25.545h1.695c1.434 0 3.397 0 4.436.751.703.434 1.383 1.32 1.383 2.638 0 1.54-.884 2.84-2.311 3.389"/><text class="st4 st5 st6" x="7.65" y="247.75" lengthAdjust="spacingAndGlyphs" textLength="148.413">www.riedelsheimer.de</text><text class="st4 st5 st6" x="7.65" y="270.04" lengthAdjust="spacingAndGlyphs" textLength="151.092">info@riedelsheimer.de</text><text class="st4 st5 st6" x="7.65" y="292.33" lengthAdjust="spacingAndGlyphs" textLength="99.704">Am Rapsfeld 2</text><text class="st4 st5 st6" x="215.36" y="247.89" lengthAdjust="spacingAndGlyphs" textLength="166.004">Tel. (0 82 03) 96 31 33-0</text><text class="st4 st5 st6" x="215.36" y="270.18" lengthAdjust="spacingAndGlyphs" textLength="175.374">Fax (0 82 03) 96 31 33-99</text><text class="st4 st5 st6" x="215.36" y="292.47" lengthAdjust="spacingAndGlyphs" textLength="133.857">86845 Großaitingen</text><text class="st3 st7 st6" x="31.75" y="99.25" lengthAdjust="spacingAndGlyphs" textLength="114.534">Rohbauarbeiten</text><text class="st3 st7 st6" x="31.75" y="129.04" lengthAdjust="spacingAndGlyphs" textLength="109.421">Umbauarbeiten</text><text class="st3 st7 st6" x="31.75" y="158.83" lengthAdjust="spacingAndGlyphs" textLength="91.255">Sanierungen</text><text class="st3 st7 st6" x="31.75" y="188.63" lengthAdjust="spacingAndGlyphs" textLength="175.009">schlüsselfertiges Bauen</text><text class="st3 st7 st6" x="31.75" y="218.42" lengthAdjust="spacingAndGlyphs" textLength="127.13">Autokran-Dienste</text><path class="st3" d="M20.368 89.423a2.57 2.57 0 0 1 2.584 2.57c0 1.426-1.156 2.583-2.584 2.583s-2.57-1.157-2.57-2.583a2.558 2.558 0 0 1 2.57-2.57M20.368 119.61a2.57 2.57 0 0 1 2.584 2.57c0 1.426-1.156 2.583-2.584 2.583s-2.57-1.157-2.57-2.583a2.558 2.558 0 0 1 2.57-2.57M20.368 149.8a2.57 2.57 0 0 1 2.584 2.57c0 1.426-1.156 2.583-2.584 2.583s-2.57-1.157-2.57-2.583a2.558 2.558 0 0 1 2.57-2.57M20.368 179.99a2.57 2.57 0 0 1 2.584 2.57c0 1.426-1.156 2.583-2.584 2.583s-2.57-1.157-2.57-2.583a2.558 2.558 0 0 1 2.57-2.57M20.368 210.17a2.57 2.57 0 0 1 2.584 2.57c0 1.426-1.156 2.583-2.584 2.583s-2.57-1.157-2.57-2.583a2.558 2.558 0 0 1 2.57-2.57"/><path class="st13" d="M246.57 116.94c-.06-2.4.525-5.044.49-7.813 0-.725-.173-1.36.519-1.546 1.84-.493 1.237 2.517 1.104 3.517-2.107 15.794 3.837 5.59 4.402-1.53.132-.725 1.537-.61 1.445.461-.493 7.354 2.725 10.313 3.735 2.14.697-5.147-.917-8.53.577-8.93 1-.27 1.243 1.214 1.308 4.98.172 8.075-4.007 15.44-6.973 7.005-2.937 8.538-6.469 7.53-6.607 1.716zM264.59 102.54c1.995.459.074 2.953.835 12.186.028.339.045.683.05 1.034.019 1.03-1.621 1.586-1.706.354-.5-13.709-.23-13.292.821-13.574zM268.52 102.65c-.443-1.65-.192-1.634 4.994-2.737 3.239-.689 6.462 1.606.664 7.013-.155.149-.26.259-.317.33 1.384.267 2.81.565 5.377 3.578.74.836-.219 2.16-1.027 1.625-1.316-.87-3.1-4.985-6.887-3.229-.474-.037-.654-.36-.77-.794.056 4.172.014 5.96.014 5.96-.254 1-1.507 1.068-1.56-.43-.268-1 .338-8.236-.488-11.316zm2.146.226c-.063 2.171-.075 3.459-.117 5.297.234-.562 1.375-1.273 1.873-1.672 6.781-5.598 1.47-5.873-1.756-3.625zM251.17 135.38c.757 2.822-5.048 7.372-6.728 5.806-.433.554-1.369.913-1.552.228-.173-.642-.066-.488.055-3.487.052-1.4.22-5.722-.25-7.049l.004-.161-.007.011c.018-1.936.482-.847 2.536-2.228 5.894-4.03 8.173.219 3.412 4.03a34.16 34.16 0 0 1-2.116 1.54c1.72-.192 4.202-.341 4.645 1.31h.001zm-6.58.274c-.06 1.615-.027 2.235 0 4.36 1-.157 1.743-.223 3.516-1.632 4.998-4.103-2.515-2.711-3.516-2.728zm.04-1.577c1.364-.88 2.77-2.106 3.989-3.175l-.009.003c1.316-1.248 1.137-3.128-1.527-1.79-3.172 1.534-1.979 1.947-2.4 2.947.011.167-.048 1.824-.053 2.015zM261.17 130.78c-1.002.513-1.87.756-3.957 1.958-.318.183-1.059.533-1.412.436a1.102 1.102 0 0 0-.372-.051c-1.022 3.344.696 5.258-.759 5.648-4.036 1.083 1.45-19.076 6.593-14.433 2.007 1.812 1.817 8.765 1.445 10.871l.006-.01c0 .794-.009 1.417-.79 1.627-1.642.44-.648-1.718-.754-6.045zm-1.755-5.097c-1.778.477-3.271 4.298-3.39 5.298 1.154-.31 1.92-.438 5.052-1.988.037-1-.463-3.632-1.662-3.31zM266.42 130.98c-.08-1.663.038-2.434.192-4.383.198-2.24-.8-4.7.919-4.314 2.664.544-2.393 12.933 3.182 10.452 2.549-1.122 4.679-6.157 3.513-12.475-.308-1.623 2.488-2.335 1.95 4.592-.715 10.203-9.392 13.268-9.756 6.128zM279.16 131.4c-.267-.994-.005-12.597 1.063-12.884.756-.203.851.08 1.05.464 1-.341 6.82-4.062 6.367-1.84-.114.66-2.256 1.38-2.856 1.7l.009-.002a96.074 96.074 0 0 0-2.795 1.684c-1 .74-1.158 1.922-1.167 4.409-.013.446.137.323.583.06 1.731-1.052 5.08-3.537 5.318-2.653.268 1-1.18 1.604-4.906 4.298-.362.271-.634.401-1.09.65-.104.726-.187 3.175.536 2.98 1.99-.533 3.211-2.147 4.211-2.875 1.433-1.073 3.184-.059-1.847 3.384-1.294.878-4.016 2.336-4.476.625zM290.42 116.24c.552-.666 1.697-.184 2.225.45 1.295 1.554 6.426 10.522 6.304 7.35.004-1 .365-1.84.28-7.257-.046-4.156-1.105-5.455.57-5.155 2.06 1.658 1.52 17.142-1.43 15.105-6.202-4.212-6.62-13.247-6.816-5.286-.04 4.135.148 9.577-1.64 7.461-.344-.469-.09-11.988.507-12.668zM312.62 120.94c1 .077 4.414.958 6.125-2.635 2.854-5.747-2.502-1.988-4.542-2.404-6.2-1.267 5.023-12.931 6.283-8.236.452 1.683-1.246.054-3.244 1.522-1.492 1.08-2.952 3.33-3.076 4.044-.214 1.485 1.311.896 2.311.597 3.963-1.303 5.284.726 4.313 3.655-3.15 9.147-10.16 3.97-8.17 3.457zM324.09 106.92c.11-.514.492-.812.957-.936 1.974.454.084 3.074.835 12.186.082 1 .163 2.02-1.032 2.098-.306.037-.6-.367-.625-.71-.223-6.126-.133-12.582-.135-12.638zM329.37 117.93c-.234-.872.064-3.795.097-5.688.063-3.647-.146-7.79 1.545-7.219.321.09.3.157.47.487 1-.34 6.82-4.062 6.367-1.84-.113.66-2.256 1.381-2.856 1.7l.01-.002c-.006.002-1.24.727-1.248.731-2.034 1.25-2.699 1.086-2.714 5.362-.012.421.071.362.583.06 1.731-1.051 5.08-3.537 5.318-2.653.28 1.046-1.47 1.719-3.663 3.37-1.663 1.23-1.319 1.024-2.332 1.58-.105.725-.188 3.173.535 2.98 1.99-.535 3.211-2.149 4.211-2.877 1.428-1.069 3.19-.063-1.848 3.384-1.357.922-4.022 2.312-4.475.625zM298.98 144.72c.304-2.676.287-1.151.206-4.472-.001.001-4.96 2.379-5.02 2.395-.278.074-.417-.06-.721-.052-.712 2.33-.196 3.693-.118 4.693.036.559-.557 1.187-1.083.923-2.607-1.503 1.223-16.074 6.06-14.904 3.129.732 2.78 9.33 2.42 11.374l.007-.01c-.003 2.24-1.941 2.244-1.75.054zm-1.548-9.569c-1.76.472-3.269 4.274-3.392 5.298 1.175-.315 1.917-.436 5.054-1.988.037-1-.464-3.632-1.662-3.31zM304.44 140.44c-.13-2.719.421-4.938.185-6.486-.125-.818-.36-1.97.442-2.185 3.695-.992-2.158 13.017 3.666 10.426 2.579-1.136 4.669-6.212 3.513-12.475-.31-1.634 2.486-2.305 1.95 4.592-.712 10.156-9.388 13.33-9.756 6.128zM318.95 130.9c-.244.722-.236 3.507-.223 4.269 3.249-2.172 5.932-2.672 5.26-.94a.527.527 0 0 1-.195.26c-1.785.31-3.72 1.745-5.065 2.86.008.25.203 4.184.064 4.39-.154.266-.703.4-.964.098-.685-.836-.43-2.725-.678-3.65-.618-.515-.883-.982-.059-1.909 0 0 .151-6.878.521-7.52.205-.355.913-.41 1.08-.195l.131.173c1.113-.453 6.983-4.187 6.21-1.76-.205.57-1.284.926-1.853 1.185-.95.512-3.62 1.849-4.229 2.739zM328.57 133.56c.053.823-1.43 1.321-1.742.156-.287-1.07.373-8.64 1.718-9.002 1.67-.448-.29 4.594.024 8.846zm.67 3.236c.453 1.689-2.07 2.804-2.526 1.103-.437-1.63 2.036-2.931 2.526-1.103z"/><g fill="#2744a0"><path d="M368.004 160.577v2.313c0 .305.457.305.457 0v-2.313c-.004-.302-.457-.303-.457 0zM332.258 217.43l2.11-.603-.645 1.617-1.066.309c.184 1.522-.63 3.417-2.448 4.155-3.352 1.352-6.662-1.938-5.352-5.223 1.3-3.26 5.883-3.306 7.401-.254zm-1.44.414c-1.18-1.731-3.853-1.567-4.626.373-1.252 3.138 3.615 5.09 4.874 1.933.13-.324.188-.655.175-.991l-2.162.622.65-1.626zM326.888 213.119l.546-1.369 4.636 1.85c.56.223.989.366 1.426.05.326-.25.544-.777.46-1.212-.096-.52-.43-.708-1.213-1.02l-4.466-1.781.546-1.37c4.484 1.79 5.244 2.051 5.723 2.425 1.813 1.414.577 4.497-1.466 4.609-.822.042-1.755-.412-6.192-2.182zM330.203 204.808l.552-1.383 8.264.101-.565 1.418-1.7-.03-1.165 2.923 1.243 1.173-.566 1.418zm2.18.057l2.078 1.935.76-1.904zM332.155 199.915l.544-1.364 5.864 2.34.793-1.988 1.3.52-1.336 3.35zM333.741 195.938l.54-1.354 7.165 2.858-.54 1.354zM334.486 194.07l1.58-3.96 1.344.537-.52 1.305 5.82 2.322-.552 1.383-5.82-2.322-.507 1.271zM337.186 187.303l.552-1.383 8.264.101-.566 1.417-1.699-.028-1.165 2.922 1.242 1.173-.565 1.417zm2.18.056l2.078 1.936.76-1.904zm-4.286-.438c.372-.931 1.767-.367 1.398.557-.368.923-1.764.36-1.398-.557zm.861-2.158c.369-.924 1.769-.373 1.398.558-.366.917-1.766.364-1.398-.558zM338.856 183.115l1.58-3.96 1.343.536-.52 1.306 5.82 2.321-.552 1.383-5.82-2.321-.507 1.27zM342.545 173.872l.552-1.384 8.264.102-.565 1.417-1.7-.029-1.165 2.923 1.242 1.173-.565 1.417zm2.18.056l2.078 1.936.76-1.905zM344.772 168.287l.533-1.334 5.657.337-4.327-3.674.525-1.315 7.646 1.65-.524 1.315-4.832-1.035 3.916 3.33-.48 1.202-5.124-.3 4.211 2.59-.53 1.329zM341.62 222.727l-7.164-2.858c.46-1.152.779-2.025 1.147-2.507.996-1.34 2.916-1.072 3.359.567 1.602-1.498 3.616-.27 3.758 1.335.059.738-.275 1.397-1.1 3.463zm-5.32-3.703l1.51.602c.139-.345.332-.752.203-1.116-.146-.425-.696-.664-1.095-.453-.342.175-.474.608-.617.967zm2.728 1.088l1.836.733c.161-.404.486-1.142.377-1.567-.134-.535-.847-.8-1.374-.491-.438.258-.676.918-.839 1.325zM337.512 212.211l.552-1.383 8.264.101-.566 1.417-1.699-.028-1.166 2.922 1.243 1.173-.565 1.417zm2.179.056l2.079 1.936.76-1.904zM339.444 207.367l.546-1.368 4.637 1.85c.58.23 1.404.527 1.805-.478.438-1.098-.503-1.453-1.133-1.705l-4.466-1.781.546-1.369 4.272 1.704c.955.381 2.302.865 2.338 2.53.01.754-.387 1.78-1.128 2.334-1.006.735-1.876.493-3.145-.013zM342.88 198.755l1.56-3.911 1.334.532-1.02 2.557 1.296.517 1.02-2.557 1.31.523-1.02 2.557 1.885.751 1.02-2.557 1.34.535-1.56 3.91zM350.828 195.612c.407-1.02 1.923-.39 1.525.608-.403 1.009-1.93.407-1.525-.608zM344.789 193.971l.56-1.402 5.808.228-4.361-3.857.56-1.402 6.134 5.439-.525 1.315zM352.877 190.48c.407-1.02 1.923-.39 1.525.608-.404 1.011-1.927.401-1.525-.608z"/><path d="M344.734 160.32a.228.228 0 0 0-.212.143l-26.096 64.549a.228.228 0 0 0 .212.313h51.435a.228.228 0 0 0 .212-.143l26.011-64.549a.228.228 0 0 0-.211-.314h-26.69a.228.228 0 1 0 0 .457h26.35l-25.826 64.091h-50.942l25.912-64.09h22.168a.228.228 0 1 0 0-.458z"/><path d="M368.264 163.693a4.28 4.28 0 0 0-4.27 4.27 4.279 4.279 0 0 0 2.795 4c-5.363.375-10.735 2.342-15.347 5.957a.688.688 0 0 0-.215.792l16.443 41.687c.227.577 1.045.575 1.273.003l16.633-41.685c.11-.251.053-.571-.224-.807-4.388-3.728-9.859-5.745-15.496-5.99a4.28 4.28 0 0 0 2.678-3.958 4.28 4.28 0 0 0-4.27-4.27z"/></g><g fill="#fff200"><path d="M368.264 165.064c1.61 0 2.9 1.29 2.9 2.9s-1.29 2.898-2.9 2.898-2.899-1.29-2.899-2.899 1.29-2.899 2.9-2.899zM368.796 173.263c5.057.022 9.994 1.555 14.12 4.51h-28.901c4.553-3.038 9.715-4.533 14.78-4.51zM352.872 179.146h31.056l-15.618 39.143z"/></g><text transform="rotate(-67.905 319.758 -121.93) scale(.27428)" x="-10.419" y="22.878" fill="#2744a0" font-family="Arial" font-size="13.75" letter-spacing="0" word-spacing="0" style="line-height:125%" lengthAdjust="spacingAndGlyphs" textLength="250.5"><tspan x="-10.419" y="22.878" font-family="'Century Gothic'" font-size="17.333">FREIWILLIGE SELBSTKONTROLLE</tspan></text></svg>