<svg xmlns="http://www.w3.org/2000/svg" id="Ebene_1" viewBox="0 0 400 300" width="400" height="300"><style id="style2">.st0{fill:#003f80}.st1{fill:#ffd400}</style><g id="g4531" transform="translate(3.5 -184.3) scale(.71577)"><path id="path4" d="M64.1 339.3c.8-1 1-.9.9-1.3.5-.7 1.4-1.1.8-.3l1.8-1.7-1.2.9c.1-.5 1.9-1.4 2-2l-2.1 1.7v-.3l-1.9 1.7c0-.1.4.2-1.5 2.1.4-.5 1.4-1.2 1.2-.8zm-4 2.3l-1.9 2.4c.1.1-.8 1.2-.1.6l.5-.6c.1.4-2.1 2.6-1.5 2.4.9-1.4 1.6-2 2.1-2.8l2.2-2.1c.7-.6.1-.4.8-1.3l-1.7 1.3s.4-1.3 2.9-2.9c-4.3 2.6-5.5 4.3-5.8 4.8.8-.8.8-.5 2.5-1.8zM84.4 476c.4.2.6.2.7.1l-4.5-2.3c.1.2 1.3 1 .4.6.4.4 1.5.9 1.8.8h-.4c1.2.3 1.7 1.1.9.8l3.4.7c-1.1-.5-1-.1-2.3-.7zm-18.6-5l2.1 1.2c-.3-.1.6.6.1.4l.7.4-.4-.3c1.2.5.7-.1 2.6.9-1-1-4.1-2.4-5.1-2.6zm40.9 10.3c.5-.3 2.7 0 3.3.2 1.1.5 2.2.5 3.1.5.9 0 1.7 0 2.3.3 1.4 0 1.3-.2 2.1-.3.1-.2-.4-.2-1-.3-.6-.1-1.2-.2-1.3-.1l-1.2-.1c1.1.2-.2.4-.8.4-.4 0-1.3-.1-1.2-.2h.7c-.9-.2-1.9.1-2.8-.2l.4-.1c-1.2.2-2.2 0-3.6-.1l.9-.2c-1.7.3-4.3-.5-5.8-1 .2.1.6.2.3.2-.6-.1-1-.2-1.3-.4-.3-.1-.3-.3 0-.3-1.1 0-4-1.3-5.5-1.4-3.7-.2-7.4-.6-8.4-.8.3.1 3 .5 1.7.9 1.1.3.8-.2 2.3.4-1-.1-1.9 1.3 10.8 2.1.1.3 1.9.8 3.3 1-.6.2-.6.2-1.7 0l2.6.4c.4-.1.5-.3.5-.3" class="st0" fill="#003f80"/><path id="path6" d="M110.6 482.7c-1.4-.1-.1.2-2 0l.5.2c-1 0-4.5-.6-5.4-.8.2-.1-.9-.4-.7-.6l-2.8-.3c-.7-.3-1.7-.3-2.6-.6.3.2-1.3.1.8.5h-.2c1.3.5 1.9.4 3.1.6 1 .4-3.4-.4 2.3.7 1 .2 1.7.2 1.7 0 4.4.6 7.9 1.3 7.9.7l-2.3-.3-.3-.1zm-34.4-13.8c2.4 1 3.2 1.7 6.3 3.4.2.2-.2 0-.3 0 1 .6 4.3 2.2 5.8 2.6.6.2 2 1 1.4.9.3.1.2.1.1.2.3.1.7.9-1.4 0-.6-.7 1.4.6 1.1 0-.7-.3-.7-.1-.7-.1-.8-.4-.8-.5-.7-.5-.4 0-1.4-.6-1.9-.7-1.6-.8-.3.1-1.4-.4l-.3-.3c-5.3-2.9-1.2.1-4.7-1.5.5 0-.5-.9-1.7-1.8.9.6 2.5 1.2 3.3 1.7-1.3-1.1-.8-.6-1.6-1.2l.5.1c-1-.6-3.1-1.6-5.1-1.8-.7-.4.6-.1 1.6-.3-.3-.1-.3-.3-.3-.3zM46.1 359.4l-.1.2zm15.6 107l.7.5-.7-.5zM56.4 346c-.2-.3 1.3-1.7 1.5-2-.4.3 0-.3-.2-.3l-1.1 1c.6-1.1 1.2-1.7.7-1.2-2.6 2.9-2.5 3-3.8 5.6.9-1.2 2-2.9 2.9-3.7v.6c-1.2.9-.4.4-.4.4 1.1-.9 2.2-2.4.4-.4zm.3 3.8l.1-.1zm-2.1.6c-.1 0-.1 0 0 0zm6.3 107.4zm0 0zm-15.1-19.3v.1zm-6.4-14l.1.2-.1-.2z" class="st0" fill="#003f80"/><path id="path8" d="M38.8 421.3l.1.2c-.3-.7-.4-1.3-.5-2-.2-.7-.3-1.2-.5-1.3.1.4.3 2.4.1 2.1.2.8.3 2 .5 2.4-.2-1.3.2-.2.5.6.1.8-.3.7-.2 1.4l.8 3-.2-3.2-.1-.2c-.7-2.6.4-.3-.5-3z" class="st0" fill="#003f80"/><path id="path10" d="M44.2 367.8l.3-.2c-.6 2.1-1.9 3.1-2.2 5.2a7 7 0 0 1-1 1.2l.4-.9c1.1-4.3 1.4-1.9 2.5-5.3zm21.7 101.8zm-19.7-26.9l1 1.5-.1-.2 1.1 1.4c-.5-1-.6-1.7.3-.5-.2-.1 0 .4-.4 0 .3.8 1.5 3 1.5 2.2-1.4-1.5.2-.6-.9-1.8l1.5 1.9c-1-.9.3 1.8 2 3.8 0-.4.6.2-.2-1 .4.4.9 1 1.3 1.8-.2-.3-.6-.8-.7-.7.2.6.6 1.2.8 1.5l.6.7-.1-.2.8.7c-.9-1-.3-.5-.2-.6-.2.1.5.7.8 1l-.4-.9c.4.3.9 1.4 1 1.1l-3-3.8.3.8c-1.4-1.7-.5-1.3-1.9-3.3l-1.3-1.8c-.4-.7-.8-1.2-1-1.1.3.2-.5-1.5-1-2.1-.8-.6-.4.2-.3.8l-1.3-2.2.3.9c-.2-.3-.3-.2-.5.1zm-3-5.3c.4-4.2-3.3-8.1-3.5-9.1 2 .8 2.1 3.1 2.1 3.1-.4-2-1.8-3.9-2.3-6.7.6 1.2.5 1.1 1.4 2.4l-.6-1.3c.4.3-.2-1-.4-2l.6.8c.1.6-.9-4.4-.8-4.5l1.5 7.7c.1.7.4 1.7.7 2.3.1-.1-.1-.8-.3-1.4-.1-.5-.2-1 .2-.4-.5-1-.3-1.2-.7-2.3.5 1 .4.2.8.9l-.6-1.8c.1-.1 1 2.6.8 1a5 5 0 0 1-.5-1.6c-.2-.6-.3-1.1-.5-1l.1-.1c-.3-1.4-.5-.5-.8-2.2v1c.2.5.4.5.7 1.6-.1.5-.3-1.3-.5-.5l.3 1.4c.2.5.3 1 0 .6-.1-.5-.3-.9-.3-1.4-.3 0-.5-1-.7-.9-.3-.8-.2-1.7-.7-2.5-.2-.3-.4.4-.6-1.1.1-1-.5-5.1-1-6.9-.2.1.4 2.6 0 1.4-.1-.6-.5-1.1-.7-1.7l-.3-1.6c.2.5.7 1.4 1.1 1.5l.1-1.4c0-1.7-.5-1.6-.6-2-.5-1.6-.2 1.7-.5 1.5l-.5-4.9c.1.4.2.8.3.7.1-1.2.2 0 .1-1.7-.4.1-.2-2.1-.4-3.3.2-.6.2-.7.2.6.3-.2.2-3.3.1-3.6-.2.5-.3.3-.3-.8v-.1c-.3 1.7-.5 4.4-.3 5.5l-.1-.3c-.2 1.3 0 2.1.1 3.1s.2 1.8 0 2.3c-.2-.1 0 .4-.3.4l.3 1.5-.1-.3.3 2.5-.1-.1 1 2.8c.3 0 .4.9.5 1.2h.2c0 .6.3 1.2.4 2-.2-.8-.8-1.7-1-2.5-.2-.2-.2.2-.1 1.3-.1-.5-.5-.8-.4-.2 0 .1.4 1.5.5.9.3 1.1.4 2.6.7 4.1.3 1.6 1.7 6.8.8 4.2.2 1.9 1 2.3.6 2 .6 2.6 2.5 5.6 3.3 7.8l-.2.2.9 1.9zm-5.6-50.8l-.1-.2-.5 9.2c.2-.3.8-2.8.8-3.1l.2.8-.3.5.1 1.4.5-2.2-.1-3.1-.4 1.8.6-3.9c-.1 0-.5 1.5-.5 1.2 0-.3 0-.5-.2.1.1-1.8 1.2-5.9 1.7-7.1-.4 1.7.5.4.1 1.8.2-.4.3-.5.6-1.9-.1-1.2.6-1.3.5-2.5.4-.7 0 .8.5-.5.3-1.6-1.1 1.4-1.6 2.6-.1-1.6 1-2.8 1-4-.2.8-.8 1.4-.8 1.7.2-1.1.6-1.1.7-2.6a9.4 9.4 0 0 1-1 2.7l-.1-.2c-.3.4-.4 1.3-.4 1.7-.3 1.3-.4 2.5-.7 2.8l-.3-1c-.4 1.4.1 2-.3 4zM65 464c-.6-.1-1.8-1.3-2.1-1.1-.3 0 1.2 1.3 1.4 1.5l.3.1c-.3-.4-.5-.6-.2-.7.6 1.2 1.1.5 2 1.5.5.1-1-1.1-1.4-1.3zm5.7 5.5h-.4l.7.5-.3-.5zM55.2 455l.2.3zm.9.7c-.7-1-.6-.7-.9-.8l.8 1c0-.2 0-.3.1-.2zm.2 1.8l4.3 4.8c-4.6-6.6-.4-1.8 1-.6l-2.5-2.6-3.8-2.6c.1.4.6.7 1 1.3zm122 2.9l-.1.2zM81.8 476l.4.1-.2.1 1 .5c.1 0 .3-.1.4 0l-.2.1.3.2 3.6 1c.8.2 1 .4 1.2.6 1.1.6 1.5 1.1 3.5 1.5l-1.2-.5 2.7.6c.8.5-1.4-.2-1.8-.2 1.1.3 1.8.6 2.7 1 .8.3 1.4.6 1.9.5.1.3.2.7 1.5 1.1-.9-.5.9 0 .1-.5.6 0 2.2.7 2.9.9 1.3.3 1.7 0 2.7 0l6.3 1c.1.2.6.7 1.6.8.5-.1 2.5-.1 2.8-.4-1.6-.2-1.4.2-2.4.1-.8-.4 0-.3-1.1-.6 1.2.3 4.3.2 5.1.5h-.4c1.5.3 1.9 1 4.5.5l1-.3.1.2c2.1-.1 1.4.2 3.6-.2-.2 0 .1.2-.1.2 1.4.1 2.3-.3 3.6-.6 2.9-.4.3-.1-.5.5 3.2-.2 4.9-1.1 6.1-1.5.3-.1 1.5-.4 1.5-.1-.8.3-1.9.7-1.6.8.8-.2.6-.3 1.8-.4l-1.1.7c1.2-.1 1.3-.2 1.3-.4 0-.1 0-.2.8-.1.7-.2 1.1-.5 1.2-.7l1.4-.1c.1-.2 2.5-1 2.8-1 .1-.1-.9 0-1.3.2 0-.2 1.1-.6 1.8-.8.2.2 1.4-.1 2.4-.5s1.9-.7 1.6-.2a58 58 0 0 0 9.4-4.4c.7-.2 2.1-.8 1.4-.2 1.8-.9 3.7-2.6 5.7-3.7l-.9.7c1.1-.9 2.5-1.5 3.5-2.1l1.1-.9c-.4.3-.1.3-.1.4l1.3-1.3c.3-.2-.4.4-.2.3 4.7-3.1 8.1-7.2 10.7-9.8-1.1 1.1-1.2 1.7-1.1 1.8l1-1s3.5-3.9 4.2-5c.8-1 1.3-2.2 2.5-3.5l-2.2 3.8.8-.7a15 15 0 0 1-1 1.7c.9-.7 1.2-1.8 1.4-1.8-.1.2-.5.7-.4.8.8-.8.7-1 1.1-1.7-.9 2.1-3.7 5.3-5.3 7-.2.3.1-.3.1-.4-.7.7-1.2 1-1.9 1.9-.4.7.5-.3.9-.7.1.2-.1.4-.6.9l-1.5 1.2-2 1.5c-2.5 2.4.9.2-1.8 2.3l-1 .4a30.9 30.9 0 0 1-6.4 5.1s1.5-1 1-1.1c-1.5.8-2.6 1.9-3.6 2.2-1.4 1.3-5.1 3.5-6.6 4.4l3.6-2.5s-.3 0 .2-.5c-1.6.8-1.9 1.4-3.4 2.2.1-.1-.2-.1-.8.2-.3.5-2.5 1.6-3.1 1.8.6-.2.7.1 1.4-.3-.3 0 .3-.3 1-.7-.5.4.7-.2.8-.1l-4 1.9c-.3.1-.4-.1-.4-.1-1.3.5-2.4 1.1-3.8 1.5l.3-.2c-1.7.5-3.3 1.3-4.9 1.4-7.6 3.6-8.3 2.2-10.8 3.2l1.8-.6c-1.2.1-2.1.7-2.5.4 2.6-.3-.2-.2 1-.5l-3.1.6c2-.2-.7.5 1.4.1-1.5.4-3.7.8-5.6.8 0-.1-.2-.2-.9-.2 0 0 1.1-.1-.6-.1-.9.2-2.3.2-3.5.2-1.2 0-2.4 0-2.8.3-1.4-.3 2.7-.2.6-.5 1.2-.2 2.9.1 3.3-.3-1.2.1-.4-.2-1.2-.2l-1.3.2h.3c-1.1.1-2.6.2-4.1.1-9.5-.5-8.1 0-11.6-.6.9 0-2.3-.7-.5-.6a7 7 0 0 0-2.7-.4l1.4.4a10 10 0 0 1-3-.5c.3.1.4-.1.5-.1-1.3-.5-.7 0-1.7-.2-.3-.3-5.6-1.6-5.8-1.9-1-.2-1.8-.2-3.2-.8.6.1-1.2-.6-1.2-.8-2.3-1.2-3.8-1-6.1-2.5.7-.1 0-.1-1.9-1.2l-.5-.2c-1-.3-1.6-.3-3.4-1.2 0 .3 1.5 1.1 2.2 1.3l.7.1c.4.6 1.6.8 2 1.1-1.2-.1-4.8-2.2-6.2-2.8a21 21 0 0 0 5.5 3.5l-.9-.6 1.1.6-1-.8 3 1.5c-1.1-.6-1.4-1.1-.8-.7 1.2.8 1.4.5 2.4 1-.5-.3-1.2-.6-.7-.5 1.5 1 2.3 1.1 4.1 2.3-.1-.4 2.3.8 2.7.6l-.8-.3 1.9.4c1.5.9-1.6-.2.9.9 2.3.8 2.4.4 4.3.9-.7.1-2.2-.2-3.7-.7l.9.4c-.8 0-2.9-.9-3.6-1.1 1.8.4-.8-.4-1.4-.9-.2.2.9.5-.5.2l2.9 1.1c-3.2-1.3-3.3-.3-6-1.7 1.3.5-.3-.5-.4-.7l-2.4-1 .3.5c-1.7-.7-1.9-1.5-3.9-2.3-.3.1 1.6.9 1.2.8-2.8-1.3-3.6-2.5-5.2-3.7-.2 0-.3.2-1.1-.1.3 0-.1-.5.8-.1a16 16 0 0 0-2.2-1.3c1.4 1.1-.8-.2-1.1-.2-.7-.5.3 0 .8.3-.6-.5-1.1-1.2-1.6-1.2.1-.2 2 .7 3.1 1.4l-.7-.5 1.4.9c-.7-.6-.5-.7-.2-.7.1.1-.1 0 0 .1.6.4 1.1.7 1 .5.7.1-.8-.7-1.1-1.1-3.5-2.1-3.4-.4-7.1-4.3H65c-1.1-.9-2-1.8-1.1-1.5l.4.4.3.1-2-1.5c2.2 1.3.4-.3 1-.3l-2-1.6c1 1.1-.1.2-.6-.1 0-.1-.3-.5-.8-.9l-1.3-1.2h.1c-.5-.7-1.6-1.6-2.3-2.4l-1.8-.9c1.1 1.4.3.7.3.9l-.4-.4c-.2-.1.2.3.1.4 1.3 1.4 2.8 2.7 3.5 3-.3-.5-.8-.6-1.2-1.1 1 .6 1.9 1.7 2.8 2.5l.2.5 1.2 1c-.6-.4-.4.1-1.7-1 0 .3 1.2 1.1 1.9 1.8l.6.1c-.3 0 1.4 1.4.1.6l-2-1.5.7.8-1.6-1.4.5.2c-2.5-2-.4-1.1-3-3.3-1-.5-2.1-1.6-3.4-3.3 1.1 1.1.6.2 1.1.5-.9-1.2-1.5-1.5-2.1-2-.1-.4-.2-.7.7.4.4-.1-1.2-1.4-1-1.7-3.3-4-3.4-2.2-5.9-6.9l.2.1c-2-2.6-4.9-8.5-5.3-9.8.3.5 1.3 1.8 1.2 1 .2 1.3.9 2.3 1.3 3.6.2.1 0-.4-.1-.7.4.7.4 1.1 1 2 0-.1-.4-1.1 0-.4 1.3 3.3 1 1.2 2.6 3.8-.7-.4-1.2-.9-1.6-1.5.5.9-.8-1.1-.4-.2l2.4 3.3c-.2-.2-.3-.2-.5-.6l1.5 2.4c-.3-.7 1.6 1.8 1.6 1.4-1.7-2.5-1.3-1.7-3.1-4.6.6.8 1.5 1.7 2.1 2l.1.2c.5.3.3-.2.7-.5-1.1-1.1-1.5-2.1-2.6-3.5-.2-.1-.1.2 0 .6.2.4-.1.1 0 .2-.7-1.2-2-2.2-2.3-3.4.4.7 1 .7 1.3 1l-.7-1.4c-.2.2-.4.3-.6-.2a14.3 14.3 0 0 1-1.8-4.7l-.1-.3c0 .5-1.2-1.5-1.8-2.1.3-.1-.4-1.3-.5-2.1-.4-.3-.6.4-.5 1.4.9 1.5.6.8 1.4 1.4l1.5 2.5-.5-.5 1.8 4.1c-1.5-1.4-1.9-3.7-2.2-4 0 0 .2 0-.9-1.7.1.8-.1-.2-.6-.9.1.7 1.6 3.2.9 2.8-.7-1-.9-3.2-2-4.5h.2l-1.1-2.2-2.1-4.6.6.7.4 1.3.2-.2c.2 1.3.9 2 1.4 2.9-.7-1.3-1.4-4-1.9-4.2v-1l-.5-.4c0-.7.5-.1.9 1.1 0 .2 0 .4-.1.3.3.5.7 1 1.1 2.4l-.4-.7c.4 1 1.1 3 1.8 3.8-1.6-4.3-2.2-6.4-2.5-7.4-.8-.5-1.3-1-1.7-.3a40 40 0 0 1-1.5-6.6l.1.1-.4-1.9c0-.8.4.5.3-.1l-.6-2.4c.2.1.7 2.2.9 3.1-.1-.2-.3-.6-.3-.4.1 1 1 4.2.7 2.3.2.9.8 2.1.7 2.7.7 1.8 1.2 1.3 1.1.5-.1.3-1.1-3.3-.7-.8-.7-1.3-1.1-3.4-1.4-4.4l.1.1-.4-1.8.4.8c-.6-1.6-.8-2.9-.8-3.7-.2-.2-.5-1.5-.5-.5 0 1.1.2.6.4 1.6l-.6-1c-1-3.9.4-.3-.1-2.9l-.3.4a92 92 0 0 1 0-9.3c.2.5.4 1.8.5 1.1l.1 3.7c-.1.2-.5-1.5-.5-2.8-.6.7.5 3.3-.1 3.5.1 3.2.6 2 .8 5.3.3 0 .2.8.5.9.2-.4 0-1.4-.1-2.4l-.3-3.2.2.6-.3-2.7v.1c-.4-1.9.3-.5.2-2.9 0-.3 0-.6-.1-.5l.3-1.7-.3.1v-2l-.4 3.5c-.1-1.2-.3-1.5-.3-2.9.3 1.5.2-1.1.4-1.2l-.1-.7c.2-.8-.1-.7 0-1.6-.6 1-.2 2.9-.4-.9 0-1 .9-4.3 1.3-5.1-.3 1.9-.9 4-.6 8.4.2-.2.2.6.4-.8-.2.5-.4-1.2-.1-2.6l.4.3.2-1.9v.2c.3-.7.2-2.1.5-3.4 0-1.5.7-4.5 0-3.1.5-1.1.4-2.2.6-3.6l-.5 1.6c.1-2 .4-3.5.4-3.1 3.7-14 1.5-5.4 4.5-13.5.3-1.4 1.5-2.8 2-4.6.5-.8 1.3-2.2 1.3-1.8-.4.6-1.6 2.8-1.6 3.5-.1-.3-.6.9-.2-.1-1.1 2-.5 1.4-1.4 3.2 0 .2.7-.8.8-1.3.2.1-.2 1-.5 1.7-.2.7-.4 1.3.1.5.9-2.3.5-2.9 1.6-4.4-.1.8-.8 1.8-.8 2.8l.8-1.3.2-1.1v.1c1.5-2.5.8-2.7 1.8-4.9 0-.4-.7.7-1.3 1.6.3-.6 1.7-3.7 2.3-4-1.4 2.6-.1.9-1.1 3.6.3-.3.1.8 1-.6.7-1.8-.5.4.3-1.3l.2-.1c.3-.8.6-.8.9-1.8l-.1.2c.8-1 .5-1.3 1.3-2.1-.4.2.2-.8.5-1.4-.7.9-1.3 1.2-2.5 3.1 0 .3.2.3-.2 1.1l.7-1.2c-.5 1.1.1.2-1.1 1.9.8-1.6.2-1 .4-1.7 1.4-2 1.9-2.5 4.6-5.7a3 3 0 0 0-.5.7c-.6 1.2.7-.6.8-.6l.5-.8c.8-1.1 1.1-2.1 2.2-3.2-.3.4-1.2 2-.7 1.4 1.1-.5 1.3-1.3 2.1-2.2l.6-.6.9-.7c-.4.9-1.4 1.4-1.8 2.3l-1.1 1.6c.5-.8 1.2-1.5 2.2-2.5.2 0-.8 1.6-.9 1.7v-.2c-1.1 1.1-2.5 3.5-2.5 3.5-.7 1.4-1.7 2.5-2.2 4v-.5l-2.1 4.6.1.1-.4.8-1 2.6.6-.8c0-.3 1-1.9.6-1.8l1.5-2.4c-.7.9.2-.8.2-1.1.3-.2.9-1.4 1-1.2.2-.2-.4.4-.6.9-.4 1.1 1.3-1.7.7-.4 1.1-2.1 2.2-2.9 2.3-4.6 1.5-1.8 2.3-3.1 2.5-3.1-.4.5-1 2-1.5 2.7.2.2 1.2-1.5 1.4-1.5l1.1-2.1c-.2.3-.8.5-1 .7.3-.6 3-5.1 4.5-6.3-2.1 3.1-2.9 4.9-3.9 6.3-.7 1.1.6-.2.7-.5l2.4-3.6a62.1 62.1 0 0 1-6.4 10c.4-.4.2-.1 0 .3l1.5-1.9c-.3.6-1.4 2.4-1.9 3-.5.7.1-.4-.1-.4-.4.8-1 .9-1.5 2.1 1.6-2.1 0 .9 0 .9-.1.6-.3 1-.7 1.2.3-.6.7-1.2.4-1.1l-.6.8c-.4.7-1.2 3-1.1 3.4-.4.4-.5 1.3-.7 1.8v-.4c-.6.8-1.4 2.9-1.4 3.1-.4.6 1.2-5-.8-.4-.8 1.8-.1 1.3-.4 2.4 0 0 0-.1-.1 0-.4.8-.2.9-.4 1.6.3-.4-.1.3-.2.9 0-.9-.4 1.4-.6.8-.7 1.4-1.1 3-1.1 4.2-.9 1.2-2 7.3-2.3 9.3-.3-.6.7-6.1.6-6 0 0 .8-2.2.6-2.1l-.6 1.4s-.5-.2-.2-.8l-.6 2.4.2-.2c-.8 2.5-1.5 6.9-1.6 7.9.3.3.2 1.7 0 3.3-.1 1.6-.4 5.4-.3 6.4-.2-.5-.3-2.9-.5-2.6 0-.4-.2-1.3-.1-2.2.1-.1.3-1.3.4-.5.2-2.6-.4.3-.5-.5-.1 2.9.1 4.7.3 6.5h-.1l.1 1.4c.1-1.1.5-1.1.3.4v-.2c-.2 1.1.1 2.5.1 3.8l.3.9c0 1.3-.4 1.4-.6 1.8.2 2 .9 3.9 1 4.6.1.6.3 3.7-.2 2.1.5 1.8 1.4 1.2 1.5 4.4l-.3-.8c.3 1.8 2.3 7.7 2.4 8.3-1-.8.6 3.8.2 4.5.1-.2.6.8.7 1 0 .3.1.7.4 1-.3-1.1.9.5-.2-1.5.9.9 1.7 2.1 2.7 4.3l-.3.1-.8-1.8c-.1.3-.5-.7-.7-1 1.2 3.3-.8-.1.8 3.2.3.3.2.5.5 1.2l.5.5c.2 1.4-1.2-1.8-1-.7-.8-1.2-2-3.5-2.1-2.9.9 2.2 1.5 1.7 2.4 4v.3c.5.7.8.7 1.1 1.1-.1.1 0 .3.2.8.9 1 1.6 2 2.6 2.9-2.1-3-1.3-2.8-3.3-6 .4.5 1.7 2.7 2.1 2.7l-.3.1c.7 1 1.5 1.9 2.1 3.3l-.6-.7c1.2 1.6 1.5 3 2.7 4.1-.5-.9.7.8 1.2 1.7l1.7 1.6c-.1.1.8 1.2.2.8.9 1.4 1.7 1.8 2.4 2.5.5.7.2.5-.2.1s-1-1.1-1.2-1c1.2 1.8 3.4 3.9 4.3 4.5l-.4-.6 1 1.1.4.1c.5.7.4.7-.2.3.6.6 1.5 1.1 2 1.9-1.4-.9-2-2-3-2.7 2.2 2 1.7 2.5 4.7 5 0 .1-.6-.2-.1.3 1.4 1.1.6 0 1.1.2-1.1-.7-1.4-1.3-1.9-1.9l.4.1.7.9.3-.1c-.3.2.6 1.2 1.4 1.8-.7-.8-.4-.7-.4-1.1 1.3.7 1.2 1.2 2.1 2.1.8.6.8.3 1.4.7-.8-.3-.7 0-1.6-.2l-2-1.5 1 1.1c-1.2-1-1.1-.5-1.2-.5 1.9 1.9 1.8.9 3.1 2 .8.3-1.2-1-.1-.4 1.2 1 .4.1 1.9 1.1l-.3-.1c.3.5.7.3 1.2.7.6.3.1-.9 2.4.6h-.2c-1.2.1-1.9.7-1.3 1.2.6.5 3 2.7 5.9 4.4.5.8-2.3-.9-2.2-.6l-1.3-.9c.1-.1.8.4 1.3.7 2.6 1.3-2.7-2-5.3-3.3.4.7 3.2 2.1 4.2 3a7 7 0 0 0-1.7-.9c1.3.9 2.7 1.9 4.3 2.8l.4.1-1.9-1.1c1.4.8 2.7 1.3 3 1l-.2-.1c1-.4 1.8 0 1.9 0z" class="st0" fill="#003f80"/><path id="path12" d="M60.3 343.1c.3 0 .2.7-.2 1.1-.3.4-1.1 1.3-1.1 1.6 1.4-1.8 2.9-4.1 4.4-5.3-.8 0-2.6 2-3.1 2.6zM35 392.9c.3-4.3.3-5.3.5-6.6-.1.4-.7 3.7-.7 4.6 0 .9-.6 3-.2 3 .2-.8.1-.5.4-1zm6 46.5c-.6-1.6-1.8-3.9-1.6-3.9-.5-1.4-.7-1.1-1.2-1.9.8 1.6 1.7 4.1 2.8 5.8zm5.7-1.6l-1-1.4c.2.3 2 3.6 2.2 3.3-.4-.9-1-1.9-1.3-2.2zm14.6 29.3l.1.2.9.7-.1-.2zm41.1 20.1c-.4.1-2.3-.4-2.3-.6.3 0 1.3.1.7-.1l-1.6.1c-1.7-.7.8-.3 2.6-.2-2-.5-2.3-.3-4.7-.9l1.3.6c0 .3-1.9-.3-3.3-.7 1 .4.1.3-.9.2l.2.1.1.2c1.2.3 2 .7 2.8 1-.3-.3.3-.2 1.2.1 1.8.6 2.3.5 4 .8a38.8 38.8 0 0 1 6 1.1l.2-.1c6 .7 12.1.8 18.1.4-.9.1-1.7-.1-2.6-.1 1.4-.4-1.5 0-1.1-.3l2.1-.1c.2-.2-.6-.3-.5-.5-2.4-.1-2.7.7-4.8.6.1-.2.8-.3-.7-.3h.4c-2.3.2-1.8-.4-3.3 0v-.3h-4.2.1c-1.4 0-1.8 0-5.4-.5l1.7-.1c-1.2-.3-1.5 0-2.4-.2l-3.7-.5c-1.4-.1-.2.2 0 .3z" class="st0" fill="#003f80"/><path id="path14" d="M90.8 484.3c.7.4-.6 0-.8 0l2.6.9 2 .3-3.8-1.2zm35.8 3.9c2.9 0-1.9.4-.9.7l1.6-.3-.1.1 1.9-.2c-.4-.1-.7-.1-.6-.3 3.5-.3-.3.7 5.6-.3h.2l2.4-.5c13.6-3.2 6.8-2.7 8.7-3.7-1 .3-3.4 1.5-4.4 1.8-1 .2-2 .7-2.1.9.1-.1.2-.2-.2-.1l-1.1.6 1.1-.2c-1.3.6-4.6 1.2-5.6 1.1 2.1-.5.4-.4 4-1-.2-.1.4-.4 1.1-.6-3.4.9-8.9 1.5-11.6 2zm33.9-10.4s.1 0 0 0zm-1.6.2c-.4.4-.4 1-.9 1.3 3-1.6 7.7-4.2 10.1-6.6l-9.3 5.7zm-5.1 3.2c1.3-.6 2.3-1.3 2.3-1.3 1.2-.5.9-.8 1.4-.8 1 .1-.7 1-1.3 1.3z" class="st0" fill="#003f80"/><path id="path16" d="M145.6 484.5c3.7-.6 8.2-2.9 7.6-2.6-.2.1-.4-.7 2.5-2-1.5.3-5.9 3.9-9.7 3.9-1 0 .7.5-.4.7zm-26.3-2.3c1.2.2-1.7.3.6.4.2.2-3.2.5-3.5.6h-2.1l4.2.3c1.5 0 6.5-.1 8.1-.8-2.4-.1-7.1-1.1-7.3-.5z" class="st0" fill="#003f80"/><path id="path18" d="M31.9 336.5c0 1.9-.9 2.9-2.6 3.5 1.4-.3 2.8-.9 2 .9-.1-.3-.7 0-.5-.7-1.4 1-2.9 2.9-1.7 2.9.5-2.6 1.4.2 1.9-1.7-.1 1.2-.8 1.8-1.2 2.9.1-1.2-1.2-.5-2.2.7-.3 1-1.1 1.6-1.6 3.2.7 0 .5 1 1.6-.5-.2.7-.6 1.6-1.4 2.4.1-.4.5-1.2.2-1.2-.9.4-1.3 1.1-1.7 1.4l-.5 1 .3-.1-.1 1.4c.5-1.6.6-.6.9-.4-.6-.4-.6.9-.8 1.4l1.2-.7c.1.7-1.5 1.6-.6 1.7a30 30 0 0 0 2.8-5.3l-1 .5c1-2.5 1.6-.9 3.2-3.4.1-.9 2.5-4.3 1.6-4.4.1.5 1.9-1 2.1-2.1-.1-1.5 2-4.3 1-3.8-.6.7-1 2.1-1.9 2.3 0 0 .8-3.6 1.8-4.9-.9 1.1-2 4-2 4 .5-.4-.9-11.1-.8-1zm4.4-6.4c2.4.1 3.8-.2 7.5-4l-.2.4c2.5-1.1 3.2-4.6 6.5-6-.9 1.5-.9 1.4-1.4 3.6l1.1-1.5c.2 1 1.4-.7 2.2-1.3l-.3 1.5c-.8.3-2.3 1.5-2.1 1.6-.5-.2-2.9 1-3.8 2.1.3.2 1-.4 1.6-.7.6-.4 1.1-.5.9.4.7-1.2 1.3-.8 2.2-1.9-.7 1.2.3.9-.1 1.9l1.6-1.7c.2.1-2.2 2.5-.3 2 .2-.4.9-1 1.4-1.4.5-.5 1-.9.8-1.2l.2.1c1.5-.9 0-1.3 1.9-2.2-.2-.3-.7-.3-1.2.3-.4.5-.2 1-1.2 1.9-.8-.1 1.3-.9 0-1.1-.3 0-1 .5-1.5 1s-.9.8-.9.1l1.4-1c-.4-.6.6-1.3.2-1.8.7-.9 2-.8 2.5-2 .1-.6-1.1-.9.7-1.6 1.6 0 5.3-2.5 6.4-3.4l.9-1.1c-.3-.3-2.2 1.4-1.8.5l1.8-1.3v.3c.7-.3 1.2-.9 1.7-1.4-.3.8-1.8 1.4-1.2 1.8 1-.4 1.2-.2 2-.8-.2.1-.3.3-.2.4 1.9-.7 1.3-1.7 1.7-2.2 1.4-1.9-2.3.2-2.4-.6l5.3-3.2c-.4.4-.7.9-.4 1.1 1.5-.3.3.5 2.2-.4-.6-.9 2.2-1.6 3.3-2.8.8.1 1 .1-.4.7.4.5 2.2-.5 2.9-.7l1.4-.9c-.7-.1-.6-.6.6-1.3v-.2c-1 .3-5.5 1.1-6.6 2.4l.2-.5c-2.7.5-4.5 3.4-6.1 2.8-.1-.5-.5.1-.8-.5l-1.4 1.4.2-.5-2.7 1.7v-.2c-.9 1.1-.7.9-2.3 3.3.2.3.3.3 0 .8-.3.4-.7.6-1 .8l-2.3.6c.7-.3 1.6-1.1 2.4-1.7-.1-.6-.6-.9-2-.5.5-.3.5-.8-.2-.5 0 .1-1.4 1.4-.6 1.3-2.2 1.8-6.4 3-9.5 6.9.9-1.5-2.6.9-.1-1.5-2.4.9-.8 2.1-2.8 3.6-.4-.1 1.1-1.8.4-2.8-.3 1.8-1.3 2.1-2.2 3.1-.6.7-.3 1.4-.8 2.1-1.4 2-2 3-3.3 4.2 0 0-.9-.1-1.3.6-.2.8-1.5 1-.7 1.1zm56.2-31.9l.3-.3a60.7 60.7 0 0 1-10.6 5c.6.4 2.9.2 4.2.1l-.7.9-.7-.4-1.4 1.2h1.3c.5-.1 1.1-.2 1.6-.1 0-.1 2.6-1.7 3.3-2.4l-2.4.2c.7 0 3.6-1 4.8-1.4-.1-.4-2.3-.4-2.3.4-.2-.2.3-.5.6-.7.3-.2.5-.4-.3-.5 1.7-1 4.7-1.1 6.1-1.2l.4.8c1.5.1.8-1.2 2.6-1-2.1.5.5.9-1.2 1.2.6.2.2.9 1.8.6 1.2-1.4 1.9.4 3.1-.8.9.3-.9.8.9.8 1.9-.8 1.8-1.2 1.8-2.1-1.9 0-2 1.3-3.6 1.3l2.9-1.8h-1.4c1.1-.3 1.4-.7 2.2-1.3-1.8.2-3.4.3-3.7 0l.2-.4c-.7-.3-1.7.2-2.1.5-1.6.3-3.1 1.1-3.5.6l.5-.5c-2.6.8-1.4.6-4.7 1.3zm-73.7 71.4c-.5-.8.1-2.8-.6-3.2-.3-.4-1.1 1.8-1.3 2.3l.2.4c.3-.6.6-.9 1.1-.5-1.6 1.1.3 1.6-.4 3.1.4.8 1-1.5 1-2.1zm4.3-14.6c1.7-1.4.3-2.8-.8-3.1 1 1.9-.4 4.7-.6 5.2l1.4-2.1zm-3.4.5c-1.6 3-2.2 4-3.7 7.4 7.2-8.1 3-.6 2.7 1.4a18 18 0 0 0 1.7-4.1l-.3-6.4c-.7.2-.5 1.1-1 1.8zm58.7 141.8l-.4.2c.2-.2.1-.3.4-.2zM12.5 394.7l.3 1-.5-.3-.2.9.4 1-.5-.6-.1.4c.4.8 1 3.8 1.3 4.6.6 1.1.2 1.4-.1 1.7-.3 1.5-1.2 2.3-.3 4.8-.1-1.2.4-.1.4 1.6 0 1.7-.5 3.4.4 4.1-.6.3-1.7.7-1.4 2.4.6-1.4.6 1 1.3-.2.5.5.3 1.8.3 1.8-.6 2.9 1.4 3.8 2.1 4.8 1.7 6.6 1.1 5.3 2 7.7-.4.2-1.3 1.3-.9 2.4.7.3 1.9 2.7 2.7 2.7-.4-2-1.2-1.3-1.8-2.5.5-1.2.6-2 .7-3.5 0 .6.5 3.4 1.1 4.6.5 1.2.9 2.4.8 3.1l-.2-.4c.3 2.4-1.8 2.9 2.1 6.9h-.3c1.1 2.3 0 2.1 1.9 4.4-.1-.2-.2 0-.3-.2.3 1.7 1.8 2.5 2.7 3.7-.2 1-.6.2-1.3 0 1.1 2.5 3.1 4.2 5.4 5.7l.7 1.7c-.8-.8-2.1-1.5-2.3-1 .7.8.8.5 1.5 1.7-.5 0-1.1-.3-1.9-.5 1 2.9 1.5-.2 1.7 2.2.6.8 1.4.9 1.8.6l.5 1.8c.6-.2 2.5 1.9 2.9 2.4.3 0-.2-1.3-.7-1.5.5-.2 1.6.7 2.1 1.5-.9 1.2 4.2 4.4 2.3 4.7 1.7 1.5 6.3 5.9 10.1 8.1.5.9 1.9 2.1.6 1.9 2.4 1.9 4.9 2.2 7.4 4.3.1.3-1.3-.8-1.4-.4 1.1.4 1.8 1.1 2.7 1.9 2.4 2.1 1.6 1.2 3.7 2.1-.5-.3-1 .1-1.2.2.1-.2 1.4.3 2.3.6.4.4-.6-.2-.5.1 6.3 4.6 14.3 5.2 16.8 6.8-1.7-.7-2.7-.1-2.9.2l1.7.7c.8-.2 2.1.4 3.3.4.1.2.6.5-.1.6 3.3 2.1 5.9.2 10 1.7l-5.6.3 1.1.9-2.5.1c.6.5 1.3.5 1.8.5s.9 0 .9.3c-.3.1-1-.1-1.2.2 1.3.6 1.5.2 2.5.3-3 .9-8.2-1-11.1-1.8-.5-.1.5-.2.6-.3-1.1-.4-1.6-1-3.1-1.4-1.1.2.5.6 1.2 1-.3.4-.6.3-1.4 0 0-.4-1.8-1.2-2.1-1.4-1.1-.6-2.3-1.2-2.6-1.8-4.1-1.6-.2 2-3.9-.3l-.8-1.3c-3.6-.9-7.1-2.6-8.1-3.3l.7.1c.5-.1.1-.6-.1-.9-1.6-1.4-3.7-1.8-4.4-3.1a40 40 0 0 1-8.5-4.3c.1-1.2 3.1 1.6 4.7 1.9l-2-1.5c1.3 1 2 1 3.1 1.1-1.6-1.5-2.8-1.2-4.6-2.4.3-.1.2-.4-.5-1.1l-.6.3-.2-.4-3.1-2.2c.4.8 0 1.2.7 1.9 0-.5.7 0 1.4.6-.9-.2.5.9.2 1.2l-4.4-3.7.1-.7c-1.1-1.2-2.8-2.5-3.6-3.7l.5.1c-1.5-1.9-3.1-3-4-5.1l-5.4-3.6c-.6-.1-1.3-1.5-2.1-3s-2.6-3.3-3.7-3.9c0-.2 2.4 1.1 3 1.6-.7-1.3-2.2-1.8-1.8-2.7 1.6 3 .5-.5 1.5.7-.4-.7-1.9-2.7-2.5-3.2 1.3 2.2-1.5-.2.2 1.9a17.7 17.7 0 0 1-4.2-6c.3-.1.1-.4-.1-1.3 0 0 .9 1.2.1-.9-2.1-2-2.5-6.6-4.4-6.9-.1-1.9 1.9 2.9 1.6.1 1.2 1.2 1.4 3.5 2.4 3.6-.9-1.3.4-.8 0-1.7l-1-1.6v.6c-.9-1.2-1.8-2.8-2.4-4.6-.7-1.8-2.3-2.2-2.9-3.9-.4-.7.1-2.9-.3-3.5a16 16 0 0 1-3-6.3c.7 1-.2-3.2 1.2-1 .1-1.8-.8-3.3-1.1-3.3.2 1.5 0 .5.1 1.8a7.3 7.3 0 0 1-1.1-4c0 .4.4.6.5.7 0-1.9-.6-.8-.9-2.1.6-.5-.3-2.9-.1-4.2l-1-1.7c.7.9 0-1.7.5-2-.5-1.2-1.2-2.2-1.2-4.2.3.8.3-1.8.9-1.8.5-3.3-1.6-5.3-.6-8.6.1.1.5.8.7-.1v-2.7c0-.4 0-.6-.2-.6-.4-1.2-1.1-2.4-1.1-4.8-.3.1-.5.6-.6 1.3-.2 2 0 2.1.6 2.9-1.1.7-.1 2.4-.4 2.9-1.1-1.5-.4-6.5-.7-9a18.5 18.5 0 0 0-1.9 8.4c.1-.5.3-1 .6-1.1-.4.4-.2.8-.2 1.4l.8-1.6c-.4 1-.2 1.5-.2 2.2l-.1 2.1c.1-1.7 1-2.3.8-1.3-.7 1.8.2 1.9.1 3.3.1-.8.1-.9.6-1.1-.9 2.4-.3 3.4-1.2 6 1.1-.3.2 3.2 1.2 3.5v-1.2l.8 2.4c-.8 2.3-1-2-1.5 1.6.2 3.2 1.3 3 1.7 5.5-.8-.7-1.5-2.7-1.7-4.7l-.2 1.3c-.6-.8-.6-3.9-.6-4.9.9 2.3.2-1.1.7-2.2-.6-.2-.5 1.3-1.1-.4.1 1.7.2 1.9 0 4 0-4.6-2.4-4.1-1.9-8.2.3 1.9.9-.7 1.2-.9-.1-.9-.1-2.7-.3-3.4l-.9.6c-.3-2.4 1.6-3.1 1-5.9-.5-.4-.4 2.4-.5 1.9-.2-3.9 1.5-5.3 2.5-8.1-.2-.2-.8-.3-1.1-1.5.5.4.9-.4 1.1 1 .3-1 .2-2.2.2-3.4-.7 2.2-.6-1.1-.8-1.5.3-1.2.5.5.5 1.2.3-.9 1.3-1.9.6-2.6.6.1 1 2.9.8 4.6l.3-1.1c.1.8 0 1-.2 2.1.6-1.1 1.1-.9 1.4-.5-.1.1-.1-.1-.2 0-.3.9-.2 1.6.1 1.5.7.9.6-1.2 1.1-1.7l.1-1.4c-1.4-4.8-.9-3.4-2.3-6.1.3-2.9 2.9-8.4 3.8-5.9 0-1.6.4-2.1.4-2.2 0 3.4 1.7.4 2.6 1.3.2-1.1-.1-2 .1-3.1-1 1.7-.6-.2-.5-.9.3 0 .6-.6.7-1.4.2-.8.4-1.6.7-2.2l.1.1c.6-.9 1.2-2.7 1.6-3.9-.2 0-.5-2-.8-3.1-1.2 2-.9.6-1.3.6l.3-.7c0-.4-.4.3-.6.3-.8 2.4-1.6 4.8-1.1 6.1.7-.5.1-1.3.7-2 1.4.6-.1 1.4-.3 2.1l-1 2.5-.7.4-.4 2c0-.9-.7-.6-.1-2.7-.6.1-.6 2.1-1.2 3.3l.5.9c-.3-.4-1.1-.8-2.3 2.2.9-4.4 1.4-4.2 1.6-5.3-1 2-1.2.3.2-1.2.9-4.3 1.8-.7 2.7-5.3-.3-1.8.4-3.3 1.6-5.5-.7 1.9.5.5.6 1.4 1.2-1.7.9-3.8 1.1-5 3.8-7.8 1.1.2 2.1.5 2.9-5.6-.6-6 4.3-11.3l.2.5c1.5-3.2 4.5-6.5 6.4-9.3 1-1.2 1.4-1.7 2.9-1.8-.4.7-1.2 1.6-.5 2.3-1.4-.3-2.1 2.1-3.6 3.1.1.3.7-.1 1-.3-.6.8-1.4.9-2 2.1.2.1 1.3-1 .7 0l-1.6 1.1c-1.2 2.2.6 1.7-1.3 4.1-.3-1-.2-2.2.3-3.2-.9 1 .7-1.6-.2-.9-.4 2-1.5 2.5-2.4 4.9.1-.3 0-.5.3-1l-2.3 2.9c.9-.5-1.1 2.9-.2 3 2.2-3.2 1.3-2.5 4-6a8 8 0 0 0-.6 3.9l-.2.2c.3 1 .8.5 1.9 1.2.3-2.1 1.6-2.9 2.5-5.1-.2-.4-.5-.2-1 .1l-2.5 3.2a18 18 0 0 1 1.8-3.3c.4-2.8 1.7-4.3 3.7-4-.6.8-.4 1.3-.5 1.9l1.5-1.4c-.6-.3-1-.7-.5-1.2 2.2-2.6 3.8-3.6 5.3-4l.2-.3c-.9 0 .6-2.6.8-3.9.5.5 1.5-1 2.5-1.4-.2-.9-1.5-1.2-2.9-.8-1.1 2.2-.4 1.5-.3 3l-1.9 3.2v-1c-1.5 1.2-1.8 3.1-2.4 2.5.2-1.2 1.5-2.2 1.7-3.2l-1 .7c.8-2.2 1.3-.3 2.6-2.7-1.2.2.1-.2.5-1.4-1 .3-2.9 3.6-3.3 2.2.5-1.4 4.2-2.6 4.5-4.6v.2c1.9-1.7 2.2-3 2.6-4 1.1-.5 1.9-2.9 5.5-5-1.7 1.7-3.3 4-3.3 4-1.8.6-1.8 2.3-2.4 3.6 1-1.8 4.1-3.6 3.6-4.9l1.4-.3.3-.6c1-.2.8 1-.4 2.2-.3.1-.5.1-.5-.1-.4.8-.6 1.7-2.1 2.9l.5-1c-1.1 1-3.1 2.9-3.3 4.4l7.6-6.7c-.3-1.8.1-3.2-.4-4.6 2.4-2.5 4-3.4 5.8-4 .9-.4 1.3-1.3 2.1-1.5.5-.2-.1 1 .5.8l2.4-2.2c.2.6-2.1 2.1-3.1 2.9.2-.2.5-.5.3-.5-.7.3-1.4 1.1-2.2 1.7-.7.7-1.3 1.2-1.9 1-.5.6.8-1.4-1.2 0-1.5.7-1.4 1.7-1.4 2 .2.3 2.3-1.2 1.9-.3 1-.8 1.1-1.5 2.6-2.2-1 .8-1.9 2.4-2.7 2.4-1.5 2-.2 3.1.8 2.5-.6-.2 3.1-3.2.2-1.8.8-1.5 3.3-3.4 4.2-4.4v.2l1.9-1.5c-.2.3-.7.9-.5 1.2 1.8-3 1.3-1.5 2.2-2.6-1.2 1.5 1.2-.2 2.1-.4 0-.7.9-1.7-.3-1.3-1.4.4-.5.7-1.6 1.4 0 0-.3-.7.2-1.2l1.7-1.7c.5-.5 1-.1 1 .2 0 .4 0 .6 1.2-.5 0 0 0-.6-.8-.6a41.3 41.3 0 0 1 12.4-5.2c-.4.8-1.1 1.4 0 1.5-1.1.3-4.6 2.6-5.9 3.3-.4 0 1.2-1.9 2.9-2.4-1.4-1.1-3.4 2.7-4.3 1.4-4 1.6-2 2.7-5.8 3.9.3.6-.7.9-.5 1.5 1.4.4 4.2-2.5 6.5-3.3l-.6.6c1.6-.6 2.1-1.1 3.1-1.8h-.2c1.6-1.5 1.4-.1 2.6-.3.4-.4 2-.8 1.5-1.2l2.3-.2-.4-.7c1.1-.5 1.6-.1 2.4-1l-.2-.7-3 1c1.4-.8-1.1-1.3 1.5-2.3-1.5 1.5 1.6.5 2.1 1.1l.8-.6c1.1-.3 1-.6 2.2-.9-1.4.1-2.9-.7-4.3.5 1.3-1.1 8.7-3.6 14.4-3.6-2.2 1.1-5.7.6-9.9 3.8 0-.2.4-.3.6-.2-.9-.6-2.7 1-3.5 1.7.4.4-.5.9 1.3.5-.7-.1 1-1.6 2.8-1.8l.1 1.2 2.4-.7-.2.1c1.1.3 2.5-.9 4.3-1 1.4-.9 5.7-1.6 3.5-2.3 1.7.3 2.8-.8 4.5-1.3h-5.2c2.3-1.3 3.4-.7 5.7-1.8.3.3 1.6-.1 1.2.2 5.9-.8 8.7-1 10.2-1.9 2.4-.2 2.3 1.1 5.7.4.7-.2 0-1 2.2-.7.1.1-2.1.9.3.7 1.8-.9 3.7.4 6.1-.3 1.2.4 3.7.6 3.3 1.2-.9-.1-4.3-.5-5.1.1.3-.4-1.4-.4.1-.7-2.9-.6-1.9.4-4.5 0-.2.3 1.3.8 1.9.5 0 .2-.3.4-.8.5-1.3.3-3.8.4-2 1.1 2.9-.1 3.7-1.9 5.9-.9-1 .6-2.5 0-3.7 1 1.5 1.5 2.2-.2 3.4-.2l-.1.1c3.4.9 3.3-.8 6.4-1.1-1.8-.8-.3-.9-1.6-1.4 1.1 0 2.6-.1 3.2.1.6.2 1.7.4 1.6.8-1.4.1-2.4-.4-2.5.3 0 .3-.1.6-1.9.9.6.4-.9 1.3 1.1 1.6 2.4-.5-.6-.8 1.8-1 .1.1.3.2.2.3 1.1-.3 1.2.3 2.6 0l-.3.1c1.5.8 1.9-.4 3.2.4-.5-.8 1-.5 2-.7-1.3-.5-2-1.6-4.9-1.9-.4.5-.2.8-1.4.9l1.8.2-1.1.2-1.7-.5c2.3-.1 1.3-.8 2.4-1.3 2 .5 1.7.1 3 .4-.1.4.8.8 2.1 1.4 1.2.6 3.2.9 4.3 1.3h-1.5c-1.8.2 1 .9 1 1.1l1.3-.1c-.2 0-.6.1-.1.3 1.7.3.8-1.9 3.7-.6 0 .5-1.8 1.1-.8 1.6.7 1.3 1.9 1.7 3.3 2 .2-.1 1.2.1 1.2.1v1c-1.4.4 1.1 1.5-.4 1.9l-2.4-2.1a6 6 0 0 0-3 0c1.4.5 1.7.4 3.4.6.1.5-1.1.5-1.3.5l.3-.3c-2-.5-3 0-5.3-.8-.4-.1-.1-.1 0-.2-4-1.2-10.4-.1-11.6.1l-.1.3c.3.2-.7.1-1.1-.1l-3.5.6c.3.2.7.4 1.1.4.4-.3 2.6.1 2.4-.6.8.4 3 .3 3.5.5-1.3-.7 1.8-.7 2.1-1.1 2.7.1 4.7.5 4.4 1.1-1.6-.4-3.9-.7-4.6-.4-1.5.4 2.6.9.7 1.2 1.7 0 6 .7 7.8.7l-2.2-1.2c4-.7 5.6 1.2 5.7 1.5l-3.9-.2c-.2.7 2.4.6 2.4 1l3.2-.4c-.4-.1-.9-1.2-1.3-1.3.9-.2 9.5 1.9 11.4 2.6-1.4.6-8.9-.7-11.1-1-1.6 0 .6 1.1-.8 1 .3.3 1.2.6 1.7.5l.5.3c-.7.3-1.8.1-2.9 0-1.1-.1-2.3-.3-3.3-.1l.4-.2a8 8 0 0 0-4.2-1c.7.4 1 .3 1.4.3 0 .2-1.3.1-1.9.2 1.4.2 2.1.4 2.9.7-.9 0-3-.4-4.5-.3-1.8.1.5-.4.5-.8-1.1.1-1.4-1.1-3-.8 2.1.5 1.1 2.1-5.2 1.2.9-.1 4.1-.1 3.9-.6h-1.8l.6-.3-2.8-.2c-.5.4-1.3 1-1.7 1.7-.6-.5-1.6-.2-2.2-.1l.3-.2c-1.2-.5-3.9-.2-4.1.2-1-.4 6.4-2.5 0-2.2-2.4 0-1.5 1.3-2.8 1.7 0 0 .1-.1-.1-.2-1-.1-1 0-1.9.2.6.2 1.9.8 2.1.6-1.1 0-3.4.1-4.1.6 1-.9-1.1-.5-.4-1-1.9-.4-4 .3-5.1 1.2-1.5-.9-2.5.4-4.6.3.3 0 .9-.3 1.4-.2 1.2-.9-2.3 0-.5-.9-.4.2 0 .4.4.2.4-.1 1.4-.5 1.2-.9l-1.9-.3.6-.3-2.9-.4c-.1.1 1 1.2 1.2 1.3-.8 0-1.5 1-2.4 1.1-1-.9-6.9.2-7.7.4-1.6.4-7.7 3.5-8.6 4.4.4-.7.4-1.7-.1-2 .5-.2 1.2-1.3 2.4-1.6.3.2 1.7.1 1 .7 3-1.2-.7-.7 0-1.6-3.4 1.4-5 3.1-6.9 4.4l-.1-.2-1.4 1c1.3-.4 1.7.6-.1.9l.2-.1c-1.3 0-2.8 1.3-4.2 2l-.7 1c-1.4.6-2-.3-2.8-.7-2.2 1.1-3.1 2.6-4.2 4.1-.9 0-4.2 1.8-2.8.3-1.7 1.5.3 3.6-3.7 4.5l.5-1c-1 .7-2 1.7-4.5 4a18.8 18.8 0 0 1-3.4 3c-.2-2.2-4.5 1.8-6.2 1.1.4.1-.5 1.3-.5 1.5-.4.1-.9.3-1 1 1.3-.8.6 2 2-.5a9.1 9.1 0 0 1-2.7 5.9l-.5-.5 1.7-1.6c-.6-.2.3-1 .5-1.6-3.4 2.9-.9-1.6-3.9 1.9.1.6.1.3-.5 1.3.4-.4 0-.8-.6-.2l-.1 1c-2 .5 1.1-2.5-.4-2 .8-1.7 2.6-4.3 1.6-4.5-2.2 1.9-.5 3.1-2.8 5.2h-.5c-.5 1-.1 1.6-.2 2.3-.2-.1-.5 0-1 .5-.3 1.6-1 3.2-1.1 5 1.9-4.1 2.8-2.6 5.1-6.6-.2.7-2 3.4-1.4 4.1l-.5-.5c-.6 1.3-1 2.7-2.4 4.1l.3-1.1c-1 2.2-3.4 3-3.4 4.8.4-.5.8-.8 1-1.2-.4 1.1-1.4 2.7-2.1 3.6l-.4 3c-.3-.2-1.1 1.4-1.2.3-1.4 1.6-.9 2.9-1.3 4-.8.8-.7.3-.5-.4.2-.7.6-1.7.2-2a15.5 15.5 0 0 0-2.6 7.1c2-6.2.6-.5-.1 1.1l.3.6c-.7.9-.9.6-.9-.3-.5.9-.1 2.4-1.1 3.1l.2-1.4 1.2-3.3c-.9 3.5-2.7 2.9-3.7 7.6-.2 0-.4-.9-.7 0-.4 2.1.8.8 1.1 1.6a5 5 0 0 1 2-3.4s0 .8-.2 1l-.8 1.2.7.5c-.8-.4-1.8 1-1.9 2.3 1-1 1-1.6 2.1-1.7-.3.7-1.5 4.2-1.3 5.3-.2-.2 0-2.5-.5-1.2a9 9 0 0 0-.2 3.2 8.5 8.5 0 0 1-.5-6.3l-1.1 1.6c.4-1.8-.4-1.5-.6-1.8-1.6 2.9.4 2.6-.3 4.6.2 1.1.6-1.9.7-.2-.6 1.9.3.5.1 2.7l-.2-.4c-.6.5-.2 1.3-.3 2.1.1.9 2.6-.4 2 2.9l-.4-.3c-1.7-1.4-1.3 2.9-3 1.4-.7 3.6-3.8 1.8-4.6 6-1.3.9-.7-3.1-1.2-2.9l.5-1.9c.2.1.1 1.1.1 1.9 0 .8.1 1.4.6.5.1-3.4.8-4.9.5-8.2-1.4.8-.6 4.4-1.7 6.2.2-.9.2-1.6.1-2.4l-1.3 6.3.2.5.5-2.7c-.3 2 .2 3.8 1 4l.1-.4c.6 1.5.2 2.2.1 3zm145.3-91.3c.8.3.5 1.7.2 1.8 1.8.2 2.6.2 3.2-.6 1.2.1 1.2 1.6-.1 1.4l3.8.5-1.6-1c.8-.5 2.6 1.6 3.5 1l-3.1-1.5.3-.2c-.8-.1-2.1-.9-2.5-1.2.1-.1.2-.3.7-.1-.8-.4-2-1-2.6-.4-.4.3-2.1.1-1.8.3z" class="st1" fill="#ffd400"/><path id="path20" d="M155.6 300.4l-1.7.4-2.2-1.1c-.2.3-1.9 0-.9.7.2 0 .7.1 1 .3-.5.6-3.1-.8-2.7.2 1.8.5 2 .7 3.3.6 1.6.7 2.6 2.6 3.3 3.2.5.1.7-.8 1.3-.6-.1 0 .6-1.6.4-1.6l-1.8-1s2.6.4 3.9.9c1.2.5-1.8-2.2-2.6-2.6l-3.9-1.7c.9 1.3.4.6 2.6 2.3z" class="st1" fill="#ffd400"/><path id="path22" d="M158.4 302.3c.1.1.1.1 0 0 .1.1.1.1 0 0zm-11.6-4.3l.9.2-.9-.2z" class="st1" fill="#ffd400"/><path id="path24" d="M147.1 300c-.6-.3.2-.5.5-1.5l-3.5-2.1c1.7.6 2.9.2 4.4 1.3l.2-.7c-1.4-.8-3-1.7-4.9-2.1 2-.4 6.6 1.7 8.1 2.2 1.4 1.2-1.9.5-1.7 1 .7.3 1.3.3 1.8.4.1.4-1 .3-.4.8l-1.8-.6c-.2.2-.1.6-1.4.1zm-4.2 0zm3.7 3.8c.5-.1 1.8.6 1.2.5-.6-.1-3.1.1-1.8.3 5.5.2 12.3 1.1 14.1 1.7-.3-.4-10.2-3-13.5-2.5zM22.3 428.2l.2.4-.2-.4z" class="st1" fill="#ffd400"/><path id="path26" d="M18.7 422.7c.3 1.5 0 3 2.2 2.5 1.3 4.5-1.4-.8-1.1 1.3.5 1.5.9 1.3 1.5 2.3-1.6-3.4 1.7 0 .6-3.5 1.1.3 1.7 2.5 1.8 3.5-.5 1.6-1-1-2-1 .6 1.4.7 1.1 1.4 1.5.5 2.5 2.6 4.2 1.9 5.9.8 1.5 1.2 1.2 2 1.9.5-.1.4-.7.2-1.4-.1-.7-.2-1.5-.4-1.5l-.3-1.4c.1 1.4-1 .2-1.3-.5-.2-.5-.6-1.5-.3-1.4l.4.7c0-1.1-1.4-2-1.2-3.2.2-.1.4.2.6.3-1.1-1-1.4-2.2-2.2-3.8l1.2.8c-1.6-1.3-1.8-4.6-1.8-6.8-.1.3-.1.7-.4.5-.6-1.5.1-2.3.6-1.9-.5-.6-1.5-1.7-1.5-3-1.2-1.4-1.6-2.4-1.6-3.5l-1.2-2c-.5-.7-.4-2.1-.9-2.8-.9-1.3-1.3-2.7-1.3-2.3-.4.4-.6.7-.8.7-.2 0 .4-.1.5 1.9-.8-1.3-2.6-.5-.3 4.4 1.7 3.6 2.2 3.5 4.9 8.5-.7.3.4 4.6.5 5.3.1 0-.4.1-1.7-2z" class="st1" fill="#ffd400"/><path id="path28" d="M17.6 414.2l-.1.4.1-.4zm3.8 16.4c-.5-1-1.8.7-3.5-7.8.3.1 0-1.3.9-1.2-.4-1.3-.8-2.6-1.6-3.2.3-1-.2-.4-1.2-2.5-1.9-3.7-2.8-6.6-1.1.4a9 9 0 0 1 1.2 1.9l.7 1.7c-.2.9-.9-1.3-.8-.5.7 1.7.7 5.8 2.1 5.3.4 1.3.2 1.5 0 2 1.9 1.6 1.6 7.7 3.4 7.1-.4-.7.8-.3.1-1.3 0 .1 0-1.5-.2-1.9zm-2.3-44.5s1.9-2.5 1.3-1.2c-1 2.6-1.2 8.9-1.3 10.5-.2.2-1.1.4-1.1.2-.1 1.2 0 8.3 1 14.4-.5.1-1-3.4-1.4-3.4l-.1-.8c-.4-.6-3.8-4.7-3-7.9.6 1 2 7.4 3.1 6.8 0-.9-.4-.8-.6-.8 0-1.1.3-1.1.6-1-.3-.4.1-1.8-.4-2.4-1.6-2.1-2.4-3.9-2.4-3.9.1-.8 2.4.2 2.5-.6 0-1.7-.5-1.6-1.1-1.6-.5 0-2.3-.8-2.4-2.8.3.3 1.9.8 2.3.3.4-.5.9-1.3 1.1-2.2-.1 1.3.4 3.2-.1 4.5 1.1-1.9.7-.9 1-2.1l.1.4c.2-1.4-.8-2.5-.1-4.3.1-.9.4-.7.6-.5.2-.9.1-1.6.4-1.6zM4.8 424.8c-.6-.4-.8-2.9-.4-3.1.3.3.7 1.6.8.7l-1.5-1.7c.3-2.5 1.5 1.1 2.5 2.9-.4-2.9-1.4-2.9-1.6-7.5 0 .8-.3 2.8-.5 3.3-.8.2-.8-2.5-1.2-4.3-2-2.5-2.8-11.7-2.5-6.4.4 1.6.8 8.9 1 10 .9-.9.9 1.6 1.2 3.3.3 1.5.5 1.4.9 3.4-.1.1-.3 0-.8-.8.3.4.8 3 1.2 2.7l1.4 5.3-.1.5c.1.2.2.2.3.1 2.3 7.6 5.4 15 9.1 22-.4-.8-.7-2.2-1.1-3.3 1.6 1.2-.7-1.8.2-1.7a5 5 0 0 1 1.2 2.4c.5 0 .4-1 .9-1.1-.8-2.9-2.8-2.4-3.7-5.2.5-.1 1.2.5.4-1.2h.2c-1.7-2.6.2-2.2-1.8-3.4l.7-.2c-1-1.1-1.9-3.6-2.5-5h.2c-1.5-2.7-1-1.8-2.5-6.6.5.6.9.7 1.4 1.9-.1-1.6-.7-2.6-1.3-2.9.2 0-.8-2.8-1.6-4.6-.6-1.4-.3.2-.5.5zm10.9-13.5c.1.6 0 .4.4 1.4zm4.2 6.4l.5 1.3.1-.1-.6-1.2z" class="st1" fill="#ffd400"/><path id="path30" d="M16.7 454.1c1.2 3.7-1.8-1.9-2.1-.3l1.3 1.7h-.3l1.3 2.2c.2-.7 0-1 .5-1.2 1.5 3 0 1.2.7 3.7l2.1 3.2-.4-.1 1 1.1a127 127 0 0 0 18.3 20.2 65.3 65.3 0 0 1-9.4-11.6c-2.3-2.8-3.8-5.4-4.6-5.1.2 0 .5 0 .3-.5l-1.6-.8.7 1.3a13 13 0 0 1-4.4-6.1c1.9 2.4 1.5.3 3.6 4.1.1-.3.9-.4 1.5.3-4.6-5.6-5.1-8-8.5-12.1zm29.1 34.4c-.8-.2-5.2-3.4-6-3.6.5.4 3.4 3.8 17 11.6-5.6-3.6-9.9-6.9-9.9-6.9-.4-.1-1.6-.5-1.8-1zm7.9-170.4l-.1.9c.9-1-.1-.6 2-2.2.7-.5 1.2-1 1.1-1.5-.5-.4-3.1.5-3-.1-.9.4-3 1.9-3.4 2.3 1.6-.7 1.7.5 1 1.4-.9.4-.3-1.2-1.1-.8 0 0-.6 0-1.2.6-.7.6-.6 1-.4 1.5.6-.4.3-1 1.7-1.2 0 0-.3 1.1 0 1 .3-.1 1 1.9.5 1.2 1.5-2.8 2.4-2.6 2.9-3.1zm-24.8 8.1c1.7-1.4 4.7-4.5 5-4.1 1.5-1.3 1.5-1.8 2.2-2.8a49 49 0 0 0-7.2 6.9zm20.9 2.8c.6-1.4-4.8 2.4-3.4.3-1.4.9-1.2 1-.9 1.1.3.1.7.1-.1.9.5-.4.2.7-.3 1.4 2.4-1.5 3.2-3.1 4.7-3.7zm-9 8.1l.7-2.2-1.5 2.7c-.5.9-.9 1.7-.5 1.9.8-.8 1.6-2 1.7-2.7zM27.7 440c0 1.5-2.4-2.8-1.6-.2-.4.4-1.5-.5-1.8-1.7.5-.1.8 1 .9.1-.9-.5-.6-1-1.2-.4-.5-.6-.9-.8-1.2-1.1-.4-.2-.2-1.4-.5-1.8-.6.9.3 3.2.5 3.8.1.2-.8 1.5 0 2.8.8 1.2 1 3 1 3s2.1 3.2 4.4 5c1.6.7.7-.2.1-2.2-.1-.5-.7-.4-1.2-1.6-.4-1.1.8-1.4.9-2.2-.3-.7.1-3.6-.3-3.5z" class="st1" fill="#ffd400"/><path id="path32" d="M235.7 475.9v-35.4h19.5v4.2h-15v10.5h13.3v4.1h-13.3v12.3h16.2v4.2h-20.7zm26-25.8c15.3-4.2 19.3 1.2 19.3 10.9v14.9h-4.3c0-18.4 2.1-25.3-10.8-22.5v22.5h-4.3v-25.8zm41.5 9.9c.1-9.7-10.9-10.1-11.9 0zm-5.5-11.4c8 0 10 6.4 10 14.3v.9h-16.4c.4 6.2 3.4 8.4 8.1 8.4 2 0 4.3-.3 6.1-1.3l.6 4c-1 .6-3.8 1.5-7.2 1.5-16.9.1-15.4-27.8-1.2-27.8zm29.7.9l-.7 4.1c-2.9-1.2-5.8-.9-8.6-.1v22.3h-4.3v-25.5a21.8 21.8 0 0 1 13.6-.8zm19.1 4c-1.5-.5-3.1-.6-4.6-.6-8.3 0-8.5 11.8-5.2 15.8 2.8 3.4 7.9 2 9.9.3v-15.5zm.1 19.7c-3 2.2-9.5 2.7-13.3-1.5-5.8-6.5-4.8-26.6 13.7-22.6l3.8.9c0 24.9.8 29.1-2.9 32.6-3.8 3.6-11.5 3.2-16.4 1.4l.8-4.1c1.8.8 4.4 1.4 7 1.4 6.1.1 7.3-2.7 7.3-8.1zm15.9 2.7h-4.3v-26.6h4.3zm-5-34.5c0-2 1.3-3.1 2.8-3.1 2.9 0 3.5 3.8 2 5.4-1.6 1.6-4.8.8-4.8-2.3zm27.4 18.6c.1-9.9-10.9-9.9-11.9 0zm-5.5-11.4c3.2 0 5.7 1.1 7.4 3.4 2.5 3.2 2.8 9.3 2.5 11.9H373c.4 6.2 3.4 8.4 8.1 8.4a13.8 13.8 0 0 0 6.1-1.2l.6 4c-1 .6-3.8 1.5-7.2 1.5-17.1-.1-15.1-28-1.2-28zm20.2.7h9.1v4h-9.1c0 13.3-.1 13.9.3 15.6.9 4.3 5 4 8.9 2.2l.8 3.9c-3.1 1.7-9.8 2.5-12.5-1.3-2.3-3.3-1.7-6.9-1.7-31.8l4.3-.8v8.2zm29.1 10.7c.1-9.7-10.9-10-11.9 0zm4.5 3v.9h-16.4c.2 2.8.9 4.9 2.2 6.3 2.8 3.1 9.2 2.3 12 .9l.6 4c-2.7 1.6-15.4 4.4-18.5-6.8-5.9-20.7 20.1-29.3 20.1-5.3zm11.5 12.5c-10.8-5.1-9-29.8 8-26.5 1.1.2 2.1.5 3.1 1l-1 4c-2.8-1.5-12.3-3.6-12.3 8.7 0 1.4.1 2.7.4 3.9 1.9 7.7 10.3 5.8 12.6 4.6l.6 4c-1 .7-7 2.4-11.4.3zm16 .4V437l4.3-.8v13.6c1.6-.7 3.4-1.1 5.2-1.1 12 0 9.8 11.6 9.8 27.2h-4.3c0-15.4.7-20.8-3.1-22.5-2.5-1.1-6.6-.1-7.6.4v22.1zm26.3-25.8c22.5-6.2 19.3 7.6 19.3 25.8H502c0-18.8 1.9-25.2-10.8-22.5v22.5H487zm30.7 25.8h-4.3v-26.6h4.3zm-4.9-34.5c0-4.2 5.5-4.2 5.5 0 0 1-.3 1.7-.8 2.3-1.6 1.6-4.7.8-4.7-2.3zm20.9 19.9a57.2 57.2 0 0 1 11 14.6h-5a45.7 45.7 0 0 0-10.4-12.8v12.8H525V437l4.3-.8v24.2c1.5-1.7 5.7-6.3 9.5-11.1h5c-4.3 5.3-.9 1.4-10.1 12zm-411.1-63c0-15.7-30.3-9.1-30.3-32.6 0-22.8 26.6-23.8 39.3-15.5l-3.5 10.2c-8-4.9-23.9-6.8-23.9 4.1 0 15.1 30.2 8 30.2 33.8 0 13.7-9.6 19.7-23.5 19.7a38 38 0 0 1-19.9-5.1l3.3-10.3c9.2 5.7 28.3 8 28.3-4.3zm54.5-32.7l-2.3 9.9a24 24 0 0 0-4.3-1.5c-20.2-5.1-20.9 20.2-15 28.7 4.5 6.5 15.7 4.8 20.8 2.4l1.5 10c-5.8 3.2-29.1 7.5-35.2-13.8-7.1-24.8 10.5-46.6 34.5-35.7zm9.2 50.9v-75.6l10.9-2v25.9c8.1-3.1 24-3.6 27.5 12.5 1.2 5.7.9 7.5.9 39.2h-10.9c0-33.2 2.9-46.3-14.2-42.5a18 18 0 0 0-3.3.9v41.6zm75.6-67.6c0-8.9 12.1-9.2 12.1 0 0 9-12.1 8.9-12.1 0zm8.1 41.4c0-19.5-14.7-20.1-19.8-12.3-5.1 7.7-4.8 29.4 8.4 29.4 8.5 0 11.4-8.6 11.4-17.1zm-20.7-34.7c-8.2 0-7.9-13.5 0-13.5 8.2 0 8.2 13.5 0 13.5zm9.3 62.3c-26.7 0-30-43.2-9.1-53a21.6 21.6 0 0 1 25.4 5.5c11.9 14.4 7.5 47.5-16.3 47.5zm33.6-52c7.3-2.4 20.9-4.4 28-1.1 8.4 3.9 10 12.9 10 22.2v29.4h-10.5c0-38.3 2.9-46-17-42.2v42.2h-10.5zm62 8.4v42.2h-10.9v-50.6c6.7-2.1 20.5-4.3 27-1.4 2.1.9 3.8 2.2 5.2 3.7 8.7-7 28.5-9.2 31.6 9.1 1 5.8.8 7.4.8 39.1H397c0-33.2 1.9-43-8.7-43-3.5 0-6.9 1.6-8.5 2.8 1.6 5.7 1.3 8.9 1.3 40.2h-10.9c0-38.8 2.7-45.5-16-42.1zm96 10.9c0-15.8-18.3-17-20.2 0zm-31.6 5.4c0-29.3 26.6-33.8 37-21 5.2 6.4 5.9 16.9 5.3 24.5h-31c.3 4.2 1.6 7.4 4 9.7 5.2 5.1 16.7 3.8 22.7 1l1.4 9.9c-7.4 4.1-39.4 9.7-39.4-24.1zm53.4-40.2l10.9-2v15.8h16.7v10.1h-16.7c0 24.2-1.8 33 7.9 33 2.6 0 5.3-.4 8.9-2l1.8 9.6c-8.2 3.9-25.5 6.2-28.7-9.9-1-5.4-.8-5.8-.8-54.6zm71.1 22.3a307.3 307.3 0 0 0-23.8 33.7h24.3v10.1h-37.4V409c3.6-7.2 13.4-22.2 22.9-34.7h-21.7v-10.1h35.7z" class="st0" fill="#003f80"/></g><text style="-inkscape-font-specification:Arial" x="72.4" y="213.7" id="text4535" textLength="257" font-weight="400" font-size="24" font-family="Arial">Albert-Einstein-Straße 8</text><text style="-inkscape-font-specification:Arial" x="71.4" y="244" id="text4535-8" textLength="258" font-weight="400" font-size="24" font-family="Arial">86830 Schwabmünchen</text><text style="-inkscape-font-specification:Arial" x="8.1" y="271.8" id="text4557" textLength="385" font-weight="400" font-size="24" font-family="Arial">www.energietechnik-schoenmetz.de</text></svg>