<svg viewBox="0 0 400 300" xmlns="http://www.w3.org/2000/svg"><g opacity=".7"><path d="M0 0v300h400V0H0" fill="#c78140"/><path d="M0 0v300h146.07a103.88 103.88 0 0 1-.15-7.65c-1.7 2.16-8.1-7.32.1-3.7.47-11.04 2.3-23.76 5.61-32.3 12.26.04 4.59 27.88 1.03 43.65h47.26c-1.03-16.2-3.06-33.34 3.73-48.45 1.46-25.65 11.3 5.94 7.54 15.19 1.04 8.77-1.6 21.23-2.82 33.26H400V0H0m146.03 288.64a134.77 134.77 0 0 0-.1 3.7c.4-.5.53-1.62.18-3.67l-.08-.03m34.69-204.51c-.01.51-1.75 9.83-.73 3.33.54-2.7.73-3.5.73-3.33m-3.65 15.14c.68-.02 1.38 1.46 1.71 5.9-5.09 4.12-3.46-5.84-1.71-5.9m38.06 5.06c.6.1.5 1.45-1.28 5.2-6.27 2.65-.25-5.42 1.28-5.2m-6.19 23.14c11.8 6.01 1.5 53.2 3.93 74.98-6.3-21.3-7.84-51.51-3.93-74.98m-44.72 13.89c1.2.2 1.4 2.4-.7 8.2-15.25 8.43-2.88-8.83.7-8.2m12.05.31c4.6.12 11.64 34.24-1.62 41.76.04-9.45-1.2-18.85-1.32-28.3.14-9.76 1.4-13.5 2.94-13.46m-13 9.61c.57.05 1.5 1.04 2.88 3.64-2.54 7.9-4.96-3.82-2.89-3.64m-5.36 8.24c7.42.42 11.1 24.48 5.82 33.79-17.16.85-1.13-24.25-9.22-32.41 1.2-1.02 2.34-1.44 3.4-1.38m121.29 15.83c.94.15.73 1.52-3.04 5.07-3.27-2.14 1.47-5.3 3.04-5.07m-73.53 3.08c.32.06.4 1.54-.1 5.64-4.05 6.85-.88-5.8.1-5.64m-24.77 13.83c.3.04.46 1.93.3 7.17-3.52 12.4-1.26-7.28-.3-7.17m30.34 13.82c.86-.09 1.65 1.53 1.92 6.37-7.78 9.59-4.51-6.1-1.92-6.37m-52.98 8.02c1.32.11 2.65 1.76 2.9 6.38-8.67.58-5.8-6.63-2.9-6.38m48.13 3.65c.61.13 1.26 1.75 1.77 5.95-5.8 12.06-3.97-6.44-1.77-5.95m-55.08 2.87c.5-.05 1.39.38 2.85 1.61.43 7.86-5-1.39-2.85-1.6m5.38 19.42c1.06.1 2.48 1.54 3.47 5.56-6.16-1.01-5.48-5.74-3.47-5.56m16.24 14.5c5.86.42 10.94 38.8-6.77 39.87-.45-9.16.4-18.37 1.8-27.42 1.31-9.15 3.18-12.58 4.97-12.45" fill="#c27637"/><path d="M0 0v300h14.53c-6.92-7.33 3.8-20.09 3.3 0h49.31c-1.7-15.65-3.55-36.92-2.32-53.34-1.72-20.82 10.08-2.99 18.02-13.05 3.4 6.14-.6 43.83-10.11 66.39h66.21a45.83 45.83 0 0 0-2.2-11.72 621.99 621.99 0 0 0 9.83-81.86c-.44-46.11 9.07-91.43 11.5-137.38 8.58-17.11-11.5-55.62 12.66-58.08 3.16 39.1-5.22 78.26-1.83 117.3 7.75-13.2 2.09-46.5 5.97-67.13-2.14-19.93 6.33-41.34 4.79-61.12h-5.47c-.3 1-.83 2.2-1.67 3.68-1.87-1.25-2.68-2.53-2.86-3.68H55.22c-3.12 5.74-3.77 4.1-3.94 0H.01m187.63 0c-.12 46.22-5.66 92.4-2.39 138.62 3.26-3.47 16 17.37 2.55 23.78-6.25 27.35-10.42 60.15-1.9 86.15 25.92-1.86 8.8-38.39 14.59-55.36 3.39-27.24-2.77-54.43-12.36-74.59 16.51 12.64 15.1-19.81 13.85-29.5 6.06-29.3 5.86-59.3 6.64-89.1h-20.97m25.84 0c5.2 19.35-.24 41.55.69 61.4 5.39 79.5-.9 159.05-2.1 238.6h17.23c-1.99-14.35-3.24-29.1 1.32-43.03 1.04-8.88 3.95 25.08 1.75 43.03h18.66c-.78-19.2-1.67-38.52.28-57.68 4.01-27.9 3.24-55.9 1.04-83.93 4.65-30.97-2.52-62.54 3.6-93.43 4.62-31.83 3.47 13.78 6.42 11.56 8.27-24.58 1.44-51.1 2.64-76.52h-3.47c-.38 3.1-.63 6.31-.56 9-2.2 19.52-4.06 4.49-5.24-9h-3.97c-.08 2.88-.5 5.77-1.68 5.27l1.13-4.96v-.3h-20.87a18.3 18.3 0 0 1-2.09 5.67A21.6 21.6 0 0 1 225.35 0h-11.87m58.2 0c-4.35 41.21-1.97 82.7-1.66 124.04.2 5.2-1.3 43.44 3.17 26.75 4.71-28.43 3.16 3.84 11.81 12.1 13.38 6.36 8.28 31.1 1.17 10.73-15.04 20.45-2.25 57.13-7.72 83.77 5.51 14.06 2.4 28.22.05 42.6H400V0H289.1c.46 1.8-1.26 3.57-7.67 5.17-1.63 16.17-5.7 1.25-8.92-5.16h-.83M96.34 2.38c1.38.25 2.16 4.34-.19 15.55-6.07-5.73-2.1-15.97.19-15.55m9.68.53c1 .2 1.25 2.37-.51 8.22l-.47.4-1.1.94c-8.1 2.47-.5-10.04 2.08-9.56M40.16 9.85c1.45-.07 2.1 2.65-.01 10.95-10.2 2.8-3.17-10.8.01-10.95m250.24 4.8c.62-.13.25 1.45-2.57 6.57-4.9 2.34 1.22-6.28 2.57-6.57m-94.74.3c.33-.1.4.74-.14 3.29l-.36.35c-3.8 5.13-.48-3.38.5-3.64M52.5 16.45c2.62.35 8.45 11.77 2.55 16.04.67.84.96 3.8.39 10.24-7.55 7.46-4.81-5.22-2.2-9.3-.95.34-2.07.56-3.4.63-2.69-3.13 2.1-5.88 2.66-8.81-1.75-6.67-1.23-8.96 0-8.8m.73 16.98a7.25 7.25 0 0 0 1.82-.94c-.47-.6-1.14-.12-1.82.94m44.81-11.68c7.26 3.22 9.85 36.53.66 49.62-5.24-12.5-4.34-34.68-.66-49.62m152.22 2.11c1.62-.05 2.73 2.14-1.07 7.52-3.26-4.5-.76-7.45 1.07-7.51m10.66 4.39c2.2.1 3.19 3.26-.63 12.39-12.13-1.7-3.56-12.6.63-12.4m17.75 8.24c1.63.1 2.6 3.24 1 11.68l.54 4.75-1.16 2.93c-10.68-5.09-3.96-19.57-.38-19.36m7.72 5.5c2.47-.06 5.56 5.79 2.6 14.87-.65 6.81-4.53-.4-4.1-2.8-1.96-8.43-.42-12.04 1.5-12.08M37.33 43.76c.3 0 .55.88.65 3.3-3.26 7.97-1.7-3.29-.65-3.3m197.63 3.35c.24-.13.62.7 1.2 3.28-.98 9.93-2.04-2.83-1.2-3.28m-40.8 1.67c2.11-.23 3.66 2.94-.34 12.1-6.03-5.93-2.38-11.82.34-12.1m86.46 16c1.52-.03 1.92 1.84-2.02 7.45-6.17-2.07-.52-7.4 2.02-7.45m-44.1 3.01c4.47 11.21-8.4 2.73 0 0m50.27 6.27c2.62-.43 5.45 25.22-.83 33.16-2.8-6.42-2.2-13.6-1.5-20.39.46-9.05 1.38-12.62 2.33-12.77m-93.12 2.9c1.7.12 2.8 3.65 1.48 13.83-12.98 4.83-5.52-14.08-1.48-13.82m86 1.63c1.12-.03 1.38 1.9-.99 7.75l-.21.22c-7.93 1.67-1.28-7.9 1.2-7.97m-232.5 2.77c2.44-.23 5.12 2.65 5.66 11.97-13.98.21-10.3-11.53-5.65-11.97m44.09 5.57c22 1.55 6.59 42.2 8.45 59.48-3.6.42-5.3-4.48-6.92-6.98 1.11-16.5-9.01-37.56-1.53-52.5m144.19.63c.47-.17.83 1.3.8 5.91-4.54 9.95-2.21-5.39-.8-5.9m-106.07.7c4-.06 5.66 2.7-5.24 10.17-8.9-5.37.1-10.1 5.24-10.17m63.22 8.3c.63 0 .46 1.47-1.65 5.8-6.8 3.86.04-5.8 1.65-5.8m71.44.5c-1.97-.15-5.15 5.8-2.5 15.94 5.01-10.93 4.23-15.8 2.5-15.94m-228.93.78c1.24.03 2.17 1.66.69 6.34-5.75-2.02-2.77-6.39-.7-6.34m240.8 2.37c3.32.3 8.66 10.2 3.74 18.97-6.64 9.06-5.07-3.35-4.9-6.84-2.1-9.04-.84-12.3 1.16-12.13m-226.32 5.24c.4-.02 1.07 1.07 2.11 3.98-.52 16.83-3.86-3.92-2.11-3.98m238.7 7.43c.42.12.9 1.5 1.37 5.03-3.67 10.08-2.9-5.46-1.37-5.03m-160.9 2.9c.48-.02 1.45.75 3.14 2.87-.3 7.05-4.85-2.84-3.14-2.88m-33.66.72c-1.23.1-1.77 1.81.43 6.64 6.81-1.15 1.93-6.84-.43-6.64m-55.66 3c4.22.35 4.6 21.55 1.67 27.69-8.7-2.94-6.53-15.27-6.13-22.3 1.8-3.96 3.28-5.5 4.46-5.4m195.57 2.5c3.07-.13 5.19 1.66-1.95 6.4-6.21-3.61-1.52-6.24 1.95-6.4m29.53.4c-2.42.06-6.4 7.27-1.93 15.64 4.73-11.42 3.8-15.7 1.93-15.65M83.14 132.91c.56-.03 1.39.88 2.52 3.46-3.1 8.7-4.52-3.37-2.52-3.46m44.57.73c1.69.26 1.85 3.34-2.4 11.8-12.34.68-1.3-12.37 2.4-11.8M50.4 135.9c.46-.08 1.08 1.34 1.77 5.6-3.2 8.42-3.16-5.36-1.77-5.6m183.07 4.8c1.05-.1 2 .92 2.1 4.16-8.2 3.64-4.8-3.9-2.1-4.15m-149.72 2.73c.47-.09 1 .91 1.42 3.96-3.71 6.3-2.82-3.71-1.42-3.96m141.19 3.05c.82.09 1.19 1.37-.26 4.95-4.56-.93-1.32-5.12.26-4.95m22.6 1.67c.49.11 1.32 1.14 2.64 3.64-.33 12.52-4.74-4.12-2.64-3.64m-155.42 4.9c16.93-.34 6.94 39.2.06 52.94-8.8-8.26 8.6-43.83-16.32-27.85.07 20.56-8.64 4.94-5.55-6.53-3.45-25.14 27.02 8.02 20.99-18.51.28-.03.56-.04.82-.05m142.46.59c1.05.09 1.47 1.8-.78 6.47l.03.3c-4.42-2.58-.98-6.92.75-6.77m28.64.41c-8.6 31.88-3.16 66.08-2.42 98.84l1.26-5.35c4.79-30.67 2.26-63.34 1.16-93.49m25.24.34c.6-.02 1.03.83.86 3.3-6.1 4.55-2.67-3.26-.86-3.3m-154.55 6.26c3.23.02 5.93 26.29 1.59 33.26-11.58 13.88-3.01-20.6-4.51-24.58.9-6.22 1.93-8.68 2.92-8.68m-89.08 3.06c8.2-.12 11.19 39.9 2.12 40.71 3.32-14.1-16.37-6.91-9.18 5.5-12.01-9.91 2.69-27.17 1.36-40.24 2.08-4.2 4-5.94 5.7-5.97m78.63.25c4.3.13 8.16 2.25-1.28 5.97-7.74-4.24-3.02-6.1 1.28-5.97m148.63 11.11c-4.44 3.41-2.12 39.15-3.04 55.1 9.57-16.91 3.36-36.87 3.04-55.1m-75.88 2.49c.67-.04 1.12 1.12.86 4.5-6.97 6.4-2.89-4.4-.86-4.5m27.84 6.33c.5-.02.4 1.56-1.14 6.29-5.24 4.38-.12-6.22 1.14-6.29M85.3 186.1c4.07-.22 6.88 3.81-1.6 2.3l-1.3-1.35a5.84 5.84 0 0 1 2.9-.95m83.37 2.03c-6.55 2.4-4.68 44.51-5.03 62.02 7.34-19.86 4.97-41.32 5.03-62.02m63.39 8.43c1.25-.01 2.66 1.4 2.1 5.44-5.43-2.35-3.93-5.41-2.1-5.44m-149.42 1.06c.5 0 .04.62-2.22 2.3-13.42 5.42.45-2.3 2.22-2.3m-8.86 7.15c.87-.1 1.55.9 1.35 4.14-7.03 3.72-3.58-3.86-1.35-4.14m148.29 4.68c.77.07 1.12 1.55.2 5.54l-2.43 2.68c-3.23-1.74.52-8.39 2.23-8.22m-96.63 2.52c6.1 10.07-10.66-.04 0 0m-49.3 3.3c2.98.1 5.09 3.73.24 13.62-10.84-6.38-4.6-13.76-.24-13.62M88.69 217c1.24.14 1.2 1.73-2.85 5.26l-2.47.4c.02-3.6 3.73-5.83 5.32-5.66m-40.89.58c3.15-.2 6.09 4.03 5.98 15.55-.37 20.4-6.77-11.82-8.07 4.06l-1.12 3.91-.93 1.15c-6.89-11.7-1.1-24.34 4.14-24.67m86.2.91c1.44-.05 2.04 2.19-.06 8.94l-.46.32-1.2.84c-8.64 1.26-1.44-9.98 1.72-10.1m60.36 3.16c.55-.01 1.29.1 2.23.38 3.4 11.5-7.61-.26-2.23-.38m37.8.27c.73-.12 1.43 1.35 1.06 5.64l-1.14 1.25c-2.1-3.15-.98-6.72.08-6.9m-109.98.56c1.04.05 1.4 1.46-1.03 5.47-4.28-1.85-.69-5.55 1.03-5.47m-85.11 2.2c.94.22 1.44 2.5.64 8.33.49 2.15.49 5.23-1.67 6.58-6.58-2.4-1.37-15.44 1.03-14.9M69 236.48c-1.36-.1-2.2 1.53-.51 6.7 7.56-.02 3.09-6.5.5-6.7m-30.18 15.54c2.34.27 4.4 4.15 3.34 14.97-13.3-2.81-7.81-15.49-3.34-14.97m229.27.24c-.56-.05-.63 1.36.44 5.52 7.34 8.02 1.24-5.36-.44-5.52m-217.31 1.99c.63-.12 1.43 1.32 2.38 5.43-4.67 19.4-4.85-4.98-2.38-5.43m131.3 3.84c-.35.01-.96 1.04-1.91 3.84 1.2 9 3.19-3.9 1.92-3.84m78.96 1.65c-1.8-.08-3.69 2.57-.25 8.18 3.77-5.3 2.05-8.1.25-8.18M35.11 270.73c.5.01 1.5.9 3.23 3.2 2.02 12.94-5.36-3.27-3.23-3.2m225.49 1.39c-.65-.04-1.12 1.04-.98 4.21 6.49 6.07 2.93-4.1.98-4.21m11.26.15c-3.23-.28-8.8 16.95-2.74 25.91 8.87 2.43 6.05-7.83 4.36-12.23.83-9.8-.15-13.55-1.62-13.68M49.7 273.56c.54.02 1.04 1.16 1.2 4.36-4.89 5.53-2.83-4.43-1.2-4.36m170.15.12c.58-.1.87 1.01.22 4.5-5.16 3.83-1.71-4.26-.22-4.5m-31.13.45c-1.88.15-2.73 2.34 1.66 8.05 6.03-4.06 1.08-8.25-1.66-8.05m-10.08 1.12c-2.95.11-4.68 2.85.21 10.55 13.09-3.61 4.72-10.73-.2-10.55m-109.52.32c-2.35-.06-4.2 1.91.79 6.76 5.2-4.02 1.88-6.7-.79-6.76m26.66 7.1c.63.11 1.34.99 2.02 3.2-5.41 5.95-4.27-3.56-2.02-3.2m-45.37 3.02c.25-.13.67 1.4 1.32 5.84-.97 16.04-2.23-5.4-1.32-5.84m141.34 2.17c-1.85-.05-3.44 5.77-3 12.15h6.8l-.07-.68c-.92-8.29-2.4-11.43-3.73-11.47m-90.45.85c2.03.16 4.47 2.73 4.84 9.77-10.45-3.6-8.22-10.04-4.84-9.77m-62.09 1.18c.72.12 1.46 1.38 1.93 4.7-6.06 4.82-4.08-5.06-1.93-4.7" fill="#b7672d"/><path d="M.81 0c.11.53.22 1.15.33 1.93C.67 3.59.3 4.45 0 4.76v31.57c.83-.6 1.12-.22 0 2.28v141.87c2.07.13 3.13 3.5.6 13.22-.22.04-.4.05-.6.08v3.43c2.71-.85 4.64 1.8.27 11.71l-.27.1v31.04c.3.52.62 1.02.95 1.51-.2 2-.53 3.24-.95 3.92v10.02c1.39 2.4 2.24 6.11 1.53 11.34A54.29 54.29 0 0 1 0 265.46v18.22c1.07 4.04 1.4 9.91 1.5 16.32h7.83c-.9-4.98-1.25-9.76.26-13.72-1.4-47.72-2.2-95.48-.34-143.23-.15-31.09 4.25-62 4.66-93.1 18.07-4.3 7.56 35.69 9.37 48.3-7.56 28.43 5.48 56.19 1.35 84.06-8.78 28.3-5.94 57.9-3.8 86.96 3.83 10.95 2.19 20.98.13 30.73h10.72c-.9-9.33-1.84-18.55-.04-24.04-2.6-41.08-.1-82.23-.7-123.35-4.1-50.9 1.64-101.72 2.22-152.6h-6.23c-1.73 7.56-3.08 16.3-2.87 20.42 3.78 16.84-8.96 20.28-10.76 2.29.24-4.77 1.17-14.09 1.12-22.72H.82m60.36 0c-1.29 2.9-1.7 6.85.29 11.28C64.92 6.29 66.8 2.6 67.65 0h-6.47m9.58 0c-1.48 9.5-2.45 19.72-4.53 25-14.67 30.55-10 64.88-10.18 97.55 3.98 49.53-3.66 99.43 2.57 148.84 5.54-34.09 1.23-69.14 6.16-103.35 9.19-31.89 2.8-65.13 11.47-97.03.61-24.6 10.17-47.35 13.64-71H70.76m48.34 0c-4.82 15.74-4.65 36.43-7.87 51.6-7.34 60.01-1.12 122.16-21.2 180.16-.52 23.27-7.02 45.66-12.52 68.23h8.8c-.25-6.26-.04-11.91 1.93-15.37 6.53-32.63 20.64-63.6 22.54-97.27-.52-39.1 9.38-77.45 8.66-116.58-1.86-24.3 7.37-47.77 9.2-70.77h-9.54m28.83 0c.9 10.95 6.26 23.59-1.74 33.03 2.39 33.26-2.9 68.28-3.03 102.43 13.8-18.94 5.26-43.68 9.83-65.08 3-23.16 3.3-47.03 2.44-70.39h-7.5m68.44 0c1.48 30.65 2.2 61.34 1.25 92.02 9.81-19.42 3.7-53.53 4.98-77.53-.77-2.8.14-8.54 1.13-14.49h-7.36m21.5 0c.07 37.63.28 75.27.08 112.9-2.14 62.33-.89 124.75-2.84 187.1h5.58c-.38-8.37-.71-16.1.34-19.57-1.61-31.73 2.17-63.22 1.1-94.95 1.05-46.61-.67-93.23 1.12-139.86-2.81-12.5 3.53-31.36 3.1-45.62h-8.47m68.05 0c-1.07 10.81 10.59 23.27 14.44 36.13-1.99 27.66-6.44-6.81-11.76-13.91-4.34 19.54-14.73 46.8-8.2 68.64 23.4-2.91 1.36 21.68 5.83 36.23-5.9 5.07-4.32 9.82 5.9 15.19-8.46 7.7 1.52 25.55 11.27 11.68 8.13-21.81-2.4-52.7 12.16-73.13 2.15 32.5-8.54 64.46-8.55 96.3-2.35 22.64-15.13 8.54-12.32-5.35-5.1 13.96-12.93 26.5-14.03 45.32-4.47 22.53 19.3 26.85 15.11.8 3.4-7.82 10.78 28.63 4.02 39.25-7.73 9.84-1.54 31.7-4.89 42.85h66.58c.02-10.22-7.78-32.57-3.27-42.39-.47-28.82-.47-57.6.27-86.46-9.29-31.88-7.08-64.97-3.7-97.6 13.4 8.16.59 34.4 9.67 47.92 5.26-6.73 12.85-2.93 13.68 9.07-20.83-1.12-.65 23.88-9.05 37.88 3.33 16.6-6.38 31.86-3.12 46.6-4.05 18.22 24.37 33.98 8.84 53.74-2.86 10.4-4.6 21.08-4.27 31.24H400V107.42c-1.37.5-.88-2.2 0-4.6V0h-13.68c-.34 1.78-.5 3.57-.43 5.3.82.37 1.3 1.54.49 3.4a14.16 14.16 0 0 0 2.63 5.46c-5.95 12.86-12.7-3.96-9.03-14.16h-18.94c.25.72.55 1.45.9 2.2 8.96 13.9-16.56 41.08 3.95 42.58-9.5 18.24-16.03 1.14-12.24-12.03-1.23.02-12.06 9.94-11.16-10.24 10.33-3.76 4.62-14.6-.22-22.5h-36.34m80.45 8.7a17.46 17.46 0 0 1-.49-3.4c-1.46-.67-3.96 1.27-1.54 6.38a11.53 11.53 0 0 0 2.03-2.98m-65.2.55c.66-.05 1.62.38 2.96 1.61-2.8 7.85-5.77-1.39-2.95-1.6m-39.36 16.37c-1.42-.02-2.58 1.54-.21 5.74 4.27-3.06 2.03-5.72.2-5.74m57.7 17.14c.64-.1 1.1 2.13.95 8.76-6.46 12.99-2.88-8.43-.95-8.76m10.4.94c2.85-.1 4.12 1.43-3.1 5.84l-1.14-.14c-5.74-2.77.56-5.57 4.24-5.7m36 .03c6.06-.54 19.53 12.48 5.62 17.75.08 10.28-5.6-4.26-6.03-6.59-3.57-7.86-2.34-10.9.41-11.16m-28.97 9.95c.45-.04 1.22.3 2.44 1.23 2.17 10.36-4.87-1.01-2.44-1.23m-51.33 16.29c2.85-.25 5.81 3.88 2.76 14.33 1.05 2.1-2.78 4.03-3.12.47-5.96-8.64-2.87-14.53.36-14.8m88.73 3.49c2.08-.14 4.32 2.8 4.59 12.07-11.96-.29-8.56-11.8-4.59-12.07m-1.67 21.5c2.77-.21 5.13 3.45 2.4 14.07l-2.6 2c-8.78-7.2-3.85-15.77.2-16.07m-93.63 6.05c-2.34-.1-4.33 2.06-.64 8.15 7.21-4.12 3.64-8.01.64-8.15m-78.42 2.95c-1.96-.03-3.82 2.66-2.03 10.38 7.93-4.47 4.88-10.33 2.03-10.38m-106.3 9.3c.57-.05.74 1.42-.18 5.84-5.23 4.27-1.25-5.72.19-5.84m185.17 1.18c-.7.04-1.19 1-.71 3.75 4.73.47 2.24-3.86.7-3.75m50.63 3.63c.83-.08 1.68 1.55 2.32 6.2-8.03 16.18-5.3-5.91-2.32-6.2m-2.41 17.3c1.13-.16 2.19 1.3 2.42 5.98-8.68 5.46-5.31-5.54-2.42-5.97m7.19 3.77c2.73.2 7.92 6.06 7.3 13.62-1.86 7.5-8.43-.78-6.8-4.78-3.09-6.45-2.37-8.97-.5-8.84m-9.3 9.4c6.41 13.58-11.38 5.77 0 0m-203.88 1.53c-.95.08-1.39 1.25.49 4.47 4.05-1.65 1.08-4.59-.5-4.47m215.93 7.08c1.18-.15 1.63 1.97-.45 8.14l-3.19 3.14c-2.33-4.53 1.67-11.05 3.64-11.28m-213.96 1.4c-.23.01-.66 1-1.36 3.7.55 8.61 2.19-3.77 1.36-3.7m197.38 1.85c1.43-.11 3.08 1.58 3.08 6.93-7.3-1.54-5.48-6.74-3.08-6.93m-322.62.35c-.48.03-.72 1.24-.31 4.63 5.33 5.8 1.75-4.72.3-4.63m342.95 5.66c1.53-.53 7 15.48 5.25 22.03-7.91 2.71-4.36-8.48-4.58-12.23-1.27-6.84-1.27-9.58-.67-9.8m-20.9 5.72c3.03-.2 5.5 3.78-2.5 10.98-3.27-7.36-.16-10.8 2.5-10.98m-197 9.04c-5.05 1.94-2.05 31.38-4.9 43.8 8.14-13.2 4.6-29.2 4.9-43.8m175.95 17.27c1.25 0 1.9 1.71.3 6.81-8.77 1.43-3.07-6.82-.3-6.81m3.51 6.12c.58 0 1.47.44 2.74 1.58-.26 11.59-5.88-1.57-2.74-1.58m-205.99 3.43c-1.74.01-3.56 2.78.4 7.21 2.61-5.06 1.14-7.21-.4-7.2m107.9 4.25c-.3-.05-.57 1.55-.7 6.21 2.49 8.86 1.55-6.07.7-6.21m83.99 3.74c1.68.25 2.7 3.11 1.42 10.87-14.39 4.86-5.74-11.52-1.42-10.87m-92.56 3.28c-1.93.24-4.04 4.34-.51 11.6 4.2-8.22 2.44-11.84.5-11.6m-215 4.8c.25.1.56 1.17.88 3.89-2.05 7.52-1.8-4.3-.89-3.9M222 232.16c-2.05-.2-2.7 2.12 1.69 9.7 11.27.28 2.24-9.31-1.68-9.7m-84.96 7.77c-1.8-.31-5.25 26.85-6.89 35.54 6.75-5.24 8.07-14.28 8.04-22.24-.06-9.48-.5-13.19-1.15-13.3m194.02 4.54c6.05.2 11.51 8.35-3.58 9.08l-2.44.2-1.09-.85c.61-6.46 3.94-8.53 7.11-8.43m-115.09 3.69c-.32.06-.62 1.1-.82 3.82 3.2 8.23 1.95-4.02.82-3.82m87.43 12.38c-3.02-.1-3.94 1.48 3.5 6.5 12.36-1.46 1.52-6.33-3.5-6.5M25.18 265c1.99-.02 4.2 3.01.68 9.17-4.44-6.06-2.67-9.14-.68-9.17m365.92 2.74c-1.84-.09-4.04 1.71-2.8 6.77 6.92-3.43 5.16-6.66 2.8-6.77m-67.82 5.96c1.84-.11 2.58 1.32-1.4 5.91-7.76-1.25-1.66-5.72 1.4-5.91m-264.61 3.87c-3.34-.08-6.5 4.04.51 12.6 6.34-8.24 2.83-12.52-.51-12.6m243.58 3.17c-1.52-.04-2.38 1.15 1.17 4.42 3.83-2.28.78-4.36-1.17-4.42m-182.92 2.82c-1.33-.01-2.88 2.28-.64 6.93 3.09-4.6 1.97-6.92.64-6.93m11.4 7.16c-.88 0-3.33 3.84-6.04 9.27h7.33a57 57 0 0 0-.94-8.6c-.01-.45-.14-.67-.35-.67m91.59 4.55c-.24-.03-.62.8-1.17 3.15.09.64.17 1.16.26 1.57h1.04c.28-1.77.3-4.66-.13-4.72m164.64.7c-.98.1-1.89 1.4-1.96 4.02h4.38c-.14-2.72-1.32-4.13-2.42-4.02m-79.8 1.14c-.77.07-2.1 1.18-3.55 2.88h3.84c.63-2.08.42-2.94-.3-2.88" fill="#ac5a25"/></g><g font-family="'Times New Roman', serif" font-weight="bold"><text transform="translate(.27)" x="15.15" y="61.91" font-size="61.33" font-style="italic" textLength="374" lengthAdjust="spacingAndGlyphs">Schreiner Tom</text><text transform="translate(1.04)" x="13.09" y="101.31" font-size="24.93" textLength="372.5" lengthAdjust="spacingAndGlyphs">Möbel und Innenausbau nach Maß</text><path d="M15.76 71.9a1.49 1.49 0 0 0-1.3.75 1.52 1.52 0 0 0 0 1.51c.26.48.76.76 1.3.75h368.48a1.49 1.49 0 0 0 1.31-.74 1.52 1.52 0 0 0 0-1.52 1.49 1.49 0 0 0-1.3-.75H15.75" color="#000" fill-rule="evenodd" solid-color="#000000"/></g><g font-family="Arial, sans-serif" font-size="24" font-weight="bold" letter-spacing="0" word-spacing="0"><text x="144.21" y="138.8" textLength="111.5" lengthAdjust="spacingAndGlyphs">Tom Seitz</text><text x="106.79" y="166.43" textLength="186" lengthAdjust="spacingAndGlyphs">St. Martin-Str. 21</text><text x="70.16" y="194.06" textLength="267" lengthAdjust="spacingAndGlyphs">86459 Gessertshausen</text><text x="134.97" y="221.57" textLength="153.5" lengthAdjust="spacingAndGlyphs">08238 963184</text><text x="135.06" y="249.2" textLength="153.5" lengthAdjust="spacingAndGlyphs">08238 963185</text><text x="60.48" y="274.57" textLength="303" lengthAdjust="spacingAndGlyphs">Schreiner.Tom@freenet.de</text></g><path d="M110.37 236.54h17c.57 0 .48-.6.2-.7-.3-.1-3.45-1.3-4-1.3h-.7v-3h-8v3h-.7c-.55 0-3.7 1.2-4 1.3s-.37.7.2.7zm17.5 1h-18a1 1 0 0 0-1 1v5a1 1 0 0 0 1 1h2.28l-.88 5h15.2l-.88-5h2.28a1 1 0 0 0 1-1v-5a1 1 0 0 0-1-1zm-14.4 10l1.2-7h8.4l1.2 7zm12.6-32.85a1.64 1.64 0 0 0-1.27-1.34c-2.58-.6-3.23-2.09-3.34-3.74-.45-.08-1.27-.17-2.65-.17s-2.19.09-2.65.17c-.1 1.65-.75 3.13-3.33 3.74-.66.15-1.18.67-1.27 1.34l-.5 3.44a1.98 1.98 0 0 0 1.95 2.3h11.6a1.99 1.99 0 0 0 1.96-2.3zm-7.26 3.24a2.5 2.5 0 1 1 0-5c1.39 0 2.53 1.12 2.53 2.5s-1.13 2.5-2.53 2.5zm9.95-9.5c-.02-1.5-3.84-4-9.95-4-6.1 0-9.92 2.5-9.95 4s.02 3.46 2.54 3.13c2.94-.38 2.76-1.4 2.76-2.87 0-1.03 2.4-1.27 4.65-1.27s4.66.24 4.66 1.27c0 1.47-.18 2.5 2.76 2.87 2.51.33 2.56-1.62 2.53-3.12zM54.34 258.9h-16a1 1 0 0 0-1 1v12a1 1 0 0 0 1 1h16a1 1 0 0 0 1-1v-12a1 1 0 0 0-1-1zm-14 7h6v1h-6zm8 4h-8v-1h8zm5-6h-3v-3h3z"/></svg>