<svg xmlns="http://www.w3.org/2000/svg" width="400" height="300" viewBox="0 0 105.83333 79.375002"><path d="M29.82 26.875c1.09 5.271 31.913 6.037 37.95 6.862-12.39-2.29-42.346-2.532-32.613-11.182-2.66 1.342-5.68 2.665-5.337 4.32z" fill="#b2061a" stroke="#7c000e" stroke-width=".165"/><path d="M51.167 1.885c-1.812 3.41-5.64 6.361-5.676 12.199-.026 4.46 6.235 5.909 7.455 13.893 1.989-4.79 5.076-9.424 1.017-15.079-4.742-4.996-2.905-7.704-2.796-11.013z" fill="#c14532" stroke="#781303" stroke-width=".172"/><path d="M52.607.7c1.612 4.007-.053 8.602 1.949 10.08l3.727-2.88c-.754-2.888-3.432-4.951-5.676-7.2z" fill="#b2071b" stroke="#800012" stroke-width=".165"/><path d="M64.552 4.935c-3.097 2.308-7.086 4.442-8.895 7.37 4.658 7.692.42 10.289-.678 14.486 2.56-2.679 8.265-6.424 7.116-11.098-.674-4.105 1.137-7.539 2.457-10.758z" fill="#e0a28a" stroke="#967065" stroke-width=".165"/><path d="M51.675 28.316c-2.461-7.726-5.526-7.457-7.2-12.538-.957-2.904.175-5.884 1.864-8.471-1.578-3.336-3.966-3.968-6.184-5.167 3.023 3.811 2.625 8.823 2.71 13.977.092 5.559 5.07 8.828 8.81 12.199z" fill="#5d4518" stroke="#473410" stroke-width=".165"/><path d="M56.08 27.468c4.284-2.804 9.49-3.95 11.69-10.504 1.194-4.929 4.164-6.9 6.439-9.233-3.641-.674-7.23 2.07-10.42 5.675 1.78 6.04-2.883 9.785-7.709 14.062z" fill="#b3071b" stroke="#7c000e" stroke-width=".165"/><path d="M48.372 26.96c-8.016-9.304-8.155-6.828-7.963-16.01-.036-3.792-5.954-3.221-9.657-3.643 3.155 2.556 6.298 1.847 6.268 10.928-.01 2.806 7.28 6.486 11.352 8.725z" fill="#5d4518" stroke="#473410" stroke-width=".165"/><g font-weight="400" letter-spacing="0" word-spacing="0"><path d="M1.323 44.33l1.41-.195q.11.748.65 1.146.539.388 1.508.388.98 0 1.454-.35.473-.349.473-.824 0-.418-.418-.67-.287-.165-1.454-.418-1.553-.35-2.158-.602-.606-.252-.914-.699-.309-.456-.309-.99 0-.495.253-.913.254-.427.694-.708.33-.214.903-.36.573-.155 1.234-.155.98 0 1.718.252.748.253 1.1.68.364.427.496 1.146l-1.387.165q-.1-.573-.55-.893-.452-.32-1.278-.32-.98 0-1.399.29-.418.282-.418.66 0 .253.176.447t.54.33q.22.068 1.255.32 1.509.35 2.103.583.595.224.936.66.342.428.342 1.068 0 .622-.419 1.175-.418.554-1.2.854-.771.301-1.762.301-1.63 0-2.489-.592-.848-.602-1.09-1.776zM15.419 43.825l1.398.165q-.231 1.272-1.178 1.99-.936.718-2.313.718-1.718 0-2.764-.99-1.046-.99-1.046-2.835 0-1.194.452-2.087.451-.903 1.365-1.35.925-.456 2.004-.456 1.366 0 2.225.612.87.611 1.112 1.728l-1.376.184q-.199-.738-.705-1.116-.496-.379-1.2-.379-1.08 0-1.752.68-.66.68-.66 2.145 0 1.486.638 2.165.65.67 1.696.67.837 0 1.388-.446.562-.457.716-1.398zM18.018 46.533V36.34h1.42V40q.991-1.019 2.5-1.019.936 0 1.619.33.683.32.98.893.297.563.297 1.65v4.68h-1.42v-4.68q0-.94-.463-1.368-.462-.427-1.3-.427-.638 0-1.189.291-.55.291-.793.786-.23.496-.23 1.36v4.038zM32.488 46.533v-1.087q-.98 1.252-2.654 1.252-.749 0-1.388-.242-.638-.253-.958-.631-.308-.379-.43-.932-.087-.37-.087-1.165v-4.573h1.42v4.087q0 .98.088 1.32.132.496.562.777.43.282 1.068.282.639 0 1.2-.282.562-.291.793-.786.232-.505.232-1.447v-3.951h1.42v7.378zM35.417 44.33l1.41-.195q.11.748.65 1.146.539.388 1.508.388.98 0 1.454-.35.473-.349.473-.824 0-.418-.418-.67-.287-.165-1.454-.418-1.553-.35-2.158-.602-.606-.252-.914-.699-.309-.456-.309-.99 0-.495.254-.913.253-.427.693-.708.33-.214.903-.36.573-.155 1.234-.155.98 0 1.718.252.749.253 1.1.68.364.427.496 1.146l-1.387.165q-.1-.573-.55-.893-.452-.32-1.278-.32-.98 0-1.399.29-.418.282-.418.66 0 .253.176.447t.54.33q.22.068 1.255.32 1.509.35 2.103.583.595.224.936.66.342.428.342 1.068 0 .622-.419 1.175-.418.554-1.2.854-.77.301-1.762.301-1.63 0-2.489-.592-.848-.602-1.09-1.776zM47.145 45.417l.21 1.107q-.606.106-1.08.106-.77 0-1.2-.213-.419-.214-.595-.563-.176-.36-.176-1.486v-4.242h-1.035v-.971h1.035V37.32l1.41-.748v2.583h1.431v.97h-1.431v4.311q0 .544.077.7.077.145.242.242.176.087.484.087.243 0 .628-.048zM54.27 44.155l1.465.165q-.342 1.126-1.289 1.757-.936.621-2.39.621-1.838 0-2.918-.99-1.068-1-1.068-2.806 0-1.864 1.08-2.893 1.09-1.029 2.83-1.029 1.673 0 2.742 1.01Q55.79 41 55.79 42.825q0 .116-.011.34h-6.244q.077 1.213.77 1.864.705.64 1.763.64.782 0 1.332-.359.55-.36.87-1.155zm-4.658-2.02h4.68q-.099-.932-.54-1.398-.682-.728-1.761-.728-.98 0-1.652.583-.661.572-.727 1.543zM57.508 46.533v-7.378h1.277v1.116q.496-.786.903-1.039.419-.252.914-.252.716 0 1.454.408l-.485 1.165q-.517-.272-1.046-.272-.462 0-.837.243-.363.242-.517.689-.243.66-.243 1.456v3.864z" style="line-height:7.04469061px;-inkscape-font-specification:Utsaah" font-size="24.046" font-family="Utsaah" fill="#66451a"/><path d="M70.811 45.54q-.582.568-1.264.857-.682.28-1.482.28-1.465 0-2.32-.873-.7-.714-.7-1.588 0-.786.564-1.41.573-.626 1.71-1.107-.646-.65-.864-1.059-.21-.409-.21-.786 0-.761.674-1.322.673-.562 1.691-.562.982 0 1.6.53.628.529.628 1.274 0 1.195-1.81 2.045l1.72 1.924q.29-.505.454-1.17l1.219.232q-.318 1.099-.855 1.812.664.77 1.491 1.291l-.782.818q-.709-.401-1.464-1.187zm-2.383-4.387q.755-.392.983-.69.227-.304.227-.665 0-.433-.31-.705-.308-.273-.772-.273-.473 0-.792.273-.318.272-.318.657 0 .2.11.417.118.209.345.457zm1.646 3.568l-2.155-2.34q-.946.496-1.282.93-.328.424-.328.841 0 .513.464 1.066.464.546 1.31.546.527 0 1.091-.289t.9-.754z" style="line-height:7.04469061px;-inkscape-font-specification:Arial" font-size="19.858" font-family="Arial" fill="#b8192a"/><path d="M77.09 46.533V36.34h1.42v5.816l3.36-3h1.838l-3.204 2.738 3.524 4.64h-1.74l-2.776-3.776-1.002.854v2.922zM84.622 42.844q0-2.048 1.289-3.039 1.079-.825 2.632-.825 1.728 0 2.819 1 1.101 1 1.101 2.757 0 1.427-.485 2.243-.484.816-1.41 1.272-.924.446-2.025.446-1.751 0-2.842-.99-1.079-1-1.079-2.864zm1.454 0q0 1.418.705 2.126.704.7 1.762.7 1.057 0 1.762-.71.704-.708.704-2.155 0-1.378-.715-2.077-.705-.71-1.751-.71-1.058 0-1.762.71-.705.699-.705 2.116zM94.137 46.533V36.34h1.42V40q.992-1.019 2.5-1.019.936 0 1.619.33.683.32.98.893.297.563.297 1.65v4.68h-1.42v-4.68q0-.94-.463-1.368-.462-.427-1.3-.427-.638 0-1.188.291-.551.291-.793.786-.232.496-.232 1.36v4.038zM103.09 46.533V36.34h1.42v10.194z" style="line-height:7.04469061px;-inkscape-font-specification:Utsaah" font-size="24.046" font-family="Utsaah" fill="#66451a"/></g><text style="line-height:6.02442789px;-inkscape-font-specification:Utsaah" x="1.088" y="282.808" transform="matrix(1.0342 0 0 .96693 0 -217.625)" font-weight="400" font-size="3.856" font-family="Utsaah" letter-spacing="0" word-spacing="0" fill="#66451a" stroke-width=".241"><tspan x="1.088" y="282.808" style="-inkscape-font-specification:Arial" font-size="6.214" font-family="Arial">schöne dinge für daheim</tspan></text><text style="line-height:125%;-inkscape-font-specification:Arial" x=".937" y="282.623" font-weight="400" font-size="3.546" font-family="Arial" letter-spacing="0" word-spacing="0" fill="#66451a" stroke-width=".258" transform="translate(0 -217.625)"><tspan x=".937" y="282.623" font-size="4.814">Hochstraße 17 ■ 86399 Bobingen</tspan></text><text y="289.312" x="1.21" style="line-height:125%;-inkscape-font-specification:Arial" font-weight="400" font-size="3.546" font-family="Arial" letter-spacing="0" word-spacing="0" fill="#66451a" stroke-width=".258" transform="translate(0 -217.625)"><tspan y="289.312" x="1.21" font-size="4.814">Tel: 08234-902280 ■ Fax: 08234-902282</tspan></text><text style="line-height:125%;-inkscape-font-specification:Arial" x="1.532" y="295.096" font-weight="400" font-size="3.546" font-family="Arial" letter-spacing="0" word-spacing="0" fill="#66451a" stroke-width=".258" transform="translate(0 -217.625)"><tspan x="1.532" y="295.096" font-size="4.814">info@schuster-kohl.de ■ www.schuster-kohl.de</tspan></text></svg>