<svg xmlns="http://www.w3.org/2000/svg" width="400" height="300" viewBox="0 0 105.83333 79.375002"><path d="M41.11 24.2c7.23-1.7 13.5-1.83 21.25-.63.11 1.16.12 2.3.38 3.63 1.42 1.7 11.34 2.19 13.08-.75-.31-2.29-.56-8.78 1.37-14.05-.44-1.3-6.13-1.44-6.4.16.19 1.15.4 2.03.4 3.38-3.12.46-5.17.12-7.4-.87.01-1.32.06-3.59.09-5.12-2.63-1.42-15.65-2.18-29.97 1.54zm53.9 24.39c.44.12 1.06-.01 1.38-.3a.65.65 0 0 0 .08-.91c-.3-.52-2.4-.24-1.97.87.1.15.3.28.51.34zm-2.59.06c.28.06.88-.07 1.14-.26.38-.26.45-.73.17-1-.7-.67-2.28.2-1.95.9.1.15.3.27.64.36zM5.74 58.5c.3.03 2 0 2.38-.05 3.06-.36 6.52-1.54 10.26-3.48 2.07-1.08 3.07-1.72 6.82-4.41 4.54-3.26 6.55-4.51 8.86-5.53 3.04-1.34 5.44-1.43 7.42-.26.15.1.3.16.32.16 1.2-1.55 1.1-1.37 2.13-2.58 0-.02-.4-.25-.48-.28C32.2 40.5 15.22 59.7 3.2 56.51c-.38-.14-.56-1.15-.54-1.49.53-4.27 7.92-4.8 11.21-4.83 1.57-.01 1.66-.01 1.67-.07 0-.04-.15-.22-.33-.44-10.7-.54-12.61 2.38-13.68 6.14.5 1.26 1 1.89 2.37 2.34.52.17 1 .26 1.83.34zm74.1-10.15c.65-.6 3.23-2.75 3.52-2.57-.31 1.06-2.28 2.45-3.53 2.57zm-43.23.67c.64-.72 2.85-3.13 4.04-3.4a8.21 8.21 0 0 1-4.04 3.4zm49.47 6.62c0-.08.32-.79.53-1.1.98-1.46 3.04-3.13 4.4-3.58.35-.11.79-.23.77-.18-.28 1.02-4.76 5.75-5.7 4.86zm-13.48.55c-.02-.06.09-.34.3-.73 1.41-2.17 1.2-1.74 4.2-4.51.33-.3.42-.36.66-.47l1.74-.81c3.06-1.58 5.1-3.07 5.31-3.89.06-.23.04-.36-.08-.5-3.56-1.89-10.91 9.13-14.3 8.04.7-.62 2.15-2 2.46-2.3.43-.41.44-.45.1-.45-.31.01-2.05.04-5.6.05-1.3 1.12-6.78 6.49-8.5 5.68-.24-.16 1.74-2.38 2.75-3.06 1.26-.84 2.08-1 2.43-.47.06.1.12.17.13.17l1.12-1.08c1.24-1.22 1.23-1.2.88-1.22-.24 0-.73-.1-.6-.23-1.78.2-8.59 5.27-11.02 5.92 1.63-1.72 3.16-3.07 5.29-5.57-2.22 0-1.97.14-3.54.36-2.46-1.56-5.98 2.98-7.38 2.63.47-.74 2.05-2.04 1.46-2.96-.63-.96-3.43 1.82-2.79 3.11-1.58 1.39-3.8 3.44-4.68 2.6.13-.26.5-.82 1.18-1.54 1.6-1.68 3.71-4 3.71-4.03-5.09-.41-5.72 5.71-9.3 5.57.07-.22.3-.45.49-.66 1.7-1.8 2.5-2.6 4.52-4.83-4.82-.33-5.46 4.6-9.2 5.17-.02-.03.98-1.06 2.72-2.83a20 20 0 0 0 1.34-1.42c.97-2.14-3.81-.18-3.04-.9.73-.44 2.9-1.8 3.54-2.25 1.57-1.13 2.44-1.95 2.76-2.63.13-.28.14-.59 0-.77-2.72-2.45-11.82 10.38-17.7 11.3 0-.34.63-1.57 1.23-2.3.78-.94 2.04-1.97 3.04-2.47.23-.12 0 0 .55-.21-.08.3-.16.4-.08.73.16.52.9.53 1.5 0 .21-.18.32-.39.31-.63-1.12-3.84-10.73 2.14-8.12 5.8.65.61 1.7.47 3.38-.44.36-.2 1.6-.94 1.47-.8-.16.35-1.05 1.04-1.18 1.4.01.02.52.03 1.12.03 1.1 0 1.1 0 1.61-.55 2.9-3.15 4.78-4.63 6.37-5.04.33-.09.45-.1.43-.04 0 .02-.46.44-1 .94-2.08 1.88-2.94 2.85-3.12 3.52-.07.28-.07.34.02.5.1.15.13.22.15.32.14.64 1.6.5 3.24-.32a13.1 13.1 0 0 0 1.88-1.22c0 .62-.08.47.05 1 .34.7.55.81 1.43.82.88 0 1.59-.32 2.47-1.1.26-.24.45-.48.45-.4 0 .06-.02.6.15.94.12.21.45.4.87.49.3.06.98.04 1.28-.03 1.1-.27 2.48-1.19 4.14-2.73.33-.3.33-.3.85-.31h.82c-.84 1.33-.75 1.54-.52 2.54.03.1.25.31.43.4.16.07.21.07.52.07.8 0 1.5-.3 2.47-1.04.25-.18.3-.2.3-.09 0 .12.32.74.43.83.32.28 1 .31 1.68.1.97-.36 1.54-.84 2.33-1.36.03.35.1.69.4 1 .5.5 1.54.55 2.66.1a18.67 18.67 0 0 0 4.17-2.64c.91-.73 1.8-1.5 2.73-2.3.9-.03 1.73-.07 2.47-.11-.2 2.33-3 1.48-4.1 1.97-.1.31-.83.74-.95.98.85.07 1.08 0 2.03.06a21.2 21.2 0 0 1-4.9 4.04c-1.9.07-6.94.33-6.15 2.16.09.28.38.47.84.55 1.74.04 3.53-.18 5-.93.4-.2.4-.2 1.77-.12 9.05.43 18.63 1.01 26.86.37 2.95-.21 5.82-.66 7.67-1.19a10.41 10.41 0 0 0 5.87-3.94 6.35 6.35 0 0 0 1.23-3.84c0-.52 0-.54-.12-.56-.36.08-.78.2-1.23.34 1.55 11.13-24.9 8.4-39.25 6.95 2.58-2.24 2.55-2.23 4.67-3.95l.32-.04a8.1 8.1 0 0 0 1.78-.36c.16-.05.46-.16.47-.15-.26 1.08-.41 1-.22 1.95.35.73.77.96 1.69.93 1.35-.05 3.04-1 4.74-2.68.44-.44.65-.5 1.76-.73-.7.88-1.13 1.58-.83 2.48.28.54.55.69 1.34.72 1.13.04 2.4-.32 4.12-1.2l.63-.34c-.13 1.05.52 1.45 1.13 1.45.8 0 1.88-.57 2.87-1.32-.02.6.07 1 .49 1.16 1.43.29 2.74-.45 3.93-1.16-.07.45.07.82.33 1 .72.5 2.56-.18 3.73-1.12.14.51.12.84.36 1.07.3.23.91.29 1.49.15a5.5 5.5 0 0 0 3.2-2.35c0-.02-.4-.26-.48-.3-2.2 1.98-2.86 1.73-2.7 1.57a166 166 0 0 0 4.76-5.05l.43-.5c-4.69-.28-6.95 6.57-9.6 5.73 2.34-2.38 2.82-2.7 5.23-5.7-3.5-.76-5.88 5.35-9.16 5.55 2.7-2.77 2.67-2.6 5.24-5.53-1.74-.08-1.93-.25-3.5.36-1.33-2.06-7.5 5.4-11.96 5.33a7.04 7.04 0 0 1 1.96-2.38c.26-.22 2.03-2.1 3.18-.93.05.02 2.37-2.13 2.36-2.2 0-.06-.03-.06-.23-.07-6.66.19-1.14-.52-8.36 2.66l.3-.47c.7-1.27.87-1.92.1-2.28-1.15 2.6-5.08 6.99-6.88 5.97zm-22.34.32c-.35.15-.14-.23.09-.7.33-.64.7-1.13 1.49-1.92.9-.9 1.78-1.56 2.68-2 .42-.22 1.33-.47 1.33-.39-1.28 1.8-3.4 4.03-5.59 5.01zm5.55 4.37c.58-.53 1.82-.46 2.56-.4-.15.3-2.42.67-2.56.4z" fill="#c6a05d"/><path d="M75.36 14.3c-.69.44-.65.45-.62-.03 0-.19.03-.42.04-.52.04-.25.03-.25-.39-.23a7.96 7.96 0 0 1-3.22-.5c-.5-.27-.37-.81.28-1.13 1.04-.5 3.43-.55 4.76-.1.63.22.85.4.85.68 0 .47-.62 1.13-1.7 1.83zm-11.68-.91c0 1.4 0 1.48-.05 1.48-.08 0-.64-.34-.98-.59a3.1 3.1 0 0 1-1.05-1.19c-.11-.23-.12-.25-.11-.54 0-.66.36-1.12 1.16-1.5l.72-.36c.22-.1.41-.19.43-.18l-.02.24c-.08.46-.1 1.2-.1 2.64zm-14.14 1.57c-.2.15-.23.11-.06-.11.2-.25.66-.81.79-.93.23-.21.46-.33.46-.23 0 .17-.68.9-1.2 1.27zm22.13.79c-.4.08-.39.09-.36-.15a8.39 8.39 0 0 0-.25-2.02 1.55 1.55 0 0 1-.07-.38 6.56 6.56 0 0 0 3.07.52c.51-.01.51-.01.51.49 0 .58.02.54-.33.7-.47.22-1.98.7-2.57.84zm-17.43 1.13c-.34.2-.46.1-.25-.2.42-.62 1.26-1.27 1.64-1.27.2 0 .09.17-.48.72-.45.43-.62.58-.91.75zm2.06 1.6c-.27.08-.66.1-.73.02-.02-.02 0-.05.04-.09.06-.04.12-.05.37-.05.49 0 .62.05.32.13zm10.47.84c-.55.41-.57.42-.57.35 0-.13 1.2-1.2 1.26-1.12.03.03-.06.2-.2.35-.05.07-.27.26-.5.42zm1.72 3.4c-.23.17-.3.17-.27 0 .09-.58 1.2-1.85 1.55-1.78.1.02.05.15-.3.66-.4.56-.7.9-.98 1.11zm-28.77-3.3c.84.14 2.16-.33 3.6-1.3.92-.6 1.25-.9 2.42-2.12 1.8-1.9 2.68-2.6 3.58-2.9.34-.12.8-.14 1.1-.06.28.08.27.1.55-.45.15-.28.19-.37.16-.4-.03-.02-.16-.04-.4-.03-.45 0-.71.07-1.27.34-.9.45-1.62 1-3.61 2.76a18.96 18.96 0 0 1-3.91 2.9c-1.02.51-2.21.75-2.56.52-.1-.07-.1-.07-.1-.34 0-.45.2-.76.71-1.1a5.85 5.85 0 0 1 2.4-.87c.57-.1.58-.1.58-.13 0-.02-.23-.13-.5-.26-.5-.24-.5-.24-.85-.08-.74.31-1.21.6-1.7 1-.72.6-1.05 1.12-1.05 1.66 0 .42.33.76.85.86zm2.12 4.52c-.46.1-.49.1-.55.03-.13-.14-1.8-3.04-5.22-9.03l-1.47-2.57a6.8 6.8 0 0 1-.47-.87c.07-.07 1.82-.5 3.29-.8C41 9.94 45.55 9.3 49.1 9.05c4.05-.29 9.81-.15 12.53.31 1.27.22 2.2.55 2.2.8 0 .08-.22.25-.5.38-1.1.52-1.28.62-1.57.92-.46.47-.58 1.03-.44 2.13l.18 1.78a304.5 304.5 0 0 0 .3 3.1 27.27 27.27 0 0 0-3.1-.39c-.52-.03-.64-.05-.64-.09l.34-.28.74-.56c.4-.3.4-.3.69-.32.29-.02.7-.07.79-.1.07-.02.3-.33.28-.37-.01-.02-.05-.02-.11 0-.2.05-.64.07-.63.02 0-.02.18-.2.41-.37.6-.49.58-.46.53-.5a9.59 9.59 0 0 0-1.45-.1c-.27 0-.27 0-.72.37-1.01.82-2.04 1.4-2.3 1.3-.14-.06.02-.3.4-.63.56-.5.97-.69 1.13-.5.03.04.08.07.09.07.05 0 .72-.67.7-.7-.03-.05-.38 0-.6.08-.35.13-.37.13-.3.02.1-.14.07-.16-.25-.16-.29 0-.29 0-.67.36-.86.8-1.2 1.07-1.64 1.3-.33.16-.3.07.17-.43l.8-.83c.23-.23.4-.42.4-.43a2.27 2.27 0 0 0-.81.02c-.07.04-.08.04-.19-.03-.32-.22-1.17.03-1.65.49-.53.5-.92.65-.54.2.2-.23.33-.5.3-.61-.06-.3-.34-.24-.7.12-.27.3-.38.57-.29.77.05.12.05.12-.19.34-.43.42-.94.69-1.06.57-.1-.1 0-.21.9-1.22.27-.3.48-.57.47-.59a1.27 1.27 0 0 0-.37-.03c-.36 0-.36 0-.83.54-.94 1.07-1.53 1.56-1.57 1.3 0-.08.15-.28.86-1.1.33-.38.56-.66.55-.68a1.75 1.75 0 0 0-.74.04l-.52.55a5.55 5.55 0 0 1-1.39 1.26c-.09 0-.04-.06.63-.91.5-.62.53-.68.44-.8-.12-.18-.36-.16-.8.04-.36.17-.38.13-.04-.1 1.1-.78 1.88-1.69 1.63-1.9-.13-.1-.56 0-.9.23a12.5 12.5 0 0 0-2.08 2.2 6.3 6.3 0 0 1-1.68 1.63c-.4.26-.46.25-.39-.06.1-.4.54-1.04.94-1.32.25-.18.3-.2.3-.07 0 .27.4.23.56-.06.06-.11.06-.11 0-.21-.3-.53-1.44-.06-2.19.92-.28.37-.4.9-.26 1.14.2.33.57.31 1.06-.06.23-.17.23-.17.22-.06 0 .1 0 .1.32.11.32.01.32.01.6-.36.62-.82.9-1.14 1.32-1.44.28-.21.62-.35.62-.25 0 .03-.2.29-.67.83-.3.37-.52.71-.52.84 0 .04.04.11.08.15.07.07.09.07.25.04.32-.07.58-.22.98-.56.21-.19.24-.19.24 0 0 .44.68.47 1.15.05.15-.14.17-.13.22.01.12.3.54.33 1.04.07.21-.1.35-.21.7-.56.31-.3.31-.3.52-.31.23-.02.22-.06.1.34-.08.28-.06.4.08.52.18.16.52.1.85-.16.16-.13.2-.13.2-.05 0 .17.16.28.41.28.2 0 .36-.06.65-.23.27-.16.26-.16.28-.05.03.12.23.3.37.32.45.09 1.2-.26 2.28-1.07.5-.37.5-.37.87-.37.45 0 .46 0 .2.26-.18.18-.18.18-.53.17-.35-.01-.35-.01-.58.17a.86.86 0 0 0-.21.2c0 .02.14.05.3.06l.3.05c0 .07-.8.68-1.23.95-.27.17-.27.17-.69.17-.84 0-1.33.12-1.58.37-.17.16-.18.24-.08.34.21.21.94.19 1.63-.06.3-.1.3-.1.66-.07 1.65.16 3.7.45 4.1.59.13.04.13.04.2.82a158.41 158.41 0 0 1 .32 3.44c0 .08-.09.08-.63 0a74.92 74.92 0 0 0-5.77-.6 48.88 48.88 0 0 0-14.05 1.15zm28.88-3.95c.18.09.48.01.56-.14.07-.14.06-.17-.07-.28-.1-.1-.12-.1-.27-.08-.38.04-.52.34-.22.5zm-.87.07c.1.03.12.03.24 0 .28-.09.38-.3.2-.45-.2-.17-.66-.03-.66.2 0 .09.12.23.22.25zm.38 8.38a17.5 17.5 0 0 1-5.56-.4c-.81-.2-1.8-.74-1.9-1.02a12.7 12.7 0 0 1-.1-1.02 236.69 236.69 0 0 0-.19-2.3s.19.05.4.13c1.74.63 3.67.91 5.74.83 1.78-.06 3.06-.27 3.95-.65 1.46-.62 2.34-2.01 2.1-3.35-.06-.34-.06-.34-.3-.13l-.3.25c-.08.08-.08.08-.02.35.14.54.05 1.2-.21 1.6-.34.5-1.01.78-2.65 1.08-2.68.5-5.51.32-8.02-.53-.82-.27-.74-.21-.79-.63-.05-.5-.04-.56.03-.56.08 0 .54-.17 1-.37.2-.09.37-.15.38-.14l-.04.15c-.18.4-.07.72.28.81.39.11 1.1-.26 1.6-.83.1-.12.1-.12.33-.12.12 0 .26-.02.3-.03.12-.04.12 0-.04.21-.3.4-.37.71-.25 1 .18.42.7.5 1.35.2.32-.15.32-.15.37.02.1.35.52.34.91 0 .19-.18.23-.18.27-.03.12.47.73.42 1.43-.1.26-.2.26-.2.28-.06.03.13.17.26.3.26.18 0 .42-.14.66-.39.24-.23.24-.23.4-.08.17.16.24.17.53.04.33-.14.94-.9.82-1.02-.07-.07-.13-.03-.3.22-.14.22-.42.5-.5.5-.1 0-.06-.1.27-.64.37-.62.84-1.49.84-1.54 0-.05-.02-.05-.39.07-.38.12-.37.11-.65.6-.26.45-.83 1.33-.97 1.49-.2.24-.45.38-.45.25 0-.04.24-.48.8-1.51.17-.3.3-.55.28-.56-.03-.04-.66.1-.72.16-.05.05-.17.26-.72 1.3l-.27.45c-.13.17-.63.5-.8.52-.36.06-.33-.02.34-.99.69-.97.87-1.26.83-1.3a1.09 1.09 0 0 0-.34 0c-.28.03-.33.04-.4.1-.1.1-.12.1-.2.02-.07-.08-.29-.08-.53 0-.65.22-1.22.76-1.58 1.48-.13.25-.15.28-.33.4-.38.24-.76.32-.92.17-.33-.3.36-1.27 1.09-1.52.14-.05.14-.05.25.03.1.09.1.09.47-.27.3-.31.35-.37.31-.4-.05-.06-.32-.01-.63.11-.24.1-.26.1-.19-.01.08-.12.04-.14-.3-.14-.3 0-.3 0-.44.15-.23.28-.72.57-.99.6-.21.02-.21-.02-.02-.24.34-.37.44-.75.25-.91-.11-.1-.13-.1-.3-.02-.46.2-.8.83-.6 1.14.06.1.06.1-.03.23-.2.3-.88.74-1.1.71-.11-.01-.1-.17.04-.45.15-.3.3-.5.8-1.05.42-.45.42-.46.83-.7 1.04-.59 1.85-1.28 1.85-1.58 0-.36-.68-.16-1.46.42-.36.27-1.07.92-1.73 1.58a3.9 3.9 0 0 1-2.14 1.22c-.24.04-.24.04-.27-.28a223.93 223.93 0 0 0-.78-8.07s.04.02.07.06c.9 1.35 2.95 2.37 5.55 2.75 1.22.17 2.87.12 4.33-.15 2-.38 4.04-1.32 5.02-2.33.16-.17.3-.3.31-.29a28.3 28.3 0 0 0-1.03 5.47 34 34 0 0 0-.04 7.2c.02.24.02.3-.02.4-.41.96-2.7 1.8-5.45 1.98zM50.3 40.58c-.03.05-.05.05-.22-.05-.23-.13-.34-.26-.3-.34.12-.22.21-.37.25-.38.07-.03.3.66.27.77zm7.7.5c.01.06.01.06-.47.02a.99.99 0 0 1-.32-.05.69.69 0 0 1-.04-.27c-.02-.25 0-.28.16-.22.14.05.68.46.68.52zm5.03 6.6l.46.03c.07.01.36-.06.4-.1.12-.09-.06-.46-.27-.55l-.62-.3a7.62 7.62 0 0 0-.7-.3 2.05 2.05 0 0 1-.89-.55c-.6-.57-.68-.77-.86-1.9-.35-2.22-.4-2.6-.3-2.66.1-.1.16-.23.2-.48.04-.2.06-.28.12-.34.1-.1.1-.1-.08-.53a12.55 12.55 0 0 0-2.22-3.37c-.33-.36-.32-.33-.2-.69a1.3 1.3 0 0 0 0-.75c-.07-.3-.06-.3.26-.23.38.07.5.07.64-.05.06-.06.16-.1.25-.12.28-.05.32-.14.32-.74 0-.49 0-.49.1-.62.08-.13.08-.14.08-.55 0-.74-.22-1.28-.73-1.85a.94.94 0 0 1-.2-.33c-.04-.1-.14-.27-.23-.4-.1-.13-.26-.37-.35-.53-.63-1.07-.82-1.22-1.96-1.48-.82-.2-1.51-.44-1.51-.53 0-.04.12-.13.25-.2.12-.06.12-.06.14-.36.03-.45.16-.94.27-1 .04-.03.2.02.54.14.2.07.43.07.45 0 .03-.07-.07-.86-.13-1.04-.13-.38-.24-.5-.8-.86a7.13 7.13 0 0 0-2.75-.95 5.39 5.39 0 0 0-1.64-.04c-.1.04-.32.3-.52.6-.15.21-.17.45-.04.55.12.08.18.24.38.96.27 1 .31 1.06.6 1.03.2-.02.28 0 .33.14l.16.27c.26.4.3.55.15.68-.17.14-.3.16-.67.08-.4-.1-.68-.1-1.1 0-.46.1-1.5.12-1.97.05l-.68-.08a2.83 2.83 0 0 1-.93-.22c-.66-.22-.97-.26-1.16-.15-.18.1-.5.08-.85-.07a2.16 2.16 0 0 1-.4-.33c-.34-.33-.41-.37-.71-.42a1.08 1.08 0 0 0-.48.02c-.32.06-.23.16-.98-1.05-.66-1.09-.76-1.26-.74-1.3.03-.08 1.52-.4 2.7-.6a47.06 47.06 0 0 1 4.39-.52 33.7 33.7 0 0 1 4.15-.14c2.9 0 3.9.04 6.16.25 1.34.12 3.26.35 3.39.4.08.04.08.04.17 1.25.16 2.03.2 2.3.29 2.4.22.24.97.64 1.53.84 1.15.4 2.53.6 4.24.63 1.82.03 3.2-.12 4.62-.5 1.29-.33 2.31-.92 2.66-1.52.12-.2.12-.27.07-1.04-.07-.87-.08-3.93-.02-4.79.25-3.52.67-6.16 1.27-7.8.2-.55.21-.7.06-.92-.31-.46-1.83-.86-3.3-.86-1.56 0-2.63.32-3 .89-.17.26-.17.3-.03 1.02a9.3 9.3 0 0 1 .28 2.6c-.11.2-2.58.3-3.8.14a11.4 11.4 0 0 1-3.14-.8c-.25-.11-.25-.11-.27-.5-.04-.95 0-3.53.1-4.21.04-.4.03-.43-.12-.55a5 5 0 0 0-1.6-.57c-1.05-.22-3.2-.44-4.86-.5a65.84 65.84 0 0 0-14.1.69 85.43 85.43 0 0 0-8.91 1.76c-.31.09-.35.1-.4.05-.04-.04-.03-.06.04-.17.17-.25.1-.64-.15-.78a.6.6 0 0 0-.9.46c-.05.3.08.47.44.6.22.08.2.04 2.74 4.5a1382.44 1382.44 0 0 0 6.32 11.03c0 .03-.06.09-.13.14-.28.2-.3.4-.07.56.04.03.12.14.17.25.06.13.13.2.2.25a.7.7 0 0 1 .17.18c.13.18.36.32.53.3.16-.02.18 0 .44.42.1.16.2.32.23.34.08.06.27.05.36-.03.1-.1.09-.19-.1-.48-.16-.25-.15-.27.1-.3.23-.01.25.02.26.36 0 .3.05.6.12.7.03.05.16.14.3.2.24.14.36.24.42.4.06.13.14.16.46.18.35.02.47.05.97.28.57.26.67.29 1 .29.31 0 .39-.03.8-.28.25-.14.48-.13.88.03.66.28.63.27 1.08.25.47-.02.52 0 .52.19 0 .15.14.64.3 1.06l.15.44c0 .11.2.15-3.2-.67-1.96-.48-2.1-.5-2.28-.4-.21.13-.23.3-.1.75.1.3.3.43.9.55l1.22.3c1.67.4 2.58.6 3.11.7.85.16.76.07.76.78 0 .74.05.99.32 1.65.04.1.04.1-.14.27-.32.32-.45.63-.57 1.45-.1.6-.09.58-.29 1.08-.25.64-.5 1.08-.6 1.08-.02 0-.05-.05-.07-.1l-.07-.32c-.12-.43-.21-.53-.5-.5-.47.04-.6.12-.7.45-.06.21-.1.84-.06.88l.27.11c.14.05.29.12.33.17.07.07.07.07-.04.25-.34.53-.45.93-.5 1.78a8.75 8.75 0 0 1-.17 1.79c-.1.36-.37.95-.68 1.44-.19.3-.21.36-.21.48 0 .25.25.61.45.65.18.04.8.02 1.2-.03.36-.05.43-.05.73-.02.35.05 1.25.03 1.48-.02.2-.04.22-.18.1-.44-.13-.29-.36-.39-1.07-.5a7.2 7.2 0 0 1-.84-.15c-.11 0-.3-.12-.3-.2 0-.04.71-1.56.89-1.9.24-.46.27-.33.11.5-.1.52-.14.93-.1.93.04 0 .3-.17.36-.23.05-.07.1-.35.14-.9.04-.57.08-.9.12-.94.07-.07.09.08.1.8 0 .73 0 .73.19.88.26.21.26.21.24-.21-.02-.36 0-.45.08-.35.04.05.26.06.28.01.01-.01-.07-.4-.17-.87-.38-1.63-.38-1.5 0-1.9.28-.28.36-.38.46-.59.15-.3.44-.6.99-1.04.4-.33.54-.5.92-1.12.13-.2.25-.39.28-.4.04-.02.12 0 .34.09.33.15.98.35 1.22.4.53.1 1.23.73 1.39 1.25.05.2 0 .2-.24 0-.35-.28-.47-.3-.82-.14-.23.1-.23.1-.22.5.02.4.06.59.13.62l.41.06c.42.06.52.09.52.16 0 .06-.19.51-.46 1.11-.23.52-.24.6-.13.84.04.1.1.18.11.18.02 0 .08-.13.14-.3.1-.29.16-.4.2-.34l-.03.55c-.03.3-.04.56-.03.6.02.09.53.65.57.64.03-.01.04-.28.05-.94.01-.59.03-.92.05-.92.01 0 .07.08.12.17.36.7.78 1.35 1.17 1.85.42.54.5.89.34 1.6-.1.4-.1.5.02.6.17.17.4.26.6.24.24-.02.81.03 1.54.14.33.05.8.1 1.03.11zm31.9.56c.72.1 1.54-.46 1.38-.95-.27-.82-1.96-.73-2.15.11-.09.42.23.76.78.84zM92 48.22c.29.09.8.04 1.1-.11.2-.1.43-.36.48-.53.2-.66-.91-1.1-1.7-.67-.66.36-.59 1.09.12 1.3zM5.63 58.06c.4.03 1.46.01 1.97-.03 2.85-.26 6.4-1.41 10.12-3.3 2.34-1.18 3.42-1.87 7.3-4.66 3.86-2.77 5.73-3.97 7.67-4.94 1.38-.7 2.32-1.07 3.38-1.34 2.05-.52 3.81-.34 5.27.55l.23.13a109.64 109.64 0 0 1 1.4-1.7c.36-.42.65-.78.65-.81 0-.11-1-.34-1.8-.4-2.63-.22-6.03.9-11.06 3.66-1 .55-1.53.86-4.3 2.5-2.6 1.54-3.87 2.28-5.09 2.96-5.93 3.3-9.86 4.82-13.62 5.25-.74.08-2.5.07-3.2-.02-1.84-.25-2.23-.51-2.1-1.44.17-1.3 1.07-2.4 2.59-3.18 2.16-1.1 4.66-1.55 8.69-1.54 1.27 0 1.55-.01 1.55-.06 0-.06-2-1.61-2.42-1.9-.12-.08-.12-.08-.62.03-2.11.45-3.93 1.03-5.46 1.72-2.73 1.23-4.6 2.8-5.23 4.36a2.6 2.6 0 0 0 1.37 3.48c.81.4 1.62.6 2.71.68zm73.3-9.27c-.33.15-.35.15-.22-.04.1-.13.44-.45 1.14-1.05 1.73-1.49 3.18-2.5 3.56-2.51.12 0 .12 0 .12.11 0 .45-1.47 1.73-3 2.63-.42.25-1.29.72-1.6.86zm-43.25.74c-.45.25-.42.2.35-.62 2.15-2.3 3.7-3.6 4.38-3.67.19-.02.31.02.31.1a1 1 0 0 1-.1.21c-.48.92-2.88 2.85-4.94 3.98zm50.8 5.95c-.33.14-.4.16-.53.12-.18-.04-.2-.2-.08-.55.41-1.14 1.82-2.69 3.43-3.77 1.31-.88 2.44-1.17 2.44-.62 0 .11-.02.15-.24.37a43.54 43.54 0 0 1-3.26 3.27 8 8 0 0 1-1.76 1.18zm-36.14.78l-.2.07c-.27-.05-.32-.12-.25-.4.26-1.04 1.61-2.63 3.2-3.77 1.44-1.02 2.74-1.4 2.74-.8 0 .1-.03.14-1.13 1.28-2.2 2.31-3.3 3.22-4.36 3.62zm6.39 4.51c-.76.1-1.19.02-1.13-.21.06-.23.5-.43 1.15-.5.32-.04 2.07-.02 2.26.02.16.04.08.08-.6.3-.63.2-1.09.31-1.68.4zm-.42.67a9.6 9.6 0 0 0 4.52-.96c.44-.21.44-.21 1.76-.15l2.55.14c3.63.22 6.66.35 10.7.48 1.72.05 7.91.05 9.21 0 5.07-.2 7.6-.46 10.47-1.03 2.87-.57 4.8-1.49 6.37-3.03a7.57 7.57 0 0 0 2-2.9c.3-.8.45-1.8.35-2.51-.03-.24.02-.24-.56 0-.75.3-.91.39-.89.45.33.8.34 1.85.05 2.7-.5 1.42-2.02 2.73-3.94 3.4-2.1.72-6.1 1.07-13.68 1.21a366.16 366.16 0 0 1-21.55-.4c-.28-.02-.38-.04-.38-.07 0-.02.78-.68 1.71-1.46l2.51-2.11c.7-.58.83-.69.91-.69.2 0 .99-.12 1.34-.2a6.4 6.4 0 0 0 1.36-.46c.2-.1.37-.16.38-.15 0 .01-.07.16-.18.33-.4.64-.56 1.12-.53 1.65.01.37.1.57.32.78.63.59 1.7.54 3.09-.13a9.98 9.98 0 0 0 2.84-2.1c.55-.53.42-.46 1.33-.66.45-.1.85-.22 1.18-.35.12-.05.05.09-.17.31-.6.63-1.05 1.3-1.18 1.74-.06.2-.06.6 0 .76.14.41.6.6 1.4.6 1.13 0 2.28-.36 4.1-1.29.6-.3.65-.32.63-.22-.05.2-.06.32-.02.58.06.57.33.83.88.87.78.04 1.66-.34 2.77-1.22.36-.28.36-.28.33-.06-.03.21-.03.39 0 .62.07.49.67.67 1.66.5a7.46 7.46 0 0 0 2.6-1.17c.02 0 .04.08.04.21a1 1 0 0 0 .31.72c.66.61 2.34.19 3.53-.88.12-.11.23-.2.25-.2.02 0 .03.07.03.18 0 .3.13.67.28.84.24.24.74.36 1.2.28a5.39 5.39 0 0 0 3.4-2.35c0-.05-.2-.17-.28-.17-.02 0-.16.14-.3.3-.5.58-.95.95-1.5 1.25-.54.3-.82.35-.96.18-.13-.17.01-.4.7-1.1a140.64 140.64 0 0 0 4.35-4.72c0-.02-.34-.03-1.05-.03-1.04 0-1.04 0-1.3.3a51.45 51.45 0 0 1-4.11 4.06c-1.19.99-2.15 1.54-2.6 1.48-.2-.03-.22-.06-.22-.24 0-.2 0-.2.85-1.1a80.03 80.03 0 0 0 4.06-4.44c0-.02-.28-.03-1.05-.03-1.14 0-.73-.34-4.37 3.6-1.2 1.32-1.9 1.84-2.92 2.2-.39.13-.82.07-.82-.12 0-.18.85-1.1 3.7-4 .85-.87 1.55-1.6 1.55-1.62 0-.03-.12-.04-.55-.02l-1.15.02c-.59 0-.59 0-.88.29-.16.16-.32.29-.34.29-.03 0-.1-.09-.17-.24-.1-.23-.12-.24-.31-.33-.7-.35-2.34-.02-3.64.72a9.74 9.74 0 0 0-3.47 3.31c-.26.4-.29.42-.76.7-1.32.75-2.97 1.33-3.6 1.25-.56-.07-.58-.42-.06-1.2.36-.52.72-.91 1.42-1.5 1.6-1.34 2.91-1.8 3.33-1.13.09.15.09.15.36-.12.9-.87 1.87-1.85 1.87-1.89 0-.07-.76-.02-1.17.08-.78.18-1.4.44-2.06.88-.18.12-.35.22-.37.22-.1 0 0-.15.46-.6.27-.27.5-.51.48-.52 0-.02-.43-.03-.94-.03-.93 0-.93 0-1.92 1-1.05 1.06-1.04 1.05-1.69 1.38-.7.35-1.62.65-1.62.53 0-.02.11-.18.24-.36.51-.68.83-1.32.93-1.85a.9.9 0 0 0-.19-.56c-.26-.26-.76-.16-1.44.29-1.54 1.04-2.17 2.58-1.26 3.11.14.09.11.15-.32.57-.69.7-1.33 1.15-2.13 1.55-.73.36-1.41.56-1.7.49-.12-.03-.28-.2-.3-.31-.06-.31.5-1.34 1.22-2.24.5-.63 2.3-2.33 3.57-3.38.07-.06.4-.22.73-.37a30.73 30.73 0 0 0 5.19-2.94c1.4-1.05 1.84-1.78 1.26-2.13-.15-.1-.61-.12-.98-.04-1.2.24-3.16 1.33-5.44 3.04a49.6 49.6 0 0 0-4.87 4.1c-.7.66-.88.81-1.25.99a6.03 6.03 0 0 1-2.13.5c-.02-.04.09-.15.68-.69a32.17 32.17 0 0 0 2.58-2.46c0-.04-.39-.04-2.69-.02-2.7.02-2.7.02-2.86.18-1.34 1.21-1.8 1.61-2.42 2.15-.96.83-1.04.89-2.05 1.65-1.08.8-1.15.85-1.7 1.18-1.16.7-2 1-2.33.84-.34-.16-.37-.32-.12-.71.52-.87 1.74-2.1 2.68-2.74 1.23-.82 2.11-.98 2.44-.46.05.08.1.14.12.14.07 0 2.18-2.12 2.15-2.16-.05-.05-.8.01-1.17.1-.7.15-1.5.5-2.08.88-.33.23-.43.28-.43.2 0-.02.22-.26.5-.54.27-.27.5-.52.5-.54 0-.03-.2-.04-.92-.04-.93 0-.93 0-1.04.1-.07.05-.83.8-1.71 1.68-1.96 1.95-2.47 2.4-3.31 3-.7.5-1.69 1.1-1.9 1.14-.28.06-.44-.14-.29-.37.08-.12 1.59-1.7 3.87-4.05l1.39-1.45-1.14-.01c-1.15 0-1.15 0-1.46.3-.19.19-.32.3-.35.29a.8.8 0 0 1-.15-.24c-.09-.19-.12-.23-.26-.31-.63-.37-2.25-.08-3.58.64-.74.4-1.4.9-2.2 1.66-.7.68-.74.72-1.06.84-.31.12-.9.21-1.01.16-.08-.04-.08-.04.36-.5.9-.93 1.55-1.83 1.59-2.23.04-.37-.2-.76-.47-.81-.44-.08-1.34.42-1.9 1.06-.14.16-.46.65-.58.9-.27.52-.3 1.06-.1 1.45l.1.24-1.21 1.1c-1.44 1.2-2.73 1.8-3.2 1.47-.36-.25-.16-.74.67-1.62 1.68-1.78 3.92-4.17 3.93-4.2.02-.04-2.19-.03-2.24.02l-1.27 1.32c-3.4 3.58-4.66 4.63-5.44 4.5-.2-.02-.27-.1-.25-.3.05-.33 0-.28 2.34-2.76 2.56-2.72 2.53-2.68 2.53-2.72 0-.01-.47-.02-1.1-.02-1.1 0-1.1 0-2.72 1.62-.9.89-1.76 1.73-1.93 1.88-1.1.97-2.97 2.1-3.45 2.1-.21 0-.26-.1-.14-.27.1-.15 1.23-1.32 2.82-2.93 1.62-1.63 1.58-1.58 1.53-1.94-.05-.41-.24-.56-.73-.58a8.51 8.51 0 0 0-3.35.99c-.82.39-.84.38-.36-.05.27-.24.4-.33.78-.54a33.72 33.72 0 0 0 5.92-4.03c.55-.52.97-1.1 1.04-1.42a.82.82 0 0 0-.1-.43c-.2-.32-1.1-.34-1.88-.05-1.17.44-3.13 1.8-5.05 3.53a68.04 68.04 0 0 0-4.08 4.06 10.58 10.58 0 0 1-2.56 2.2 16.25 16.25 0 0 1-3.42 1.78c-.34.12-.49.1-.62-.07-.06-.07-.05-.45.02-.67.4-1.25 1.84-2.88 3.48-3.95a9.6 9.6 0 0 1 1.78-.87c.05 0-.02.09-.24.3-.29.29-.34.39-.31.62.04.3.3.5.63.47.46-.04 1.12-.6 1.12-.95 0-.36-.39-.79-.86-.96-.88-.3-2.25-.03-3.56.72-2.06 1.18-3.57 2.8-3.96 4.25-.1.36-.1 1.05 0 1.3.26.64 1.04.92 1.93.7.7-.18 2.19-.93 3.22-1.63.42-.28.37-.2-.5.8a9.1 9.1 0 0 0-.58.68c0 .04.48.07 1.35.07.7 0 .7 0 1.28-.63 3.15-3.45 5.47-5.12 7.02-5.06.32 0 .34.05.14.33-.15.2-.37.41-1.58 1.51-2.1 1.9-2.96 3.06-2.64 3.6.44.76 3.13-.12 4.92-1.61.28-.23.37-.3.37-.25l-.08.28c-.08.28-.1.8-.04 1.01.09.31.36.59.67.67.66.18 1.4.06 2.13-.35.39-.21.67-.43 1.13-.87.2-.2.39-.35.4-.35.01.01 0 .14-.02.29-.05.29-.05.3.08.67.14.4.67.64 1.43.64.57 0 .98-.12 1.72-.48a12.3 12.3 0 0 0 2.87-2.12c.62-.56.5-.5 1.07-.51.41 0 .53-.02.79-.08.16-.05.31-.07.32-.06.01.01-.1.25-.23.54l-.35.75c-.43 1.1-.18 1.82.66 1.86.83.05 1.67-.33 2.8-1.24.34-.27.41-.3.36-.16-.17.46-.03 1.01.32 1.2.72.4 2.04-.04 3.54-1.17.48-.35.5-.36.47-.24-.08.35-.08.4-.05.5.4 1.23 1.9 1.29 3.98.15 1.33-.74 2.58-1.67 5.02-3.76.86-.73.86-.73 1.08-.73.24 0 1.75-.05 2.3-.08.3-.01.36 0 .36.03 0 .05-.5.6-1.1 1.21-.46.48-.46.48-1.6.48-1.15 0-1.15 0-1.89.6-.4.33-.74.61-.74.63-.01.02.14.04.5.06.47.02.81 0 1.63-.04.27-.01.32 0 .32.03a23.9 23.9 0 0 1-4.59 3.86c-.52.32-.46.3-1.18.33-1.9.06-3.3.26-4.23.61-1.3.48-1.88 1.16-1.43 1.67.17.2.42.28 1.05.36zm29.72 4.84c.18.18.6.1.73-.15.24-.43-.16-.78-.6-.51-.23.14-.3.49-.13.66zm-1.28.05c.1.06.34.05.46-.02.3-.17.36-.6.1-.73-.12-.07-.38-.05-.51.04-.27.18-.3.58-.05.71zm-13.85.2c.19.16.54.09.7-.14.18-.25.09-.56-.2-.6-.43-.1-.81.48-.5.74zm-28.25.04c.37.19.86-.23.7-.6-.13-.3-.66-.25-.82.08-.1.21-.05.42.12.52zm37.34.05c.3.07.62-.19.62-.5 0-.5-.8-.41-.9.1-.03.2.08.36.28.4zm-51.67-.05c.11.09.34.1.5.02.27-.12.38-.5.2-.67-.3-.31-.9.04-.8.48 0 .05.05.12.1.17zm20.13 1.98c-.4.12-.4.07-.05-.29.68-.69 1.32-1.06 1.5-.86.05.06.05.07 0 .18-.15.33-.82.77-1.45.97zm-8.1 1.56c.06.04.14.05.27.04.31-.02.65-.23 1.47-.9 1.06-.88 1.08-.87.33.1-.29.36-.53.68-.53.7-.02.04.05.05.4.05.43 0 .43 0 .62-.27.4-.55.6-.78 1.36-1.46.53-.49.8-.7 1.1-.84.33-.15.46-.18.53-.13.08.07.04.13-.25.46-1.16 1.26-1.42 1.72-1.2 2.07.14.23.52.3.83.16a7 7 0 0 0 1.15-.8c.4-.33.46-.34.4-.1-.12.45.03.82.36.9a2.4 2.4 0 0 0 1.62-.3c.47-.28 1.2-.8 1.2-.86 0-.06.01-.07-.45.22-1 .64-1.49.86-1.95.86-.18 0-.34-.11-.34-.25 0-.12.17-.43.35-.63.17-.2.17-.2.62-.35.63-.22.9-.35 1.25-.57.55-.37.76-.7.56-.9-.15-.15-.6-.13-1.14.05-.52.17-.84.37-1.35.81-1 .89-2.18 1.75-2.5 1.82-.12.03-.2-.05-.16-.14.05-.1.3-.4.69-.84.56-.62.74-.93.74-1.28 0-.46-.25-.61-.76-.44-.26.09-.52.24-.91.53-.41.3-.41.21 0-.31.08-.1.13-.18.12-.18l-.38-.03c-.38-.02-.38-.02-.64.32-.21.27-.33.39-.64.63-.21.16-.64.5-.94.76-1.04.86-1.41 1.09-1.55.93-.05-.07.06-.26.48-.8a34.7 34.7 0 0 0 1.34-1.77c0-.02-.15-.03-.4-.03-.4 0-.4 0-.76.45-.47.6-.9 1.2-1.03 1.41-.18.35-.14.78.1.91zm18.34-3.54c-.32.17-.58.26-.6.22-.1-.14 1.27-1.8 1.88-2.3.73-.58 1.26-.52.94.12a6.42 6.42 0 0 1-2.22 1.96zm-5.66 3.59c.28.03.9.01 1.27-.05.7-.1 1.32-.41 2.03-1.02.32-.26.48-.47.97-1.2.52-.78.52-.79.97-.96a5.52 5.52 0 0 0 2.06-1.35c.67-.7.93-1.14.84-1.44-.17-.5-1.42 0-2.56 1-.3.28-.54.55-1.09 1.25-.51.66-.43.62-1.2.56-1.2-.11-1.9-.73-1.74-1.57.14-.74 1.04-1.4 2.1-1.53a6.24 6.24 0 0 1 1.4.05c.47.08.28-.08-.2-.2a5.42 5.42 0 0 0-1.49.01c-.75.15-1.39.52-1.71 1-.58.86-.32 1.71.64 2.15.21.1.58.18 1.07.22.26.03.5.06.51.08a7 7 0 0 1-1.27 1.65c-.83.83-1.51 1.17-2.37 1.18-.7 0-1.32-.3-1.32-.64 0-.18.08-.23.25-.18.33.12.57 0 .57-.27 0-.2-.1-.29-.3-.29-.41 0-.67.26-.68.69 0 .46.45.77 1.25.86zm-23.16-1.58c-.49.17-.5.13-.06-.3.68-.69 1.32-1.04 1.46-.82.15.25-.61.86-1.4 1.12zM22.54 70c-.16.07-.38.1-.42.05-.08-.08.06-.38.35-.77.53-.73 1.84-1.82 2.17-1.82.16 0 .17.18.03.47-.29.6-1.53 1.8-2.13 2.07zm-.68.17c.08.04.16.05.35.04.34-.01.62-.15 1.21-.6.16-.11.2-.1.2.1 0 .33.17.51.49.51.35 0 .82-.3 1.72-1.11l.4-.34c.05 0 .02.06-.1.24-.24.37-.31.73-.2.98.15.3.57.26 1.13-.11.16-.11.3-.22.97-.76.21-.18.26-.16.18.07-.08.24-.05.63.05.77.27.34 1.17.3 1.86-.08.32-.18.94-.6 1.26-.86 0 0 0-.03-.02-.04-.02-.02-.16.05-.42.22-.96.62-1.52.87-1.98.87-.41 0-.4-.43.04-.9.16-.18.19-.2.5-.3 1.21-.4 1.97-.92 1.97-1.34 0-.2-.1-.27-.4-.26-.67.01-1.34.29-1.99.82l-.85.7c-.9.73-1 .81-1.28 1-.3.2-.46.27-.55.22-.12-.07-.04-.22.39-.76.39-.48 1.38-1.79 1.4-1.84 0-.03-.08-.04-.38-.04-.46 0-.41-.02-.7.34-.26.33-1.92 1.8-2.33 2.07-.37.25-.62.3-.62.14 0-.06.23-.4.48-.71l1.02-1.32a7866.94 7866.94 0 0 1 2.48-3.26c0-.01-.17-.02-.37-.02-.34 0-.37 0-.43.07-.07.06-.4.49-1.7 2.15-.53.67-.63.78-.65.7-.23-.69-2.15.05-2.95 1.12-.32.42-.41.65-.41 1 0 .32.05.43.23.52zm-3.29.06h.22c.45-.05.7-.63.37-.86-.13-.09-.43-.08-.6.01-.34.21-.34.8.01.85zm-3.5-.03c.35.17.82-.11.82-.49 0-.28-.15-.42-.46-.4-.49.04-.75.7-.36.9zm-3.44 0c.13.07.42.06.55-.01.32-.18.4-.63.13-.8-.13-.1-.43-.08-.58.02-.3.2-.36.65-.1.8zm66.25-3.3c-.5.39-.54.42-.56.38-.03-.04.03-.1.63-.88 1.16-1.48 1.88-2.15 2.26-2.12.1.01.11.02.12.1.04.33-1.04 1.44-2.45 2.53zm-14.13 1.56c-.54.21-.66.21-.5 0 .38-.47 1.27-1.12 1.54-1.12.14 0 .21.1.17.22-.09.26-.65.69-1.2.9zm18.93 1.48c-.36.17-.6.11-.53-.12a7.08 7.08 0 0 1 1.78-1.97c.51-.4.92-.5.92-.25 0 .42-1.48 2-2.17 2.34zm-11.18.02c-.25.1-.33.1-.4.02-.14-.15.16-.6.9-1.35.7-.71 1.35-1.2 1.62-1.2.12 0 .18.1.14.24a6.12 6.12 0 0 1-2.26 2.3zM55.2 72.32c0 .01.15.02.36.02.35-.01.35-.01.92-.74a44.45 44.45 0 0 1 2.05-2.51c.21-.22 1.01-.95 1.27-1.16.35-.3.85-.54 1.04-.52.17.02.1.13-.33.61-1.04 1.16-1.26 1.57-1.06 1.93.12.2.44.3.73.2.21-.07.7-.4 1.14-.74.57-.46.58-.47.61-.45.02.01.02.06-.01.12-.1.25-.1.64.02.81.23.34 1.03.34 1.74 0a9.44 9.44 0 0 0 1.7-1.16l.8-.61c.54-.4.55-.41.66-.34a.8.8 0 0 0 .34.07c.14.01.26.04.26.05.02.04-.37.34-1.06.85l-.63.46c-.1.07-.35.22-.57.32-.47.22-.65.36-.63.48.01.14.15.12.4-.08a4.5 4.5 0 0 1 1.42-.65c.1 0 .1.09-.02.22-.2.25-.22.38-.1.54.08.09.1.09.32.09.38 0 .63-.12 1.3-.62.79-.6.92-.66.73-.33-.2.35-.14.85.1.95.32.13.73-.06 1.59-.77.4-.32.44-.33.38-.07-.1.38-.02.7.18.81.32.17.85 0 1.45-.45.26-.2.3-.2.32.05.01.21.1.36.28.44.3.14.8-.1 1.59-.76.46-.39.66-.53.68-.5l-.07.2c-.23.47-.2.94.08 1.07.3.14.79-.1 1.6-.78.27-.22 1-.76 1.05-.76.06 0 .02.08-.16.34-.22.32-.27.46-.27.72 0 .35.13.5.43.5s.63-.2 1.31-.74c.35-.3.42-.3.34-.09-.12.34-.08.7.1.78.1.05.33.05.46 0a9.7 9.7 0 0 0 1.32-.89c.25-.19.46-.33.48-.32 0 .01 0 .1-.04.2-.1.26-.12.67-.05.82.2.42.8.33 1.62-.26.28-.2.31-.2.31 0 0 .17.07.32.2.43.3.24.82.02 1.72-.74.23-.2.45-.37.48-.38.08-.05.1.01.04.12-.21.4-.22.85-.03 1 .08.07.4.08.55.02A6.17 6.17 0 0 0 88.08 69c-.04-.06-.15 0-.53.3-.69.55-1.1.78-1.2.67-.09-.08.02-.24 1.02-1.5 1.36-1.71 1.16-1.52 1.65-1.53.4 0 .43-.01.43-.07 0-.06-.03-.06-.3-.08-.43-.03-.43-.03-.15-.39.36-.46.74-.97.74-.98 0-.01-.19-.02-.41-.02-.4 0-.4 0-.88.61-.67.86-.58.78-.92.78-.31 0-.37.02-.37.1 0 .04.03.05.2.06.3.03.3.03-.04.49-.5.66-.58.75-1.29 1.33-1.38 1.14-1.81 1.42-1.81 1.13 0-.12.06-.21.41-.66.45-.55 1.47-1.86 1.47-1.88 0-.01-.18-.02-.4-.02-.39 0-.39 0-.5.12-.12.15-.15.15-.21.01-.09-.2-.24-.25-.64-.2-.54.1-1.11.35-1.7.8a58.72 58.72 0 0 1-1.34 1l-.62.48c-.3.22-.7.44-.8.42-.23-.02-.16-.13 1.7-2.46.49-.6.41-.56.89-.57.27 0 .41-.02.44-.05.06-.06-.01-.1-.34-.11-.2-.02-.32-.04-.32-.06-.01-.02.2-.32.46-.67l.49-.65c0-.02-.16-.03-.4-.03-.4 0-.4 0-.92.66-.28.36-.54.68-.57.7-.04.03-.15.05-.38.06-.3.02-.32.02-.32.08 0 .05.03.06.21.07a.7.7 0 0 1 .24.04c.03.02-.3.5-.68.96-.1.12-.28.34-.39.5-.15.2-.31.36-.63.63-.92.77-1.37 1.04-1.5.9-.06-.09.03-.23.44-.75a35.4 35.4 0 0 0 1.39-1.85c0-.02-.13-.03-.4-.02-.4 0-.4 0-.62.26a4.6 4.6 0 0 1-.68.61 3122.67 3122.67 0 0 1-1.75 1.35c-.5.39-.78.51-.87.38-.07-.12.09-.37.8-1.3.37-.47.5-.61.7-.77 2.5-1.91 3-2.36 3.42-2.97.28-.43.32-.57.21-.7-.14-.2-.62-.06-1.18.31a13.82 13.82 0 0 0-3.27 3.18c-.32.4-.39.47-1.09 1.04-1.37 1.14-1.7 1.35-1.82 1.2-.06-.08.03-.23.58-.92l1.3-1.68c0-.02-.15-.03-.4-.03-.39 0-.39 0-.5.14-.14.16-.15.16-.21.01-.08-.18-.18-.22-.52-.2-.7.05-1.6.5-2.24 1.15-.15.16-.48.46-.73.67-.84.7-1.27.97-1.43.9-.14-.06-.1-.17.41-.8.52-.66 1.37-1.78 1.37-1.81 0-.02-.18-.03-.4-.03-.45 0-.35-.07-.85.55-.23.28-.36.4-.7.66l-.92.72c-.5.4-.8.6-.85.55-.01-.02.01-.1.06-.17.1-.17.1-.32.03-.43-.1-.15-.12-.16-.49-.14-.25.01-.34 0-.33-.02.01-.05.24-.23.96-.78.57-.43.61-.45.9-.54.44-.15.64-.3.61-.5 0-.1-.01-.1-.16-.1-.17 0-.33.07-.62.29-.38.28-.67.37-.92.26-.14-.06-.14-.08.01-.25.14-.16.15-.24.06-.34-.16-.17-.46-.02-.5.26-.02.19.01.15-1.03.99-1.44 1.14-2.25 1.61-2.88 1.65-.26.02-.26.02-.35-.07-.06-.05-.1-.12-.1-.16 0-.15.18-.45.38-.65.19-.2.2-.2.61-.34 1.32-.45 2.13-1.12 1.78-1.47-.08-.08-.1-.1-.28-.1-.7.01-1.4.3-2.08.86a18.95 18.95 0 0 1-2.34 1.78c-.32.17-.42.2-.5.1-.09-.1-.03-.18.79-1.04.6-.63.8-1.17.57-1.52-.1-.16-.43-.18-.79-.05a5.7 5.7 0 0 0-1.06.67c-.1 0-.05-.09.3-.53.05-.06.08-.12.07-.13a2.33 2.33 0 0 0-.77 0c-.04.03-.72.9-1.82 2.33a96.76 96.76 0 0 0-1.98 2.64zM37.53 66.7c-.48.4-.65.53-.67.49-.03-.04.01-.11.3-.52a12.87 12.87 0 0 1 2.2-2.48c.21-.11.4-.08.4.08 0 .32-1.02 1.43-2.23 2.43zm1.23 1.84c-.56.21-.59.16-.15-.28.6-.62 1.2-.98 1.4-.85.1.07.1.17-.04.35-.23.29-.69.58-1.21.78zm-6.65 3.93c0 .03.72.04.77 0a119.36 119.36 0 0 1 2.09-2.83c.24-.33.24-.33.49-.3.44.02.95-.11 1.39-.38.17-.1.26-.13.26-.08l-.08.22c-.1.26-.1.68.02.84.22.31 1.03.32 1.69.01.35-.16 1.44-.9 1.44-.97 0-.06-.09-.02-.53.26-.59.38-1 .59-1.35.7-.88.3-1.13-.06-.54-.76.17-.2.17-.2.58-.34 1.2-.41 1.93-.9 1.93-1.32 0-.22-.15-.3-.52-.26-.77.06-1.64.5-2.21 1.13-.04.04-.15.12-.24.16l-.58.3c-.54.27-1.15.42-1.3.3-.06-.04-.06-.04.34-.57.38-.52.44-.58.9-.93.7-.54 1.77-1.47 2.33-2.04.92-.93 1.22-1.53.8-1.62-.41-.1-1.48.62-2.45 1.62-.43.45-.73.79-1.34 1.55-.43.53-.62.73-.92.97-.24.2-.38.42-.38.64 0 .14-.02.2-.08.28a759.72 759.72 0 0 0-2.51 3.42z" fill="#181515"/></svg>