<svg id="svg8" xmlns="http://www.w3.org/2000/svg" viewBox="0 0 400 300"><style>.st0{fill:#c6a05d}.st1{fill:#181515}</style><g id="layer1" transform="translate(0 -217.625)"><g id="g4789" transform="matrix(.11463 0 0 .11463 -40.891 237.447)"><path id="path3868" class="st0" d="M1712.1 624.7c238.2-56 445.4-60.1 700.5-20.4 3.9 38.1 4 75.6 12.6 119.7 46.8 55.9 374 72.1 431.3-24.7-10.2-75.6-18.4-289.5 45.1-463.2-14.4-43.1-202-47.6-211 5.2 6.3 38 13.6 66.9 13.6 111.4-103.1 15.3-170.9 3.9-244.2-28.5.3-43.7 1.8-118.3 2.8-168.8-86.5-46.8-515.9-72-988.1 50.8l237.4 418.5zm1822.7 794.8c9.2-8 10.3-21.5 2.6-30.3-10.3-17.3-79-7.8-65.2 28.6 13.1 19 48.2 14.3 62.6 1.7zm-130.9 11.4c9.2 2.3 28.9-2.1 37.6-8.3 12.3-8.8 14.8-24.4 5.4-33.1-29.4-28.3-102.8 26.6-43 41.4zM546 1755.9c408.6 0 659-322.8 933.7-444.3 177.3-78.4 246.4-1.2 255.1-3.3 39.8-51.1 36.3-45 70.2-85.1 0-.6-13-8.1-15.7-9.1-370.8-51.8-930.8 580.9-1326.7 476.1-30-11.6-70.9-204.5 351.9-208.4 51.7-.4 54.5-.5 54.8-2.2.3-1.6-5-7.2-10.6-14.6-353.2-17.7-415.9 78.5-451.2 202.4 18.8 47.8 40.7 78.9 138.5 88.5zm2442.8-334.6c21.7-19.9 106.7-90.6 116.1-84.7-10.1 34.9-74.8 80.8-116.1 84.7zm-1425.1 21.9c21.2-23.6 93.9-103.2 133.3-112.2-27.1 47-83.5 96.3-133.3 112.2zm1631 218.5c0-2.9 10.7-26.1 17.5-36.2 32.5-48.3 100.3-103.6 145.2-118.3 11.3-3.7 25.8-7.4 25.2-5.8-9.1 33.4-156.8 189.4-187.9 160.3zm-444.3 18c-.8-2.1 2.8-11.2 9.7-24.2 46.6-71.5 39.5-57.2 138.4-148.7 15-13.4 7-8.3 79.3-42.1 41.8-21.5 203.5-109.2 172.4-144.6-117.5-62.4-360 300.8-471.4 265 104.1-94.6 97.8-90.6 84-90.6-10.1.3-67.2 1.1-184.3 1.6-42.9 36.7-223.5 213.7-280.3 187.2-8-5.4 57.2-78.7 90.6-101 41.6-27.7 68.4-32.9 80-15.4 2 3.1 4 5.6 4.4 5.6.4 0 17-16 36.9-35.6 40.7-40.1 40.4-39.6 28.8-40.1-7.7-.3-23.8-3.6-19.6-7.6-58.9 6.3-283.2 173.8-363.5 195 53.7-56.7 104.2-100.9 174.4-183.6-73-.2-64.9 4.8-116.7 12-81.1-51.5-197.1 98.3-243.3 86.6 15.7-24.2 67.6-67.1 48.2-97.5-20.7-31.6-112.9 59.8-91.8 102.4-52.3 45.7-125.3 113.6-154.4 86 4.1-8.9 16.3-27.3 38.9-51.1 52.7-55.4 122.4-131.5 122.4-132.7-167.8-13.6-188.8 188.3-306.7 183.4 5-14.9 35.7-38.1 165.2-180.8-159.1-10.9-179.9 151.4-303.3 170.3-.6-.6 132.7-137.5 133.9-140.1 31.9-70.6-125.9-5.8-100.4-29.6 47.2-28.4 241.4-142.1 207.8-186.1-89.7-80.9-389.8 342.1-583.6 372.6 0-11.4 20.9-52 40.5-75.8 25.7-31.1 67.3-65.1 100.1-81.6 7.7-3.9 0 0 18.2-7-2.7 9.7-5.2 13.4-2.5 23.9 8.2 27.5 59.9 7.1 59.7-20.8-37-126.6-354 70.8-268 191.4 21.5 20.1 56.5 15.6 111.7-14.5 11.8-6.4 52.7-31.1 48.5-26.5-5.5 11.7-34.9 34.2-38.9 46.5.3.5 16.9.8 36.8.8 36.3 0 36.3 0 53.2-18.2 95.7-103.8 157.4-152.6 209.8-166.2 10.9-2.8 14.9-3.2 14.3-1.3-2.8 8.7-157.4 127.1-135.3 163.2 3.3 5.4 4.3 7.5 5 10.7 4.6 21.4 52.8 16.7 106.7-10.3 18.6-9.3 58.1-35.9 62-40.5.3 20.7-2.7 15.6 1.9 33.1 11 22.9 18 26.9 47 27 29.1.1 52.4-10.3 81.5-36.3 8.5-7.6 14.9-15.7 14.9-12.8 0 28.2 4.6 41.1 33.6 46.9 60.7 12.3 131.7-47.3 178.5-90.9 11-10.3 11-10.3 28.2-10.5 9.5-.1 26.8-.3 26.8.1-27.7 44-24.7 50.7-17.1 83.7 1 3.6 8.4 10.4 14.4 13.1 5.1 2.4 6.8 2.6 17.2 2.6 26.4-.1 49.6-9.9 81.4-34.3 8-6.2 9.6-6.6 9.6-3 0 3.8 10.7 24.5 14.2 27.4 10.6 9 33.2 10.2 55.5 2.9 31.9-11.4 51-27.4 77-44.7 4.3 52.9 56.4 54.2 100.8 36.6 73.6-29 167.3-111.1 227.6-163 29.4-1.1 57-2.5 81.2-3.8-6.3 77-98.9 48.7-135.3 65-3.3 10.2-27 24.3-30.9 32.2 27.7 2.4 35.4.3 66.8 2.2-41.9 51.2-105.3 97.3-161.8 133.2-62.4 2.3-228.6 11-202.3 71.1 2.8 9.4 12.3 15.6 27.7 18.2 57.2 1.4 116.1-5.8 165-30.8 13.1-6.2 13.1-6.2 58.1-4 902.8 43.5 1202.2 28.2 1331.8-156.9 28-40 40.7-79.5 40.7-126.5 0-17-.2-17.9-4-18.4-11.9 2.4-25.6 6.7-40.6 11.3 51 366.7-821.1 277.1-1294 229.1 85.1-74.1 83.9-73.7 153.9-130.1 0 0 40.1-3.2 69.3-13.2 5.1-1.7 15-5.5 15.3-5.2-8.5 35.7-13.5 33.2-7.4 64.4 11.7 24.1 25.6 31.7 55.7 30.7 44.7-1.6 100.2-33 156.4-88.5 14.6-14.4 21.4-16.1 58-24.1-23.2 29.1-37.1 52.3-27.2 81.8 9.1 17.8 18.2 22.7 43.9 23.8 65.5 2.7 133.1-39.7 156.8-50.7-6 46.8 36.1 76.7 132 4.4-1 19.9 2.1 33.2 15.9 38.3 47.1 9.4 90.5-15.1 129.5-38.4-9 64.9 83.2 36.8 133.9-4 4.7 16.9 4.2 27.7 11.9 35.2 10.1 7.7 30.1 9.7 49.1 5 44.3-14.3 68.7-28.6 105.4-77.3 0-.6-13-8.7-15.7-10.1-72.3 65.4-94.3 57.2-88.7 51.9 3.1-2.9 173.1-179.5 170.8-183.2-154.4-9-229 216.9-316.6 189 77.6-78.2 93.2-89.1 172.7-187.9-115.2-25.1-193.8 176.3-302.1 183.2 88.9-91.4 88-86.2 173-182.3-57.6-2.8-63.7-8.3-115.5 11.7-43.8-67.8-247.6 178.4-394.5 175.7 10.5-25.1 35.7-54.1 64.6-78.3 8.6-7.2 67-69.4 104.8-30.8 1.9.7 78.3-70.4 78-72.6-.3-1.8-1.1-2.1-7.5-2.4-219.6 6.3-37.7-17.2-275.6 87.8-.3-.3 7.3-11.8 9.7-15.6 23.2-41.7 28.8-63.2 3.3-75.1-37.6 86.1-166.9 230.6-226.3 197zm-736.5 10.5c-26.2 10.9 41-102.7 140.4-152.6 13.9-7 43.9-15.3 43.9-12.4-42.4 59.3-112.2 132.8-184.3 165zm182.8 144.1c19.1-17.5 60.1-15.2 84.3-13.3-4.6 10.3-79.6 22.1-84.3 13.3z"/><path id="path3870" class="st1" d="M2841.3 298.5c-22.8 14.7-21.6 14.8-20.6-1.1 1.7-26.4 6.6-25.4-11.3-24.5-36 1.9-87.3-6-106.3-16.3-16.7-9.1-12.2-27.1 9.3-37.6 50.8-24.7 184.9-13.6 184.8 19.1 0 15.5-20.1 37.3-55.9 60.4zm-385.1-30c.1 46.1 0 48.7-1.7 48.7-2.6 0-21.1-11.1-32.2-19.3-54.6-40.3-48.7-83.2 0-106.8 1.2-.6 36.8-18.4 37.7-17.5.1.1-3.9 25.3-3.8 94.9zm-466.3 51.9c-23.9 17.4 39.4-56.3 39.4-41.8 0 5.6-22.5 29.5-39.4 41.8zm729.9 25.9c-13.1 2.9-12.9 2.9-11.9-4.7 2.4-18.5-10.6-79.2-10.6-79.2.4-.7 3.7.3 9.3 3 21.6 10.1 56 15.4 92 14.3 16.8-.6 16.8-.6 16.8 15.9 0 19.1.6 17.8-11 23.2-15.6 7-65.2 23.2-84.6 27.5zm-583.1 30.5c13.8-20.1 41.6-41.5 54.1-41.5 6.6 0 2.9 5.5-15.8 23.6-37.8 36.7-47.9 32-38.3 17.9zm53.5 57.4c2-1.6 4-1.9 12.1-1.9 47.1 0-25.7 13-12.1 1.9zm349.1 41.5c0-4.5 39.3-39.4 41.7-37 1 1-2.2 6.7-6.5 11.7-2.8 3.3-35.2 29.7-35.2 25.3zM2615 576c-31.7 23.4 22.4-62.3 42.1-58.5 3.6.7 1.6 5-10.1 21.8-13 18.6-22.9 29.9-32 36.7zm-830.2-151.2c86.6-57.9 160.9-187.4 234.5-167.6 9.1 2.4 8.5 3 17.9-14.9 8-15.2 8.4-14.5-7.7-14.4-79.7.3-180.9 143.1-290.2 197.9-33.6 16.9-72.9 24.8-84.3 17.1-8.7-5.9-13.1-56.1 99.2-76.1 24.2-4.3 25.1-2.3 2.7-12.9-16.3-7.7-16.3-7.7-28.2-2.6-148.4 63.6-103.6 180.3 56.1 73.5zM1736 616.3c-14.9 3.6-15.9 3.6-17.9 1.3-2.3-2.6-237.8-409.6-236.1-411.4 11.5-11.5 546.3-131.3 906.8-70.4 42.1 7.1 72.5 18 72.5 26 0 3-7.1 8.6-16 12.8-85.1 39.7-74.3 36-53 233.6 1.6 15.1 2.7 27.7 2.4 27.9 0 0-56.4-9.9-102.4-12.9-27.4-1.8-24.7-1.2-9.8-12.3 39.5-29.6 35.2-28.2 46.9-29.1 9.7-.7 23-2.3 26.1-3.2 2.3-.7 10.1-11 9.3-12.2-.4-.6-1.8-.6-3.7-.1-6.2 1.8-20.8 2.4-20.8.8 0-.8 6.2-6.3 13.7-12.4 19.8-15.9 19-15.2 17.6-16.6-1.2-1.2-28.1-2.8-47.8-2.9-9 0-9 0-24 12.1-63.9 51.6-99.1 53.9-62.7 21.9 18.7-16.5 32.2-22.4 37.4-16.5 1.2 1.4 2.5 2.5 3 2.5 1.6 0 23.8-22.3 23.2-23.2-1-1.6-12.7 0-20.1 2.9-11.2 4.3-12 4.3-9.3.5 3.2-4.5 2.2-5.2-8.5-5.2-9.5 0-9.5 0-22.2 11.8-28.2 26.3-39.5 35.2-53.9 42.5-11.1 5.6-15.7 6.1 32.1-41.3 7.5-7.4 13.3-13.8 13-14.2-1-1.6-24.2-1-26.8.7-2.2 1.4-2.6 1.4-6.1-1-10.6-7.2-38.7 1.2-54.6 16.2-17.4 16.5-30.2 21.3-17.8 6.7 20.4-24.1 6.8-36.6-12.8-16.1-9.1 9.5-12.6 18.5-9.8 25.3 1.6 3.8 1.6 3.8-6.2 11.2-14.4 13.7-31.2 22.7-35.1 18.8-3.1-3.1-.2-7 29.6-40.4 9-10 16-18.7 15.7-19.2-.3-.6-5.7-1-12.3-1-11.7 0-11.7 0-27.3 17.7-31 35.2-50.5 51.3-51.6 42.7-.3-2.6 4.8-9.2 28.1-35.9 11-12.7 18.5-22.1 18.1-22.7-1-1.6-21.9-.5-24.1 1.3-7.2 6-53.3 59.9-63.1 59.9-3 0-1.5-2.2 20.8-30.1 16.2-20.3 17.3-22.4 14.4-26.5-4-5.7-11.9-5.2-26.5 1.6-12 5.6-12.4 4.2-1.2-3.7 36.3-25.6 62-55.4 53.7-62.3-4.4-3.6-18.5-.1-29.7 7.3-14.7 9.8-45.1 42.1-68.6 72.6-20 26.1-34.1 39.8-55.3 53.7-13.1 8.6-15.2 8.3-12.8-1.9 5.7-24.6 41-56.8 41-45.9 0 13.3 24.7 1.8 18.4-8.9-17.4-29.8-99 37.2-80.9 68 6.4 10.9 18.9 10.3 35-1.8 7.8-5.8 7.7-5.8 7.3-2-.3 3.4-.3 3.4 10.4 3.6 10.7.3 10.7.3 19.9-12 20.4-27.1 29.9-37.6 43.4-47.6 9.4-7 20.5-11.5 20.5-8.3 0 1-6.7 9.5-21.9 27.6-10.2 12.2-17.1 23.3-17.1 27.7 0 1.3 1.1 3.5 2.5 4.8 2.4 2.3 2.8 2.3 8.2 1.2 27.9-5.8 40.3-33.3 40.3-18.4 0 14.6 22.5 15.6 37.9 1.7 4.8-4.4 5.4-4.3 7.3.5 3.8 9.8 17.6 10.7 34.2 2.3 19.9-10 26.2-28 40-28.9 7.7-.5 7.3-1.8 3.4 11.5-6.1 20.8 11.6 26.2 30.6 11.7 5.4-4.1 6.4-4.4 6.4-1.5 0 7.5 12 14.9 35.1 1.4 9-5.3 8.6-5.2 9.4-1.5.9 3.9 7.5 9.8 12 10.6 15 2.8 39.6-8.8 75.3-35.4 16.3-12.2 16.3-12.2 28.7-12.2 14.8 0 14.9.1 6.5 8.5-6 5.9-6 5.9-17.5 5.6-11.5-.3-11.5-.3-19 5.5-4.1 3.2-7.3 6.3-7.2 6.8.3 1.2 19.6 2.6 19.6 3.6 0 2.1-26.1 22.3-40.4 31.3-8.9 5.6-8.9 5.6-22.5 5.6-81.8 0-69.2 45.6-1 21.4 9.9-3.5 9.9-3.5 21.6-2.4 54.4 5.2 122 14.9 135.1 19.4 6.3 2.2 3.9 2.7 9.8 60.6 2.4 23.2 7.4 77.9 7.4 80 0 2.6-2.8 2.6-20.7-.1-215.7-31.4-434.7-33.7-653.5 18.4zM2688.4 486c9.6 4.9 26.6-4.7 16.2-13.8-10.5-9.2-31.6 5.9-16.2 13.8zm-28.6 2.6c10 2.4 23.4-7.1 14.3-14.8-6.8-5.7-21.8-1.2-21.8 6.5 0 2.9 4.2 7.5 7.5 8.3zm12.5 276.1c-155.4 10.4-239.2-26.2-245.9-46.6-1.7-5.3-10-109.3-9.7-109.5 0 0 83.8 36.1 202.5 31.7 58.6-2.2 100.8-9.1 130.1-21.5 48.3-20.4 77.1-66.4 69.2-110.6-2-11.2-2-11.1-9.7-4.3-14.1 12.5-13.3 9.1-10.5 20 4.6 17.8 1.6 39.3-7.1 52.5-26.5 39.7-206 67.3-351.6 18.4-27.1-9.1-24.6-7.1-26-20.8-1.7-16.4-1.6-18.7.8-18.7 4.3 0 45.6-16.8 45.6-16.8.3.3-.4 2.5-1.4 4.9-13.9 32 26.4 40.9 61.9-.6 3.4-4 3.4-4 11-4 12.6 0 17-4.9 8.7 6.2-23 30.8-3.3 57.5 36.3 39.2 10.5-4.8 10.5-4.8 12.2.8 3.5 11.5 17.2 11.5 30.2-.2 6.1-5.5 7.4-5.6 8.7-.6 4.1 15.3 24.2 13.9 47.1-3.4 8.7-6.6 8.5-6.5 9.3-2.1 1.6 8.7 12.4 15.1 31.8-4.2 7.7-7.6 7.7-7.6 12.8-2.8 5.9 5.5 8.1 5.7 17.7 1.6 10.9-4.7 30.8-29.9 26.9-33.9-2.3-2.3-4.2-.9-9.7 7.5-6.4 9.6-30.6 34.1-7.5-4.9 12.1-20.3 27.7-49 27.7-50.7 0-1.5-.5-1.4-12.8 2.5-12.6 4-12.2 3.6-21.4 19.5-8.7 15-27.5 43.9-32 49.2-6.8 8.1-14.8 12.6-14.8 8.3 0-2.1 36.5-67.5 35.6-68.3-1.1-1.1-21.7 3.6-23.7 5.4-2.1 1.9-29.7 53.5-32.8 57.7-4.1 5.6-20.7 16.3-26.5 17.2-11.7 1.7-10.7-.9 11.5-32.7 22.5-32.1 28.6-41.7 27.4-42.9-1.1-1.1-20.5-.2-24.4 3.5-3.1 3-4.1 3.1-6.5.5-6.5-7.2-47.7 4.3-69.8 48.6-4.2 8.4-5 9.4-10.9 13.2-12.4 8.1-25 10.5-30.1 5.7-10.9-10.1 11.8-42 35.7-50.1 14.1-4.8 2.6 13.1 23.8-8 10.3-10.2 11.7-12 10.5-13.3-1.9-1.9-10.8-.2-20.9 3.9-8 3.2-8.6 3.2-6.2-.5 2.6-3.9 1.3-4.5-9.8-4.5-10.3 0-10.3 0-14.5 5-13.7 16.3-49.2 29.3-33.2 11.8 19.2-21.1 10.8-36.5-1.8-30.8-15.2 6.8-26.1 27.5-19.9 37.6 2.1 3.4 2.1 3.4-.7 7.5-6.9 10-29 24.5-36.1 23.7-13.2-1.5 23.6-54.4 54.9-72.4 90.2-51.7 67.4-79.7 12.8-38.6-55.4 41.7-67.6 80.1-127.8 92.3-12.5 2.5-4.3 15.7-24.7-180.1-9.3-89.8-12.6-100.5-7.7-93 38.3 57.5 163.3 115.8 325.7 85.6 66.1-12.3 133.2-43.4 165.6-76.8 26.8-27.6-6.4 1-23.7 170.8-8.9 87.4-9.4 168.4-1.4 237.5.9 8 .9 10.1-.4 13.1-14.4 31.8-89.8 59.3-180.4 65.3zm-657.4 400.2c-.8 2-1.4 1.8-7.1-1.5-7.7-4.4-11.1-8.5-9.7-11.3 3.7-7.3 6.8-12.2 7.9-12.5 2.4-.8 10.3 21.8 8.9 25.3zm254.4 16.6c.1 1.9.2 1.9-15.7.8-11.7-.9-11.6-.9-12.1-10.5-.4-8.3.3-9.4 5.4-7.5 4.7 1.8 22.3 15.3 22.4 17.2zm165.5 217.7c7.1.4 22.8 2.2 28.3-2.3 3.9-3.1-2.1-15.4-9-18.3-8.7-3.7-32.8-16.4-43.6-19.9-11.8-3.9-18.7-8.1-29.2-18.1-19.6-18.6-22.6-25.2-28.5-62.9-19.7-125.4-8.8-67.5-3-103.2 3.4-20.9 11.3-5.2 1.3-28.7-15.4-36.3-40.5-74.3-73.3-111-10.9-12.1-10.5-10.9-6.5-22.8 8-24-12.6-36.8 8.3-32.5 24.7 5.1 16.7-3.1 29.3-5.4 9.5-1.8 10.7-4.6 10.8-24.4 0-34 6.1-8 5.9-38.4-.2-46.1-26-57.1-30.9-72-1.9-5.7-12.4-19.3-19.1-30.7-20.7-35.3-27.1-40.1-64.4-48.9-27.1-6.4-50-14.3-50-17.3 0-1.4 4-4.5 8.4-6.6 4.1-2 4.1-2 4.8-12 .9-14.7 5.2-30.8 8.9-33 1.2-.7 6.6.7 17.8 4.6 6.6 2.3 14 2.5 14.8.4 1-2.5-2.4-28.6-4.5-34.6-17-49.4-149.9-69.9-170.9-61.1-3.2 1.3-10.8 9.9-17.3 19.6-4.9 7.3-5.4 15.1-1.1 18.2 3.7 2.7 5.8 8 12.3 31.8 9 32.7 10.4 35 20 33.9 11.2-1.3 8.5 2.4 15.9 13.6 8.8 13.2 9.9 18.2 4.9 22.4-13.5 11.4-22.4-5-58.5 2.6-29.9 6.3-87.9 2.1-117.7-8.1-21.9-7.5-31.9-8.8-38.3-5-5.8 3.4-16.5 2.6-28-2.3-2.2-.9-8.2-5.8-13.5-11-8.7-8.5-16.8-17.7-39-13.1-10.5 2.1-7.6 5.2-32.1-34.6-22.1-35.9-25.2-41.4-24.6-43.1.9-2.3 50.2-13.1 89.2-19.6 96.9-16.2 184.7-21.4 281.5-21.5 168.6-.1 305.9 17.8 314.6 21.4 5.4 2.3 8.9 113.7 15.1 120.3 7.3 7.7 32 21.2 50.7 27.7 114.6 39.9 340.7 22.2 379.7-46 3.9-6.8 4-8.9 2.1-34.1-8.2-109 4.8-314.7 41.3-415.1 6.7-18.3 7-23.1 2.1-30.4-20.9-30.8-178.5-44.6-207.9.9-5.6 8.6-5.6 9.8-.9 33.6 8.2 41.9 12.3 80.1 9.2 85.8-4.7 8.7-145.1 17.4-228.8-21.6-8.1-3.8-8.1-3.8-8.7-16.7-1.6-31.4.1-116.2 2.8-138.8 1.6-13.1 1.4-14.1-3.8-18-63.3-47.5-543.5-68.3-971.6 45.5-9.4 2.5-17.5 4.5-11.8-4.1 5.5-8.3 3.1-21-4.9-25.6-23.3-13.6-46.4 23.6-15.3 34.9 7.2 2.6 6.5 1.4 90.4 148.2.2.4 208.5 363.3 208.5 363.8 0 .9-2 3-4.5 4.7-9.1 6.2-9.9 13.4-2.2 18.4 5.3 3.4 6.1 12.7 12.1 16.5 1.8 1.1 4.5 3.8 5.9 5.9 4 6.1 11.8 10.5 17.2 9.9 5.4-.6 5.9-.1 14.5 13.7 3.4 5.5 6.9 10.6 7.8 11.2 2.6 2.1 8.8 1.5 11.8-1.1 3.5-3 2.9-6.1-3.3-15.7-5.3-8.3-5.1-9 3.6-9.7 7.3-.7 8.1.5 8.2 11.5.1 39.8 19.5 22.6 27.8 42.8 1.8 4.4 4.5 5.5 15 6 37.4 1.9 50.7 34.2 91.6 9.8 19.9-11.8 33 10.5 64.6 9.2 24.9-1.1 9.7-2.8 26.9 41.1 2.8 7.1 5 13.6 5 14.5 0 3.7 6.6 5.1-105.3-22.2-61.9-15.1-90.6-27.3-78.5 11.6 4.9 15.8 16.9 15 69.9 27.8 55.1 13.3 85 20.2 102.5 23.4 27.8 5.2 25 2.3 25.1 25.6.1 24.6 1.6 32.6 10.5 54.3 1.3 3.3 1.3 3.3-4.7 9.1-21.9 21.4-13.2 45.7-28.3 83.4-20.9 52.2-21.2 35.2-24.6 21.8-3.7-14.4-6.8-17.6-16.2-16.7-15.7 1.5-19.8 4.2-23.1 15.2-2 6.8-3.5 27.5-2 29 .1.1 16.9 6.1 19.7 9 2.5 2.5 2.5 2.5-1.3 8.3-35.2 54.7 4.4 88.1-44.5 165.3-6.2 9.8-7.1 11.8-7.1 15.9 0 8.1 8.5 20.2 15.1 21.5 16.1 3.2 44.7-4 63.6-1.6 11.5 1.5 41.2 1 48.8-.7 6.3-1.5 7.3-5.8 3.2-14.7-7.7-16.6-32.7-14.2-53.6-19.9-3-.8-7.2-1.5-9.2-1.5-3.8 0-9.8-3.9-9.8-6.4 0-1.6 23.3-51.7 29.2-62.8 8-15.1 8.9-11.1 3.7 16.6-3.2 17-4.7 30.5-3.3 30.5 1.2 0 10-5.8 11.7-7.8 1.9-2.2 3.4-11.5 4.7-29.7 3.1-42.4 6.8-40.2 7.1-4.6.2 24.3.2 24.3 6.3 29.2 8.8 7.1 8.8 7.1 8-6.9-.7-11.9 0-14.8 2.6-11.6 1.4 1.6 8.5 2.1 9.4.6.3-.5-2.3-13.4-5.9-28.7-12.5-53.9-12.5-49.8.2-62.7 24.5-24.6 7.6-21.4 47.7-53.9 13.2-10.7 17.7-16.1 30.5-36.8 10-16.2 8.4-15.2 20.2-10.2 11.2 4.8 32.3 11.7 40.5 13.2 33 6.1 61.3 60.7 37.8 41.4-11.7-9.6-15.5-10.3-27.1-4.9-7.6 3.5-7.6 3.5-7 16.2 1 23.7 1.7 20.7 17.7 22.8 13.9 1.8 17 2.8 17 5.2 0 2.1-6.1 16.9-15 36.6-7.7 17.1-8.1 19.5-4.5 27.6 3.6 8.1 4.1 8.8 8.4-3.9 12.2-36.1 2.4 17.9 4.6 26.6.7 2.9 17.4 21.6 18.9 21.1 1.6-.5 1.7-61.3 3.2-61.1.5 0 2.3 2.5 3.9 5.5 40.1 75.8 60.1 68.5 49.8 113.9-3 13.1-2.8 16.2.9 19.9 12.4 12.4 13.3 3.6 70.4 12.3 11 1.7 26.3 3.4 34 3.8zm1052 18.4c23.5 3.3 50.6-15.4 45.4-31.3-8.9-27.1-64.9-24.3-70.9 3.7-3 13.8 7.4 25.1 25.5 27.6zm-97.2-.8c9.5 3 26.2 1.3 36-3.6 6.9-3.4 14.6-11.6 16.3-17.4 6.5-21.9-30.3-36.2-56.4-22-21.5 11.7-19.2 35.8 4.1 43zM542.3 1741.3c125.2 9.5 286-52.6 398.5-109.5 180.6-91.4 326.4-233.3 493.5-316.8 213.7-106.8 277.3-21.7 293-21.7 1.1 0 67.5-80.9 67.5-82.8 0-3.7-32.7-11-59.5-13.2-309.9-25.7-829.9 526.1-1228.5 473.2-60.8-8.1-73.7-16.8-69.6-47.4 5.7-42.9 35.5-79.4 85.6-105 71.1-36.3 153.7-51 286.5-50.9 41.8 0 51-.3 51-1.9 0-1.7-65.6-53-79.6-62.3-12.7-8.4-316.7 61.4-373 201.4-25.3 62.8 10.9 127.5 134.6 136.9zM2959 1435.7c-10.8 4.9-11.4 4.8-7.2-1.4 3-4.3 14.4-14.9 37.5-34.6 57.2-48.9 105-82.6 117.5-82.9 4-.1 4-.1 3.9 3.9-.3 14.5-48.5 56.8-98.9 86.7-13.9 8.3-42.5 23.6-52.8 28.3zm-1425.8 24.4c-14.8 8.2-13.9 6.4 11.3-20.6 70.8-75.8 121.8-118.5 144.5-120.8 6.2-.6 10.3.5 10.3 3 0 18.8-83.6 93-166.1 138.4zm1674.6 196.1c-21.7 9.5-26 2.9-19.9-14.1 31.9-88.8 193.4-185.7 193.4-144.8 0 3.8-.7 4.8-7.8 12.3-55.7 58.9-115.8 124.8-165.7 146.6zm-1191.2 25.7c-41.3 15.5 2.4-71.9 90.6-135 47.4-33.9 90.1-46.6 90.1-26.7 0 3.7-1 4.9-37 42.6-72.7 76.1-108.8 106-143.7 119.1zm210.4 148.9c-56.4 7.3-43.8-18.6.8-23.6 10.6-1.2 68.1-.5 74.4.9 5.3 1.2 2.7 2.5-19.5 9.8-20.8 6.8-36 10.3-55.7 12.9zm-13.7 21.9c26.2 3.1 87-1.8 149-31.6 14.5-7 14.5-7 58-4.8 82.6 4 481.8 30.6 740.5 20.2 245-9.9 539-19.5 620.9-229.3 10.2-26.2 15-59.4 11.9-82.9-1-7.8.3-7.8-18.5-.1-24.8 10.2-30.1 12.9-29.3 14.8 10.6 26.8 11.2 61.1 1.4 89-16.5 47-66.6 90.3-129.9 112-139.3 47.9-647.6 43.3-783 39.3-19.5-.6-71.3-2-115-3.1-4.8-.1-276.9-6.9-275.8-11.6.4-1.8 163.8-140.4 169.1-140.4 8.7-.1 52.2-4.4 89-21.7 6.5-3.1 12-5.3 12.4-5 .3.3-2.3 5.2-5.9 10.9-13.2 21.1-18.3 36.9-17.5 54.4.5 12.3 3.2 18.7 10.7 25.6 20.6 19.3 56.1 17.8 101.8-4.3 33.7-16.3 57.2-33.6 93.8-69 18.1-17.5 13.7-15.3 43.7-22.1 15-3.4 28.1-7.2 39-11.4 3.9-1.5 1.5 2.9-5.6 10.4-19.6 20.6-34.9 42.9-39.1 57.1-2 6.6-2 20.1-.2 25.3 4.8 13.4 19.9 19.9 46.1 19.9 37.5 0 75.6-12 135.4-42.7 19.7-10.1 21.7-10.8 20.8-7.2-1.6 6.7-1.7 10.4-.7 18.9 2.3 18.9 11.1 27.6 29.1 28.6 25.8 1.6 54.8-11.1 91.3-39.9 12-9.5 12-9.5 11-2.2-4.1 28.6 4.6 45.6 54.7 36.9 19.6-3.4 54.3-18.3 75.7-32.5 5-3.4 9.7-6.1 10.3-6.1.7 0 1.1 2.7 1.1 7 0 45.5 72.2 43.9 126.6-5.4 4-3.6 7.8-6.6 8.3-6.6.6 0 1.1 2.5 1.1 6.2 0 55.6 69.7 41.4 114.5 8.1 16.1-12 46.5-43.9 46.5-48.9 0-1.4-6.9-5.4-9.3-5.4-.8 0-5.3 4.5-10.1 10-29.9 34.3-71.6 58.5-80.9 47-8.5-10.5 17.5-27.2 105.4-123.4 34.2-37.4 60.9-67.5 60.9-68.4 0-.7-11.2-1-34.4-1-34.4 0-34.4 0-43.2 9.8-138.5 154.4-228.4 207-228.4 175 0-6.6.1-6.7 28-36.3 87.5-92.7 134-143.5 134-146.4 0-.8-9.4-1.1-34.5-1.1-37.9 0-24.2-11.2-144.2 119-39.9 43.4-62.5 60.3-96.4 72.1-12.8 4.5-27 2.5-27-3.7s28-36.6 121.7-132c28.2-28.7 51.2-52.8 51.2-53.4 0-1-4-1.1-18.2-.6-10 .4-26.9.7-37.6.7-19.5 0-19.5 0-29.1 9.5-5.3 5.2-10.4 9.5-11.3 9.5-1.1 0-3-2.8-5.4-7.7-16.5-33.7-96.6-6.3-130.3 13-48 27.6-83.2 61-114.4 109-8.4 12.9-9.5 13.9-25 22.8-43.6 25-98 44-118.5 41.5-18.7-2.3-19.3-13.9-2.2-39.3 11.7-17.4 23.8-30.2 46.8-49.7 52.5-44.3 96-59.1 109.6-37.3 3 4.9 3 4.9 12.1-3.9 29.6-28.7 61.6-61 61.6-62.2 0-2.3-24.9-.8-38.5 2.3-26 6-46.2 14.7-68 29.2-21.6 14.3-15.1 5.5 3-12.6 9-9.1 16.2-16.8 15.9-17.3-.3-.5-14.3-.8-31.2-.9-30.7 0-30.7 0-63.2 32.9-34.7 35.2-34.2 34.8-55.6 45.5-23.4 11.7-53.4 21.6-53.4 17.5 0-.6 3.6-5.9 7.9-11.8 14.6-19.6 41.8-62.1 24.4-79.5-8.7-8.7-25.4-5.4-47.5 9.5-50.9 34.2-71.5 85-41.6 102.6 4.7 2.8 3.6 4.7-10.4 18.7-22.9 22.8-43.9 38-70.2 51-24.3 11.9-46.7 18.4-55.9 16.1-4.1-1-9.5-6.4-10.2-10.1-1.9-10.4 16.5-44.3 40.2-74 16.4-20.6 75.9-76.8 117.9-111.3 2.2-1.8 13-7.2 24-12.1 56.9-25 130.7-66.8 171-97 46.5-34.8 60.6-58.6 41.7-70.3-5.1-3.1-20.4-3.8-32.4-1.4-39.9 8-104.2 43.9-179.3 100.2-64.3 48.2-114.4 90.3-160.6 135-22.9 22.1-29.1 27.1-41.4 32.9-27.7 13.2-69.3 17.6-70.1 16.3-1.3-2.1 107.6-98.6 107.6-103.8 0-1.2-12.9-1.3-88.7-.7-88.7.7-88.7.7-94.4 5.9-8.7 7.9-231.5 215.3-280.3 192.1-11.1-5.3-12-10.5-4-23.6 37.7-61.8 144.6-144.2 169.1-105.3 1.5 2.5 3.3 4.4 3.8 4.4 2.4-.1 72-69.8 70.8-71-4.1-4.1-61.8 1.5-107.1 32.4-10.9 7.5-14.3 9-14.3 6.4 0-1.8 33-33.6 33-35.5 0-1-6.6-1.3-30.5-1.3-30.5 0-30.5 0-34.2 3.2-21.9 18.4-110.4 115.3-165.5 154.5-22.8 16.3-55.6 35.8-62.8 37.4-9.1 2-14.2-4.8-9.2-12.2 4.3-6.4 173.2-181.3 173.2-181.3 0-.3-16.9-.6-37.6-.6-37.6 0-37.6 0-47.8 10-6.3 6.2-10.7 9.8-11.6 9.5-.8-.3-3-3.8-4.9-7.8-16.8-34.6-115.6-14.5-199 65.7-23.1 22.2-24.8 23.6-35.1 27.5-10.3 4-29.5 7-33.4 5.2-2.7-1.2-2.7-1.2 11.8-16.1 30-30.9 51.1-60.5 52.5-73.7 1.3-12.2-6.3-25.3-15.5-26.9-35.9-6.1-107.7 68.9-85 112.4 2.1 4 3.5 7.6 3.2 8.1-5.4 8.7-114.1 106.2-145.3 84.5-11.9-8.2-5.2-24.4 22-53.2 55.4-58.7 129.4-137.7 129.7-138.5.6-1.5-72.1-1.1-74 .4-21.1 17-173.6 199.5-221.3 192.3-6.7-1-8.9-3.7-8-10.1 1.5-11-.1-9.2 77.2-91.2 84.2-89.4 83.3-88.4 83.3-89.4 0-.5-15.6-.9-36.2-.9-36.2 0-36.2 0-89.7 53.4-29.4 29.3-58 57.3-63.5 62.1-36.2 31.8-98 69.5-113.9 69.5-6.8 0-8.4-3.5-4.4-9.3 3.4-4.9 40.5-43.4 92.9-96.4 53.2-53.8 51.9-52.1 50.5-64.1-1.6-13.4-8-18.5-24.1-19-67.1-2.2-163.6 68.3-122.3 30.8 8.7-7.9 13-10.9 25.8-17.8 46.9-25.5 255.5-148.7 226.3-193.9-6.7-10.3-36.7-11.1-62.2-1.6-90.6 33.8-236 179.4-301.1 250.3-65.3 71.2-155.3 117.1-197.2 131.3-11.2 3.8-16.1 3.3-20.5-2.3-11.8-14.9 27.9-95.1 115.4-152.5 14.5-9.5 53.8-28.6 58.8-28.6 1.6 0-.6 2.8-8 10-9.4 9.2-11.1 12.5-10.2 20.2 1.2 10.1 9.8 16.5 20.7 15.5 15.2-1.4 36.8-19.7 36.9-31.3.1-28.7-55.9-59.4-145.8-7.8-67.9 39-117.5 92.2-130.4 140.1-14.3 53.3 20.7 76.8 63.6 65.9 80.6-20.4 154.8-102.1 89.3-27.5-10.3 11.7-18.7 21.9-18.7 22.5 0 1.6 15.9 2.5 44.5 2.5 23.2 0 23.2 0 42.1-20.7 104-113.7 180.4-168.9 231.5-167.1 18.9.7 9.3 9.7-47.5 61-197.8 178.5-14.3 140.3 75.4 65.4 26.8-22.4-.6 3.1 8.1 34.4 2.9 10.3 11.8 19.3 22 22 40.3 10.8 77.7-11.6 107.7-40.3 6.8-6.5 12.7-11.6 13.1-11.3.4.3.1 4.5-.7 9.4-5.1 30.8 18.1 43.2 49.7 43.2 52.5 0 113.2-50.2 151.6-85.6 20.2-18.6 16.3-16.7 35-16.9 51.5-.5 41.5-23.7 17.6 37.8-14.2 36.5-5.9 60 21.7 61.5 27.4 1.5 55.2-10.8 92.7-41 10.9-8.8 13.4-9.9 11.6-5.2-5.8 15.2-.9 33.4 10.6 39.7 23.7 12.9 67.1-1.5 116.8-38.6 27.8-20.8 9.2-5.9 13.8 8.3 13.2 40.8 62.6 42.7 131.1 5 44-24.2 85-54.9 165.6-123.7 37.5-32 13.3-22.1 111.4-26.7 9.6-.5 11.7-.3 11.7.8 0 1.8-16.2 19.8-35.9 39.9-15.4 15.7-15.4 15.7-53.2 15.7s-37.8 0-62 19.8c-13.3 10.9-24.4 20.3-24.6 20.9-1.3 3.8 66.5 1 70.5.8 8.7-.5 10.2-.3 10.2.9 0 1.4-31.7 32.6-50 49.2-33.1 30-70.8 59.1-101.2 78.1-17 10.6-15.3 10.1-38.8 10.9-221.9 7.6-218.6 87.3-152.4 87.3zm980 159.7c5.9 5.9 19.4 3.1 24-5.1 7.9-14-5.4-25.5-19.6-16.8-7.8 4.6-10.1 16.2-4.4 21.9zm-42.5 1.7c3.3 1.8 11.3 1.4 15.4-.9 9.8-5.5 11.8-19.6 3.4-24.1-4.2-2.2-12.7-1.6-17.2 1.4-8.7 5.9-9.7 19.2-1.6 23.6zm-456.4 6.6c6.1 5.1 17.5 2.8 23-4.8 6-8.2 2.8-18.4-6.4-20.1-14.6-2.6-27.1 16.1-16.6 24.9zm-931.5 1.1c12.1 6.3 28.2-7.4 23.1-19.7-4.2-10-21.9-8.4-27 2.5-3.4 7.2-1.8 14.2 3.9 17.2zm1251.4-14.6c-.1-16.7-26.3-13.8-29.5 3.3-3.5 18.9 29.6 17.5 29.5-3.3zM1307 2022.7c8.7-4.1 12.4-16.5 6.6-22.2-10.2-10.2-29.9 1.5-26.8 15.9 1.8 7.9 12.8 9.8 20.2 6.3zm647 64.5c-13 4-13.2 2.5-1.5-9.5 60.8-62.3 72-12.3 1.5 9.5zm-266.9 51.6c25.8 14.6 124.3-97.6 68.2-25.3-9.4 12.1-17.3 22.6-17.6 23.4-.5 1.2 1.8 1.4 13.5 1.4 26.8 0 2.8-.4 65.2-57.1 17.5-15.9 26.6-22.8 36.5-27.4 10.6-5 15-6.1 17-4.4 2.7 2.2 1.5 4.4-8.2 15-38 41.7-46.7 56.7-39.3 68.5 4.6 7.5 17 9.9 27.1 5.2 31.8-14.7 56-47.9 51.2-29.6-10.7 41.2 39.2 34.5 65.1 19.6 30.3-17.4 57.8-41.9 24.9-20.9-33 21.1-49.1 28.1-64.2 28.1-6 0-11.2-3.7-11.2-8.2 0-4 5.5-14.1 11.3-20.8 5.6-6.4 5.6-6.4 20.4-11.6 114.6-39.9 49.4-83.3-22.2-20-32.9 29.1-72 57.4-82.6 59.9-3.9.9-6.6-1.5-5.2-4.5 1.6-3.4 9.9-13.6 22.7-27.7 18.7-20.7 24.7-30.9 24.7-42.4 0-56.1-96.9 45.7-55.1-7.3 2.4-3.1 4.2-5.7 4-5.9-.2-.2-5.9-.6-12.7-.9-22.5-1-9.6 5.9-42.3 31.3-39.3 30.6-74.2 64.7-81.9 55.5-1.9-2.3 1.8-8.3 15.9-26.1 18.7-23.6 44.1-57.3 44.1-58.5 0-.7-4.8-1-13.3-1-13.3 0-13.3 0-25 14.8-15.6 19.6-29.9 39.4-33.8 46.7-6.2 11.5-4.8 25.9 2.8 30.2zm604.7-116.8c-10.8 5.4-19.2 8.5-20 7.2-2.9-4.8 42-59.6 62-75.6 24.3-19.5 41.8-17.6 31.1 3.5-9.3 18.5-46.8 51.7-73.1 64.9zm-186.7 118.3c45.9 5.2 78.6-9.5 109-35.1 30.6-25.7 34.7-60.1 63.8-71.4 56.9-22.1 101.5-73.8 95.5-91.8-5.5-16.5-46.6-.4-84.3 33-10.2 9-17.9 17.8-36 41.1-16.9 21.8-14.1 20.5-39.3 18.3-103.6-9.2-59.6-122.1 58-100.6 26 4.8-10-14.9-55.8-6.1-77.6 15-99.5 101.4-.2 111.2 8.8.9 16.4 2 17 2.5 2.3 2.2-24.4 36.9-41.9 54.5-27.4 27.4-49.9 38.6-78 38.8-47.8.2-50.8-32.2-35.5-26.8 22.8 8 24.6-18.5 9.3-18.5-13.9 0-22.5 8.6-22.6 22.5-.3 23.9 32.3 26.2 41 28.4zm-763.5-52c-16.1 5.4-16.4 4.1-2-10.2 59.3-59.5 69.2-12.3 2 10.2zm-241.8 46.6c-5.2 2.3-12.3 3.2-13.8 1.8-10.8-10.8 65-85.3 83.1-85.3 22.2-.1-37.7 69.5-69.3 83.5zm-11 7.1c28.9-1.4 46.5-34.5 46.5-16.7 0 11.1 5.6 17 16.1 17 27.2 0 87.5-71.2 66.8-40-16.8 25.3-8.8 55.2 30.6 28.7 26.9-18.1 43.7-39.8 38-22.7-2.6 8-1.8 20.6 1.8 25.2 8.6 11.3 38.4 10 61.1-2.7 10.6-5.9 31.1-19.9 41.5-28.3.2-.2 0-.8-.6-1.3-.7-.7-5.3 1.8-13.9 7.4-100.4 64.9-82.8 1-47.2-10.9 113.6-37.8 57.2-83.8-14-25.8-45.6 37.2-79.7 67.9-88.4 63.3-4-2.2-1.5-7 12.8-24.9 12.8-16 45.4-59 46.1-60.7.4-1-2.5-1.2-12.5-1.2-15 0-13.6-.7-23.2 11.3-7 8.8-97 94.3-97 72.8 0-4.5 46.8-63.6 49.5-67.1.5-.7 81.5-106.6 81.5-107.4 0-.3-5.4-.6-12-.6-11.2 0-12.2.2-14.3 2.3-2.1 2.1-13.2 16.1-56.1 71.1-17.2 22.1-20.5 25.5-21.4 22.7-9.7-29.1-110.7 19.4-110.7 69.9 0 10.8 1.6 14.3 7.7 17.5 3.4 1.5 7.6 1.3 11.3 1.1zm-119.7.6c20.5 3.4 31.1-19.9 19.2-28.3-4.2-3-14-2.7-19.4.4-11.6 6.8-11.5 26 .2 27.9zm-115.4-.9c23.6 11.7 41-31.4 11.8-29.2-16.2 1.2-24.9 22.7-11.8 29.2zm-113.5.1c4.1 2.2 13.6 1.9 18.2-.7 10.6-5.9 12.8-20.6 4.1-26.5-4.2-2.8-14-2.4-19 .9-10.1 6.8-12 21.6-3.3 26.3zm2184.1-108.7c-16.3 12.5-17.7 13.4-18.4 12.2-.7-1.2 1-3.5 21-29 38.3-48.8 61.8-70.8 74.3-69.8 18 1.5-25.7 47.3-76.9 86.6zm-465.7 51.2c-17.7 7-21.8 7-16.3.1 12.3-15.6 41.7-37.1 50.7-37.1 14.5 0 1.2 23.1-34.4 37zm624 48.6c-11.8 5.6-19.8 3.8-17.3-3.9 8-24.4 89.1-99.1 89.1-73-.1 13.7-48.9 66-71.8 76.9zm-352.3-43c40.7-41.5 62.9-47.2 58.2-31.9-6 19.7-53.5 68-74.4 75.7-10.8 5.4-32.2 5.5 16.2-43.8zm-554 121.5c0 .5 5 .8 11.7.6 11.7-.3 11.7-.3 30.5-24.3 37.2-47.5 58.3-73.3 67.5-82.8 10.9-11.2 58.2-57.5 76.1-55.5 17.4 2-60.6 57.5-45.8 83.8 3.9 7 14.7 10 24.2 6.8 7-2.4 23.3-13 37.4-24.4 40.3-32.6 6.8-5.1 20.7 15.9 7.4 11.2 33.8 11.2 57.2-.1 17.8-8.6 47.1-31.4 56.1-38.1 59.1-44.7 34.6-30.8 59.3-29.1 4.7.3 8.7 1.1 8.9 1.7.8 2.3-53.9 41.5-55.8 43-9.7 7.5-40.5 19.1-39.7 26.3.6 4.8 4.9 4 13.5-2.4 12-9 61.4-33.2 46-14.2-6.6 8.2-7.4 12.6-3.1 17.7 2.5 3 2.9 3.1 10.4 3.1 12.5 0 20.8-4 42.5-20.5 26.2-19.9 30.6-21.9 24.4-11-6.5 11.5-4.8 28.2 3.3 31.5 25.1 10.4 70.5-51.3 64.8-27.9-8.7 35.9 21.5 36.8 53.8 12.1 18.5-14.1 2.3 7.8 19.9 16.2 9.7 4.6 26.1-3.3 52.3-25.3 15.1-12.7 21.7-17.5 22.4-16.4.3.5-.8 3.5-2.4 6.8-10 20.6-9.8 64 55.5 9.4 8.8-7.3 33.2-25 34.6-25 1.9 0 .6 2.7-5.2 11.1-7.3 10.6-9 15.1-9 23.6 0 11.8 4.3 16.8 14.2 16.6 24.5-.5 61.2-46.8 54.2-27.2-4 11.2-2.4 22.7 3.5 25.7 11 5.5 25.6-4 58.4-29.3 8.2-6.3 15.3-11.1 15.7-10.7.4.4-.2 3.5-1.3 6.8-11 30.5 5.2 52 51.9 18.3 18.3-13.2 2.9 2.4 17.1 14.3 22.1 18.5 86.9-58.7 73.6-33-6.9 13.4-7.4 28-1.1 33.1 2.7 2.2 13.2 2.4 18.1.4 10.7-4.5 49.5-34.2 48-36.8-1.3-2.1-4.8-.1-17.6 10-22.6 17.9-36.1 25.4-39.6 21.9-2.8-2.8.8-8 33.6-49.2 45.1-56.7 38.4-50.4 54.5-50.7 13.4-.3 14.2-.4 14.2-2.3 0-1.8-.9-2.1-9.7-2.6-14.4-.9-14.5-1-5.2-12.9 11.9-15.2 24.4-31.9 24.4-32.5 0-.3-6-.5-13.4-.5-13.4 0-13.4 0-29.2 20.2-22.1 28.3-19 25.7-30 25.7-10.4 0-12.4.5-12.4 3 0 1.4 1.2 1.9 6.6 2.3 10 .8 10 1-1.3 16-16.4 21.8-19.3 24.8-42.4 43.9-45.6 37.8-60 46.7-60 37.1 0-3.7 2.1-6.9 13.8-21.5 14.6-18.2 48.2-61.6 48.2-62.2 0-.3-5.8-.6-12.9-.6-12.9 0-12.9 0-16.3 4-4.2 4.9-5.3 5-7.2.4-7.1-17-49.3-1.4-77 19.4-61.1 46-82.7 64-91.5 63-7.3-.9-4.9-4.3 56.6-81.3 15.8-19.8 13.4-18.3 29.1-18.7 8.8-.2 13.6-.8 14.4-1.6 2.2-2.2-.3-3.1-11-3.8-6.8-.5-10.5-1.1-10.8-2-.7-1.8 30.8-41.7 31.5-43.5.2-.6-5.2-.9-13.2-.9-13.5 0-13.5 0-30.4 21.7-9.3 12-17.7 22.4-18.7 23.2-3.4 2.9-23 1-23 4.5 0 1.8.8 2 7 2.3 13.9.6 11.2-2.3-27.4 49.3-20.3 27-103.4 85.8-56 25.9 18.9-23.9 45.9-59.7 45.9-61 0-.7-4.2-1-13.2-.8-13.2.3-13.2.3-20.2 8.6-9.7 11.4-20 18-80.1 64.7-16.5 12.8-26 16.9-28.8 12.4-2.4-3.8 2.8-12.2 26.5-42.6 12.2-15.7 16.4-20.3 23.1-25.5 22.8-17.6 136.4-99.9 119.6-121.2-4.8-6.1-20.7-1.9-39 10.4-76.7 51.4-90 94.9-143.6 139.2-134.9 111.5-2-36.2 1.5-46.3.2-.6-4.7-1-12.7-1-13 0-13 0-16.7 4.5-4.5 5.5-5 5.5-7.1.5-2.4-6.1-5.7-7.4-16.8-6.6-23.4 1.6-52.9 16.8-73.9 38.1-7.8 7.9-61.1 56.4-71.2 51.8-4.9-2.2-3.2-5.7 13.5-26.7 17.1-21.5 45-58.5 45-59.6 0-.5-5.9-.9-13.1-.9-26.2 0-12.6 10.1-51 40-89 69.2-46.7 35-55.7 22-11.6-16.9-57.2 16 4.8-30.9 18.7-14.1 20.1-15 29.3-18 14.8-4.8 21.2-10 20.4-16.7-.3-2.8-.5-2.9-5.4-2.9-16.4.1-31.9 26-50.7 18.1-10.9-4.6 10.3-10.8 2.2-19.5-5.4-5.8-15.1-.7-16.3 8.6-.8 6 .3 5-34.1 32.5-47.4 37.8-74.2 53.3-94.8 54.5-8.6.5-8.9.5-11.8-2.3-1.8-1.7-3-3.9-3-5.4 0-4.8 5.6-14.6 12.2-21.3 6.3-6.4 6.5-6.6 20.3-11.2 67-22.8 71.7-51.5 49.3-51.5-22.9 0-46.4 9.7-68.5 28.2-32.6 27.2-85.2 71.3-93.8 61.8-2.8-3.1-.8-5.8 26.1-34.1 33.9-35.7 26.3-64.5-7.1-51.8-17.2 6.5-56 43.5-25.2 4.6 1.6-2 2.6-4 2.2-4.4-1.4-1.4-23.5-1.5-25.2-.1-3 2.9-124.9 161.8-124.9 164zm-582.1-185.1c-23.6 19.6-30.1 24-12.3-1 25-35.1 61.4-76.4 72.3-82 7.2-3.7 13.2-2.5 13.2 2.6-.1 10.7-33.5 47.4-73.2 80.4zm40.4 60.6c-18.5 7-19.4 5.3-5-9.4 56.4-57.3 70.1-15.1 5 9.4zm-219.3 129.4c0 1.2 23.9 1.4 25.6.2.6-.4 5.1-6.4 10-13.2 72.1-101.2 66.1-90.9 74.8-90.3 40.6 2.8 61.2-30.7 52-7.8-3.4 8.6-3.2 22.7.4 27.8 7.4 10.3 34.1 10.5 55.7.4 26.1-12.2 73-50.9 30.1-23.4-68.3 43.7-87.2 27.4-62.2-1.9 5.6-6.5 5.6-6.5 19-11.2 76-26.3 73.2-54.4 46.5-52.2-25.5 2.1-54 16.6-73 37.1-7.4 7.9-60.6 32.9-69.5 25.5-2.1-1.8-2.2-1.7 10.8-19.1 26.1-35.1 48.9-39.6 106.7-97.8 68.1-68.6 17.8-74.9-54.5 0-39.2 40.6-50.7 63.7-74.6 83-18.8 15.2-8.1 21.4-15 30.2-1.1 1.5-82.8 110.7-82.8 112.7z"/></g></g></svg>