<svg width="400" height="300" viewBox="0 0 400 299.99999" xmlns="http://www.w3.org/2000/svg"><g transform="matrix(1.3333 0 0 -1.3333 0 300)"><circle transform="scale(1 -1)" cx="245.9" cy="-156.87" r="9.332" fill="#039" fill-rule="evenodd" stroke="#000" stroke-width=".818"/><path d="M208.55 129.66l5.4-5.785 44.355 42.683z" fill="#039" fill-rule="evenodd"/><path d="M208.55 129.66l5.4-5.785 44.355 42.683z" fill="none" stroke="#000" stroke-miterlimit="10" stroke-width=".964"/><circle transform="scale(1 -1)" cx="245.88" cy="-156.78" r="7.293" fill="#fff" fill-rule="evenodd" stroke="#000" stroke-width=".75"/><path d="M220.25 195.23h2.186v-8.87h-2.186z" fill="#039" fill-rule="evenodd"/><path d="M220.25 195.23h2.186v-8.87h-2.186z" fill="none" stroke="#000" stroke-miterlimit="10" stroke-width=".964"/><path d="M271.81 134.54v2.314h8.742v-2.314z" fill="#006" fill-rule="evenodd"/><path d="M271.81 134.54v2.314h8.742v-2.314z" fill="none" stroke="#000" stroke-miterlimit="10" stroke-width=".964"/><path d="M271.81 165.53l.771-1.286-6.3-3.728-.77 1.286z" fill="#039" fill-rule="evenodd"/><path d="M271.81 165.53l.771-1.286-6.3-3.728-.77 1.286z" fill="none" stroke="#000" stroke-miterlimit="10" stroke-width=".964"/><path d="M249.82 186.61l1.286-.771-3.6-6.3-1.286.643z" fill="#039" fill-rule="evenodd"/><path d="M249.82 186.61l1.286-.771-3.6-6.3-1.286.643z" fill="none" stroke="#000" stroke-miterlimit="10" stroke-width=".964"/><path d="M191.07 186.74l1.286.771 3.6-6.3-1.286-.77z" fill="#039" fill-rule="evenodd"/><path d="M191.07 186.74l1.286.771 3.6-6.3-1.286-.77z" fill="none" stroke="#000" stroke-miterlimit="10" stroke-width=".964"/><path d="M170.11 164.11l.771 1.286 6.3-3.6-.771-1.286z" fill="#039" fill-rule="evenodd"/><path d="M170.11 164.11l.771 1.286 6.3-3.6-.771-1.286z" fill="none" stroke="#000" stroke-miterlimit="10" stroke-width=".964"/><path d="M182.07 167.84l47.569-45.126 4.885 5.271c-17.545 13.202-35.12 26.374-52.454 39.855z" fill="#039" fill-rule="evenodd"/><path d="M182.07 167.84l47.569-45.126 4.885 5.271c-17.834 13.45-36.627 27.59-52.454 39.855z" fill="none" stroke="#000" stroke-miterlimit="10" stroke-width=".964"/><text transform="scale(.99034 -1.0098)" x="242.799" y="-154.432" font-family="'Copperplate Gothic Bold'" font-size="7.639" font-weight="bold" stroke-width="1.273"><tspan x="242.799" y="-154.432">R</tspan></text><text transform="scale(.99034 -1.0098)" x="249.16" y="-150.994" font-family="'Copperplate Gothic Bold'" font-size="7.639" font-weight="bold" stroke-width="1.273"><tspan x="249.16" y="-150.994">F</tspan></text><text transform="scale(1 -1)" x="166.247" y="-128.218" font-family="'Copperplate Gothic Light'" font-size="11" letter-spacing="1.275" stroke="#000" stroke-width=".75" word-spacing="0" style="line-height:125%"><tspan x="166.247" y="-128.218"><tspan font-size="13">D</tspan>ER</tspan><tspan x="166.247" y="-113.009"><tspan font-size="13">U</tspan>HRENDOKTOR</tspan></text><g font-family="Arial" letter-spacing="0" stroke-width=".75" word-spacing="0"><text x="15.114" y="-188.983" font-size="14" style="line-height:125%" transform="scale(1 -1)"><tspan x="15.114" y="-188.983" style="line-height:125.99999905%">Restaurierung</tspan><tspan x="15.114" y="-171.343" style="line-height:125.99999905%">und Reparatur</tspan><tspan x="15.114" y="-153.703" style="line-height:125.99999905%">von Großuhren</tspan></text><text x="15.163" y="-108.432" font-size="10.312" style="line-height:125%" transform="scale(1 -1)"><tspan x="15.163" y="-108.432" font-size="14.14" font-weight="bold">Dr. Ing. Rolf Förster</tspan></text><text x="14.494" y="-60.64" font-size="11" style="line-height:125%" transform="scale(1 -1)"><tspan x="14.494" y="-60.64">Ortsteil Waldberg</tspan><tspan x="14.494" y="-47.56">D-86399 Bobingen</tspan><tspan x="14.494" y="-34.48">Radegundisstraße 2</tspan></text></g><g font-family="Arial" font-size="10.312" letter-spacing="0" stroke-width=".75" word-spacing="0"><text x="157.429" y="-18.285" style="line-height:125%" transform="matrix(1 0 0 -1 1.5 67.5)"><tspan x="157.429" y="-18.285">Tel. </tspan><tspan x="157.429" y="-5.394">Fax. </tspan><tspan x="157.429" y="7.496">Mobil:</tspan><tspan x="157.429" y="20.387">E-Mail:</tspan><tspan x="157.429" y="33.278">www.uhrendoktor.com</tspan></text><text x="191.769" y="-18.285" style="line-height:125%" transform="matrix(1 0 0 -1 1.5 67.5)"><tspan x="191.769" y="-18.285">0 82 04 / 6 11</tspan><tspan x="191.769" y="-5.275">0 82 04 / 6 22</tspan><tspan x="191.769" y="7.735">0173 / 3 69 47 93</tspan><tspan x="191.769" y="20.745">rolf@uhrendoktor.com</tspan></text></g></g></svg>