<svg xmlns="http://www.w3.org/2000/svg" width="91.645" height="45.822" viewBox="0 0 85.916941 42.95847"><defs><clipPath id="a"><path fill="none" stroke="#000" stroke-width=".654" d="M-2634.905 586.838h203.65v64.387h-203.65z"/></clipPath></defs><path fill="#ffc000" d="M0 0h85.917v42.958H0z"/><path d="M37.786 38.128c-.477-.103-1.43-.435-2.117-.739s-1.396-.496-1.575-.427c-.326.125-.066-.73.784-2.58l.274-.595.372.611c.754 1.241 4.033 2.102 5.989 1.573 1.513-.41 2.203-1.837 1.158-2.396-.203-.108-1.571-.354-3.04-.546-3.472-.453-4.347-.836-5.057-2.209-.435-.842-.462-2.212-.063-3.168.996-2.384 4.813-3.202 8.765-1.878 1.067.358 2.095.65 2.286.65.461 0 .453.041-.323 1.6l-.67 1.347-.698-.698c-1.916-1.915-6.782-1.767-7.018.214-.093.78.701 1.088 3.643 1.41 2.964.324 4.325.946 4.965 2.267 1.033 2.135.134 4.218-2.259 5.23-.997.423-4.108.614-5.416.334zm-20.315-.394c.26-.206.762-1.008 1.117-1.782.354-.774 1.482-3.202 2.506-5.396 1.024-2.194 1.861-4.148 1.861-4.342 0-.194-.117-.47-.26-.613-.202-.202.263-.26 2.091-.26 2.33 0 2.347 0 1.962.43-.377.417-.315.58 2.26 5.9 1.457 3.01 2.89 5.692 3.183 5.96l.533.487h-2.41c-2.19 0-2.378-.031-2.069-.34.425-.425.44-.295-.207-1.711l-.548-1.197h-5.748l-.476.98c-.538 1.107-.594 1.63-.216 2.008.202.202-.22.259-1.895.255-2.08 0-2.138-.018-1.684-.379zm9.098-4.868c-.565-1.34-1.736-3.97-1.8-4.042-.139-.154-.253.048-1.258 2.212l-.975 2.101h2.074c1.575 0 2.046-.065 1.959-.27zm25.089 4.947c.49-.359.67.256-2.007-6.841-1.18-3.127-2.004-5.007-2.302-5.247-.448-.36-.381-.374 1.798-.379 1.76 0 2.205.053 2.003.255a.985.985 0 0 0-.26.596c0 .596 2.462 7.164 2.624 6.995.238-.247 2.79-6.728 2.79-7.085 0-.171-.17-.41-.379-.532-.274-.16.31-.222 2.099-.227 2.199-.01 2.43.028 2.057.303-.414.305-.413.33.079 1.753.274.793.9 2.48 1.389 3.746l.89 2.303.361-.862c.2-.474.834-2.154 1.41-3.734 1.018-2.791 1.036-2.881.631-3.187-.372-.282-.178-.315 1.858-.317 2.19 0 2.257.012 1.804.372-.304.243-1.156 2.177-2.433 5.522-2.377 6.23-2.369 6.202-1.852 6.58.343.25.105.29-1.734.29-2.059 0-2.12-.013-1.77-.399.34-.376.273-.627-1.165-4.373-.839-2.186-1.56-4.009-1.602-4.051-.068-.068-2.162 5.15-2.954 7.36-.266.742-.255.839.131 1.13.382.29.214.32-1.73.327-1.903.01-2.105-.028-1.736-.298zM8.348 23.424c.114-.101 1.107-.735 2.207-1.407l2.001-1.223h30.972v-2.379l-13.264-.056L17 18.303l2.057-1.349 2.058-1.349h22.413v-1.949h-9.204c-5.464 0-9.203-.08-9.203-.2 0-.109.852-.694 1.895-1.299l1.894-1.1h14.618V9.116l-5.685-.058L32.16 9l2.066-1.245 2.067-1.246h7.044l-.067-.895-.067-.896-1.787.017c-.982.01-1.786-.03-1.786-.086 0-.231 3.388-2.254 3.775-2.254.23 0 1.887.913 3.681 2.03 1.795 1.115 6.138 3.806 9.651 5.98 7.215 4.463 11.884 7.353 17.152 10.613 1.99 1.232 3.568 2.32 3.506 2.42-.06.098-15.668.18-34.681.18-19.07 0-34.478-.084-34.365-.185z" fill="#006fc0"/><path d="M-2546.436 690.784c-1.379-.296-4.129-1.256-6.111-2.132-1.983-.877-4.028-1.432-4.545-1.234-.94.361-.191-2.106 2.262-7.445l.79-1.719 1.074 1.766c2.177 3.581 11.64 6.066 17.285 4.54 4.367-1.182 6.358-5.302 3.342-6.916-.586-.314-4.534-1.023-8.773-1.576-10.02-1.308-12.547-2.412-14.595-6.376-1.256-2.429-1.334-6.385-.182-9.143 2.876-6.882 13.89-9.241 25.298-5.42 3.078 1.032 6.047 1.876 6.598 1.876 1.331 0 1.307.119-.933 4.619l-1.934 3.887-2.015-2.016c-5.527-5.527-19.571-5.1-20.253.617-.268 2.254 2.022 3.14 10.512 4.07 8.556.935 12.484 2.73 14.331 6.545 2.982 6.16.386 12.172-6.518 15.095-2.88 1.219-11.859 1.771-15.633.962zm-58.632-1.137c.748-.594 2.198-2.908 3.222-5.142a3546.88 3546.88 0 0 1 7.233-15.575c2.955-6.332 5.372-11.971 5.372-12.532 0-.56-.338-1.356-.75-1.768-.583-.584.758-.75 6.034-.75 6.725 0 6.775.01 5.663 1.239-1.09 1.204-.909 1.677 6.524 17.031 4.205 8.686 8.338 16.425 9.184 17.198l1.54 1.407h-6.955c-6.322 0-6.865-.09-5.972-.982 1.225-1.226 1.27-.85-.599-4.937l-1.58-3.456h-16.59l-1.375 2.829c-1.552 3.195-1.714 4.705-.624 5.796.583.583-.632.747-5.469.736-6.001-.013-6.171-.052-4.858-1.094zm26.257-14.049c-1.63-3.868-5.01-11.46-5.196-11.666-.399-.444-.73.138-3.628 6.383l-2.815 6.065h5.984c4.546 0 5.905-.188 5.655-.782zm72.41 14.277c1.416-1.036 1.937.739-5.79-19.745-3.405-9.025-5.786-14.45-6.647-15.143-1.291-1.04-1.1-1.08 5.19-1.093 5.08-.011 6.365.152 5.782.736-.412.412-.751 1.186-.753 1.718-.01 1.722 7.108 20.678 7.577 20.19.686-.712 8.051-19.418 8.051-20.448 0-.494-.492-1.185-1.094-1.535-.79-.46.894-.643 6.057-.656 6.346-.017 7.014.082 5.938.874-1.196.881-1.193.952.227 5.059.792 2.29 2.596 7.156 4.008 10.812l2.567 6.648 1.046-2.488c.574-1.368 2.405-6.217 4.068-10.777 2.938-8.057 2.989-8.316 1.822-9.199-1.076-.813-.515-.91 5.361-.915 6.323-.01 6.513.033 5.208 1.074-.88.702-3.338 6.282-7.022 15.938-6.86 17.98-6.838 17.899-5.346 18.99.99.724.302.84-5.005.84-5.941 0-6.118-.04-5.11-1.153.983-1.087.79-1.812-3.36-12.623-2.421-6.308-4.502-11.57-4.625-11.692-.195-.196-6.239 14.866-8.525 21.245-.767 2.14-.735 2.42.38 3.262 1.1.832.615.923-4.996.94-5.492.019-6.073-.081-5.01-.86zm-124.996-41.528c.326-.293 3.192-2.121 6.368-4.062l5.775-3.53h89.388v-6.866l-38.281-.16-38.282-.162 5.938-3.893 5.938-3.894 32.343-.013 32.344-.013v-5.625h-26.563c-15.77 0-26.562-.233-26.562-.575 0-.317 2.46-2.004 5.469-3.75l5.468-3.174h42.188v-5.605l-16.406-.166-16.407-.167 5.965-3.594 5.965-3.594h20.33l-.192-2.585-.192-2.585-5.157.048c-2.836.027-5.156-.085-5.156-.249 0-.667 9.778-6.504 10.896-6.504.664 0 5.445 2.635 10.625 5.855 5.179 3.22 17.713 10.989 27.854 17.262 20.822 12.882 34.299 21.222 49.503 30.632 5.742 3.554 10.296 6.696 10.12 6.982-.177.286-45.22.52-100.097.52-55.04 0-99.51-.24-99.182-.533z" clip-path="url(#a)" transform="translate(920.005 -201.037) scale(.34648)"/></svg>