<svg xmlns="http://www.w3.org/2000/svg" id="svg8" width="200" height="100" viewBox="0 0 200 100"><style id="style2">.st0{fill:#c6c7c9}.st1{font-family:&apos;Tahoma-Bold&apos;}.st2{font-size:11.4727392px}.st3{fill:#00922f}.st4{font-size:20.8500957px}.st5{font-family:&apos;Tahoma&apos;}.st6{font-size:10.4297628px}</style><g id="layer1" transform="translate(-431.85 -332.745)"><path id="path4642" d="M478.691 432.378h-9.348l-.358-1.112c7.602-3.617 9.297-10.329.612-10.329l.132-1.32c8.936-.002 10.048 6.635 1.583 11.536l.02.047c.94-.086 6.852-.132 7.36-.132z" stroke-width=".508"/><path id="path4644" d="M485.458 426.497h-5.4v-1.281c1.465.015 4.023.013 5.4 0z" stroke-width=".508"/><path id="path4646" d="M496.936 432.613c-.762-.796-4.622-5.213-5.362-6.06l.01-.084c1.332-.35 2.817-1.415 2.817-3.148 0-2.406-2.777-2.299-4.476-2.299-.05 4.643-.022 9.415.01 11.375h-1.555c.059-3.458.069-7.728 0-12.619 1.967-.001 7.634-.724 7.634 3.43 0 1.568-1.028 2.752-2.385 3.552v.048c2.011 2.348 3.787 4.077 4.486 4.834l-1.178.971z" stroke-width=".508"/><path id="path4648" d="M511.119 431.897l-1.47.754c-.112-.309-1.44-3.383-2.045-4.75h-5.636c-.167.37-1.97 4.373-2.12 4.75l-1.263-.679c.279-.557 3.159-6.741 5.71-12.373h1.226c2.44 5.467 5.358 11.79 5.598 12.298zm-4.053-5.202a504.425 504.425 0 0 0-2.261-5.023h-.038c-.762 1.644-1.372 3.052-2.28 5.023l.01.01h4.56z" stroke-width=".508"/><path id="path4650" d="M521.08 431.087c-2.924 1.73-6.134 1.328-7.634 1.328l.02-2.168a305.37 305.37 0 0 0 .018-6.625c0-1.055-.013-2.337-.038-3.845 1.749 0 5.138-.29 7.85 1.432 3.62 2.306 3.727 7.563-.217 9.878zm1.32-4.939c0-2.582-1.853-5.136-7.399-5.136-.012.993-.022 1.816-.028 2.47v3.505c.006 1.012.013 2.416.02 4.212 5.425 0 7.406-2.517 7.407-5.05z" stroke-width=".508"/><path id="path4652" d="M541.322 428.683c0 3.78-5.188 3.983-8.952 3.666.107-6.88 0-12.045 0-12.552 1.714-.125 4.455-.216 5.983.396 2.814 1.113 2.12 4.48-.188 5.277v.094c1.76.153 3.157 1.236 3.157 3.12zm-1.611.048c0-2.716-3.416-2.29-4.062-2.29l-.15-1.13c3.499-.097 3.81-3.077 2.026-3.968-1.136-.542-3.02-.368-3.6-.367-.085 4.113-.01 9.66-.01 10.168 2.514.128 5.796.09 5.796-2.412z" stroke-width=".508"/><path id="path4654" d="M555.185 431.897l-1.47.754c-.114-.312-1.439-3.379-2.045-4.75h-5.636c-.167.371-1.969 4.372-2.12 4.75l-1.263-.679c.275-.55 3.15-6.72 5.71-12.373h1.226a1085.32 1085.32 0 0 0 5.598 12.298zm-4.052-5.202a508.474 508.474 0 0 0-2.262-5.023h-.038c-.762 1.644-1.372 3.052-2.28 5.023l.01.01h4.56zm.904-8.067h-1.8v-1.724h1.8zm-4.354 0h-1.8v-1.724h1.8z" stroke-width=".508"/><path id="path4656" d="M567.794 419.778c0 .03-.029 3.224-.029 8.199 0 6.403-10.319 6.312-10.319 0 0-5.342-.029-8.19-.029-8.2h1.555c-.06 1.489-.028 7.598-.028 8.105 0 2.345 1.452 3.506 3.666 3.506 2.539 0 3.656-1.19 3.656-3.506 0-2.193.026-3.921-.01-6.55-.012-.948-.019-1.466-.019-1.554z" stroke-width=".508"/><path id="path4658" d="M587.33 432.208l-1.536.302-1.942-10.583h-.019a307.64 307.64 0 0 0-4.09 9.122h-1.3a553.547 553.547 0 0 0-4.072-9.113h-.019c-.117.508-1.27 5.843-2.11 10.555l-1.452-.264c1.474-6.352 2.257-10.57 2.658-12.374l1.498-.216a530.944 530.944 0 0 0 4.25 9.527h.057c1.475-3.32 4.203-9.527 4.203-9.527l1.423.113c.069.507 1.379 7.303 2.45 12.458z" stroke-width=".508"/><path id="path4660" d="M598.11 432.378h-7.727c.07-5.912.056-9.057 0-12.6h1.555c-.073 4.64-.019 10.8-.019 11.309 6.294 0 6.192-.02 6.192-.02z" stroke-width=".508"/><path id="path4512-5" class="st3" d="M558.532 332.745l-3.836 1.751c10.686 2.59 16.764 21.812-2.835 24.931l-22.433 3.057c-13.164-6.24-28.492-9.425-46.533-9.182a.706.706 0 1 0 .02 1.412c16.946-.228 31.4 2.594 43.896 8.127l-14.723 2.006 25.932 21.263 2.251-2.418-19.928-16.343 12.262-1.68c10.242 5.475 19.347 12.718 27.431 21.33.02 3.817.01 7.811-.052 12.003h2.207c-.09-5.594-.047-10.276-.014-16.144h.375c1.791-.052 4.145-.095 5.43 1.498.705.972.683 2.407.174 3.558-.697 1.232-2.208 2.199-3.625 2.675l-.013.12c2.223 2.542 5.052 5.792 7.61 8.601l1.673-1.377c-2.297-2.43-4.168-4.28-6.368-6.862v-.067c.696-.41 1.432-1.035 2.207-1.873 1.289-1.432 1.564-3.921.402-5.725-.916-1.265-2.585-2.009-4.24-2.233-1.899-.227-3.77-.096-5.82-.08.018 1.252.032 2.538.042 3.84-7.465-7.762-15.796-14.394-25.068-19.586l17.655-2.418c21.118-3.591 17.63-25.014 5.92-30.184z" fill="#00922f" stroke-width=".508"/><path id="path4517-5" d="M501.29 370.2c-11.63 0-21.12 9.148-21.12 20.453 0 9.622 6.876 17.682 16.093 19.869h-41.875a.602.602 0 1 0 0 1.204H609.31a.602.602 0 1 0 0-1.204h-39.49c9.217-2.187 16.095-10.247 16.095-19.869 0-11.305-9.494-20.454-21.123-20.454-11.629 0-21.122 9.149-21.122 20.454 0 9.622 6.878 17.682 16.096 19.869h-53.45c9.218-2.187 16.095-10.247 16.095-19.869 0-11.305-9.493-20.454-21.122-20.454zm0 2.428c10.36 0 18.694 8.078 18.694 18.025 0 9.948-8.334 18.027-18.694 18.027s-18.693-8.08-18.693-18.027c0-9.947 8.332-18.025 18.693-18.025zm63.503 0c10.36 0 18.695 8.078 18.695 18.025 0 9.948-8.334 18.027-18.695 18.027-10.36 0-18.694-8.08-18.694-18.027 0-9.947 8.334-18.025 18.694-18.025z" stroke-width=".508"/><circle id="path4519-1" class="st3" cx="501.478" cy="390.675" r="2.689" fill="#00922f" stroke-width=".508"/></g></svg>