<svg width="200" height="100" viewBox="0 0 52.916665 26.458334" xmlns="http://www.w3.org/2000/svg"><defs><filter id="a" color-interpolation-filters="sRGB"><feFlood flood-color="#000" flood-opacity=".498" result="flood"/><feComposite in="flood" in2="SourceGraphic" operator="in" result="composite1"/><feGaussianBlur in="composite1" result="blur" stdDeviation=".4"/><feOffset dx=".9" dy="1.4" result="offset"/><feComposite in="SourceGraphic" in2="offset" result="composite2"/></filter><filter id="b" color-interpolation-filters="sRGB"><feFlood flood-color="#000" flood-opacity=".498" result="flood"/><feComposite in="flood" in2="SourceGraphic" operator="in" result="composite1"/><feGaussianBlur in="composite1" result="blur" stdDeviation=".5"/><feOffset dx="1.1" dy="1.8" result="offset"/><feComposite in="SourceGraphic" in2="offset" result="composite2"/></filter></defs><path d="M46.143 162.07l4.71 13.497-10.306.134zm-3.759-16.103h7.985l22.042 55.52-10.607-.26-6.106-15.838H37.023l-5.48 15.815-11.124.923z" fill-rule="evenodd" filter="url(#a)" stroke="#000006" stroke-linecap="round" stroke-linejoin="round" paint-order="stroke fill markers" transform="translate(.81 -17.472) scale(.21036)"/><path d="M182.58-12.641l146.59-59.19 20.64 49.855c-.106 14.981-13.906 13.379-18.928 8.458.792 11.758-10.301 16.029-18.422 7.438 1.672 10.182-11.152 15.702-18.422 7.439-.918 11.315-10.525 15.304-18.422 7.438 2.184 11.15-9.51 16.922-18.422 7.439.77 12.827-10.367 17.088-18.422 7.438 2.072 12.265-10.278 17.035-18.422 7.439 1.52 12.397-10.005 17.546-17.58 7.506z" fill="#b91840" fill-rule="evenodd" filter="url(#b)" transform="translate(-26.932 15.79) scale(.21036)"/><g fill="none" stroke="#000" stroke-linecap="round" stroke-linejoin="round"><path d="M11.787 13.605c1.923 2.993 4.724.362 3.908-1.676 1.09 2.029 4.502 1.563 3.867-1.516 2.118 3.078 4.465.254 4.026-1.61 1.439 2.516 4.693.883 3.638-1.447 2.177 2.317 4.402.415 3.935-1.591.854 1.457 4.543 1.484 3.958-1.666 1.846 2.92 4.52.577 3.92-1.522.652 1.91 4.374 1.59 3.345-1.59" stroke-width=".21036"/><path d="M44.077 5.288c-.72.285-2.119-.059-2.445-1.014.6 2.098-2.073 4.441-3.92 1.522.586 3.15-3.103 3.123-3.957 1.666.467 2.005-1.758 3.908-3.935 1.591 1.055 2.33-2.2 3.963-3.638 1.446.439 1.864-1.909 4.688-4.026 1.61.634 3.08-2.778 3.546-3.867 1.517.816 2.037-1.985 4.668-3.909 1.676.346 1.33-.152 2.017-1.041 2.407M13.935 19.212c1.923 2.992 4.724.361 3.908-1.677 1.09 2.03 4.502 1.564 3.867-1.516 2.118 3.078 4.465.254 4.026-1.61 1.438 2.516 4.693.883 3.638-1.446 2.177 2.317 4.402.414 3.935-1.592.854 1.458 4.543 1.485 3.958-1.666 1.846 2.92 4.519.577 3.92-1.521.652 1.91 4.4 1.601 3.37-1.58" stroke-width=".21036"/><path d="M46.404 10.726c-.818.475-2.426.086-2.776-.955.6 2.098-2.073 4.44-3.919 1.521.586 3.15-3.104 3.123-3.958 1.666.467 2.006-1.758 3.908-3.935 1.591 1.056 2.33-2.2 3.963-3.638 1.447.44 1.864-1.908 4.688-4.026 1.61.635 3.08-2.777 3.545-3.867 1.516.801 1.983-1.567 4.475-3.427 1.714.215 1.128-.115 2.023-1.316 2.542" stroke-width=".21036"/></g><g stroke-width=".413"><path d="M17.552 20.18l-1.556-3.853 1.956-.79q.61-.246 1.014-.051.403.194.563.59.116.287.047.588-.067.296-.354.514.82-.122 1.11.595.174.43.045.875-.127.442-.99.79zm.13-2.817l.548-.221q.206-.083.248-.222t-.005-.257q-.13-.322-.525-.162l-.528.213zm.613 1.518l.576-.232q.214-.087.271-.231.058-.148.005-.28-.054-.134-.197-.204-.142-.074-.401.03l-.537.217zM23.198 13.417l1.03 2.551q.293.726-.01 1.219-.302.49-.993.769-.728.294-1.295.168-.563-.127-.841-.816l-1.055-2.614 1.202-.485 1 2.475q.111.277.278.357.17.08.427-.025.214-.086.313-.231.101-.15.08-.275-.019-.127-.154-.463l-.911-2.255zM27.277 14.542l1.107-.372q.21.74-.086 1.299-.293.558-.945.822-.785.316-1.477-.008-.692-.325-1.062-1.239-.366-.906-.133-1.647.233-.74 1.051-1.07.765-.31 1.345-.052.583.257.92.936l-1.08.505q-.156-.387-.375-.499-.216-.113-.417-.032-.559.226-.105 1.35.254.629.49.796.237.167.5.06.468-.188.267-.85zM31.46 10.08l1.556 3.853-1.183.478-.605-1.499-.903.365.605 1.498-1.182.478-1.556-3.853 1.182-.477.573 1.417.903-.365-.572-1.417zM36.37 11.48l.382.946-2.701 1.09-1.556-3.852 1.183-.477 1.173 2.907zM40.055 10.022l.372.92-2.899 1.17-1.556-3.852 2.899-1.17.359.889-1.739.702.226.559 1.406-.568.345.855-1.406.568.254.63zM44.685 9.223l-1.312.53-1.157-1.246-.373.15.595 1.474-1.182.477L39.7 6.756l2.013-.813q.666-.269 1.16-.104.494.161.7.672.135.333.103.645-.033.308-.366.67zm-3.174-1.39l.505-.204q.223-.09.32-.238t.026-.328q-.15-.37-.604-.186l-.545.22z"/><g fill="#fff"><path d="M16.936 19.766l-1.556-3.853 1.956-.79q.61-.246 1.014-.051.403.195.563.59.116.288.047.588-.067.296-.354.514.82-.122 1.11.595.174.43.045.875-.127.442-.99.79zm.13-2.817l.548-.22q.206-.084.248-.223t-.005-.257q-.13-.322-.525-.162l-.528.213zm.613 1.519l.576-.233q.214-.086.271-.23.058-.149.005-.282t-.197-.202q-.142-.075-.401.03l-.537.217zM22.582 13.005l1.03 2.552q.293.725-.01 1.218-.301.49-.993.769-.728.294-1.294.168-.563-.127-.841-.816l-1.056-2.613 1.203-.486.999 2.476q.112.276.279.356.17.08.426-.024.215-.087.314-.232.1-.149.08-.275-.02-.127-.155-.463l-.91-2.255zM26.66 14.128l1.108-.371q.21.739-.086 1.298-.293.559-.945.822-.785.317-1.477-.008t-1.062-1.239q-.366-.906-.133-1.646.233-.74 1.051-1.071.765-.31 1.345-.051.583.257.92.935l-1.08.505q-.156-.387-.375-.498-.217-.113-.417-.032-.559.225-.105 1.349.254.629.489.797.238.166.5.06.469-.189.268-.85zM30.845 9.669l1.555 3.853-1.182.477-.605-1.499-.903.365.605 1.499-1.183.477-1.556-3.852 1.183-.478.572 1.417.903-.365-.572-1.417zM35.755 11.069l.381.945-2.7 1.091-1.556-3.853 1.182-.477 1.174 2.907zM39.44 9.61l.371.92-2.898 1.171-1.556-3.853 2.899-1.17.359.889-1.739.702.226.559 1.405-.568.345.856-1.405.567.254.63zM44.069 8.81l-1.313.53L41.6 8.093l-.373.15.595 1.474-1.182.478-1.556-3.853 2.012-.813q.666-.269 1.16-.103.495.16.701.672.135.333.103.644-.033.309-.366.67zm-3.175-1.39l.506-.204q.223-.09.32-.238t.025-.329q-.149-.37-.603-.186l-.545.22z"/></g></g></svg>