<svg width="2e2" height="1e2" version="1.1" viewBox="0 0 52.916665 26.458333" xmlns="http://www.w3.org/2000/svg" xmlns:xlink="http://www.w3.org/1999/xlink">
 <defs>
  <linearGradient id="linearGradient4734-6" x1="-8.2e2" x2="-8.2e2" y1="70" y2="-89" gradientTransform="matrix(.05 0 0 .16 9.9e2 1.7e2)" gradientUnits="userSpaceOnUse">
   <stop stop-color="#d8a72e" offset="0"/>
   <stop stop-color="#d9bf68" offset="1"/>
  </linearGradient>
 </defs>
 <g transform="translate(-9.2e2 -1.6e2)">
  <rect x="9.2e2" y="1.6e2" width="53" height="26" fill="url(#linearGradient4734-6)" fill-rule="evenodd" style="paint-order:stroke fill markers"/>
  <g transform="matrix(1.1 0 0 1.1 -84 -33)">
   <g fill="#e59c01" fill-rule="evenodd" stroke="#000" stroke-linecap="round" stroke-linejoin="round" stroke-width=".027">
    <path d="m9.1e2 1.8e2c0.37-0.72 0.8-1.4 1.7-2.1l-2.4-6.5 3.3 6c0.42-0.18 0.87-0.32 1.4-0.36l0.48-6.1 0.56 6c0.36 0.037 0.71 0.1 1.1 0.2l1.9-4.4-1.3 4.7c0.24 0.1 0.5 0.23 0.79 0.45l4.2-4.3-3.5 4.8c0.2 0.18 0.38 0.39 0.53 0.62l8.8-4.4-8.3 5.3c0.11 0.25 0.23 0.5 0.3 0.82l7.5-1.8-7.3 2.8c0.026 0.39-5e-3 0.78-0.053 1.2-0.33 0.44-0.72 0.79-1.2 0.98 2-4.6-4.3-8.8-7.5-3.9z"/>
    <path d="m9.1e2 1.8e2 4.9-0.099c0.36-3e-3 0.9 0.15 1.2 0.39-1.9-2.3-4.7-1.9-6.2-0.29z"/>
    <path d="m9.2e2 1.8e2c0.25 0.85 0.32 1.7-0.013 2.5-4.2e-4 -0.5-0.16-0.88-0.46-1.2 0.29-0.42 0.42-0.85 0.47-1.3z"/>
   </g>
   <path d="m9.2e2 1.8e2c-1.5 4.8-4.1 5-8.1 4.1s-5.3-0.73-6.6 0.62c1.9-2.4 4.6-2.8 7.8-2.2 3.2 0.55 5.6 0.034 6.9-2.5z" fill="#44475a" fill-rule="evenodd" stroke="#000" stroke-width=".027"/>
   <path d="m9.1e2 1.8e2h2.4v1.2h-2.4zm-0.71-0.97 7.2-0.08c0.45 0.27 0.49 0.65 9e-3 0.96l-3 0.066v1.2l3-0.033c0.41 0.15 0.47 0.7 0 0.96l-7.1 0.042c-0.34-1-0.41-2.1-0.08-3.1z" fill="#e59c01" fill-rule="evenodd" stroke="#000" stroke-linecap="round" stroke-linejoin="round" stroke-width=".027"/>
   <text transform="matrix(.43 0 0 .43 5.1e2 1.1e2)" x="899.75305" y="185.49274" font-family="Georgia" font-size="9px" stroke-width=".026px" lengthAdjust="spacingAndGlyphs" textLength="92" xml:space="preserve">ANDREAS  BUCHLER</text>
   <text transform="matrix(.43 0 0 .43 5.1e2 1.1e2)" x="915.09088" y="191.44164" fill="#2b3550" font-family="Georgia" font-size="6px" stroke-width=".026px" lengthAdjust="spacingAndGlyphs" textLength="61" xml:space="preserve">ENERGIEBERATUNG</text>
   <path d="m9e2 1.9e2h5.9" fill="none" stroke="#000" stroke-linecap="square" stroke-width=".13"/>
   <path d="m9.3e2 1.9e2h5.9" fill="none" stroke="#000" stroke-linecap="square" stroke-width=".13"/>
  </g>
 </g>
</svg>
