<svg xmlns="http://www.w3.org/2000/svg" xmlns:xlink="http://www.w3.org/1999/xlink" width="200" height="100" viewBox="0 0 200 99.999999"><defs><linearGradient id="a"><stop offset="0" stop-color="#d8a72e"/><stop offset="1" stop-color="#d9bf68"/></linearGradient><linearGradient xlink:href="#a" id="b" x1="-816.311" y1="70.416" x2="-815.29" y2="-89.09" gradientUnits="userSpaceOnUse" gradientTransform="matrix(.04986 0 0 .15982 66.962 88.324)"/></defs><path d="M0 73.542h52.917V100H0z" fill="url(#b)" fill-rule="evenodd" paint-order="stroke fill markers" transform="matrix(3.7795 0 0 3.77958 0 -277.958)"/><path d="M20.567 84.181c.417-.806.9-1.607 1.966-2.373l-2.682-7.304 3.741 6.726a4.798 4.798 0 0 1 1.56-.41l.544-6.811.627 6.78a7.01 7.01 0 0 1 1.196.23l2.155-4.969-1.463 5.241c.275.116.562.264.886.506l4.673-4.79-3.944 5.383c.22.207.423.438.601.702l9.91-4.933-9.322 5.963c.127.286.259.567.339.922l8.4-2.047-8.244 3.124c.03.437-.005.874-.06 1.31-.376.5-.808.89-1.332 1.102 2.297-5.169-4.836-9.893-8.491-4.345z" fill="#e59c01" fill-rule="evenodd" stroke="#000" stroke-width=".03" stroke-linecap="round" stroke-linejoin="round" transform="matrix(3.7795 0 0 3.77958 0 -277.958)"/><path d="M22.496 83.423l5.554-.111c.409-.004 1.018.165 1.371.44-2.089-2.544-5.266-2.183-6.925-.329zm7.648 1.765c.276.96.365 1.896-.015 2.775 0-.563-.183-.994-.513-1.318.322-.47.474-.958.528-1.457z" fill="#e59c01" fill-rule="evenodd" stroke="#000" stroke-width=".03" stroke-linecap="round" stroke-linejoin="round" transform="matrix(3.7795 0 0 3.77958 0 -277.958)"/><path d="M32.299 86.445c-1.734 5.448-4.58 5.65-9.088 4.652-4.509-.998-5.919-.824-7.477.694 2.169-2.729 5.225-3.116 8.8-2.5 3.576.617 6.27.038 7.765-2.846z" fill="#44475a" fill-rule="evenodd" stroke="#000" stroke-width=".03" transform="matrix(3.7795 0 0 3.77958 0 -277.958)"/><path d="M21.077 85.997h2.737v1.372h-2.732zm-.794-1.091l8.085-.09c.51.3.547.736.01 1.08l-3.405.075v1.377l3.394-.037c.456.164.533.79 0 1.08l-7.995.048c-.379-1.151-.458-2.325-.09-3.533z" fill="#e59c01" fill-rule="evenodd" stroke="#000" stroke-width=".03" stroke-linecap="round" stroke-linejoin="round" transform="matrix(3.7795 0 0 3.77958 0 -277.958)"/><text font-size="9.003" font-weight="400" style="-inkscape-font-specification:Georgia" x="899.753" y="185.493" textLength="92" lengthAdjust="spacingAndGlyphs" transform="matrix(1.80955 0 0 1.80959 -1611.403 -248.318)" font-family="Georgia" stroke-width=".026">ANDREAS BUCHLER</text><text font-size="5.979" font-weight="400" style="-inkscape-font-specification:Georgia" x="915.091" y="191.442" textLength="61" lengthAdjust="spacingAndGlyphs" transform="matrix(1.80955 0 0 1.80959 -1611.403 -248.318)" font-family="Georgia" fill="#2b3550" stroke-width=".026">ENERGIEBERATUNG</text><path d="M4.7 98.622h6.674m30.146-.109h6.675" fill="none" stroke="#000" stroke-width=".143" stroke-linecap="square" transform="matrix(3.7795 0 0 3.77958 0 -277.958)"/></svg>