<svg id="svg4682" xmlns="http://www.w3.org/2000/svg" width="200" height="100" viewBox="0 0 200 100"><style>.st0{fill:#d6012d}</style><g id="layer1" transform="translate(0 -270.542)"><g id="text21"><path id="path4495" d="M22.084 292.288l-3.505 11.965c3.725-.048 7.766.224 10.212-4.907h.912l-3.623 12.503h-.934c1.17-6.085-2.537-5.743-7.035-5.843-3.902 13.53-5.578 15.259.468 15.33l-.257.866H2.5l.257-.865c3.27 0 4.201-1.048 5.235-4.58 5.737-19.679 6.525-22.118 6.59-23.324-.098-1.714-1.976-1.986-3.622-2.057l.234-.864h25.894l-2.127 8.366h-.865c-.377-7.045-4.075-6.59-12.012-6.59z"/><path id="path4497" d="M48.212 306.73c-3.626 12.42-5.495 14.488.327 14.607l-.327.865h-15.26l.28-.865c5.002 0 4.194-1.027 11.194-25.193 1.137-3.954.365-4.523-2.945-4.767l.234-.865c13.407 0 18.18-.502 21.056 1.963 2.944 2.523 3.332 7.273-.373 10.914-1.122 1.09-3.109 2.033-5.96 2.828 4.216 14.204 3.862 14.985 7.689 15.12v.865h-9.862l-4.487-15.471c-.81.049-.778.069-1.566 0zm.327-1.402c9.845.565 10.39-9.45 8.016-11.825-1.274-1.274-2.802-1.196-4.183-1.146l-3.833 12.971z"/><path id="path4499" d="M85.838 311.989h-9.816c-3.537 4.38-8.492 9.06-2.827 9.348v.865H63.73l.233-.865c3.104-.518 2.578-.652 28.465-31.55h1.052c-1.24 30.565-2.224 31.246 1.659 31.55l-.234.865H81.187l.257-.865c4.19-.386 3.972-1.247 4.394-9.348zm0-1.916l.607-10.33-8.81 10.33h8.203z"/><path id="path4501_3_" d="M102.407 316.593l6.707-23.02c-1.617-1.8-2.374-2.165-4.604-2.196l.258-.865h10.703l9.909 21.126c4.788-16.444 4.814-16.168 4.814-17.574 0-1.918-1.38-2.565-3.272-2.688l.257-.864h10.05l-.234.864c-1.278.078-2.337.437-3.178 1.075-1.67 1.292-1.54 1.946-9.84 30.101h-.887l-12.714-27.016-6.146 21.057"/><path id="path4503" d="M162.351 322.202h-13.718l.257-.865c1.879-.162 2.664-1.159 2.664-2.43 0-1.325-.493-2.6-4.09-14.14-4.04 13.985-5.91 16.505-.35 16.57l-.257.865h-15.4l.256-.865c1.823-.046 3.305-.301 4.207-1.87.874-1.52 7.525-24.783 7.525-26.057 0-1.65-1.937-1.98-3.529-2.033l.257-.865h14.91l-.257.865c-4.35 0-4.327 2.68-7.361 13.367 9.988-9.167 12.66-10.825 10.797-12.69-.328-.342-.904-.568-1.73-.677l.257-.865h11.942l-.257.865c-4.782.405-7.494 3.523-15.05 10.306 5.643 17.634 5.71 19.453 9.184 19.654l-.257.865z"/><path id="path4505" d="M183.057 292.265l-3.529 12.292c5.341 0 8.29-.262 10.587-5.094h.865l-3.552 12.339h-.818c.938-5.525-2.065-5.515-7.642-5.515-3.58 12.528-3.972 12.91-2.922 13.578 1.11.693 9.98 1.86 16.687-6.357h.958l-3.295 8.694h-27.11l.28-.865c5.16 0 4.228-.61 11.429-25.263 1.089-3.786.5-4.441-3.015-4.697l.257-.865H197.5l-2.033 7.922h-.841c-.26-6.477-5.126-6.169-11.569-6.17z"/></g><g id="text21-9"><path id="path4508" class="st0" d="M74.181 333.241l-2.13 7.42c3.192 0 4.995-.141 6.39-3.075h.522l-2.144 7.448h-.494c.579-3.407-1.38-3.329-4.613-3.329-1.634 5.72-2.073 6.994-2.073 7.674 0 1.403 6.39 1.574 10.382-3.315h.578l-1.989 5.247H62.247l.17-.522c2.065 0 2.646-.677 3.3-2.934 4.254-14.563 5.223-14.899 1.778-15.15l.155-.522h15.249l-1.228 4.782h-.508c-.158-3.971-3.267-3.724-6.982-3.724z"/><path id="path4510" class="st0" d="M96.906 351.311H81.629l.155-.522c1.924 0 2.493-.607 3.16-2.906 4.153-14.355 5.158-15.024 1.763-15.178l.155-.522h9.183l-.155.522c-2.926.059-2.52.723-6.39 14.134-.414 1.43-.62 2.3-.62 2.61 0 1.569 6.306 1.079 9.55-3.498h.592l-2.116 5.36z"/><path id="path4512" class="st0" d="M111.139 333.241l-2.13 7.42c3.191 0 4.995-.141 6.39-3.075h.522l-2.145 7.448h-.493c.6-3.533-1.639-3.329-4.613-3.329-1.634 5.72-2.074 6.994-2.074 7.674 0 1.403 6.391 1.574 10.382-3.315h.579l-1.99 5.247H99.206l.17-.522c2.065 0 2.645-.677 3.3-2.934 4.253-14.561 5.224-14.899 1.777-15.15l.156-.522h15.248l-1.227 4.782h-.508c-.159-3.966-3.167-3.724-6.982-3.724z"/><path id="path4514" class="st0" d="M137.235 351.311h-8.28l.155-.522c2.877-.249 1.357-2.886-.86-10-2.464 8.526-3.579 9.962-.212 10l-.156.522h-9.295l.155-.522c1.1-.026 1.995-.183 2.539-1.129.495-.861 4.542-14.791 4.542-15.728 0-.992-1.143-1.193-2.13-1.227l.155-.522h9l-.155.522c-2.598 0-2.587 1.529-4.444 8.069 6.265-5.75 7.615-6.562 6.517-7.66-.197-.207-.545-.343-1.044-.409l.155-.522h7.209l-.156.522c-2.894.246-4.663 2.252-9.084 6.22 3.465 10.829 3.452 11.742 5.544 11.864l-.155.522z"/><path id="path4516" class="st0" d="M143.441 332.184h15.39l-1.453 5.148h-.508c.17-2.45-.681-3.753-3.738-3.921-4.984 16.849-6.002 17.302-2.398 17.378l-.127.522h-9.493l.17-.522c3.158 0 2.478-.102 7.588-17.378-3.099.1-4.855 1.329-6.39 3.921h-.55l1.51-5.148z"/><path id="path4518" class="st0" d="M164.77 341.973c-2.182 7.473-3.33 8.744.197 8.816l-.197.522h-9.212l.17-.522c1.987 0 2.556-.69 3.202-2.934 4.178-14.426 5.226-14.896 1.777-15.15l.141-.521c8.07 0 14.092-.888 14.092 4.231 0 3.372-2.928 4.613-5.205 5.248 2.612 8.799 2.356 9.046 4.64 9.126v.522h-5.952l-2.708-9.338c-1.161.066.055 0-.945 0zm.197-.846c6.387.342 7.565-8.037 2.313-7.83l-2.313 7.83z"/><path id="path4520" class="st0" d="M180.16 350.817c-1.918-1.271-2.85-3.685-2.85-5.769 0-10.66 14.034-17.831 18.338-10.001 2.732 4.891-1.73 12.809-6.503 15.517-2.395 1.339-6.71 1.763-8.986.253zm9.31-17.928c-5.55 0-7.66 11.204-7.66 14.261 0 4.192 3.603 4.067 5.303 2.454 3.919-3.713 7.46-16.715 2.356-16.715z"/></g><circle id="path846" class="st0" cx="102.632" cy="317.699" r="5.94"/></g></svg>