<svg xmlns="http://www.w3.org/2000/svg" width="200" height="100" viewBox="0 0 150 74.999994"><defs><clipPath id="a"><path d="M36 126h199v222H36zm0 0"/></clipPath><clipPath id="b"><path d="M787 156h20.328v162H787zm0 0"/></clipPath><clipPath id="c"><path d="M778 394h28v43.3h-28zm0 0"/></clipPath><clipPath id="d"><path d="M536 52.3h32V107h-32zm0 0"/></clipPath><clipPath id="e"><path d="M692 52.3h29V106h-29zm0 0"/></clipPath></defs><path d="M34.908 37.361c-.662 8.564-8.135 13.74-15.22 13.74-8.6 0-15.452-6.967-15.452-14.907 0-7.473 6.19-14.908 15.414-14.908 7.63 0 12.494 5.255 13.623 8.174h-3.347c-1.635-2.841-5.45-5.566-10.237-5.566-7.278 0-12.572 5.917-12.572 12.339 0 6.421 5.294 12.26 12.69 12.26 6.11 0 10.625-4.515 11.636-8.523H15.37V37.36zm0 0" fill="#6e6b6e"/><g clip-path="url(#a)" transform="matrix(.18475 0 0 .18475 -2.9 -7.665)"><path d="M204.652 243.719c-3.582 46.351-44.03 74.367-82.379 74.367-46.554 0-83.64-37.707-83.64-80.688 0-40.449 33.5-80.691 83.433-80.691 41.293 0 67.625 28.441 73.739 44.242h-18.121c-8.848-15.379-29.496-30.125-55.41-30.125-39.395 0-68.047 32.024-68.047 66.785 0 34.758 28.652 66.364 68.683 66.364 33.074 0 57.516-24.438 62.988-46.137H98.891v-14.117zm0 0" fill="none" stroke="#6e6b6e" stroke-width="5.267"/></g><path d="M57.88 32.8c1.656 1.981 2.64 4.504 2.64 7.13 0 5.8-4.787 11.17-11.17 11.17-6.229 0-11.094-5.254-11.094-11.014 0-5.39 3.516-9.408 7.794-10.797l-2.076 4c-1.747 1.505-2.993 3.793-2.993 6.758 0 4.943 4.009 8.602 8.407 8.602 4.127 0 8.408-3.27 8.408-8.835 0-1.701-.438-3.162-1.149-4.371zm0 0" fill="#6e6b6e" stroke="#6e6b6e" stroke-width=".97307825"/><path d="M75.7 31.211c-4.903 0-8.523 4.088-8.523 8.759 0 4.982 3.93 8.679 8.524 8.679 5.215 0 8.718-3.893 8.718-8.64 0-5.41-4.048-8.798-8.718-8.798m-11.094-1.906h2.726v3.736h.077c2.452-3.503 5.995-4.282 8.29-4.282 6.968 0 11.443 5.45 11.443 11.132 0 6.11-4.747 11.21-11.442 11.21-2.219 0-5.916-.778-8.29-4.242h-.078v11.21h-2.726zm0 0" fill="#6e6b6e"/><path d="M75.7 31.211c-4.903 0-8.523 4.088-8.523 8.759 0 4.982 3.93 8.679 8.524 8.679 5.215 0 8.718-3.893 8.718-8.64 0-5.41-4.048-8.798-8.718-8.798zm-11.093-1.906h2.726v3.736h.077c2.452-3.503 5.995-4.282 8.29-4.282 6.968 0 11.443 5.45 11.443 11.132 0 6.11-4.747 11.21-11.442 11.21-2.219 0-5.916-.778-8.29-4.242h-.078v11.21h-2.726zm0 0" fill="none" stroke="#6e6b6e" stroke-width=".97307825"/><path d="M102.246 31.211c-4.903 0-8.524 4.088-8.524 8.759 0 4.982 3.931 8.679 8.524 8.679 5.215 0 8.72-3.893 8.72-8.64 0-5.41-4.05-8.798-8.72-8.798m-11.092-1.906h2.725v3.736h.077c2.451-3.503 5.994-4.282 8.29-4.282 6.968 0 11.443 5.45 11.443 11.132 0 6.11-4.748 11.21-11.443 11.21-2.219 0-5.916-.778-8.29-4.242h-.077v11.21h-2.725zm0 0" fill="#6e6b6e"/><path d="M102.246 31.211c-4.903 0-8.524 4.088-8.524 8.759 0 4.982 3.931 8.679 8.524 8.679 5.215 0 8.72-3.893 8.72-8.64 0-5.41-4.05-8.798-8.72-8.798zm-11.092-1.906h2.725v3.736h.077c2.451-3.503 5.994-4.282 8.29-4.282 6.968 0 11.443 5.45 11.443 11.132 0 6.11-4.748 11.21-11.443 11.21-2.219 0-5.916-.778-8.29-4.242h-.077v11.21h-2.725zm0 0" fill="none" stroke="#6e6b6e" stroke-width=".97307825"/><path d="M136.11 38.49c-.857-5.02-4.943-7.279-8.33-7.279-3.347 0-7.511 2.258-8.29 7.28zm-16.62 2.452c.195 4.166 4.087 7.707 8.252 7.707 3.893-.077 6.656-2.374 7.63-5.021h2.88c-1.48 4.243-5.567 7.472-10.472 7.472-5.955 0-11.092-4.825-11.092-11.13 0-6.034 4.864-11.094 11.054-11.21 4.67.038 7.979 2.802 9.497 5.448 1.44 2.297 1.751 4.672 1.634 6.734zm0 0" fill="#6e6b6e" stroke="#6e6b6e" stroke-width=".97307825"/><path d="M143.038 21.793h2.726v28.802h-2.726zm0 0" fill="#6e6b6e"/><g clip-path="url(#b)" transform="matrix(.18475 0 0 .18475 -2.9 -7.665)"><path d="M789.941 159.45h14.754v155.902h-14.754zm0 0" fill="none" stroke="#6e6b6e" stroke-width="5.267"/></g><path d="M53.795 17.527h3.041l-9.934 19.381h-3.203zm0 0M58.296 17.487h5.311l-9.203 19.462h-5.92zm0 0" fill="#0f4f8c"/><path d="M71.259 72.98v-6.49h-.031l-2.586 6.49h-.675l-2.596-6.49h-.021v6.49h-1.12v-7.684h1.764l2.305 5.888 2.315-5.888h1.766v7.684zm0 0M77.4 72.98v-7.684h4.144v1.027h-3.022v2.265h3.022v1.028h-3.022v2.336h3.022v1.028zm0 0M87.251 72.98v-6.657h-1.475v-1.027h4.07v1.027h-1.474v6.657zm0 0M97.8 69.688l-.976-2.939h-.022l-.986 2.939zm1.234 3.292l-.851-2.264H95.42l-.852 2.264h-1.183l2.918-7.684h1.007l2.918 7.684zm0 0M104.751 72.98v-7.684h1.123v6.656h2.668v1.028zm0 0M112.942 72.98v-7.684h1.121v6.656h2.668v1.028zm0 0M122.211 71.952h1.215c1.132 0 1.391-.81 1.391-1.205 0-.28-.114-.55-.27-.758-.342-.456-.862-.467-1.255-.467h-1.08zm0-3.459h.914c1.049 0 1.235-.633 1.235-1.08 0-1.09-1.049-1.09-1.298-1.09h-.85zm-1.121-3.197h1.993c2.17 0 2.399 1.588 2.399 2.129 0 .85-.426 1.224-.686 1.453.322.186 1.143.675 1.143 1.87 0 .788-.436 2.232-2.555 2.232h-2.294zm0 0M134.358 69.688l-.976-2.939h-.02l-.987 2.939zm1.236 3.292l-.851-2.264h-2.762l-.851 2.264h-1.185l2.918-7.684h1.008l2.917 7.684zm0 0" fill="#6e6b6e"/><g clip-path="url(#c)" transform="matrix(.18475 0 0 .18475 -2.9 -7.665)"><path d="M805.902 423.078c0 4.723-1.578 8.156-4.215 10.684-2.59 2.133-5.902 3.539-9.726 3.539-3.824 0-7.133-1.406-9.719-3.54-2.644-2.527-4.219-5.96-4.219-10.683v-28.156h6.07v27.988c0 7.7 5.626 8.828 7.868 8.828 2.25 0 7.871-1.129 7.871-8.828v-27.988h6.07zm0 0" fill="#6e6b6e"/></g><path d="M4.338 2.677H8.81v.785H5.24v3.256h3.387v.785H5.24v3.517h3.727v.785H4.338zm0 0M11.701 11.02h.746c2.588 0 4.276-1.046 4.276-3.844 0-2.785-1.662-3.713-3.701-3.713h-1.32zM10.8 2.678h2.262c3.27 0 4.564 1.883 4.564 4.551 0 3.308-2.21 4.577-5.23 4.577h-1.596zm0 0M19.522 2.677h.902v8.343h3.662v.785h-4.564zm0 0M25.407 2.677h4.472v.785H26.31v3.256h3.386v.785H26.31v3.517h3.727v.785h-4.63zm0 0M32.875 6.718h.954c1.06 0 2.276-.405 2.276-1.673 0-1.491-1.06-1.582-2.302-1.582h-.928zm-.902-4.04h2.353c1.622 0 2.681.693 2.681 2.367 0 1.177-.902 1.961-2.027 2.105v.026c.733.091.89.484 1.177 1.098l1.556 3.531h-.994L35.4 8.72c-.524-1.177-.915-1.216-1.78-1.216h-.744v4.302h-.902zm0 0M42.893 10.641c.536.34 1.164.536 2.014.536 1.125 0 2.053-.575 2.053-1.87 0-1.79-4.185-2.014-4.185-4.407 0-1.464 1.282-2.38 2.89-2.38.445 0 1.165.066 1.792.302l-.144.823c-.405-.222-1.046-.34-1.661-.34-.941 0-1.974.393-1.974 1.57 0 1.83 4.185 1.843 4.185 4.511 0 1.844-1.583 2.576-2.995 2.576-.89 0-1.582-.184-2.067-.392zm0 0M51.38 3.462h-2.693v-.785h6.29v.785h-2.694v8.343h-.902zm0 0M58.563 3.54l-1.989 5.035h3.963zm-.445-.863h1.02l3.622 9.128h-.941l-.981-2.446h-4.603l-.98 2.446h-.877zm0 0M64.082 2.677h.902v4.041H69.6v-4.04h.903v9.127H69.6V7.503h-4.616v4.302h-.902zm0 0M72.7 2.677h.903v8.343h3.66v.785H72.7zm0 0M87.335 10.235c0 .51 0 1.034.052 1.57h-.798v-1.19h-.026c-.274.601-.772 1.347-2.158 1.347-1.647 0-2.276-1.099-2.276-2.563V5.136h.824V9.19c0 1.255.445 2.066 1.583 2.066 1.503 0 1.975-1.32 1.975-2.433V5.136h.824zm0 0M89.402 6.705c0-.51 0-1.033-.052-1.569h.797v1.19h.026c.275-.602.771-1.347 2.158-1.347 1.647 0 2.275 1.098 2.275 2.563v4.263h-.824V7.752c0-1.256-.444-2.067-1.582-2.067-1.504 0-1.975 1.321-1.975 2.432v3.688h-.823zm0 0" fill="#0f4f8c"/><g clip-path="url(#d)" transform="matrix(.18475 0 0 .18475 -2.9 -7.665)"><path d="M552.426 102.414c7.93 0 10.687-8.496 10.687-15.078 0-6.582-2.758-15.078-10.687-15.078-8.496 0-10.688 8.07-10.688 15.078 0 7.008 2.192 15.078 10.688 15.078m15.148 2.973h-4.46v-5.735h-.141c-2.403 4.602-6.086 6.582-11.254 6.582-9.91 0-14.864-8.21-14.864-18.898 0-10.969 4.25-18.898 14.864-18.898 7.078 0 10.62 5.167 11.254 6.937h.14V52.301h4.461zm0 0" fill="#0f4f8c"/></g><path d="M115.636 11.805V7.372c0-.942-.353-1.687-1.413-1.687-.902 0-1.792.772-1.792 2.432v3.688h-.822V7.372c0-.942-.354-1.687-1.413-1.687-.902 0-1.792.772-1.792 2.432v3.688h-.823v-5.1c0-.51 0-1.033-.053-1.569h.798v1.125l.026.013c.262-.458.654-1.295 2.079-1.295.589 0 1.556.249 1.766 1.412h.026c.3-.784 1.085-1.412 2.13-1.412 1.347 0 2.107.942 2.107 2.236v4.59zm0 0M122.542 8c0-1.164-.47-2.315-1.7-2.315-1.216 0-1.961 1.216-1.961 2.315zm.405 3.596a5.466 5.466 0 0 1-1.934.366c-2.21 0-3.035-1.491-3.035-3.492 0-2.04 1.125-3.491 2.812-3.491 1.882 0 2.655 1.517 2.655 3.308v.419h-4.564c0 1.412.758 2.55 2.196 2.55.602 0 1.478-.248 1.87-.497zm0 0" fill="#0f4f8c"/><g clip-path="url(#e)" transform="matrix(.18475 0 0 .18475 -2.9 -7.665)"><path d="M692.387 52.3h4.457v23.075h.14c1.914-3.965 5.946-6.938 11.254-6.938 9.7 0 12.317 6.442 12.317 15.36v21.59h-4.457v-21.52c0-6.226-1.207-11.605-8.567-11.605-7.93 0-10.687 7.5-10.687 13.8v19.325h-4.457zm0 0" fill="#0f4f8c"/></g><path d="M132.286 6.626c0-.731 0-1.006-.051-1.49h.822v1.281h.027c.3-.745.863-1.438 1.713-1.438.196 0 .432.039.575.079v.863a2.148 2.148 0 0 0-.602-.079c-1.307 0-1.66 1.464-1.66 2.668v3.295h-.824zm0 0M137.648 10.707h1.06v1.098h-1.06zm0 0M141.284 10.707h1.06v1.098h-1.06zm0 0M144.92 10.707h1.059v1.098h-1.06zm0 0" fill="#0f4f8c"/></svg>