<svg xmlns="http://www.w3.org/2000/svg" xmlns:xlink="http://www.w3.org/1999/xlink" width="200" height="100" viewBox="0 0 200 100"><g transform="translate(0 -417.625)"><text style="line-height:125%;-inkscape-font-specification:Arial" x="-.1" transform="translate(.001)" font-weight="400" font-size="9.831" font-family="Arial" letter-spacing="0" word-spacing="0" fill="#289c28" stroke-width=".198"><textPath xlink:href="#a"><tspan style="-inkscape-font-specification:'Times New Roman, '" font-size="8.58" font-family="Times New Roman">aus eigener Schlachtung und Herstellung</tspan></textPath></text><path d="M32.675 495.775c47.171 17.663 89.86 17.99 135.222 0" id="a" fill="none" fill-rule="evenodd" stroke-width=".535"/><ellipse ry="45.842" rx="97.148" cy="467.625" cx="100" fill="none" stroke="#000" stroke-width=".511" stroke-linecap="round" stroke-linejoin="round"/><text y="465.534" x="54.868" style="line-height:125%;-inkscape-font-specification:Arial" transform="scale(.99986 1.00014)" font-weight="400" font-size="9.831" font-family="Arial" letter-spacing="0" word-spacing="0" fill="#259a25" stroke-width=".534"><tspan style="-inkscape-font-specification:'Times New Roman, Bold'" y="465.534" x="54.868" font-weight="700" font-size="10.486" font-family="Times New Roman" letter-spacing=".293">Feinkost - Metzgerei</tspan></text><path d="M32.113 496.388c47.172 17.663 89.86 17.99 135.222 0" fill="none"/><path d="M31.878 453.907v6.453q0 1.597.17 1.942.183.339.69.48.522.122 1.398-.164l.691-.226v.569l-10.89 3.559v-.569l.692-.225q.906-.296 1.459-.8.4-.345.614-.938.17-.424.17-1.991v-13.704q0-1.598-.17-1.942-.169-.344-.69-.465-.508-.142-1.383.144l-.691.226v-.569l10.89-3.559v.568l-.692.226q-.906.297-1.46.8-.398.346-.629.943-.169.424-.169 1.991v5.9l7.357-2.405v-5.9q0-1.597-.169-1.941-.169-.345-.69-.466-.523-.136-1.398.15l-.676.22v-.568l10.874-3.554v.568l-.676.22q-.921.302-1.46.8-.398.346-.629.944-.169.424-.169 1.99v13.705q0 1.597.17 1.942.168.344.69.48.523.121 1.398-.164l.676-.222v.569l-10.874 3.554v-.568l.676-.221q.921-.301 1.459-.8.399-.345.63-.943.168-.424.168-1.99v-6.453zM59.878 435.377q4.976-1.506 8.078.758 3.118 2.26 3.118 6.9 0 3.963-2.319 7.59-3.072 4.81-8.678 6.3-5.621 1.493-8.693-1.502-2.427-2.366-2.427-6.5 0-4.639 3.149-8.563 3.164-3.944 7.772-4.983zm.184.934q-2.857.76-4.347 4.074-1.213 2.719-1.213 7.205 0 5.33 1.874 7.383 1.305 1.436 3.655.812 1.582-.42 2.642-1.47 1.351-1.342 2.104-3.693.753-2.366.753-5.838 0-4.133-.768-5.972-.768-1.855-1.966-2.382-1.183-.53-2.734-.119zm2.841-7.59q.86-.23 1.444.215.599.44.599 1.285t-.599 1.603q-.599.758-1.444.983-.845.224-1.444-.216t-.599-1.285q0-.845.6-1.603.598-.759 1.443-.983zm-5.744 1.525q.86-.229 1.444.215.599.44.599 1.285t-.6 1.604q-.598.758-1.443.982-.845.225-1.444-.215t-.599-1.285q0-.845.6-1.604.598-.758 1.443-.982zM80.535 443.485v5.838q0 1.69.2 2.12.215.413.737.633.522.22 1.95.109v.568l-10.658.836v-.569q1.443-.113 1.95-.414.522-.317.722-.763.215-.447.215-2.137v-13.52q0-1.69-.215-2.103-.2-.43-.722-.65-.522-.22-1.95-.108v-.569l9.676-.758q3.778-.296 5.529.089 1.75.385 2.857 1.712 1.106 1.31 1.106 3.2 0 2.305-1.66 3.94-1.059 1.036-2.963 1.662l5.007 6.659q.983 1.29 1.397 1.596.63.427 1.46.408v.568l-6.559.514-6.712-8.968zm0-10.216v9.125l.876-.068q2.135-.168 3.194-.635 1.06-.482 1.66-1.543.614-1.078.614-2.722 0-2.38-1.122-3.43-1.106-1.05-3.578-.856zM124.984 431.91v.569q-.584.024-.983.286-.4.262-.707.82-.092.18-.967 2.345l-6.528 16.95-.599-.02-5.16-13.618-5.683 13.218-.568-.021-6.85-17.26q-1.045-2.603-1.46-3.156-.414-.553-1.397-.682v-.568l9.03.332v.569q-1.09-.011-1.458.284-.353.279-.353.724 0 .584.752 2.502l4.086 10.259 3.271-7.776-.86-2.244q-.707-1.839-1.09-2.452-.385-.629-.891-.909-.492-.279-1.46-.314v-.569l10.091.371v.569q-1.06-.025-1.52.113-.323.095-.507.35-.184.239-.184.561 0 .354.69 2.192l3.794 10.003 3.395-8.801q.537-1.363.66-1.866.123-.502.123-.932 0-.63-.43-1-.43-.384-1.643-.46v-.568zM137.398 454.16v.57l-10.89-1.577v-.568l.692.1q.906.13 1.459-.112.4-.157.614-.648.169-.345.169-1.912V436.31q0-1.598-.169-2.022-.169-.424-.691-.792-.507-.38-1.382-.507l-.691-.1v-.568l10.889 1.576v.568l-.691-.1q-.906-.13-1.46.112-.399.157-.629.646-.169.344-.169 1.911v13.704q0 1.598.169 2.022.184.426.691.806.522.368 1.398.495zM157.392 437.582v7.22l-.562-.146q-.635-2.993-2.365-4.952-1.73-1.958-3.92-2.532-1.832-.479-3.36.243-1.528.721-2.234 2.35-.908 2.081-.908 4.924 0 2.796.663 5.274.663 2.462 2.076 4.015 1.413 1.538 3.661 2.126 1.846.483 3.374.022 1.542-.457 3.243-2.116v1.797q-1.643 1.398-3.43 1.76-1.774.35-4.152-.272-3.129-.82-5.565-2.794-2.422-1.97-3.748-4.821-1.312-2.848-1.312-5.675 0-2.98 1.456-5.272 1.47-2.289 3.95-3.114 2.494-.823 5.29-.09 2.062.54 4.354 2.092 1.326.9 1.687.994.461.121.793-.146.346-.278.447-1.035zM172.292 450.535l7.327 11.578q1.55 2.445 2.672 3.504.814.759 1.72 1.057v.568l-10.843-3.56v-.569q1.029.246 1.32.111.308-.13.308-.467 0-.645-1.413-2.891l-4.777-7.576-.768.393v5.685q0 1.628.185 2.088.184.46.706.924.522.448 1.674.826v.568l-10.505-3.449v-.568l.69.227q.907.297 1.46.156.4-.084.614-.536.17-.313.17-1.88V443.02q0-1.598-.17-2.052-.169-.455-.69-.919-.508-.473-1.383-.76l-.691-.228v-.568l10.367 3.403v.569q-1.06-.348-1.613-.222-.399.084-.63.515-.184.324-.184 1.906v6.483l7.726-3.716q1.613-.776 1.613-1.56 0-.584-.66-1.139-.339-.28-1.675-.764v-.569l8.125 2.668v.568q-1.09-.281-1.72-.165-.615.105-2.857 1.182z" style="line-height:125%;-inkscape-font-specification:'Times New Roman, Bold'" font-weight="700" font-size="11.642" font-family="Times New Roman" letter-spacing="0" word-spacing="0" fill="#fa0100"/><text y="474.097" x="66.799" style="line-height:125%;-inkscape-font-specification:Arial" transform="scale(.99986 1.00014)" font-weight="400" font-size="9.831" font-family="Arial" letter-spacing="0" word-spacing="0" fill="#fa0100" stroke-width=".534"><tspan style="-inkscape-font-specification:'Times New Roman, Italic'" y="474.097" x="66.799" font-style="italic" font-size="8.389" font-family="Times New Roman">Imbiß &amp; Partyservice</tspan></text><text style="line-height:125%;-inkscape-font-specification:Arial" x="56.796" y="481.827" transform="scale(.99986 1.00014)" font-weight="400" font-size="9.831" font-family="Arial" letter-spacing="0" word-spacing="0" fill="#fa0100" stroke-width=".534"><tspan x="56.796" y="481.827" style="-inkscape-font-specification:'Times New Roman, Italic'" font-style="italic" font-size="8.389" font-family="Times New Roman">Individuelle Geschenkideen</tspan></text><text y="488.72" x="53.965" style="line-height:125%;-inkscape-font-specification:Arial" transform="scale(.99986 1.00014)" font-weight="400" font-size="9.831" font-family="Arial" letter-spacing="0" word-spacing="0" fill="#fa0100" stroke-width=".534"><tspan style="-inkscape-font-specification:'Times New Roman, Italic'" y="488.72" x="53.965" font-style="italic" font-size="8.389" font-family="Times New Roman">Hausmacher Wurstkonserven</tspan></text></g></svg>