<svg xmlns="http://www.w3.org/2000/svg" width="200" height="100" viewBox="0 0 187.50001 93.75"><defs><clipPath id="a"><path fill="#ffc000" d="M-2928.572 815.219h2125.714v1405.714h-2125.714z"/></clipPath></defs><path d="M-1350.32 1254.011c-39.703-2.157-76.116-15.72-105.695-39.37-32.087-25.657-54.15-62.42-62.453-104.061-2.71-13.588-3.722-24.155-3.742-39.06-.016-11.463.287-16.563 1.579-26.564 4.088-31.647 16.028-61.417 34.466-85.936 9.546-12.695 22-25.122 34.81-34.737 17.815-13.37 39.566-23.806 61.602-29.554 40.33-10.52 83.895-8.004 121.999 7.047 5.363 2.118 17.439 7.952 22.696 10.964 20.293 11.625 39.053 28.286 52.903 46.983 18.938 25.566 30.688 55.76 34.365 88.306 3.71 32.843-.403 65.273-12.02 94.77-2.815 7.149-8.787 19.169-12.95 26.064-24.998 41.419-65.279 70.077-113.614 80.831-17.057 3.795-35.857 5.3-53.946 4.317zm19.566-28.058c31.73-1.728 60.034-11.563 83.7-29.086 6.403-4.74 10.128-7.982 16.388-14.261 24.298-24.375 38.734-55.826 42.89-93.446.78-7.067.896-27.451.194-34.2-2.315-22.236-7.297-39.92-16.33-57.96-22.15-44.237-63.53-73.065-114.186-79.551-38.719-4.958-77.54 3.633-107.876 23.873-28.59 19.075-49.42 47.888-59.246 81.955-4.633 16.06-6.447 29.534-6.447 47.883 0 11.874.282 16.278 1.636 25.54 7.386 50.543 36.252 91.571 79.748 113.348 23.691 11.86 51.535 17.43 79.529 15.905zm-105.207-134.004c.099-69.51.151-75.134.724-77.227 1.684-6.152 4.782-9.26 10.914-10.945 2.717-.747 3.584-.784 18.689-.81l15.84-.027.09 81.99.092 81.99h-46.455l.106-74.97zm72.987-15.144c0-63.55-.116-90.74-.393-92.238-.5-2.704-1.39-4.442-3-5.856-1.694-1.487-3.96-2.111-8.8-2.425l-4.007-.26v-20.103l24.93.137c26.79.148 26.578.134 30.735 2.094 3.538 1.667 5.34 4.072 6.871 9.168.61 2.025.648 7.306.738 100.867l.096 98.73h-47.17v-90.114zm73.889 8.124l.091-81.99 15.84.027c15.105.026 15.972.064 18.689.81 6.05 1.663 9.024 4.589 10.882 10.703.617 2.03.656 6.019.756 77.29l.106 75.15h-46.454l.09-81.99zm-765.294 92.414c-15.183-1.984-24.896-9.868-29.489-23.94-2.36-7.227-3.49-18.692-2.775-28.125.735-9.676 2.21-15.576 5.656-22.619 4.807-9.824 12.231-16.438 24.387-21.726 10.607-4.614 23.62-7.805 49.363-12.106 6.51-1.087 12.08-2.18 12.38-2.428.455-.378.508-1.234.327-5.315-.12-2.676-.47-5.902-.779-7.17-1.52-6.23-4.917-9.698-11.165-11.4-2.935-.8-11.002-1.063-16.646-.544-12.478 1.147-20.108 3.003-34.565 8.405-4.802 1.794-8.824 3.17-8.937 3.057-.246-.247-10.923-29.025-11.046-29.776-.111-.674 1.754-1.7 8.896-4.895 14.346-6.417 30.515-10.49 49.518-12.472 6.887-.718 26.004-.608 31.68.183 10.905 1.52 18.794 4.323 24.454 8.693 8.515 6.572 12.86 15.812 15.023 31.942.517 3.86.623 10.801.816 53.752.25 55.631-.012 51.018 3.102 54.48 2.125 2.365 4.929 3.592 9.357 4.095l3.421.388-.097 8.139-.097 8.138h-25.2c-22.83 0-25.388-.058-27.2-.62-3.864-1.197-6.123-3.308-7.6-7.1-.619-1.592-.81-3.007-.94-6.94-.111-3.417-.304-5.057-.624-5.323-.35-.29-1.336.31-4.01 2.436-14.776 11.754-25.438 16.818-39.214 18.623-4.377.574-14.187.665-17.997.168zm37.465-34.697c6.671-1.959 13.748-6.114 19.353-11.365l3.154-2.953-.094-16.795-.093-16.794-2.16.058c-2.788.075-13.841 2.293-19.62 3.937-5.762 1.64-12.136 4.12-15.12 5.886-1.287.762-3.242 2.333-4.345 3.492-3.795 3.99-5.1 8.418-5.13 17.407-.025 7.927 1 11.686 4.012 14.697 2.768 2.768 6.03 3.7 12.303 3.514 3.525-.104 5.202-.339 7.74-1.084zm-555.446 33.33c-.103-.168 13.623-41.762 30.502-92.43 16.88-50.67 31.082-93.747 31.561-95.727 1.011-4.18 1.199-9.602.41-11.837-.272-.768-1.071-2.035-1.776-2.816-2.597-2.874-6.102-3.874-13.617-3.881-3.871 0-5.184-.124-5.497-.5-.288-.348-.382-3.006-.314-8.91l.097-8.416h44.28c41.296 0 44.438.043 46.62.64 5.875 1.604 9.337 4.505 12.062 10.107 1.847 3.797-.567-4.563 37.058 128.366 13.194 46.614 23.907 84.967 23.806 85.23-.262.683-53.939.71-54.464.027-.19-.248-3.712-12.276-7.826-26.73-4.114-14.454-7.628-26.564-7.81-26.91-.312-.593-2.298-.63-33.935-.63-26.449 0-33.68.096-33.965.45-.199.247-3.88 12.276-8.18 26.73-4.301 14.454-7.971 26.563-8.156 26.91-.314.59-1.902.63-25.501.63-13.842 0-25.251-.137-25.354-.304zm126.81-90.17c.293-.353-2.61-11.633-11.447-44.486-6.512-24.207-11.94-44.273-12.062-44.59-.194-.505-.288-.513-.744-.057-.287.287-6.525 20.338-13.863 44.558-10.511 34.694-13.252 44.142-12.92 44.542.604.728 50.432.762 51.036.034zm98.506 90.026c-.093-.249-.21-44.76-.26-98.913l-.09-98.46-.834-2.066c-1.84-4.554-5.424-6.674-11.946-7.066l-3.78-.228-.096-8.91-.096-8.91h26.237c16.119 0 26.975.14 28.15.363 5.965 1.131 10.014 5.13 11.127 10.992.3 1.575.38 30.252.303 107.805l-.104 105.66-24.22.093c-19.187.073-24.256 0-24.39-.36zm90.72 0c-.093-.249-.21-44.679-.26-98.733-.088-96.584-.102-98.314-.796-100.26-.918-2.574-3.951-5.663-6.494-6.61-1.119-.418-3.195-.742-5.485-.858-2.29-.115-3.826-.355-4.057-.634-.239-.287-.337-3.46-.275-8.863l.097-8.415 26.394-.092c22.397-.078 26.746-.01 28.718.447 4.215.977 6.973 2.886 8.81 6.098 2.306 4.03 2.164-3.72 2.056 112.528l-.098 105.66-24.22.093c-19.187.073-24.255 0-24.39-.36zm91.8 0c-.093-.249-.21-32.124-.26-70.833-.088-68.504-.109-70.428-.784-72.177-.42-1.091-1.424-2.527-2.555-3.658-2.269-2.27-4.976-3.232-10.096-3.592l-3.408-.24.096-8.676.096-8.677h53.28l2.609.82c5.14 1.616 8.606 5.933 9.458 11.78.243 1.668.335 28.387.27 79.02l-.097 76.5-24.22.093c-19.187.073-24.255 0-24.39-.36zm261.432.21c-.133-.133-.247-30.955-.253-68.493-.01-40.915-.148-69.304-.353-70.882-.897-6.907-4.58-10.168-12.362-10.946-2.01-.2-3.857-.422-4.104-.492-.633-.179-.65-16.366-.018-16.998.538-.538 45.346-.6 50.8-.07 9.29.904 12.128 5.327 12.128 18.903 0 2.972.144 4.902.378 5.046.41.254.504.184 6.518-4.908 18.853-15.961 33.302-21.764 52.504-21.086 12.074.426 19.487 3.079 26.142 9.356 7.075 6.672 10.202 14.438 11.695 29.047.3 2.936.468 22.583.578 67.525.134 54.695.085 63.443-.36 63.813-.389.323-6.37.405-24.415.335l-23.9-.093-.197-57.78c-.177-51.988-.256-58.023-.79-60.202-2.15-8.79-6.227-11.469-16.706-10.982-9.612.447-17.146 4.053-27.487 13.154l-1.62 1.426-.18 57.192-.18 57.192-23.788.093c-13.083.05-23.896-.017-24.03-.15zm171.718 0c-.132-.131-.24-7.923-.24-17.314v-17.076l16.805-23.454c62.885-87.765 56.08-78.157 55.745-78.7-.318-.514-40.555-.509-43.727.01-4.646.755-7.486 2.721-9.068 6.28-.611 1.376-.838 2.71-.964 5.67l-.164 3.87h-17.59l.123-17.91c.12-17.418.146-17.977.929-20.318 1.505-4.497 4.413-7.096 9.462-8.455 2.13-.574 6.586-.632 57.569-.745 30.393-.068 55.624-.032 56.07.08l.81.201v34.02l-3.719 5.213-20.276 28.433-32.334 45.344c-8.676 12.167-15.793 22.373-15.813 22.68-.034.498 3.95.575 37.762.736l37.8.18.094 15.259c.068 10.965-.021 15.396-.314 15.75-.342.412-10.78.491-64.564.491-35.286 0-64.264-.108-64.396-.24zm-420.28-182.111c-10.688-1.87-17.97-7.958-20.046-16.76-.72-3.06-.72-9.62 0-12.402 2.654-10.223 10.819-15.97 24.224-17.051 9.518-.768 17.999.955 23.85 4.845 4.226 2.81 7.274 7.226 8.462 12.26.832 3.525.75 9.291-.18 12.857-1.033 3.95-2.303 6.123-5.425 9.282-3.148 3.184-6.838 5.19-11.887 6.463-4.029 1.015-14.496 1.294-19 .506z" clip-path="url(#a)" transform="translate(277.326 -83.211) scale(.09807)" fill="#00549a"/><text style="line-height:125%" x="-2798.885" y="2182.35" font-weight="400" font-size="6.429" font-family="sans-serif" letter-spacing="0" word-spacing="0" stroke-width=".468" transform="translate(2892.83 -2126.081)"><tspan x="-2798.885" y="2182.35" style="line-height:126.99999809%;text-align:center" font-size="13.144" text-anchor="middle">Versicherungsbüro</tspan><tspan x="-2798.885" y="2215.013" style="line-height:226.50001049%;-inkscape-font-specification:'Arial Bold';text-align:center" font-weight="700" font-size="19.949" font-family="Arial" text-anchor="middle">HARALD SCHMIDT</tspan></text></svg>