<svg xmlns="http://www.w3.org/2000/svg" id="svg8" width="200" height="100" viewBox="0 0 200 100"><style id="style2">.st0{fill:#cf0}.st1{fill:#cc0001}.st2{fill:#66fdcd}.st3{fill:#ffcc01}.st4{fill:#ffbe00}.st5{fill:#4fffd1}.st6{fill:#bceb00}.st7{fill:none;stroke:#525252;stroke-width:.78739;stroke-linecap:round;stroke-linejoin:round}.st8{fill:#fe3c00}.st9{fill:#84a400}.st10{fill:#00cb97}.st11{fill:#fe6400}.st12{font-family:&apos;Arial-BoldMT&apos;}.st13{font-size:17.33299px}.st14{fill:#fff3f3}.st15{fill:#f60}.st16{fill:#f6eded}.st17{fill:#ffcb00}.st18{fill:#fcfcfc}.st19{fill:#fff}.st20{fill:#ec1b24}</style><g id="layer1" transform="translate(0 -417.625)"><path id="path4702" class="st0" d="M0 517.625h200v-29.579C129.432 477.276 38.417 479.734.003 494.2z" fill="#cf0" stroke-width=".5"/><path id="path4704" class="st1" d="M0 417.598l200 .054v67.883c-53.903-8.748-158.084-9.273-199.997 5.817z" fill="#cc0001" stroke-width=".5"/><path id="path4702-3" class="st2" d="M.003 494.199c38.414-14.465 129.428-16.922 199.996-6.153v-2.512c-53.912-8.75-158.084-9.273-199.996 5.816z" fill="#66fdcd" stroke-width=".5"/><path id="path4496-9" class="st3" d="M33.442 442.401a28.022 28.022 0 0 0-13.483 3.493c9.933 12.565 6.27 30.55.826 49.241 4.874-11.379 13.891-14.312 36.247-9.647a28.016 28.016 0 0 0 1.631-2.925c-22.263 1.679-41.62-21.968-15.791-38.498a28.016 28.016 0 0 0-9.43-1.664z" fill="#ffcc01" stroke-width=".5"/><path id="circle4767-6" class="st4" d="M20.752 495.394a28.015 28.015 0 0 1-.777-49.506c10.002 12.62 6.262 30.715.777 49.506z" fill="#ffbe00" stroke-width=".5"/><path id="circle4770-2" class="st5" d="M42.872 444.065c15.651 5.615 22.983 23.557 15.786 38.516-22.283 1.699-41.673-21.98-15.786-38.516z" fill="#4fffd1" stroke-width=".5"/><path id="circle4773-9" class="st6" d="M57.025 485.512c-7.77 12.17-23.518 16.44-36.373 9.865 4.853-11.575 13.85-14.569 36.373-9.865z" fill="#bceb00" stroke-width=".5"/><ellipse id="path4496-5" class="st7" cx="33.411" cy="470.435" rx="28.017" ry="28.015" fill="none" stroke="#525252" stroke-width=".394" stroke-linecap="round" stroke-linejoin="round"/><path id="circle4767-6-2" class="st8" d="M20.057 446.02c-8.62 4.718-14.47 13.87-14.47 24.385 0 10.799 6.174 20.154 15.178 24.75.095-.325.185-.647.279-.972-8.59-4.459-14.458-13.427-14.458-23.778 0-10.197 5.692-19.057 14.073-23.581-.195-.27-.395-.538-.602-.804z" fill="#fe3c00" stroke-width=".5"/><path id="circle4773-9-6" class="st9" d="M55.738 485.252c-4.798 7.21-12.995 11.96-22.31 11.96-4.415 0-8.714-1.14-12.384-3.029-.14.3-.183.64-.28.973a27.643 27.643 0 0 0 12.664 3.057c9.801 0 18.414-5.087 23.36-12.757-.362-.075-.695-.133-1.05-.204z" fill="#84a400" stroke-width=".5"/><path id="circle4770-2-6" class="st10" d="M42.611 444.195c-.358.233-.688.47-1.029.705 15.652 5.015 23.253 22.965 15.683 37.73.38-.011.76-.023 1.142-.046 7.3-14.977-.193-32.9-15.796-38.389z" fill="#00cb97" stroke-width=".5"/><path id="path4496-9-9" class="st11" d="M33.386 442.62a27.688 27.688 0 0 0-13.348 3.41c.207.266.406.535.601.805a26.716 26.716 0 0 1 12.747-3.214c2.86 0 5.613.451 8.196 1.28.341-.236.67-.473 1.03-.706a27.741 27.741 0 0 0-9.226-1.574zm25.021 39.963c-.382.024-.762.036-1.142.047a26.8 26.8 0 0 1-1.53 2.622c.355.07.689.128 1.051.204a27.775 27.775 0 0 0 1.621-2.872z" fill="#fe6400" stroke-width=".5"/><path d="M58.127 473.724l-.003.015-.004.01.007-.025z" class="st14" id="path4766" fill="#fff3f3" stroke-width=".5"/><path d="M57.979 474.067l-.004.008-.005.005.009-.013z" class="st14" id="path4762" fill="#fff3f3" stroke-width=".5"/><path d="M73.566 465.47c-1.57 1.445-.506 4.036 1.733 4.036 2.156 0 3.33-2.552 1.719-4.036a2.536 2.536 0 0 0-3.452 0z" class="st15" id="path4844" fill="#f60" stroke-width=".5" stroke="#fff"/><path d="M72.644 473.104c0 3.204-.365 2.957-.23 8.617 0 0 .053 1.624.053 2.497 0 2.147 2.542 2.736 3.78 1.553.917-.903.578-1.881.578-4.069-.133-5.635.232-5.38.232-8.598 0-2.862-4.413-2.864-4.413 0z" class="st15" id="path4840" fill="#f60" stroke-width=".5" stroke="#fff"/><path d="M88.092 475.208c-1.65.975-2.063 1.106-4.555 2.191.848-1.971 2.087-2.971 4.555-2.191zm-1.578-4.214c-8.837 0-11.516 15.593.366 15.593 1.465 0 2.859-.282 4.169-.848 1.288-.56 2.469-1.439 2.469-2.85 0-1.48-1.261-2.458-3.721-.995-.783.467-1.748.707-2.917.707-1.943 0-2.528-.614-3.028-1.03 5.664-2.521 8.973-3.547 8.973-6.333 0-1.53-.786-2.728-2.237-3.444h-.001c-1.101-.54-2.46-.8-4.073-.8z" class="st15" id="path4724" fill="#f60" stroke-width=".5" stroke="#fff"/><path d="M97.932 463.33c-1.33 0-2.247.906-2.247 2.095 0 20.397-.246 19.65.628 20.507.883.866 2.527.832 3.252-.173.734-1.017.533-.755.533-20.334 0-1.26-.947-2.096-2.166-2.096z" class="st15" id="path4836" fill="#f60" stroke-width=".5" stroke="#fff"/><path d="M104.212 471.049c-.596 0-1.141.201-1.578.589-.87.77-.738 1.769-.475 3.473.417 2.689 1.552 11.964 4.201 11.886.816-.03 1.487-.413 1.92-1.07.758-.66.572-1.006 2.671-6.08.243 1.515.482 2.978.679 3.655v.002c1.435 4.838 4.124 3.772 5.017 2.536v-.003c.632-.888 1.093-1.76 1.378-2.619v-.001c.963-2.927 1.92-6.182 2.873-9.764.677-2.59-3.585-3.68-4.228-1.151-.929 3.647-1.31 5.138-1.752 6.85-.962-5.403-1.031-8.249-3.447-8.249-2.313 0-2.335 2.056-4.287 7.628-.795-5.144-.366-7.682-2.972-7.682z" class="st15" id="path4832" fill="#f60" stroke-width=".5" stroke="#fff"/><path d="M129.985 474.94c.154 0 .335.084.478.14-.229 1.383-.39 2.087.183 6.759-1.316 1.014-3.441 1.467-4.36.175-1.726-2.467.139-7.075 3.7-7.075zm-.176-3.932c-4.66 0-8.541 3.685-8.541 8.323 0 5.069 2.501 7.379 6.883 7.379 1.17 0 2.7-.67 3.755-1.166.52.506 1.351 1.317 2.05 1.317 1.317 0 2.53-1.2 1.995-2.553a23.283 23.283 0 0 0-.404-.938h.001c-.578-1.286-.612-1.389-.612-1.389-.45-1.412-.47-5.303-.076-6.895l-.069.134c.725-.857.676-2.347-1.86-3.447v.001c-1.161-.504-2.198-.766-3.122-.766z" class="st15" id="path4730" fill="#f60" stroke-width=".5" stroke="#fff"/><path d="M146.406 470.87c-1.875 0-3.59.598-5.15 1.665-.74-2.22-4.07-1.79-4.07.705 0 11.81-.351 12.05.463 12.973.756.89 2.311.865 3.127.049.835-.799.633-1.028.619-8.317.782-1.546 2.012-2.46 3.737-2.83.061 1.253-.1 3.069 2.09 3.069 2.158 0 2.234-1.918 2.234-3.342 0-2.263-.795-3.972-3.05-3.972z" class="st15" id="path4824" fill="#f60" stroke-width=".5" stroke="#fff"/><path d="M159.158 475.208c-1.656.979-2.066 1.107-4.553 2.19.836-1.944 2.045-2.982 4.553-2.19zm-1.578-4.214c-2.36 0-4.29.944-5.686 2.786h-.001c-1.252 1.658-1.874 3.692-1.874 6.058 0 6.457 7.37 7.94 12.096 5.901h.001c4.198-1.823 2.665-6.173-1.252-3.845-1.443.86-3.6.88-4.919.373-.404-.156-.71-.431-1.027-.695l4.047-1.802c.427-.19 2.784-1.262 3.114-1.592 2.86-1.99 2.078-5.15-.424-6.384-1.102-.54-2.462-.8-4.075-.8z" class="st15" id="path4734" fill="#f60" stroke-width=".5" stroke="#fff"/><path d="M168.374 470.35a2.31 2.31 0 0 0-1.582.592c-1.178 1.068-.262 1.613-.746 7.569-.405 4.974-.028 4.448-.028 5.994 0 2.03 2.487 2.789 3.78 1.524 1.257-1.176.217-2.5.548-4.999v-.002c.062-.483.099-.863.119-1.17.648-2.142 2.2-4.946 4.013-4.946.442 0 .104 2.632.104 4.364 0 1.585.168 2.61.587 5.711v-.007c.264 2.294 2.712 2.33 3.76 1.354.813-.757.8-1.75.346-4.31v.003c-.587-3.465.147-6.596-.949-9.032v-.001c-1.13-2.5-4.524-3.5-7.793-.599-.185-1.237-.779-2.045-2.159-2.045z" class="st15" id="path4828" fill="#f60" stroke-width=".5" stroke="#fff"/><path d="M133.312 460.908l-.043.043-.02-.02.063-.023z" class="st16" id="path5370" fill="#f6eded" stroke-width=".5"/><path d="M143.407 458.36a.988.988 0 0 0 .346-.063z" class="st16" id="path5411" fill="#f6eded" stroke-width=".5"/><path d="M107.695 448.544c-1.058 0-1.817.807-1.817 1.773 0 15.253-1.17 15.82-.008 16.96 1.102 1.081 3.11.374 3.11-1.26 0-1.697.195-3.316.257-4.974 4.341-.819 6.05-1.164 8.213-1.29-.017.573-.041 1.074.052 3.352l.001.002c.053 1.11.079 1.94.079 2.487 0 2.231 3.736 2.385 3.736-.022 0-2.965-.43-2.687-.137-8.184.186-3.5.05-2.797.17-4.193v.005c.124-1.24 0-1.345.286-2.4 0 0 .055-.187.055-.415 0-1.523-2.276-2.968-3.53-.195v.001c-.772 1.727-.485 2.02-.697 6-2.651.128-4.896.633-8.198 1.257.168-6.909.591-7.536-.28-8.392a1.806 1.806 0 0 0-1.292-.512z" class="st17" id="path5341" fill="#ffcb00" stroke-width=".5" stroke="#fff"/><path d="M124.65 454.117c-1.001 0-1.628.527-1.802 1.518-.814 4.56.101 8.008.101 8.588.512 3.241 4.254 3.791 7.38 2.707 1.052 1.564 3.316.718 3.316-.924a8.05 8.05 0 0 0-.047-.735l.001.007c-.24-3.379.097-8.07.159-9.317.11-2.052-3.37-2.624-3.677-.175-.32 2.53-.188 4.881-.184 7.753-.981.222-2.383.508-3.315.137-.354-1.387-.555-4.084-.243-6.193v.003c.197-1.25.39-2.193-.385-2.878a1.907 1.907 0 0 0-1.304-.491z" class="st17" id="path5345" fill="#ffcb00" stroke-width=".5" stroke="#fff"/><path d="M139.483 450.337c-1.018 0-1.862.739-1.862 1.761 0 .426.048 1.077.087 2.042-1.472-.127-2.265-.291-2.947.414-.813.84-.825 2.813 1.154 3.036l.002.001a43.17 43.17 0 0 0 1.894.162c.344 7.728.127 5.766.127 8.127 0 .578.386 1.158.597 1.238.75.641 3.29 1.346 3.162-3.107-.028-1.023.022-1.089-.207-6.327 1.572-.19 2.395.274 3.231-.546.344-.338.526-.787.526-1.284 0-1.352-1.09-1.653-1.09-1.653-.676-.243-1.978-.2-2.736-.11.044-1.764-.125-3.754-1.938-3.754z" class="st17" id="path5349" fill="#ffcb00" stroke-width=".5" stroke="#fff"/><path d="M147.773 453.82c-1.014 0-1.862.711-1.862 1.749 0 .625.08 1.645.08 2.032 0 1.919-.318 4.15-.318 6.098 0 .566.135 1.442.135 1.93 0 2.383 3.692 2.352 3.692 0 0-.554-.148-1.322-.148-1.93 0-3.13 1.906-6.072 3.513-6.072.191 0 .213.48.213.671 0 3.367-.519 1.187.365 7.734v-.006c.129 1.119.769 1.583 1.823 1.626.039 0 .06-.006.088-.014 2.674-.108 1.513-3.453 1.513-4.079-.51-3.01.15-5.438-.792-7.533-.942-2.081-3.769-2.926-6.501-.498-.156-1.047-.657-1.708-1.8-1.708z" class="st17" id="path5353" fill="#ffcb00" stroke-width=".5" stroke="#fff"/><path d="M165.104 457.931c-1.398.81-1.432.787-3.687 1.77.925-2.15 2.067-2.266 3.687-1.77zm-1.204-3.575c-7.376 0-9.603 13.011.306 13.011 2.405 0 4.297-.939 4.993-1.719 1.212-1.36.42-3.97-2.559-2.199-.653.39-1.458.59-2.434.59-1.55 0-2.026-.442-2.526-.857l3.374-1.502c.356-.16 2.322-1.053 2.597-1.328 2.406-1.675 1.718-4.306-.353-5.328v-.001c-.92-.45-2.053-.667-3.398-.667z" class="st17" id="path5322" fill="#ffcb00" stroke-width=".5" stroke="#fff"/><path d="M178.711 454.253c-1.584 0-3.034.505-4.35 1.418-.17-.5-.352-1.212-1.604-1.212-1.117 0-1.738.796-1.738 1.772 0 9.934-.293 10.052.386 10.823.632.745 1.928.722 2.608.042.696-.666.528-.861.515-6.937.653-1.29 1.679-2.054 3.12-2.364l.04.8c0 2.157 2.314 2.035 3.038 1.234.555-.616.527-1.479.527-2.262 0-1.874-.653-3.314-2.542-3.314z" class="st17" id="path5365" fill="#ffcb00" stroke-width=".5" stroke="#fff"/><g transform="matrix(.49829 0 0 .50172 -316.518 294.724)" id="text4500-1-4-9-0" stroke="#fff"><path d="M683.937 350.504c18.103 8.06 38.346-1.519 38.346 13.37 0 8.716-33.245 18.882-39.178 6.105l-.004-.006c-3.46-7.57-11.78-6.906-15.238-3.09-5.72 6.185-.18 17.11 4.854 19.627 12.915 9.989 37.548 7.134 51.558.817h.002c11.084-5.014 16.967-12.764 16.967-22.739 0-16.254-11.706-25.547-28.398-26.486-10.679-.589-20.813-.2-20.813-4.78 0-4.802 10.772-9.446 18.764-9.51 7.706.004 16.736 5.394 22.178-.716 1.246-1.246 2.324-3.522 2.324-5.957 0-7.009-17.874-10.91-24.508-10.91-25.691-1.428-53.306 31.05-26.854 44.275z" class="st15" id="path4801" fill="#f60"/></g><path d="M77.528 460.26h.001c-.002.007-.002.007 0 0z" class="st19" id="path5567" fill="#fff" stroke-width=".5"/><path d="M84.192 457.47c.003.025.005.039 0 0z" class="st19" id="path5650" fill="#fff" stroke-width=".5"/><path d="M84.191 457.542v.008c-.004.01 0 .003 0-.008z" class="st19" id="path5648" fill="#fff" stroke-width=".5"/><path d="M62.536 457.74c-.375.047-.658.372-.611.747.073.578.85.789 1.236.323v-.001c.399-.474-.02-1.146-.625-1.07z" class="st20" id="path5492" fill="#ec1b24" stroke-width=".25" stroke="#fff"/><path d="M62.21 459.709c-.308.379.16 3.091.22 3.575.074.58.796.695 1.115.302.277-.277.019-.774.019-1.161-.234-1.556-.125-1.504-.24-2.42-.027-.21-.161-.38-.232-.407a.652.652 0 0 0-.883.111z" class="st20" id="path5488" fill="#ec1b24" stroke-width=".25" stroke="#fff"/><path d="M66.542 460.509c.09.755.145 1.189.168 1.333a2.187 2.187 0 0 1-.38.373h-.002c-.524.322-1.348.01-1.435-.684-.096-.754.127-1.255.88-1.35.331 0 .524-.015.77.328zm.328-3.692c-.693.088-.55.728-.417 2.3-1.084-.436-3.001.378-2.723 2.576.22 1.738 2.134 2.341 3.427 1.354.506.49 1.114-.042.942-.582h-.001c-.409-1.26-.433-4.115-.56-5.127-.041-.319-.3-.567-.668-.52z" class="st20" id="path5437" fill="#ec1b24" stroke-width=".25" stroke="#fff"/><path d="M69.93 459.702c.173-.022.288.014.417.036-.16.123-.32.244-.556.39h.002l-.575.34c.13-.406.213-.703.713-.766zm-.14-1.114c-1.344.17-1.975 1.411-1.807 2.747.227 1.794 2.324 1.98 3.601 1.226 1.114-.66.523-1.821-.487-1.034-.4.312-1.145.46-1.678.12 1.508-.913 2.39-1.314 2.291-2.092-.111-.882-1.031-1.08-1.92-.967z" class="st20" id="path5439" fill="#ec1b24" stroke-width=".25" stroke="#fff"/><path d="M73.942 459.195c.172-.021.288.014.417.036-.444.338-.481.345-1.13.73.13-.406.213-.702.713-.766zm-.141-1.114c-.662.084-1.17.417-1.496.982v.001c-.516.9-.547 2.486.548 3.115 1.274.731 3.454-.052 3.333-1.011-.052-.412-.445-.641-1.079-.147-.39.304-1.136.464-1.677.12 1.546-.937 2.389-1.32 2.29-2.093-.053-.429-.316-.738-.748-.887h-.001c-.328-.112-.718-.137-1.17-.08z" class="st20" id="path5441" fill="#ec1b24" stroke-width=".25" stroke="#fff"/><path d="M77.99 457.549c-.598.075-.539.687-.462 1.187-.211.037-.754.096-.926.187H76.6c-.338.179-.375.753.128.92.313.104.61.037.94-.02.002.016.077.566.081.58l.007-.001c.117.73 1.247.537 1.158-.163a42.656 42.656 0 0 1-.038-.336c0-.022-.03-.232-.032-.252.159-.022.741-.08.774-.083.605-.057.701-.817.23-1.024-.337-.147-.755-.02-1.11.026v-.001l-.043.004-.026-.18.001.002c-.045-.338.05-.557-.251-.75a.63.63 0 0 0-.43-.096z" class="st20" id="path5520" fill="#ec1b24" stroke-width=".25" stroke="#fff"/><path d="M82.642 456.879c-.653.082-1.135.195-1.456.349-1.058.504-.944 1.678-.03 2.165.177.093.532.215 1.086.382.848.254.567.509-.13.597-.252.032-.757-.13-1.046-.094-.695.088-.706.96.237 1.185.69.164 1.623.02 2.196-.4.398-.295.58-.697.52-1.165-.1-.802-1.049-1.087-1.822-1.332v-.001c-.131-.042-.615-.198-.52-.298.145-.156.836-.24 1.056-.234.108.198.182.272.495.253.189.08.494-.157.409-.835-.07-.552-.474-.638-.995-.572z" class="st20" id="path5524" fill="#ec1b24" stroke-width=".25" stroke="#fff"/><path d="M86.043 457.803c.572-.073 1.267 2.282-.614 1.973a27.73 27.73 0 0 0-.228-1.453c.135-.15.27-.274.407-.357.146-.092.29-.145.435-.163zm-1.712-1.263a.613.613 0 0 0-.482.366v.001c-.12.26-.074.69-.074.558-.01.033-.007.042-.007.042 0 .02.008.04.007.034.284.986.665 4.468.745 5.096.102.809 1.34.652 1.237-.156l-.182-1.463c.5.027.26-.008.6-.008v-.001c.015-.002.021 0 .042-.012 3.02-.432 1.554-5.946-1.263-4.026-.103-.35-.344-.466-.623-.431z" class="st20" id="path5447" fill="#ec1b24" stroke-width=".25" stroke="#fff"/><path d="M87.728 455.227c.073.584.851.787 1.236.322a.638.638 0 0 0-.12-.942c-.489-.355-1.19.04-1.116.62z" class="st20" id="path5540" fill="#ec1b24" stroke-width=".25" stroke="#fff"/><path d="M88.432 456.22c-.215.028-.391.16-.42.23-.21.259-.1.397-.054 1.306.034.651.073.915.172 1.57.08.5.046 1.318.798 1.223.768-.097.517-.885.437-1.385l.001.001c-.231-1.54-.194-2.72-.471-2.827a.622.622 0 0 0-.463-.117z" class="st20" id="path5536" fill="#ec1b24" stroke-width=".25" stroke="#fff"/><path d="M91.494 456.978c.172-.022.288.013.416.036-.308.234-.306.241-1.129.73.13-.406.213-.703.713-.766zm-.14-1.115c-2.45.31-2.708 4.784.655 4.359 2.466-.312 1.94-2.424.651-1.42-.39.306-1.138.465-1.678.12 1.547-.936 2.39-1.318 2.292-2.092-.055-.429-.317-.737-.75-.887-.328-.112-.718-.137-1.17-.08z" class="st20" id="path5451" fill="#ec1b24" stroke-width=".25" stroke="#fff"/><path d="M93.934 453.355c-.886.111-.547.735.115 5.973a.6.6 0 0 0 .696.536c.819-.103.547-.641-.13-5.999a.569.569 0 0 0-.228-.401v-.001a.621.621 0 0 0-.453-.108z" class="st20" id="path5552" fill="#ec1b24" stroke-width=".25" stroke="#fff"/><path d="M64.519 475.446c1.61 0 1.56 2.275 1.56 3.899 0 2.952-1.777 3.598-4.596 2.76a98.251 98.251 0 0 0-.149-5.207c.91-.79 1.974-1.452 3.185-1.452zm-5.452-5.191c-.882 0-1.713.643-1.856 1.072-.64 1.027-.541 2.39-.541 2.015 0 0 .354.868.354 18.403 0 2.884 4.414 2.877 4.414 0l.012-5.217c5.917 1.073 9.04-2.543 9.04-7.183 0-8.246-5.278-9.377-9.363-7.33-.19-1.155-1.087-1.76-2.06-1.76z" class="st15" id="path4720" fill="#f60" stroke-width=".5" stroke="#fff"/></g></svg>