<svg xmlns="http://www.w3.org/2000/svg" width="240" height="120" viewBox="0 0 63.499998 31.750001"><path d="M.61 29.148c-.122-.228.06-.403.567-.548l.35-.1v-6.21l-.424-.157c-.45-.166-.63-.364-.51-.56.055-.09.605-.112 2.205-.092 2.13.026 2.132.026 2.163.245.026.18-.05.254-.416.41l-.447.193.027 1.29.027 1.29.438.025c.24.014.484-.008.541-.048.096-.069 1.764-2.259 1.923-2.526.046-.077-.045-.167-.261-.257-.386-.162-.477-.275-.394-.493.053-.137.255-.153 1.58-.13l1.52.027v.233c0 .185-.08.26-.389.367-.267.092-.7.444-1.385 1.126-.548.546-.996 1.048-.996 1.117 0 .069.605 1.032 1.346 2.14 1.084 1.624 1.41 2.045 1.677 2.162.411.18.508.547.167.631-.124.03-1.057.043-2.073.028L6 29.284v-.242c0-.17.083-.281.275-.373.164-.079.254-.185.224-.264-.115-.3-1.55-2.483-1.68-2.556-.078-.043-.271-.06-.43-.036l-.29.043.028 1.316.026 1.317.334.112c.38.128.552.34.463.572-.054.14-.306.16-2.151.16-1.952 0-2.096-.013-2.188-.185zm10.304 0c-.122-.228.06-.403.567-.548l.351-.1v-6.215l-.389-.125c-.467-.15-.678-.383-.52-.572.085-.104.832-.13 3.734-.13 1.996 0 3.651.037 3.68.083.027.045.08.68.117 1.41.064 1.272.059 1.326-.122 1.326-.131 0-.406-.314-.888-1.014-.786-1.142-.682-1.09-2.258-1.147l-.73-.026-.026 1.434-.027 1.434.221-.001c.122-.001.392-.03.6-.064.35-.058.396-.105.621-.626.255-.59.442-.748.666-.563.192.16.192 2.93 0 3.09-.218.18-.42.027-.64-.487-.229-.531-.451-.669-1.08-.669h-.383v3.014h.423c.232 0 .823-.029 1.314-.064l.891-.063.752-1.196c.607-.966.795-1.197.98-1.2.226-.005.226-.001.16.846-.12 1.518-.225 2.189-.357 2.272-.07.045-1.8.083-3.843.084-3.548 0-3.72-.008-3.814-.183zm10.56.121c-.126-.126-.066-.416.105-.508.095-.05.335-.123.535-.16l.363-.068V22.02l-.365.064c-.2.036-.43.085-.51.11-.08.025-.456.602-.835 1.283-.509.914-.737 1.238-.875 1.238-.176 0-.184-.077-.155-1.505.018-.86.075-1.558.134-1.629.15-.181 7.688-.179 7.838.003.062.074.117.744.134 1.625.039 2.002-.036 2.023-1.007.295-.393-.699-.78-1.29-.86-1.313a6.874 6.874 0 0 0-.511-.107l-.366-.065.025 3.235.026 3.236.243.072c.134.04.366.1.516.133.23.05.269.104.243.324l-.03.264-2.29.026c-1.26.015-2.322-.003-2.358-.04zm7.13-.125c-.143-.268-.014-.546.76-1.64 1.78-2.52 3.626-5.193 3.679-5.33.052-.136-.06-.146-1.001-.087-.583.037-1.125.087-1.205.111-.08.025-.412.468-.738.984-.98 1.555-1.176 1.51-1.016-.229.058-.635.13-1.231.159-1.325.049-.157.294-.17 3.34-.17 3.592 0 3.61.003 3.408.531-.055.145-.321.577-.592.96-2.182 3.09-3.812 5.463-3.851 5.607-.035.128.111.138 1.144.076.652-.039 1.211-.097 1.244-.13.032-.032.391-.592.798-1.243.526-.843.798-1.192.948-1.214.177-.026.21.016.21.265 0 .709-.225 2.79-.314 2.9-.075.094-.892.122-3.485.122-3.25 0-3.391-.007-3.488-.188zm8.29.03c-.094-.245.09-.449.51-.567l.383-.107.026-3.128.026-3.128-.38-.102c-.43-.116-.643-.32-.56-.537.048-.125.385-.147 2.284-.147 1.969 0 2.236.019 2.29.158.089.233-.088.39-.578.513-.239.06-.435.142-.435.181-.003.377-.006 6.046-.003 6.185.003.172.064.179.95.114.521-.038 1.002-.115 1.068-.17.067-.055.44-.604.828-1.22.707-1.121.878-1.302 1.059-1.12.117.117-.178 2.927-.327 3.112-.076.093-.914.121-3.59.121-3.141 0-3.496-.016-3.551-.159zm8.247.072c-.248-.157-.074-.439.375-.605l.437-.161.026-3.12.025-3.12-.435-.11c-.426-.107-.631-.348-.492-.574.04-.063 1.357-.098 3.697-.098 3.365 0 3.643.013 3.724.17.048.094.118.732.155 1.417l.066 1.247-.224-.031c-.159-.023-.413-.312-.882-1.004-.741-1.094-.67-1.055-2.136-1.15l-.85-.056v1.453c0 1.637-.06 1.534.793 1.393.324-.054.38-.111.6-.62.267-.615.358-.71.59-.621.133.05.155.28.155 1.594 0 1.327-.022 1.542-.158 1.595-.222.085-.401-.093-.631-.628-.207-.481-.388-.579-1.07-.579h-.28v3.014H49c.206 0 .78-.029 1.277-.064l.903-.064.728-1.127c.817-1.265.975-1.436 1.15-1.25.136.148-.103 2.86-.27 3.062-.08.096-.933.123-3.81.122-2.038 0-3.765-.039-3.837-.085zm8.842-.047c-.186-.225-.012-.444.462-.582l.451-.131.026-3.084.026-3.084-.484-.205c-.485-.205-.67-.417-.507-.58.05-.05 1.371-.074 3.04-.055 2.787.031 2.985.045 3.495.25.954.382 1.452 1.045 1.452 1.93 0 .707-.348 1.216-1.084 1.584-.33.164-.678.299-.773.299-.095 0-.2.044-.233.097-.033.054.02.098.116.1.297.003.96.349 1.231.642.142.153.42.688.619 1.19.278.701.417.935.607 1.015.44.187.591.362.483.565-.088.164-.227.182-1.434.182-1.03 0-1.383-.033-1.544-.146-.144-.1-.336-.542-.62-1.422-.503-1.557-.66-1.769-1.315-1.779l-.476-.007v2.51l.334.113c.38.128.551.34.462.572-.054.14-.305.159-2.142.159-1.646 0-2.104-.028-2.192-.134zm5.15-4.331c.262-.263.284-.338.284-1.006 0-.852-.124-1.268-.418-1.41-.298-.144-.91-.218-1.245-.15l-.282.055v2.795h.688c.631 0 .712-.024.972-.284z"/><g transform="matrix(.60657 0 0 .60657 -1.055 -132.418)"><circle cx="54.083" cy="236.055" r="13.764" fill="#fa5915"/><path d="M48.853 235.862l6.332-8.22c.661-.75 1.354-.752 1.878-.49.562.278.939.534 1.145.678.537.274.292.684-.189 1.134l-5.163 4.936c-.44.41-.436.901.06 1.49l6.048 8.693c.364.692.363 1.208-.472 1.323h-4.158c-.85.019-1.164-.421-1.6-1.028l-4.03-6.22c-.495-.837-.422-1.548.15-2.296z" fill="#fff" stroke="#fff" stroke-width=".1"/></g></svg>