<svg id="svg2737" xmlns="http://www.w3.org/2000/svg" width="200" height="100" viewBox="0 0 200 100"><style>.st0{fill:#2e3091}</style><g id="layer1" transform="translate(0 -270.542)"><g id="g51" transform="matrix(.83839 0 0 .83839 .798 46.74)"><g id="text1975"><path id="path4495" class="st0" d="M-.952 307.425l6.315-30.25h6.231L8.912 290.03l13.99-12.855h8.337L17.66 289.04l9.967 18.385H20.59l-7.47-14.403-5.88 5.138-1.94 9.265H-.952z"/><path id="path4497" class="st0" d="M29.155 307.425l4.75-22.688h15.88l-.805 3.792H37.775l-1.145 5.448h10.988l-.79 3.791H35.84l-2.012 9.657h-4.673z"/><path id="path4499" class="st0" d="M48.082 307.425l.743-3.575 13.062-15.32h-10.57l.789-3.793h16.358l-.681 3.56-13.201 15.414c4.068-.09 8.957-.077 11.886-.077l-.79 3.792H48.082z"/><path id="path4501" class="st0" d="M78.286 293.662H89.78l-1.197 5.716H77.089l1.197-5.716z"/><path id="path4503" class="st0" d="M92.256 297.624l5.922-.31c.152 3.464.937 5.427 6.005 5.427 6.197 0 6.816-4.21 4.663-6.004-3.272-2.842-12.917-3.303-12.917-11.226 0-11.906 21.356-12.162 22.224.29l-5.964.268c-.615-5.873-7.779-4.747-9.224-3.57-.729.605-1.093 1.369-1.093 2.29 0 3.817 8.658 4.747 12.133 8.172 4.632 4.496 1.957 14.98-9.863 14.98-7.286 0-11.886-3.06-11.886-10.317z"/><path id="path4505" class="st0" d="M119.102 307.425l4.735-22.688h16.823l-.79 3.792h-12.148l-1.083 5.154h11.746l-.79 3.791H125.85l-1.423 6.16h13.2l-.804 3.791h-17.72z"/><path id="path4507" class="st0" d="M145.04 307.425h-4.674l4.751-22.688c10.53 0 12.252-.159 14.114.542 4.532 1.64 5.341 11.344-3.745 12.505 2.017 1.808 4 6.682 5.17 9.641h-5.015c-.403-1.279-1.192-3.275-2.368-5.989-1.65-3.781-2.72-3.405-6.268-3.405l-1.965 9.394zm2.677-12.798c4.118 0 10.09.545 10.09-3.87 0-2.78-2.94-2.228-8.82-2.228l-1.27 6.098z"/><path id="path4509" class="st0" d="M174.522 307.425h-4.984l-4.07-22.688h4.659l2.878 17.163 9.394-17.163h4.627l-12.504 22.688z"/><path id="path4511" class="st0" d="M184.148 307.425l4.751-22.688h4.658l-4.735 22.688h-4.674z"/><path id="path4513" class="st0" d="M209.575 299.254l4.705.712c-1.904 5.283-5.81 7.862-10.586 7.862-12.038 0-10.758-16.988-2.925-21.775 5.309-3.244 13.777-2.185 14.703 5.649l-4.473.433c-.449-2.392-1.715-3.76-4.256-3.76-8.033 0-10.185 15.538-2.74 15.538 2.243 0 4.527-1.414 5.572-4.659z"/><path id="path4515" class="st0" d="M216.044 307.425l4.736-22.688h16.822l-.789 3.792h-12.149l-1.083 5.154h11.746l-.789 3.791h-11.746l-1.424 6.16h13.201l-.805 3.791h-17.72z"/><path id="path4517" class="st0" d="M96.383 349.347h-6.294l-.68-22.12-11.02 22.12h-6.417l-1.135-30.25h6.087l.269 21.171 10.379-21.171h6.747l.702 20.944 9.967-20.944h6.025l-14.63 30.25z"/><path id="path4519" class="st0" d="M121.908 344.333h-8.991l-2.724 5.014h-4.798l12.83-22.688h5.184l3.684 22.688h-4.427l-.758-5.014zm-.572-3.776l-1.316-9.13-5.478 9.13h6.794z"/><path id="path4521" class="st0" d="M130.08 349.347l4.75-22.688h4.659l-3.946 18.897h11.545l-.79 3.791H130.08z"/><path id="path4523" class="st0" d="M149.456 349.347l4.75-22.688h4.66l-3.947 18.897h11.545l-.79 3.791h-16.218z"/></g><g id="text1991"><path id="path4526" d="M10.827 376.836v-22.688h6.856l4.117 15.477 4.07-15.477h6.871v22.688h-4.256v-17.859l-4.503 17.86h-4.41l-4.489-17.86v17.86h-4.256z"/><path id="path4528" d="M36.746 376.836v-17.015h12.617v2.878H40.18v3.772h8.543v2.867h-8.543v4.632h9.507v2.866H36.746z"/><path id="path4530" d="M52.52 376.836v-17.015h3.435v17.015H52.52z"/><path id="path4532" d="M58.347 371.3l3.342-.325c.855 4.768 7.058 3.781 7.058.917 0-3.393-9.785-1.197-9.785-7.614 0-6.181 12.481-6.846 12.733.406l-3.436.15c-.147-.874-.464-1.5-.952-1.88-.978-.789-3.383-.787-4.515.035-.692.5-.76 1.48-.035 2.09 2.05 1.72 9.425.756 9.425 6.801a5.007 5.007 0 0 1-3.11 4.643c-2.034.842-9.864 2.081-10.725-5.223z"/><path id="path4534" d="M78.926 376.836V362.7h-5.05v-2.879H87.4v2.879h-5.037v14.137h-3.436z"/><path id="path4536" d="M89.581 376.836v-17.015h12.617v2.878h-9.181v3.772h8.543v2.867h-8.543v4.632h9.506v2.866H89.581z"/><path id="path4538" d="M105.471 376.836v-17.015c7.497 0 9.64-.12 11.19.464 3.585 1.307 4.327 8.158-1.765 9.042 2.178 1.27 2.659 2.373 5.873 7.51h-4.108c-4.953-7.382-4.284-7.104-7.754-7.104v7.104h-3.436zm3.436-9.82c4.1 0 6.941.525 6.941-2.205 0-2.642-2.734-2.112-6.941-2.112v4.318z"/><path id="path4540" d="M122.65 359.82c8.604 0 10.044-.186 11.584.871 2.68 1.814 2.35 5.787-.558 7.104 4.332 1.26 3.855 6.261 1.208 8.125-1.513 1.059-2.803.917-12.234.917V359.82zm3.435 2.833v3.934c3.377 0 6.64.568 6.64-1.996 0-2.377-2.41-1.94-6.64-1.938zm0 6.766v4.55c3.866 0 7.267.664 7.267-2.228 0-2.76-3.047-2.321-7.267-2.322z"/><path id="path4542" d="M139.817 376.836v-17.015h12.617v2.878h-9.182v3.772h8.543v2.867h-8.543v4.632h9.507v2.866h-12.942z"/><path id="path4544" d="M159.525 376.836V362.7h-5.049v-2.879H168v2.879h-5.038v14.137h-3.436z"/><path id="path4546" d="M170.192 376.836v-17.015c9.166 0 11.587-.416 13.174 2.089 1.342 2.116 1.332 6.68-3.749 7.417 2.19 1.277 2.684 2.413 5.874 7.51h-4.11c-4.936-7.359-4.259-7.104-7.753-7.104v7.104h-3.436zm3.436-9.82c4.15 0 5.78.265 6.593-.928.471-.691.505-1.959-.116-2.658-.896-1.056-2.586-.731-6.477-.731v4.318z"/><path id="path4548" d="M187.255 376.836v-17.015h3.435v17.015h-3.435z"/><path id="path4550" d="M193.952 376.836v-17.015h12.617v2.878h-9.181v3.772h8.543v2.867h-8.543v4.632h9.506v2.866h-12.942z"/><path id="path4552" d="M209.842 359.82c8.708 0 11.244-.527 12.896 2.299 1.117 1.887.435 4.633-1.87 5.676 4.993 1.453 3.888 8.377-1.09 8.926-1.528.165-8.313.116-9.936.116V359.82zm3.436 2.833v3.934c3.398 0 5.185.282 6.128-.661.967-.967.656-2.988-1.218-3.216-.683-.078-4.22-.058-4.91-.057zm0 6.766v4.55c3.884 0 5.778.346 6.778-.777.87-.973.669-2.967-.963-3.529-.959-.335-4.121-.243-5.815-.244z"/></g></g></g></svg>