<svg xmlns="http://www.w3.org/2000/svg" width="200" height="100" viewBox="0 0 200 100"><g transform="matrix(0 2.62869 2.62869 0 -575.073 -349.741)"><circle transform="matrix(0 1 1 0 0 0)" r="10.54" cy="145.878" cx="282.41" fill="#8dc63f" fill-rule="evenodd"/><path d="M151.665 277.076s-8.717 5.292-11.802 7.924c-.266.466-.41 1.207-.099 1.644.53.742 2.084 1.433 1.262.642 0 0-.254-.497-.29-.924-.035-.427-.208-.68.117-1.148.324-.469.952-1.11 1.77-1.236.237-.036.673-.089.818.102.21.275.123.429-.027.74-.146.303-.188.35-.466.557-.306.207-.27 1.617.062 1.27 2.699-2.244 10.61-10.626 8.655-9.571z" fill="#fff" fill-rule="evenodd"/><path d="M141.927 285.353c-.342 1.634.241 3.006 1.442 2.66 2.818-.81 3.599-4.606 6.609-2.671" fill="none" stroke="#edbf57" stroke-width=".6" stroke-linecap="round" stroke-linejoin="round"/><circle transform="matrix(0 1 1 0 0 0)" r="10.54" cy="145.878" cx="231.211" fill="#8dc63f" fill-rule="evenodd"/><g fill-rule="evenodd"><g transform="matrix(0 1 1 0 -1.242 2.988)"><circle cx="230.775" cy="149.533" r="4.313" fill="#ec7045"/><circle r="3.713" cy="149.533" cx="230.775" fill="#fabd5d"/><circle cx="230.775" cy="149.533" r="3.112" fill="#fff"/></g><g transform="matrix(0 1 1 0 .188 .14)" fill="#ec7045"><circle r=".563" cy="146.615" cx="234.014"/><circle cx="235.08" cy="148.349" r=".563"/><circle r=".563" cy="149.673" cx="233.369"/><circle cx="232.279" cy="147.869" r=".563"/></g></g><g transform="translate(-4.945 1.875)" fill-rule="evenodd"><g transform="matrix(0 .61957 .61957 0 55.317 82.37)" stroke-width="1.614"><circle r="4.313" cy="149.533" cx="230.775" fill="#ec7045"/><circle cx="230.775" cy="149.533" r="3.713" fill="#fabd5d"/><circle r="3.112" cy="149.533" cx="230.775" fill="#fff"/></g><circle r=".45" cy="147.946" cx="224.468" transform="matrix(0 1 1 0 0 0)" fill="#ec7045"/><circle transform="matrix(0 1 1 0 0 0)" cx="226.155" cy="147.969" r=".45" fill="#ec7045"/></g><circle cx="256.91" cy="145.878" r="10.54" transform="matrix(0 1 1 0 0 0)" fill="#8dc63f" fill-rule="evenodd"/><path d="M140.892 250.442c-.066-.294.254-.075.754.398-.594-.812-.679-1.156.368-.38 2.416 1.788 5.939 6.543 5.936 6.351l-.774.92c.004-.023-1.692-1.276-1.746-1.6 0-.002.006-.006.006-.008-.4-.433-2.786-2.403-4.214-4.966-.195-.35-.3-.582-.33-.715z" fill="#fff" fill-rule="evenodd"/><circle transform="matrix(0 1 1 0 0 0)" r=".278" cy="146.464" cx="256.223" fill="none" stroke="#979797" stroke-width=".037" stroke-linecap="round" stroke-linejoin="round"/><path d="M148.067 256.817l-.539.68s.544.29.703.539c.208.323.014.828.258 1.125.849 1.031 2.066 2.223 2.836 2.695.367.225.94-.177 1.172-.539.249-.388.176-.957 0-1.383-.35-.847-1.162-1.468-1.945-1.945-.308-.188-.671-.341-1.032-.328-.294.01-.526.34-.82.328a.532.532 0 0 1-.375-.188c-.214-.263-.258-.984-.258-.984zm-.787 1.076c0 .099-.061 1.176.15 1.707.134.34.675.496.679.861.005.485-.788.684-.878 1.16a1.61 1.61 0 0 0 .364 1.31c.378.42 1.012.68 1.575.63.422-.04.894-.297 1.077-.68.12-.251.033-.584-.1-.829-.411-.762-1.386-1.05-1.988-1.674-.24-.247-.503-.495-.638-.812-.222-.518-.24-1.673-.24-1.673z" fill="none" stroke="#fabd5d" stroke-width=".563" stroke-linecap="round" stroke-linejoin="round"/><path d="M141.6 250.807l4.241 4.798-.432.468.573-.444z" fill="#8d8d8d" fill-rule="evenodd"/></g><g style="line-height:125%;-inkscape-font-specification:Arial"><path d="M18.095 89.535l-3.32-6.56c-.817-1.581-1.765-2.53-3.372-2.899l6.402-8.563c.132-.184.106-.342-.158-.342h-.606c-.395 0-.5.052-.685.29l-6.218 8.404c-.185-.026-.422-.026-.659-.026H6.212v-8.326c0-.263-.079-.342-.316-.342h-.553c-.264 0-.343.079-.343.342v18.022c0 .264.079.343.343.343h.553c.237 0 .316-.08.316-.343v-8.59h3.346c2.214 0 3.215.765 4.084 2.504l3.083 6.139c.132.237.237.29.659.29h.527c.263 0 .29-.158.184-.343zm3.758-5.981v-12.04c0-.264-.08-.343-.317-.343h-.553c-.263 0-.342.079-.342.342v12.041c0 4.084 2.292 6.72 6.956 6.72 4.637 0 6.93-2.636 6.93-6.72v-12.04c0-.264-.08-.343-.317-.343h-.58c-.237 0-.316.079-.316.342v12.041c0 3.4-1.87 5.586-5.717 5.586-3.874 0-5.744-2.187-5.744-5.586zM52.198 71.17h-.527c-.264 0-.343.08-.343.317V83.37c0 1.818.185 3.583.185 4.743h-.053c-.632-.896-1.45-2.372-2.424-3.768l-9.09-12.99a.414.414 0 0 0-.37-.184h-.526c-.264 0-.343.079-.343.342v18.022c0 .264.08.343.343.343h.527c.237 0 .316-.08.316-.343V77.257c0-1.66-.158-3.346-.158-4.347h.053c.553.764 1.264 2.186 2.134 3.425l9.354 13.332c.105.185.184.21.368.21h.554c.237 0 .316-.078.316-.342V71.513c0-.263-.08-.342-.316-.342zm3.939 4.875c0 4.084 3.583 4.637 6.877 5.033 2.872.342 5.612.737 5.612 3.846 0 2.793-1.95 4.163-5.744 4.163-2.951 0-4.822-1.238-5.955-3.9-.131-.263-.21-.289-.448-.21l-.5.185c-.264.105-.29.21-.185.474 1.265 3.135 3.4 4.61 7.088 4.61 4.585 0 6.956-1.949 6.956-5.374 0-4.058-3.346-4.611-6.56-4.98-2.978-.316-5.903-.817-5.903-3.926 0-2.53 1.976-4.005 5.375-4.005 2.951 0 4.611 1.107 5.797 3.452.132.237.21.237.421.158l.527-.237c.211-.08.29-.211.158-.448-1.37-2.793-3.372-4.084-6.903-4.084-4.163 0-6.613 2.028-6.613 5.243zm28.015-4.875H71.505c-.263 0-.342.08-.342.343v.474c0 .237.079.317.342.317h5.718v17.231c0 .264.079.343.342.343h.554c.237 0 .316-.08.316-.343V72.304h5.717c.264 0 .343-.08.343-.317v-.474c0-.263-.079-.342-.343-.342zm22.746 0h-.58c-.29 0-.395.053-.448.29l-3.794 14.255c-.158.764-.369 1.844-.474 2.424h-.08c-.131-.606-.342-1.634-.553-2.424l-3.926-13.833c-.052-.264-.184-.316-.447-.316h-.527c-.238 0-.396.052-.448.316l-3.926 13.78c-.211.79-.422 1.818-.58 2.477h-.053c-.158-.632-.342-1.74-.527-2.503L86.768 71.46c-.053-.237-.159-.29-.448-.29h-.66c-.236 0-.263.106-.21.317l4.9 18.101c.054.237.185.29.449.29h.5c.264 0 .396-.053.448-.316l3.926-13.86c.237-.764.422-1.607.58-2.397h.079c.158.79.343 1.633.553 2.397l3.926 13.886c.053.237.185.29.448.29h.527c.237 0 .369-.053.448-.316l4.874-18.075c.08-.211.027-.316-.21-.316zm14.073 0h-10.75c-.263 0-.342.08-.342.343v18.022c0 .264.079.343.342.343h11.12c.236 0 .342-.08.342-.343v-.474c0-.237-.106-.316-.343-.316h-10.25v-7.773h8.748c.238 0 .317-.079.317-.342v-.475c0-.237-.08-.316-.317-.316h-8.747v-7.535h9.88c.264 0 .343-.08.343-.317v-.474c0-.263-.08-.342-.343-.342zm11.839 0h-7.562c-.263 0-.342.08-.342.343v18.022c0 .264.079.343.342.343h.553c.238 0 .317-.08.317-.343v-7.878h4.347c2.213 0 3.215.764 4.084 2.503l2.74 5.428c.106.237.237.29.659.29h.5c.264 0 .317-.158.185-.343l-2.951-5.849c-.58-1.08-1.16-1.739-2.16-2.16 2.845-.238 4.637-2.056 4.637-5.086 0-3.346-2.029-5.27-5.349-5.27zm4.084 5.27c0 2.635-1.58 4.084-4.216 4.084h-6.56v-8.22h6.56c2.688 0 4.216 1.501 4.216 4.136zm17.986 13.095l-3.32-6.56c-.817-1.581-1.765-2.53-3.372-2.899l6.402-8.563c.132-.184.106-.342-.158-.342h-.606c-.395 0-.5.052-.685.29l-6.218 8.404c-.185-.026-.422-.026-.659-.026h-3.267v-8.326c0-.263-.079-.342-.316-.342h-.553c-.264 0-.343.079-.343.342v18.022c0 .264.079.343.343.343h.553c.237 0 .316-.08.316-.343v-8.59h3.346c2.214 0 3.215.765 4.084 2.504l3.083 6.139c.132.237.237.29.659.29h.527c.263 0 .29-.158.184-.343zm19.004-18.365h-.58c-.237 0-.316.08-.316.317V84.16c0 3.083-1.739 4.954-5.006 4.954-3.003 0-4.426-1.607-4.953-4.453-.08-.237-.211-.29-.422-.21l-.527.184c-.237.079-.29.21-.21.447.632 3.241 2.503 5.191 6.112 5.191 4.032 0 6.218-2.371 6.218-6.113V71.487c0-.237-.079-.316-.316-.316zm20.8 0h-.5c-.264 0-.343.08-.475.317L186.7 83.923l-7.06-12.463c-.132-.21-.21-.29-.5-.29h-.422c-.264 0-.343.08-.343.343v18.022c0 .264.08.343.343.343h.474c.263 0 .343-.08.343-.343V77.441c0-1.422-.053-2.845-.159-4.4h.053a47.453 47.453 0 0 0 1.897 3.663l4.77 8.431c.105.237.21.264.447.264h.343c.21 0 .316-.053.421-.264l4.69-8.326a55.948 55.948 0 0 0 1.976-3.768h.053a52.149 52.149 0 0 0-.184 4.4v12.094c0 .264.079.343.316.343h.527c.237 0 .316-.08.316-.343V71.513c0-.263-.079-.342-.316-.342z" style="-inkscape-font-specification:Panton" font-weight="400" font-size="26" font-family="Panton" letter-spacing="0" word-spacing="0" stroke-width=".75"/></g></svg>