<svg xmlns="http://www.w3.org/2000/svg" width="200" height="100" viewBox="0 0 200 100"><path d="M28.159 93.52h-1.3l-.234-2.481h-.053c-3.107 4.688-15.543 3.681-15.525-4.335 0-3.763 2.984-7.092 8.955-7.092 3.432 0 7.151 1.215 7.922 4.516h-1.81c-.188-1.453-2.456-3.408-6.112-3.408-4.707 0-7.142 2.682-7.145 5.984 0 8.01 13.837 7.82 13.716.99h-6.465v-1.097h8.05zM31.134 83.67h1.543v1.66h.075c2.102-2.855 7.509-2.373 8.423-.02 1.715-2.692 8.902-3.016 8.902 1.533v6.676h-1.672c0-7.315.796-9.125-3.238-9.125-4.58 0-3.726 3.638-3.726 9.125H39.77v-6.676c0-1.718-1.137-2.45-2.876-2.45-5.06 0-4.088 4.054-4.088 9.126h-1.672zM63.883 88.6c-.014-5.325-7.742-5.412-9.062-1.523-2.216 6.68 9.062 7.973 9.062 1.523zm-10.979-8.7h1.673v5.643h.053c1.661-3.3 10.925-3.262 10.925 3.057.022 6.27-9.164 6.374-11.053 3.045h-.053v1.874h-1.544zM68.372 79.9h1.799v5.91h11.276V79.9h1.8v13.62h-1.8v-6.603H70.171v6.602h-1.8zM98.775 86.726c-9.082 3.499-.034 9.023 4.728 4.121zm5.772 5.015c-6.13 5.495-16.644-.962-8.296-5.089.545-.27 1.086-.503 1.618-.703-1-.91-3.206-2.612-2.012-4.419 2.837-4.273 13.748.345 4.355 4.664l4.142 3.589c.356-.507.565-.984.565-2.29h1.671c0 1-.357 2.253-1.118 3.259l3.195 2.767h-2.108zM97.955 81.36c-1.767 1.06-.159 2.78 1.374 4.047 6.034-2.643 1.395-5.742-1.374-4.047zM131.303 84.02c-.528-1.698-2.143-2.701-3.844-3.076-10.715-2.49-12.818 11.755-1.98 11.755 3.211 0 5.69-1.732 6.09-4.365h1.8c-.549 3.75-4.012 5.473-7.89 5.473-13.568 0-10.971-16.948 2.64-13.906 2.274.493 4.608 1.828 4.984 4.12z"/><path d="M141.48 83.382c8.661 0 8.702 10.425 0 10.425-8.689 0-8.648-10.425 0-10.425zm0 1.012c-6.356 0-6.462 8.401 0 8.401 6.432 0 6.39-8.401 0-8.401zM151.286 93.52v-2.024h2.236v2.023zM157.883 79.9h1.8v7.326l11.03-7.325h2.45l-8.476 5.622 8.87 7.996h-2.332l-7.901-7.102-3.642 2.428v4.674h-1.799zM191.136 93.52h-1.3l-.233-2.481h-.053c-3.083 4.651-15.543 3.696-15.525-4.335 0-8.873 15.336-9.175 16.877-2.576h-1.81c-.593-4.566-13.25-5.359-13.257 2.576 0 7.979 13.836 7.8 13.716.99h-6.466v-1.097h8.05z"/><path class="st1" d="M9.558 9.835v66.65h49.61v-9.978h-36.98V9.832z" fill="#3d7eda"/><path class="st2" d="M67.078 9.846v55.872L89.97 44.614l23.813 31.828h15.867L98.586 36.475l29.05-26.63H111.89l-32.216 30.34V9.831z" fill="#3d7eda"/><path class="st3" d="M191.383 19.927V9.834h-52.03v66.632h52.75v-10.21h-40V46.957h36.172v-9.594h-36.11V19.958z" fill="#3d7eda"/></svg>