<svg xmlns="http://www.w3.org/2000/svg" width="200" height="100" viewBox="0 0 200 100"><path d="M26.72 91.666h-1.3l-.234-2.48h-.053a4.995 4.995 0 0 1-1.193 1.256 6.503 6.503 0 0 1-1.555.852 8.847 8.847 0 0 1-1.82.49c-.648.111-1.316.17-2.002.17-1.491 0-2.801-.191-3.93-.575-1.123-.389-2.054-.91-2.8-1.565a6.531 6.531 0 0 1-1.672-2.28 6.7 6.7 0 0 1-.554-2.682c0-.93.184-1.821.554-2.673a6.466 6.466 0 0 1 1.672-2.268c.746-.66 1.677-1.182 2.801-1.565 1.129-.389 2.438-.586 3.929-.586.993 0 1.93.096 2.81.288.887.186 1.683.468 2.386.852a5.93 5.93 0 0 1 1.757 1.426 4.733 4.733 0 0 1 .969 1.949h-1.81c-.05-.388-.232-.783-.543-1.182-.314-.404-.732-.77-1.257-1.097-.52-.332-1.145-.602-1.874-.81-.724-.212-1.539-.318-2.438-.318-1.257 0-2.34.17-3.248.51-.903.341-1.64.797-2.215 1.364a5.472 5.472 0 0 0-1.278 1.927 6.126 6.126 0 0 0-.404 2.183c0 .753.133 1.488.404 2.204a5.456 5.456 0 0 0 1.279 1.917c.575.561 1.312 1.016 2.214 1.363.908.34 1.992.51 3.248.51 1.044 0 1.975-.122 2.801-.372.822-.248 1.517-.591 2.087-1.033a4.34 4.34 0 0 0 1.278-1.587c.282-.609.417-1.28.404-2.012h-6.465v-1.097h8.05zm2.975-9.849h1.543v1.66h.075c.439-.595 1.022-1.066 1.746-1.415.73-.355 1.645-.533 2.748-.533.9 0 1.716.16 2.448.48.738.32 1.23.804 1.48 1.448.41-.644 1.015-1.129 1.81-1.448a6.773 6.773 0 0 1 2.556-.48c3.024 0 4.537 1.156 4.537 3.461v6.676h-1.672v-6.623c0-.814-.243-1.438-.724-1.863-.477-.426-1.316-.64-2.514-.64-.732 0-1.335.102-1.81.3-.476.199-.857.465-1.14.798a2.887 2.887 0 0 0-.606 1.129 5.111 5.111 0 0 0-.17 1.33v5.57H38.33V84.99c0-.333-.05-.65-.15-.947a1.836 1.836 0 0 0-.478-.778c-.22-.226-.52-.405-.895-.532-.37-.128-.82-.192-1.352-.192-.724 0-1.347.093-1.864.277-.51.186-.931.442-1.256.767a3.128 3.128 0 0 0-.734 1.16 4.222 4.222 0 0 0-.235 1.427v5.494h-1.671zm32.749 4.93a4.736 4.736 0 0 0-.256-1.523 3.704 3.704 0 0 0-.799-1.341c-.361-.397-.828-.72-1.395-.97-.57-.247-1.25-.372-2.044-.372-.889 0-1.637.125-2.246.373-.613.25-1.108.572-1.491.969a3.504 3.504 0 0 0-.83 1.341 4.818 4.818 0 0 0 0 3.035c.17.506.446.956.83 1.352.383.392.879.71 1.49.959.61.25 1.358.372 2.247.372.793 0 1.475-.123 2.044-.372.567-.248 1.034-.567 1.395-.959a3.77 3.77 0 0 0 .8-1.352c.17-.503.255-1.006.255-1.512zm-10.979-8.7h1.672v5.643h.054a2.753 2.753 0 0 1 .756-.925 4.46 4.46 0 0 1 1.129-.671 6.547 6.547 0 0 1 1.362-.416 7.645 7.645 0 0 1 1.512-.149c1.044 0 1.949.144 2.716.426.772.277 1.416.658 1.927 1.14.516.477.9 1.03 1.15 1.66a5.35 5.35 0 0 1 .372 1.992 5.4 5.4 0 0 1-.372 1.991 4.45 4.45 0 0 1-1.15 1.662c-.511.476-1.155.856-1.927 1.138-.767.278-1.672.416-2.716.416-1.115 0-2.113-.191-2.992-.575-.88-.383-1.512-.91-1.896-1.587h-.052v1.874h-1.544zm15.468.001h1.799v5.91h11.276v-5.91h1.8v13.618h-1.8v-6.602H68.732v6.602h-1.8zm30.403 6.825c-.463.178-.924.378-1.384.596a6.856 6.856 0 0 0-1.257.746 3.775 3.775 0 0 0-.895.926 1.916 1.916 0 0 0-.34 1.107c0 .413.111.783.34 1.108.227.32.533.601.916.841a4.584 4.584 0 0 0 1.321.554 6.111 6.111 0 0 0 1.533.192c.959 0 1.813-.187 2.566-.565a7.041 7.041 0 0 0 1.927-1.384zm5.771 5.015a8.1 8.1 0 0 1-2.48 1.502c-.954.375-1.99.564-3.11.564a9.607 9.607 0 0 1-2.268-.256c-.702-.162-1.31-.404-1.82-.724a3.826 3.826 0 0 1-1.216-1.202c-.293-.482-.436-1.028-.436-1.64 0-.482.141-.926.426-1.331.282-.404.652-.77 1.107-1.097.453-.332.953-.634 1.502-.905a17.451 17.451 0 0 1 1.618-.702c-.263-.24-.532-.485-.81-.736a6.578 6.578 0 0 1-.744-.777 4.997 4.997 0 0 1-.565-.841 2.019 2.019 0 0 1-.224-.937 2 2 0 0 1 .33-1.129c.227-.34.528-.63.906-.873a4.632 4.632 0 0 1 1.33-.554 6.39 6.39 0 0 1 1.64-.201 6.351 6.351 0 0 1 1.63.202 4.49 4.49 0 0 1 1.33.553 2.903 2.903 0 0 1 .906.873 2.024 2.024 0 0 1 .33 1.13c0 .42-.107.804-.32 1.15-.213.34-.495.653-.841.936-.34.277-.735.532-1.182.767-.442.234-.9.463-1.374.681l4.143 3.589c.234-.333.386-.666.457-1.002.07-.34.107-.769.107-1.288h1.672c0 .378-.08.871-.234 1.48-.15.605-.445 1.198-.884 1.779l3.195 2.767h-2.108zm-4.813-10.84c-.69 0-1.283.155-1.779.458-.497.299-.744.732-.744 1.3 0 .242.07.486.213.734a4.293 4.293 0 0 0 .531.735c.214.234.44.463.682.682.248.22.48.42.692.596.341-.15.682-.312 1.023-.49a5.874 5.874 0 0 0 .947-.596 3.245 3.245 0 0 0 .693-.746 1.676 1.676 0 0 0 .266-.916c0-.567-.25-1-.746-1.299-.497-.303-1.091-.458-1.778-.458zm31.57 3.12a3.864 3.864 0 0 0-.788-1.405 4.659 4.659 0 0 0-1.331-1.033 6.717 6.717 0 0 0-1.726-.639 8.62 8.62 0 0 0-1.98-.223c-1.257 0-2.34.17-3.248.51-.902.341-1.64.797-2.215 1.364a5.472 5.472 0 0 0-1.278 1.927 6.126 6.126 0 0 0-.404 2.183c0 .753.133 1.488.404 2.204a5.456 5.456 0 0 0 1.279 1.917c.575.561 1.312 1.016 2.215 1.363.907.34 1.991.51 3.248.51.865 0 1.656-.111 2.374-.34.716-.235 1.33-.545 1.842-.937a5.031 5.031 0 0 0 1.257-1.384c.32-.525.524-1.092.618-1.704h1.799a5.743 5.743 0 0 1-.82 2.268 6.02 6.02 0 0 1-1.65 1.725c-.677.477-1.47.84-2.386 1.097-.91.255-1.922.383-3.034.383-1.491 0-2.801-.191-3.93-.575-1.123-.389-2.054-.91-2.8-1.565a6.524 6.524 0 0 1-1.672-2.28 6.7 6.7 0 0 1-.554-2.682c0-.93.184-1.821.554-2.673a6.466 6.466 0 0 1 1.671-2.268c.746-.66 1.677-1.182 2.801-1.565 1.129-.389 2.439-.586 3.929-.586.9 0 1.78.096 2.64.288.858.186 1.64.465 2.344.84a6.09 6.09 0 0 1 1.756 1.385 3.864 3.864 0 0 1 .884 1.896zm10.176-.638c1.044 0 1.965.143 2.769.425.81.277 1.485.655 2.034 1.129a4.618 4.618 0 0 1 1.256 1.661c.282.634.426 1.3.426 2.002a4.86 4.86 0 0 1-.426 2.012 4.746 4.746 0 0 1-1.256 1.65c-.549.47-1.225.847-2.034 1.13-.804.277-1.725.415-2.768.415-1.044 0-1.97-.138-2.78-.416-.809-.282-1.488-.66-2.034-1.128a4.746 4.746 0 0 1-1.245-1.65 4.833 4.833 0 0 1-.426-2.013 4.8 4.8 0 0 1 .426-2.002 4.618 4.618 0 0 1 1.245-1.661c.546-.474 1.225-.852 2.035-1.129.809-.282 1.735-.426 2.779-.426zm0 1.01c-.795 0-1.496.126-2.097.374-.604.242-1.105.561-1.502.958a3.946 3.946 0 0 0-.905 1.342 3.944 3.944 0 0 0-.309 1.534c0 .518.102 1.03.31 1.533a4.014 4.014 0 0 0 .905 1.352c.396.391.897.708 1.501.947.601.243 1.302.363 2.098.363.793 0 1.493-.12 2.097-.363a4.485 4.485 0 0 0 1.502-.947 4.094 4.094 0 0 0 .905-1.353 4.042 4.042 0 0 0 .308-1.533c0-.525-.103-1.036-.308-1.533a4.023 4.023 0 0 0-.905-1.342c-.4-.397-.9-.716-1.502-.958-.604-.248-1.304-.373-2.097-.373zm9.806 9.126v-2.023h2.236v2.023zm6.598-13.618h1.799v7.326l11.032-7.326h2.448l-8.475 5.622 8.87 7.996h-2.332l-7.901-7.102-3.642 2.428v4.674h-1.8zm33.253 13.618h-1.3l-.233-2.48h-.053a4.995 4.995 0 0 1-1.193 1.256 6.503 6.503 0 0 1-1.555.852 8.847 8.847 0 0 1-1.82.49c-.648.111-1.316.17-2.002.17-1.492 0-2.801-.191-3.93-.575-1.123-.389-2.054-.91-2.8-1.565a6.531 6.531 0 0 1-1.672-2.28 6.7 6.7 0 0 1-.554-2.682c0-.93.184-1.821.554-2.673a6.466 6.466 0 0 1 1.672-2.268c.746-.66 1.676-1.182 2.8-1.565 1.13-.389 2.44-.586 3.93-.586.992 0 1.93.096 2.81.288.887.186 1.683.468 2.386.852a5.943 5.943 0 0 1 1.757 1.426 4.733 4.733 0 0 1 .969 1.949h-1.81c-.05-.388-.232-.783-.543-1.182-.315-.404-.732-.77-1.257-1.097-.52-.332-1.145-.602-1.874-.81-.724-.212-1.539-.318-2.438-.318-1.257 0-2.34.17-3.248.51-.903.341-1.64.797-2.215 1.364a5.472 5.472 0 0 0-1.278 1.927 6.126 6.126 0 0 0-.404 2.183c0 .753.133 1.488.404 2.204a5.456 5.456 0 0 0 1.279 1.917c.575.561 1.312 1.016 2.214 1.363.908.34 1.992.51 3.248.51 1.044 0 1.975-.122 2.801-.372.822-.248 1.517-.591 2.087-1.033a4.34 4.34 0 0 0 1.278-1.587c.282-.609.417-1.28.404-2.012h-6.465v-1.097h8.05zm0 0"/><path d="M8.119 7.982v66.65h49.61v-9.978h-36.98V7.98z" fill="#3d7eda" fill-rule="evenodd"/><path d="M65.639 7.993v55.872L88.53 42.761l23.813 31.828h15.867L97.147 34.622l29.05-26.629h-15.745L78.236 38.332V7.98z" fill="#3c7dd9" fill-rule="evenodd"/><path d="M189.944 18.074V7.981h-52.03v66.632h52.749v-10.21h-40V45.104h36.173v-9.593h-36.11V18.105z" fill="#3c7cd9" fill-rule="evenodd"/></svg>