<svg xmlns="http://www.w3.org/2000/svg" width="200" height="100" viewBox="0 0 200 100"><path d="M70.468 74.872V27.143H0v47.73z" fill="#fff"/><path d="M70.468 74.872v-8.361H43.603c-.724 3.842-1.354 7.101-1.59 8.361zM0 66.51v8.362h28.25l-1.89-8.361z" fill="#f36f21"/><path d="M13.889 46.622l-2.063-8.645h17.542l5.685 24.833h.236l3.575-15.904c1.81-7.228 2.487-8.929 12.66-8.929h7.307s-1.48 6.661-3.323 13.889c-.693 2.756-6.803 2.425-6.488-.142.032-.268.315-2.204.551-3.59.331-1.984-1.984-2.236-2.409-.268-.3 1.402-1.638 8.378-2.882 14.944h26.188V27.143H0V62.81h25.573l-3.638-16.172-8.046-.016z" fill="#174593"/><text y="31.527" x="148.735" style="line-height:125%" font-weight="400" font-size="13.75" font-family="sans-serif" letter-spacing="0" word-spacing="0" fill="#174593" transform="translate(-.288 25.416) scale(.50112)"><tspan style="line-height:125.99999905%;-inkscape-font-specification:'Tahoma Bold'" y="31.527" x="148.735" font-weight="700" font-size="33.333" font-family="Tahoma">Raiffeisenbank</tspan><tspan style="line-height:125.99999905%;-inkscape-font-specification:'Tahoma Bold'" y="73.527" x="148.735" font-weight="700" font-size="33.333" font-family="Tahoma">Stauden eG</tspan></text><text y="98.654" x="149.368" style="line-height:125%;-inkscape-font-specification:tahoma" font-weight="400" font-size="13.75" font-family="tahoma" letter-spacing="0" word-spacing="0" fill="#f36f21" transform="translate(-.288 25.416) scale(.50112)"><tspan style="-inkscape-font-specification:'tahoma Bold'" y="98.654" x="149.368" font-weight="700" font-size="19.333" letter-spacing=".88">www.rb-stauden.de</tspan></text></svg>