<svg xmlns="http://www.w3.org/2000/svg" width="200" height="100" viewBox="0 0 200 100"><path d="M200 100H0V0h200z" fill="#2744a0"/><path d="M9.497 75.254h1.475c1.867 0 2.55-1.075 2.55-3.145 0-2.096-.795-3.147-2.892-3.147H9.497zm0-9.18h1.274c1.332 0 2.352-.908 2.352-2.61 0-1.897-.737-2.889-2.295-2.889h-1.33zm-3.514-8.389h5.212c3.772 0 5.444 1.926 5.444 5.411 0 1.76-.737 3.6-2.438 4.28 1.785.795 2.835 2.213 2.835 4.848 0 3.37-1.503 5.922-5.5 5.922H5.983zM23.328 70.55h2.834l-1.391-8.785h-.055zm-1.135 7.596h-3.4l3.77-20.461h4.364l3.77 20.461h-3.403l-.622-4.534h-3.855zM32.734 57.685h3.516v15.444c0 1.5.596 2.24 1.87 2.24s1.87-.74 1.87-2.24V57.685h3.516v15.302c0 3.517-2.04 5.443-5.386 5.443-3.344 0-5.386-1.926-5.386-5.443zM46.906 57.685h3.513v15.444c0 1.5.596 2.24 1.872 2.24 1.275 0 1.87-.74 1.87-2.24V57.685h3.513v15.302c0 3.517-2.04 5.443-5.383 5.443-3.345 0-5.385-1.926-5.385-5.443zM61.076 78.146V57.685h3.262l4.276 11.705h.058V57.685h3.173v20.461h-3.059L64.31 65.365h-.06v12.781zM77.288 60.746h-3.4v-3.061h10.315v3.061h-3.398v17.4h-3.517zM86.274 78.146V57.685h9.406v3.061h-5.894v5.27h4.535v3.063h-4.535v6.006h6.288v3.061zM102.37 66.866h1.244c1.902 0 2.609-.707 2.609-3.145s-.707-3.145-2.61-3.145h-1.242zm0 11.28h-3.517V57.685h4.93c3.942 0 5.956 1.67 5.956 6.036 0 3.288-1.276 4.62-2.466 5.159l2.974 9.266h-3.569l-2.497-8.473c-.45.056-1.188.085-1.81.085zM113.024 78.146V57.685h3.262l4.277 11.705h.059V57.685h3.17v20.461h-3.058l-4.48-12.781h-.055v12.781zM127.195 78.146V57.685h9.408v3.061h-5.896v5.27h4.538v3.063h-4.538v6.006h6.29v3.061zM139.777 78.146V57.685h3.517v8.332h3.74v-8.332h3.51v20.461h-3.51V69.08h-3.74v9.067zM168.034 57.685v20.461h-3.062V62.164h-.056l-3.174 15.982h-1.698l-3.178-15.982h-.055v15.982h-3.063V57.685h4.62l2.497 11.96h.052l2.499-11.96zM171.263 78.146V57.685h9.407v3.061h-5.889v5.27h4.53v3.063h-4.53v6.006h6.288v3.061zM183.848 78.146V57.685h3.257l4.28 11.705h.054V57.685h3.18v20.461h-3.063l-4.48-12.781h-.056v12.781z" fill="#f14d3e"/><path d="M16.12 83.488V97.99h-2.167V86.663h-.04l-2.25 11.327H10.46L8.21 86.663h-.041V97.99H6V83.488h3.272l1.767 8.476h.04l1.769-8.476zM21.905 92.506c-2.046 1.164-2.55 1.909-2.55 2.851 0 .704.364.984 1.045.984.625 0 1.124-.462 1.505-1.003zm-4.64-2.15c.122-2.19 1.51-3.374 3.617-3.374 2.09 0 3.274.963 3.274 2.933v6.928c0 .343.08.783.14 1.147h-2.149c-.02-.303-.1-.585-.12-.844-.844.68-1.546 1.043-2.63 1.043-1.527 0-2.292-1.043-2.292-2.43 0-2.372 1.568-3.675 4.8-4.9v-.643c0-.904-.36-1.385-1.104-1.385-1.023 0-1.246.604-1.284 1.526zM25.64 97.99V87.185h2.148v1.264h.04a2.923 2.923 0 0 1 2.552-1.467h.462v2.35c-.403-.102-.785-.22-1.444-.22-.764 0-1.507.48-1.507 1.446v7.432zM36.165 90.879v-.28c0-1.247-.441-1.769-1.245-1.769-.803 0-1.245.522-1.245 1.768v3.975c0 1.246.442 1.768 1.245 1.768.804 0 1.245-.522 1.245-1.768v-.683h2.25v.282c0 2.37-.924 4.017-3.495 4.017-2.57 0-3.492-1.647-3.492-4.017v-3.173c0-2.37.921-4.018 3.492-4.018 2.531 0 3.455 1.588 3.496 3.898zM46.427 87.184V97.99h-2.13v-1.085c-.942.804-1.424 1.286-2.731 1.286-1.182 0-1.887-.864-1.887-2.268v-8.738h2.25v8.374c0 .544.32.783.802.783.483 0 .923-.3 1.448-.681v-8.476zM51.91 90.175c-.16-.864-.56-1.345-1.285-1.345-.583 0-.984.303-.984.86 0 1.691 4.216 2.374 4.216 5.587 0 1.93-1.323 2.912-3.15 2.912-1.972 0-3.094-1.126-3.435-3.013l1.967-.543c.14.906.462 1.708 1.488 1.708.583 0 1.004-.34 1.004-.943 0-1.868-4.219-2.57-4.219-5.524 0-1.707 1.325-2.893 3.013-2.893 1.767 0 2.951 1.186 3.291 2.875zM61.124 89.994h.891c1.343 0 1.846-.5 1.846-2.228 0-1.725-.503-2.229-1.846-2.229h-.891zm0 7.995h-2.49v-14.5h3.499c2.788 0 4.216 1.184 4.216 4.277 0 2.328-.901 3.275-1.746 3.656l2.106 6.567h-2.53l-1.764-6.004c-.322.04-.846.061-1.291.061zM67.797 87.184h2.25v10.805h-2.25zm0-3.696h2.25v2.049h-2.25zM76.072 91.161v-.563c0-1.246-.443-1.768-1.248-1.768-.798 0-1.24.522-1.24 1.768v.563zm2.248 1.848h-4.737v1.564c0 1.246.443 1.768 1.24 1.768.806 0 1.25-.522 1.25-1.768v-.239h2.247c-.04 2.289-.986 3.856-3.496 3.856-2.569 0-3.49-1.647-3.49-4.018V91c0-2.37.921-4.017 3.49-4.017 2.57 0 3.496 1.647 3.496 4.017zM84.083 89.393c-.442-.321-.844-.562-1.285-.562-.602 0-1.081.321-1.081 1.747v4.017c0 1.425.479 1.747 1.08 1.747.442 0 .844-.24 1.286-.563zm.12 8.597v-1.125h-.04c-.743.942-1.286 1.324-2.41 1.324-1.405 0-2.288-1.043-2.288-3.013v-5.182c0-1.965.883-3.012 2.288-3.012.983 0 1.448.402 2.33 1.125v-4.62h2.251V97.99zM92.339 91.161v-.563c0-1.246-.444-1.768-1.247-1.768-.802 0-1.245.522-1.245 1.768v.563zm2.246 1.848h-4.738v1.564c0 1.246.443 1.768 1.245 1.768.803 0 1.247-.522 1.247-1.768v-.239h2.246c-.038 2.289-.981 3.856-3.493 3.856-2.57 0-3.494-1.647-3.494-4.018V91c0-2.37.924-4.017 3.494-4.017 2.571 0 3.493 1.647 3.493 4.017zM95.868 83.488h2.252V97.99h-2.252zM103.624 90.175c-.163-.864-.56-1.345-1.288-1.345-.579 0-.983.303-.983.86 0 1.691 4.218 2.374 4.218 5.587 0 1.93-1.326 2.912-3.151 2.912-1.97 0-3.092-1.126-3.439-3.013l1.97-.543c.142.906.464 1.708 1.49 1.708.576 0 1-.34 1-.943 0-1.868-4.216-2.57-4.216-5.524 0-1.707 1.326-2.893 3.014-2.893 1.764 0 2.952 1.186 3.29 2.875zM106.557 97.99V83.488h2.247v4.698c.827-.72 1.308-1.204 2.609-1.204 1.19 0 1.892.864 1.892 2.27v8.738h-2.25v-8.377c0-.541-.323-.782-.803-.782-.484 0-.925.301-1.448.685v8.474zM119.306 91.161v-.563c0-1.246-.441-1.768-1.244-1.768-.804 0-1.247.522-1.247 1.768v.563zm2.252 1.848h-4.743v1.564c0 1.246.443 1.768 1.247 1.768.803 0 1.244-.522 1.244-1.768v-.239h2.252c-.039 2.289-.988 3.856-3.496 3.856-2.572 0-3.494-1.647-3.494-4.018V91c0-2.37.922-4.017 3.494-4.017 2.573 0 3.496 1.647 3.496 4.017zM122.848 87.184h2.244v10.805h-2.244zm0-3.696h2.244v2.049h-2.244zM130.976 97.99v-8.377c0-.541-.343-.782-.782-.782-.483 0-.926.301-1.446.685v8.474h-2.253V87.185h2.13v1.083c.945-.803 1.43-1.286 2.494-1.286 1.123 0 1.484.402 1.965 1.286 1.086-1.046 1.69-1.286 2.513-1.286 1.403 0 2.106.864 2.106 2.27v8.738h-2.248v-8.377c0-.541-.36-.782-.804-.782-.481 0-.923.301-1.422.685v8.474zM143.729 91.161v-.563c0-1.246-.443-1.768-1.243-1.768-.804 0-1.248.522-1.248 1.768v.563zm2.248 1.848h-4.739v1.564c0 1.246.444 1.768 1.248 1.768.8 0 1.243-.522 1.243-1.768v-.239h2.248c-.04 2.289-.982 3.856-3.491 3.856-2.573 0-3.495-1.647-3.495-4.018V91c0-2.37.922-4.017 3.495-4.017 2.57 0 3.49 1.647 3.49 4.017zM147.246 97.99V87.185h2.148v1.264h.036a2.923 2.923 0 0 1 2.55-1.467h.466v2.35c-.403-.102-.783-.22-1.45-.22-.76 0-1.503.48-1.503 1.446v7.432zM160.376 90.638h4.078v7.352h-1.205l-.463-1.086c-.742.883-1.344 1.285-2.507 1.285-1.97 0-3.336-1.405-3.336-3.714v-7.472c0-2.049 1.206-3.716 3.657-3.716 2.486 0 3.734 1.807 3.734 3.977v.924h-2.37c0-2.17-.441-2.733-1.427-2.733-.603 0-1.105.363-1.105 1.588v7.452c0 .923.301 1.525 1.168 1.525 1.004 0 1.364-.563 1.364-2.008v-1.406h-1.588zM170.556 97.99v-8.377c0-.541-.34-.782-.782-.782-.48 0-.924.301-1.446.685v8.474h-2.25V87.185h2.127v1.083c.946-.803 1.428-1.286 2.493-1.286 1.127 0 1.488.402 1.97 1.286 1.085-1.046 1.684-1.286 2.508-1.286 1.41 0 2.11.864 2.11 2.27v8.738h-2.25v-8.377c0-.541-.361-.782-.803-.782-.48 0-.924.301-1.423.685v8.474zM180.944 95.78c.44.322.843.56 1.284.56.603 0 1.086-.32 1.086-1.745v-4.018c0-1.424-.483-1.747-1.086-1.747-.44 0-.844.241-1.284.564zm-2.25 2.209v-14.5h2.25v4.618c.885-.724 1.345-1.126 2.327-1.126 1.404 0 2.293 1.048 2.293 3.013v5.182c0 1.97-.89 3.013-2.293 3.013-1.126 0-1.665-.382-2.409-1.324h-.04v1.124zM186.947 97.99V83.488h2.489v5.905h2.654v-5.905h2.489V97.99h-2.489V91.56h-2.654v6.429zM86.201 28.149c-.037 11.166-.848 24.139-.848 24.139l16.524.002-.069-47.752H85.354s-2.508 6.349-8.906 13.072c-6.827-6.718-8.585-13.072-8.585-13.072h-16.53L51.4 52.29l16.463-.002s-.93-12.973-.923-24.14c2.858 6.377 9.537 13.154 9.537 13.154s6.575-6.777 9.724-13.153M135.976 30.312c2.406-1.505 4.26-3.557 5.45-6.165a14.165 14.165 0 0 0 1.193-5.66c0-5.117-2.922-11.7-11.158-13.41-2.149-.456-4.111-.54-7.203-.54h-20.373V52.29h16.09V33.28s3.723 7.119 6.273 19.009h16.522c-2.04-12.739-6.393-20.676-6.794-21.978" fill="#fff"/><path d="M124.557 22.51c-.677.258-2.172.258-2.172.258s-.874 3.121-2.41 5.332V16.54h1.492c1.264 0 2.993 0 3.907.662.62.382 1.218 1.163 1.218 2.324 0 1.356-.778 2.5-2.035 2.984" fill="#f14d3e"/></svg>