<svg viewBox="0 0 200 100" xmlns="http://www.w3.org/2000/svg"><path d="M200 100H0V0h200v100" fill="#2744a0"/><path d="M9.497 75.255h1.475c1.867 0 2.55-1.075 2.55-3.145 0-2.097-.795-3.147-2.892-3.147H9.497v6.292m0-9.181h1.274c1.332 0 2.352-.908 2.352-2.61 0-1.897-.737-2.888-2.295-2.888H9.497v5.498m-3.514-8.388h5.212c3.772 0 5.443 1.925 5.443 5.41 0 1.76-.736 3.601-2.438 4.28 1.786.796 2.836 2.213 2.836 4.848 0 3.371-1.503 5.922-5.5 5.922H5.982v-20.46M23.328 70.551h2.834l-1.39-8.785h-.056l-1.388 8.785m-1.134 7.596h-3.4l3.769-20.461h4.364l3.77 20.46h-3.403l-.622-4.534h-3.854l-.625 4.535M32.733 57.685h3.517v15.444c0 1.5.595 2.24 1.87 2.24 1.273 0 1.87-.74 1.87-2.24V57.685h3.515v15.303c0 3.517-2.04 5.443-5.386 5.443-3.344 0-5.386-1.926-5.386-5.443V57.685M46.905 57.685h3.513v15.444c0 1.5.596 2.24 1.872 2.24s1.87-.74 1.87-2.24V57.685h3.514v15.303c0 3.517-2.041 5.443-5.384 5.443-3.344 0-5.385-1.926-5.385-5.443V57.685M61.076 78.147V57.686h3.261l4.277 11.705h.058V57.686h3.173v20.461h-3.06L64.31 65.365h-.059v12.782h-3.174M77.288 60.747h-3.4v-3.061h10.315v3.061h-3.398v17.4H77.29v-17.4M86.273 78.147V57.686h9.406v3.061h-5.894v5.271h4.536v3.062h-4.536v6.006h6.289v3.061h-9.801M102.37 66.865h1.243c1.902 0 2.61-.707 2.61-3.145s-.708-3.145-2.61-3.145h-1.243v6.29m0 11.28h-3.518V57.684h4.931c3.942 0 5.956 1.67 5.956 6.036 0 3.288-1.277 4.62-2.466 5.16l2.973 9.265h-3.569l-2.497-8.473c-.45.056-1.188.085-1.81.085v8.388M113.02 78.147V57.686h3.263l4.277 11.705h.058V57.686h3.17v20.461h-3.058l-4.48-12.782h-.055v12.782h-3.175M127.19 78.147V57.686h9.408v3.061h-5.896v5.271h4.538v3.062h-4.538v6.006h6.29v3.061h-9.802M139.77 78.147V57.686h3.517v8.332h3.74v-8.332h3.51v20.461h-3.51V69.08h-3.74v9.067h-3.517M168.04 57.685v20.461h-3.062V62.163h-.056l-3.174 15.983h-1.699l-3.177-15.983h-.055v15.983h-3.064V57.685h4.621l2.497 11.96h.052l2.498-11.96h4.619M171.27 78.147V57.686h9.407v3.061h-5.888v5.271h4.53v3.062h-4.53v6.006h6.288v3.061h-9.807M183.85 78.147V57.686h3.257l4.28 11.705h.054V57.686h3.18v20.461h-3.063l-4.48-12.782h-.056v12.782h-3.172" fill="#f14d3e"/><path d="M16.121 83.488v14.503h-2.168V86.664h-.04l-2.25 11.327H10.46L8.21 86.664h-.041v11.327H6V83.488h3.272l1.767 8.476h.041l1.768-8.476h3.272M21.905 92.506c-2.046 1.165-2.55 1.91-2.55 2.852 0 .703.364.984 1.045.984.624 0 1.124-.463 1.505-1.003v-2.833m-4.64-2.149c.122-2.19 1.509-3.375 3.617-3.375 2.09 0 3.273.964 3.273 2.934v6.928c0 .342.08.783.141 1.146h-2.149c-.02-.303-.101-.585-.12-.843-.844.68-1.547 1.042-2.63 1.042-1.527 0-2.292-1.042-2.292-2.43 0-2.371 1.568-3.675 4.8-4.899v-.644c0-.904-.36-1.385-1.104-1.385-1.023 0-1.247.605-1.284 1.526h-2.252M25.64 97.99V87.185h2.148v1.264h.04a2.923 2.923 0 0 1 2.552-1.467h.462v2.351c-.403-.103-.785-.221-1.444-.221-.764 0-1.508.48-1.508 1.446v7.432h-2.25M36.165 90.879v-.28c0-1.247-.441-1.769-1.245-1.769-.803 0-1.245.522-1.245 1.768v3.975c0 1.246.442 1.768 1.245 1.768.804 0 1.245-.522 1.245-1.768v-.683h2.25v.282c0 2.37-.924 4.017-3.495 4.017s-3.492-1.647-3.492-4.017v-3.173c0-2.37.921-4.017 3.492-4.017 2.531 0 3.455 1.587 3.495 3.897h-2.25M46.427 87.184v10.805h-2.13v-1.086c-.942.805-1.424 1.286-2.73 1.286-1.183 0-1.888-.863-1.888-2.267v-8.738h2.25v8.374c0 .544.32.783.802.783.483 0 .924-.3 1.448-.682v-8.475h2.248M51.911 90.175c-.16-.864-.561-1.345-1.286-1.345-.582 0-.984.303-.984.86 0 1.69 4.216 2.373 4.216 5.587 0 1.929-1.323 2.912-3.15 2.912-1.971 0-3.094-1.126-3.434-3.013l1.966-.543c.14.906.462 1.707 1.489 1.707.582 0 1.004-.338 1.004-.942 0-1.868-4.22-2.57-4.22-5.525 0-1.706 1.325-2.892 3.013-2.892 1.767 0 2.952 1.186 3.292 2.875l-1.906.319M61.124 89.994h.891c1.343 0 1.846-.5 1.846-2.228 0-1.725-.503-2.229-1.846-2.229h-.891v4.457m0 7.995h-2.49v-14.5h3.499c2.788 0 4.217 1.184 4.217 4.276 0 2.329-.902 3.276-1.747 3.657l2.106 6.567h-2.53l-1.764-6.005c-.322.04-.846.062-1.291.062v5.943M67.797 87.184h2.25v10.805h-2.25V87.184m0-3.696h2.25v2.049h-2.25v-2.049M76.072 91.161v-.563c0-1.246-.444-1.768-1.249-1.768-.798 0-1.24.522-1.24 1.768v.563h2.489m2.248 1.847h-4.737v1.565c0 1.246.442 1.768 1.24 1.768.805 0 1.249-.522 1.249-1.768v-.239h2.248c-.04 2.289-.987 3.856-3.497 3.856-2.568 0-3.49-1.647-3.49-4.018V91c0-2.37.922-4.017 3.49-4.017 2.571 0 3.497 1.647 3.497 4.017v2.01M84.083 89.393c-.441-.321-.843-.563-1.285-.563-.602 0-1.08.322-1.08 1.748v4.017c0 1.425.478 1.746 1.08 1.746.442 0 .844-.24 1.285-.562v-6.386m.121 8.596v-1.125h-.04c-.744.943-1.287 1.325-2.41 1.325-1.405 0-2.288-1.043-2.288-3.014v-5.18c0-1.966.883-3.013 2.287-3.013.984 0 1.448.402 2.33 1.125v-4.62h2.252V97.99h-2.13M92.339 91.161v-.563c0-1.246-.444-1.768-1.246-1.768s-1.246.522-1.246 1.768v.563h2.492m2.246 1.847h-4.738v1.565c0 1.246.443 1.768 1.246 1.768s1.246-.522 1.246-1.768v-.239h2.246c-.038 2.289-.981 3.856-3.492 3.856-2.571 0-3.495-1.647-3.495-4.018V91c0-2.37.924-4.017 3.495-4.017 2.57 0 3.492 1.647 3.492 4.017v2.01M95.868 83.488h2.252v14.503h-2.252V83.488M103.62 90.175c-.163-.864-.56-1.345-1.288-1.345-.58 0-.983.303-.983.86 0 1.69 4.218 2.373 4.218 5.587 0 1.929-1.326 2.912-3.151 2.912-1.97 0-3.092-1.126-3.439-3.013l1.97-.543c.142.906.463 1.707 1.49 1.707.576 0 1-.338 1-.942 0-1.868-4.216-2.57-4.216-5.525 0-1.706 1.326-2.892 3.014-2.892 1.764 0 2.952 1.186 3.29 2.875l-1.905.319M106.56 97.99V83.487h2.247v4.699c.827-.721 1.308-1.205 2.61-1.205 1.19 0 1.89.865 1.89 2.27v8.738h-2.249v-8.376c0-.542-.323-.783-.803-.783-.484 0-.925.302-1.448.685v8.474h-2.247M119.31 91.161v-.563c0-1.246-.441-1.768-1.244-1.768-.804 0-1.248.522-1.248 1.768v.563h2.492m2.252 1.847h-4.743v1.565c0 1.246.443 1.768 1.247 1.768.803 0 1.244-.522 1.244-1.768v-.239h2.252c-.039 2.289-.988 3.856-3.496 3.856-2.572 0-3.494-1.647-3.494-4.018V91c0-2.37.922-4.017 3.494-4.017 2.573 0 3.496 1.647 3.496 4.017v2.01M122.85 87.184h2.245v10.805h-2.245V87.184m0-3.696h2.245v2.049h-2.245v-2.049M130.98 97.99v-8.376c0-.542-.342-.783-.782-.783-.483 0-.926.302-1.446.685v8.474h-2.253V87.185h2.13v1.083c.945-.802 1.43-1.286 2.494-1.286 1.123 0 1.484.402 1.965 1.286 1.086-1.046 1.69-1.286 2.513-1.286 1.403 0 2.106.865 2.106 2.27v8.738h-2.248v-8.376c0-.542-.36-.783-.804-.783-.481 0-.922.301-1.422.685v8.474h-2.253M143.73 91.161v-.563c0-1.246-.443-1.768-1.243-1.768-.804 0-1.247.522-1.247 1.768v.563h2.49m2.248 1.847h-4.738v1.565c0 1.246.443 1.768 1.247 1.768.8 0 1.243-.522 1.243-1.768v-.239h2.248c-.04 2.289-.982 3.856-3.49 3.856-2.574 0-3.495-1.647-3.495-4.018V91c0-2.37.921-4.017 3.494-4.017 2.57 0 3.491 1.647 3.491 4.017v2.01M147.24 97.99V87.185h2.148v1.264h.036a2.923 2.923 0 0 1 2.55-1.467h.466v2.351c-.403-.103-.783-.221-1.45-.221-.76 0-1.503.48-1.503 1.446v7.432h-2.247M160.37 90.638h4.078v7.351h-1.206l-.462-1.085c-.742.883-1.344 1.284-2.508 1.284-1.97 0-3.336-1.404-3.336-3.713v-7.472c0-2.05 1.207-3.716 3.658-3.716 2.485 0 3.734 1.807 3.734 3.977v.923h-2.37c0-2.169-.442-2.733-1.427-2.733-.604 0-1.106.364-1.106 1.588v7.453c0 .922.302 1.524 1.169 1.524 1.004 0 1.364-.562 1.364-2.008v-1.406h-1.588v-1.967M170.56 97.99v-8.376c0-.542-.34-.783-.782-.783-.48 0-.924.302-1.446.685v8.474h-2.25V87.185h2.127v1.083c.946-.802 1.428-1.286 2.493-1.286 1.127 0 1.488.402 1.97 1.286 1.085-1.046 1.684-1.286 2.508-1.286 1.41 0 2.11.865 2.11 2.27v8.738h-2.25v-8.376c0-.542-.361-.783-.803-.783-.48 0-.924.301-1.423.685v8.474h-2.254M180.95 95.779c.44.323.843.561 1.284.561.603 0 1.086-.32 1.086-1.746v-4.017c0-1.425-.483-1.747-1.086-1.747-.44 0-.844.24-1.284.563v6.386m-2.25 2.21V83.488h2.25v4.618c.885-.723 1.345-1.125 2.327-1.125 1.404 0 2.293 1.047 2.293 3.012v5.183c0 1.97-.89 3.013-2.293 3.013-1.126 0-1.665-.382-2.408-1.324h-.04v1.124h-2.13M186.95 97.99V83.487h2.49v5.906h2.654v-5.906h2.488V97.99h-2.488v-6.429h-2.655v6.429h-2.489M86.198 28.152c-.037 11.166-.849 24.138-.849 24.138l16.523.002-.068-47.75H85.35s-2.508 6.349-8.906 13.072C69.617 10.897 67.86 4.542 67.86 4.542h-16.53l.067 47.75 16.462-.002s-.93-12.973-.923-24.138c2.858 6.376 9.537 13.153 9.537 13.153s6.575-6.777 9.724-13.153M135.96 30.315c2.406-1.505 4.26-3.557 5.45-6.164a14.165 14.165 0 0 0 1.192-5.66c0-5.117-2.922-11.7-11.157-13.41-2.149-.456-4.111-.54-7.202-.54H103.87v47.75h16.09V33.284s3.723 7.118 6.273 19.009h16.52c-2.04-12.738-6.393-20.675-6.794-21.976" fill="#fff"/><path d="M124.55 22.513c-.677.258-2.172.258-2.172.258s-.874 3.121-2.41 5.332v-11.56h1.492c1.264 0 2.992 0 3.907.662.62.382 1.218 1.163 1.218 2.324 0 1.356-.779 2.5-2.035 2.984" fill="#f14d3e"/></svg>