<svg viewBox="0 0 200 100" xmlns="http://www.w3.org/2000/svg"><g opacity=".7" stroke-width=".5"><path d="M0 0v100h200V0z" fill="#c78140"/><path d="M0 0v100h89.7c.14-1.66.51-3.9.74-3.87.15.02.24.96.16 3.58l-.09.29h15.59c-2.86-10.56-3.51-24.97-1.63-36.26 5.69 2.9 1.1 24.92 1.86 36.26H200V0zm90.36 42.06c0 .26-.88 4.92-.37 1.67.28-1.35.37-1.75.37-1.67zm-1.83 7.57c.34 0 .7.74.86 2.96-2.54 2.05-1.73-2.92-.86-2.96zm19.03 2.54c.3.04.25.72-.64 2.6-3.13 1.32-.12-2.71.64-2.6zm-25.63 18.5h.18c.6.11.7 1.21-.35 4.11-7.39 4.08-1.82-3.89.17-4.1zm6.2.16c2.3.06 5.82 17.13-.8 20.88.01-4.72-.6-9.42-.67-14.14.08-4.88.7-6.76 1.47-6.74zm-6.5 4.81c.29.03.75.52 1.44 1.82-1.26 3.95-2.47-1.9-1.44-1.82zm-2.68 4.12c3.7.2 5.55 12.24 2.9 16.9-8.57.42-.56-12.13-4.6-16.21a2.5 2.5 0 0 1 1.7-.7zm60.48 7.91a.7.7 0 0 1 .16 0c.47.08.37.76-1.52 2.54-1.53-1 .46-2.46 1.36-2.54zm-36.6 1.54c.16.03.2.77-.05 2.82-2.03 3.43-.44-2.9.05-2.82z" fill="#c27637"/><path d="M0 0v100h16.5c-.1-4.71 3.54-10.47 3.06-15.15 1.04-2.1 2-2.98 2.85-2.99 3.3-.05 4.9 12.86 3.06 18.14H38.6c1.03-.57 2.35-1.19 2.7-1.19.25 0 .03.31-1.1 1.15l-.11.04h4.73c-.84-6.32 3.5-17.6-6.9-10.92.03 10.27-4.32 2.46-2.78-3.27-1.72-12.57 13.51 4.01 10.5-9.26l.4-.02c7.45-.15 4.48 15.11 1.32 23.47H73.3c.21-21.95 4.59-43.57 5.74-65.48 4.3-8.55-5.74-27.81 6.33-29.04 1.59 19.55-2.6 39.13-.9 58.65 3.87-6.6 1.03-23.25 2.98-33.56C86.36 20.6 90.6 9.89 89.83 0H87.1c-.16.5-.42 1.11-.84 1.84-.93-.62-1.34-1.26-1.43-1.84H27.61c-1.56 2.87-1.88 2.06-1.97 0H0zm135.84 0c-2.18 20.61-.99 41.36-.83 62.03.1 2.6-.65 21.71 1.59 13.37 2.35-14.22 1.57 1.92 5.9 6.05 6.69 3.18 4.14 15.55.59 5.37-2.64 3.58-3.56 8.17-3.77 13.18H200V0h-55.45c.23.9-.63 1.78-3.83 2.59-.82 8.08-2.86.62-4.46-2.59zM93.82 0c-.06 23.12-2.83 46.2-1.2 69.31 1.64-1.73 8 8.69 1.28 11.9a135.54 135.54 0 0 0-3.04 18.8h8.79c.07-1.25.25-2.4.6-3.41 1.69-13.62-1.39-27.21-6.19-37.3 8.26 6.33 7.56-9.9 6.93-14.74C104.02 29.9 103.92 14.9 104.3 0zm12.92 0c2.6 9.68-.12 20.78.35 30.7 1.56 23.1 1.16 46.2.43 69.3h8.05c-.78-.9-.21-1.71.46-1.72.5 0 1.05.47 1.1 1.72h9.95c.01-6.93-.36-13.86-.9-20.8 2.32-15.49-1.26-31.27 1.8-46.72 2.3-15.9 1.74 6.9 3.21 5.79 4.13-12.3.72-25.56 1.32-38.26h-1.73a31.2 31.2 0 0 0-.29 4.5c-1.1 9.75-2.02 2.24-2.62-4.5h-1.98c-.04 1.44-.25 2.88-.84 2.63l.56-2.48V.01h-10.43a9.27 9.27 0 0 1-1.04 2.83 10.78 10.78 0 0 1-1.46-2.83zM48.06 1.2a.4.4 0 0 1 .1 0c.7.13 1.09 2.17-.09 7.78-2.94-2.78-1.17-7.67-.01-7.78zm4.82.26H53c.5.1.63 1.2-.26 4.11l-.23.2-.55.48c-3.92 1.2-.48-4.64.9-4.79zm-32.8 3.48c.72-.04 1.05 1.32 0 5.47-5.1 1.4-1.6-5.4 0-5.47zm125.12 2.4c.3-.07.12.72-1.29 3.28-2.44 1.17.61-3.14 1.29-3.28zm-47.37.14c.16-.04.2.37-.07 1.65l-.18.18c-1.9 2.56-.24-1.7.25-1.83zm-71.7.75h.12c1.3.18 4.22 5.89 1.27 8.03.33.42.48 1.9.2 5.12-3.78 3.72-2.41-2.62-1.1-4.66a5.9 5.9 0 0 1-1.7.32c-1.35-1.57 1.04-2.94 1.33-4.4-.83-3.13-.65-4.34-.12-4.4zm.48 8.5c.35-.13.65-.29.91-.47-.24-.3-.57-.07-.9.46zm22.4-5.84c3.63 1.6 4.93 18.26.33 24.8-2.62-6.24-2.17-17.34-.32-24.8zm76.11 1.05c.81-.03 1.37 1.07-.53 3.76-1.63-2.25-.38-3.72.53-3.76zm5.33 2.2c1.1.05 1.6 1.63-.3 6.2-6.08-.85-1.8-6.3.3-6.2zm8.88 4.12c.81.05 1.3 1.61.5 5.83l.27 2.38-.58 1.47c-5.34-2.55-1.98-9.8-.2-9.68zm3.86 2.74c1.23-.02 2.78 2.9 1.3 7.44-.33 3.4-2.27-.2-2.05-1.4-.98-4.21-.21-6.02.75-6.04zm-124.52.89c.15 0 .27.43.32 1.65-1.63 3.98-.85-1.65-.32-1.65zm98.81 1.67c.12-.06.31.35.6 1.64-.49 4.96-1.02-1.41-.6-1.64zm-20.2.83c.94.1 1.5 1.76-.37 6.06-3.01-2.97-1.19-5.91.17-6.06h.2zm43.03 8c.76 0 .96.92-1 3.73-3.1-1.03-.27-3.7 1-3.72zm-22.04 1.51c2.23 5.6-4.2 1.36 0 0zm25.13 3.13c1.31-.21 2.72 12.62-.42 16.59-1.4-3.22-1.1-6.8-.74-10.2.22-4.52.68-6.3 1.16-6.39zm-46.56 1.46c.85.06 1.4 1.82.74 6.91-6.49 2.42-2.76-7.04-.74-6.91zm43 .81c.56-.01.69.96-.5 3.88l-.1.11c-3.97.84-.64-3.95.6-3.99zM23.82 40.68c1.15.08 2.34 1.62 2.6 5.99-7 .1-5.15-5.77-2.83-5.99h.23zm21.81 2.78c11 .78 3.3 21.1 4.23 29.75-1.8.2-2.65-2.24-3.46-3.5.55-8.25-4.5-18.78-.77-26.25zm72.1.32c.23-.09.42.65.4 2.96-2.27 4.97-1.1-2.7-.4-2.96zm-53.04.35c2-.02 2.84 1.36-2.61 5.09-4.46-2.68.04-5.05 2.61-5.09zm31.61 4.15c.32 0 .23.74-.82 2.9-3.4 1.94.02-2.9.82-2.9zm35.72.26c-.98-.08-2.57 2.9-1.25 7.97 2.5-5.47 2.12-7.9 1.25-7.97zm-114.46.39c.63.01 1.09.82.35 3.16-2.88-1-1.39-3.19-.35-3.16zm120.4 1.18c1.65.15 4.32 5.1 1.86 9.48-3.31 4.54-2.53-1.67-2.45-3.42-1.05-4.51-.42-6.15.58-6.06zM24.78 52.73c.2 0 .54.53 1.06 1.99-.26 8.42-1.93-1.96-1.06-2zm119.35 3.71c.21.06.46.75.69 2.52-1.84 5.04-1.45-2.73-.69-2.52zM63.7 57.9c.24 0 .73.38 1.57 1.44-.14 3.52-2.42-1.42-1.57-1.44zm-16.83.36c-.61.05-.88.9.22 3.32 3.4-.57.96-3.42-.22-3.32zm-27.82 1.5c2.1.18 2.3 10.77.83 13.84-4.35-1.46-3.27-7.63-3.06-11.14.9-1.98 1.64-2.75 2.23-2.7zM116.82 61c1.53-.07 2.6.83-.98 3.2-3.1-1.81-.76-3.13.98-3.2zm14.76.2c-1.2.02-3.2 3.63-.96 7.82 2.37-5.71 1.9-7.85.96-7.83zm-90.01 5.25c.28-.01.7.45 1.26 1.73-1.55 4.36-2.26-1.68-1.26-1.73zm22.1.36l.19.01c.84.13.92 1.67-1.2 5.9-5.98.33-.99-5.78 1.01-5.9zM25.2 67.95c.24-.04.54.67.89 2.8-1.6 4.2-1.58-2.68-.89-2.8zm91.54 2.4c.53-.05 1 .46 1.05 2.08-4.1 1.82-2.4-1.95-1.05-2.08zm-74.86 1.37c.23-.04.5.46.71 1.98-1.86 3.15-1.41-1.86-.71-1.98zm70.6 1.52c.4.05.59.69-.14 2.48-2.28-.47-.65-2.56.13-2.48zm11.3.84c.24.06.66.57 1.31 1.82-.16 6.26-2.37-2.06-1.31-1.82zm-6.48 2.74c.52.05.73.9-.4 3.24l.02.15c-2.21-1.29-.5-3.46.38-3.39zm14.32.21c-2.02 7.47-2.49 15.19-2.38 22.97h3.18c-.09-7.78-.53-15.53-.8-22.97zm12.61.17c.3 0 .52.42.43 1.65-3.05 2.28-1.33-1.63-.43-1.65zm-77.27 3.13c1.61.01 2.96 13.14.8 16.63-5.8 6.94-1.51-10.3-2.26-12.3.45-3.1.97-4.33 1.46-4.33zM61.72 82c2.15.06 4.09 1.12-.64 2.98-3.87-2.12-1.5-3.05.64-2.98zm74.32 5.55c-1.18.9-1.4 6.36-1.42 12.46h2.42c-.28-4.18-.93-8.4-1-12.46zM98.1 88.78c.34-.01.56.56.43 2.25-3.48 3.2-1.44-2.2-.43-2.25zm13.92 3.17c.25-.01.2.78-.57 3.14-2.62 2.2-.06-3.1.57-3.14zm-69.38 1.1c2.04-.1 3.45 1.9-.8 1.15l-.65-.67a2.9 2.9 0 0 1 1.45-.48zm41.69 1.01c-1.02.38-1.63 2.68-2 5.94h2.07c-.04-1.99-.08-3.97-.07-5.94zM21.8 98.35a3.64 3.64 0 0 0-3 1.65h4.79c-.22-1.09-.94-1.6-1.8-1.65z" fill="#b7672d"/><path d="M13.46 0c-.86 3.78-1.53 8.16-1.43 10.22 1.89 8.42-4.48 10.13-5.38 1.14.12-2.38.58-7.04.56-11.36H.41l.16.96A4.26 4.26 0 0 1 0 2.38v15.78c.41-.3.56-.1 0 1.14v70.94c1.03.07 1.57 1.75.3 6.6-.1.03-.2.03-.3.05v1.72c.79-.25 1.44.1 1.42 1.4H4.1c.01-9.5.17-19 .54-28.48-.08-15.55 2.12-31 2.32-46.56 9.04-2.14 3.78 17.85 4.69 24.15-3.78 14.22 2.74 28.1.68 42.04A62.3 62.3 0 0 0 10.3 100h5.07c.11-7.9.22-15.8.1-23.7-2.04-25.44.83-50.85 1.12-76.3zm60.5 0c.45 5.48 3.14 11.8-.87 16.52 1.2 16.63-1.44 34.14-1.51 51.22 6.9-9.47 2.63-21.85 4.92-32.54C78 23.6 78.15 11.68 77.7 0zm34.23 0c.73 15.32 1.1 30.67.62 46.01 4.9-9.7 1.85-26.77 2.49-38.76-.38-1.4.07-4.27.56-7.25zm10.75 0c.03 18.82.14 37.63.04 56.45-.5 14.5-.63 29.03-.73 43.55h2.9c.02-2.42 0-4.84-.09-7.26.53-23.3-.33-46.62.56-69.93-1.4-6.25 1.77-15.68 1.55-22.81zm34.03 0c-.54 5.4 5.29 11.64 7.22 18.06-1 13.83-3.23-3.4-5.88-6.95-2.17 9.77-7.37 23.4-4.1 34.32 11.7-1.46.67 10.84 2.9 18.11-2.94 2.54-2.15 4.91 2.96 7.6-4.23 3.85.76 12.78 5.63 5.84 4.07-10.9-1.2-26.35 6.08-36.57 1.08 16.26-4.26 32.24-4.27 48.16-1.18 11.31-7.56 4.27-6.16-2.68-1.7 4.64-3.98 8.97-5.5 14.1h6.56c.43-.44.92-.76 1.3-.76.33 0 .56.22.62.77H189c.04-4.8.12-9.62.25-14.43-4.65-15.94-3.54-32.48-1.86-48.8 6.7 4.08.3 17.2 4.84 23.96 2.63-3.36 6.43-1.46 6.84 4.54-10.41-.56-.33 11.94-4.53 18.94 1.11 5.52-.66 10.74-1.5 15.79H200V53.7c-.68.26-.44-1.09 0-2.3V0h-6.84c-.17.89-.25 1.78-.21 2.65.4.19.65.77.24 1.7.24.98.67 1.9 1.31 2.73-2.97 6.42-6.35-1.98-4.5-7.08h-9.47c.13.36.27.72.45 1.1 4.48 6.95-8.28 20.54 1.97 21.29-4.74 9.12-8.01.57-6.12-6.01-.61 0-6.02 4.96-5.58-5.13 5.17-1.88 2.32-7.3-.1-11.25zm40.22 4.35a8.73 8.73 0 0 1-.24-1.7c-.74-.33-1.98.64-.77 3.2a5.7 5.7 0 0 0 1-1.5zM30.59 0a6.8 6.8 0 0 0 .14 5.64c1.73-2.5 2.67-4.34 3.1-5.64zm4.79 0c-.74 4.75-1.23 9.86-2.27 12.5-7.33 15.27-5 32.44-5.09 48.78 1.04 12.87.5 25.8.19 38.72h2.93c.17-5.35.48-10.68 1.25-15.98 4.59-15.94 1.4-32.56 5.73-48.51.31-12.31 5.09-23.68 6.82-35.5zm24.17 0c-2.41 7.87-2.33 18.22-3.94 25.8-3 24.6-1.46 49.9-6.33 74.2h5.48c.3-2.09.51-4.2.63-6.32-.26-19.55 4.69-38.72 4.33-58.3-.93-12.14 3.68-23.87 4.6-35.38h-4.77zm101.04 4.63c.32-.02.8.19 1.48.8-1.4 3.93-2.9-.69-1.48-.8zm-19.68 8.19c-.71-.01-1.3.77-.1 2.87 2.13-1.53 1-2.86.1-2.87zm28.85 8.57c.32-.05.55 1.06.47 4.38-3.23 6.5-1.44-4.22-.47-4.38zm5.2.47c1.42-.05 2.06.71-1.56 2.92l-.56-.07c-2.87-1.39.28-2.79 2.11-2.85zm18.29.01c3.14.14 9.25 6.33 2.51 8.88.04 5.14-2.8-2.13-3.01-3.3-1.79-3.92-1.17-5.45.2-5.57l.3-.01zm-14.78 4.98c.22-.02.6.15 1.22.61 1.08 5.18-2.44-.5-1.22-.61zm-25.67 8.14c1.43-.12 2.91 1.94 1.39 7.17.52 1.05-1.4 2.01-1.57.24-2.98-4.33-1.43-7.27.18-7.4zm44.37 1.75c1.04-.07 2.16 1.4 2.3 6.04-5.99-.15-4.28-5.9-2.3-6.04zm-.84 10.75c1.39-.1 2.57 1.72 1.2 7.04l-1.3 1c-4.39-3.6-1.92-7.89.1-8.04zm-46.81 3.02c-1.17-.05-2.16 1.03-.32 4.08 3.6-2.06 1.82-4 .32-4.08zM110.31 52c-.98-.01-1.91 1.33-1.01 5.2 3.96-2.25 2.44-5.18 1.01-5.2zm-53.15 4.65c.29-.02.37.7-.1 2.92-2.6 2.14-.61-2.86.1-2.92zm92.59.59c-.35.02-.6.5-.36 1.87 2.37.24 1.12-1.92.36-1.87zm25.31 1.81c.42-.04.84.78 1.16 3.1-4.02 8.1-2.65-2.95-1.16-3.1zm-1.2 8.66c.56-.08 1.09.64 1.2 2.99-4.34 2.72-2.65-2.78-1.2-3zm3.59 1.88c1.36.1 3.96 3.03 3.65 6.82-.93 3.74-4.21-.4-3.4-2.4-1.55-3.22-1.19-4.48-.25-4.42zm-4.65 4.7c3.2 6.8-5.7 2.89 0 0zm-101.94.77c-.47.04-.7.63.24 2.23 2.03-.82.55-2.29-.24-2.23zm107.96 3.54c.59-.07.82.99-.23 4.07L177 84.23c-1.17-2.27.83-5.52 1.82-5.64zm-106.98.7c-.12 0-.33.5-.68 1.85.28 4.3 1.1-1.89.68-1.85zm98.69.93c.72-.06 1.54.78 1.54 3.46-3.65-.77-2.74-3.37-1.54-3.46zM9.22 80.4c-.24.01-.36.62-.16 2.31 2.67 2.9.88-2.36.16-2.31zm171.55 2.83c.86.23 3.4 7.84 2.55 11.01-3.96 1.36-2.18-4.24-2.29-6.11-.64-3.42-.64-4.8-.34-4.9h.08zm-10.52 2.86c1.51-.1 2.74 1.89-1.26 5.49-1.63-3.68-.08-5.4 1.26-5.49zm-98.5 4.52c-1.3.5-1.54 4.65-1.65 9.4H72c-.05-3.15-.32-6.34-.25-9.4z" fill="#ac5a25"/></g><text transform="matrix(.5 0 0 .5 .14 8.03)" x="15.15" y="61.91" font-family="'Times New Roman', serif" font-size="61.33" font-style="italic" font-weight="bold" lengthAdjust="spacingAndGlyphs" textLength="374">Schreiner Tom</text><path d="M7.88 43.98a.74.74 0 0 0-.65.37.76.76 0 0 0 0 .76c.13.23.38.38.65.37h184.24c.27 0 .52-.14.65-.37a.76.76 0 0 0 0-.76.74.74 0 0 0-.65-.37H7.88" color="#000" fill-rule="evenodd" solid-color="#000000"/><text transform="translate(1.58 -12.2)" x="59.82" y="93.74" font-family="'Times New Roman', serif" font-size="18" font-weight="bold" stroke-width=".5" lengthAdjust="spacingAndGlyphs" textLength="77.5">nach Maß</text><text transform="translate(-.85 -12.2)" x="6.97" y="76.43" font-family="'Times New Roman', serif" font-size="18" font-weight="bold" textLength="188">Möbel und Innenausbau</text></svg>