<svg xmlns="http://www.w3.org/2000/svg" width="200" height="100" viewBox="0 0 200 100"><path d="M55.233 56.187c2.114 10.216 61.855 11.7 73.557 13.299-24.014-4.44-82.076-4.907-63.213-21.673-5.154 2.601-11.008 5.165-10.344 8.374z" fill="#b2061a" stroke="#7c000e" stroke-width=".31980630000000004"/><path d="M96.609 7.75c-3.512 6.61-10.934 12.329-11 23.644-.052 8.643 12.083 11.452 14.448 26.927 3.854-9.285 9.838-18.266 1.97-29.226-9.19-9.683-5.629-14.931-5.418-21.344z" fill="#c14532" stroke="#781303" stroke-width=".33337384"/><path d="M99.4 5.452c3.123 7.767-.104 16.674 3.777 19.538l7.224-5.582c-1.461-5.597-6.652-9.596-11-13.956z" fill="#b2071b" stroke="#800012" stroke-width=".31980630000000004"/><path d="M122.55 13.661c-6 4.474-13.733 8.61-17.239 14.285 9.03 14.91.816 19.942-1.314 28.076 4.962-5.191 16.02-12.45 13.792-21.509-1.307-7.957 2.205-14.612 4.762-20.852z" fill="#e0a28a" stroke="#967065" stroke-width=".31980630000000004"/><path d="M97.594 58.978c-4.771-14.973-10.71-14.453-13.956-24.3-1.855-5.628.34-11.406 3.612-16.42-3.057-6.465-7.687-7.69-11.986-10.015 5.86 7.387 5.089 17.102 5.254 27.091.179 10.775 9.827 17.11 17.076 23.644z" fill="#5d4518" stroke="#473410" stroke-width=".31980630000000004"/><path d="M106.132 57.336c8.303-5.436 18.391-7.658 22.658-20.36 2.314-9.553 8.07-13.373 12.479-17.896-7.057-1.306-14.012 4.012-20.196 11 3.45 11.706-5.588 18.965-14.941 27.256z" fill="#b3071b" stroke="#7c000e" stroke-width=".31980630000000004"/><path d="M91.19 56.35C75.657 38.318 75.387 43.118 75.758 25.32c-.07-7.348-11.54-6.243-18.718-7.06 6.117 4.955 12.208 3.579 12.15 21.18-.018 5.44 14.11 12.572 22.002 16.912z" fill="#5d4518" stroke="#473410" stroke-width=".31980630000000004"/><g font-weight="400" letter-spacing="0" word-spacing="0"><path style="line-height:7.04469061px;-inkscape-font-specification:Utsaah" d="M0 90.016l2.732-.376q.214 1.449 1.26 2.22 1.045.753 2.924.753 1.9 0 2.817-.677.918-.678.918-1.6 0-.809-.811-1.298-.555-.32-2.818-.81-3.01-.677-4.183-1.166-1.174-.49-1.772-1.355-.597-.884-.597-1.92 0-.959.49-1.768.491-.828 1.345-1.374.64-.414 1.75-.696 1.11-.301 2.391-.301 1.9 0 3.33.49 1.451.488 2.134 1.316.704.828.96 2.22l-2.689.32q-.192-1.11-1.067-1.73-.875-.621-2.476-.621-1.9 0-2.71.564-.812.546-.812 1.28 0 .489.342.865.341.377 1.046.64.427.132 2.433.621 2.924.678 4.077 1.13 1.152.432 1.814 1.279.662.828.662 2.07 0 1.204-.812 2.277-.81 1.072-2.326 1.656-1.494.583-3.415.583-3.16 0-4.824-1.148Q.47 92.293 0 90.016zM27.32 89.038l2.711.32q-.448 2.465-2.283 3.857-1.815 1.393-4.483 1.393-3.33 0-5.357-1.92-2.028-1.919-2.028-5.494 0-2.315.875-4.046.875-1.75 2.647-2.616 1.793-.884 3.885-.884 2.646 0 4.311 1.185 1.686 1.186 2.156 3.35l-2.668.357q-.384-1.43-1.366-2.164-.96-.733-2.327-.733-2.091 0-3.393 1.317-1.281 1.317-1.281 4.158 0 2.88 1.238 4.197 1.26 1.298 3.287 1.298 1.622 0 2.69-.865 1.088-.885 1.387-2.71zM32.358 94.288V74.53h2.753v7.094q1.921-1.976 4.845-1.976 1.815 0 3.138.64 1.323.62 1.9 1.73.576 1.092.576 3.2v9.07h-2.753v-9.07q0-1.825-.897-2.653-.896-.828-2.518-.828-1.238 0-2.306.564-1.067.565-1.536 1.524-.449.96-.449 2.635v7.828zM60.404 94.288V92.18q-1.9 2.428-5.144 2.428-1.451 0-2.689-.47-1.238-.49-1.857-1.224-.598-.734-.832-1.806-.171-.715-.171-2.258v-8.863h2.753v7.922q0 1.9.171 2.559.256.96 1.089 1.505.832.546 2.07.546t2.326-.546q1.089-.564 1.537-1.524.448-.978.448-2.804v-7.658h2.754v14.301zM66.082 90.016l2.732-.376q.213 1.449 1.26 2.22 1.045.753 2.923.753 1.9 0 2.818-.677.918-.678.918-1.6 0-.809-.811-1.298-.555-.32-2.818-.81-3.01-.677-4.183-1.166-1.174-.49-1.772-1.355-.598-.884-.598-1.92 0-.959.491-1.768.491-.828 1.345-1.374.64-.414 1.75-.696 1.11-.301 2.39-.301 1.9 0 3.33.49 1.452.488 2.135 1.316.704.828.96 2.22l-2.689.32q-.192-1.11-1.067-1.73-.875-.621-2.476-.621-1.9 0-2.71.564-.812.546-.812 1.28 0 .489.342.865.341.377 1.046.64.426.132 2.433.621 2.924.678 4.077 1.13 1.152.432 1.814 1.279.661.828.661 2.07 0 1.204-.81 2.277-.812 1.072-2.327 1.656-1.494.583-3.415.583-3.16 0-4.824-1.148-1.644-1.167-2.113-3.444zM88.814 92.124l.405 2.145q-1.174.207-2.092.207-1.494 0-2.326-.414-.811-.414-1.153-1.091-.341-.697-.341-2.88v-8.223H81.3v-1.881h2.007V76.43l2.732-1.449v5.006h2.775v1.881h-2.775v8.355q0 1.054.15 1.355.149.282.469.47.341.17.939.17.47 0 1.216-.094zM102.623 89.678l2.84.32q-.663 2.182-2.498 3.406-1.814 1.204-4.632 1.204-3.564 0-5.656-1.92-2.07-1.938-2.07-5.438 0-3.613 2.091-5.607 2.113-1.995 5.486-1.995 3.244 0 5.314 1.957t2.07 5.495q0 .225-.02.658H93.444q.15 2.352 1.494 3.613 1.366 1.242 3.415 1.242 1.516 0 2.583-.696 1.067-.696 1.686-2.24zm-9.028-3.914h9.071q-.192-1.807-1.046-2.71-1.323-1.411-3.415-1.411-1.9 0-3.202 1.129-1.28 1.11-1.408 2.992zM108.898 94.288V79.987h2.476v2.164q.96-1.525 1.75-2.014.812-.49 1.772-.49 1.388 0 2.818.791l-.94 2.258q-1.003-.527-2.027-.527-.897 0-1.622.47-.705.471-1.004 1.337-.47 1.28-.47 2.823v7.489z" font-size="24.046" font-family="Utsaah" fill="#66451a"/><path style="line-height:7.04469061px;-inkscape-font-specification:Arial" d="M134.683 92.361q-1.128 1.103-2.45 1.663-1.322.544-2.873.544-2.838 0-4.495-1.694-1.357-1.383-1.357-3.077 0-1.523 1.093-2.735 1.11-1.212 3.314-2.145-1.252-1.259-1.675-2.051-.405-.793-.405-1.523 0-1.477 1.304-2.564 1.304-1.088 3.279-1.088 1.903 0 3.102 1.025 1.216 1.026 1.216 2.471 0 2.316-3.508 3.963l3.332 3.73q.564-.98.881-2.269l2.362.45q-.617 2.13-1.657 3.513 1.287 1.492 2.891 2.502l-1.516 1.585q-1.375-.777-2.838-2.3zm-4.618-8.5q1.463-.762 1.904-1.337.44-.59.44-1.29 0-.84-.599-1.368-.6-.528-1.498-.528-.917 0-1.534.528-.617.529-.617 1.275 0 .388.212.808.229.404.67.886zm3.19 6.915l-4.177-4.538q-1.833.964-2.485 1.803-.635.823-.635 1.631 0 .995.899 2.067.899 1.057 2.538 1.057 1.023 0 2.116-.56 1.092-.559 1.745-1.46z" font-size="19.858" font-family="Arial" fill="#b8192a"/><path style="line-height:7.04469061px;-inkscape-font-specification:Utsaah" d="M146.853 94.288V74.53h2.753V85.8l6.51-5.814h3.565l-6.212 5.306 6.83 8.995h-3.372l-5.379-7.32-1.942 1.656v5.664zM161.452 87.137q0-3.97 2.498-5.89 2.091-1.6 5.1-1.6 3.352 0 5.465 1.94 2.134 1.937 2.134 5.343 0 2.766-.939 4.347-.939 1.58-2.732 2.465-1.793.866-3.927.866-3.394 0-5.507-1.92-2.092-1.938-2.092-5.55zm2.818 0q0 2.748 1.366 4.121 1.366 1.355 3.415 1.355t3.415-1.373q1.366-1.374 1.366-4.178 0-2.672-1.387-4.027-1.366-1.374-3.394-1.374-2.05 0-3.415 1.374-1.366 1.355-1.366 4.102zM179.894 94.288V74.53h2.753v7.094q1.921-1.976 4.845-1.976 1.815 0 3.138.64 1.323.62 1.9 1.73.576 1.092.576 3.2v9.07h-2.754v-9.07q0-1.825-.896-2.653-.897-.828-2.519-.828-1.238 0-2.305.564-1.067.565-1.537 1.524-.448.96-.448 2.635v7.828zM197.247 94.288V74.53H200v19.758z" font-size="24.046" font-family="Utsaah" fill="#66451a"/></g></svg>