<svg width="200" height="100" viewBox="0 0 200 99.999997" xmlns="http://www.w3.org/2000/svg"><g transform="matrix(1.21924 0 0 -1.21924 -171.382 238.623)"><circle transform="scale(1 -1)" cx="245.9" cy="-156.87" r="9.332" fill="#039" fill-rule="evenodd" stroke="#000" stroke-width=".818"/><path d="M208.55 129.66l5.4-5.785 44.355 42.683z" fill="#039" fill-rule="evenodd"/><path d="M208.55 129.66l5.4-5.785 44.355 42.683z" fill="none" stroke="#000" stroke-miterlimit="10" stroke-width=".964"/><circle transform="scale(1 -1)" cx="245.88" cy="-156.78" r="7.293" fill="#fff" fill-rule="evenodd" stroke="#000" stroke-width=".75"/><path d="M220.25 195.23h2.186v-8.87h-2.186z" fill="#039" fill-rule="evenodd"/><path d="M220.25 195.23h2.186v-8.87h-2.186z" fill="none" stroke="#000" stroke-miterlimit="10" stroke-width=".964"/><path d="M271.81 134.54v2.314h8.742v-2.314z" fill="#006" fill-rule="evenodd"/><path d="M271.81 134.54v2.314h8.742v-2.314z" fill="none" stroke="#000" stroke-miterlimit="10" stroke-width=".964"/><path d="M271.81 165.53l.771-1.286-6.3-3.728-.77 1.286z" fill="#039" fill-rule="evenodd"/><path d="M271.81 165.53l.771-1.286-6.3-3.728-.77 1.286z" fill="none" stroke="#000" stroke-miterlimit="10" stroke-width=".964"/><path d="M249.82 186.61l1.286-.771-3.6-6.3-1.286.643z" fill="#039" fill-rule="evenodd"/><path d="M249.82 186.61l1.286-.771-3.6-6.3-1.286.643z" fill="none" stroke="#000" stroke-miterlimit="10" stroke-width=".964"/><path d="M191.07 186.74l1.286.771 3.6-6.3-1.286-.77z" fill="#039" fill-rule="evenodd"/><path d="M191.07 186.74l1.286.771 3.6-6.3-1.286-.77z" fill="none" stroke="#000" stroke-miterlimit="10" stroke-width=".964"/><path d="M170.11 164.11l.771 1.286 6.3-3.6-.771-1.286z" fill="#039" fill-rule="evenodd"/><path d="M170.11 164.11l.771 1.286 6.3-3.6-.771-1.286z" fill="none" stroke="#000" stroke-miterlimit="10" stroke-width=".964"/><path d="M182.07 167.84l47.569-45.126 4.885 5.271c-17.545 13.202-35.12 26.374-52.454 39.855z" fill="#039" fill-rule="evenodd"/><path d="M182.07 167.84l47.569-45.126 4.885 5.271c-17.834 13.45-36.627 27.59-52.454 39.855z" fill="none" stroke="#000" stroke-miterlimit="10" stroke-width=".964"/><text transform="scale(.99034 -1.0098)" x="242.799" y="-154.432" font-family="'Copperplate Gothic Bold'" font-size="7.639" font-weight="bold" stroke-width="1.273"><tspan x="242.799" y="-154.432">R</tspan></text><text transform="scale(.99034 -1.0098)" x="249.16" y="-150.994" font-family="'Copperplate Gothic Bold'" font-size="7.639" font-weight="bold" stroke-width="1.273"><tspan x="249.16" y="-150.994">F</tspan></text><text transform="scale(1 -1)" x="166.247" y="-128.218" font-family="'Copperplate Gothic Light'" font-size="11" letter-spacing="1.275" stroke="#000" stroke-width=".75" word-spacing="0" style="line-height:125%"><tspan x="166.247" y="-128.218"><tspan font-size="13">D</tspan>ER</tspan><tspan x="166.247" y="-114.037"><tspan font-size="13">U</tspan>HRENDOKTOR</tspan></text></g></svg>