<svg xmlns="http://www.w3.org/2000/svg" id="svg2" viewBox="0 0 200 100" width="200" height="100"><style id="style2">.st0{stroke:#000;stroke-width:.8179}.st0,.st1{fill:#039}.st2,.st3{stroke:#000}.st2{stroke-miterlimit:10;fill:none;stroke-width:.9642}.st3{fill:#fff;stroke-width:.75}.st4{fill:#006}.st5{font-family:&apos;ArialMT&apos;}.st6{font-size:18.6667px}.st7{font-family:&apos;Arial-BoldMT&apos;}.st8{font-size:18.8533px}.st9{font-size:14.6667px}.st10{font-size:13.75px}</style><g id="g10" transform="matrix(1.33333 0 0 -1.33333 -222.4 249.6)"><g id="g4639" transform="matrix(.8984 0 0 .8984 40.948 11.4)"><circle r="9.3" cy="156.9" cx="245.9" class="st0" id="path166" fill="#039" stroke="#000" stroke-width=".818"/><path d="M208.6 129.7l5.4-5.8 44.4 42.7z" class="st1" id="path142" fill="#039"/><path d="M208.6 129.7l5.4-5.8 44.4 42.7z" class="st2" id="path146" fill="none" stroke="#000" stroke-width=".964" stroke-miterlimit="10"/><circle r="7.3" cy="156.8" cx="245.9" class="st3" id="path973" fill="#fff" stroke="#000" stroke-width=".75"/><path d="M220.3 195.2h2.2v-8.9h-2.2z" class="st1" id="path182" fill="#039"/><path d="M220.3 195.2h2.2v-8.9h-2.2z" class="st2" id="path186" fill="none" stroke="#000" stroke-width=".964" stroke-miterlimit="10"/><path d="M271.8 134.5v2.3h8.7v-2.3z" class="st4" id="path188" fill="#006"/><path d="M271.8 134.5v2.3h8.7v-2.3z" class="st2" id="path192" fill="none" stroke="#000" stroke-width=".964" stroke-miterlimit="10"/><path d="M271.8 165.5l.8-1.3-6.3-3.7-.8 1.3z" class="st1" id="path194" fill="#039"/><path d="M271.8 165.5l.8-1.3-6.3-3.7-.8 1.3z" class="st2" id="path198" fill="none" stroke="#000" stroke-width=".964" stroke-miterlimit="10"/><path d="M249.8 186.6l1.3-.8-3.6-6.3-1.3.6z" class="st1" id="path200" fill="#039"/><path d="M249.8 186.6l1.3-.8-3.6-6.3-1.3.6z" class="st2" id="path204" fill="none" stroke="#000" stroke-width=".964" stroke-miterlimit="10"/><path d="M191.1 186.7l1.3.8 3.6-6.3-1.3-.8z" class="st1" id="path206" fill="#039"/><path d="M191.1 186.7l1.3.8 3.6-6.3-1.3-.8z" class="st2" id="path210" fill="none" stroke="#000" stroke-width=".964" stroke-miterlimit="10"/><path d="M170.1 164.1l.8 1.3 6.3-3.6-.8-1.3z" class="st1" id="path212" fill="#039"/><path d="M170.1 164.1l.8 1.3 6.3-3.6-.8-1.3z" class="st2" id="path216" fill="none" stroke="#000" stroke-width=".964" stroke-miterlimit="10"/><path d="M182.1 167.8l47.6-45.1 4.9 5.3c-17.6 13.2-35.2 26.4-52.5 39.8z" class="st1" id="path218" fill="#039"/><path d="M182.1 167.8l47.6-45.1 4.9 5.3c-17.9 13.4-36.7 27.6-52.5 39.8z" class="st2" id="path222" fill="none" stroke="#000" stroke-width=".964" stroke-miterlimit="10"/><g transform="scale(.99034 -1.00975)" id="text228"><path d="M244.6-156.5v1.7c0 .2.1.2.2.3v.1h-1.6v-.1c.2 0 .2-.1.2-.3v-4.3c0-.2-.1-.2-.2-.3v-.1c3.6 0 5.3-.3 5.3 1.5 0 .8-.5 1.3-1.4 1.5l1 1.4c.2.3.4.6.7.6v.1H247v-.1c.3 0 .2-.2 0-.5l-1-1.5zm0-.8c2.2 0 2.8.1 2.8-.7 0-.8-.6-.7-2.8-.7z" id="path4564"/></g><g transform="scale(.99034 -1.00975)" id="text234"><path d="M251-153.2v1.8c0 .2.1.2.2.3v.1h-1.6v-.1c.2 0 .2-.1.2-.3v-4.3c0-.2-.1-.2-.2-.3v-.1h4.5c.2 0 .2-.1.3-.2h.1v1.3h-.1c0-.2-.1-.2-.3-.2H251v1.2h2.1c.1 0 .2 0 .3-.2h.1v1.3h-.1c-.1-.2-.1-.2-.3-.2z" id="path4561"/></g><g transform="scale(1 -1)" id="text89"><path d="M167.4-127.4v-7.3c0-.3-.1-.4-.4-.5v-.2c5 0 6.2-.1 7.3.4 2.9 1.2 2.9 5.7.9 7.4-1.3 1.1-2.8.9-8.2.9v-.2c.3-.1.4-.2.4-.5zm1.9-.7c2.9 0 5.3.4 5.3-2.9 0-3.4-2.6-2.9-5.3-2.9z" id="path4532"/><path d="M181-129.9v2h4.7c.2 0 .3-.1.4-.3h.2v1.9h-.2c-.1-.2-.2-.3-.4-.3H179v-.2c.2-.1.3-.2.3-.4v-6.2c0-.2-.1-.3-.3-.4v-.2h6.5c.2 0 .3-.1.4-.3h.2v1.9h-.1c-.1-.2-.2-.3-.4-.3H181v1.7h3c.2 0 .3-.1.4-.3h.2v1.9h-.2c-.1-.2-.2-.3-.4-.3z" id="path4534"/><path d="M190.7-129.7v2.4c0 .2.1.3.3.4v.2h-2.3v-.2c.2-.1.3-.2.3-.4v-6.2c0-.2-.1-.3-.3-.4v-.2h4.6c1.7 0 3 .4 3 2.2 0 1.2-.7 1.9-2 2.1 1.5 2.1 1.8 2.8 2.4 2.9v.2H194v-.2c.4-.1.3-.3 0-.7l-1.5-2.2zm0-1.2h2.5c.4 0 .9 0 1.2-.2.6-.3.6-1.6-.4-1.7h-3.3z" id="path4536"/><path d="M175.8-120.5v4.9c0 2-.7 3.3-4.3 3.3-3.5 0-4.3-1.3-4.3-3.3v-4.9c0-.3-.1-.4-.4-.5v-.2h2.7v.2c-.3.1-.4.2-.4.5v4.3c0 .6 0 1.3.4 1.7.8.9 3.3.9 4.2 0 .4-.4.4-1.1.4-1.7v-4.3c0-.3-.1-.4-.4-.5v-.2h2.6v.2c-.3.1-.5.2-.5.5z" id="path4538"/><path d="M185-115.7h-4.2v2.6c0 .2.1.3.3.4v.2h-2.3v-.2c.2-.1.3-.2.3-.4v-6.2c0-.2-.1-.3-.3-.4v-.2h2.3v.2c-.2.1-.3.2-.3.4v2.4h4.2v-2.4c0-.2-.1-.3-.3-.4v-.2h2.3v.2c-.2.1-.3.2-.3.4v6.2c0 .2.1.3.3.4v.2h-2.3v-.2c.2-.1.3-.2.3-.4z" id="path4540"/><path d="M191.4-115.5v2.4c0 .2.1.3.3.4v.2h-2.3v-.2c.2-.1.3-.2.3-.4v-6.2c0-.2-.1-.3-.3-.4v-.2h4.6c1.7 0 3 .4 3 2.2 0 1.2-.7 1.9-2 2.1 1.5 2.1 1.8 2.8 2.4 2.9v.2h-2.7v-.2c.4-.1.3-.3 0-.7l-1.5-2.2zm0-1.2h2.5c.8 0 1.6 0 1.6-1 0-1.2-.9-1-4.1-1z" id="path4542"/><path d="M201.6-115.8v2h4.7c.2 0 .3-.1.4-.3h.2v1.9h-.2c-.1-.2-.2-.3-.4-.3h-6.7v-.2c.2-.1.3-.2.3-.4v-6.2c0-.2-.1-.3-.3-.4v-.2h6.5c.2 0 .3-.1.4-.3h.2v1.9h-.2c-.1-.2-.2-.3-.4-.3h-4.6v1.7h3c.2 0 .3-.1.4-.3h.2v1.9h-.1c-.1-.2-.2-.3-.4-.3z" id="path4544"/><path d="M211.1-117.6v4.5c0 .2.1.3.3.4v.2h-2.2v-.2c.2-.1.3-.2.3-.4v-6.2c0-.2-.1-.3-.3-.4v-.2h2.5v.2c-.3.1-.3.3-.1.5l4 4.2v-4.4c0-.2-.1-.3-.3-.4v-.2h2.2v.2c-.2.1-.3.2-.3.4v6.2c0 .2.1.3.3.4v.2h-2.3v-.2c.4-.1.2-.3 0-.6z" id="path4546"/><path d="M220.5-113.1v-6.2c0-.2-.1-.3-.3-.4v-.2h4.1c2.8 0 4 1.4 4 3.7 0 2.3-1.2 3.7-4 3.7h-4.1v-.2c.2-.1.3-.2.3-.4zm1.6-.6h2c1.6 0 2.5-.6 2.5-2.5 0-1.8-.9-2.5-2.5-2.5h-2z" id="path4548"/><path d="M234.7-120c2.8 0 4.2 1.7 4.2 3.8 0 1.7-1.2 3.7-4.2 3.7-2.8 0-4.2-1.9-4.2-3.8s1.3-3.7 4.2-3.7zm0 1.2c-1.5 0-2.6 1.1-2.6 2.6s1.1 2.6 2.6 2.6c1.6 0 2.6-1.2 2.6-2.5 0-1.7-1.2-2.6-2.6-2.7z" id="path4550"/><path d="M244.4-116l-1.1.9v2c0 .2.1.3.3.4v.2h-2.3v-.2c.2-.1.3-.2.3-.4v-6.2c0-.2-.1-.3-.3-.4v-.2h2.3v.2c-.2.1-.3.2-.3.4v2.6l3-2.5c.3-.3.3-.4-.1-.5v-.2h3v.2c-.3.1-.5.2-.7.5-.6.5-.1.1-2.9 2.3 2.9 3.5 3.2 4.1 3.8 4.2v.2h-2.9v-.2c.4-.1.3-.3 0-.6z" id="path4552"/><path d="M255.6-118.7v5.6c0 .2.1.3.3.4v.2h-2.3v-.2c.2-.1.3-.2.3-.4v-5.6h-2.3c-.2 0-.3.1-.4.3h-.2v-1.9h.2c.1.2.1.3.4.3h6.1c.2 0 .3-.1.4-.3h.2v1.9h-.2c-.1-.2-.2-.3-.4-.3z" id="path4554"/><path d="M264.4-120c2.8 0 4.2 1.7 4.2 3.8 0 1.7-1.2 3.7-4.2 3.7-2.9 0-4.2-1.9-4.2-3.8s1.3-3.7 4.2-3.7zm0 1.2c-1.5 0-2.6 1.1-2.6 2.6s1.1 2.6 2.6 2.6c1.7 0 2.6-1.3 2.6-2.5 0-1.7-1.1-2.6-2.6-2.7z" id="path4556"/><path d="M273-115.5v2.4c0 .2.1.3.3.4v.2H271v-.2c.2-.1.3-.2.3-.4v-6.2c0-.2-.1-.3-.3-.4v-.2h4.6c1.7 0 3 .4 3 2.2 0 1.2-.7 1.9-2 2.1l1.4 2c.3.4.5.8 1 .9v.2h-2.7v-.2c.4-.1.3-.3 0-.7l-1.5-2.2zm0-1.2h3.2c1.2-.2 1.1-1.7 0-1.9-.3-.1-2.9 0-3.2 0z" id="path4558"/></g></g></g></svg>