<svg xmlns="http://www.w3.org/2000/svg" id="svg8" width="200" height="100" viewBox="0 0 200 100"><style id="style2">.st0{font-family:&apos;Arial-ItalicMT&apos;}.st1{font-size:19.4919px}.st2{font-family:&apos;ArialMT&apos;}.st3{font-size:21.4196px}</style><g id="layer1" transform="translate(0 -417.625)"><g id="g4584" transform="matrix(.5 0 0 .5 -.65 303.158)"><path d="M29.8 265.5h16.4l-9.5 31.3h3l7.3-6.3h15.1l6.2 10h1.9l12-35.1h18.1l-21.8 66H60l-8.2-19.1-26.7 19.2H6.3z" id="path4496"/><path d="M101.1 288h18.5l-9 26.6H129l9.6-27.3h20.1L144 331.2H86.1z" id="path4498"/><path d="M120.7 284.8h-18.3l6.6-18.6h18.5z" id="path4500"/><path d="M159.4 284.8h-18.3l6.6-18.6h18.5z" id="path4502"/><path d="M396.3 265.4l-213.4-.3-6.6 2.9c-12.5 12-10.5 18.3-10.2 34.1 1.8 2 3.7 3.9 6.5 4.6h28c2.3-.1 1.9.3 1.9 5.2 0 1.3-.7 1.6-1.7 1.5h-43.6l-6 17.8h57.6c3.9 0 7-3.1 9.5-8.1 5.1-14.1 3.8-8.5 5.7-24.5-.8-5.7-3.7-7.5-7.3-7.8H187c-2.7 0-2.2-1.1-2.2-4.8 0-1 .2-2 1.9-1.9h50.8l-16 47.2h19.9l15.3-47h133z" id="path4504"/><g transform="translate(-1.058)" id="text4508"><path d="M257.6 302.6l2.4-11.3h1.9c1.2 7.8 1.3 8.3 1.4 10.1.6-1.5 1.4-2.8 5.5-10.1h1.9l-2.4 11.3h-1.5c1.3-5.8 1.4-6.8 2.3-9.7-.7 1.5-.9 1.9-5.4 9.7h-1.5c-1.2-7.9-1.3-7.8-1.4-9.5-.2 1.9-.2 1.5-1.9 9.5z" id="path4534"/><path d="M270.9 299.5c0-6.5 7.7-6.9 7.7-1.8 0 6.3-7.7 6.6-7.7 1.8zm6.3-1.8c0-3.7-5-2.9-5 1.7.1 3.7 5 2.9 5-1.7z" id="path4536"/><path d="M282.6 301.5l-.2 1.1c-1.2.3-2.7.1-2.7-1.1 0-.5 1.1-5.5 1.2-6h-1.1l.2-1.1h1.1l.4-2 1.6-1-.6 3h1.4l-.2 1.1h-1.4c-1.2 5.7-1.8 6.5.3 6z" id="path4538"/><path d="M284 299.5c0-6.5 7.7-6.9 7.7-1.8 0 6.3-7.7 6.6-7.7 1.8zm6.4-1.8c0-3.7-5-2.9-5 1.7 0 3.7 5 2.9 5-1.7z" id="path4540"/><path d="M292.5 302.6l1.7-8.2h1.2l-.3 1.7c1.4-2.1 2.4-2.1 3.5-1.6l-.6 1.3c-1-.8-2.8 0-3.5 3.5l-.7 3.3z" id="path4542"/><path d="M297.7 303.4l1.4.1c0 .5.1.9.5 1.1.7.3 2.2.3 2.8-.5.4-.5.7-1.9.8-2.6-2.1 2.1-5.2 1.1-5.2-2.4 0-4.1 4.7-6.6 6.6-3.3l.3-1.3h1.3c-1.8 8.4-1.6 11.4-5.4 11.4-1.9 0-3.4-.8-3.1-2.5zm1.7-4.4c0 2.5 1.7 3 3.1 2 1.7-1.2 2.4-5.6-.4-5.6-1.6 0-2.7 2.1-2.7 3.6z" id="path4544"/><path d="M312.5 299.8l1.4.1c-.9 3-5.3 3.9-6.7 1.2-1.2-2.4.3-6.9 4-6.9 2.1 0 3.6 1.5 3.1 4.6h-6c-.5 3.4 3.1 3.8 4.2 1zm-4-2h4.6c.1-3.3-3.6-3.3-4.6 0z" id="path4546"/><path d="M315.3 302.6l1.7-8.2h1.2l-.3 1.7c1.4-2.1 2.4-2.1 3.5-1.6l-.6 1.3c-.2-.2-.5-.3-.8-.3-2.3 0-2.8 4.2-3.4 7z" id="path4548"/><path d="M326.1 301.6c-2.6 2.2-5.3 1.1-5.3-1.2 0-3.3 4.5-2.3 6.1-2.9.2-.6.3-1.3-.2-1.7-1-.8-3.1-.5-3.7 1.1l-1.4-.1c1.3-3.7 6.8-2.9 6.8-.4 0 2.1-1.2 3.9-.7 6.2h-1.4c-.2-.3-.2-.7-.2-1zm.5-3.1c-1.2.5-3.5.1-4.2 1.1-1.5 2.1 3.3 4 4.2-1.1zm-3.1-5.3l.3-1.6h1.5l-.3 1.6zm2.8 0l.3-1.6h1.4l-.3 1.6z" id="path4550"/><path d="M332.6 301.5l-.2 1.1c-1.2.3-2.7.1-2.7-1.1 0-.5 1.1-5.5 1.2-6h-1.1l.2-1.1h1.1l.4-2 1.6-1-.6 3h1.4l-.2 1.1h-1.4c-1.2 5.8-1.8 6.5.3 6z" id="path4552"/><path d="M339.7 299.8l1.4.1c-1.1 3.6-7.1 4.1-7.1-.6 0-6.3 8.6-7.1 7.4-.5h-6c-.4 3.5 3.1 3.7 4.3 1zm-4.1-2h4.6c.1-3.3-3.6-3.2-4.6 0z" id="path4554"/><path d="M352.7 298.2l.3-1.3h4.9l-1 4.6c-3.6 2.3-9.2 1.9-9.2-3.4 0-7.8 9.4-9.2 10.5-3.5l-1.5.2c-.3-1.5-1.4-2.4-2.9-2.4-6.3 0-6.6 12.9 1.7 8.2l.5-2.4z" id="path4556"/><path d="M359.1 302.6l1.7-8.2h1.4l-.3 1.3c2.1-2.3 4.3-1.7 4.7 0 .7-.9 1.6-1.5 2.8-1.5 3.2 0 1.9 2.9.8 8.3h-1.4c.1-.4 1.3-5.9 1.3-6.3 0-1.4-2.4-1-3.2.5-.5.9-.8 2.9-1.5 5.8H364c1.1-5.4 1.6-6.4 1-7-.5-.5-1.3-.2-1.9.1-1.6.9-1.6 2.5-2.5 6.8z" id="path4558"/><path d="M372.2 302.6l2.4-11.3h1.4l-.8 4c4.4-4.1 7.1 3.6 3 6.7-1.5 1.1-3.5 1-4.4-1l-.3 1.5zm2.1-3.3c-.1 3.8 4.5 3 4.5-1.7 0-2.6-3-3.2-4.2.2-.2.6-.3 1.1-.3 1.5z" id="path4560"/><path d="M381.1 302.6l2.4-11.3h1.5l-1 4.7h5.8l1-4.7h1.5l-2.4 11.3h-1.5l1.1-5.3h-5.8l-1.1 5.3z" id="path4563"/></g><g transform="translate(-1.058)" id="text4512"><path d="M256.8 319.7l2.4-11.3h1.9c1.2 7.8 1.3 8.3 1.4 10.1.6-1.5 1.4-2.8 5.5-10.1h1.9l-2.4 11.3H266c1.3-5.8 1.4-6.8 2.3-9.7-.7 1.5-.9 1.9-5.4 9.7h-1.5c-1.2-7.9-1.3-7.8-1.4-9.5-.2 1.9-.2 1.5-1.9 9.5z" id="path4505"/><path d="M275.8 316.9l1.4.1c-.9 3-5.3 3.9-6.7 1.2-1.2-2.4.3-6.9 4-6.9 2.1 0 3.6 1.5 3.1 4.6h-6c-.5 3.4 3 3.7 4.2 1zm-4-2h4.6c.1-3.4-3.7-3.3-4.6 0z" id="path4507"/><path d="M280.6 310l.3-1.6h1.4l-.3 1.6zm-2.1 9.7l1.7-8.2h1.4l-1.7 8.2z" id="path4509"/><path d="M282.2 316.9l1.4-.1c0 3.3 5.2 1.9 3.6.1-.4-.5-2.2-1.1-2.8-1.5-1.9-1.1-1.2-4.1 1.9-4.1 1.8 0 3.1.9 3.2 2.6l-1.4.1c-.1-1.6-2.1-2-3-1.3-1.8 1.5 2.1 2.1 3.2 3.1 1.4 1.4.6 4-2.7 4-1.9 0-3.4-.8-3.4-2.9z" id="path4511"/><path d="M293.2 318.5l-.2 1.1c-.8.2-1.7.2-2.3-.3-.8-.7-.2-1.9.8-6.8h-1.1l.2-1.1h1.1l.4-2 1.6-1-.6 3h1.4l-.2 1.1h-1.4c-1.2 5.8-1.8 6.6.3 6z" id="path4513"/><path d="M300.3 316.9l1.4.1c-.6 2-3.2 3.6-5.5 2.4-2.5-1.4-1.7-6 .7-7.5 2.3-1.4 6-.6 5.2 4h-6c-.5 3.4 3 3.7 4.2 1zm-4-2h4.6c.1-3.4-3.7-3.3-4.6 0z" id="path4515"/><path d="M303.1 319.7l1.7-8.2h1.2l-.3 1.7c1.4-2.1 2.5-2.1 3.5-1.6l-.6 1.3c-1.1-.8-2.8.1-3.5 3.5l-.7 3.3z" id="path4517"/><path d="M308.3 319.7l2.4-11.3h1.4l-.8 4c2.4-2.2 5-.9 5 2.2 0 4.9-5 6.9-6.4 3.5l-.3 1.5zm2.1-3.4c-.1 2.6 1.9 2.9 3.1 1.9 1.5-1.3 2.3-5.8-.3-5.8-2 0-2.8 2.9-2.8 3.9z" id="path4519"/><path d="M323.1 316.9l1.4.1c-1.1 3.7-7.1 4.1-7.1-.6 0-6.3 8.6-7.1 7.4-.5h-6c-.4 3.4 3.1 3.7 4.3 1zm-4-2h4.6c.1-3.4-3.7-3.3-4.6 0z" id="path4521"/><path d="M329.1 318.5l-.2 1.1c-.8.2-1.7.2-2.3-.3-.8-.7-.2-1.9.8-6.8h-1.1l.2-1.1h1.1l.4-2 1.6-1-.6 3h1.4l-.2 1.1h-1.4c-1.2 5.8-1.8 6.6.3 6z" id="path4523"/><path d="M330.2 319.7l1.7-8.2h1.2l-.3 1.7c1.4-2.1 2.5-2.1 3.5-1.6l-.6 1.3c-1-.7-2.8 0-3.5 3.5l-.7 3.3z" id="path4525"/><path d="M337.5 310l.3-1.6h1.4l-.3 1.6zm-2.1 9.7l1.7-8.2h1.4l-1.7 8.2z" id="path4527"/><path d="M345 316.9l1.4.1c-1.1 3.6-7.1 4.1-7.1-.6 0-6.3 8.6-7.1 7.4-.5h-6c-.4 3.4 3.1 3.7 4.3 1zm-4-2h4.6c0-3.4-3.7-3.3-4.6 0z" id="path4529"/><path d="M347.8 319.7l2.4-11.3h1.4l-.8 4c4.5-4.1 7 3.6 3 6.7-1.5 1.1-3.5 1-4.4-1l-.3 1.5zm2-3.4c-.1 2.6 1.9 2.9 3.1 1.9 1.5-1.3 2.3-5.8-.3-5.8-1.9 0-2.8 2.9-2.8 3.9z" id="path4531"/></g><path d="M47.3 374c-.2 0-.4.1-.4.2-.2.2 0 3.8 0 4.1l-1.7 2.4h-1.1v-4.2c0-.4-.4-.6-.6-.5-2.8.2-2.2-.6-2.3 4.8h-7c-.2 0-.3.1-.4.2l-2.1 2.9-10.4 2.5c-.7.2-.4.9-.4 5.6 0 .3.2.5.5.5 25.8 0 24.7.2 24.9-.4l.5-1.9c.3 0 19-.7 19.3-.7 3.5-.3 3.4-6.3-.1-6.2H47.5c-.1-2.3-.2-1.3.4-4.5v-.1c.1-.2 0-4.1-.2-4.3-.1-.4-.2-.4-.4-.4zm-4.3 3v3.7h-.7l.1-3.6zm-8.5 4.7h3c-2.1 2.9-1.6 1.1-1.6 9.6H22v-4.1c.3-.1 10.3-2.4 10.5-2.7zm4.3 0h7.5l.2 5.3-.6 2.2c-.1.1-.1.3-.1.4l-.4 1.7H37v-6.9zm8.8 2.5h18.5c2.3.1 2 3.9 0 4.1l-18.9.7c.6-2.5.5-1.1.4-4.8zM30.9 387l-6.3.2c-.2 0-.4.1-.5.3l-.9 1.9c-.2.4.1.7.5.7 9.3 0 8.1.8 7.7-2.7 0-.2-.3-.4-.5-.4zm-.5 1.1l.1 1h-6l.4-.8z" id="path4537"/><path d="M94.1 363.1c-.9 0-.5 1-.1 9.1-19.5-2.6-19-2.9-19.2-2.1-1 4.8-1.2.5 1.4 16.7 0 .3.3.4.5.4 13.6.3 14.1.7 14.1-.2 2.2 5.8 9.5 7 13.2 2.1v1.5c0 .3.2.5.5.5 17.6 0 15.6.7 15.7-1.8 1.5 5.6 9.7 3.9 8.8-1.9 1-.4 3-3.1 4.1-5.8.7-1.4.3-6.1-.5-6.4l-14.8-5.3c-.1-.6-.3-1.1-.7-1.6-.5-.5-1.3-.7-2.3-.4-1 .3-2.5 2.8-2.2 4.2.3 1.1 1.3 1.2 2.3 1.4 0 4.7.6 5.2-3.4 5.4-3.1.2-4.2-.1-6.6-4-.1-2.9.2-3.7-.5-3.9l-6.7-1.3c-.2-5.4 0-6.3-.7-6.3.1 0-2.8-.3-2.9-.3zm.6 1.1l1.9.2c.2 5.5 0 6.2.7 6.3l6.7 1.3v2.4l-8.8-1.2zm21.5 4.6c.6.1.8.9.9 1.5-.2 1.1-.7 1.5-1.6 2.2-1.4-.3-2-.2-1.5-1.6.2-.6.4-1.1 1.4-1.9.4-.2.6-.2.8-.2zm-40.4 1.9l18.3 2.5v.2l-3.5 2.1-15.3-2.4zm42.3.3l14.1 5.1c1 3.5.4 6.9-3.2 10.2-1.7-4.2-7.6-3.6-8.6.8-.1-.1-.2-.2-.4-.2h-14.6c1.9-5.3-1.9-10.9-7.2-10.9-3.1 0-5.8 1.9-7 4.7l.1-4.3 3.5-2.1 9.5 1.3c2.7 4.3 4.2 4.6 7.5 4.4 5.1-.3 4.4-1.6 4.4-6.6 1-.7 1.6-1.3 1.9-2.4zm-42.8 3.1l14.9 2.4-.3 10-12.6-.3zm22.8 3c3.7 0 6.6 3.1 6.6 7s-3 7-6.6 7c-3.7 0-6.6-3.1-6.6-7s3-7 6.6-7zm30.1 11c0 4.8-6.9 4.8-6.9 0s6.9-4.8 6.9 0zm-22.9-.2h14.1l-.1 2.1h-14.1z" id="path4562"/><path d="M146 352.2h-.3c-.4.1-.8.3-1.1.8-.9 1.3-3.8 4.7-1.8 6.9 10.2 11.1 6 7.8 19.1 14.6-14.4-4.2-15-4.8-15.1-3.8-1.4 15-1.8 15.1-1 15.2 16 2.8 16.2 3.2 16.3 2.3l.7-3.7c4.5-7.6 5.1-8 4.5-8.4-.1 0-15.4-8-15.5-8.1-10-10.8-8.9-8.8-8.1-11.9l1.8-2.6c.2-.3.5-.4.8-.2.6.4-.1 1-1.4 3.1-.2.4-.4.9-.4 1.4 0 .3.2.9.4 1.1 13.2 11.7 5.6 6.3 26.1 18.1l.3 3c0 .2.2.4.4.4l17.2 5.5c-.9 1.1-1.2 2.6-.5 4-.8 0-17.4.1-17.7.1 1.7-2.9-.6-6.3-3.8-6.3-2.4 0-4.4 1.9-4.4 4.3 0 3.7 4.5 5.7 7.4 3.1.2 0 19.1-.1 19.3-.2 2.5 2.5 6.8.8 6.8-2.6 0-3-3.4-4.8-6-3.2-.6-.2-.1 0-3-1l1.4-2.2c.9-1.2 1.1-3.9-.2-5.2-6.2-5.5-13.7-.7-13.4.3.4 1.3.1 2.2-.1 3.2l-2.2-.7-.3-2.9c0-.2-.1-.3-.3-.4-19.7-11.3-13.9-7.3-26.1-18-.2-.5-.2-.6.1-1.2 0 0-.1.1 1.4-2.3.9-1.2 0-2.5-1.3-2.5zm1.8 19.3l18.4 5.4c-5.3 9-4.1 6.1-4.9 10.7l-14.7-2.6zm33.6 3.8c1.8.1 3.4.2 5.9 2.3 1.5 2.2.2 3.7-1.5 6.4l-10.2-3.3c.2-.9.3-2 .1-3.3 1.8-1.4 3.7-2 5.7-2.1zm-14.5 9.6c4.4 0 4.4 6.4 0 6.4-4.4.1-4.4-6.4 0-6.4zm27.9 3.6c0 3.6-5.7 3.6-5.7 0s5.7-3.6 5.7 0z" id="path4578"/><path d="M259.1 355.4c-.4 0-.7.2-1 .4l-5.2 3.5c-2 1.2.3 3.9 2 2.8 1.8-1.3 1.4-1.1 3.5 3.1l-.2 7.3h-2.6l-2.7-1.6-.8-1.1v-.8c1.4 0 1.1.1 1.1-2.9 0-.3-.2-.5-.5-.5h-6.5v-.7c3.5 0 2.9.6 2.9-3.3 0-.3-.2-.5-.5-.5h-4.8c-.6-2.3-.6-3.1-1.2-3.1H240c-.3 0-.5.3-.5.5v4.1l-24.1 1c-.8 0-.5.6-.6 11.6h-3.4c-.3 0-.5.2-.5.5v6.6c0 .3.2.5.5.5h4.3c-2.7 4.1.3 9.5 5.1 9.5 3.9 0 6.9-3.6 6-7.5h16.9c.5 7.7 10.2 10.7 14.9 4.5v2.9c0 .3.2.5.5.5 28.9 0 31.3.6 31.3-1.8 0-20.6 3.7-4.8-21.3-11.3 0-2.6.3-2.2-2.3-2.2l-1.2-1.2c-1.2-5.8-1.3-12.5-6.2-15.7-.5-1.1-.2-1.1 1.1-2 1.1-.8.4-2.7-1-3-.1-.1-.2-.1-.4-.1zm.2 1.1c.5.1.9.9.6 1.1-1.2.9-2.5 1.4-1.4 3.5 0 .1.1.2.2.2 5.6 3.5 5 14.6 6 15.6 2 2 1.2 1.6 3.3 1.6 0 1.3-.2 2 .4 2.1 8.3 2.2 15.2 2.2 20.9.4v9.7l-.8.9h-28.9V389c0-.3-.2-.6-.5-.6 3.3-5.6-.8-12.6-7.2-12.6-4.4 0-8 3.4-8.3 7.8h-17.2c-1.8-4-7-4.9-10.1-1.7-.1-.2-.3-.2-.5-.2h-4v-5.5h31.1v-4.4h9.5c3.5 2.1 2.2 1.7 6.3 1.7.8 0 .5-.9.7-8.5 0-.2-1.8-3.6-1.9-3.8-.8-1.5-2.1-1-3.3 0-.6.4-1.6-.7-.8-1 .1 0 5.2-3.5 5.3-3.6.3-.2.4-.2.6-.1zm-18.8 2.5h1.6c.6 2.4.6 3.1 1.2 3.1h4.6v1.7h-2.4c-.3 0-.5.2-.5.5v1.7c0 .3.2.5.5.5h6.5v1.3c-1 0 .7 0-10.1-.1-.9-4.8-.6-5.3-1.5-5.3zm-.3 4.6l1.4 7.8c0 .2.2.3.3.4v3.4h-26.1l.1-10.6zm2 5.3l8.8.1c.1 1.5 0 1.2.5 1.8h-9zm9.8 8.1c4 0 7.3 3.2 7.3 7.3s-3.2 7.3-7.3 7.3c-4 0-7.3-3.2-7.3-7.3s3.2-7.3 7.3-7.3zm-13.1 1.2c-.1 0-.3.1-.4.2-1.1 1.1-.9.4-.9 3.6 0 .3.2.5.5.5h3.8c.3 0 .5-.2.5-.5v-3.2c0-.3-.2-.5-.5-.5zm.2 1.1h2.3v2.2h-2.8v-1.7zm12.7.6c-2.4 0-4.3 1.9-4.3 4.3s1.9 4.3 4.3 4.3 4.3-1.9 4.3-4.3-2-4.3-4.3-4.3zm12.7.7c-.3 0-.5.3-.5.5l.1 2.7-3.1.3c-.7.1-.6 1.1.1 1.1 4.7-.4 2.1-.1 11.5-1.4.6-.1.6-.9.1-1-.2 0-8.1-2.2-8.2-2.2zm-43.7.5c2.8 0 5.1 2.3 5.1 5.1s-2.3 5.1-5.1 5.1-5.1-2.3-5.1-5.1 2.3-5.1 5.1-5.1zm33.4 3.1c0 3.2-4.9 3.2-4.9 0s4.9-3.2 4.9 0zm10.9-2.3l4.7 1.3-4.7.6zm-44.3.9c-1.9 0-3.5 1.6-3.5 3.5s1.6 3.5 3.5 3.5 3.5-1.6 3.5-3.5c0-2-1.6-3.5-3.5-3.5zm66.2 1.5l-23.7 3c-.8 0-.6 1.2.1 1.1l23.7-3c.6-.1.5-1.1-.1-1.1zm-66.2.4c2.1 0 2.1 3.2 0 3.2-2.1-.1-2.1-3.2 0-3.2z" id="path4588"/><path d="M313.4 344.3c-.7.1-.3-.8-2.7 23.5l-2.4 4.6-5.9-2c-.3-.1-.6.1-.7.3l-.7 2.5c-.1.3.1.5.3.6.2.1 7.3 2.5 7.5 2.5-.7 2-.7 3.8-.4 5.7l-5.5.1c-.3 0-.5.2-.5.5v2.6c0 .3.2.5.5.5h6.7c2 3.7 6 6.3 10.5 6.3 5.7 0 10.4-3.9 11.6-9.2 10.6 0 9.8.5 9.8-1.2h7.5c-1.3 6.6 1.9 10.1 6.7 10.6 3.6.4 8.8-1 9.2-7.2h4.9c.3 0 .5-.2.5-.5v-4.1c0-2-2.9-1.9-2.9 0v1.5H365l-1.8-3.2h6.4c.3 0 .5-.2.5-.5v-4.6c-.1-1.6-2.6-1.5-2.6 0v1h-3.6c0-6.5 3.2-11.2-23.2-10.9l-4-14.9c.5-.1 1-.2 1.3-.5.4-.5.6-1.1.6-1.6 0-1.2-1-2.3-2.5-2.3.1-.1-22.7-.1-22.7-.1zm.6 1.1h22.2c1.4 0 1.8 1.5 1.1 2.2-1.8 2-3.1-4.4 2.5 16.3-7.4 2-5.5 1.6-8.9 1.6l-.8-1.2 6.8-4.1c.6-.3.3-.2-2.8-12.5-.1-.2-.3-.4-.5-.4-18.8 0-18.5-.3-18.6.5-2.2 19.2-2.5 19.1-1.6 19.2h2.1c.3 0 .5-.2.5-.5l-.1-6.7.5.1c1.2 1.6 1.4 3.9 1.6 6.2.1.8.7.5 9.3.5 2.4 3.8 4.8 7.4 4.7 12-1.7-12-18.1-14.1-22.8-3-.1-.1-6.8-2.4-7-2.5l.4-1.5c5.5 1.8 6.1 2.3 6.5 1.7 3.4-6.7 2.3-1.3 4.9-27.9zm1.9 3h17.2l2.8 11.1c-8.1 4.9-7.7 3.9-6.4 6h-10.6c-.2-2.3-.3-4.6-1.8-6.5-.1-.1-.2-.2-.3-.2-2.7-.3-2.1-1.2-2 7.1h-1zm24.6 16.4c4.9-.1 17.4-.1 21.3 2.8 1.5 1.1 1.2 1.3 1.2 7.6 0 .3.2.5.5.5h4.7c.3 0 .5-.2.5-.5v-1.6c.1-.1.4-.1.4.1v4h-6.8c-.4 0-.7.4-.5.8l2.5 4.3c.1.2.3.3.5.3h3.2c1.2 0-.1-3 .9-3 .2 0 .4 0 .4.4v3.6h-4.6c-.3 0-.5.2-.5.5.2 9.6-17.5 9.4-14.2-3.3.1-.3-.2-.7-.5-.7-9.8 0-9-.5-9 1.2H332c.1-.5.1-1.1.1-1.6.2.2 6.7.1 7 .1.3 0 .6-.3.5-.7-1.2-4.7-3.1-9-5.2-13.3zm-12 1.8h4.8c2 4.1 3.8 8.3 5 12.7h-5.4c.3-5-2-9-4.4-12.7zm-8.3 2.7c6.7 0 11.9 6 10.7 12.7-.1.1-.1.3-.1.5-1.1 4.9-5.4 8.5-10.6 8.5-6 0-10.9-4.9-10.9-10.9 0-5.9 4.8-10.8 10.9-10.8zm-.1 5.5c-3.2 0-5.7 2.6-5.7 5.7 0 3.2 2.6 5.7 5.7 5.7 3.2 0 5.7-2.6 5.7-5.7s-2.5-5.7-5.7-5.7zm0 1.5c5.6 0 5.6 8.5 0 8.5s-5.6-8.5 0-8.5zm36.9 2.8c-2.4 0-4.5 2-4.5 4.4 0 2.4 2 4.4 4.5 4.4 2.4 0 4.4-2 4.4-4.4 0-2.4-2-4.4-4.4-4.4zm2.9 4.4c0 3.9-6 3.9-6 0 .1-3.9 6-3.9 6 0zm-51.3-.3c.1.5.3 1.1.5 1.6h-5.7v-1.5z" id="path4640"/></g></g></svg>